<?xml version="1.0" encoding="utf-8"?>
<!-- Generator: Adobe Illustrator 18.1.0, SVG Export Plug-In . SVG Version: 6.00 Build 0)  -->
<!DOCTYPE svg PUBLIC "-//W3C//DTD SVG 1.0//EN" "http://www.w3.org/TR/2001/REC-SVG-20010904/DTD/svg10.dtd">
<svg version="1.0" xmlns="http://www.w3.org/2000/svg" xmlns:xlink="http://www.w3.org/1999/xlink" x="0px" y="0px"
	 viewBox="0 0 504 251" enable-background="new 0 0 504 251" xml:space="preserve">
<g id="trazado">
	<path fill="#B7B5B6" d="M459.4,10.8c-1.5-2.1-3.5-3.2-6.1-3.2c-1.1,0-2.3,0.2-4.1,0.6c-0.1,0-0.2,0-0.3,0.1
		c-0.2,0.1-17.1,5.3-23.6,7.2c-0.8,0.2-2,0.6-3.4,1c-10.6,3.2-35.5,10.6-63.8,17.2c-36.5,8.6-81.9,14.8-82.4,14.9
		c-0.1,0-15.5,1.9-33.7,3.7c-17.5,1.8-39.7,4.3-41.1,4.5c-1.6,0.1-5.5,0.6-7,3.8c-0.6,1.2-1.3,3.6,0.8,6.6c1,1.4,3.1,4.2,5.6,7.5
		c4.3,5.6,9.5,12.5,11.4,15.4c2.9,4.6,6.3,10.5,6.4,10.6l0,0.1c0.2,0.4,0.4,1,0.3,1.2c-0.1,0.2-0.2,0.3-0.2,0.3c0,0,0,0-0.1,0
		c-1.1-0.2-7.2-0.4-12.2-0.5c-0.2,0-1-0.3-1.4-1.5c-1.2-3.7-1.8-5.3-1.9-5.6c-0.2-0.7-1.4-4-4.1-7c-2.3-2.6-6.1-6.7-6.5-7.1
		c-0.7-0.8-3.1-3.3-6.8-4c-2.6-0.5-7.1-0.9-8.1-0.9c-0.3,0-0.6-0.1-1.1-0.1c-3,0-5.5,1.7-6.5,4.6c-1.4,3.7,0.2,6.7,1.2,8.5
		c0.2,0.3,0.3,0.6,0.4,0.9c0.9,1.9,12.2,21.6,14.6,25.6l2.5,4.9c0.3,0.7,1.2,2.9,1.2,4.6c-0.1,3-0.3,4.2-1,6.3
		c-0.7,2.3-3.1,7.3-3.1,7.4c0,0.1,0,0.1-0.1,0.2c-0.2,0.5-1,1.7-2,2.3c-2.6,1.4-13.9,6.6-14,6.6c0,0-0.1,0-0.1,0.1
		c0,0-1.4,0.6-3.5,0.6c-0.6,0-1.2,0-1.7-0.1l-1.3-0.2c-4.2-0.6-8.5-1.2-12.2-3.1c-4.2-2.1-4.4-2.3-6.8-5.7c-1.1-1.5-2.6-3.7-4.3-6
		c-2.7-3.8-5.2-7.3-6.2-8.6c-2-2.5-11.7-15-12.2-15.8c-1.5-2.2-4.6-6.1-8.8-6.7c-0.7-0.1-1.5-0.2-2.2-0.2c-3,0-6.1,0.8-10.3,2.6
		l-45.9,20c-2.1,0.9-5.9,3.6-6.1,7.9c-0.2,4.7,3.9,7.6,6,9.2l0.1,0c0.2,0.2,0.4,0.3,0.6,0.4c1.2,0.9,30.1,24.1,42.5,34l0.8,0.6
		l64.3,51l0,0l0,0l0.1,0.1c0.6,0.4,13.7,10.2,22.5,14.9c0.6,0.3,3.7,1.9,6.7,1.9c2.6,0,4.1-1.1,4.9-2c2.8-3.1,1.4-7.7,1.1-8.6
		l-8.4-25.6c0-0.1,0-0.1-0.1-0.2c-1.3-3.7-2.7-8.8-2.7-10.7c0.1-3.5,1.2-12.2,8.6-16.9c8.4-5.3,28.3-17.4,32.3-19.7l0.1-0.1
		c0.2-0.1,6.3-3.8,9.4-11.5c2.3-5.6,3-7.6,3.2-8.2c0.1-0.3,0.8-1.8,2-3c1.6-1.5,3.9-2.5,7.2-3.7c4.5-1.6,8.7-4.2,10.4-6.4
		c1.6-2,3.4-5.1,4.1-11.4c0.5-4.7,1.1-10,3.4-12.4c2.9-3.2,12.5-9.6,16.8-9.6l0.1,0l0.1,0c0,0,0.1,0,0.1,0c0.3,0,2.4,0.1,5.7,1.6
		c3.9,1.8,19.2,8.7,19.4,8.7c0.2,0.1,2.5,1,5,1c0.2,0,0.3,0,0.5,0c3.9-0.2,9.8-4.6,11.5-6c3.6-2.8,7.6-6.9,9.5-9.7
		c0.2-0.3,0.4-0.6,0.6-0.9l0-0.1c1.5-2.3,2.8-4.6,7.5-4.8c0.1,0,0.1,0,0.2,0c0,0,0.2,0,0.4,0c1,0,3.6,0.2,5.1,1.9
		c1.2,1.4,1.8,2.5,2.4,3.6c0.9,1.8,2.1,4,5,5.1c1.5,0.5,2.8,0.8,4.2,0.8c1.3,0,2.2-0.2,2.9-0.4c0.1,0,0.2-0.1,0.4-0.1
		c1.2-0.2,34.9-7.2,36.4-7.5c0.7-0.1,4.5-1,7.2-4.4c1.8-2.3,21.1-25.3,21.3-25.6l18-21.4c0,0,4-4.7,6.7-8.4c2.4-3.5,5.3-8.6,5.7-9.3
		C460.6,16.5,461.3,13.4,459.4,10.8z M195.8,61.5c0.2-0.4,0.5-0.8,0.8-1.1C196.3,60.7,196,61.1,195.8,61.5z M171.4,80.8
		c-0.1,0.4-0.2,0.8-0.3,1.1C171.1,81.6,171.2,81.2,171.4,80.8c0.1-0.3,0.2-0.5,0.3-0.7C171.6,80.3,171.5,80.6,171.4,80.8z
		 M175.5,82.4c-0.1,0.3-0.1,0.6-0.1,1C175.4,83,175.4,82.7,175.5,82.4c0.1-0.1,0.1-0.2,0.2-0.3C175.6,82.1,175.6,82.2,175.5,82.4z
		 M194.7,240.9c0.7-0.7,1-1.6,1.1-2.5C195.7,239.3,195.4,240.2,194.7,240.9c-0.1,0.1-0.2,0.2-0.4,0.4
		C194.5,241.2,194.6,241,194.7,240.9z M191.2,237.9c0.1,0,0.1,0,0.2,0C191.4,237.9,191.3,237.9,191.2,237.9c-0.1,0-0.3,0-0.4,0
		C191,237.9,191.1,237.9,191.2,237.9z M425.4,17.5c-0.5,0.1-1.1,0.3-1.7,0.5C424.3,17.8,424.9,17.6,425.4,17.5z M423.8,22.6
		c0.5-0.2,1-0.3,1.5-0.4C424.8,22.3,424.3,22.4,423.8,22.6c-0.4,0.1-0.9,0.3-1.3,0.4C422.9,22.8,423.3,22.7,423.8,22.6z M411.6,26.2
		c-1.7,0.5-3.4,1-5.3,1.5C408.2,27.2,409.9,26.7,411.6,26.2z M358.6,35.6c1.3-0.3,2.7-0.6,4-0.9C361.3,35,359.9,35.3,358.6,35.6
		c-2.2,0.5-4.3,1-6.6,1.5C354.3,36.6,356.5,36.1,358.6,35.6z M200.7,58.8c0.2,0,0.4,0,0.5,0c0.1,0,0.2,0,0.3,0c-0.2,0-0.3,0-0.3,0
		C201,58.8,200.9,58.8,200.7,58.8z M201.6,63.2c-0.1,0-0.1,0-0.2,0C201.5,63.2,201.5,63.2,201.6,63.2c0,0,0.4,0,1.1-0.1
		C202,63.1,201.6,63.2,201.6,63.2z M205.6,70.9c-0.5-0.6-0.9-1.2-1.3-1.8C204.7,69.7,205.1,70.3,205.6,70.9c1.4,1.9,2.9,3.9,4.4,5.9
		C208.5,74.7,207,72.7,205.6,70.9z M213.5,89.1c-0.2-0.4-0.5-0.8-0.9-1.3C213,88.3,213.2,88.7,213.5,89.1c0.7,1.2,1.5,2.4,2.2,3.6
		C215,91.5,214.2,90.3,213.5,89.1z M218.3,104.4c0.8,0,1.5-0.4,2-1.3C219.8,103.9,219.1,104.4,218.3,104.4c-0.1,0-0.2,0-0.3,0
		C218.1,104.4,218.2,104.4,218.3,104.4z M219.5,99.2c0.2,0.4,0.3,0.6,0.3,0.6c0,0,0,0,0,0c0,0,0,0,0,0
		C219.9,99.8,219.8,99.6,219.5,99.2z M220.1,100.3c0.1,0.2,0.2,0.4,0.2,0.7C220.3,100.7,220.2,100.5,220.1,100.3z M218.3,108.8
		L218.3,108.8c-0.4,0-0.7,0-1.1-0.1C217.6,108.8,217.9,108.8,218.3,108.8z M200.4,94.2c-0.1-0.3-0.3-0.7-0.5-1.2
		C200,93.5,200.2,93.9,200.4,94.2z M194.1,92.4c-0.1-0.1-0.2-0.3-0.3-0.4c-0.3-0.3-0.6-0.7-0.9-1.1c0.3,0.4,0.6,0.7,0.9,1.1
		C193.9,92.1,194,92.2,194.1,92.4z M193.2,84.7c-0.5-0.5-0.9-1-1.3-1.4C192.3,83.6,192.7,84.1,193.2,84.7z M187.1,139.2
		c0,0-0.1,0.2-0.2,0.4C187,139.4,187.1,139.3,187.1,139.2z M184.2,142.5c0.2-0.1,0.5-0.3,0.7-0.4
		C184.7,142.2,184.5,142.3,184.2,142.5c-0.2,0.1-0.4,0.2-0.6,0.3C183.9,142.7,184.1,142.6,184.2,142.5z M163,154.3
		c0.4,0.1,0.9,0.1,1.3,0.1C163.9,154.4,163.5,154.3,163,154.3l-0.7-0.1L163,154.3z M115.6,112.1c0.1,0.1,0.2,0.3,0.4,0.6
		C115.9,112.4,115.7,112.2,115.6,112.1c-0.3-0.4-0.6-0.8-0.9-1.2C115.1,111.3,115.4,111.7,115.6,112.1z M111.4,108.2
		c0.1,0,0.2,0.1,0.3,0.1C111.6,108.3,111.5,108.2,111.4,108.2c-0.5-0.1-0.9-0.1-1.4-0.1C110.4,108.1,110.9,108.2,111.4,108.2z
		 M57.5,136.2c-0.1-0.1-0.3-0.2-0.5-0.3C57.2,136,57.3,136.1,57.5,136.2c0.1,0.1,0.3,0.2,0.4,0.3C57.8,136.4,57.6,136.3,57.5,136.2z
		 M166,222.4c0,0-0.1-0.1-0.1-0.1l-64.3-50.9l64.3,50.9C165.9,222.4,165.9,222.4,166,222.4c0.1,0.1,0.4,0.3,0.7,0.5
		C166.4,222.7,166.1,222.5,166,222.4z M186.9,208.5c-0.1-0.4-0.3-0.8-0.4-1.3C186.7,207.7,186.8,208.2,186.9,208.5z M185.2,180.3
		c0.8-1,1.6-2,2.6-2.9C186.9,178.3,186,179.3,185.2,180.3z M223.8,154.9c0,0,0.2-0.1,0.4-0.3C223.9,154.8,223.8,154.9,223.8,154.9z
		 M226,158.7c0,0-0.1,0-0.2,0.1C226,158.8,226,158.7,226,158.7c0,0,0.1,0,0.1-0.1C226.1,158.7,226.1,158.7,226,158.7z M232.1,152.8
		c-0.4,0.6-0.9,1.1-1.3,1.6C231.3,154,231.7,153.4,232.1,152.8c0.7-1,1.4-2.1,2-3.3C233.5,150.7,232.8,151.8,232.1,152.8z
		 M233.7,138.4C233.7,138.5,233.7,138.5,233.7,138.4C233.7,138.5,233.7,138.5,233.7,138.4c0,0,0.1-0.3,0.4-0.8
		C233.9,138.1,233.8,138.4,233.7,138.4z M237.4,133.1c-0.2,0.1-0.3,0.3-0.4,0.4C237.1,133.4,237.2,133.2,237.4,133.1
		c0.3-0.3,0.6-0.6,0.9-0.8C238,132.5,237.7,132.8,237.4,133.1z M257.9,126.4c-0.3,0.4-0.6,0.7-1.1,1.1
		C257.2,127.2,257.6,126.8,257.9,126.4c0.4-0.5,0.8-1.1,1.2-1.8C258.7,125.3,258.2,125.9,257.9,126.4z M262.2,99.5
		c-0.9,1-1.7,2.2-2.3,3.4C260.5,101.6,261.3,100.5,262.2,99.5c0.3-0.3,0.7-0.7,1.1-1.1C262.8,98.8,262.5,99.1,262.2,99.5z
		 M265.5,102.5c-0.3,0.3-0.5,0.6-0.7,0.9C265,103,265.2,102.7,265.5,102.5c0.2-0.2,0.4-0.4,0.7-0.7
		C265.9,102,265.7,102.2,265.5,102.5z M284,92.2C284,92.2,284,92.2,284,92.2C284,92.2,284,92.2,284,92.2C284,92.2,284,92.2,284,92.2
		z M292.4,89.9c-0.5-0.2-1-0.4-1.4-0.6C291.5,89.5,292,89.7,292.4,89.9c0.1,0.1,0.3,0.1,0.5,0.2C292.7,90.1,292.6,90,292.4,89.9z
		 M311.7,98.6c0,0-0.2-0.1-0.7-0.3c-0.2-0.1-0.4-0.2-0.6-0.3c0.2,0.1,0.4,0.2,0.6,0.3C311.5,98.5,311.7,98.6,311.7,98.6
		C311.7,98.6,311.7,98.6,311.7,98.6C311.7,98.6,311.7,98.6,311.7,98.6z M314.2,103.6c-0.1,0-0.2,0-0.2,0c0.2,0,0.4,0,0.6,0
		C314.4,103.6,314.3,103.6,314.2,103.6z M334,88.8c-0.9,1.3-2.3,3-3.9,4.6s-3.4,3.3-5.1,4.7c-0.1,0.1-0.6,0.4-1.1,0.9
		c0.6-0.4,1-0.7,1.1-0.9c1.7-1.3,3.5-3,5.1-4.7S333.1,90.1,334,88.8c0.1-0.2,0.3-0.4,0.4-0.7C334.3,88.3,334.1,88.5,334,88.8z
		 M333.4,82c-0.6,0.6-1.1,1.3-1.5,1.9C332.3,83.2,332.8,82.6,333.4,82c0.4-0.4,0.8-0.8,1.3-1.2C334.2,81.2,333.8,81.6,333.4,82z
		 M361.1,93.5c-0.3,0-0.6,0-0.9,0C360.5,93.5,360.8,93.5,361.1,93.5L361.1,93.5z M363.6,93.2c-0.2,0-0.3,0.1-0.5,0.1
		C363.2,93.2,363.4,93.2,363.6,93.2C363.6,93.2,363.6,93.2,363.6,93.2C363.6,93.2,363.6,93.2,363.6,93.2z M400.3,85.6
		c0,0-0.1,0-0.2,0C400.2,85.6,400.3,85.6,400.3,85.6c0,0,0.1,0,0.3-0.1C400.4,85.5,400.3,85.6,400.3,85.6z M401.8,80.1
		c0.3-0.2,0.6-0.5,0.8-0.7C402.3,79.7,402.1,79.9,401.8,80.1z M445.6,34.9l-18,21.4L445.6,34.9C445.6,34.9,445.6,34.8,445.6,34.9
		C445.6,34.8,445.6,34.9,445.6,34.9z M446.9,22.9c-2.3,3.3-6.2,7.8-6.2,7.8l-18,21.4l-0.2,0.3c-4.6,5.5-19.6,23.4-21.2,25.5
		c-0.8,1-2.2,1.3-2.2,1.3l-1.2,0.2c-29.7,6.2-34.8,7.2-35.1,7.3c-0.2,0-0.3,0.1-0.5,0.1l-0.1,0c-0.5,0.1-0.8,0.2-1.1,0.2
		c-0.3,0-0.7-0.1-1.1-0.2c-0.2-0.3-0.4-0.8-0.6-1.1c-0.7-1.3-1.7-3.3-3.6-5.4c-3.8-4.2-9.2-4.7-11.4-4.7c-0.5,0-0.9,0-1.1,0
		c-9,0.5-12.5,6.1-14.1,8.8l-0.1,0.1c-0.1,0.2-0.3,0.4-0.4,0.6c-1.2,1.8-4.6,5.4-7.7,7.8c-3.4,2.7-6.2,4-6.8,4.2l0,0
		c-0.6,0-1.4-0.2-1.6-0.3c-0.8-0.3-14.8-6.7-19.3-8.7c-4.7-2.1-8-2.4-9.2-2.4l0,0c-0.1,0-0.1,0-0.2,0c-7.8,0-19.7,8.7-23.1,12.4
		c-4.1,4.5-4.9,11.2-5.5,17.2c-0.5,4.8-1.8,6.5-2.4,7.2c-0.4,0.5-3,2.3-6.7,3.6c-4.4,1.6-7.5,3-10.1,5.5c-2.7,2.5-4,5.7-4.1,6.1
		c0,0,0,0.1,0,0.1c0,0.1-0.7,1.9-3.1,7.9c-2,5-5.9,7.4-6,7.5l-0.1,0c-3.9,2.4-24,14.5-32.5,19.9c-10.8,6.9-12.3,18.9-12.5,23.8
		c-0.1,4.3,2.6,12.2,3.2,13.8l8,24.4c-0.1-0.1-0.2-0.1-0.3-0.2c-7.8-4.2-19.9-13.1-21.4-14.2l-64.2-50.9l-1.5-1.2
		c-26.5-21.2-41-32.8-41.9-33.5c-0.2-0.2-0.5-0.4-0.8-0.6c-1.4-1-2.1-1.6-2.4-2c0.2-0.2,0.6-0.4,0.8-0.5l46-20
		c3.1-1.3,5.2-1.9,6.9-1.9c0.4,0,0.7,0,1.1,0.1c0.4,0.1,1.8,1.3,2.9,3c0.7,1.1,12.1,15.7,12.6,16.4c0.9,1.1,3.4,4.7,5.9,8.2
		c1.6,2.2,3.2,4.5,4.3,6.1c3.2,4.5,4.5,5.6,9.8,8.3c4.9,2.5,10.2,3.3,14.8,3.9l1.3,0.2c1,0.1,2,0.2,3,0.2c3.9,0,6.5-1.1,7.2-1.5l0,0
		c2.7-1.3,11.8-5.5,14.3-6.8c3.7-2,5.4-5.6,5.8-6.4c0.3-0.7,2.6-5.6,3.4-8.3c0.9-2.9,1.2-4.7,1.4-8.5c0.2-4.3-1.9-8.4-2.1-8.9
		l-2.5-4.9c0-0.1-0.1-0.1-0.1-0.2c-6.5-11.4-13.8-24.1-14.4-25.2c-0.2-0.4-0.4-0.8-0.6-1.2c-0.1-0.1-0.1-0.3-0.2-0.4
		c1.7,0.2,4.2,0.4,5.8,0.7c0.9,0.2,1.8,0.9,2,1.2c0,0.1,0.1,0.1,0.1,0.2c0.2,0.2,4.2,4.5,6.4,7c1.7,1.9,2.4,4.1,2.4,4.1
		c0,0.1,0.1,0.2,0.1,0.2c0.1,0.1,0.6,1.6,1.8,5.4c1.8,5.4,6.4,7.1,8.8,7.3c0.1,0,0.1,0,0.2,0c6,0.2,10.7,0.3,11.3,0.4
		c0.4,0.1,0.9,0.1,1.3,0.1c3.2,0,6-1.7,7.6-4.6c1.9-3.4,0.9-7.3-0.5-9.6c-0.6-1.1-3.8-6.5-6.5-10.8c-2-3.2-7.4-10.3-11.8-16l0-0.1
		c-1.3-1.7-2.5-3.3-3.5-4.6c5.7-0.7,24.2-2.7,39.3-4.3c18.2-1.9,33.8-3.8,33.9-3.8c0.5-0.1,46.2-6.4,83.2-15.1
		c28.6-6.7,53.6-14.2,64.2-17.4l0.2-0.1c1.3-0.4,2.4-0.7,3.1-0.9c5.9-1.7,20.6-6.3,23.2-7.1C449.8,18.3,448.2,21,446.9,22.9z
		 M184.1,197.6c0-0.2,0-0.3,0-0.5c0-0.9,0.1-2.1,0.3-3.5c-0.2,1.4-0.3,2.6-0.3,3.5C184.1,197.2,184.1,197.4,184.1,197.6z M194,117
		l-0.9-1.7L194,117c0,0,0.2,0.3,0.4,0.7C194.1,117.3,194,117,194,117z M194.6,132.8c0.1-0.3,0.2-0.7,0.3-1
		C194.8,132.2,194.7,132.5,194.6,132.8c-0.1,0.3-0.2,0.7-0.4,1.1C194.3,133.5,194.5,133.2,194.6,132.8z M223.7,97.5
		c-0.1-0.1-0.3-0.5-0.6-1.1C223.4,97,223.7,97.4,223.7,97.5c0.1,0.1,0.1,0.2,0.2,0.3C223.8,97.7,223.8,97.6,223.7,97.5z
		 M224.2,105.2c0.1-0.2,0.2-0.4,0.3-0.6C224.4,104.8,224.3,105,224.2,105.2c-0.2,0.4-0.5,0.7-0.7,1.1
		C223.7,105.9,223.9,105.6,224.2,105.2z M450.1,29.4c0.7-0.9,1.4-1.9,2.1-2.8C451.5,27.5,450.8,28.4,450.1,29.4z M452.8,14
		c0.2,0,0.3,0,0.5,0h0C453.2,14,453,14,452.8,14z M453.3,9.6L453.3,9.6c0.2,0,0.5,0,0.7,0C453.8,9.6,453.5,9.6,453.3,9.6z M454,15.2
		C453.9,15.2,453.9,15.2,454,15.2c0,0.1-0.1,0.1-0.1,0.2C453.9,15.3,453.9,15.3,454,15.2C453.9,15.2,453.9,15.2,454,15.2
		c0-0.1,0.1-0.1,0.1-0.2C454,15.1,454,15.1,454,15.2z M456.4,10.5c0.5,0.4,1,0.8,1.4,1.4C457.4,11.3,456.9,10.8,456.4,10.5z"/>
</g>
<g id="PUNTOS_INTERMEDIOS_Y_SEMAFORO">
	<path fill="#AC1737" d="M157.1,98.2c-0.2-0.5,0.1-1,0.6-1.1l25.6-8.7c0.5-0.2,1,0.1,1.1,0.6c0.2,0.5-0.1,1-0.6,1.1l-25.6,8.7
		C157.8,98.9,157.3,98.7,157.1,98.2z"/>
	<path fill="#AC1737" d="M286.5,59.3c-0.5,0.1-0.9-0.3-1-0.8L281,25.8c-0.1-0.5,0.3-0.9,0.8-1s0.9,0.3,1,0.8l4.5,32.7
		C287.3,58.8,286.9,59.2,286.5,59.3z"/>
	<path fill="#AC1737" d="M293.4,109.8c-0.5,0.1-0.9-0.3-1-0.8L288,76.3c-0.1-0.5,0.3-0.9,0.8-1c0.5-0.1,0.9,0.3,1,0.8l4.5,32.7
		C294.2,109.3,293.9,109.7,293.4,109.8z"/>
	<path fill="#AC1737" d="M377.9,42.8c-0.5,0.1-0.9-0.2-1.1-0.7L369.2,10c-0.1-0.5,0.2-0.9,0.7-1.1c0.5-0.1,0.9,0.2,1.1,0.7l7.6,32.2
		C378.7,42.3,378.4,42.7,377.9,42.8z"/>
	<g>
		<path fill="#AC1737" d="M274.2,30.2c0-4.2,3.4-7.6,7.6-7.6h2.7c4.2,0,7.6,3.4,7.6,7.6V35c0,4.2-3.4,7.6-7.6,7.6h-2.7
			c-4.2,0-7.6-3.4-7.6-7.6V30.2L274.2,30.2z"/>
		<g>
			<path fill="#FFFFFF" d="M281.1,34.7c0.6,0.6,1.4,0.9,2.2,0.9c0.9,0,1.4-0.4,1.4-1.1c0-0.7-0.5-0.9-1.3-1.2l-1.1-0.5
				c-0.8-0.3-1.7-1-1.7-2.2c0-1.3,1.2-2.3,2.8-2.3c1,0,1.9,0.4,2.6,1.1l-0.8,0.9c-0.5-0.4-1.1-0.7-1.8-0.7c-0.8,0-1.3,0.4-1.3,1
				c0,0.6,0.6,0.9,1.3,1.2l1.1,0.5c1,0.4,1.7,1,1.7,2.2c0,1.3-1.1,2.5-3,2.5c-1.1,0-2.2-0.4-3-1.2L281.1,34.7z"/>
		</g>
	</g>
	<g>
		<path fill="#AC1737" d="M43.1,165.8c0-4.2,3.4-7.6,7.7-7.6h11.7c4.2,0,7.6,3.4,7.6,7.6v4.8c0,4.2-3.4,7.6-7.6,7.6H50.8
			c-4.2,0-7.7-3.4-7.7-7.6V165.8L43.1,165.8z"/>
		<g>
			<path fill="#FFFFFF" d="M50.7,164.1h5v1.2h-3.5v2.3h3v1.2h-3v3.5h-1.5V164.1z"/>
			<path fill="#FFFFFF" d="M57.7,164.1h1.5v7.1h3.4v1.2h-4.9V164.1z"/>
		</g>
	</g>
	<g>
		<path fill="#AC1737" d="M147.1,91.8c0-4.2,3.4-7.7,7.6-7.7h5.1c4.2,0,7.7,3.4,7.7,7.7V97c0,4.2-3.4,7.6-7.7,7.6h-5.1
			c-4.2,0-7.6-3.4-7.6-7.6V91.8L147.1,91.8z"/>
		<g>
			<path fill="#FFFFFF" d="M152.8,90.7c0-0.5,0.4-0.8,0.9-0.8c0.5,0,0.9,0.3,0.9,0.8c0,0.5-0.4,0.8-0.9,0.8
				C153.2,91.5,152.8,91.1,152.8,90.7z M152.9,92.6h1.5v6.2h-1.5V92.6z"/>
			<path fill="#FFFFFF" d="M157,96.9c0.5,0.5,1.1,0.9,1.9,0.9c0.9,0,1.5-0.5,1.5-1.2c0-0.8-0.5-1.4-2.4-1.4v-1.1
				c1.6,0,2.1-0.5,2.1-1.3c0-0.7-0.5-1.1-1.2-1.1c-0.6,0-1.1,0.3-1.6,0.8l-0.8-0.9c0.7-0.6,1.5-1,2.4-1c1.5,0,2.6,0.8,2.6,2.1
				c0,0.9-0.5,1.5-1.4,1.9v0.1c1,0.3,1.7,0.9,1.7,2c0,1.5-1.3,2.3-2.8,2.3c-1.3,0-2.2-0.5-2.7-1.1L157,96.9z"/>
		</g>
	</g>
	<g>
		<path fill="#AC1737" d="M285.1,113.5c0-4.2,3.4-7.6,7.7-7.6h3.9c4.2,0,7.7,3.4,7.7,7.6v5.5c0,4.2-3.4,7.7-7.7,7.7h-3.9
			c-4.2,0-7.7-3.4-7.7-7.7V113.5L285.1,113.5z"/>
		<g>
			<path fill="#FFFFFF" d="M290.2,112.6c0-0.5,0.4-0.8,0.9-0.8c0.5,0,0.9,0.3,0.9,0.8c0,0.5-0.4,0.8-0.9,0.8
				C290.5,113.4,290.2,113.1,290.2,112.6z M290.3,114.5h1.5v6.2h-1.5V114.5z"/>
			<path fill="#FFFFFF" d="M294.3,119.6h1.8v-5.3h-1.5v-0.9c0.8-0.2,1.4-0.4,1.9-0.7h1.1v6.9h1.6v1.2h-4.9V119.6z"/>
		</g>
	</g>
	<g>
		<path fill="#AC1737" d="M360.7,14.8c0-4.2,3.4-7.7,7.6-7.7h5c4.2,0,7.7,3.4,7.7,7.7v5.1c0,4.2-3.4,7.7-7.7,7.7h-5
			c-4.2,0-7.6-3.4-7.6-7.7V14.8L360.7,14.8z"/>
		<g>
			<path fill="#FFFFFF" d="M366.3,13.6c0-0.5,0.4-0.8,0.9-0.8s0.9,0.3,0.9,0.8c0,0.5-0.4,0.8-0.9,0.8S366.3,14.1,366.3,13.6z
				 M366.5,15.6h1.5v6.2h-1.5V15.6z"/>
			<path fill="#FFFFFF" d="M370,20.9c2.2-2.2,3.7-3.6,3.7-4.8c0-0.9-0.5-1.4-1.3-1.4c-0.6,0-1.1,0.4-1.6,0.9l-0.8-0.8
				c0.7-0.8,1.5-1.2,2.6-1.2c1.5,0,2.6,1,2.6,2.5c0,1.4-1.3,2.9-2.9,4.6c0.4,0,1-0.1,1.3-0.1h2v1.2H370V20.9z"/>
		</g>
	</g>
	<g>
		<path fill="#AC1737" d="M64.1,163.6c-0.4-0.3-0.4-0.9-0.1-1.2l15.9-19.7c0.3-0.4,0.8-0.4,1.2-0.1l13.8,11.1
			c0.4,0.3,0.4,0.9,0.1,1.2c-0.3,0.4-0.9,0.4-1.2,0.1l-12.8-10.3c-0.1-0.1-0.4-0.1-0.5,0.1l-15.1,18.7
			C65,163.8,64.4,163.9,64.1,163.6z"/>
		<path fill="#AC1737" d="M96.4,156.7c0.4,0.1,0.7-0.3,0.6-0.7l-1.3-3.4l-1.3-3.4c-0.1-0.4-0.7-0.5-0.9-0.1l-2.3,2.9l-2.3,2.9
			c-0.3,0.3-0.1,0.8,0.3,0.9l3.6,0.6L96.4,156.7z"/>
	</g>
	<g>
		<path fill="#7B7C7D" d="M21.1,163.7c0-4.2,3.4-7.6,7.6-7.6h6.8c4.2,0,7.6,3.4,7.6,7.6v8.3c0,4.2-3.4,7.6-7.6,7.6h-6.8
			c-4.2,0-7.6-3.4-7.6-7.6V163.7L21.1,163.7z"/>
		<g>
			<path fill="#FFFFFF" d="M30.9,177.4c-3.9,0-7.1-3.2-7.1-7.1v-4.8c0-3.9,3.2-7.1,7.1-7.1h2.7c3.9,0,7.1,3.2,7.1,7.1v4.8
				c0,3.9-3.2,7.1-7.1,7.1H30.9z"/>
			<path fill="#C7C6C5" d="M33.6,158.8c3.7,0,6.6,3,6.6,6.6v4.8c0,3.7-3,6.6-6.6,6.6h-2.7c-3.7,0-6.6-3-6.6-6.6v-4.8
				c0-3.7,3-6.6,6.6-6.6H33.6 M33.6,157.8h-2.7c-4.2,0-7.6,3.4-7.6,7.6v4.8c0,4.2,3.4,7.6,7.6,7.6h2.7c4.2,0,7.6-3.4,7.6-7.6v-4.8
				C41.3,161.3,37.8,157.8,33.6,157.8L33.6,157.8z"/>
		</g>
		<g>
			<defs>
				<path id="SVGID_15_" d="M23.1,165.5c0-4.2,3.4-7.6,7.6-7.6h2.7c4.2,0,7.6,3.4,7.6,7.6v4.8c0,4.2-3.4,7.6-7.6,7.6h-2.7
					c-4.2,0-7.6-3.4-7.6-7.6V165.5L23.1,165.5z"/>
			</defs>
			<clipPath id="SVGID_2_">
				<use xlink:href="#SVGID_15_"  overflow="visible"/>
			</clipPath>
			<g clip-path="url(#SVGID_2_)">
				<rect x="17.8" y="159.5" fill="#1E1E1C" width="4.2" height="4.2"/>
				<rect x="22" y="163.7" fill="#1E1E1C" width="4.2" height="4.2"/>
				<rect x="26.2" y="159.5" fill="#1E1E1C" width="4.2" height="4.2"/>
				<rect x="30.3" y="163.7" fill="#1E1E1C" width="4.2" height="4.2"/>
				<rect x="17.8" y="167.8" fill="#1E1E1C" width="4.2" height="4.2"/>
				<rect x="22" y="172" fill="#1E1E1C" width="4.2" height="4.2"/>
				<rect x="26.2" y="167.8" fill="#1E1E1C" width="4.2" height="4.2"/>
				<rect x="30.3" y="172" fill="#1E1E1C" width="4.2" height="4.2"/>
				<rect x="34.5" y="159.5" fill="#1E1E1C" width="4.2" height="4.2"/>
				<rect x="38.7" y="163.7" fill="#1E1E1C" width="4.2" height="4.2"/>
				<rect x="34.5" y="167.8" fill="#1E1E1C" width="4.2" height="4.2"/>
				<rect x="38.7" y="172" fill="#1E1E1C" width="4.2" height="4.2"/>
			</g>
		</g>
		<g>
			<path fill="#C7C6C5" d="M33.6,158.8c3.7,0,6.6,3,6.6,6.6v4.8c0,3.7-3,6.6-6.6,6.6h-2.7c-3.7,0-6.6-3-6.6-6.6v-4.8
				c0-3.7,3-6.6,6.6-6.6H33.6 M33.6,157.8h-2.7c-4.2,0-7.6,3.4-7.6,7.6v4.8c0,4.2,3.4,7.6,7.6,7.6h2.7c4.2,0,7.6-3.4,7.6-7.6v-4.8
				C41.3,161.3,37.8,157.8,33.6,157.8L33.6,157.8z"/>
		</g>
	</g>
	<path fill="#7B7C7D" d="M82,204.1c0-4.2,3.4-7.6,7.6-7.6h25.8c4.2,0,7.6,3.4,7.6,7.6v8.3c0,4.2-3.4,7.6-7.6,7.6H89.7
		c-4.2,0-7.6-3.4-7.6-7.6V204.1L82,204.1z"/>
	<g>
		<g>
			<path fill="#C01724" d="M91.3,217.8c-3.9,0-7.1-3.2-7.1-7.1v-4.8c0-3.9,3.2-7.1,7.1-7.1H94c3.9,0,7.1,3.2,7.1,7.1v4.8
				c0,3.9-3.2,7.1-7.1,7.1H91.3z"/>
			<path fill="#AA1920" d="M94,199.3c3.7,0,6.6,3,6.6,6.6v4.8c0,3.7-3,6.6-6.6,6.6h-2.7c-3.7,0-6.6-3-6.6-6.6v-4.8
				c0-3.7,3-6.6,6.6-6.6H94 M94,198.3h-2.7c-4.2,0-7.6,3.4-7.6,7.6v4.8c0,4.2,3.4,7.6,7.6,7.6H94c4.2,0,7.6-3.4,7.6-7.6v-4.8
				C101.7,201.7,98.2,198.3,94,198.3L94,198.3z"/>
		</g>
		<g>
			<path fill="#009548" d="M111.1,217.8c-3.9,0-7.1-3.2-7.1-7.1v-4.8c0-3.9,3.2-7.1,7.1-7.1h2.7c3.9,0,7.1,3.2,7.1,7.1v4.8
				c0,3.9-3.2,7.1-7.1,7.1H111.1z"/>
			<path fill="#006139" d="M113.8,199.3c3.7,0,6.6,3,6.6,6.6v4.8c0,3.7-3,6.6-6.6,6.6h-2.7c-3.7,0-6.6-3-6.6-6.6v-4.8
				c0-3.7,3-6.6,6.6-6.6H113.8 M113.8,198.3h-2.7c-4.2,0-7.6,3.4-7.6,7.6v4.8c0,4.2,3.4,7.6,7.6,7.6h2.7c4.2,0,7.6-3.4,7.6-7.6v-4.8
				C121.4,201.7,118,198.3,113.8,198.3L113.8,198.3z"/>
		</g>
	</g>
</g>
<g id="textos_y_numeros">
	<g>
		<g>
			<path fill="#7B7C7D" d="M201.8,246.5h1.7v-4H202v-1.3c0.9-0.2,1.5-0.4,2-0.8h1.6v6.1h1.4v1.7h-5.2V246.5z"/>
		</g>
	</g>
	<g>
		<g>
			<path fill="#7B7C7D" d="M193.9,192.9c1.9-1.7,3.3-3,3.3-4.1c0-0.7-0.4-1-1-1c-0.5,0-0.9,0.4-1.3,0.7l-1.1-1.1
				c0.8-0.9,1.6-1.3,2.7-1.3c1.6,0,2.7,1,2.7,2.6c0,1.3-1.2,2.6-2.2,3.7c0.4,0,1-0.1,1.3-0.1h1.3v1.8h-5.7V192.9z"/>
		</g>
	</g>
	<g>
		<g>
			<path fill="#7B7C7D" d="M237.9,160c0.5,0.4,1,0.7,1.6,0.7c0.7,0,1.1-0.2,1.1-0.7c0-0.6-0.3-0.9-2-0.9v-1.5c1.3,0,1.7-0.3,1.7-0.9
				c0-0.5-0.3-0.7-0.8-0.7c-0.5,0-0.9,0.2-1.4,0.6l-1.1-1.3c0.8-0.6,1.6-1,2.5-1c1.7,0,2.8,0.8,2.8,2.2c0,0.8-0.4,1.3-1.3,1.7v0
				c0.9,0.3,1.5,0.9,1.5,1.9c0,1.5-1.4,2.3-3,2.3c-1.3,0-2.2-0.4-2.8-1.1L237.9,160z"/>
		</g>
	</g>
	<g>
		<g>
			<path fill="#7B7C7D" d="M249.9,144.5h-0.8v1.8h-2v-1.8h-3.3V143l2.7-4.6h2.6v4.5h0.8V144.5z M247.1,142.9V142
				c0-0.5,0-1.3,0.1-1.9h0c-0.2,0.5-0.4,0.9-0.6,1.4l-0.7,1.3H247.1z"/>
		</g>
	</g>
	<g>
		<g>
			<path fill="#7B7C7D" d="M264.7,131.7c0.5,0.4,1,0.7,1.6,0.7c0.7,0,1.2-0.3,1.2-1c0-0.7-0.4-1-1.1-1c-0.4,0-0.6,0.1-1.1,0.4
				l-0.9-0.6l0.2-4h4.6v1.8h-2.8l-0.1,1.1c0.3-0.1,0.5-0.1,0.7-0.1c1.4,0,2.5,0.8,2.5,2.4c0,1.8-1.4,2.8-3,2.8
				c-1.3,0-2.2-0.5-2.8-1.1L264.7,131.7z"/>
		</g>
	</g>
	<g>
		<g>
			<path fill="#7B7C7D" d="M269.5,81.3c-0.2-0.3-0.7-0.5-1.2-0.5c-0.8,0-1.4,0.5-1.4,2.1c0.4-0.5,1-0.8,1.5-0.8
				c1.3,0,2.4,0.7,2.4,2.4c0,1.7-1.2,2.7-2.7,2.7c-1.5,0-3.1-1.1-3.1-3.9s1.6-4.2,3.2-4.2c1.1,0,1.9,0.5,2.4,1L269.5,81.3z
				 M268.8,84.5c0-0.8-0.4-0.9-0.9-0.9c-0.4,0-0.7,0.2-1,0.7c0.2,1.1,0.6,1.4,1,1.4C268.4,85.6,268.8,85.3,268.8,84.5z"/>
		</g>
	</g>
	<g>
		<g>
			<path fill="#7B7C7D" d="M321.5,107.6h-3.4v-1.8h5.6v1.3c-1.8,2.1-2,3.5-2.1,6.5h-2.1C319.6,111.2,320,109.6,321.5,107.6z"/>
		</g>
	</g>
	<g>
		<g>
			<path fill="#7B7C7D" d="M344.3,67.4L344.3,67.4c-0.6-0.5-1-1.1-1-1.9c0-1.4,1.1-2.2,2.6-2.2c1.5,0,2.4,0.8,2.4,2.2
				c0,0.7-0.4,1.3-1,1.6v0c0.8,0.4,1.3,1,1.3,2.1c0,1.3-1.1,2.2-2.9,2.2c-1.6,0-2.8-0.9-2.8-2.1C343,68.3,343.6,67.8,344.3,67.4z
				 M345.9,69.9c0.5,0,0.9-0.2,0.9-0.8c0-0.6-0.5-0.8-1.5-1.2c-0.2,0.3-0.4,0.7-0.4,1.1C344.9,69.6,345.3,69.9,345.9,69.9z
				 M346.6,65.6c0-0.5-0.3-0.9-0.8-0.9c-0.4,0-0.7,0.2-0.7,0.8c0,0.5,0.4,0.8,1.2,1.1C346.5,66.2,346.6,65.9,346.6,65.6z"/>
		</g>
	</g>
	<g>
		<g>
			<path fill="#7B7C7D" d="M356.1,102.7c0.2,0.3,0.7,0.5,1.2,0.5c0.8,0,1.4-0.5,1.4-2.1c-0.4,0.5-1,0.8-1.5,0.8
				c-1.3,0-2.4-0.7-2.4-2.4s1.2-2.7,2.7-2.7c1.5,0,3.1,1.1,3.1,3.9c0,2.8-1.6,4.2-3.2,4.2c-1.1,0-1.9-0.5-2.4-1L356.1,102.7z
				 M358.7,99.8c-0.2-1.1-0.6-1.4-1-1.4c-0.4,0-0.8,0.3-0.8,1.1c0,0.8,0.4,0.9,0.9,0.9C358.1,100.4,358.4,100.3,358.7,99.8z"/>
		</g>
	</g>
	<g>
		<g>
			<path fill="#7B7C7D" d="M410.7,90.8h1.7v-4h-1.5v-1.3c0.9-0.2,1.5-0.4,2-0.8h1.6v6.1h1.4v1.7h-5.2V90.8z"/>
			<path fill="#7B7C7D" d="M417,88.6c0-2.7,1.2-4,2.9-4s2.9,1.4,2.9,4c0,2.7-1.2,4.1-2.9,4.1S417,91.3,417,88.6z M420.8,88.6
				c0-2.1-0.4-2.4-0.9-2.4s-0.9,0.3-0.9,2.4s0.4,2.5,0.9,2.5S420.8,90.7,420.8,88.6z"/>
		</g>
	</g>
	<g>
		<g>
			<path fill="#7B7C7D" d="M183.5,54.3h1.7v-4h-1.5v-1.3c0.9-0.2,1.5-0.4,2-0.8h1.6v6.1h1.4V56h-5.2V54.3z"/>
			<path fill="#7B7C7D" d="M189.8,54.8c1.9-1.7,3.3-3,3.3-4.1c0-0.7-0.4-1-1-1c-0.5,0-0.9,0.4-1.3,0.7l-1.1-1.1
				c0.8-0.9,1.6-1.3,2.7-1.3c1.6,0,2.7,1,2.7,2.6c0,1.3-1.2,2.6-2.2,3.7c0.4,0,1-0.1,1.3-0.1h1.3V56h-5.7V54.8z"/>
		</g>
	</g>
	<g>
		<g>
			<path fill="#7B7C7D" d="M229.3,106.7h1.7v-4h-1.5v-1.3c0.9-0.2,1.5-0.4,2-0.8h1.6v6.1h1.4v1.7h-5.2V106.7z"/>
			<path fill="#7B7C7D" d="M236.3,106.1c0.5,0.4,1,0.7,1.6,0.7c0.7,0,1.1-0.2,1.1-0.7c0-0.6-0.3-0.9-2-0.9v-1.5
				c1.3,0,1.7-0.3,1.7-0.9c0-0.5-0.3-0.7-0.8-0.7c-0.5,0-0.9,0.2-1.4,0.6l-1.1-1.3c0.8-0.6,1.6-1,2.5-1c1.7,0,2.8,0.8,2.8,2.2
				c0,0.8-0.4,1.3-1.3,1.7v0c0.9,0.3,1.5,0.9,1.5,1.9c0,1.5-1.4,2.3-3,2.3c-1.3,0-2.2-0.4-2.8-1.1L236.3,106.1z"/>
		</g>
	</g>
	<g>
		<g>
			<path fill="#7B7C7D" d="M200.8,118.9h1.7v-4H201v-1.3c0.9-0.2,1.5-0.4,2-0.8h1.6v6.1h1.4v1.7h-5.2V118.9z"/>
			<path fill="#7B7C7D" d="M213.1,118.8h-0.8v1.8h-2v-1.8h-3.3v-1.5l2.7-4.6h2.6v4.5h0.8V118.8z M210.3,117.2v-0.9
				c0-0.5,0-1.3,0.1-1.9h0c-0.2,0.5-0.4,0.9-0.6,1.4l-0.7,1.3H210.3z"/>
		</g>
	</g>
	<g>
		<g>
			<path fill="#7B7C7D" d="M171,67.7h1.7v-4h-1.5v-1.3c0.9-0.2,1.5-0.4,2-0.8h1.6v6.1h1.4v1.7H171V67.7z"/>
			<path fill="#7B7C7D" d="M178.1,67.1c0.5,0.4,1,0.7,1.6,0.7c0.7,0,1.2-0.3,1.2-1c0-0.7-0.4-1-1.1-1c-0.4,0-0.6,0.1-1.1,0.4
				l-0.9-0.6l0.2-4h4.6v1.8h-2.8l-0.1,1.1c0.3-0.1,0.5-0.1,0.7-0.1c1.4,0,2.5,0.8,2.5,2.4c0,1.8-1.4,2.8-3,2.8
				c-1.3,0-2.2-0.5-2.8-1.1L178.1,67.1z"/>
		</g>
	</g>
	<g>
		<g>
			<path fill="#7B7C7D" d="M173.3,125.9h1.7v-4h-1.5v-1.3c0.9-0.2,1.5-0.4,2-0.8h1.6v6.1h1.4v1.7h-5.2V125.9z"/>
			<path fill="#7B7C7D" d="M184.2,121.9c-0.2-0.3-0.7-0.5-1.2-0.5c-0.8,0-1.4,0.5-1.4,2.1c0.4-0.5,1-0.8,1.5-0.8
				c1.3,0,2.4,0.7,2.4,2.4c0,1.7-1.2,2.7-2.7,2.7c-1.5,0-3.1-1.1-3.1-3.9s1.6-4.2,3.2-4.2c1.1,0,1.9,0.5,2.4,1L184.2,121.9z
				 M183.5,125.1c0-0.8-0.4-0.9-0.9-0.9c-0.4,0-0.7,0.2-1,0.7c0.2,1.1,0.6,1.4,1,1.4C183.1,126.2,183.5,125.9,183.5,125.1z"/>
		</g>
	</g>
	<g>
		<g>
			<path fill="#7B7C7D" d="M153.5,140.1h1.7v-4h-1.5v-1.3c0.9-0.2,1.5-0.4,2-0.8h1.6v6.1h1.4v1.7h-5.2V140.1z"/>
			<path fill="#7B7C7D" d="M161.2,137.9L161.2,137.9c-0.6-0.5-1-1.1-1-1.9c0-1.4,1.1-2.2,2.6-2.2c1.5,0,2.4,0.8,2.4,2.2
				c0,0.7-0.4,1.3-1,1.6v0c0.8,0.4,1.3,1,1.3,2.1c0,1.3-1.1,2.2-2.9,2.2c-1.6,0-2.8-0.9-2.8-2.1
				C159.9,138.9,160.4,138.3,161.2,137.9z M162.7,140.5c0.5,0,0.9-0.2,0.9-0.8c0-0.6-0.5-0.8-1.5-1.2c-0.2,0.3-0.4,0.7-0.4,1.1
				C161.7,140.1,162.2,140.5,162.7,140.5z M163.5,136.1c0-0.5-0.3-0.9-0.8-0.9c-0.4,0-0.7,0.2-0.7,0.8c0,0.5,0.4,0.8,1.2,1.1
				C163.4,136.8,163.5,136.5,163.5,136.1z"/>
		</g>
	</g>
	<g>
		<g>
			<path fill="#7B7C7D" d="M109,96.3h1.7v-4h-1.5V91c0.9-0.2,1.5-0.4,2-0.8h1.6v6.1h1.4V98H109V96.3z"/>
			<path fill="#7B7C7D" d="M116.4,95.9c0.2,0.3,0.7,0.5,1.2,0.5c0.8,0,1.4-0.5,1.4-2.1c-0.4,0.5-1,0.8-1.5,0.8
				c-1.3,0-2.4-0.7-2.4-2.4s1.2-2.7,2.7-2.7c1.5,0,3.1,1.1,3.1,3.9c0,2.8-1.6,4.2-3.2,4.2c-1.1,0-1.9-0.5-2.4-1L116.4,95.9z M119,93
				c-0.2-1.1-0.6-1.4-1-1.4c-0.4,0-0.8,0.3-0.8,1.1c0,0.8,0.4,0.9,0.9,0.9C118.4,93.7,118.7,93.5,119,93z"/>
		</g>
	</g>
	<g>
		<g>
			<path fill="#7B7C7D" d="M31.2,133.3c1.9-1.7,3.3-3,3.3-4.1c0-0.7-0.4-1-1-1c-0.5,0-0.9,0.4-1.3,0.7l-1.1-1.1
				c0.8-0.9,1.6-1.3,2.7-1.3c1.6,0,2.7,1,2.7,2.6c0,1.3-1.2,2.6-2.2,3.7c0.4,0,1-0.1,1.3-0.1h1.3v1.8h-5.7V133.3z"/>
			<path fill="#7B7C7D" d="M37.8,130.5c0-2.7,1.2-4,2.9-4s2.9,1.4,2.9,4c0,2.7-1.2,4.1-2.9,4.1S37.8,133.2,37.8,130.5z M41.6,130.5
				c0-2.1-0.4-2.4-0.9-2.4s-0.9,0.3-0.9,2.4s0.4,2.5,0.9,2.5S41.6,132.6,41.6,130.5z"/>
		</g>
	</g>
	<g>
		<g>
			<path fill="#7B7C7D" d="M191.7,153.5h1.7v-4h-1.5v-1.3c0.9-0.2,1.5-0.4,2-0.8h1.6v6.1h1.4v1.7h-5.2V153.5z"/>
			<path fill="#7B7C7D" d="M201.4,149.1h-3.4v-1.8h5.6v1.3c-1.8,2.1-2,3.5-2.1,6.5h-2.1C199.6,152.7,200,151.1,201.4,149.1z"/>
		</g>
	</g>
	<g>
		<g>
			<path fill="#7B7C7D" d="M461.4,10.2h1.7v-4h-1.5V4.8c0.9-0.2,1.5-0.4,2-0.8h1.6v6.1h1.4v1.7h-5.2V10.2z"/>
			<path fill="#7B7C7D" d="M468.1,10.2h1.7v-4h-1.5V4.8c0.9-0.2,1.5-0.4,2-0.8h1.6v6.1h1.4v1.7h-5.2V10.2z"/>
		</g>
	</g>
</g>
</svg>
