<?xml version="1.0" encoding="utf-8"?>
<!-- Generator: Adobe Illustrator 19.1.0, SVG Export Plug-In . SVG Version: 6.00 Build 0)  -->
<svg version="1.1" id="Layer_1" xmlns="http://www.w3.org/2000/svg" xmlns:xlink="http://www.w3.org/1999/xlink" x="0px" y="0px"
	 width="504px" height="251px" viewBox="-456 867.2 504 251" style="enable-background:new -456 867.2 504 251;"
	 xml:space="preserve">
<style type="text/css">
	.st0{fill:#B7B5B6;}
	.st1{fill:#AC1737;}
	.st2{fill:#FFFFFF;}
	.st3{fill:#7B7C7D;}
	.st4{fill:#C7C6C5;}
	.st5{clip-path:url(#SVGID_2_);}
	.st6{fill:#1E1E1C;}
	.st7{fill:#C01724;}
	.st8{fill:#AA1920;}
	.st9{fill:#009548;}
	.st10{fill:#006139;}
</style>
<g id="trazado">
	<path class="st0" d="M-41,1099.4c-2.2,0-4.5-0.3-7-0.8l-0.3-0.1l-192.5-61.4c-0.6-0.2-3.3-1.2-4.7-4c-0.6-1.3-1.2-3.4-0.2-6
		c1.3-3.7,4.8-13,4.9-13.4l0.1-0.2c0.3-0.8-0.1-1.1-0.3-1.3c-3.3-2.3-25.6-18.9-28.1-20.7c-1.2-0.7-4.5-2.2-6.9-2.3h-0.4
		c-3.1,0-5.1,0.8-7.3,2c-2.7,1.5-17.3,9.3-19.8,10.6c-0.8,0.6-2.2,1.3-4.1,1.3c-1.6,0-4.1-0.6-6.6-3.3c-0.4-0.4-0.9-1-1.6-1.7
		c-4.8-4.9-16-16.4-23.5-32.2c-8.5-17.9-9.4-22-11.4-31.2c-2.1-9.3-4.6-30.6-4.7-31.5c-0.1-0.7-1.1-13.8,6.3-21.2
		c7-6.9,14.9-10,24.3-9.6c8.2,0.4,15.6,2.7,22,6.9c5.2,3.4,8.9,5.9,7.9,12.1c-0.9,5.8-4.6,6.9-8.4,8.1l-0.2,0.1
		c-6.8,2.1-6,5.5-5.6,6.8l0.1,0.2l10.9,59.8c0.3,0.6,1.3,2.5,3.1,2.5c0.3,0,0.6,0,0.9-0.1c5.3-1.2,18.1-9,23.4-15
		c4.3-4.8,8.1-9.3,8.5-12c0.5-3.4,4.3-21.7,4.9-24.2c0.2-2.3,1.8-6.2,6.6-8.3c1.4-0.6,2.8-0.9,4.3-0.9c4,0,7,2.2,7.8,2.8l15,10.6
		c0.2,0.2,6,4.7,7.2,12.6c0.9,6.2,8.3,42.2,8.3,42.6v0.2c0,0.2,1.2,6.5,7.5,9.2c8.2,3.6,32.6,9.9,32.8,10c0.1,0,8.6,2.2,14.8-3.9
		c7.6-7.5,15.5-18.9,15.5-19c0.3-0.4,3-4.1,7.6-4.1c2.1,0,4.1,0.7,6.1,2.2c4.7,3.6,102.4,78.2,102.4,78.2l0.2,0.1
		c0.5,0.4,4.7,4.1,5.6,9c0.7,3.6,1.6,10.3,1.6,10.6v0.2c0,0.5,1,11.5-6.9,19.9C-27.4,1096.4-33.6,1099.4-41,1099.4z M-46.1,1090.9
		c1.8,0.4,3.5,0.6,5.1,0.6c5.1,0,9.4-2.2,14.1-7.3c5.1-5.4,4.8-12.8,4.7-13.6c-0.1-0.9-0.9-6.9-1.5-10.1c-0.3-1.6-2-3.5-2.8-4.2
		c-3.6-2.7-97.6-74.6-102.3-78.1c-0.7-0.5-1-0.6-1.1-0.6c-0.3,0-0.8,0.4-1,0.6c-0.3,0.4-8.4,12.1-16.5,20.1
		c-9.5,9.4-21.9,6.2-22.5,6c-1-0.3-25.3-6.6-34-10.4c-9.9-4.4-12-13.9-12.2-15.3c-0.5-2.2-7.5-36.7-8.4-43c-0.6-4.3-3.7-7-4.1-7.3
		l-15.1-10.7c-0.4-0.3-2.4-1.4-3.8-0.8c-1.4,0.6-1.7,1.4-1.8,1.7v0.5l-0.1,0.1c-1.5,7.1-4.4,21.3-4.8,24c-0.7,4.4-3.8,8.5-10.5,16.1
		c-6.2,7-20.1,15.9-27.6,17.6c-0.9,0.2-1.8,0.3-2.7,0.3c-6.3,0-9.8-5.1-10.8-8l-0.2-0.6l-11.1-60c-1.8-7.5,2.3-13.6,11.1-16.4
		l0.2-0.1c1-0.3,2.2-0.7,2.6-0.9c0-0.1,0.1-0.4,0.2-0.8c0.1-0.5,0.1-0.7,0.1-0.7c-0.3-0.6-3-2.4-4.5-3.4c-5.2-3.5-11-5.3-17.8-5.6
		c-7.1-0.3-12.8,2-18.1,7.3c-3.9,3.9-4.2,11.8-4,14.6c0.2,1.4,2.6,21.9,4.5,30.5c2,8.9,2.8,12.5,10.9,29.5c6.9,14.6,17.5,25.4,22,30
		c0.7,0.8,1.3,1.4,1.8,1.9c0.2,0.2,0.4,0.4,0.5,0.5l0,0c0.2-0.1,17.2-9.2,20-10.8c2.7-1.5,6.1-3,11.2-3h0.6c5.1,0.1,10.4,3.2,11,3.5
		l0.4,0.2c0.2,0.2,24.8,18.4,28.1,20.8c4.8,3.4,4.1,8.6,3.1,11.1c-0.4,1-3.5,9.3-4.7,12.9L-46.1,1090.9z"/>
</g>
<g id="PUNTOS_INTERMEDIOS_Y_SEMAFORO">
	<path class="st1" d="M-319.9,934.7c0.2,0.4,0.1,1-0.3,1.2l-28.8,16.2c-0.4,0.2-1,0.1-1.2-0.3c-0.2-0.4-0.1-1,0.3-1.2l28.8-16.2
		C-320.7,934-320.1,934.2-319.9,934.7z"/>
	<path class="st1" d="M-239.6,965c-0.3,0.4-0.8,0.5-1.2,0.3l-27.6-18.2c-0.4-0.3-0.5-0.8-0.3-1.2s0.8-0.5,1.2-0.3l27.6,18.2
		C-239.5,964.2-239.4,964.7-239.6,965z"/>
	<path class="st1" d="M-248.7,1057.6c-0.5-0.3-0.6-0.8-0.3-1.2l15.8-29c0.3-0.5,0.8-0.6,1.2-0.3c0.5,0.3,0.6,0.8,0.3,1.2l-15.8,29
		C-247.8,1057.7-248.3,1057.9-248.7,1057.6z"/>
	<path class="st1" d="M-109.2,1100.1c-0.5-0.2-0.7-0.7-0.5-1.1l11.3-31c0.2-0.5,0.7-0.7,1.1-0.5c0.5,0.2,0.7,0.7,0.5,1.1l-11.3,31
		C-108.2,1100-108.7,1100.4-109.2,1100.1z"/>
	<path class="st1" d="M-78.4,1029.4c-0.4-0.3-0.5-0.8-0.2-1.2l18.9-27.1c0.3-0.4,0.8-0.5,1.2-0.2c0.4,0.3,0.5,0.8,0.2,1.2
		l-18.9,27.1C-77.5,1029.6-78,1029.8-78.4,1029.4z"/>
	<g>
		<path class="st1" d="M-334.8,940.2c0-4.2,3.4-7.7,7.6-7.7h5c4.2,0,7.7,3.4,7.7,7.7v5.1c0,4.2-3.4,7.7-7.7,7.7h-5
			c-4.2,0-7.6-3.4-7.6-7.7V940.2L-334.8,940.2z"/>
		<g>
			<path class="st2" d="M-329.2,939.2c0-0.5,0.4-0.8,0.9-0.8s0.9,0.3,0.9,0.8s-0.4,0.8-0.9,0.8S-329.2,939.5-329.2,939.2z
				 M-329.1,941h1.5v6.2h-1.5V941z"/>
			<path class="st2" d="M-325.5,946.4c2.2-2.2,3.7-3.6,3.7-4.8c0-0.9-0.5-1.4-1.3-1.4c-0.6,0-1.1,0.4-1.6,0.9l-0.8-0.8
				c0.7-0.8,1.5-1.2,2.6-1.2c1.5,0,2.6,1,2.6,2.5c0,1.4-1.3,2.9-2.9,4.6c0.4,0,1-0.1,1.3-0.1h2v1.2h-5.5v-0.9H-325.5z"/>
		</g>
	</g>
	<g>
		<path class="st1" d="M-114.3,1097.1c0-4.2,3.4-7.6,7.6-7.6h2.7c4.2,0,7.6,3.4,7.6,7.6v4.8c0,4.2-3.4,7.6-7.6,7.6h-2.7
			c-4.2,0-7.6-3.4-7.6-7.6V1097.1L-114.3,1097.1z"/>
		<g>
			<path class="st2" d="M-107.4,1101.5c0.6,0.6,1.4,0.9,2.2,0.9c0.9,0,1.4-0.4,1.4-1.1s-0.5-0.9-1.3-1.2l-1.1-0.5
				c-0.8-0.3-1.7-1-1.7-2.2c0-1.3,1.2-2.3,2.8-2.3c1,0,1.9,0.4,2.6,1.1l-0.8,0.9c-0.5-0.4-1.1-0.7-1.8-0.7c-0.8,0-1.3,0.4-1.3,1
				c0,0.6,0.6,0.9,1.3,1.2l1.1,0.5c1,0.4,1.7,1,1.7,2.2c0,1.3-1.1,2.5-3,2.5c-1.1,0-2.2-0.4-3-1.2L-107.4,1101.5z"/>
		</g>
	</g>
	<g>
		<path class="st1" d="M-96.4,1008.7c0.4,0.3,0.9,0.2,1.2-0.2l15.5-19.9c0.3-0.4,0.2-0.9-0.1-1.2l-14-10.9c-0.4-0.3-0.9-0.2-1.2,0.2
			c-0.3,0.4-0.2,0.9,0.2,1.2l13,10.1c0.1,0.1,0.2,0.3,0.1,0.5l-14.9,18.9C-96.9,1007.9-96.8,1008.4-96.4,1008.7z"/>
		<path class="st1" d="M-97.1,975.7c-0.2-0.4,0.2-0.8,0.6-0.7l3.6,0.5l3.6,0.5c0.4,0.1,0.6,0.5,0.4,0.9l-2.3,2.9l-2.3,2.9
			c-0.3,0.3-0.8,0.3-0.9-0.1l-1.4-3.4L-97.1,975.7z"/>
	</g>
	<g>
		<path class="st1" d="M-102.8,1034.1c0-4.2,3.4-7.6,7.7-7.6h11.7c4.2,0,7.6,3.4,7.6,7.6v4.8c0,4.2-3.4,7.6-7.6,7.6h-11.7
			c-4.2,0-7.7-3.4-7.7-7.6V1034.1L-102.8,1034.1z"/>
		<g>
			<path class="st2" d="M-95.3,1032.4h5v1.2h-3.5v2.3h3v1.2h-3v3.5h-1.5V1032.4z"/>
			<path class="st2" d="M-88.2,1032.4h1.5v7.1h3.4v1.2h-4.9V1032.4z"/>
		</g>
	</g>
	<g>
		<path class="st1" d="M-249.4,959c0-4.2,3.4-7.6,7.7-7.6h3.9c4.2,0,7.7,3.4,7.7,7.6v5.5c0,4.2-3.4,7.7-7.7,7.7h-3.9
			c-4.2,0-7.7-3.4-7.7-7.7V959L-249.4,959z"/>
		<g>
			<path class="st2" d="M-244.3,958.2c0-0.5,0.4-0.8,0.9-0.8s0.9,0.3,0.9,0.8s-0.4,0.8-0.9,0.8S-244.3,958.7-244.3,958.2z
				 M-244.1,960h1.5v6.2h-1.5V960z"/>
			<path class="st2" d="M-240.1,965.2h1.8v-5.3h-1.5V959c0.8-0.2,1.4-0.4,1.9-0.7h1.1v6.9h1.6v1.2h-4.9L-240.1,965.2L-240.1,965.2z"
				/>
		</g>
	</g>
	<g>
		<path class="st1" d="M-254.4,1052.5c0.6-4.2,4.5-7.1,8.7-6.5l5,0.8c4.2,0.6,7.1,4.5,6.5,8.8l-0.8,5c-0.6,4.2-4.5,7-8.7,6.4l-5-0.8
			c-4.2-0.6-7-4.5-6.4-8.6L-254.4,1052.5L-254.4,1052.5z"/>
		<g>
			<path class="st2" d="M-248.5,1052.1c0.1-0.5,0.5-0.7,1-0.7c0.5,0.1,0.8,0.4,0.8,0.9s-0.5,0.7-1,0.7
				C-248.3,1053.1-248.6,1052.6-248.5,1052.1z M-248.7,1054.1l1.5,0.2l-0.9,6.1l-1.5-0.2L-248.7,1054.1z"/>
			<path class="st2" d="M-245.3,1059c0.4,0.6,1,1.1,1.7,1.2c0.9,0.1,1.6-0.3,1.7-1c0.1-0.8-0.3-1.5-2.2-1.7l0.2-1.1
				c1.6,0.2,2.2-0.2,2.3-1c0.1-0.7-0.3-1.2-1-1.3c-0.6-0.1-1.1,0.1-1.7,0.6l-0.7-1c0.8-0.5,1.6-0.8,2.5-0.6c1.5,0.2,2.5,1.2,2.3,2.5
				c-0.1,0.9-0.7,1.4-1.7,1.7v0.1c0.9,0.4,1.5,1.1,1.4,2.2c-0.2,1.5-1.6,2.1-3.1,1.9c-1.3-0.2-2.1-0.8-2.5-1.5L-245.3,1059z"/>
		</g>
	</g>
	<g>
		<path class="st3" d="M-124.4,1042.4c0-4.2,3.4-7.6,7.6-7.6h6.8c4.2,0,7.6,3.4,7.6,7.6v8.3c0,4.2-3.4,7.6-7.6,7.6h-6.8
			c-4.2,0-7.6-3.4-7.6-7.6V1042.4L-124.4,1042.4z"/>
		<g>
			<path class="st2" d="M-114.6,1056.1c-3.9,0-7.1-3.2-7.1-7.1v-4.8c0-3.9,3.2-7.1,7.1-7.1h2.7c3.9,0,7.1,3.2,7.1,7.1v4.8
				c0,3.9-3.2,7.1-7.1,7.1H-114.6z"/>
			<path class="st4" d="M-111.9,1037.5c3.7,0,6.6,3,6.6,6.6v4.8c0,3.7-3,6.6-6.6,6.6h-2.7c-3.7,0-6.6-3-6.6-6.6v-4.8
				c0-3.7,3-6.6,6.6-6.6H-111.9 M-111.9,1036.5h-2.7c-4.2,0-7.6,3.4-7.6,7.6v4.8c0,4.2,3.4,7.6,7.6,7.6h2.7c4.2,0,7.6-3.4,7.6-7.6
				v-4.8C-104.2,1040-107.7,1036.5-111.9,1036.5L-111.9,1036.5z"/>
		</g>
		<g>
			<g>
				<g>
					<g>
						<defs>
							<path id="SVGID_1_" d="M-122.4,1044.3c0-4.2,3.4-7.6,7.6-7.6h2.7c4.2,0,7.6,3.4,7.6,7.6v4.8c0,4.2-3.4,7.6-7.6,7.6h-2.7
								c-4.2,0-7.6-3.4-7.6-7.6V1044.3L-122.4,1044.3z"/>
						</defs>
						<clipPath id="SVGID_2_">
							<use xlink:href="#SVGID_1_"  style="overflow:visible;"/>
						</clipPath>
						<g class="st5">
							<rect x="-127.7" y="1038.3" class="st6" width="4.2" height="4.2"/>
							<rect x="-123.5" y="1042.4" class="st6" width="4.2" height="4.2"/>
							<rect x="-119.3" y="1038.3" class="st6" width="4.2" height="4.2"/>
							<rect x="-115.1" y="1042.4" class="st6" width="4.2" height="4.2"/>
							<rect x="-127.7" y="1046.5" class="st6" width="4.2" height="4.2"/>
							<rect x="-123.5" y="1050.8" class="st6" width="4.2" height="4.2"/>
							<rect x="-119.3" y="1046.5" class="st6" width="4.2" height="4.2"/>
							<rect x="-115.1" y="1050.8" class="st6" width="4.2" height="4.2"/>
							<rect x="-111" y="1038.3" class="st6" width="4.2" height="4.2"/>
							<rect x="-106.8" y="1042.4" class="st6" width="4.2" height="4.2"/>
							<rect x="-111" y="1046.5" class="st6" width="4.2" height="4.2"/>
							<rect x="-106.8" y="1050.8" class="st6" width="4.2" height="4.2"/>
						</g>
					</g>
				</g>
			</g>
		</g>
		<g>
			<path class="st4" d="M-111.9,1037.5c3.7,0,6.6,3,6.6,6.6v4.8c0,3.7-3,6.6-6.6,6.6h-2.7c-3.7,0-6.6-3-6.6-6.6v-4.8
				c0-3.7,3-6.6,6.6-6.6H-111.9 M-111.9,1036.5h-2.7c-4.2,0-7.6,3.4-7.6,7.6v4.8c0,4.2,3.4,7.6,7.6,7.6h2.7c4.2,0,7.6-3.4,7.6-7.6
				v-4.8C-104.2,1040-107.7,1036.5-111.9,1036.5L-111.9,1036.5z"/>
		</g>
	</g>
	<g>
		<path class="st3" d="M-135.4,1010.5c0-4.2,3.4-7.6,7.6-7.6h25.8c4.2,0,7.6,3.4,7.6,7.6v8.3c0,4.2-3.4,7.6-7.6,7.6h-25.8
			c-4.2,0-7.6-3.4-7.6-7.6V1010.5L-135.4,1010.5z"/>
		<g>
			<g>
				<path class="st7" d="M-126.1,1024.2c-3.9,0-7.1-3.2-7.1-7.1v-4.8c0-3.9,3.2-7.1,7.1-7.1h2.7c3.9,0,7.1,3.2,7.1,7.1v4.8
					c0,3.9-3.2,7.1-7.1,7.1H-126.1z"/>
				<path class="st8" d="M-123.4,1005.7c3.7,0,6.6,3,6.6,6.6v4.8c0,3.7-3,6.6-6.6,6.6h-2.7c-3.7,0-6.6-3-6.6-6.6v-4.8
					c0-3.7,3-6.6,6.6-6.6H-123.4 M-123.4,1004.7h-2.7c-4.2,0-7.6,3.4-7.6,7.6v4.8c0,4.2,3.4,7.6,7.6,7.6h2.7c4.2,0,7.6-3.4,7.6-7.6
					v-4.8C-115.8,1008.2-119.2,1004.7-123.4,1004.7L-123.4,1004.7z"/>
			</g>
			<g>
				<path class="st9" d="M-106.4,1024.2c-3.9,0-7.1-3.2-7.1-7.1v-4.8c0-3.9,3.2-7.1,7.1-7.1h2.7c3.9,0,7.1,3.2,7.1,7.1v4.8
					c0,3.9-3.2,7.1-7.1,7.1H-106.4z"/>
				<path class="st10" d="M-103.7,1005.7c3.7,0,6.6,3,6.6,6.6v4.8c0,3.7-3,6.6-6.6,6.6h-2.7c-3.7,0-6.6-3-6.6-6.6v-4.8
					c0-3.7,3-6.6,6.6-6.6H-103.7 M-103.7,1004.7h-2.7c-4.2,0-7.6,3.4-7.6,7.6v4.8c0,4.2,3.4,7.6,7.6,7.6h2.7c4.2,0,7.6-3.4,7.6-7.6
					v-4.8C-96,1008.2-99.4,1004.7-103.7,1004.7L-103.7,1004.7z"/>
			</g>
		</g>
	</g>
</g>
<g id="textos_y_numeros">
	<g>
		<g>
			<path class="st3" d="M-298.3,909L-298.3,909c-0.7-0.5-1.2-1.2-1.2-2.2c0-1.5,1.2-2.4,2.7-2.4c1.6,0,2.6,1,2.6,2.4
				c0,0.9-0.6,1.6-1.2,2.1v0.1c0.8,0.5,1.6,1.1,1.6,2.3c0,1.4-1.2,2.4-3,2.4s-3-1-3-2.5C-299.9,910.2-299.1,909.5-298.3,909z
				 M-296.8,912.7c0.9,0,1.5-0.5,1.5-1.3c0-1-0.9-1.3-2.2-1.8c-0.6,0.4-1,1-1,1.7C-298.5,912-297.7,912.7-296.8,912.7z M-295.5,907
				c0-0.8-0.5-1.4-1.3-1.4c-0.7,0-1.2,0.5-1.2,1.2c0,0.9,0.8,1.3,1.8,1.7C-295.8,908.2-295.5,907.7-295.5,907z"/>
		</g>
	</g>
	<g>
		<g>
			<path class="st3" d="M-285.9,887.2c0.3,0.4,0.9,0.7,1.4,0.7c1.1,0,2-0.8,2.1-3.3c-0.5,0.6-1.3,1-2,1c-1.5,0-2.6-0.9-2.6-2.8
				c0-1.8,1.3-2.9,2.8-2.9c1.8,0,3.2,1.4,3.2,4.4c0,3.5-1.7,4.9-3.5,4.9c-1.1,0-1.9-0.5-2.4-1L-285.9,887.2z M-282.4,883.4
				c-0.2-1.6-0.8-2.3-1.7-2.3c-0.7,0-1.3,0.6-1.3,1.7c0,1.1,0.5,1.6,1.4,1.6C-283.5,884.4-282.9,884-282.4,883.4z"/>
		</g>
	</g>
	<g>
		<g>
			<path class="st3" d="M-287.1,952.2h-4.2v-1.4h6v1c-2.1,2.6-2.5,4.5-2.6,8h-1.7C-289.4,956.5-288.8,954.5-287.1,952.2z"/>
		</g>
	</g>
	<g>
		<g>
			<path class="st3" d="M-254.9,900.7c0.5,0.5,1.2,1,2.1,1c1,0,1.7-0.6,1.7-1.7s-0.7-1.7-1.7-1.7c-0.6,0-0.9,0.2-1.4,0.5l-0.8-0.5
				l0.3-4.4h4.8v1.4h-3.4l-0.2,2.2c0.4-0.2,0.7-0.3,1.2-0.3c1.5,0,2.8,0.9,2.8,2.8c0,2-1.5,3.1-3.2,3.1c-1.5,0-2.4-0.6-3.1-1.2
				L-254.9,900.7z"/>
		</g>
	</g>
	<g>
		<g>
			<path class="st3" d="M-268.1,935c-0.3-0.4-0.9-0.7-1.4-0.7c-1.1,0-2,0.8-2.1,3.3c0.5-0.7,1.3-1.1,1.9-1.1c1.6,0,2.6,0.9,2.6,2.8
				c0,1.8-1.3,2.9-2.8,2.9c-1.8,0-3.3-1.4-3.3-4.4c0-3.5,1.7-4.9,3.5-4.9c1.1,0,1.9,0.5,2.4,1L-268.1,935z M-268.6,939.4
				c0-1.1-0.5-1.6-1.4-1.6c-0.5,0-1.1,0.3-1.6,1c0.2,1.6,0.8,2.3,1.7,2.3C-269.2,941.2-268.6,940.4-268.6,939.4z"/>
		</g>
	</g>
	<g>
		<g>
			<path class="st3" d="M-206.8,922.7h-1.1v2.3h-1.5v-2.3h-4v-1.1l3.6-5.6h1.9v5.4h1.1V922.7z M-209.5,921.4v-2c0-0.5,0-1.3,0.1-1.9
				h-0.1c-0.2,0.5-0.5,0.9-0.7,1.4l-1.6,2.5H-209.5z"/>
		</g>
	</g>
	<g>
		<g>
			<path class="st3" d="M-163.7,987.4c2.5-2.4,4.1-4,4.1-5.4c0-0.9-0.5-1.6-1.5-1.6c-0.7,0-1.3,0.5-1.8,1l-0.9-0.9
				c0.8-0.9,1.6-1.4,2.9-1.4c1.7,0,2.8,1.1,2.8,2.8c0,1.6-1.5,3.2-3.3,5.1c0.5,0,1.1-0.1,1.5-0.1h2.2v1.4h-6.1L-163.7,987.4
				L-163.7,987.4z"/>
		</g>
	</g>
	<g>
		<g>
			<path class="st3" d="M-131.8,958.4h2v-5.9h-1.7v-1c0.9-0.2,1.5-0.4,2.1-0.7h1.2v7.6h1.8v1.3h-5.4L-131.8,958.4L-131.8,958.4z"/>
		</g>
	</g>
	<g>
		<g>
			<path class="st3" d="M-201.1,980.7c0.5,0.6,1.2,1,2.1,1c1,0,1.7-0.5,1.7-1.4s-0.6-1.5-2.6-1.5v-1.2c1.8,0,2.3-0.6,2.3-1.4
				c0-0.7-0.5-1.2-1.3-1.2c-0.7,0-1.3,0.3-1.8,0.8l-0.8-1c0.8-0.7,1.6-1.1,2.7-1.1c1.7,0,2.9,0.8,2.9,2.4c0,1-0.6,1.7-1.6,2.1v0.1
				c1.1,0.3,1.9,1,1.9,2.2c0,1.6-1.4,2.6-3.1,2.6c-1.5,0-2.4-0.6-3-1.3L-201.1,980.7z"/>
		</g>
	</g>
	<g>
		<g>
			<path class="st3" d="M-195.3,942.5c1.1,0,2,0.6,2.6,1.2l-0.9,1c-0.5-0.5-1-0.8-1.7-0.8c-1.5,0-2.6,1.3-2.6,3.3
				c0,2.1,1,3.4,2.5,3.4c0.8,0,1.4-0.3,1.9-0.9l0.9,1c-0.7,0.9-1.7,1.3-2.9,1.3c-2.3,0-4.2-1.7-4.2-4.8
				C-199.6,944.4-197.7,942.5-195.3,942.5z"/>
			<path class="st3" d="M-187.3,947.4c0-0.7-0.3-1.4-1.3-1.4c-0.7,0-1.3,0.3-1.9,0.7l-0.6-1.1c0.8-0.5,1.7-0.9,2.8-0.9
				c1.7,0,2.6,1.1,2.6,3v4.1h-1.3l-0.1-0.8l0,0c-0.6,0.5-1.3,0.9-2.1,0.9c-1.2,0-2.1-0.8-2.1-2
				C-191.4,948.5-190.2,947.7-187.3,947.4z M-188.9,950.9c0.6,0,1-0.3,1.5-0.8v-1.6c-1.9,0.2-2.5,0.7-2.5,1.4
				C-189.8,950.5-189.4,950.9-188.9,950.9z"/>
			<path class="st3" d="M-183.8,945h1.3l0.1,1.2h0.1c0.5-0.9,1.2-1.4,2-1.4c0.4,0,0.6,0,0.8,0.1l-0.3,1.4c-0.2-0.1-0.4-0.1-0.7-0.1
				c-0.6,0-1.2,0.4-1.6,1.4v4.2h-1.7L-183.8,945L-183.8,945z"/>
			<path class="st3" d="M-178.5,942h1.6v8.3c0,0.4,0.2,0.5,0.4,0.5c0.1,0,0.1,0,0.3,0l0.2,1.2c-0.2,0.1-0.5,0.1-0.9,0.1
				c-1.2,0-1.6-0.7-1.6-1.9V942z"/>
			<path class="st3" d="M-171.8,944.9c1.7,0,3.3,1.3,3.3,3.6s-1.6,3.6-3.3,3.6s-3.3-1.3-3.3-3.6S-173.5,944.9-171.8,944.9z
				 M-171.8,950.7c1,0,1.6-0.9,1.6-2.3s-0.6-2.3-1.6-2.3s-1.6,0.9-1.6,2.3S-172.8,950.7-171.8,950.7z"/>
			<path class="st3" d="M-166.8,950c0.6,0.5,1.2,0.8,1.9,0.8s1.1-0.4,1.1-0.8c0-0.6-0.7-0.8-1.5-1.1c-0.9-0.3-1.9-0.9-1.9-2
				c0-1.2,1-2.1,2.5-2.1c1,0,1.7,0.4,2.3,0.8l-0.7,1c-0.5-0.4-1-0.6-1.5-0.6c-0.7,0-1,0.3-1,0.8s0.7,0.8,1.4,1c0.9,0.4,2,0.8,2,2.1
				c0,1.2-0.9,2.1-2.7,2.1c-0.9,0-1.9-0.4-2.6-1L-166.8,950z"/>
			<path class="st3" d="M-195.3,959.4c1.1,0,2,0.6,2.6,1.2l-0.9,1c-0.5-0.5-1-0.8-1.7-0.8c-1.5,0-2.6,1.3-2.6,3.3
				c0,2.1,1,3.4,2.5,3.4c0.8,0,1.4-0.3,1.9-0.9l0.9,1c-0.7,0.9-1.7,1.3-2.9,1.3c-2.3,0-4.2-1.7-4.2-4.8
				C-199.6,961.2-197.7,959.4-195.3,959.4z"/>
			<path class="st3" d="M-191.1,958.9h1.6v2.6l-0.1,1.3c0.6-0.6,1.3-1,2.2-1c1.5,0,2.1,1,2.1,2.8v4.3h-1.5v-4.1
				c0-1.1-0.3-1.6-1.1-1.6c-0.6,0-1,0.3-1.6,0.9v4.8h-1.6L-191.1,958.9L-191.1,958.9z"/>
			<path class="st3" d="M-180.5,961.7c1.9,0,2.9,1.4,2.9,3.3c0,0.3,0,0.6-0.1,0.8h-4.4c0.1,1.3,0.9,2,2,2c0.6,0,1.1-0.2,1.6-0.5
				l0.6,1c-0.7,0.4-1.5,0.7-2.4,0.7c-1.9,0-3.4-1.3-3.4-3.6S-182.1,961.7-180.5,961.7z M-179.1,964.7c0-1.1-0.5-1.8-1.4-1.8
				c-0.8,0-1.5,0.6-1.7,1.8H-179.1z"/>
			<path class="st3" d="M-173.1,961.7c0.9,0,1.6,0.4,2,0.8l-0.8,1c-0.4-0.3-0.7-0.5-1.2-0.5c-1.1,0-1.9,0.9-1.9,2.3
				c0,1.4,0.8,2.3,1.8,2.3c0.6,0,1-0.3,1.4-0.6l0.7,1c-0.6,0.6-1.5,0.9-2.3,0.9c-1.9,0-3.3-1.3-3.3-3.6
				C-176.6,963-174.9,961.7-173.1,961.7z"/>
			<path class="st3" d="M-165.8,964.4c0-0.7-0.3-1.4-1.3-1.4c-0.7,0-1.3,0.3-1.9,0.7l-0.6-1.1c0.8-0.5,1.7-0.9,2.8-0.9
				c1.7,0,2.6,1.1,2.6,3v4.1h-1.3l-0.1-0.8l0,0c-0.6,0.5-1.3,0.9-2.1,0.9c-1.2,0-2.1-0.8-2.1-2
				C-169.9,965.4-168.6,964.7-165.8,964.4z M-167.3,967.7c0.6,0,1-0.3,1.5-0.8v-1.5c-1.9,0.2-2.5,0.7-2.5,1.4
				C-168.3,967.4-167.9,967.7-167.3,967.7z"/>
		</g>
	</g>
	<g>
		<g>
			<path class="st3" d="M-371,881.2h2v-5.9h-1.7v-1c0.9-0.2,1.5-0.4,2.1-0.7h1.2v7.6h1.8v1.3h-5.4V881.2z"/>
			<path class="st3" d="M-364.3,878c0-3,1.2-4.6,3-4.6s3,1.6,3,4.6s-1.2,4.7-3,4.7S-364.3,881-364.3,878z M-359.7,878
				c0-2.5-0.6-3.3-1.5-3.3s-1.5,0.8-1.5,3.3s0.6,3.4,1.5,3.4S-359.7,880.5-359.7,878z"/>
		</g>
	</g>
	<g>
		<g>
			<path class="st3" d="M-364,950.9h2V945h-1.7v-1c0.9-0.2,1.5-0.4,2.1-0.7h1.2v7.6h1.8v1.3h-5.4V950.9z"/>
			<path class="st3" d="M-356.8,950.9h2V945h-1.7v-1c0.9-0.2,1.5-0.4,2.1-0.7h1.2v7.6h1.8v1.3h-5.4V950.9z"/>
		</g>
	</g>
	<g>
		<g>
			<path class="st3" d="M-315.7,1016.4h2v-5.9h-1.7v-1c0.9-0.2,1.5-0.4,2.1-0.7h1.2v7.6h1.8v1.3h-5.4V1016.4z"/>
			<path class="st3" d="M-309,1016.9c2.5-2.4,4.1-4,4.1-5.4c0-0.9-0.5-1.6-1.5-1.6c-0.7,0-1.3,0.5-1.8,1l-0.9-0.9
				c0.8-0.9,1.6-1.4,2.9-1.4c1.7,0,2.8,1.1,2.8,2.8c0,1.6-1.5,3.2-3.3,5.1c0.5,0,1.1-0.1,1.5-0.1h2.2v1.4h-6.1L-309,1016.9
				L-309,1016.9z"/>
		</g>
	</g>
	<g>
		<g>
			<path class="st3" d="M-282.9,1004.4h2v-5.9h-1.7v-1c0.9-0.2,1.5-0.4,2.1-0.7h1.2v7.6h1.8v1.3h-5.4V1004.4L-282.9,1004.4z"/>
			<path class="st3" d="M-275.6,1003.5c0.5,0.6,1.2,1,2.1,1c1,0,1.7-0.5,1.7-1.4s-0.6-1.5-2.6-1.5v-1.2c1.8,0,2.3-0.6,2.3-1.4
				c0-0.7-0.5-1.2-1.3-1.2c-0.7,0-1.3,0.3-1.8,0.8l-0.8-1c0.8-0.7,1.6-1.1,2.7-1.1c1.7,0,2.9,0.8,2.9,2.4c0,1-0.6,1.7-1.6,2.1v0.1
				c1.1,0.3,1.9,1,1.9,2.2c0,1.6-1.4,2.6-3.1,2.6c-1.5,0-2.4-0.6-3-1.3L-275.6,1003.5z"/>
		</g>
	</g>
	<g>
		<g>
			<path class="st3" d="M-229.5,1012h2v-5.9h-1.7v-1c0.9-0.2,1.5-0.4,2.1-0.7h1.2v7.6h1.8v1.3h-5.4L-229.5,1012L-229.5,1012z"/>
			<path class="st3" d="M-216.4,1011h-1.1v2.3h-1.5v-2.3h-4v-1.1l3.6-5.6h1.9v5.4h1.1V1011z M-219.1,1009.7v-2c0-0.5,0-1.3,0.1-1.9
				h-0.1c-0.2,0.5-0.5,0.9-0.7,1.4l-1.6,2.5H-219.1z"/>
		</g>
	</g>
	<g>
		<g>
			<path class="st3" d="M-263.4,1030.8h2v-5.9h-1.7v-1c0.9-0.2,1.5-0.4,2.1-0.7h1.2v7.6h1.8v1.3h-5.4V1030.8L-263.4,1030.8z"/>
			<path class="st3" d="M-256.2,1030c0.5,0.5,1.2,1,2.1,1c1,0,1.7-0.6,1.7-1.7c0-1.1-0.7-1.7-1.7-1.7c-0.6,0-0.9,0.2-1.4,0.5
				l-0.8-0.5l0.3-4.4h4.8v1.4h-3.4l-0.2,2.2c0.4-0.2,0.7-0.3,1.2-0.3c1.5,0,2.8,0.9,2.8,2.8c0,2-1.5,3.1-3.2,3.1
				c-1.5,0-2.4-0.6-3.1-1.2L-256.2,1030z"/>
		</g>
	</g>
	<g>
		<g>
			<path class="st3" d="M-36.7,1111.8h2v-5.9h-1.7v-1c0.9-0.2,1.5-0.4,2.1-0.7h1.2v7.6h1.8v1.3h-5.4
				C-36.7,1113.1-36.7,1111.8-36.7,1111.8z"/>
			<path class="st3" d="M-24.8,1105.9c-0.3-0.4-0.9-0.7-1.4-0.7c-1.1,0-2,0.8-2.1,3.3c0.5-0.7,1.3-1.1,1.9-1.1
				c1.6,0,2.6,0.9,2.6,2.8c0,1.8-1.3,2.9-2.8,2.9c-1.8,0-3.3-1.4-3.3-4.4c0-3.5,1.7-4.9,3.5-4.9c1.1,0,1.9,0.5,2.4,1L-24.8,1105.9z
				 M-25.3,1110.3c0-1.1-0.5-1.6-1.4-1.6c-0.5,0-1.1,0.3-1.6,1c0.2,1.6,0.8,2.3,1.7,2.3C-25.9,1112-25.3,1111.4-25.3,1110.3z"/>
		</g>
	</g>
	<g>
		<g>
			<path class="st3" d="M-12,1050.1h2v-5.9h-1.7v-1c0.9-0.2,1.5-0.4,2.1-0.7h1.2v7.6h1.8v1.3H-12V1050.1z"/>
			<path class="st3" d="M-0.9,1043.9h-4.2v-1.4h6v1c-2.1,2.6-2.5,4.5-2.6,8h-1.7C-3.3,1048.3-2.6,1046.3-0.9,1043.9z"/>
		</g>
	</g>
</g>
</svg>
