<?xml version="1.0" encoding="utf-8"?>
<!-- Generator: Adobe Illustrator 18.1.0, SVG Export Plug-In . SVG Version: 6.00 Build 0)  -->
<!DOCTYPE svg PUBLIC "-//W3C//DTD SVG 1.0//EN" "http://www.w3.org/TR/2001/REC-SVG-20010904/DTD/svg10.dtd">
<svg version="1.0" xmlns="http://www.w3.org/2000/svg" xmlns:xlink="http://www.w3.org/1999/xlink" x="0px" y="0px"
	 viewBox="0 0 504 251" enable-background="new 0 0 504 251" xml:space="preserve">
<g id="trazado">
	<path fill="#B7B5B6" d="M450.3,47.7l-0.5-3.1c0-0.1,0-0.1,0-0.2l-0.6-2.6c0-0.1-0.1-0.2-0.1-0.4l-1.1-2.4c-0.1-0.1-0.1-0.3-0.2-0.4
		l-1.8-2.3c-0.1-0.1-0.1-0.2-0.2-0.2l-1-1l-0.2-0.3c-0.1-0.1-0.1-0.2-0.2-0.2l-2.1-1.9c-0.1-0.1-0.3-0.2-0.4-0.3l-3.2-1.8
		c-0.1-0.1-0.2-0.1-0.3-0.1l-2.7-1c-0.2-0.1-0.4-0.1-0.7-0.1c0,0,0,0,0,0l-112.3,1.1l-72.6,0.6l-36.4,1c0,0-0.1,0-0.1,0l-12,1
		c-0.1,0-0.1,0-0.2,0l-10,1.9c0,0-0.1,0-0.1,0l-8.2,2.1c-0.1,0-0.1,0-0.2,0.1l-11,3.9c-0.1,0-0.2,0.1-0.3,0.1l-9.4,5l-7.5,4.2
		c0,0-0.1,0-0.1,0.1l-7.1,4.5c-0.1,0-0.1,0.1-0.2,0.1l-3.7,2.9c0,0-0.1,0.1-0.1,0.1l-1.5,1.3c-0.3,0.3-0.6,0.7-0.6,1.2l-0.3,1.9
		c0,0,0,0.1,0,0.1l-0.5,4.2c0,0.3,0,0.6,0.1,0.9l-0.3,3.8l-0.8,9.7l-0.8,9.9l-1.1,6.6l-0.9,2l-0.9,1.9l-1.4,1.8l-1.8,1.7l-1.5,1.3
		l-2.2,0.8l-2.2,0.3l-2.3-0.4l-1.8-0.7l-1.7-1l-0.1-0.2l-0.8-1.2l-4.5-9.4l-2.6-5.3l-2.9-6.6c0-0.1,0-0.1-0.1-0.2l-3-5.6l-3.2-6.9
		c0,0,0-0.1,0-0.1l-3.1-5.8l-2.4-4.8c0-0.1-0.1-0.2-0.1-0.2l-2.6-3.7c0,0,0-0.1-0.1-0.1l-3.2-4.2c0,0,0,0,0-0.1l-4-4.8
		c0,0-0.1-0.1-0.1-0.1L85,42.9c-0.1-0.1-0.2-0.2-0.3-0.3l-0.1,0l-1.1-1.2c-0.1-0.1-0.2-0.2-0.3-0.3l-5-3.6c0,0-0.1,0-0.1-0.1
		l-3.1-1.9c-0.1-0.1-0.2-0.1-0.3-0.2l-3.1-1.3l-2.5-1c-0.2-0.1-0.4-0.1-0.6-0.1l-2.7-0.2c0,0-0.1,0-0.1,0h-2.6c-0.1,0-0.2,0-0.4,0
		l-2.6,0.5c-0.1,0-0.2,0-0.2,0.1l-2.6,0.8c-0.2,0.1-0.3,0.1-0.5,0.2l-2.7,1.8c-0.1,0.1-0.2,0.1-0.2,0.2l-2.9,2.6
		c0,0-0.1,0.1-0.1,0.1l-2.1,2.3c-0.1,0.1-0.1,0.1-0.2,0.2l-1.9,2.7c0,0.1-0.1,0.1-0.1,0.2l-1.8,3.2c0,0.1-0.1,0.2-0.1,0.3l-1.3,3.6
		c0,0.1-0.1,0.3-0.1,0.4l-0.5,3.6c0,0.1,0,0.2,0,0.3l0.2,4.2c0,0.1,0,0.2,0,0.3l0.8,4.4c0,0.1,0.1,0.3,0.1,0.4l1.5,3.6
		c0,0,0,0.1,0,0.1l1.6,3.4c0,0.1,0.1,0.2,0.1,0.2l4,6.1l8.6,12.5l5.5,7.6l4.9,6.6c0,0,0,0,0,0l5,6.4l11.9,16.5l14.2,20.2
		c0,0,0,0,0,0l12.1,16.1l6.3,9l3.4,4.9l6.9,9.5v0.2l-0.5,1.6c0,0.1,0,0.1-0.1,0.2l-3.6,17c0,0.1,0,0.2,0,0.3l-0.2,4.5
		c0,0.1,0,0.2,0,0.3l0.3,3.1c0,0.1,0,0.1,0,0.2l0.6,3.1c0,0.2,0.1,0.4,0.3,0.6l1.8,2.9c0.1,0.2,0.3,0.4,0.5,0.6l0.7,0.5l0.2,0.4
		c0.1,0.2,0.3,0.4,0.5,0.6l2.9,2.1c0.1,0.1,0.2,0.1,0.2,0.2l3.4,1.8c0.3,0.1,0.6,0.2,0.9,0.2h3.2c0.1,0,0.3,0,0.4,0l3.4-0.6
		c0.1,0,0.2,0,0.3-0.1l2.7-1c0.2-0.1,0.3-0.1,0.4-0.2l2.9-1.9c0.1-0.1,0.2-0.2,0.3-0.3l2.9-3.1c0.1-0.1,0.2-0.2,0.2-0.3l2.1-3.2
		l4.7-6.8l3.2-4.7c0-0.1,0.1-0.1,0.1-0.2l3.6-6.6c0.1-0.1,0.1-0.2,0.1-0.3l1.5-4.2c0,0,0-0.1,0-0.1l1.3-4.8l1.1-4.2c0,0,0-0.1,0-0.1
		l0.8-4c0,0,0-0.1,0-0.1l0.4-2.6c0-0.1,0.1-0.3,0.1-0.4l0.5-5.1l1-6.7l0.8-6.7l1-9.6l1.1-11.3l1.6-14.8l1.1-7.1l1.8-6.3l2.3-4.5
		l3.4-5.6l3.3-3.9l3.7-2.9l5.2-3.4l4.7-2.4l5-1.4l4.6-0.6h4.6l6.1,0.8l5.4,1.8l6.6,3.1l4.9,3l4.9,2.9l4.7,2.9l3.4,2.1
		c0,0,0.1,0,0.1,0.1l3.4,1.8c0.1,0,0.2,0.1,0.3,0.1l4.2,1.5c0,0,0.1,0,0.2,0l3.7,1c0.1,0,0.1,0,0.2,0l4.5,0.8c0.1,0,0.2,0,0.3,0
		l3.2,0.2l2.6,0.2c0,0,0.1,0,0.1,0c0,0,0.1,0,0.1,0l2.3-0.2l4.7,0.2c0,0,0,0,0.1,0h2.5l2,0.3l1.9,0.8l0.2,0.1l0.1,0.2l0.9,1.6
		l0.4,1.1l0.3,2.3v3.4c0,0.3,0.1,0.5,0.2,0.8l-0.2,53.8c0,0.1,0,0.1,0,0.2l0.3,4.2c0,0,0,0.1,0,0.1l0.8,5.3c0,0.1,0,0.2,0.1,0.3
		l1.5,5c0,0.1,0.1,0.2,0.1,0.3l2.3,4.5c0.1,0.1,0.1,0.2,0.2,0.3l3.6,4.7c0,0.1,0.1,0.1,0.2,0.2l4.7,4.8c0.1,0.1,0.1,0.1,0.2,0.2
		l0.1,0.1l1.2,1.2c0.1,0.1,0.1,0.1,0.2,0.2l5.7,4.4c0.1,0.1,0.3,0.2,0.5,0.3l5.8,2.4c0.1,0.1,0.3,0.1,0.4,0.1
		c1.7,0.3,3.8,0.7,4.4,0.8c0.5,0.2,1.4,0.4,5.5,0.6c0,0,0.1,0,0.1,0c0,0,0.1,0,0.1,0l4-0.2c0.1,0,0.2,0,0.4,0l3.6-0.8
		c0.2,0,0.3-0.1,0.5-0.2l2.4-1.3c0.2-0.1,0.4-0.2,0.5-0.4l1.6-1.8c0.1-0.1,0.2-0.2,0.3-0.4l1.3-2.3c0.1-0.1,0.1-0.2,0.2-0.4l0.8-2.4
		c0-0.1,0.1-0.2,0.1-0.3l0.5-3.2c0,0,0-0.1,0-0.1l0.8-7.4c0,0,0-0.1,0-0.1l0.5-7.9l1-13.1c0,0,0,0,0-0.1l0.6-14.9l1-17.6l0.6-10.6
		l1.1-7.5l2.2-6.2l2.6-5.7l2.7-5.8l4.1-6.3l6.1-7.9l5.3-4.8l5.3-4.1l6.7-3.7l7.9-3l6.8-2.2l5.5-1.1l24.9-4c0.1,0,0.1,0,0.2,0
		l5.3-1.5c0.2,0,0.3-0.1,0.4-0.2l4.4-2.4c0.1-0.1,0.3-0.2,0.4-0.3l2.3-2.1c0.1-0.1,0.2-0.3,0.3-0.4l1.9-3.1c0.1-0.1,0.1-0.2,0.2-0.4
		l1-2.6c0.1-0.2,0.1-0.3,0.1-0.5l0.3-3.7C450.3,48,450.3,47.9,450.3,47.7z M44.9,58.1l-0.1-2.1l0.2-1.6l-0.2,1.6L44.9,58.1z
		 M127.8,207.5l1.8-8.5L127.8,207.5l-0.2,4.5L127.8,207.5z M128.7,218.2l-0.6-3.1l-0.3-2.8l0.3,2.8L128.7,218.2l1.1,1.8L128.7,218.2
		z M341.5,39l-87.6,0.5l-9.2,0.2l9.2-0.2L341.5,39z M191.5,37.2l10-1.9l12-1l36.4-1l-36.4,1l-12,1L191.5,37.2l-1.4,0.4L191.5,37.2z
		 M195.3,43.2C195.3,43.2,195.3,43.2,195.3,43.2C195.3,43.2,195.3,43.2,195.3,43.2C195.3,43.2,195.3,43.2,195.3,43.2z M188.3,44.9
		c0,0,0.4-0.1,0.9-0.3C188.7,44.8,188.3,44.9,188.3,44.9C188.3,44.9,188.3,44.9,188.3,44.9C188.3,44.9,188.3,44.9,188.3,44.9z
		 M155.5,52.4l7.4-4.2L155.5,52.4l-7.1,4.5L155.5,52.4z M143.9,104.9l1-2.6l0.6-3.2l-0.6,3.2L143.9,104.9l-0.6,1.1L143.9,104.9z
		 M142.9,63l0.2-1L142.9,63l-0.5,4.2L142.9,63z M140.6,91.5l0.8-10l0.4-5.1l-0.4,5.1L140.6,91.5l-1.1,6.9L140.6,91.5z M136.6,113
		l2.3-1.6L136.6,113l-2.4,1.3l-1.6,0.5l1.6-0.5L136.6,113z M129.5,109.2l2.7-1l1.8-1.6l-1.8,1.6L129.5,109.2l-2.7,0.3L129.5,109.2z
		 M121.9,108.3l2.1,0.8L121.9,108.3l-1.5-0.9L121.9,108.3z M119.3,106.5l0.4,0.5L119.3,106.5l-0.6-0.9L119.3,106.5z M117.7,112
		l1.5,1l1.8,1.3l2.3,0.6l-2.3-0.6l-1.8-1.3L117.7,112L117.7,112z M116.2,110.5l0.5,0.3L116.2,110.5l-2.9-5l-1.3-2.4l1.3,2.4
		L116.2,110.5z M111.2,90.2l2.6,5.3l1.5,3.1l-1.5-3.1L111.2,90.2l-2.9-6.6L111.2,90.2z M98.9,65.1L102,71l1,2.2l-1-2.2L98.9,65.1
		l-2.4-4.8L98.9,65.1z M91.8,62.5l1.3,2.2L91.8,62.5L90,59.6L91.8,62.5z M83.4,44.1l0.2,0.2l3.1,3.2l-3.1-3.2L83.4,44.1l-0.6-0.7
		L83.4,44.1z M63.3,41.9C63.2,41.9,63.2,41.9,63.3,41.9C63.2,41.9,63.2,41.9,63.3,41.9C63.2,41.9,63.2,41.9,63.3,41.9z M60.6,35.4
		l2.6-0.5L60.6,35.4l-2,0.6L60.6,35.4z M58.4,44.3l2.4-1.6L58.4,44.3l-1.8,1.4L58.4,44.3z M47.2,68l-0.3-0.8L47.2,68l1.6,3.4
		L47.2,68z M52.4,40.6l2.9-2.6L52.4,40.6l-2.1,2.3L52.4,40.6z M50.8,55l-0.3,2.7v0L50.8,55l1.1-2.9l2.1-3.6L51.9,52L50.8,55z
		 M58.4,75.6l-6.5-9.2L58.4,75.6l4.8,6.6L58.4,75.6z M109.6,145.1L97.2,129L109.6,145.1l10.3,13.9L109.6,145.1z M134.7,219.1
		L134,218l-0.8-1.9v-4.4l3.2-13.6l-3.2,13.6v4.4l0.8,1.9L134.7,219.1l0.6,0.5L134.7,219.1z M144.8,225.8l-1.7,0.3L144.8,225.8l2.7-1
		L144.8,225.8z M148.9,214.8C148.8,214.8,148.8,214.8,148.9,214.8C148.8,214.8,148.8,214.8,148.9,214.8c0.1-0.1,0.3-0.4,0.6-0.8
		C149.1,214.4,148.9,214.7,148.9,214.8z M153.9,207.2l-2.4,3.7c0,0-0.3,0.4-0.6,0.9c0.3-0.5,0.6-0.9,0.6-0.9L153.9,207.2l1.6-2.5
		L153.9,207.2z M170.9,185.2l-1.1,4.2l-1.3,4.8l-0.7,2.1l0.7-2.1l1.3-4.8L170.9,185.2l0.8-4L170.9,185.2z M170.5,128.8l-0.1,1
		L170.5,128.8l1.5-11.5L170.5,128.8z M172.6,173.1l-0.5,5.2L172.6,173.1l1-6.8L172.6,173.1z M176.5,103.7l-2.6,6.1L176.5,103.7
		l2.1-3.5L176.5,103.7z M181.2,110.1l-1,3.3L181.2,110.1l2.4-4.7L181.2,110.1z M190.7,95.4l-2.3,2.7L190.7,95.4l3.9-3.1L190.7,95.4z
		 M209.3,78.5l6.6-0.8h0L209.3,78.5z M226.4,84.9L220,84L226.4,84.9l5.7,1.9L226.4,84.9z M258.1,95.7l-5.5-3.1l-3-2l3,2L258.1,95.7
		l3.7,1.8L258.1,95.7z M264.4,104.2l-1.5-0.5L264.4,104.2l1.9,0.5L264.4,104.2z M288.3,106.3h-2.6l-4.8-0.2l-2.4,0.2l-2.6-0.2
		l-3.2-0.2l-3.8-0.7l3.8,0.7l3.2,0.2l2.6,0.2l2.4-0.2l4.8,0.2L288.3,106.3l2.2,0.3L288.3,106.3z M291.7,101.5l-2.6-1.1L291.7,101.5
		l2.7,1.8L291.7,101.5z M296.1,118.1h-0.2v0L296.1,118.1L296.1,118.1z M300.8,191.8l-2.3-4.5L300.8,191.8l3.6,4.7L300.8,191.8z
		 M301.7,113.8l0.3,1.4l0.1,2.1l-0.1-2.1L301.7,113.8z M305,188.4l-1.5-4l-0.6-3.2l0.6,3.2L305,188.4l3.2,5.7L305,188.4z
		 M310.5,202.8l-1.3-1.3L310.5,202.8l5.7,4.4L310.5,202.8z M337.6,203.9l-2.1,1.3L337.6,203.9l0.5-0.6L337.6,203.9z M345.9,199.1
		l-0.2,1.6L345.9,199.1l0.1-0.7L345.9,199.1z M346,114.6l-1.6,7.8l-0.8,7.6l-0.8,10l0.8-10l0.8-7.6L346,114.6l2.7-7.8L346,114.6z
		 M349.8,138.2l-0.5,9L349.8,138.2l0.3-5.5L349.8,138.2z M353.8,113.3l-2.3,6.5l-0.6,3.9l0.6-3.9L353.8,113.3l2.6-5.8L353.8,113.3z
		 M357,91l-1.6,2.9L357,91l3.3-4L357,91z M369.6,87l-6.3,8.1L369.6,87l2.9-2.6L369.6,87z M431.4,55.2l-25.8,4.2
		c-0.1,0-0.2,0-0.2,0.1l-4.4,0.6c-0.1,0-0.2,0-0.2,0l-5.5,1.5c-0.1,0-0.1,0-0.2,0.1l-6.3,2.4c0,0-0.1,0-0.1,0l-7.3,3.2
		c-0.1,0-0.2,0.1-0.3,0.2l-9.5,6.3c0,0-0.1,0.1-0.1,0.1l-8.4,6.6c-0.1,0.1-0.2,0.2-0.3,0.3l-7.3,8.9c-0.1,0.1-0.1,0.2-0.2,0.3
		l-4.5,7.9c0,0-0.1,0.1-0.1,0.1L347,106c0,0.1-0.1,0.1-0.1,0.2l-2.7,7.8c0,0.1-0.1,0.2-0.1,0.3l-1.6,7.8c0,0.1,0,0.1,0,0.2l-0.8,7.6
		c0,0,0,0,0,0.1l-0.8,10c0,0,0,0,0,0.1l-0.8,14.7l-0.8,14.9l-0.6,12.3l-1,15.7c0,0,0,0.1,0,0.1v0.1l-0.3,2.6l-0.5,1.6l-0.5,0.7
		l-1.5,0.9l-1.7,0.4l-3.6-0.1l-5.6-1.2l-5.3-2.3l-4.9-3.3l-3.8-3.9l-3-5.3l-1.3-3.7l-0.6-3.1l-0.6-3.7l-0.2-57.7c0-0.1,0-0.2,0-0.2
		l-0.1-4c0-0.1,0-0.2,0-0.3l-0.5-2.6c0,0,0,0,0,0l-0.5-2.3c0-0.2-0.1-0.4-0.3-0.6c-1.4-2.3-1.7-2.6-1.9-2.8c-0.1-0.1-0.8-1-1.3-1.6
		c-0.1-0.1-0.2-0.3-0.4-0.4l-0.5-0.4c-0.3-0.4-0.6-0.7-0.6-0.7c-0.1-0.1-0.2-0.3-0.4-0.4l-1.9-1.5c0,0-0.1-0.1-0.1-0.1l-2.7-1.8
		c-0.1-0.1-0.2-0.1-0.3-0.2l-2.6-1.1c-0.2-0.1-0.3-0.1-0.5-0.1l-3.1-0.5c0,0-0.1,0-0.1,0l-3.4-0.3c-0.1,0-0.1,0-0.2,0
		c-0.1,0-0.1,0-0.2,0l-3.8,0.3h-0.1c0,0-0.1,0-0.1,0l-3.3,0.2l-2.8-0.2l-2.9-0.2l-3.4-0.9l-3.5-1.2l-3.6-1.7l-5.4-3l-7.5-5
		c0,0-0.1-0.1-0.1-0.1l-5.5-3.1l-3.4-1.9c-0.1,0-0.1-0.1-0.2-0.1l-5.2-2.3c-0.1,0-0.1-0.1-0.2-0.1l-5-1.6c-0.1,0-0.2-0.1-0.3-0.1
		l-4.7-0.8c-0.1,0-0.2,0-0.3,0l-5.3-0.2c0,0,0,0-0.1,0c-0.1,0-0.2,0-0.2,0l-6.6,0.8c-0.1,0-0.2,0-0.3,0.1l-7.1,1.9
		c-0.1,0-0.2,0.1-0.3,0.1l-6.9,3.1c-0.1,0.1-0.3,0.1-0.4,0.2l-8.2,6.1c-0.1,0.1-0.2,0.2-0.3,0.3l-6.3,7.1c-0.1,0.1-0.2,0.2-0.2,0.3
		l-4.2,6.9c-0.1,0.1-0.1,0.2-0.1,0.3l-2.6,6.1c0,0.1-0.1,0.2-0.1,0.3l-1.9,7.4c0,0.1,0,0.2,0,0.3l-1.5,11.5c0,0,0,0.1,0,0.1
		l-1.1,13.4l-3.2,34l-0.8,5.7l-1.1,4l-1.6,5l-1.7,3.5l-3.7,6.8l-3.2,4.9l-2.4,3.7c-0.9,1.5-2.1,3.2-2.4,3.6
		c-0.5,0.5-2.8,2.8-3.2,3.2l-1.7,1.3l-2.4,0.8l-1.9-0.1l-1.8-0.7l-0.1-0.1l-0.4-0.7l-0.6-1.4V212l3.2-13.3l2.1-6.2
		c0-0.1,0.1-0.2,0.1-0.3l0.3-1.9c0-0.1,0-0.3,0-0.4c-0.1-1.6-0.2-2-0.3-2.2c-0.1-0.1-0.2-0.6-0.3-1c-0.1-0.2-0.2-0.5-0.3-0.7
		l-0.9-1.2l-1.2-2c0,0,0,0,0,0l-16.2-24.7c0,0,0-0.1-0.1-0.1l-10.3-13.9l-12.4-16.2l-11.1-15.5L74.7,94.8l-9.8-13.7L60,74.5
		l-6.4-9.1L53,64.1l-0.4-1.4l-0.1-2.2v-2.7l0.3-2.4l1-2.5l1.9-3.3l1.9-2.1l2.1-1.6l2.2-1.5c0.5-0.2,1-0.5,1.3-0.5c0,0,0.1,0,0.1,0
		c0.7,0,2.3-0.2,2.9-0.3h2.5l2.6,0.6l2.1,1l2.4,1.3l2.4,1.9l3,3l1.7,1.8L85,56l1.6,2.2l1.7,2.5l1.7,2.9l2.5,4.3l3.2,6.6l3.4,6.8
		l3.9,8.2l3.5,7.7c0,0,0,0.1,0,0.1l3.6,6.8l1.3,2.4c0,0,0,0,0,0.1l2.9,5c0.2,0.3,0.4,0.5,0.6,0.7l0.6,0.4l0.2,0.4
		c0.2,0.3,0.4,0.5,0.6,0.7l1.4,0.9l1.7,1.3c0.2,0.1,0.4,0.2,0.6,0.3l2.3,0.6c0,0,0.1,0,0.1,0l3.1,0.6c0.1,0,0.3,0,0.4,0h2.1
		c0.1,0,0.2,0,0.3,0l3.1-0.5c0.1,0,0.2,0,0.3-0.1l2.7-0.8c0.1,0,0.3-0.1,0.4-0.2l2.4-1.3c0.1,0,0.2-0.1,0.2-0.1l2.3-1.6
		c0.1,0,0.1-0.1,0.2-0.2l2.1-1.9c0.1-0.1,0.2-0.2,0.3-0.3l1.6-2.3c0-0.1,0.1-0.1,0.1-0.2l1.3-2.3c0.1-0.1,0.1-0.2,0.1-0.3l1-2.6
		c0-0.1,0.1-0.2,0.1-0.3l0.6-3.2c0,0,0,0,0-0.1l0.8-4.7l0.6-3.9c0-0.1,0-0.1,0-0.2l0.3-4.7l0.3-4.9c0,0,0,0,0-0.1l0.5-12
		c0.1-0.3,0.2-0.6,0.2-0.9v-1l0.1-0.4l18.4-11c10-4.7,12.3-5.9,12.9-6.4c-0.1,0.1-0.2,0.2-0.2,0.2c0.6-0.3,4.2-1.6,7.5-2.7
		c2.6-0.7,5.7-1.6,6.4-1.7c0.3,0,1.4-0.1,10.4-1.8l11-1.1l18.8-0.5l18.4-0.3l87.6-0.5l83.1-0.6l9.3,0l2.9,0.6l1.1,0.6l0.4,0.3
		l0.3,0.4l0.8,1.5l0.4,1.3l0.3,1.7v1.3l-0.2,1.4l-0.6,1.4l-0.9,1.3l-1.3,1.3l-1.7,1L431.4,55.2z M438.5,61.9l-2.7,0.7L438.5,61.9
		L440,61L438.5,61.9z M439.8,53.2l-0.8,0.8L439.8,53.2l0.6-0.8L439.8,53.2z M440.7,34.3l-2.2-1.2L440.7,34.3l2.1,1.9L440.7,34.3z
		 M447.8,44.9l-0.3-1.1L447.8,44.9l0.5,3.1L447.8,44.9z"/>
</g>
<g id="PUNTOS_INTERMEDIOS_Y_SEMAFORO">
	<path fill="#AC1737" d="M361.2,51.9c-0.5,0-0.9-0.4-0.9-0.9l0-33c0-0.5,0.4-0.9,0.9-0.9c0.5,0,0.9,0.4,0.9,0.9l0,33
		C362.1,51.5,361.7,51.9,361.2,51.9z"/>
	<g>
		<path fill="#AC1737" d="M351.7,7.9c0-4.2,3.4-7.6,7.6-7.6h2.7c4.2,0,7.6,3.4,7.6,7.6v4.8c0,4.2-3.4,7.6-7.6,7.6h-2.7
			c-4.2,0-7.6-3.4-7.6-7.6V7.9L351.7,7.9z"/>
		<g>
			<path fill="#FFFFFF" d="M358.6,12.4c0.6,0.6,1.4,0.9,2.2,0.9c0.9,0,1.4-0.4,1.4-1.1c0-0.7-0.5-0.9-1.3-1.2l-1.1-0.5
				c-0.8-0.3-1.7-1-1.7-2.2c0-1.3,1.2-2.3,2.8-2.3c1,0,1.9,0.4,2.6,1.1L362.7,8c-0.5-0.4-1.1-0.7-1.8-0.7c-0.8,0-1.3,0.4-1.3,1
				c0,0.6,0.6,0.9,1.3,1.2l1.1,0.5c1,0.4,1.7,1,1.7,2.2c0,1.3-1.1,2.5-3,2.5c-1.1,0-2.2-0.4-3-1.2L358.6,12.4z"/>
		</g>
	</g>
	<g>
		<path fill="#AC1737" d="M64,142.3c0-4.2,3.4-7.6,7.7-7.6h11.7c4.2,0,7.6,3.4,7.6,7.6v4.8c0,4.2-3.4,7.6-7.6,7.6H71.7
			c-4.2,0-7.7-3.4-7.7-7.6V142.3L64,142.3z"/>
		<g>
			<path fill="#FFFFFF" d="M71.5,140.6h5v1.2H73v2.3h3v1.2h-3v3.5h-1.5V140.6z"/>
			<path fill="#FFFFFF" d="M78.6,140.6h1.5v7.1h3.4v1.2h-4.9V140.6z"/>
		</g>
	</g>
	<g>
		<path fill="#AC1737" d="M226.4,114.5c0-4.2,3.4-7.7,7.6-7.7h5.1c4.2,0,7.7,3.4,7.7,7.7v5.1c0,4.2-3.4,7.6-7.7,7.6h-5.1
			c-4.2,0-7.6-3.4-7.6-7.6V114.5L226.4,114.5z"/>
		<g>
			<path fill="#FFFFFF" d="M232.1,113.3c0-0.5,0.4-0.8,0.9-0.8c0.5,0,0.9,0.3,0.9,0.8c0,0.5-0.4,0.8-0.9,0.8
				C232.5,114.1,232.1,113.8,232.1,113.3z M232.3,115.2h1.5v6.2h-1.5V115.2z"/>
			<path fill="#FFFFFF" d="M236.3,119.5c0.5,0.5,1.1,0.9,1.9,0.9c0.9,0,1.5-0.5,1.5-1.2c0-0.8-0.5-1.4-2.4-1.4v-1.1
				c1.6,0,2.1-0.5,2.1-1.3c0-0.7-0.5-1.1-1.2-1.1c-0.6,0-1.1,0.3-1.6,0.8l-0.8-0.9c0.7-0.6,1.5-1,2.4-1c1.5,0,2.6,0.8,2.6,2.1
				c0,0.9-0.5,1.5-1.4,1.9v0.1c1,0.3,1.7,0.9,1.7,2c0,1.5-1.3,2.3-2.8,2.3c-1.3,0-2.2-0.5-2.7-1.1L236.3,119.5z"/>
		</g>
	</g>
	<path fill="#AC1737" d="M204.4,51c-0.5,0.1-0.9-0.3-1-0.8L199,17.5c-0.1-0.5,0.3-0.9,0.8-1c0.5-0.1,0.9,0.3,1,0.8l4.5,32.7
		C205.3,50.5,204.9,50.9,204.4,51z"/>
	<path fill="#AC1737" d="M238.3,108.3c-0.5-0.2-0.7-0.7-0.5-1.1l10.8-31.2c0.2-0.5,0.7-0.7,1.1-0.5c0.5,0.2,0.7,0.7,0.5,1.1
		l-10.8,31.2C239.3,108.2,238.8,108.4,238.3,108.3z"/>
	<g>
		<path fill="#AC1737" d="M190.4,8.2c0-4.2,3.4-7.6,7.7-7.6h3.9c4.2,0,7.7,3.4,7.7,7.6v5.5c0,4.2-3.4,7.7-7.7,7.7h-3.9
			c-4.2,0-7.7-3.4-7.7-7.7V8.2L190.4,8.2z"/>
		<g>
			<path fill="#FFFFFF" d="M195.5,7.3c0-0.5,0.4-0.8,0.9-0.8c0.5,0,0.9,0.3,0.9,0.8c0,0.5-0.4,0.8-0.9,0.8
				C195.9,8.1,195.5,7.8,195.5,7.3z M195.7,9.2h1.5v6.2h-1.5V9.2z"/>
			<path fill="#FFFFFF" d="M199.6,14.3h1.8V9H200V8.1c0.8-0.2,1.4-0.4,1.9-0.7h1.1v6.9h1.6v1.2h-4.9V14.3z"/>
		</g>
	</g>
	<path fill="#AC1737" d="M392.6,91.8c-0.4,0.3-0.9,0.2-1.2-0.2l-19.2-26.9c-0.3-0.4-0.2-0.9,0.2-1.2c0.4-0.3,0.9-0.2,1.2,0.2
		l19.2,26.9C393.1,91,393,91.5,392.6,91.8z"/>
	<g>
		<path fill="#AC1737" d="M390.6,95.4c0-4.2,3.4-7.7,7.6-7.7h5c4.2,0,7.7,3.4,7.7,7.7v5.1c0,4.2-3.4,7.7-7.7,7.7h-5
			c-4.2,0-7.6-3.4-7.6-7.7V95.4L390.6,95.4z"/>
		<g>
			<path fill="#FFFFFF" d="M396.2,94.2c0-0.5,0.4-0.8,0.9-0.8s0.9,0.3,0.9,0.8c0,0.5-0.4,0.8-0.9,0.8S396.2,94.7,396.2,94.2z
				 M396.3,96.2h1.5v6.2h-1.5V96.2z"/>
			<path fill="#FFFFFF" d="M399.9,101.5c2.2-2.2,3.7-3.6,3.7-4.8c0-0.9-0.5-1.4-1.3-1.4c-0.6,0-1.1,0.4-1.6,0.9l-0.8-0.8
				c0.7-0.8,1.5-1.2,2.6-1.2c1.5,0,2.6,1,2.6,2.5c0,1.4-1.3,2.9-2.9,4.6c0.4,0,1-0.1,1.3-0.1h2v1.2h-5.5V101.5z"/>
		</g>
	</g>
	<g>
		<path fill="#AC1737" d="M88.2,139.2c0.3,0.4,0.9,0.5,1.2,0.2l20-15.5c0.4-0.3,0.4-0.8,0.1-1.2l-10.8-14c-0.3-0.4-0.9-0.5-1.2-0.2
			c-0.4,0.3-0.5,0.9-0.2,1.2l10.1,13c0.1,0.1,0.1,0.4-0.1,0.5l-19,14.7C88,138.3,87.9,138.8,88.2,139.2z"/>
		<path fill="#AC1737" d="M95.7,107c-0.1-0.4,0.4-0.7,0.7-0.6l3.4,1.4l3.4,1.4c0.4,0.2,0.5,0.7,0.1,0.9l-2.9,2.2l-2.9,2.2
			c-0.3,0.3-0.8,0.1-0.9-0.4l-0.5-3.6L95.7,107z"/>
	</g>
	<path fill="#AC1737" d="M110.3,176.8c-0.3-0.4-0.2-0.9,0.2-1.2l26.2-20.1c0.4-0.3,0.9-0.2,1.2,0.2c0.3,0.4,0.2,0.9-0.2,1.2
		L111.5,177C111.1,177.2,110.6,177.2,110.3,176.8z"/>
	<g>
		<path fill="#7B7C7D" d="M91,173c0-4.2,3.4-7.6,7.6-7.6h6.8c4.2,0,7.6,3.4,7.6,7.6v8.3c0,4.2-3.4,7.6-7.6,7.6h-6.8
			c-4.2,0-7.6-3.4-7.6-7.6V173L91,173z"/>
		<g>
			<path fill="#FFFFFF" d="M100.8,186.7c-3.9,0-7.1-3.2-7.1-7.1v-4.8c0-3.9,3.2-7.1,7.1-7.1h2.7c3.9,0,7.1,3.2,7.1,7.1v4.8
				c0,3.9-3.2,7.1-7.1,7.1H100.8z"/>
			<path fill="#C7C6C5" d="M103.5,168.1c3.7,0,6.6,3,6.6,6.6v4.8c0,3.7-3,6.6-6.6,6.6h-2.7c-3.7,0-6.6-3-6.6-6.6v-4.8
				c0-3.7,3-6.6,6.6-6.6H103.5 M103.5,167.1h-2.7c-4.2,0-7.6,3.4-7.6,7.6v4.8c0,4.2,3.4,7.6,7.6,7.6h2.7c4.2,0,7.6-3.4,7.6-7.6v-4.8
				C111.2,170.6,107.8,167.1,103.5,167.1L103.5,167.1z"/>
		</g>
		<g>
			<defs>
				<path id="SVGID_15_" d="M93.1,174.8c0-4.2,3.4-7.6,7.6-7.6h2.7c4.2,0,7.6,3.4,7.6,7.6v4.8c0,4.2-3.4,7.6-7.6,7.6h-2.7
					c-4.2,0-7.6-3.4-7.6-7.6V174.8L93.1,174.8z"/>
			</defs>
			<clipPath id="SVGID_2_">
				<use xlink:href="#SVGID_15_"  overflow="visible"/>
			</clipPath>
			<g clip-path="url(#SVGID_2_)">
				<rect x="87.8" y="168.8" fill="#1E1E1C" width="4.2" height="4.2"/>
				<rect x="91.9" y="173" fill="#1E1E1C" width="4.2" height="4.2"/>
				<rect x="96.1" y="168.8" fill="#1E1E1C" width="4.2" height="4.2"/>
				<rect x="100.3" y="173" fill="#1E1E1C" width="4.2" height="4.2"/>
				<rect x="87.8" y="177.1" fill="#1E1E1C" width="4.2" height="4.2"/>
				<rect x="91.9" y="181.3" fill="#1E1E1C" width="4.2" height="4.2"/>
				<rect x="96.1" y="177.1" fill="#1E1E1C" width="4.2" height="4.2"/>
				<rect x="100.3" y="181.3" fill="#1E1E1C" width="4.2" height="4.2"/>
				<rect x="104.4" y="168.8" fill="#1E1E1C" width="4.2" height="4.2"/>
				<rect x="108.6" y="173" fill="#1E1E1C" width="4.2" height="4.2"/>
				<rect x="104.4" y="177.1" fill="#1E1E1C" width="4.2" height="4.2"/>
				<rect x="108.6" y="181.3" fill="#1E1E1C" width="4.2" height="4.2"/>
			</g>
		</g>
		<g>
			<path fill="#C7C6C5" d="M103.5,168.1c3.7,0,6.6,3,6.6,6.6v4.8c0,3.7-3,6.6-6.6,6.6h-2.7c-3.7,0-6.6-3-6.6-6.6v-4.8
				c0-3.7,3-6.6,6.6-6.6H103.5 M103.5,167.1h-2.7c-4.2,0-7.6,3.4-7.6,7.6v4.8c0,4.2,3.4,7.6,7.6,7.6h2.7c4.2,0,7.6-3.4,7.6-7.6v-4.8
				C111.2,170.6,107.8,167.1,103.5,167.1L103.5,167.1z"/>
		</g>
	</g>
	<g>
		<path fill="#7B7C7D" d="M32.8,163c0-4.2,3.4-7.6,7.6-7.6h25.8c4.2,0,7.6,3.4,7.6,7.6v8.3c0,4.2-3.4,7.6-7.6,7.6H40.5
			c-4.2,0-7.6-3.4-7.6-7.6V163L32.8,163z"/>
		<g>
			<g>
				<path fill="#C01724" d="M42.1,176.7c-3.9,0-7.1-3.2-7.1-7.1v-4.8c0-3.9,3.2-7.1,7.1-7.1h2.7c3.9,0,7.1,3.2,7.1,7.1v4.8
					c0,3.9-3.2,7.1-7.1,7.1H42.1z"/>
				<path fill="#AA1920" d="M44.8,158.1c3.7,0,6.6,3,6.6,6.6v4.8c0,3.7-3,6.6-6.6,6.6h-2.7c-3.7,0-6.6-3-6.6-6.6v-4.8
					c0-3.7,3-6.6,6.6-6.6H44.8 M44.8,157.1h-2.7c-4.2,0-7.6,3.4-7.6,7.6v4.8c0,4.2,3.4,7.6,7.6,7.6h2.7c4.2,0,7.6-3.4,7.6-7.6v-4.8
					C52.5,160.5,49.1,157.1,44.8,157.1L44.8,157.1z"/>
			</g>
			<g>
				<path fill="#009548" d="M61.9,176.7c-3.9,0-7.1-3.2-7.1-7.1v-4.8c0-3.9,3.2-7.1,7.1-7.1h2.7c3.9,0,7.1,3.2,7.1,7.1v4.8
					c0,3.9-3.2,7.1-7.1,7.1H61.9z"/>
				<path fill="#006139" d="M64.6,158.1c3.7,0,6.6,3,6.6,6.6v4.8c0,3.7-3,6.6-6.6,6.6h-2.7c-3.7,0-6.6-3-6.6-6.6v-4.8
					c0-3.7,3-6.6,6.6-6.6H64.6 M64.6,157.1h-2.7c-4.2,0-7.6,3.4-7.6,7.6v4.8c0,4.2,3.4,7.6,7.6,7.6h2.7c4.2,0,7.6-3.4,7.6-7.6v-4.8
					C72.3,160.5,68.8,157.1,64.6,157.1L64.6,157.1z"/>
			</g>
		</g>
	</g>
</g>
<g id="textos_y_numeros">
	<g>
		<g>
			<path fill="#7B7C7D" d="M61.8,58.8h1.7v-4H62v-1.3c0.9-0.2,1.5-0.4,2-0.8h1.6v6.1H67v1.7h-5.2V58.8z"/>
		</g>
	</g>
	<g>
		<g>
			<path fill="#7B7C7D" d="M124.8,97.8c1.9-1.7,3.3-3,3.3-4.1c0-0.7-0.4-1-1-1c-0.5,0-0.9,0.4-1.3,0.7l-1.1-1.1
				c0.8-0.9,1.6-1.3,2.7-1.3c1.6,0,2.7,1,2.7,2.6c0,1.3-1.2,2.6-2.2,3.7c0.4,0,1-0.1,1.3-0.1h1.3V99h-5.7V97.8z"/>
		</g>
	</g>
	<g>
		<g>
			<path fill="#7B7C7D" d="M157.7,75.2c0.5,0.4,1,0.7,1.6,0.7c0.7,0,1.1-0.2,1.1-0.7c0-0.6-0.3-0.9-2-0.9v-1.5
				c1.3,0,1.7-0.3,1.7-0.9c0-0.5-0.3-0.7-0.8-0.7c-0.5,0-0.9,0.2-1.4,0.6l-1.1-1.3c0.8-0.6,1.6-1,2.5-1c1.7,0,2.8,0.8,2.8,2.2
				c0,0.8-0.4,1.3-1.3,1.7v0c0.9,0.3,1.5,0.9,1.5,1.9c0,1.5-1.4,2.3-3,2.3c-1.3,0-2.2-0.4-2.8-1.1L157.7,75.2z"/>
		</g>
	</g>
	<g>
		<g>
			<path fill="#7B7C7D" d="M196.8,57H196v1.8h-2V57h-3.3v-1.5l2.7-4.6h2.6v4.5h0.8V57z M194,55.4v-0.9c0-0.5,0-1.3,0.1-1.9h0
				c-0.2,0.5-0.4,0.9-0.6,1.4l-0.7,1.3H194z"/>
		</g>
	</g>
	<g>
		<g>
			<path fill="#7B7C7D" d="M457.7,51.2c0.5,0.4,1,0.7,1.6,0.7c0.7,0,1.2-0.3,1.2-1c0-0.7-0.4-1-1.1-1c-0.4,0-0.6,0.1-1.1,0.4
				l-0.9-0.6l0.2-4h4.6v1.8h-2.8l-0.1,1.1c0.3-0.1,0.5-0.1,0.7-0.1c1.4,0,2.5,0.8,2.5,2.4c0,1.8-1.4,2.8-3,2.8
				c-1.3,0-2.2-0.5-2.8-1.1L457.7,51.2z"/>
		</g>
	</g>
	<g>
		<g>
			<path fill="#7B7C7D" d="M381.5,93.9c-0.2-0.3-0.7-0.5-1.2-0.5c-0.8,0-1.4,0.5-1.4,2.1c0.4-0.5,1-0.8,1.5-0.8
				c1.3,0,2.4,0.7,2.4,2.4s-1.2,2.7-2.7,2.7c-1.5,0-3.1-1.1-3.1-3.9s1.6-4.2,3.2-4.2c1.1,0,1.9,0.5,2.4,1L381.5,93.9z M380.8,97.1
				c0-0.8-0.4-0.9-0.9-0.9c-0.4,0-0.7,0.2-1,0.7c0.2,1.1,0.6,1.4,1,1.4C380.4,98.1,380.8,97.9,380.8,97.1z"/>
		</g>
	</g>
	<g>
		<g>
			<path fill="#7B7C7D" d="M329.8,189h-3.4v-1.8h5.6v1.3c-1.8,2.1-2,3.5-2.1,6.5h-2.1C327.9,192.5,328.4,191,329.8,189z"/>
		</g>
	</g>
	<g>
		<g>
			<path fill="#7B7C7D" d="M302.6,213.5L302.6,213.5c-0.6-0.5-1-1.1-1-1.9c0-1.4,1.1-2.2,2.6-2.2c1.5,0,2.4,0.8,2.4,2.2
				c0,0.7-0.4,1.3-1,1.6v0c0.8,0.4,1.3,1,1.3,2.1c0,1.3-1.1,2.2-2.9,2.2c-1.6,0-2.8-0.9-2.8-2.1
				C301.3,214.4,301.8,213.9,302.6,213.5z M304.1,216.1c0.5,0,0.9-0.2,0.9-0.8c0-0.6-0.5-0.8-1.5-1.2c-0.2,0.3-0.4,0.7-0.4,1.1
				C303.1,215.7,303.6,216.1,304.1,216.1z M304.9,211.7c0-0.5-0.3-0.9-0.8-0.9c-0.4,0-0.7,0.2-0.7,0.8c0,0.5,0.4,0.8,1.2,1.1
				C304.8,212.4,304.9,212.1,304.9,211.7z"/>
		</g>
	</g>
	<g>
		<g>
			<path fill="#7B7C7D" d="M271,90.3h1.7v-4h-1.5V85c0.9-0.2,1.5-0.4,2-0.8h1.6v6.1h1.4V92H271V90.3z"/>
			<path fill="#7B7C7D" d="M277.3,88.1c0-2.7,1.2-4,2.9-4s2.9,1.4,2.9,4c0,2.7-1.2,4.1-2.9,4.1S277.3,90.8,277.3,88.1z M281.1,88.1
				c0-2.1-0.4-2.4-0.9-2.4s-0.9,0.3-0.9,2.4c0,2.1,0.4,2.5,0.9,2.5S281.1,90.2,281.1,88.1z"/>
		</g>
	</g>
	<g>
		<g>
			<path fill="#7B7C7D" d="M282.7,122.5c0.2,0.3,0.7,0.5,1.2,0.5c0.8,0,1.4-0.5,1.4-2.1c-0.4,0.5-1,0.8-1.5,0.8
				c-1.3,0-2.4-0.7-2.4-2.4c0-1.7,1.2-2.7,2.7-2.7c1.5,0,3.1,1.1,3.1,3.9s-1.6,4.2-3.2,4.2c-1.1,0-1.9-0.5-2.4-1L282.7,122.5z
				 M285.3,119.5c-0.2-1.1-0.6-1.4-1-1.4c-0.4,0-0.8,0.3-0.8,1.1c0,0.8,0.4,0.9,0.9,0.9C284.7,120.2,285,120,285.3,119.5z"/>
		</g>
	</g>
	<g>
		<g>
			<path fill="#7B7C7D" d="M196.7,105.9h1.7v-4h-1.5v-1.3c0.9-0.2,1.5-0.4,2-0.8h1.6v6.1h1.4v1.7h-5.2V105.9z"/>
			<path fill="#7B7C7D" d="M203.4,105.9h1.7v-4h-1.5v-1.3c0.9-0.2,1.5-0.4,2-0.8h1.6v6.1h1.4v1.7h-5.2V105.9z"/>
		</g>
	</g>
	<g>
		<g>
			<path fill="#7B7C7D" d="M147,181.9h1.7v-4h-1.5v-1.3c0.9-0.2,1.5-0.4,2-0.8h1.6v6.1h1.4v1.7H147V181.9z"/>
			<path fill="#7B7C7D" d="M153.3,182.4c1.9-1.7,3.3-3,3.3-4.1c0-0.7-0.4-1-1-1c-0.5,0-0.9,0.4-1.3,0.7l-1.1-1.1
				c0.8-0.9,1.6-1.3,2.7-1.3c1.6,0,2.7,1,2.7,2.6c0,1.3-1.2,2.6-2.2,3.7c0.4,0,1-0.1,1.3-0.1h1.3v1.8h-5.7V182.4z"/>
		</g>
	</g>
	<g>
		<g>
			<path fill="#7B7C7D" d="M131.1,245.6h1.7v-4h-1.5v-1.3c0.9-0.2,1.5-0.4,2-0.8h1.6v6.1h1.4v1.7h-5.2V245.6z"/>
			<path fill="#7B7C7D" d="M138.1,245c0.5,0.4,1,0.7,1.6,0.7c0.7,0,1.1-0.2,1.1-0.7c0-0.6-0.3-0.9-2-0.9v-1.5c1.3,0,1.7-0.3,1.7-0.9
				c0-0.5-0.3-0.7-0.8-0.7c-0.5,0-0.9,0.2-1.4,0.6l-1.1-1.3c0.8-0.6,1.6-1,2.5-1c1.7,0,2.8,0.8,2.8,2.2c0,0.8-0.4,1.3-1.3,1.7v0
				c0.9,0.3,1.5,0.9,1.5,1.9c0,1.5-1.4,2.3-3,2.3c-1.3,0-2.2-0.4-2.8-1.1L138.1,245z"/>
		</g>
	</g>
	<g>
		<g>
			<path fill="#7B7C7D" d="M111.4,194h1.7v-4h-1.5v-1.3c0.9-0.2,1.5-0.4,2-0.8h1.6v6.1h1.4v1.7h-5.2V194z"/>
			<path fill="#7B7C7D" d="M123.6,194h-0.8v1.8h-2V194h-3.3v-1.5l2.7-4.6h2.6v4.5h0.8V194z M120.8,192.4v-0.9c0-0.5,0-1.3,0.1-1.9h0
				c-0.2,0.5-0.4,0.9-0.6,1.4l-0.7,1.3H120.8z"/>
		</g>
	</g>
</g>
</svg>
