<?xml version="1.0" encoding="utf-8"?>
<!-- Generator: Adobe Illustrator 18.1.0, SVG Export Plug-In . SVG Version: 6.00 Build 0)  -->
<!DOCTYPE svg PUBLIC "-//W3C//DTD SVG 1.0//EN" "http://www.w3.org/TR/2001/REC-SVG-20010904/DTD/svg10.dtd">
<svg version="1.0" xmlns="http://www.w3.org/2000/svg" xmlns:xlink="http://www.w3.org/1999/xlink" x="0px" y="0px"
	 viewBox="0 0 504 251" enable-background="new 0 0 504 251" xml:space="preserve">
<g id="trazado">
	<path fill="#B7B5B6" d="M278.7,27.7l-32.8,5.6l-0.1,0c-0.5,0.1-11.9,2.6-19.4,8.8c-6,4.9-21.7,15.4-21.9,15.5l-0.2,0.1l-0.2,0.1
		c-0.1,0.1-6.9,5.4-14.9,6.5c-8.3,1.1-15.1-0.5-15.2-0.5c-0.1,0-26.3-6.1-26.3-6.1c-0.5-0.1-12.6-3-22.8-1c-11.2,2.2-21,9.6-26,19.9
		c-3.6,7.3-3.4,15.7-2.4,22.1c0.7,4.7,1.9,8.3,2.4,9.6c1.6,4.4,6.2,16.8,8.6,20.8c1,1.6,1.3,2.7,1.4,3.4c0.1,0.5,0,0.7,0,0.8
		c-0.1,0-1,0.2-3.5-0.9c-2.4-1-10.8-4.4-16.6-4.4c-6.4,0-12,2-17.1,6.2l-0.1,0c-0.5,0.4-11.8,10.2-9.6,27.9
		c2.1,16.6,6.3,38.5,14.2,48.6c11.6,14.7,26,20.3,44,17.2c15.6-2.7,32.2-12.8,33.6-13.7c0.2-0.1,156.4-87,156.4-87l0.1-0.1
		c0.1-0.1,12.3-7.7,25.1-6.2c13.5,1.5,20.8,8.9,23.2,11.3c2.4,2.5,15.6,17.4,20.6,23.1c1.4,1.7,12.9,15.7,31.2,12.6
		c7.8-1.3,14.1-5.6,18.2-12.4c4.7-7.7,5.1-16.4,3.6-21.3c-2.7-8.4-6.4-12.9-11.5-17.5c-7.4-6.7-39.4-26.2-40.8-27
		c-0.1,0-16.4-9.5-16.4-9.5c-0.7-0.4-14.9-8.2-26.8-9.6c-7.7-0.9-17.3-0.2-27,2c-3.1,0.7-20.5,7.2-26.3,9.7l-21.3,8.8
		c-0.9,0.4-2.3,0.6-2.9,0.5c-0.1-0.3-0.2-0.6-0.2-0.9c-0.2-1.1,0.2-1.6,0.3-1.7c1.6-1.5,13.1-12.5,14.9-14.2c1-0.7,4.9-3.3,8.4-5.1
		l10.8-5.9l0.1-0.1c0.4-0.3,10.4-7.3,8.4-19.8c-2.3-14.6-16.1-17-23-16.3l-0.2,0L278.7,27.7L278.7,27.7z M280.1,37
		c1.4-0.1,11.2-0.6,12.7,8.4c1,6.2-3.6,10-4.3,10.5c-0.4,0.2-9.9,5.4-9.9,5.4c-4.7,2.4-9.7,5.9-9.9,6.1l-0.3,0.2l-15.5,14.8
		c-1.6,1.4-3.7,5-2.9,9.9c0.1,0.9,0.4,1.8,0.7,2.8c0.9,2.4,2.5,4.2,4.8,5.2c4.4,2,9.5,0.1,10.5-0.3l21.5-8.8
		c6.3-2.7,22.6-8.7,24.7-9.2c8.7-1.9,17.2-2.6,23.9-1.8c10.1,1.2,23.1,8.3,23.3,8.4c0,0,16.2,9.4,16.2,9.4
		c9,5.5,33.7,20.9,39.3,25.9c4.1,3.7,6.8,7,8.8,13.4c0.1,0.3,0.2,0.6,0.2,1c0.4,2.8-0.1,7.9-2.9,12.5c-2.7,4.4-6.6,7.1-11.8,8
		c-13.4,2.3-21.9-8.7-22.3-9.1l-0.1-0.1l-0.1-0.1c-0.7-0.8-17.9-20.4-21.1-23.6c-8-8.1-17.7-12.8-28.8-14.1
		c-15.7-1.8-29.6,6.7-31.1,7.6c-0.1,0.1-156.4,87-156.4,87l-0.1,0.1c-0.2,0.1-16.3,10-30.3,12.5c-19,3.3-29.1-6.3-35-13.8
		c-4.4-5.6-8.3-17.9-11-35.1c-0.4-2.8-0.9-5.8-1.3-8.8c-1.6-12.3,5.8-19.1,6.3-19.6c3.4-2.7,6.9-4,11.1-4c3,0,8.6,1.8,12.9,3.7
		c7.8,3.3,12.1,0.9,14.3-1.6c1.9-2.2,4.4-7.1-0.5-15.2c-1.6-2.7-5.6-12.8-7.8-19.1c-1.9-5.4-4.2-16.7-0.4-24.4
		c3.8-7.7,11-13.2,19.4-14.8c8.1-1.6,18.7,0.9,18.8,1c0,0,26.3,6.1,26.3,6.1c0.3,0.1,8.4,2.1,18.6,0.7c10.1-1.4,18.2-7.4,19.3-8.3
		c1.1-0.7,16.3-10.9,22.5-15.9c5.6-4.6,15-6.7,15.4-6.9C248,42.5,279.7,37.1,280.1,37L280.1,37z"/>
</g>
<g id="PUNTOS_INTERMEDIOS_Y_SEMAFORO">
	<path fill="#AC1737" d="M264,13.9c0.5-0.1,0.9,0.2,1.1,0.7l7.3,32.2c0.1,0.5-0.2,0.9-0.7,1.1c-0.5,0.1-0.9-0.2-1.1-0.7l-7.3-32.2
		C263.2,14.4,263.5,14,264,13.9z"/>
	<path fill="#AC1737" d="M421.1,98.4c0.4,0.3,0.5,0.8,0.2,1.2l-19.7,26.6c-0.3,0.4-0.8,0.5-1.2,0.2s-0.5-0.8-0.2-1.2l19.7-26.6
		C420.2,98.2,420.7,98.2,421.1,98.4z"/>
	<path fill="#AC1737" d="M284.9,158.1c-0.4,0.2-1,0.1-1.2-0.4l-15.8-29c-0.2-0.4-0.1-1,0.4-1.2c0.4-0.2,1-0.1,1.2,0.4l15.8,29
		C285.5,157.4,285.3,157.9,284.9,158.1z"/>
	<path fill="#AC1737" d="M125.7,104.9c0.2,0.4,0,1-0.5,1.2l-30.3,13.2c-0.4,0.2-1,0-1.2-0.5c-0.2-0.4,0-1,0.5-1.2l30.3-13.2
		C124.9,104.3,125.5,104.5,125.7,104.9z"/>
	<g>
		<path fill="#AC1737" d="M230.2,176.5c-0.4,0.2-1,0-1.2-0.4l-11.4-22.5c-0.2-0.4,0-0.9,0.4-1.1l15.8-8c0.4-0.2,1,0,1.2,0.4
			s0,1-0.4,1.2l-14.7,7.4c-0.2,0.1-0.2,0.3-0.1,0.5l10.9,21.4C230.8,175.8,230.7,176.3,230.2,176.5z"/>
		<path fill="#AC1737" d="M237.2,144.2c0.2-0.3,0-0.8-0.4-0.8l-3.7-0.2l-3.7-0.2c-0.4,0-0.7,0.4-0.5,0.8l1.7,3.3l1.7,3.3
			c0.2,0.4,0.7,0.4,0.9,0.1l2-3.1L237.2,144.2z"/>
	</g>
	<g>
		<path fill="#AC1737" d="M225.1,184.2c0-4.2,3.4-7.6,7.7-7.6h11.7c4.2,0,7.6,3.4,7.6,7.6v4.8c0,4.2-3.4,7.6-7.6,7.6h-11.7
			c-4.2,0-7.7-3.4-7.7-7.6V184.2L225.1,184.2z"/>
		<g>
			<path fill="#FFFFFF" d="M232.6,182.5h5v1.2h-3.5v2.3h3v1.2h-3v3.5h-1.5V182.5z"/>
			<path fill="#FFFFFF" d="M239.7,182.5h1.5v7.1h3.4v1.2h-4.9V182.5z"/>
		</g>
	</g>
	<g>
		<path fill="#AC1737" d="M414.8,93.5c0-4.2,3.4-7.6,7.7-7.6h3.9c4.2,0,7.7,3.4,7.7,7.6V99c0,4.2-3.4,7.7-7.7,7.7h-3.9
			c-4.2,0-7.7-3.4-7.7-7.7V93.5L414.8,93.5z"/>
		<g>
			<path fill="#FFFFFF" d="M419.9,92.6c0-0.5,0.4-0.8,0.9-0.8c0.5,0,0.9,0.3,0.9,0.8c0,0.5-0.4,0.8-0.9,0.8
				C420.3,93.4,419.9,93.1,419.9,92.6z M420.1,94.5h1.5v6.2h-1.5V94.5z"/>
			<path fill="#FFFFFF" d="M424.1,99.6h1.8v-5.3h-1.5v-0.9c0.8-0.2,1.4-0.4,1.9-0.7h1.1v6.9h1.6v1.2h-4.9V99.6z"/>
		</g>
	</g>
	<g>
		<path fill="#AC1737" d="M117.5,103.5c0-4.2,3.4-7.7,7.6-7.7h5.1c4.2,0,7.7,3.4,7.7,7.7v5.1c0,4.2-3.4,7.6-7.7,7.6h-5.1
			c-4.2,0-7.6-3.4-7.6-7.6V103.5L117.5,103.5z"/>
		<g>
			<path fill="#FFFFFF" d="M123.1,102.3c0-0.5,0.4-0.8,0.9-0.8c0.5,0,0.9,0.3,0.9,0.8c0,0.5-0.4,0.8-0.9,0.8
				C123.5,103.1,123.1,102.8,123.1,102.3z M123.3,104.2h1.5v6.2h-1.5V104.2z"/>
			<path fill="#FFFFFF" d="M127.3,108.5c0.5,0.5,1.1,0.9,1.9,0.9c0.9,0,1.5-0.5,1.5-1.2c0-0.8-0.5-1.4-2.4-1.4v-1.1
				c1.6,0,2.1-0.5,2.1-1.3c0-0.7-0.5-1.1-1.2-1.1c-0.6,0-1.1,0.3-1.6,0.8l-0.8-0.9c0.7-0.6,1.5-1,2.4-1c1.5,0,2.6,0.8,2.6,2.1
				c0,0.9-0.5,1.5-1.4,1.9v0.1c1,0.3,1.7,0.9,1.7,2c0,1.5-1.3,2.3-2.8,2.3c-1.3,0-2.2-0.5-2.7-1.1L127.3,108.5z"/>
		</g>
	</g>
	<g>
		<path fill="#7B7C7D" d="M221.5,209.1c0-4.2,3.4-7.6,7.6-7.6h45.8c4.2,0,7.6,3.4,7.6,7.6v8.3c0,4.2-3.4,7.6-7.6,7.6h-45.8
			c-4.2,0-7.6-3.4-7.6-7.6V209.1L221.5,209.1z"/>
		<g>
			<path fill="#FFFFFF" d="M270.4,222.8c-3.9,0-7.1-3.2-7.1-7.1v-4.8c0-3.9,3.2-7.1,7.1-7.1h2.7c3.9,0,7.1,3.2,7.1,7.1v4.8
				c0,3.9-3.2,7.1-7.1,7.1H270.4z"/>
			<path fill="#C7C6C5" d="M273.1,204.2c3.7,0,6.6,3,6.6,6.6v4.8c0,3.7-3,6.6-6.6,6.6h-2.7c-3.7,0-6.6-3-6.6-6.6v-4.8
				c0-3.7,3-6.6,6.6-6.6H273.1 M273.1,203.2h-2.7c-4.2,0-7.6,3.4-7.6,7.6v4.8c0,4.2,3.4,7.6,7.6,7.6h2.7c4.2,0,7.6-3.4,7.6-7.6v-4.8
				C280.8,206.6,277.3,203.2,273.1,203.2L273.1,203.2z"/>
		</g>
		<g>
			<defs>
				<path id="SVGID_31_" d="M262.8,210.9c0-4.2,3.4-7.6,7.6-7.6h2.7c4.2,0,7.6,3.4,7.6,7.6v4.8c0,4.2-3.4,7.6-7.6,7.6h-2.7
					c-4.2,0-7.6-3.4-7.6-7.6V210.9L262.8,210.9z"/>
			</defs>
			<clipPath id="SVGID_2_">
				<use xlink:href="#SVGID_31_"  overflow="visible"/>
			</clipPath>
			<g clip-path="url(#SVGID_2_)">
				<rect x="257.5" y="204.9" fill="#1E1E1C" width="4.2" height="4.2"/>
				<rect x="261.6" y="209.1" fill="#1E1E1C" width="4.2" height="4.2"/>
				<rect x="265.8" y="204.9" fill="#1E1E1C" width="4.2" height="4.2"/>
				<rect x="270" y="209.1" fill="#1E1E1C" width="4.2" height="4.2"/>
				<rect x="257.5" y="213.2" fill="#1E1E1C" width="4.2" height="4.2"/>
				<rect x="261.6" y="217.4" fill="#1E1E1C" width="4.2" height="4.2"/>
				<rect x="265.8" y="213.2" fill="#1E1E1C" width="4.2" height="4.2"/>
				<rect x="270" y="217.4" fill="#1E1E1C" width="4.2" height="4.2"/>
				<rect x="274.1" y="204.9" fill="#1E1E1C" width="4.2" height="4.2"/>
				<rect x="278.3" y="209.1" fill="#1E1E1C" width="4.2" height="4.2"/>
				<rect x="274.1" y="213.2" fill="#1E1E1C" width="4.2" height="4.2"/>
				<rect x="278.3" y="217.4" fill="#1E1E1C" width="4.2" height="4.2"/>
			</g>
		</g>
		<g>
			<path fill="#C01724" d="M230.9,222.8c-3.9,0-7.1-3.2-7.1-7.1v-4.8c0-3.9,3.2-7.1,7.1-7.1h2.7c3.9,0,7.1,3.2,7.1,7.1v4.8
				c0,3.9-3.2,7.1-7.1,7.1H230.9z"/>
			<path fill="#AA1920" d="M233.6,204.2c3.7,0,6.6,3,6.6,6.6v4.8c0,3.7-3,6.6-6.6,6.6h-2.7c-3.7,0-6.6-3-6.6-6.6v-4.8
				c0-3.7,3-6.6,6.6-6.6H233.6 M233.6,203.2h-2.7c-4.2,0-7.6,3.4-7.6,7.6v4.8c0,4.2,3.4,7.6,7.6,7.6h2.7c4.2,0,7.6-3.4,7.6-7.6v-4.8
				C241.2,206.6,237.8,203.2,233.6,203.2L233.6,203.2z"/>
		</g>
		<g>
			<path fill="#009548" d="M250.6,222.8c-3.9,0-7.1-3.2-7.1-7.1v-4.8c0-3.9,3.2-7.1,7.1-7.1h2.7c3.9,0,7.1,3.2,7.1,7.1v4.8
				c0,3.9-3.2,7.1-7.1,7.1H250.6z"/>
			<path fill="#006139" d="M253.4,204.2c3.7,0,6.6,3,6.6,6.6v4.8c0,3.7-3,6.6-6.6,6.6h-2.7c-3.7,0-6.6-3-6.6-6.6v-4.8
				c0-3.7,3-6.6,6.6-6.6H253.4 M253.4,203.2h-2.7c-4.2,0-7.6,3.4-7.6,7.6v4.8c0,4.2,3.4,7.6,7.6,7.6h2.7c4.2,0,7.6-3.4,7.6-7.6v-4.8
				C261,206.6,257.6,203.2,253.4,203.2L253.4,203.2z"/>
		</g>
		<g>
			<path fill="#C7C6C5" d="M273.1,204.2c3.7,0,6.6,3,6.6,6.6v4.8c0,3.7-3,6.6-6.6,6.6h-2.7c-3.7,0-6.6-3-6.6-6.6v-4.8
				c0-3.7,3-6.6,6.6-6.6H273.1 M273.1,203.2h-2.7c-4.2,0-7.6,3.4-7.6,7.6v4.8c0,4.2,3.4,7.6,7.6,7.6h2.7c4.2,0,7.6-3.4,7.6-7.6v-4.8
				C280.8,206.6,277.3,203.2,273.1,203.2L273.1,203.2z"/>
		</g>
	</g>
	<g>
		<path fill="#AC1737" d="M254.9,7.2c0-4.2,3.4-7.7,7.6-7.7h5c4.2,0,7.7,3.4,7.7,7.7v5.1c0,4.2-3.4,7.7-7.7,7.7h-5
			c-4.2,0-7.6-3.4-7.6-7.7V7.2L254.9,7.2z"/>
		<g>
			<path fill="#FFFFFF" d="M260.5,6.1c0-0.5,0.4-0.8,0.9-0.8s0.9,0.3,0.9,0.8c0,0.5-0.4,0.8-0.9,0.8S260.5,6.6,260.5,6.1z M260.6,8
				h1.5v6.2h-1.5V8z"/>
			<path fill="#FFFFFF" d="M264.2,13.4c2.2-2.2,3.7-3.6,3.7-4.8c0-0.9-0.5-1.4-1.3-1.4c-0.6,0-1.1,0.4-1.6,0.9l-0.8-0.8
				c0.7-0.8,1.5-1.2,2.6-1.2c1.5,0,2.6,1,2.6,2.5c0,1.4-1.3,2.9-2.9,4.6c0.4,0,1-0.1,1.3-0.1h2v1.2h-5.5V13.4z"/>
		</g>
	</g>
	<g>
		<path fill="#AC1737" d="M280.1,161.8c0-4.2,3.4-7.6,7.6-7.6h2.7c4.2,0,7.6,3.4,7.6,7.6v4.8c0,4.2-3.4,7.6-7.6,7.6h-2.7
			c-4.2,0-7.6-3.4-7.6-7.6V161.8L280.1,161.8z"/>
		<g>
			<path fill="#FFFFFF" d="M286.9,166.3c0.6,0.6,1.4,0.9,2.2,0.9c0.9,0,1.4-0.4,1.4-1.1c0-0.7-0.5-0.9-1.3-1.2l-1.1-0.5
				c-0.8-0.3-1.7-1-1.7-2.2c0-1.3,1.2-2.3,2.8-2.3c1,0,1.9,0.4,2.6,1.1l-0.8,0.9c-0.5-0.4-1.1-0.7-1.8-0.7c-0.8,0-1.3,0.4-1.3,1
				c0,0.6,0.6,0.9,1.3,1.2l1.1,0.5c1,0.4,1.7,1,1.7,2.2c0,1.3-1.1,2.5-3,2.5c-1.1,0-2.2-0.4-3-1.2L286.9,166.3z"/>
		</g>
	</g>
</g>
<g id="textos_y_numeros">
	<g>
		<g>
			<path fill="#7B7C7D" d="M52.6,43.2h1.6v7.8H58v1.4h-5.5V43.2z"/>
			<path fill="#7B7C7D" d="M59.4,45.5H61v4.1c0,1.1,0.3,1.6,1.1,1.6c0.6,0,1-0.3,1.5-1v-4.7h1.6v6.9h-1.3l-0.1-1h0
				c-0.6,0.7-1.3,1.2-2.2,1.2c-1.5,0-2.1-1-2.1-2.8V45.5z"/>
			<path fill="#7B7C7D" d="M67.3,42.5h1.6v6.2h0l2.6-3.2h1.8l-2.4,2.8l2.6,4.1h-1.8l-1.8-3l-1.1,1.2v1.8h-1.6V42.5z"/>
			<path fill="#7B7C7D" d="M77.4,45.4c1.9,0,2.9,1.4,2.9,3.3c0,0.3,0,0.6-0.1,0.8h-4.4c0.1,1.3,0.9,2,2,2c0.6,0,1.1-0.2,1.6-0.5
				l0.5,1c-0.7,0.4-1.5,0.7-2.4,0.7c-1.9,0-3.4-1.3-3.4-3.6C74.2,46.7,75.8,45.4,77.4,45.4z M78.9,48.4c0-1.1-0.5-1.8-1.4-1.8
				c-0.8,0-1.5,0.6-1.7,1.8H78.9z"/>
			<path fill="#7B7C7D" d="M82.2,54c0.7,0,1.2-0.5,1.4-1.2l0.1-0.4L81,45.5h1.7l1.2,3.4c0.2,0.6,0.4,1.3,0.6,1.9h0.1
				c0.2-0.6,0.4-1.3,0.5-1.9l1-3.4h1.6l-2.5,7.2c-0.6,1.6-1.3,2.5-2.8,2.5c-0.4,0-0.6-0.1-0.9-0.1l0.3-1.3C81.8,53.9,82,54,82.2,54z
				"/>
		</g>
	</g>
	<g>
		<g>
			<path fill="#7B7C7D" d="M47.1,57.3h1.6V61h3.7v-3.7h1.6v9.2h-1.6v-4.1h-3.7v4.1h-1.6V57.3z"/>
			<path fill="#7B7C7D" d="M59,59.4c1.9,0,2.9,1.4,2.9,3.3c0,0.3,0,0.6-0.1,0.8h-4.4c0.1,1.3,0.9,2,2,2c0.6,0,1.1-0.2,1.6-0.5l0.5,1
				c-0.7,0.4-1.5,0.7-2.4,0.7c-1.9,0-3.4-1.3-3.4-3.6C55.8,60.8,57.4,59.4,59,59.4z M60.5,62.5c0-1.1-0.5-1.8-1.4-1.8
				c-0.8,0-1.5,0.6-1.7,1.8H60.5z"/>
			<path fill="#7B7C7D" d="M63.2,57.5c0-0.5,0.4-0.9,1-0.9c0.6,0,1,0.4,1,0.9c0,0.5-0.4,0.9-1,0.9C63.7,58.4,63.2,58,63.2,57.5z
				 M63.4,59.6h1.6v6.9h-1.6V59.6z"/>
			<path fill="#7B7C7D" d="M67.7,66.3L67.7,66.3C67.3,66,67,65.7,67,65.1c0-0.5,0.4-1,0.8-1.3v-0.1c-0.5-0.4-0.9-1-0.9-1.8
				c0-1.6,1.3-2.5,2.7-2.5c0.4,0,0.7,0.1,1,0.2h2.5v1.2h-1.3c0.2,0.3,0.4,0.7,0.4,1.2c0,1.5-1.2,2.4-2.6,2.4c-0.3,0-0.6-0.1-0.9-0.2
				c-0.2,0.2-0.3,0.4-0.3,0.7c0,0.4,0.3,0.6,1.1,0.6h1.2c1.7,0,2.5,0.5,2.5,1.7c0,1.4-1.4,2.4-3.7,2.4c-1.7,0-2.9-0.6-2.9-1.8
				C66.7,67.2,67,66.7,67.7,66.3z M69.8,68.6c1.1,0,1.9-0.5,1.9-1.1c0-0.5-0.4-0.7-1.2-0.7h-0.9c-0.4,0-0.7,0-0.9-0.1
				c-0.4,0.3-0.5,0.6-0.5,0.9C68,68.2,68.7,68.6,69.8,68.6z M70.8,61.9c0-0.9-0.5-1.4-1.2-1.4c-0.7,0-1.2,0.5-1.2,1.4
				c0,0.9,0.5,1.4,1.2,1.4C70.3,63.3,70.8,62.8,70.8,61.9z"/>
			<path fill="#7B7C7D" d="M74.5,56.6h1.6v2.6L76,60.5c0.6-0.6,1.3-1,2.2-1c1.5,0,2.1,1,2.1,2.8v4.3h-1.6v-4.1
				c0-1.1-0.3-1.6-1.1-1.6c-0.6,0-1,0.3-1.6,0.9v4.8h-1.6V56.6z"/>
			<path fill="#7B7C7D" d="M82.6,60.9h-1v-1.2l1.1-0.1l0.2-1.9h1.4v1.9H86v1.3h-1.8v3.3c0,0.8,0.3,1.2,1,1.2c0.2,0,0.5-0.1,0.7-0.2
				l0.3,1.2c-0.4,0.1-0.9,0.3-1.4,0.3c-1.6,0-2.2-1-2.2-2.5V60.9z"/>
			<path fill="#7B7C7D" d="M87.5,64.7c0.6,0.5,1.2,0.8,1.9,0.8c0.7,0,1.1-0.4,1.1-0.8c0-0.6-0.7-0.8-1.5-1.1c-0.9-0.3-1.9-0.9-1.9-2
				c0-1.2,1-2.1,2.5-2.1c1,0,1.7,0.4,2.3,0.8l-0.7,1c-0.5-0.4-1-0.6-1.5-0.6c-0.7,0-1,0.3-1,0.8c0,0.5,0.7,0.8,1.4,1
				c0.9,0.4,2,0.8,2,2.1c0,1.2-0.9,2.1-2.7,2.1c-0.9,0-1.9-0.4-2.6-1L87.5,64.7z"/>
		</g>
	</g>
	<g>
		<g>
			<path fill="#7B7C7D" d="M185.1,53.3L185.1,53.3c-0.7-0.6-1.2-1.2-1.2-2.2c0-1.5,1.2-2.4,2.7-2.4c1.6,0,2.6,1,2.6,2.4
				c0,0.9-0.6,1.6-1.2,2.1v0.1c0.8,0.5,1.6,1.1,1.6,2.3c0,1.4-1.2,2.4-3,2.4c-1.8,0-3-1-3-2.5C183.5,54.5,184.3,53.8,185.1,53.3z
				 M186.6,57c0.9,0,1.5-0.5,1.5-1.3c0-1-0.9-1.3-2.2-1.8c-0.6,0.4-1,1-1,1.7C184.9,56.4,185.7,57,186.6,57z M187.9,51.3
				c0-0.8-0.5-1.4-1.3-1.4c-0.7,0-1.2,0.5-1.2,1.2c0,0.9,0.8,1.3,1.8,1.7C187.6,52.4,187.9,51.9,187.9,51.3z"/>
		</g>
	</g>
	<g>
		<g>
			<path fill="#7B7C7D" d="M100.5,57.7c0.3,0.4,0.9,0.7,1.4,0.7c1.1,0,2-0.8,2.1-3.3c-0.5,0.6-1.3,1-2,1c-1.5,0-2.6-0.9-2.6-2.8
				c0-1.8,1.3-2.9,2.8-2.9c1.8,0,3.2,1.4,3.2,4.4c0,3.5-1.7,4.9-3.5,4.9c-1.1,0-1.9-0.5-2.4-1L100.5,57.7z M104.1,53.9
				c-0.2-1.6-0.8-2.3-1.7-2.3c-0.7,0-1.3,0.6-1.3,1.7c0,1.1,0.5,1.6,1.4,1.6C103,55,103.6,54.7,104.1,53.9z"/>
		</g>
	</g>
	<g>
		<g>
			<path fill="#7B7C7D" d="M232.1,23.6h-4.2v-1.4h6v1c-2.1,2.6-2.5,4.5-2.6,8h-1.7C229.8,28,230.4,26,232.1,23.6z"/>
		</g>
	</g>
	<g>
		<g>
			<path fill="#7B7C7D" d="M318.4,34.1c0.7,0.6,1.6,1,2.4,1c1,0,1.6-0.5,1.6-1.2c0-0.8-0.6-1-1.4-1.4l-1.3-0.6
				c-0.9-0.4-1.9-1.1-1.9-2.5c0-1.5,1.3-2.6,3.1-2.6c1.1,0,2.1,0.5,2.9,1.2l-0.8,1c-0.6-0.5-1.2-0.8-2-0.8c-0.9,0-1.4,0.4-1.4,1.1
				c0,0.7,0.7,1,1.5,1.3l1.2,0.5c1.1,0.5,1.9,1.2,1.9,2.5c0,1.5-1.2,2.7-3.3,2.7c-1.2,0-2.4-0.5-3.3-1.4L318.4,34.1z"/>
			<path fill="#7B7C7D" d="M325.4,27.3c0-0.5,0.4-0.9,1-0.9s1,0.4,1,0.9c0,0.5-0.4,0.9-1,0.9S325.4,27.9,325.4,27.3z M325.6,29.4
				h1.6v6.9h-1.6V29.4z"/>
			<path fill="#7B7C7D" d="M329.3,26.4h1.6V29l0,1.2c0.6-0.5,1.3-0.9,2-0.9c1.7,0,2.7,1.4,2.7,3.5c0,2.4-1.4,3.8-3,3.8
				c-0.6,0-1.3-0.3-1.9-0.9h0l-0.1,0.7h-1.3V26.4z M332.3,35.2c0.9,0,1.6-0.8,1.6-2.4c0-1.4-0.5-2.2-1.5-2.2c-0.5,0-1,0.3-1.5,0.8
				v3.2C331.4,35,331.9,35.2,332.3,35.2z"/>
			<path fill="#7B7C7D" d="M340,29.3c1.9,0,2.9,1.4,2.9,3.3c0,0.3,0,0.6-0.1,0.8h-4.4c0.1,1.3,0.9,2,2,2c0.6,0,1.1-0.2,1.6-0.5
				l0.6,1c-0.7,0.4-1.5,0.7-2.4,0.7c-1.9,0-3.4-1.3-3.4-3.6C336.8,30.7,338.4,29.3,340,29.3z M341.5,32.3c0-1.1-0.5-1.8-1.4-1.8
				c-0.8,0-1.5,0.6-1.7,1.8H341.5z"/>
			<path fill="#7B7C7D" d="M344.4,29.4h1.3l0.1,1.2h0.1c0.5-0.9,1.2-1.4,2-1.4c0.4,0,0.6,0,0.8,0.1l-0.3,1.4
				c-0.2-0.1-0.4-0.1-0.7-0.1c-0.6,0-1.2,0.4-1.6,1.4v4.2h-1.6V29.4z"/>
			<path fill="#7B7C7D" d="M349.5,27.3c0-0.5,0.4-0.9,1-0.9s1,0.4,1,0.9c0,0.5-0.4,0.9-1,0.9S349.5,27.9,349.5,27.3z M349.7,29.4
				h1.6v6.9h-1.6V29.4z"/>
			<path fill="#7B7C7D" d="M357.2,31.9c0-0.7-0.3-1.4-1.3-1.4c-0.7,0-1.3,0.3-1.9,0.7l-0.6-1.1c0.8-0.5,1.7-0.9,2.8-0.9
				c1.7,0,2.6,1.1,2.6,3v4.1h-1.3l-0.1-0.8h0c-0.6,0.5-1.3,0.9-2.1,0.9c-1.2,0-2.1-0.8-2.1-2C353.1,33,354.3,32.3,357.2,31.9z
				 M355.7,35.3c0.6,0,1-0.3,1.5-0.8V33c-1.9,0.2-2.5,0.7-2.5,1.4C354.7,35,355.1,35.3,355.7,35.3z"/>
		</g>
	</g>
	<g>
		<g>
			<path fill="#7B7C7D" d="M259,59.3c0.5,0.5,1.2,1,2.1,1c1,0,1.7-0.6,1.7-1.7c0-1.1-0.7-1.7-1.7-1.7c-0.6,0-0.9,0.2-1.4,0.5
				l-0.8-0.5l0.3-4.4h4.8v1.4h-3.4l-0.2,2.2c0.4-0.2,0.7-0.3,1.2-0.3c1.5,0,2.8,0.9,2.8,2.8c0,2-1.5,3.1-3.2,3.1
				c-1.5,0-2.4-0.6-3.1-1.2L259,59.3z"/>
		</g>
	</g>
	<g>
		<g>
			<path fill="#7B7C7D" d="M311.3,28.6c-0.3-0.4-0.9-0.7-1.4-0.7c-1.1,0-2,0.8-2.1,3.3c0.5-0.7,1.3-1.1,1.9-1.1
				c1.6,0,2.6,0.9,2.6,2.8c0,1.8-1.3,3-2.8,3c-1.8,0-3.3-1.4-3.3-4.4c0-3.5,1.7-4.9,3.5-4.9c1.1,0,1.9,0.5,2.4,1L311.3,28.6z
				 M310.8,33c0-1.1-0.5-1.6-1.4-1.6c-0.5,0-1.1,0.3-1.6,1c0.2,1.6,0.8,2.3,1.7,2.3C310.2,34.7,310.8,34.1,310.8,33z"/>
		</g>
	</g>
	<g>
		<g>
			<path fill="#7B7C7D" d="M245.6,98h-1.1v2.3h-1.5V98h-4v-1.1l3.6-5.6h1.9v5.4h1.1V98z M242.9,96.8v-2c0-0.5,0-1.3,0.1-1.9H243
				c-0.2,0.5-0.5,0.9-0.7,1.4l-1.6,2.5H242.9z"/>
		</g>
	</g>
	<g>
		<g>
			<path fill="#7B7C7D" d="M430.7,171.8c2.5-2.4,4.1-4,4.1-5.4c0-0.9-0.5-1.6-1.5-1.6c-0.7,0-1.3,0.5-1.8,1l-0.9-0.9
				c0.8-0.9,1.6-1.4,2.9-1.4c1.7,0,2.8,1.1,2.8,2.8c0,1.6-1.5,3.2-3.3,5.1c0.5,0,1.1-0.1,1.5-0.1h2.2v1.4h-6.1V171.8z"/>
		</g>
	</g>
	<g>
		<g>
			<path fill="#7B7C7D" d="M331.8,136.6h2v-5.9h-1.7v-1c0.9-0.2,1.5-0.4,2.1-0.7h1.2v7.6h1.8v1.3h-5.4V136.6z"/>
		</g>
	</g>
	<g>
		<g>
			<path fill="#7B7C7D" d="M328.1,61.5c0.5,0.6,1.2,1,2.1,1c1,0,1.7-0.5,1.7-1.4c0-0.9-0.6-1.5-2.6-1.5v-1.2c1.8,0,2.3-0.6,2.3-1.4
				c0-0.7-0.5-1.2-1.3-1.2c-0.7,0-1.3,0.3-1.8,0.8l-0.8-1c0.8-0.7,1.6-1.1,2.7-1.1c1.7,0,2.9,0.8,2.9,2.4c0,1-0.6,1.7-1.6,2.1v0.1
				c1.1,0.3,1.9,1,1.9,2.2c0,1.6-1.4,2.6-3.1,2.6c-1.5,0-2.4-0.6-3-1.3L328.1,61.5z"/>
		</g>
	</g>
	<g>
		<g>
			<path fill="#7B7C7D" d="M402.6,187.5c0.7,0.6,1.6,1,2.4,1c1,0,1.6-0.5,1.6-1.2c0-0.8-0.6-1-1.4-1.4l-1.3-0.6
				c-0.9-0.4-1.9-1.1-1.9-2.5c0-1.5,1.3-2.6,3.1-2.6c1.1,0,2.1,0.5,2.9,1.2l-0.8,1c-0.6-0.5-1.2-0.8-2-0.8c-0.9,0-1.4,0.4-1.4,1.1
				c0,0.7,0.7,1,1.5,1.3l1.2,0.5c1.1,0.5,1.9,1.2,1.9,2.5c0,1.5-1.2,2.7-3.3,2.7c-1.2,0-2.4-0.5-3.3-1.4L402.6,187.5z"/>
			<path fill="#7B7C7D" d="M412.7,182.7c1.7,0,3.3,1.3,3.3,3.6c0,2.3-1.6,3.6-3.3,3.6c-1.7,0-3.3-1.3-3.3-3.6
				C409.4,184,410.9,182.7,412.7,182.7z M412.7,188.6c1,0,1.6-0.9,1.6-2.3c0-1.4-0.6-2.3-1.6-2.3c-1,0-1.6,0.9-1.6,2.3
				C411,187.7,411.6,188.6,412.7,188.6z"/>
			<path fill="#7B7C7D" d="M417.5,182.9h1.6v4.1c0,1.1,0.3,1.6,1.1,1.6c0.6,0,1-0.3,1.5-1v-4.7h1.6v6.9H422l-0.1-1h0
				c-0.6,0.7-1.3,1.2-2.2,1.2c-1.5,0-2.1-1-2.1-2.8V182.9z"/>
			<path fill="#7B7C7D" d="M425.7,184.1h-1v-1.2l1.1-0.1l0.2-1.9h1.4v1.9h1.8v1.3h-1.8v3.3c0,0.8,0.3,1.2,1,1.2
				c0.2,0,0.5-0.1,0.7-0.2l0.3,1.2c-0.4,0.1-0.9,0.3-1.4,0.3c-1.6,0-2.2-1-2.2-2.5V184.1z"/>
			<path fill="#7B7C7D" d="M430.5,179.8h1.6v2.6l-0.1,1.3c0.6-0.5,1.3-1,2.2-1c1.5,0,2.1,1,2.1,2.8v4.3h-1.6v-4.1
				c0-1.1-0.3-1.6-1.1-1.6c-0.6,0-1,0.3-1.6,0.9v4.8h-1.6V179.8z"/>
			<path fill="#7B7C7D" d="M441.1,182.7c1.9,0,2.9,1.4,2.9,3.3c0,0.3,0,0.6-0.1,0.8h-4.4c0.1,1.3,0.9,2,2,2c0.6,0,1.1-0.2,1.6-0.5
				l0.6,1c-0.7,0.4-1.5,0.7-2.4,0.7c-1.9,0-3.4-1.3-3.4-3.6C437.9,184.1,439.5,182.7,441.1,182.7z M442.6,185.7
				c0-1.1-0.5-1.8-1.4-1.8c-0.8,0-1.5,0.6-1.7,1.8H442.6z"/>
			<path fill="#7B7C7D" d="M445.5,182.9h1.3l0.1,1.2h0.1c0.5-0.9,1.2-1.4,2-1.4c0.4,0,0.6,0,0.8,0.1l-0.3,1.4
				c-0.2-0.1-0.4-0.1-0.7-0.1c-0.6,0-1.2,0.4-1.6,1.4v4.2h-1.6V182.9z"/>
			<path fill="#7B7C7D" d="M450.8,182.9h1.3l0.1,0.9h0.1c0.6-0.6,1.3-1.1,2.3-1.1c1.5,0,2.1,1,2.1,2.8v4.3h-1.6v-4.1
				c0-1.1-0.3-1.6-1.1-1.6c-0.6,0-1,0.3-1.6,0.9v4.8h-1.6V182.9z"/>
		</g>
	</g>
	<g>
		<g>
			<path fill="#7B7C7D" d="M414.6,193.3h1.6v7.8h3.8v1.4h-5.5V193.3z"/>
			<path fill="#7B7C7D" d="M424.4,195.5c1.7,0,3.3,1.3,3.3,3.6c0,2.3-1.6,3.6-3.3,3.6c-1.7,0-3.3-1.3-3.3-3.6
				C421.1,196.8,422.7,195.5,424.4,195.5z M424.4,201.4c1,0,1.6-0.9,1.6-2.3c0-1.4-0.6-2.3-1.6-2.3c-1,0-1.6,0.9-1.6,2.3
				C422.8,200.5,423.4,201.4,424.4,201.4z"/>
			<path fill="#7B7C7D" d="M432.1,195.5c1.7,0,3.3,1.3,3.3,3.6c0,2.3-1.6,3.6-3.3,3.6c-1.7,0-3.3-1.3-3.3-3.6
				C428.8,196.8,430.4,195.5,432.1,195.5z M432.1,201.4c1,0,1.6-0.9,1.6-2.3c0-1.4-0.6-2.3-1.6-2.3c-1,0-1.6,0.9-1.6,2.3
				C430.5,200.5,431.1,201.4,432.1,201.4z"/>
			<path fill="#7B7C7D" d="M438.7,203.1v2.2H437v-9.7h1.3l0.1,0.7h0.1c0.6-0.5,1.3-0.9,2.1-0.9c1.7,0,2.7,1.4,2.7,3.5
				c0,2.4-1.4,3.7-3,3.7c-0.6,0-1.2-0.3-1.8-0.8L438.7,203.1z M440.1,201.4c0.9,0,1.6-0.8,1.6-2.4c0-1.4-0.5-2.2-1.5-2.2
				c-0.5,0-1,0.3-1.5,0.8v3.2C439.2,201.2,439.7,201.4,440.1,201.4z"/>
		</g>
	</g>
	<g>
		<g>
			<path fill="#7B7C7D" d="M358.5,145h2.5c2.8,0,4.5,1.5,4.5,4.6c0,3.1-1.7,4.7-4.4,4.7h-2.5V145z M360.9,152.9
				c1.9,0,2.9-1.1,2.9-3.3c0-2.3-1.1-3.2-2.9-3.2h-0.7v6.6H360.9z"/>
			<path fill="#7B7C7D" d="M370,147.1c1.7,0,3.3,1.3,3.3,3.6c0,2.3-1.6,3.6-3.3,3.6c-1.7,0-3.3-1.3-3.3-3.6
				C366.8,148.5,368.3,147.1,370,147.1z M370,153.1c1,0,1.6-0.9,1.6-2.3c0-1.4-0.6-2.3-1.6-2.3c-1,0-1.6,0.9-1.6,2.3
				C368.4,152.2,369,153.1,370,153.1z"/>
			<path fill="#7B7C7D" d="M377.8,147.1c1.7,0,3.3,1.3,3.3,3.6c0,2.3-1.6,3.6-3.3,3.6c-1.7,0-3.3-1.3-3.3-3.6
				C374.5,148.5,376.1,147.1,377.8,147.1z M377.8,153.1c1,0,1.6-0.9,1.6-2.3c0-1.4-0.6-2.3-1.6-2.3c-1,0-1.6,0.9-1.6,2.3
				C376.2,152.2,376.8,153.1,377.8,153.1z"/>
			<path fill="#7B7C7D" d="M382.7,144.3h1.6v2.6l-0.1,1.3c0.6-0.6,1.3-1,2.2-1c1.5,0,2.1,1,2.1,2.8v4.3H387v-4.1
				c0-1.1-0.3-1.6-1.1-1.6c-0.6,0-1,0.3-1.6,0.9v4.8h-1.6V144.3z"/>
			<path fill="#7B7C7D" d="M394.4,149.8c0-0.7-0.3-1.4-1.3-1.4c-0.7,0-1.3,0.3-1.9,0.7l-0.6-1.1c0.8-0.5,1.7-0.9,2.8-0.9
				c1.7,0,2.6,1.1,2.6,3v4.1h-1.3l-0.1-0.8h0c-0.6,0.5-1.3,0.9-2.1,0.9c-1.2,0-2.1-0.8-2.1-2C390.3,150.9,391.5,150.1,394.4,149.8z
				 M392.8,153.1c0.6,0,1-0.3,1.5-0.8v-1.6c-1.9,0.2-2.5,0.7-2.5,1.4C391.9,152.9,392.3,153.1,392.8,153.1z"/>
			<path fill="#7B7C7D" d="M398,147.3h1.3l0.1,0.9h0.1c0.6-0.6,1.3-1.1,2.3-1.1c1.5,0,2.1,1,2.1,2.8v4.3h-1.6v-4.1
				c0-1.1-0.3-1.6-1.1-1.6c-0.6,0-1,0.3-1.6,0.9v4.8H398V147.3z"/>
		</g>
	</g>
	<g>
		<g>
			<path fill="#7B7C7D" d="M246.2,105h1.6v3.7h3.7V105h1.6v9.2h-1.6v-4.1h-3.7v4.1h-1.6V105z"/>
			<path fill="#7B7C7D" d="M258.2,107.2c1.7,0,3.3,1.3,3.3,3.6c0,2.3-1.6,3.6-3.3,3.6c-1.7,0-3.3-1.3-3.3-3.6
				C254.9,108.5,256.5,107.2,258.2,107.2z M258.2,113.1c1,0,1.6-0.9,1.6-2.3c0-1.4-0.6-2.3-1.6-2.3c-1,0-1.6,0.9-1.6,2.3
				C256.6,112.2,257.2,113.1,258.2,113.1z"/>
			<path fill="#7B7C7D" d="M263.1,107.3h1.3l0.1,0.9h0.1c0.6-0.6,1.3-1.1,2.3-1.1c1.5,0,2.1,1,2.1,2.8v4.3h-1.6v-4.1
				c0-1.1-0.3-1.6-1.1-1.6c-0.6,0-1,0.3-1.6,0.9v4.8h-1.6V107.3z"/>
			<path fill="#7B7C7D" d="M273.5,107.2c0.8,0,1.3,0.3,1.8,0.8l-0.1-1.1v-2.5h1.6v10h-1.3l-0.1-0.7h-0.1c-0.5,0.5-1.2,0.9-2,0.9
				c-1.7,0-2.9-1.3-2.9-3.6C270.6,108.5,272,107.2,273.5,107.2z M273.8,113.1c0.5,0,1-0.2,1.5-0.8v-3.2c-0.5-0.4-0.9-0.6-1.4-0.6
				c-0.9,0-1.6,0.8-1.6,2.3C272.3,112.3,272.8,113.1,273.8,113.1z"/>
			<path fill="#7B7C7D" d="M282.7,109.8c0-0.7-0.3-1.4-1.3-1.4c-0.7,0-1.3,0.3-1.9,0.7l-0.6-1.1c0.8-0.5,1.7-0.9,2.8-0.9
				c1.7,0,2.6,1.1,2.6,3v4.1H283l-0.1-0.8h0c-0.6,0.5-1.3,0.9-2.1,0.9c-1.2,0-2.1-0.8-2.1-2C278.7,110.9,279.9,110.1,282.7,109.8z
				 M281.2,113.2c0.6,0,1-0.3,1.5-0.8v-1.6c-1.9,0.2-2.5,0.7-2.5,1.4C280.2,112.9,280.7,113.2,281.2,113.2z"/>
			<path fill="#7B7C7D" d="M249.9,121.8c1.1,0,2,0.6,2.6,1.2l-0.9,1c-0.5-0.5-1-0.8-1.7-0.8c-1.5,0-2.6,1.3-2.6,3.3
				c0,2.1,1,3.4,2.5,3.4c0.8,0,1.4-0.3,1.9-0.9l0.9,1c-0.7,0.9-1.7,1.3-2.9,1.3c-2.3,0-4.2-1.7-4.2-4.8
				C245.7,123.6,247.6,121.8,249.9,121.8z"/>
			<path fill="#7B7C7D" d="M257,124.1c1.7,0,3.3,1.3,3.3,3.6c0,2.3-1.6,3.6-3.3,3.6c-1.7,0-3.3-1.3-3.3-3.6
				C253.7,125.4,255.2,124.1,257,124.1z M257,130c1,0,1.6-0.9,1.6-2.3c0-1.4-0.6-2.3-1.6-2.3c-1,0-1.6,0.9-1.6,2.3
				C255.3,129.1,256,130,257,130z"/>
			<path fill="#7B7C7D" d="M261.9,124.3h1.3l0.1,1.2h0.1c0.5-0.9,1.2-1.4,2-1.4c0.4,0,0.6,0,0.8,0.1l-0.3,1.4
				c-0.2-0.1-0.4-0.1-0.7-0.1c-0.6,0-1.2,0.4-1.6,1.4v4.2h-1.6V124.3z"/>
			<path fill="#7B7C7D" d="M267.1,124.3h1.3l0.1,0.9h0.1c0.6-0.6,1.3-1.1,2.3-1.1c1.5,0,2.1,1,2.1,2.8v4.3h-1.6v-4.1
				c0-1.1-0.3-1.6-1.1-1.6c-0.6,0-1,0.3-1.6,0.9v4.8h-1.6V124.3z"/>
			<path fill="#7B7C7D" d="M277.8,124.1c1.9,0,2.9,1.4,2.9,3.3c0,0.3,0,0.6-0.1,0.8h-4.4c0.1,1.3,0.9,2,2,2c0.6,0,1.1-0.2,1.6-0.5
				l0.5,1c-0.7,0.4-1.5,0.7-2.4,0.7c-1.9,0-3.4-1.3-3.4-3.6C274.6,125.5,276.2,124.1,277.8,124.1z M279.2,127.1
				c0-1.1-0.5-1.8-1.4-1.8c-0.8,0-1.5,0.6-1.7,1.8H279.2z"/>
			<path fill="#7B7C7D" d="M282.2,124.3h1.3l0.1,1.2h0.1c0.5-0.9,1.2-1.4,2-1.4c0.4,0,0.6,0,0.8,0.1l-0.3,1.4
				c-0.2-0.1-0.4-0.1-0.7-0.1c-0.6,0-1.2,0.4-1.6,1.4v4.2h-1.6V124.3z"/>
		</g>
	</g>
	<g>
		<g>
			<path fill="#7B7C7D" d="M359.2,159.6c1.1,0,2,0.6,2.6,1.2l-0.9,1c-0.5-0.5-1-0.8-1.7-0.8c-1.5,0-2.6,1.3-2.6,3.3
				c0,2.1,1,3.4,2.5,3.4c0.8,0,1.4-0.3,1.9-0.9l0.9,1c-0.7,0.9-1.7,1.3-2.9,1.3c-2.3,0-4.2-1.7-4.2-4.8
				C355,161.4,356.9,159.6,359.2,159.6z"/>
			<path fill="#7B7C7D" d="M366.2,161.9c1.7,0,3.3,1.3,3.3,3.6c0,2.3-1.6,3.6-3.3,3.6c-1.7,0-3.3-1.3-3.3-3.6
				C363,163.3,364.5,161.9,366.2,161.9z M366.2,167.9c1,0,1.6-0.9,1.6-2.3c0-1.4-0.6-2.3-1.6-2.3c-1,0-1.6,0.9-1.6,2.3
				C364.6,167,365.2,167.9,366.2,167.9z"/>
			<path fill="#7B7C7D" d="M371.2,162.1h1.3l0.1,1.2h0.1c0.5-0.9,1.2-1.4,2-1.4c0.4,0,0.6,0,0.8,0.1l-0.3,1.4
				c-0.2-0.1-0.4-0.1-0.7-0.1c-0.6,0-1.2,0.4-1.6,1.4v4.2h-1.6V162.1z"/>
			<path fill="#7B7C7D" d="M376.4,162.1h1.3l0.1,0.9h0.1c0.6-0.6,1.3-1.1,2.3-1.1c1.5,0,2.1,1,2.1,2.8v4.3h-1.6v-4.1
				c0-1.1-0.3-1.6-1.1-1.6c-0.6,0-1,0.3-1.6,0.9v4.8h-1.6V162.1z"/>
			<path fill="#7B7C7D" d="M387.1,161.9c1.9,0,2.9,1.4,2.9,3.3c0,0.3,0,0.6-0.1,0.8h-4.4c0.1,1.3,0.9,2,2,2c0.6,0,1.1-0.2,1.6-0.5
				l0.5,1c-0.7,0.4-1.5,0.7-2.4,0.7c-1.9,0-3.4-1.3-3.4-3.6C383.9,163.3,385.4,161.9,387.1,161.9z M388.5,165c0-1.1-0.5-1.8-1.4-1.8
				c-0.8,0-1.5,0.6-1.7,1.8H388.5z"/>
			<path fill="#7B7C7D" d="M391.5,162.1h1.3l0.1,1.2h0.1c0.5-0.9,1.2-1.4,2-1.4c0.4,0,0.6,0,0.8,0.1l-0.3,1.4
				c-0.2-0.1-0.4-0.1-0.7-0.1c-0.6,0-1.2,0.4-1.6,1.4v4.2h-1.6V162.1z"/>
		</g>
	</g>
	<g>
		<g>
			<path fill="#7B7C7D" d="M121.6,149.8h2v-5.9H122v-1c0.9-0.2,1.5-0.4,2.1-0.7h1.2v7.7h1.8v1.3h-5.4V149.8z"/>
			<path fill="#7B7C7D" d="M128.4,146.6c0-3,1.2-4.6,3-4.6s3,1.6,3,4.6c0,3-1.2,4.7-3,4.7S128.4,149.6,128.4,146.6z M132.9,146.6
				c0-2.5-0.6-3.3-1.5-3.3c-0.9,0-1.5,0.8-1.5,3.3c0,2.5,0.6,3.4,1.5,3.4C132.3,150,132.9,149.1,132.9,146.6z"/>
		</g>
	</g>
	<g>
		<g>
			<path fill="#7B7C7D" d="M54.3,131h2v-5.9h-1.7v-1c0.9-0.2,1.5-0.4,2.1-0.7h1.2v7.6h1.8v1.3h-5.4V131z"/>
			<path fill="#7B7C7D" d="M61.5,131h2v-5.9h-1.7v-1c0.9-0.2,1.5-0.4,2.1-0.7h1.2v7.6h1.8v1.3h-5.4V131z"/>
		</g>
	</g>
	<g>
		<g>
			<path fill="#7B7C7D" d="M107.2,245.7h2v-5.9h-1.7v-1c0.9-0.2,1.5-0.4,2.1-0.7h1.2v7.7h1.8v1.3h-5.4V245.7z"/>
			<path fill="#7B7C7D" d="M113.9,246.1c2.5-2.4,4.1-4,4.1-5.4c0-0.9-0.5-1.6-1.5-1.6c-0.7,0-1.3,0.5-1.8,1l-0.9-0.9
				c0.8-0.9,1.6-1.4,2.9-1.4c1.7,0,2.8,1.1,2.8,2.8c0,1.6-1.5,3.2-3.3,5.1c0.5,0,1.1-0.1,1.5-0.1h2.2v1.4h-6.1V246.1z"/>
		</g>
	</g>
	<g>
		<g>
			<path fill="#7B7C7D" d="M338,61.3c0.7,0.6,1.6,1,2.4,1c1,0,1.6-0.5,1.6-1.2c0-0.8-0.6-1-1.4-1.4l-1.3-0.6
				c-0.9-0.4-1.9-1.1-1.9-2.5c0-1.5,1.3-2.6,3.1-2.6c1.1,0,2.1,0.5,2.9,1.2l-0.8,1c-0.6-0.5-1.2-0.8-2-0.8c-0.9,0-1.4,0.4-1.4,1.1
				c0,0.7,0.7,1,1.5,1.3l1.2,0.5c1.1,0.5,1.9,1.2,1.9,2.5c0,1.5-1.2,2.7-3.3,2.7c-1.2,0-2.4-0.5-3.3-1.4L338,61.3z"/>
			<path fill="#7B7C7D" d="M345.4,58h-1v-1.2l1.1-0.1l0.2-1.9h1.4v1.9h1.8V58H347v3.3c0,0.8,0.3,1.2,1,1.2c0.2,0,0.5-0.1,0.7-0.2
				l0.3,1.2c-0.4,0.1-0.9,0.3-1.4,0.3c-1.6,0-2.2-1-2.2-2.5V58z"/>
			<path fill="#7B7C7D" d="M353.1,56.5c1.7,0,3.3,1.3,3.3,3.6c0,2.3-1.6,3.6-3.3,3.6c-1.7,0-3.3-1.3-3.3-3.6
				C349.8,57.8,351.4,56.5,353.1,56.5z M353.1,62.4c1,0,1.6-0.9,1.6-2.3c0-1.4-0.6-2.3-1.6-2.3c-1,0-1.6,0.9-1.6,2.3
				C351.5,61.5,352.1,62.4,353.1,62.4z"/>
			<path fill="#7B7C7D" d="M358,56.7h1.3l0.1,0.9h0.1c0.6-0.6,1.3-1.1,2.3-1.1c1.5,0,2.1,1,2.1,2.8v4.3h-1.6v-4.1
				c0-1.1-0.3-1.6-1.1-1.6c-0.6,0-1,0.3-1.6,0.9v4.8H358V56.7z"/>
			<path fill="#7B7C7D" d="M368.6,56.5c1.9,0,2.9,1.4,2.9,3.3c0,0.3,0,0.6-0.1,0.8H367c0.1,1.3,0.9,2,2,2c0.6,0,1.1-0.2,1.6-0.5
				l0.5,1c-0.7,0.4-1.5,0.7-2.4,0.7c-1.9,0-3.4-1.3-3.4-3.6C365.5,57.9,367,56.5,368.6,56.5z M370.1,59.5c0-1.1-0.5-1.8-1.4-1.8
				c-0.8,0-1.5,0.6-1.7,1.8H370.1z"/>
			<path fill="#7B7C7D" d="M373.1,56.7h1.3l0.1,1.2h0.1c0.5-0.9,1.2-1.4,2-1.4c0.4,0,0.6,0,0.8,0.1l-0.3,1.4
				c-0.2-0.1-0.4-0.1-0.7-0.1c-0.6,0-1.2,0.4-1.6,1.4v4.2h-1.6V56.7z"/>
			<path fill="#7B7C7D" d="M385.1,54.2c1.1,0,2,0.6,2.6,1.2l-0.9,1c-0.5-0.5-1-0.8-1.7-0.8c-1.5,0-2.6,1.3-2.6,3.3
				c0,2.1,1,3.4,2.5,3.4c0.8,0,1.4-0.3,1.9-0.9l0.9,1c-0.7,0.9-1.7,1.3-2.9,1.3c-2.3,0-4.2-1.7-4.2-4.8
				C380.8,56,382.7,54.2,385.1,54.2z"/>
			<path fill="#7B7C7D" d="M392.1,56.5c1.7,0,3.3,1.3,3.3,3.6c0,2.3-1.6,3.6-3.3,3.6c-1.7,0-3.3-1.3-3.3-3.6
				C388.8,57.8,390.4,56.5,392.1,56.5z M392.1,62.4c1,0,1.6-0.9,1.6-2.3c0-1.4-0.6-2.3-1.6-2.3c-1,0-1.6,0.9-1.6,2.3
				C390.5,61.5,391.1,62.4,392.1,62.4z"/>
			<path fill="#7B7C7D" d="M397,56.7h1.3l0.1,1.2h0.1c0.5-0.9,1.2-1.4,2-1.4c0.4,0,0.6,0,0.8,0.1l-0.3,1.4c-0.2-0.1-0.4-0.1-0.7-0.1
				c-0.6,0-1.2,0.4-1.6,1.4v4.2H397V56.7z"/>
			<path fill="#7B7C7D" d="M402.3,56.7h1.3l0.1,0.9h0.1c0.6-0.6,1.3-1.1,2.3-1.1c1.5,0,2.1,1,2.1,2.8v4.3h-1.6v-4.1
				c0-1.1-0.3-1.6-1.1-1.6c-0.6,0-1,0.3-1.6,0.9v4.8h-1.6V56.7z"/>
			<path fill="#7B7C7D" d="M413,56.5c1.9,0,2.9,1.4,2.9,3.3c0,0.3,0,0.6-0.1,0.8h-4.4c0.1,1.3,0.9,2,2,2c0.6,0,1.1-0.2,1.6-0.5
				l0.5,1c-0.7,0.4-1.5,0.7-2.4,0.7c-1.9,0-3.4-1.3-3.4-3.6C409.8,57.9,411.3,56.5,413,56.5z M414.4,59.5c0-1.1-0.5-1.8-1.4-1.8
				c-0.8,0-1.5,0.6-1.7,1.8H414.4z"/>
			<path fill="#7B7C7D" d="M417.4,56.7h1.3l0.1,1.2h0.1c0.5-0.9,1.2-1.4,2-1.4c0.4,0,0.6,0,0.8,0.1l-0.3,1.4
				c-0.2-0.1-0.4-0.1-0.7-0.1c-0.6,0-1.2,0.4-1.6,1.4v4.2h-1.6V56.7z"/>
		</g>
	</g>
	<g>
		<g>
			<path fill="#7B7C7D" d="M122.6,199.1c1.1-0.6,2.2-0.6,3-0.4l-0.3,1.3c-0.6-0.2-1.2-0.2-2,0.3c-1.4,0.8-1.7,2.5-0.7,4.3
				c1.1,1.8,2.5,2.4,4.1,1.5c0.4-0.3,0.8-0.6,0.9-1l-1-1.7l-1.5,0.9l-0.7-1.2l2.8-1.6l2,3.5c-0.3,0.8-0.9,1.8-2,2.4
				c-2.1,1.2-4.6,0.7-6.1-2C119.7,202.8,120.5,200.3,122.6,199.1z"/>
			<path fill="#7B7C7D" d="M132.5,199.1c-0.4-0.6-1-1-1.8-0.5c-0.6,0.3-1,0.9-1.3,1.6l-1.1-0.6c0.4-0.8,1-1.7,2-2.2
				c1.5-0.9,2.8-0.4,3.7,1.3l2.1,3.6l-1.1,0.7l-0.5-0.6l0,0c-0.3,0.8-0.7,1.5-1.4,1.9c-1.1,0.6-2.2,0.3-2.8-0.7
				C129.5,202.1,130.2,200.8,132.5,199.1z M132.9,202.7c0.5-0.3,0.7-0.7,0.9-1.4L133,200c-1.5,1.1-1.8,1.9-1.4,2.5
				C131.9,203,132.4,203,132.9,202.7z"/>
			<path fill="#7B7C7D" d="M134.4,195.1l1.2-0.7l0.7,1l0,0c0-1,0.4-1.8,1-2.2c0.3-0.2,0.5-0.3,0.8-0.3l0.5,1.4
				c-0.2,0.1-0.4,0.1-0.7,0.3c-0.5,0.3-0.9,0.9-0.7,2.1l2.1,3.7l-1.4,0.8L134.4,195.1z"/>
			<path fill="#7B7C7D" d="M141,191.1c0.7-0.4,1.3-0.4,2-0.3l-0.6-0.9l-1.3-2.2l1.4-0.8l5,8.6l-1.2,0.7l-0.5-0.6l0,0
				c-0.2,0.7-0.6,1.4-1.2,1.8c-1.5,0.9-3.1,0.3-4.3-1.7C139.2,193.7,139.7,191.8,141,191.1z M144.2,196c0.5-0.3,0.7-0.7,0.9-1.4
				l-1.6-2.8c-0.6-0.1-1.1,0-1.5,0.2c-0.8,0.4-1,1.5-0.2,2.8C142.5,196.1,143.4,196.5,144.2,196z"/>
			<path fill="#7B7C7D" d="M145.8,188.5l1.2-0.7l0.6,0.7l0,0c0.2-0.8,0.6-1.6,1.4-2.1c1.3-0.7,2.3-0.2,3.2,1.3l2.2,3.8l-1.4,0.8
				l-2.1-3.6c-0.6-1-1.1-1.2-1.7-0.8c-0.5,0.3-0.7,0.8-0.9,1.5l2.4,4.2l-1.4,0.8L145.8,188.5z"/>
			<path fill="#7B7C7D" d="M154.9,183c1.6-0.9,3.2-0.3,4.1,1.4c0.2,0.3,0.3,0.5,0.3,0.7l-3.8,2.2c0.8,1,1.8,1.2,2.8,0.7
				c0.5-0.3,0.9-0.7,1.1-1.2l1,0.6c-0.4,0.7-0.9,1.4-1.7,1.8c-1.7,1-3.6,0.6-4.8-1.4C152.9,185.8,153.5,183.8,154.9,183z
				 M157.7,184.9c-0.6-1-1.3-1.3-2.1-0.8c-0.7,0.4-1,1.3-0.6,2.4L157.7,184.9z"/>
			<path fill="#7B7C7D" d="M158.8,180.9l1.2-0.7l0.7,1l0,0c0-1,0.4-1.8,1-2.2c0.3-0.2,0.5-0.3,0.8-0.3l0.5,1.4
				c-0.2,0.1-0.4,0.1-0.7,0.3c-0.5,0.3-0.9,0.9-0.7,2.1l2.1,3.7l-1.4,0.8L158.8,180.9z"/>
			<path fill="#7B7C7D" d="M168.6,180.6c0.9,0.2,1.9,0.1,2.6-0.3c0.9-0.5,1.2-1.2,0.8-1.8c-0.4-0.7-1-0.6-1.9-0.5l-1.4,0.2
				c-1,0.1-2.2,0-2.8-1.2c-0.7-1.3-0.2-2.9,1.4-3.8c0.9-0.5,2.1-0.7,3.1-0.4l-0.2,1.3c-0.7-0.1-1.4-0.1-2.1,0.3
				c-0.8,0.4-1,1.1-0.7,1.7c0.4,0.6,1.1,0.5,1.9,0.4l1.3-0.2c1.2-0.1,2.2,0.1,2.9,1.2c0.7,1.3,0.3,3-1.5,4c-1.1,0.6-2.4,0.8-3.5,0.5
				L168.6,180.6z"/>
			<path fill="#7B7C7D" d="M173.4,174l-0.9,0.5l-0.6-1l0.9-0.6l-0.8-1.7l1.2-0.7l0.9,1.6l1.5-0.9l0.6,1.1l-1.5,0.9l1.7,2.9
				c0.4,0.7,0.9,0.9,1.5,0.6c0.2-0.1,0.4-0.3,0.5-0.5l0.8,0.9c-0.3,0.3-0.6,0.7-1.1,0.9c-1.4,0.8-2.4,0.2-3.2-1.1L173.4,174z"/>
			<path fill="#7B7C7D" d="M176.9,170.5l1.2-0.7l0.7,1l0,0c0-1,0.4-1.8,1-2.2c0.3-0.2,0.5-0.3,0.8-0.3l0.5,1.4
				c-0.2,0.1-0.4,0.1-0.7,0.3c-0.5,0.3-0.9,0.9-0.7,2.1l2.1,3.7l-1.4,0.8L176.9,170.5z"/>
			<path fill="#7B7C7D" d="M186,168.1c-0.4-0.6-1-1-1.8-0.5c-0.6,0.3-1,0.9-1.3,1.6l-1.1-0.6c0.4-0.8,1-1.7,2-2.2
				c1.5-0.9,2.8-0.4,3.7,1.3l2.1,3.6l-1.1,0.7l-0.5-0.6l0,0c-0.3,0.8-0.7,1.5-1.4,1.9c-1,0.6-2.2,0.3-2.8-0.7
				C183,171.1,183.7,169.8,186,168.1z M186.3,171.7c0.5-0.3,0.7-0.7,0.9-1.4l-0.8-1.3c-1.5,1.1-1.8,1.9-1.4,2.5
				C185.4,172,185.8,172,186.3,171.7z"/>
			<path fill="#7B7C7D" d="M186.6,162.4c-0.3-0.5-0.1-1,0.4-1.3s1.1-0.2,1.3,0.3c0.3,0.5,0.1,1-0.4,1.3S186.9,162.8,186.6,162.4z
				 M187.8,164.1l1.4-0.8l3.5,6l-1.4,0.8L187.8,164.1z"/>
			<path fill="#7B7C7D" d="M194.9,167.8L194.9,167.8c-0.4-0.1-0.9-0.2-1.1-0.7c-0.3-0.5-0.2-1,0-1.5l0,0c-0.6-0.1-1.3-0.4-1.7-1.1
				c-0.8-1.4-0.1-2.8,1.1-3.5c0.3-0.2,0.7-0.3,1-0.4l2.1-1.2l0.6,1l-1.1,0.6c0.3,0.1,0.7,0.4,0.9,0.8c0.8,1.3,0.2,2.6-1.1,3.4
				c-0.3,0.1-0.6,0.3-0.9,0.3c-0.1,0.3-0.1,0.5,0,0.7c0.2,0.3,0.6,0.4,1.3,0l1.1-0.6c1.4-0.8,2.5-0.8,3.1,0.2c0.7,1.2,0,2.8-2,4
				c-1.4,0.8-2.8,0.9-3.4-0.1C194.5,169.1,194.5,168.5,194.9,167.8z M195.4,162.4c-0.4-0.7-1.1-0.9-1.7-0.6c-0.6,0.3-0.8,1-0.4,1.8
				c0.4,0.8,1.2,0.9,1.8,0.6C195.6,163.9,195.9,163.2,195.4,162.4z M197.8,168.7c1-0.6,1.4-1.4,1.1-1.9c-0.3-0.5-0.7-0.4-1.4,0
				l-0.8,0.5c-0.3,0.2-0.6,0.3-0.9,0.4c-0.2,0.4-0.2,0.8,0,1.1C196.1,169.2,196.9,169.2,197.8,168.7z"/>
			<path fill="#7B7C7D" d="M195.9,156l1.4-0.8l1.3,2.2l0.6,1.2c0.2-0.8,0.6-1.5,1.4-2c1.3-0.7,2.3-0.2,3.2,1.3l2.2,3.8l-1.4,0.8
				l-2.1-3.6c-0.6-1-1.1-1.2-1.7-0.8c-0.5,0.3-0.7,0.8-0.9,1.5l2.4,4.2l-1.4,0.8L195.9,156z"/>
			<path fill="#7B7C7D" d="M205.1,155.6l-0.9,0.5l-0.6-1l0.9-0.6l-0.8-1.7l1.2-0.7l0.9,1.6l1.5-0.9l0.6,1.1l-1.5,0.9l1.7,2.9
				c0.4,0.7,0.9,0.9,1.5,0.6c0.2-0.1,0.4-0.3,0.5-0.5l0.8,0.9c-0.3,0.3-0.6,0.7-1.1,0.9c-1.4,0.8-2.4,0.2-3.2-1.1L205.1,155.6z"/>
		</g>
	</g>
</g>
</svg>
