<?xml version="1.0" encoding="utf-8"?>
<!-- Generator: Adobe Illustrator 20.0.0, SVG Export Plug-In . SVG Version: 6.00 Build 0)  -->
<svg version="1.0" xmlns="http://www.w3.org/2000/svg" xmlns:xlink="http://www.w3.org/1999/xlink" x="0px" y="0px"
	 viewBox="0 0 504 251" enable-background="new 0 0 504 251" xml:space="preserve">
<g id="trazado">
	<g>
		<path fill="#B7B5B6" d="M206,220.9c-1.2,0-2.5-0.2-3.8-0.8l-1-0.5l-0.5-1c0,0-2.9-5.3-4.7-8.5c-0.5-0.7-5.1-8.2-15.3-21.1
			l-0.1-0.2l-12.7-18l-42-83.7l-45-51.7c-0.9-0.9-4.1-4.5-3-8.6c0.8-2.8,3.4-4.8,7.6-5.7l0.3-0.1l0.3,0l39.6-1l27.8,5.3l40.5,7.4
			l37.1,3.7l38.9,3l0.2,0c0.6,0.1,5.9,1.4,8.3,6c1.1,2.1,1.9,5.6-0.3,10.5l-0.1,0.2c-0.5,1-12.5,24.3-39.4,27.7
			c-2.2,0.6-10.5,1.7-35.3-3.2l-0.4-0.1c-5-1.7-19.5-5.3-26-2.2l-0.2,0.1c-0.4,0.2-10.5,4.5-9.9,15.8c0,0.3,0.4,3,1.9,6.2l18.3,34.1
			c1.7,1.8,9.8,9.2,20.8,2.3l18.1-18.9l0.3-0.2c0.4-0.3,9.8-7,22.3-7.9l0.2,0l90.6,0.2l21.8,0c0.5,0,10.9,0.4,15.1,10.2l0.2,0.5
			l10,37.6c1.1,3.4,1.2,10.5-6.5,14.3l-21.9,10.5l-0.3,0.1l-87.5,22.2L211.5,220c-0.4,0.1-0.7,0.2-1.1,0.3
			C209.2,220.5,207.6,220.9,206,220.9z M186.2,184.8c11,13.8,15.7,21.5,15.8,21.8l0.1,0.1c1.2,2.2,3,5.4,3.9,7.2
			c0.8,0,1.8-0.3,2.7-0.5c0.4-0.1,0.8-0.2,1.2-0.3l58.3-14.5l87.2-22.1l21.3-10.2c3.8-1.9,3.2-4.9,2.9-5.8l-0.1-0.2l-9.9-37.5
			c-2.5-5.5-8.5-5.7-8.6-5.7l-21.7,0l-90.4-0.2c-9.5,0.7-17,5.4-18.4,6.4l-18.2,19l-0.3,0.2c-13.8,8.9-25.9,1.5-30.4-3.6l-0.3-0.3
			l-18.8-35c-2.2-4.6-2.6-8.3-2.7-8.7l0-0.1c-0.7-13.1,8.9-20.6,14.2-22.7c9.9-4.7,28,0.9,30.9,1.9c24,4.7,31,3.4,31.9,3.2l0.4-0.2
			l0.3,0c22.7-2.7,33.5-22.5,34.3-23.8c0.8-1.9,1-3.4,0.4-4.4c-0.7-1.4-2.6-2.1-3.3-2.3l-38.4-3l-37.6-3.8l-40.7-7.4l-27-5.1
			l-38.5,1c-1.1,0.3-1.7,0.6-1.9,0.7c0.2,0.5,0.7,1.3,1.1,1.7l0.2,0.2l45.7,52.5l42.3,84.3L186.2,184.8z"/>
	</g>
</g>
<g id="PUNTOS_INTERMEDIOS_Y_SEMAFORO">
	<path fill="#AC1737" d="M324.5,173.5c0.5-0.1,1,0.1,1.1,0.6l7.5,26c0.1,0.5-0.1,1-0.6,1.1c-0.5,0.1-1-0.1-1.1-0.6l-7.5-26
		C323.7,174.2,324,173.7,324.5,173.5z"/>
	<g>
		<path fill="#AC1737" d="M283.2,213.1c0.5-0.1,0.7-0.6,0.6-1.1l-6.9-24.3c-0.1-0.4-0.6-0.7-1-0.6l-16.5,4.4
			c-0.5,0.1-0.7,0.6-0.6,1.1c0.1,0.5,0.6,0.7,1.1,0.6l15.4-4.1c0.2,0,0.4,0.1,0.4,0.2l6.6,23C282.2,212.9,282.7,213.2,283.2,213.1z"
			/>
		<path fill="#AC1737" d="M258.4,192.2c-0.3,0.3-0.1,0.8,0.3,0.9l3.5,1l3.5,1c0.4,0.1,0.7-0.2,0.6-0.6l-1-3.5l-1-3.5
			c-0.1-0.4-0.6-0.5-0.9-0.2l-2.5,2.5L258.4,192.2z"/>
	</g>
	<g>
		<path fill="#7B7C7D" d="M258,219c0-4.2,3.4-7.6,7.6-7.6h45.8c4.2,0,7.6,3.4,7.6,7.6v8.3c0,4.2-3.4,7.6-7.6,7.6h-45.8
			c-4.2,0-7.6-3.4-7.6-7.6V219L258,219z"/>
		<g>
			<path fill="#FFFFFF" d="M306.9,232.7c-3.9,0-7.1-3.2-7.1-7.1v-4.8c0-3.9,3.2-7.1,7.1-7.1h2.7c3.9,0,7.1,3.2,7.1,7.1v4.8
				c0,3.9-3.2,7.1-7.1,7.1H306.9z"/>
			<path fill="#C7C6C5" d="M309.6,214.1c3.7,0,6.6,3,6.6,6.6v4.8c0,3.7-3,6.6-6.6,6.6h-2.7c-3.7,0-6.6-3-6.6-6.6v-4.8
				c0-3.7,3-6.6,6.6-6.6H309.6 M309.6,213.1h-2.7c-4.2,0-7.6,3.4-7.6,7.6v4.8c0,4.2,3.4,7.6,7.6,7.6h2.7c4.2,0,7.6-3.4,7.6-7.6v-4.8
				C317.3,216.5,313.8,213.1,309.6,213.1L309.6,213.1z"/>
		</g>
		<g>
			<defs>
				<path id="SVGID_1_" d="M299.3,220.8c0-4.2,3.4-7.6,7.6-7.6h2.7c4.2,0,7.6,3.4,7.6,7.6v4.8c0,4.2-3.4,7.6-7.6,7.6h-2.7
					c-4.2,0-7.6-3.4-7.6-7.6V220.8L299.3,220.8z"/>
			</defs>
			<clipPath id="SVGID_2_">
				<use xlink:href="#SVGID_1_"  overflow="visible"/>
			</clipPath>
			<g clip-path="url(#SVGID_2_)">
				<rect x="294" y="214.8" fill="#1E1E1C" width="4.2" height="4.2"/>
				<rect x="298.1" y="219" fill="#1E1E1C" width="4.2" height="4.2"/>
				<rect x="302.3" y="214.8" fill="#1E1E1C" width="4.2" height="4.2"/>
				<rect x="306.5" y="219" fill="#1E1E1C" width="4.2" height="4.2"/>
				<rect x="294" y="223.1" fill="#1E1E1C" width="4.2" height="4.2"/>
				<rect x="298.1" y="227.3" fill="#1E1E1C" width="4.2" height="4.2"/>
				<rect x="302.3" y="223.1" fill="#1E1E1C" width="4.2" height="4.2"/>
				<rect x="306.5" y="227.3" fill="#1E1E1C" width="4.2" height="4.2"/>
				<rect x="310.7" y="214.8" fill="#1E1E1C" width="4.2" height="4.2"/>
				<rect x="314.8" y="219" fill="#1E1E1C" width="4.2" height="4.2"/>
				<rect x="310.7" y="223.1" fill="#1E1E1C" width="4.2" height="4.2"/>
				<rect x="314.8" y="227.3" fill="#1E1E1C" width="4.2" height="4.2"/>
			</g>
		</g>
		<g>
			<path fill="#C01724" d="M267.4,232.7c-3.9,0-7.1-3.2-7.1-7.1v-4.8c0-3.9,3.2-7.1,7.1-7.1h2.7c3.9,0,7.1,3.2,7.1,7.1v4.8
				c0,3.9-3.2,7.1-7.1,7.1H267.4z"/>
			<path fill="#AA1920" d="M270.1,214.1c3.7,0,6.6,3,6.6,6.6v4.8c0,3.7-3,6.6-6.6,6.6h-2.7c-3.7,0-6.6-3-6.6-6.6v-4.8
				c0-3.7,3-6.6,6.6-6.6H270.1 M270.1,213.1h-2.7c-4.2,0-7.6,3.4-7.6,7.6v4.8c0,4.2,3.4,7.6,7.6,7.6h2.7c4.2,0,7.6-3.4,7.6-7.6v-4.8
				C277.7,216.5,274.3,213.1,270.1,213.1L270.1,213.1z"/>
		</g>
		<g>
			<path fill="#009548" d="M287.2,232.7c-3.9,0-7.1-3.2-7.1-7.1v-4.8c0-3.9,3.2-7.1,7.1-7.1h2.7c3.9,0,7.1,3.2,7.1,7.1v4.8
				c0,3.9-3.2,7.1-7.1,7.1H287.2z"/>
			<path fill="#006139" d="M289.9,214.1c3.7,0,6.6,3,6.6,6.6v4.8c0,3.7-3,6.6-6.6,6.6h-2.7c-3.7,0-6.6-3-6.6-6.6v-4.8
				c0-3.7,3-6.6,6.6-6.6H289.9 M289.9,213.1h-2.7c-4.2,0-7.6,3.4-7.6,7.6v4.8c0,4.2,3.4,7.6,7.6,7.6h2.7c4.2,0,7.6-3.4,7.6-7.6v-4.8
				C297.5,216.5,294.1,213.1,289.9,213.1L289.9,213.1z"/>
		</g>
		<g>
			<path fill="#C7C6C5" d="M309.6,214.1c3.7,0,6.6,3,6.6,6.6v4.8c0,3.7-3,6.6-6.6,6.6h-2.7c-3.7,0-6.6-3-6.6-6.6v-4.8
				c0-3.7,3-6.6,6.6-6.6H309.6 M309.6,213.1h-2.7c-4.2,0-7.6,3.4-7.6,7.6v4.8c0,4.2,3.4,7.6,7.6,7.6h2.7c4.2,0,7.6-3.4,7.6-7.6v-4.8
				C317.3,216.5,313.8,213.1,309.6,213.1L309.6,213.1z"/>
		</g>
	</g>
	<g>
		<path fill="#AC1737" d="M320.6,203.3c0-4.2,3.4-7.6,7.7-7.6H340c4.2,0,7.6,3.4,7.6,7.6v4.8c0,4.2-3.4,7.6-7.6,7.6h-11.7
			c-4.2,0-7.7-3.4-7.7-7.6V203.3L320.6,203.3z"/>
		<g>
			<path fill="#FFFFFF" d="M328.1,201.6h5v1.2h-3.5v2.3h3v1.2h-3v3.5h-1.5V201.6z"/>
			<path fill="#FFFFFF" d="M335.2,201.6h1.5v7.1h3.4v1.2h-4.9V201.6z"/>
		</g>
	</g>
	<path fill="#AC1737" d="M138.8,85.1c0.3,0.4,0.2,1-0.2,1.2l-22.3,15.3c-0.4,0.3-1,0.2-1.2-0.2s-0.2-1,0.2-1.2l22.3-15.3
		C137.9,84.6,138.5,84.7,138.8,85.1z"/>
	<g>
		<path fill="#AC1737" d="M105.1,99.1c0-4.2,3.4-7.6,7.7-7.6h3.9c4.2,0,7.7,3.4,7.7,7.6v5.5c0,4.2-3.4,7.7-7.7,7.7h-3.9
			c-4.2,0-7.7-3.4-7.7-7.7V99.1L105.1,99.1z"/>
		<g>
			<path fill="#FFFFFF" d="M110.2,98.2c0-0.5,0.4-0.8,0.9-0.8c0.5,0,0.9,0.3,0.9,0.8c0,0.5-0.4,0.8-0.9,0.8
				C110.6,99,110.2,98.7,110.2,98.2z M110.4,100.1h1.5v6.2h-1.5V100.1z"/>
			<path fill="#FFFFFF" d="M114.4,105.2h1.8v-5.3h-1.5v-0.9c0.8-0.2,1.4-0.4,1.9-0.7h1.1v6.9h1.6v1.2h-4.9V105.2z"/>
		</g>
	</g>
	<path fill="#AC1737" d="M234.4,60.8c0.5,0,0.9,0.4,0.9,0.9l0.3,27c0,0.5-0.4,0.9-0.9,0.9c-0.5,0-0.9-0.4-0.9-0.9l-0.3-27
		C233.5,61.3,233.9,60.9,234.4,60.8z"/>
	<path fill="#AC1737" d="M105.1,122.7c0-4.2,3.4-7.6,7.7-7.6h3.9c4.2,0,7.7,3.4,7.7,7.6v5.5c0,4.2-3.4,7.7-7.7,7.7h-3.9
		c-4.2,0-7.7-3.4-7.7-7.7V122.7L105.1,122.7z"/>
	<path fill="#AC1737" d="M225,58.1c0-4.2,3.4-7.6,7.7-7.6h3.9c4.2,0,7.7,3.4,7.7,7.6v5.5c0,4.2-3.4,7.7-7.7,7.7h-3.9
		c-4.2,0-7.7-3.4-7.7-7.7V58.1L225,58.1z"/>
	<path fill="#AC1737" d="M287.2,94.2c0.5-0.1,0.9,0.2,1,0.7l4.7,26.6c0.1,0.5-0.2,0.9-0.7,1c-0.5,0.1-0.9-0.2-1-0.7l-4.7-26.6
		C286.4,94.8,286.7,94.3,287.2,94.2z"/>
	<path fill="#AC1737" d="M278.1,91.2c0-4.2,3.4-7.6,7.7-7.6h3.9c4.2,0,7.7,3.4,7.7,7.6v5.5c0,4.2-3.4,7.7-7.7,7.7h-3.9
		c-4.2,0-7.7-3.4-7.7-7.7V91.2L278.1,91.2z"/>
</g>
<g id="textos_y_numeros">
	<g>
		<g>
			<path fill="#7B7C7D" d="M293.7,45.8h-1.1v2.3H291v-2.3h-4v-1.1l3.6-5.6h1.9v5.4h1.1V45.8z M291,44.6v-2c0-0.5,0-1.3,0.1-1.9H291
				c-0.2,0.5-0.5,0.9-0.7,1.4l-1.6,2.5H291z"/>
			<path fill="#7B7C7D" d="M303.1,48.1l-2-3.6h-1.4v3.6h-1.6v-9.2h3.1c1.9,0,3.4,0.7,3.4,2.7c0,1.4-0.7,2.3-1.8,2.6l2.2,3.9H303.1z
				 M299.7,43.2h1.3c1.3,0,1.9-0.5,1.9-1.6c0-1.1-0.7-1.4-1.9-1.4h-1.3V43.2z"/>
			<path fill="#7B7C7D" d="M310.2,43.7c0-0.7-0.3-1.4-1.3-1.4c-0.7,0-1.3,0.3-1.9,0.7l-0.6-1.1c0.8-0.5,1.7-0.9,2.8-0.9
				c1.7,0,2.6,1.1,2.6,3v4.1h-1.3l-0.1-0.8h0c-0.6,0.5-1.3,0.9-2.1,0.9c-1.2,0-2.1-0.8-2.1-2C306.1,44.8,307.3,44,310.2,43.7z
				 M308.6,47c0.6,0,1-0.3,1.5-0.8v-1.6c-1.9,0.2-2.5,0.7-2.5,1.4C307.7,46.8,308.1,47,308.6,47z"/>
			<path fill="#7B7C7D" d="M313.7,41.2h1.6v4.1c0,1.1,0.3,1.6,1.1,1.6c0.6,0,1-0.3,1.5-1v-4.7h1.6v6.9h-1.3l-0.1-1h0
				c-0.6,0.7-1.3,1.2-2.2,1.2c-1.5,0-2.1-1-2.1-2.8V41.2z"/>
			<path fill="#7B7C7D" d="M324.6,41c0.9,0,1.6,0.4,2,0.8l-0.8,1c-0.4-0.3-0.7-0.5-1.2-0.5c-1.1,0-1.9,0.9-1.9,2.3
				c0,1.4,0.8,2.3,1.8,2.3c0.6,0,1-0.3,1.4-0.6l0.7,1c-0.6,0.6-1.5,0.9-2.3,0.9c-1.9,0-3.3-1.3-3.3-3.6
				C321.1,42.4,322.8,41,324.6,41z"/>
			<path fill="#7B7C7D" d="M328.1,38.2h1.6v2.6l-0.1,1.3c0.6-0.6,1.3-1,2.2-1c1.5,0,2.1,1,2.1,2.8v4.3h-1.6V44
				c0-1.1-0.3-1.6-1.1-1.6c-0.6,0-1,0.3-1.6,0.9v4.8h-1.6V38.2z"/>
		</g>
	</g>
	<g>
		<g>
			<path fill="#7B7C7D" d="M157.4,56.7c-0.3-0.4-0.9-0.7-1.4-0.7c-1.1,0-2,0.8-2.1,3.3c0.5-0.7,1.3-1.1,1.9-1.1
				c1.6,0,2.6,0.9,2.6,2.8c0,1.8-1.3,2.9-2.8,2.9c-1.8,0-3.3-1.4-3.3-4.4c0-3.5,1.7-4.9,3.5-4.9c1.1,0,1.9,0.5,2.4,1L157.4,56.7z
				 M156.9,61.1c0-1.1-0.5-1.6-1.4-1.6c-0.5,0-1.1,0.3-1.6,1c0.2,1.6,0.8,2.3,1.7,2.3C156.3,62.8,156.9,62.2,156.9,61.1z"/>
			<path fill="#7B7C7D" d="M163,54.6h3.1c2,0,3.5,0.7,3.5,2.9c0,2-1.5,3-3.5,3h-1.5v3.4H163V54.6z M165.9,59.2c1.4,0,2-0.6,2-1.7
				c0-1.2-0.7-1.5-2-1.5h-1.3v3.2H165.9z"/>
			<path fill="#7B7C7D" d="M171,54.8c0-0.6,0.4-0.9,1-0.9s1,0.4,1,0.9c0,0.5-0.4,0.9-1,0.9S171,55.3,171,54.8z M171.1,56.9h1.6v6.9
				h-1.6V56.9z"/>
			<path fill="#7B7C7D" d="M174.8,56.9h1.3l0.1,1.2h0.1c0.5-0.9,1.2-1.4,2-1.4c0.4,0,0.6,0,0.8,0.1l-0.3,1.4
				c-0.2-0.1-0.4-0.1-0.7-0.1c-0.6,0-1.2,0.4-1.6,1.4v4.2h-1.6V56.9z"/>
			<path fill="#7B7C7D" d="M182.8,56.8c1.9,0,2.9,1.4,2.9,3.3c0,0.3,0,0.6-0.1,0.8h-4.4c0.1,1.3,0.9,2,2,2c0.6,0,1.1-0.2,1.6-0.5
				l0.6,1c-0.7,0.4-1.5,0.7-2.4,0.7c-1.9,0-3.4-1.3-3.4-3.6C179.6,58.2,181.2,56.8,182.8,56.8z M184.3,59.8c0-1.1-0.5-1.8-1.4-1.8
				c-0.8,0-1.5,0.6-1.7,1.8H184.3z"/>
			<path fill="#7B7C7D" d="M187.3,53.9h1.6v8.3c0,0.4,0.2,0.5,0.4,0.5c0.1,0,0.1,0,0.3,0l0.2,1.2c-0.2,0.1-0.5,0.1-0.9,0.1
				c-1.2,0-1.6-0.7-1.6-1.9V53.9z"/>
			<path fill="#7B7C7D" d="M191.1,53.9h1.6v8.3c0,0.4,0.2,0.5,0.4,0.5c0.1,0,0.1,0,0.3,0l0.2,1.2c-0.2,0.1-0.5,0.1-0.9,0.1
				c-1.2,0-1.6-0.7-1.6-1.9V53.9z"/>
			<path fill="#7B7C7D" d="M194.7,54.8c0-0.6,0.4-0.9,1-0.9s1,0.4,1,0.9c0,0.5-0.4,0.9-1,0.9S194.7,55.3,194.7,54.8z M194.9,56.9
				h1.6v6.9h-1.6V56.9z"/>
		</g>
	</g>
	<g>
		<g>
			<path fill="#7B7C7D" d="M200.3,157h-4.2v-1.4h6v1c-2.1,2.6-2.5,4.5-2.6,8h-1.7C198,161.5,198.6,159.5,200.3,157z"/>
			<path fill="#7B7C7D" d="M205.8,155.4h1.7l0.8,4.7c0.2,1,0.3,2,0.5,3h0.1c0.2-1,0.4-2,0.6-3l1.1-4.7h1.4l1.1,4.7
				c0.2,1,0.4,2,0.6,3h0.1c0.2-1,0.3-2,0.5-3l0.8-4.7h1.6l-1.8,9.2h-2l-1.1-4.9c-0.2-0.7-0.3-1.4-0.4-2.1h-0.1
				c-0.1,0.7-0.3,1.4-0.4,2.1l-1.1,4.9h-2L205.8,155.4z"/>
			<path fill="#7B7C7D" d="M217.8,157.7h1.6v4.1c0,1.1,0.3,1.6,1.1,1.6c0.6,0,1-0.3,1.5-1v-4.7h1.6v6.9h-1.3l-0.1-1h0
				c-0.6,0.7-1.3,1.2-2.2,1.2c-1.5,0-2.1-1-2.1-2.8V157.7z M218.6,155.6c0-0.5,0.4-0.8,0.8-0.8c0.5,0,0.8,0.4,0.8,0.8
				c0,0.5-0.4,0.8-0.8,0.8C219,156.5,218.6,156.1,218.6,155.6z M221.2,155.6c0-0.5,0.4-0.8,0.8-0.8c0.5,0,0.8,0.4,0.8,0.8
				c0,0.5-0.4,0.8-0.8,0.8C221.6,156.5,221.2,156.1,221.2,155.6z"/>
			<path fill="#7B7C7D" d="M225.7,157.7h1.3l0.1,1.2h0.1c0.5-0.9,1.2-1.4,2-1.4c0.4,0,0.6,0,0.8,0.1l-0.3,1.4
				c-0.2-0.1-0.4-0.1-0.7-0.1c-0.6,0-1.2,0.4-1.6,1.4v4.2h-1.6V157.7z"/>
			<path fill="#7B7C7D" d="M231.2,159h-1v-1.2l1.1-0.1l0.2-1.9h1.4v1.9h1.8v1.3h-1.8v3.3c0,0.8,0.3,1.2,1,1.2c0.2,0,0.5-0.1,0.7-0.2
				l0.3,1.2c-0.4,0.1-0.9,0.3-1.4,0.3c-1.6,0-2.2-1-2.2-2.5V159z"/>
			<path fill="#7B7C7D" d="M236.1,154.7h1.6v2.6l-0.1,1.3c0.6-0.6,1.3-1,2.2-1c1.5,0,2.1,1,2.1,2.8v4.3h-1.6v-4.1
				c0-1.1-0.3-1.6-1.1-1.6c-0.6,0-1,0.3-1.6,0.9v4.8h-1.6V154.7z"/>
		</g>
	</g>
	<g>
		<g>
			<path fill="#7B7C7D" d="M274.2,77.8c0.5,0.5,1.2,1,2.1,1c1,0,1.7-0.6,1.7-1.7c0-1.1-0.7-1.7-1.7-1.7c-0.6,0-0.9,0.2-1.4,0.5
				l-0.8-0.5l0.3-4.4h4.8v1.4h-3.4l-0.2,2.2c0.4-0.2,0.7-0.3,1.2-0.3c1.5,0,2.8,0.9,2.8,2.8c0,2-1.5,3.1-3.2,3.1
				c-1.5,0-2.4-0.6-3.1-1.2L274.2,77.8z"/>
		</g>
	</g>
	<g>
		<g>
			<path fill="#7B7C7D" d="M241.6,130.3L241.6,130.3c-0.7-0.5-1.2-1.2-1.2-2.2c0-1.5,1.2-2.4,2.7-2.4c1.6,0,2.6,1,2.6,2.4
				c0,0.9-0.6,1.6-1.2,2.1v0.1c0.8,0.5,1.6,1.1,1.6,2.3c0,1.4-1.2,2.4-3,2.4c-1.8,0-3-1-3-2.5C240,131.5,240.8,130.8,241.6,130.3z
				 M243.1,133.9c0.9,0,1.5-0.5,1.5-1.3c0-1-0.9-1.3-2.2-1.8c-0.6,0.4-1,1-1,1.7C241.4,133.3,242.1,133.9,243.1,133.9z M244.4,128.3
				c0-0.8-0.5-1.4-1.3-1.4c-0.7,0-1.2,0.5-1.2,1.2c0,0.9,0.8,1.3,1.8,1.7C244.1,129.4,244.4,128.9,244.4,128.3z"/>
		</g>
	</g>
	<g>
		<g>
			<path fill="#7B7C7D" d="M143.9,98.1c2.5-2.4,4.1-4,4.1-5.4c0-0.9-0.5-1.6-1.5-1.6c-0.7,0-1.3,0.5-1.8,1l-0.9-0.9
				c0.8-0.9,1.6-1.4,2.9-1.4c1.7,0,2.8,1.1,2.8,2.8c0,1.6-1.5,3.2-3.3,5.1c0.5,0,1.1-0.1,1.5-0.1h2.2V99h-6.1V98.1z"/>
		</g>
	</g>
	<g enable-background="new    ">
		<path fill="#FFFFFF" d="M112.5,127.9c0.6,0.6,1.4,0.9,2.2,0.9c0.9,0,1.4-0.4,1.4-1.1c0-0.7-0.5-0.9-1.3-1.2l-1.1-0.5
			c-0.8-0.3-1.7-1-1.7-2.2c0-1.3,1.2-2.3,2.8-2.3c1,0,1.9,0.4,2.6,1.1l-0.8,0.9c-0.5-0.4-1.1-0.7-1.8-0.7c-0.8,0-1.3,0.4-1.3,1
			c0,0.6,0.6,0.9,1.3,1.2l1.1,0.5c1,0.4,1.7,1,1.7,2.2c0,1.3-1.1,2.5-3,2.5c-1.1,0-2.2-0.4-3-1.2L112.5,127.9z"/>
	</g>
	<g enable-background="new    ">
		<path fill="#FFFFFF" d="M230.3,57.2c0-0.5,0.4-0.8,0.9-0.8s0.9,0.3,0.9,0.8c0,0.5-0.4,0.8-0.9,0.8S230.3,57.7,230.3,57.2z
			 M230.5,59.1h1.5v6.2h-1.5V59.1z"/>
		<path fill="#FFFFFF" d="M234.3,64.5c2.2-2.2,3.7-3.6,3.7-4.8c0-0.9-0.5-1.4-1.3-1.4c-0.6,0-1.1,0.4-1.6,0.9l-0.8-0.8
			c0.7-0.8,1.5-1.2,2.6-1.2c1.6,0,2.6,1,2.6,2.5c0,1.4-1.3,2.9-2.9,4.6c0.4,0,1-0.1,1.3-0.1h2v1.2h-5.5V64.5z"/>
	</g>
	<g enable-background="new    ">
		<path fill="#FFFFFF" d="M283.5,90.3c0-0.5,0.4-0.8,0.9-0.8c0.5,0,0.9,0.3,0.9,0.8c0,0.5-0.4,0.8-0.9,0.8
			C283.9,91.2,283.5,90.8,283.5,90.3z M283.7,92.3h1.5v6.2h-1.5V92.3z"/>
		<path fill="#FFFFFF" d="M288,96.6c0.5,0.5,1.1,0.9,1.9,0.9c0.9,0,1.5-0.5,1.5-1.2c0-0.8-0.5-1.4-2.4-1.4v-1.1
			c1.6,0,2.1-0.5,2.1-1.3c0-0.7-0.5-1.1-1.2-1.1c-0.6,0-1.1,0.3-1.6,0.8l-0.8-0.9c0.7-0.6,1.5-1,2.4-1c1.6,0,2.6,0.8,2.6,2.1
			c0,0.9-0.5,1.5-1.4,1.9v0.1c1,0.3,1.7,0.9,1.7,2c0,1.5-1.3,2.3-2.8,2.3c-1.3,0-2.2-0.5-2.7-1.1L288,96.6z"/>
	</g>
	<g>
		<g>
			<path fill="#7B7C7D" d="M377.5,107.6c0.3,0.4,0.9,0.7,1.4,0.7c1.1,0,2-0.8,2.1-3.3c-0.5,0.6-1.3,1-2,1c-1.5,0-2.6-0.9-2.6-2.8
				c0-1.8,1.3-2.9,2.8-2.9c1.8,0,3.2,1.4,3.2,4.4c0,3.5-1.7,4.9-3.5,4.9c-1.1,0-1.9-0.5-2.4-1L377.5,107.6z M381,103.8
				c-0.2-1.6-0.8-2.3-1.7-2.3c-0.7,0-1.3,0.6-1.3,1.7c0,1.1,0.5,1.6,1.4,1.6C379.9,104.8,380.5,104.5,381,103.8z"/>
			<path fill="#7B7C7D" d="M392.2,109.4l-2-3.6h-1.4v3.6h-1.6v-9.2h3.1c1.9,0,3.4,0.7,3.4,2.7c0,1.4-0.7,2.3-1.8,2.6l2.2,3.9H392.2z
				 M388.9,104.5h1.3c1.3,0,1.9-0.5,1.9-1.6c0-1.1-0.7-1.4-1.9-1.4h-1.3V104.5z"/>
			<path fill="#7B7C7D" d="M395.3,100.4c0-0.6,0.4-0.9,1-0.9c0.6,0,1,0.4,1,0.9c0,0.5-0.4,0.9-1,0.9
				C395.7,101.3,395.3,100.9,395.3,100.4z M395.5,102.5h1.6v6.9h-1.6V102.5z"/>
			<path fill="#7B7C7D" d="M399.2,102.5h1.3l0.1,0.9h0.1c0.6-0.6,1.3-1.1,2.3-1.1c1.5,0,2.1,1,2.1,2.8v4.3h-1.6v-4.1
				c0-1.1-0.3-1.6-1.1-1.6c-0.6,0-1,0.3-1.6,0.9v4.8h-1.6V102.5z"/>
			<path fill="#7B7C7D" d="M409.6,102.3c0.8,0,1.3,0.3,1.8,0.8l-0.1-1.1v-2.5h1.6v10h-1.3l-0.1-0.7h-0.1c-0.5,0.5-1.2,0.9-2,0.9
				c-1.7,0-2.9-1.3-2.9-3.6C406.7,103.7,408.1,102.3,409.6,102.3z M409.9,108.3c0.5,0,1-0.2,1.5-0.8v-3.2c-0.5-0.4-0.9-0.6-1.4-0.6
				c-0.9,0-1.6,0.8-1.6,2.3C408.4,107.5,408.9,108.3,409.9,108.3z"/>
			<path fill="#7B7C7D" d="M415.3,103.8h-1v-1.2l1.1-0.1l0.2-1.9h1.4v1.9h1.8v1.3h-1.8v3.3c0,0.8,0.3,1.2,1,1.2
				c0.2,0,0.5-0.1,0.7-0.2l0.3,1.2c-0.4,0.1-0.9,0.3-1.4,0.3c-1.6,0-2.2-1-2.2-2.5V103.8z"/>
		</g>
	</g>
	<g>
		<g>
			<path fill="#7B7C7D" d="M24.8,31.5l-2-3.6h-1.4v3.6h-1.6v-9.2h3.1c1.9,0,3.4,0.7,3.4,2.7c0,1.4-0.7,2.3-1.8,2.6l2.2,3.9H24.8z
				 M21.5,26.6h1.3c1.3,0,1.9-0.5,1.9-1.6c0-1.1-0.7-1.4-1.9-1.4h-1.3V26.6z"/>
			<path fill="#7B7C7D" d="M30.8,24.4c1.9,0,2.9,1.4,2.9,3.3c0,0.3,0,0.6-0.1,0.8h-4.4c0.1,1.3,0.9,2,2,2c0.6,0,1.1-0.2,1.6-0.5
				l0.6,1c-0.7,0.4-1.5,0.7-2.4,0.7c-1.9,0-3.4-1.3-3.4-3.6C27.7,25.8,29.2,24.4,30.8,24.4z M32.3,27.4c0-1.1-0.5-1.8-1.4-1.8
				c-0.8,0-1.5,0.6-1.7,1.8H32.3z"/>
			<path fill="#7B7C7D" d="M35.3,24.5h1.3l0.1,0.9h0.1c0.6-0.6,1.3-1.1,2.1-1.1c1,0,1.6,0.5,1.9,1.2c0.7-0.7,1.4-1.2,2.2-1.2
				c1.5,0,2.1,1,2.1,2.8v4.3h-1.6v-4.1c0-1.1-0.3-1.6-1.1-1.6c-0.4,0-0.9,0.3-1.5,0.9v4.8h-1.6v-4.1c0-1.1-0.3-1.6-1.1-1.6
				c-0.4,0-0.9,0.3-1.5,0.9v4.8h-1.6V24.5z"/>
			<path fill="#7B7C7D" d="M47.1,24.5h1.6v4.1c0,1.1,0.3,1.6,1.1,1.6c0.6,0,1-0.3,1.5-1v-4.7h1.6v6.9h-1.3l-0.1-1h0
				c-0.6,0.7-1.3,1.2-2.2,1.2c-1.5,0-2.1-1-2.1-2.8V24.5z"/>
			<path fill="#7B7C7D" d="M55.1,29.6c0.6,0.5,1.2,0.8,1.9,0.8c0.7,0,1.1-0.4,1.1-0.8c0-0.6-0.7-0.8-1.5-1.1c-0.9-0.3-1.9-0.9-1.9-2
				c0-1.2,1-2.1,2.5-2.1c1,0,1.7,0.4,2.3,0.8l-0.7,1c-0.5-0.4-1-0.6-1.5-0.6c-0.7,0-1,0.3-1,0.8c0,0.5,0.7,0.8,1.4,1
				c0.9,0.4,2,0.8,2,2.1c0,1.2-0.9,2.1-2.7,2.1c-0.9,0-1.9-0.4-2.6-1L55.1,29.6z"/>
			<path fill="#7B7C7D" d="M64.1,29.3c0.5,0.6,1.2,1,2.1,1c1,0,1.7-0.5,1.7-1.4c0-0.9-0.6-1.5-2.6-1.5v-1.2c1.8,0,2.3-0.6,2.3-1.4
				c0-0.7-0.5-1.2-1.3-1.2c-0.7,0-1.3,0.3-1.8,0.8l-0.8-1c0.8-0.7,1.6-1.1,2.7-1.1c1.7,0,2.9,0.8,2.9,2.4c0,1-0.6,1.7-1.6,2.1v0.1
				c1.1,0.3,1.9,1,1.9,2.2c0,1.6-1.4,2.6-3.1,2.6c-1.5,0-2.4-0.6-3-1.3L64.1,29.3z"/>
		</g>
	</g>
	<g>
		<g>
			<path fill="#7B7C7D" d="M372.2,187.7h2v-5.9h-1.7v-1c0.9-0.2,1.5-0.4,2.1-0.7h1.2v7.6h1.8v1.3h-5.4V187.7z"/>
			<path fill="#7B7C7D" d="M378.9,184.5c0-3,1.2-4.6,3-4.6s3,1.6,3,4.6c0,3-1.2,4.7-3,4.7S378.9,187.6,378.9,184.5z M383.5,184.5
				c0-2.5-0.6-3.3-1.5-3.3c-0.9,0-1.5,0.8-1.5,3.3c0,2.5,0.6,3.4,1.5,3.4C382.8,188,383.5,187.1,383.5,184.5z"/>
			<path fill="#7B7C7D" d="M394.7,189.1l-2-3.6h-1.4v3.6h-1.6v-9.2h3.1c1.9,0,3.4,0.7,3.4,2.7c0,1.4-0.7,2.3-1.8,2.6l2.2,3.9H394.7z
				 M391.3,184.2h1.3c1.3,0,1.9-0.5,1.9-1.6c0-1.1-0.7-1.4-1.9-1.4h-1.3V184.2z"/>
			<path fill="#7B7C7D" d="M400.7,182c1.9,0,2.9,1.4,2.9,3.3c0,0.3,0,0.6-0.1,0.8h-4.4c0.1,1.3,0.9,2,2,2c0.6,0,1.1-0.2,1.6-0.5
				l0.5,1c-0.7,0.4-1.5,0.7-2.4,0.7c-1.9,0-3.4-1.3-3.4-3.6C397.5,183.3,399,182,400.7,182z M402.1,185c0-1.1-0.5-1.8-1.4-1.8
				c-0.8,0-1.5,0.6-1.7,1.8H402.1z"/>
			<path fill="#7B7C7D" d="M407.6,182c0.8,0,1.3,0.3,1.8,0.8l-0.1-1.1v-2.5h1.6v10h-1.3l-0.1-0.7h-0.1c-0.5,0.5-1.2,0.9-2,0.9
				c-1.7,0-2.9-1.3-2.9-3.6C404.7,183.3,406.1,182,407.6,182z M407.9,187.9c0.5,0,1-0.2,1.5-0.8v-3.2c-0.5-0.4-0.9-0.6-1.4-0.6
				c-0.9,0-1.6,0.8-1.6,2.3C406.3,187.1,406.9,187.9,407.9,187.9z"/>
			<path fill="#7B7C7D" d="M416.1,179.8h3c1.9,0,3.3,0.6,3.3,2.3c0,0.9-0.5,1.7-1.6,2v0.1c1.3,0.2,2.1,0.9,2.1,2.2
				c0,1.8-1.5,2.7-3.5,2.7h-3.2V179.8z M418.9,183.7c1.3,0,1.8-0.5,1.8-1.4c0-0.8-0.6-1.2-1.8-1.2h-1.2v2.6H418.9z M419.1,187.8
				c1.4,0,2.1-0.5,2.1-1.6c0-1-0.7-1.4-2.1-1.4h-1.4v3H419.1z"/>
			<path fill="#7B7C7D" d="M424.2,182.1h1.6v4.1c0,1.1,0.3,1.6,1.1,1.6c0.6,0,1-0.3,1.5-1v-4.7h1.6v6.9h-1.3l-0.1-1h0
				c-0.6,0.7-1.3,1.2-2.2,1.2c-1.5,0-2.1-1-2.1-2.8V182.1z"/>
			<path fill="#7B7C7D" d="M432.2,179.1h1.6v8.3c0,0.4,0.2,0.5,0.4,0.5c0.1,0,0.1,0,0.3,0l0.2,1.2c-0.2,0.1-0.5,0.1-0.9,0.1
				c-1.2,0-1.6-0.7-1.6-1.9V179.1z"/>
			<path fill="#7B7C7D" d="M436,179.1h1.6v8.3c0,0.4,0.2,0.5,0.4,0.5c0.1,0,0.1,0,0.3,0l0.2,1.2c-0.2,0.1-0.5,0.1-0.9,0.1
				c-1.2,0-1.6-0.7-1.6-1.9V179.1z"/>
			<path fill="#7B7C7D" d="M442.8,179.8h1.8l1.7,4.5l0.6,1.8h0.1l0.6-1.8l1.6-4.5h1.8v9.2h-1.5v-4.2c0-0.9,0.1-2.1,0.2-2.9h-0.1
				l-0.7,2.1l-1.6,4.2h-0.7l-1.6-4.2l-0.7-2.1h-0.1c0.1,0.8,0.2,2.1,0.2,2.9v4.2h-1.5V179.8z"/>
			<path fill="#7B7C7D" d="M456,182c1.7,0,3.3,1.3,3.3,3.6c0,2.3-1.6,3.6-3.3,3.6c-1.7,0-3.3-1.3-3.3-3.6
				C452.7,183.3,454.3,182,456,182z M456,187.9c1,0,1.6-0.9,1.6-2.3c0-1.4-0.6-2.3-1.6-2.3c-1,0-1.6,0.9-1.6,2.3
				C454.4,187,455,187.9,456,187.9z"/>
			<path fill="#7B7C7D" d="M460.9,179.1h1.6v2.6l0,1.2c0.6-0.5,1.3-0.9,2-0.9c1.7,0,2.7,1.4,2.7,3.5c0,2.4-1.4,3.8-3,3.8
				c-0.6,0-1.3-0.3-1.9-0.9h0l-0.1,0.7h-1.3V179.1z M463.9,187.9c0.9,0,1.6-0.8,1.6-2.4c0-1.4-0.5-2.2-1.5-2.2c-0.5,0-1,0.3-1.5,0.8
				v3.2C463,187.7,463.5,187.9,463.9,187.9z"/>
			<path fill="#7B7C7D" d="M468.7,180c0-0.6,0.4-0.9,1-0.9c0.6,0,1,0.4,1,0.9c0,0.5-0.4,0.9-1,0.9
				C469.1,180.9,468.7,180.5,468.7,180z M468.9,182.1h1.6v6.9h-1.6V182.1z"/>
			<path fill="#7B7C7D" d="M472.6,179.1h1.6v8.3c0,0.4,0.2,0.5,0.4,0.5c0.1,0,0.1,0,0.3,0l0.2,1.2c-0.2,0.1-0.5,0.1-0.9,0.1
				c-1.2,0-1.6-0.7-1.6-1.9V179.1z"/>
			<path fill="#7B7C7D" d="M479.1,182c1.9,0,2.9,1.4,2.9,3.3c0,0.3,0,0.6-0.1,0.8h-4.4c0.1,1.3,0.9,2,2,2c0.6,0,1.1-0.2,1.6-0.5
				l0.5,1c-0.7,0.4-1.5,0.7-2.4,0.7c-1.9,0-3.4-1.3-3.4-3.6C475.9,183.3,477.5,182,479.1,182z M480.6,185c0-1.1-0.5-1.8-1.4-1.8
				c-0.8,0-1.5,0.6-1.7,1.8H480.6z"/>
		</g>
	</g>
	<g>
		<g>
			<path fill="#7B7C7D" d="M167.4,236.7h2v-5.9h-1.7v-1c0.9-0.2,1.5-0.4,2.1-0.7h1.2v7.6h1.8v1.3h-5.4V236.7z"/>
			<path fill="#7B7C7D" d="M181.4,228.7c1.1,0,2,0.6,2.6,1.2l-0.9,1c-0.5-0.5-1-0.8-1.7-0.8c-1.5,0-2.6,1.3-2.6,3.3
				c0,2.1,1,3.4,2.5,3.4c0.8,0,1.4-0.3,1.9-0.9l0.9,1c-0.7,0.9-1.7,1.3-2.9,1.3c-2.3,0-4.2-1.7-4.2-4.8
				C177.1,230.5,179,228.7,181.4,228.7z"/>
			<path fill="#7B7C7D" d="M189.4,233.6c0-0.7-0.3-1.4-1.3-1.4c-0.7,0-1.3,0.3-1.9,0.7l-0.6-1.1c0.8-0.5,1.7-0.9,2.8-0.9
				c1.7,0,2.6,1.1,2.6,3v4.1h-1.3l-0.1-0.8h0c-0.6,0.5-1.3,0.9-2.1,0.9c-1.2,0-2.1-0.8-2.1-2C185.3,234.7,186.5,233.9,189.4,233.6z
				 M187.9,237c0.6,0,1-0.3,1.5-0.8v-1.6c-1.9,0.2-2.5,0.7-2.5,1.4C186.9,236.7,187.3,237,187.9,237z"/>
			<path fill="#7B7C7D" d="M193,236.2c0.6,0.5,1.2,0.8,1.9,0.8c0.7,0,1.1-0.4,1.1-0.8c0-0.6-0.7-0.8-1.5-1.1c-0.9-0.3-1.9-0.9-1.9-2
				c0-1.2,1-2.1,2.5-2.1c1,0,1.7,0.4,2.3,0.8l-0.7,1c-0.5-0.4-1-0.6-1.5-0.6c-0.7,0-1,0.3-1,0.8c0,0.5,0.7,0.8,1.4,1
				c0.9,0.4,2,0.8,2,2.1c0,1.2-0.9,2.1-2.7,2.1c-0.9,0-1.9-0.4-2.6-1L193,236.2z"/>
			<path fill="#7B7C7D" d="M199.3,232.4h-1v-1.2l1.1-0.1l0.2-1.9h1.4v1.9h1.8v1.3h-1.8v3.3c0,0.8,0.3,1.2,1,1.2
				c0.2,0,0.5-0.1,0.7-0.2l0.3,1.2c-0.4,0.1-0.9,0.3-1.4,0.3c-1.6,0-2.2-1-2.2-2.5V232.4z"/>
			<path fill="#7B7C7D" d="M204.2,231.1h1.3l0.1,1.2h0.1c0.5-0.9,1.2-1.4,2-1.4c0.4,0,0.6,0,0.8,0.1l-0.3,1.4
				c-0.2-0.1-0.4-0.1-0.7-0.1c-0.6,0-1.2,0.4-1.6,1.4v4.2h-1.6V231.1z"/>
			<path fill="#7B7C7D" d="M212.3,231c1.7,0,3.3,1.3,3.3,3.6c0,2.3-1.6,3.6-3.3,3.6c-1.7,0-3.3-1.3-3.3-3.6
				C209,232.3,210.5,231,212.3,231z M212.3,236.9c1,0,1.6-0.9,1.6-2.3c0-1.4-0.6-2.3-1.6-2.3c-1,0-1.6,0.9-1.6,2.3
				C210.6,236,211.2,236.9,212.3,236.9z"/>
			<path fill="#7B7C7D" d="M217.2,228.1h1.6v8.3c0,0.4,0.2,0.5,0.4,0.5c0.1,0,0.1,0,0.3,0l0.2,1.2c-0.2,0.1-0.5,0.1-0.9,0.1
				c-1.2,0-1.6-0.7-1.6-1.9V228.1z"/>
			<path fill="#7B7C7D" d="M224,228.8h5.5v1.4h-3.9v2.4h3.3v1.4h-3.3v2.7h4.1v1.4H224V228.8z"/>
			<path fill="#7B7C7D" d="M233.9,231c0.8,0,1.3,0.3,1.8,0.8l-0.1-1.1v-2.5h1.6v10H236l-0.1-0.7h-0.1c-0.5,0.5-1.2,0.9-2,0.9
				c-1.7,0-2.9-1.3-2.9-3.6C231,232.3,232.4,231,233.9,231z M234.2,236.9c0.5,0,1-0.2,1.5-0.8v-3.2c-0.5-0.4-0.9-0.6-1.4-0.6
				c-0.9,0-1.6,0.8-1.6,2.3C232.7,236.1,233.2,236.9,234.2,236.9z"/>
			<path fill="#7B7C7D" d="M239.9,237.8L239.9,237.8c-0.4-0.3-0.6-0.6-0.6-1.2c0-0.5,0.4-1,0.8-1.3v-0.1c-0.5-0.4-0.9-1-0.9-1.8
				c0-1.6,1.3-2.5,2.7-2.5c0.4,0,0.7,0.1,1,0.2h2.5v1.2h-1.3c0.2,0.3,0.4,0.7,0.4,1.2c0,1.5-1.2,2.4-2.6,2.4c-0.3,0-0.6-0.1-0.9-0.2
				c-0.2,0.2-0.3,0.4-0.3,0.7c0,0.4,0.3,0.6,1.1,0.6h1.2c1.7,0,2.5,0.5,2.5,1.7c0,1.4-1.4,2.4-3.7,2.4c-1.7,0-2.9-0.6-2.9-1.8
				C238.9,238.7,239.3,238.2,239.9,237.8z M242,240.1c1.1,0,1.9-0.5,1.9-1.1c0-0.5-0.4-0.7-1.2-0.7h-0.9c-0.4,0-0.7,0-0.9-0.1
				c-0.4,0.3-0.5,0.6-0.5,0.9C240.3,239.7,240.9,240.1,242,240.1z M243.1,233.5c0-0.9-0.5-1.4-1.2-1.4c-0.7,0-1.2,0.5-1.2,1.4
				c0,0.9,0.5,1.4,1.2,1.4C242.5,234.8,243.1,234.3,243.1,233.5z"/>
			<path fill="#7B7C7D" d="M249.4,231c1.9,0,2.9,1.4,2.9,3.3c0,0.3,0,0.6-0.1,0.8h-4.4c0.1,1.3,0.9,2,2,2c0.6,0,1.1-0.2,1.6-0.5
				l0.5,1c-0.7,0.4-1.5,0.7-2.4,0.7c-1.9,0-3.4-1.3-3.4-3.6C246.3,232.3,247.8,231,249.4,231z M250.9,234c0-1.1-0.5-1.8-1.4-1.8
				c-0.8,0-1.5,0.6-1.7,1.8H250.9z"/>
		</g>
	</g>
	<g>
	</g>
	<g>
	</g>
	<g>
	</g>
	<g>
	</g>
	<g>
	</g>
	<g>
	</g>
</g>
</svg>
