<?xml version="1.0" encoding="utf-8"?>
<!-- Generator: Adobe Illustrator 18.1.0, SVG Export Plug-In . SVG Version: 6.00 Build 0)  -->
<!DOCTYPE svg PUBLIC "-//W3C//DTD SVG 1.0//EN" "http://www.w3.org/TR/2001/REC-SVG-20010904/DTD/svg10.dtd">
<svg version="1.0" xmlns="http://www.w3.org/2000/svg" xmlns:xlink="http://www.w3.org/1999/xlink" x="0px" y="0px"
	 viewBox="0 0 504 251" enable-background="new 0 0 504 251" xml:space="preserve">
<g id="trazado">
	<path fill="#B7B5B6" d="M161.9,33.1l-82.3,0.6c-1.8,0-43.7,1.1-57.9,38.3c-8.8,23.1,4.8,43.8,16.8,50.5
		c9.2,5.2,27.1,12.1,27.2,12.2c0.2,0.1,0.5,0.2,0.8,0.3c6.3,2.3,8.4,4.3,9,5.5c0.7,1.4,2.5,4.8,2.5,7l0.1,10.4
		c0,0.9,0.3,8.5,6.1,13.9c6.1,5.6,12.5,6.1,14.9,6.1c2.6,0,340.6-1.6,344-1.6c0.8,0,15.8-0.7,25.2-12.2c9.1-11.3,9.1-20.2,9-23.5
		l0.1-54.2c0-1.3-0.5-11-6.4-17.9c-5.2-6.1-9.2-8.5-14.1-10.4c-3.8-1.5-43.6-14.4-48.1-15.8l-0.3-0.1l-0.4-0.1
		c-7.5-1.5-23.1-0.1-28.6,15.8c-2.4,6.2-3.6,20.6,9.8,29.4l0.6,0.4l0.7,0.3l25.2,9c0.1,0,13.4,5.1,16.5,16.3c3.9,13.9,1.1,16.2,0,17
		c-2.3,1.8-4.4,3-9.3,0c-7.3-4.5-139.4-82.4-145-85.7c-1.3-0.8-12.8-7.3-24.9-4.7c-12.8,2.8-19.9,11.4-21.8,14
		c-2,2.8-31.7,45.8-33,47.6l-0.1,0.2l-0.1,0.2c-0.7,1.2-6.9,11.6-6.6,20.6c0.2,7.3,0.4,10.5,0.4,10.6l0-0.3c0-0.1-0.1,1.8-1.5,3.1
		c-2.1,1.9-3.8,2.3-5.8,2.3l-31.4,0.2l1,0.1c-0.1,0-7.8-1.2-16.4-3c-7.6-1.6-6.5-0.4-11.3-3.5c-5.4-3.5-40.5-27.7-40.8-28l-0.6-0.5
		c0,0-3.5-3.7-2.1-7.1c1-2.4,3-2.7,4.2-2.5l0.4,0.1c0.1,0,0.3,0,0.3,0l60.2-0.4l0.2,0l0.2,0c1-0.1,24.1-1.7,34.1-20.4
		c5-9.5,5.4-19.5,1-27.3c-4.2-7.4-12-11.9-21.4-12.4l-0.2,0L161.9,33.1L161.9,33.1z M171.6,67c-6.6,12.4-23.5,13.7-23.6,13.7l0.4,0
		L88,81.1l0.8,0c-4.3-0.5-13.5,0.9-17.3,10.3c-3.6,8.9,1.4,17.3,4.9,20.8l0.4,0.4l0.5,0.3c1.4,1,35.5,24.3,40.8,27.8
		c6,3.9,7.9,5,17.4,6.9c8.9,1.8,16.6,3.1,16.9,3.1l0.5,0.1c0,0,0.5,0,0.5,0l31.5-0.2c3.5,0,8.7-0.6,14.1-5.5
		c5.6-5,5.7-11.8,5.7-12.6v-0.1l0-0.2c0,0-0.2-3.1-0.4-10.3c-0.1-3.9,2.9-10.5,4.8-13.6l-0.2,0.3c10.7-15.4,31.3-45.2,32.8-47.4
		c0.8-1.2,5.5-7.1,14.2-9c7.4-1.6,15.7,3.2,15.8,3.2c1.3,0.8,137.5,81.2,144.8,85.6c8.6,5.2,16.6,4.9,23.9-0.9
		c7.3-5.9,8.6-15,4.2-30.4c-4.9-17.4-23.6-24.5-24.4-24.8c-0.1,0-25.3-9-25.3-9l1.3,0.7c-7.7-5.1-5.4-12.9-4.8-14.5
		c3.2-9.2,12.4-8,14.2-7.7l-0.8-0.2c17.7,5.7,44.9,14.6,47.4,15.6c2.8,1.1,5.2,2.2,9,6.8c2.5,3,3.3,8.1,3.3,9.9
		c0-0.2-0.1,54.1-0.1,54.1c0,2.3,0.1,7.7-6.2,15.4c-5.7,7-15.6,7.6-15.7,7.6l0.6,0l-0.2,0l-0.2,0c-13.9,0.1-341.6,1.6-344.1,1.6
		c-0.7,0-3.4-0.2-6.3-2.8c-1.8-1.7-2-4.7-2-4.7c0-0.1-0.1-10.3-0.1-10.3c0-4.5-1.9-8.8-3.9-12.6c-3.7-7.1-12.6-10.4-16-11.7
		c-0.2-0.1-0.4-0.2-0.6-0.2c-0.2-0.1-17.3-6.8-25.6-11.4c-5.4-3-18-16.9-11.2-34.9c11.1-29.1,44.8-30.1,46.2-30.1
		c-0.1,0,82.3-0.6,82.3-0.6l-0.4,0c5,0.3,9.1,2.5,11.1,6C175,55.8,174.6,61.4,171.6,67L171.6,67z"/>
</g>
<g id="PUNTOS_INTERMEDIOS_Y_SEMAFORO">
	<g>
		<path fill="#AC1737" d="M357.1,129.9c0-4.2,3.4-7.7,7.6-7.7h5.1c4.2,0,7.7,3.4,7.7,7.7v5.1c0,4.2-3.4,7.6-7.7,7.6h-5.1
			c-4.2,0-7.6-3.4-7.6-7.6V129.9L357.1,129.9z"/>
		<g>
			<path fill="#FFFFFF" d="M362.8,128.7c0-0.5,0.4-0.8,0.9-0.8c0.5,0,0.9,0.3,0.9,0.8c0,0.5-0.4,0.8-0.9,0.8
				C363.2,129.6,362.8,129.2,362.8,128.7z M363,130.7h1.5v6.2H363V130.7z"/>
			<path fill="#FFFFFF" d="M367,135c0.5,0.5,1.1,0.9,1.9,0.9c0.9,0,1.5-0.5,1.5-1.2c0-0.8-0.5-1.4-2.4-1.4v-1.1
				c1.6,0,2.1-0.5,2.1-1.3c0-0.7-0.5-1.1-1.2-1.1c-0.6,0-1.1,0.3-1.6,0.8l-0.8-0.9c0.7-0.6,1.5-1,2.4-1c1.5,0,2.6,0.8,2.6,2.1
				c0,0.9-0.5,1.5-1.4,1.9v0.1c1,0.3,1.7,0.9,1.7,2c0,1.5-1.3,2.3-2.8,2.3c-1.3,0-2.2-0.5-2.7-1.1L367,135z"/>
		</g>
	</g>
	<g>
		<path fill="#AC1737" d="M323.6,182.6c0.5,0,0.9-0.4,0.9-0.9l0-25.3c0-0.5-0.4-0.8-0.8-0.8l-17.7,0c-0.5,0-0.9,0.4-0.9,0.9
			c0,0.5,0.4,0.9,0.9,0.9l16.4,0c0.2,0,0.3,0.1,0.3,0.3l0,24C322.7,182.2,323.1,182.6,323.6,182.6z"/>
		<path fill="#AC1737" d="M302.7,157c-0.4-0.2-0.4-0.7,0-0.9l3.2-1.8l3.2-1.8c0.4-0.2,0.8,0.1,0.8,0.5l0,3.7l0,3.7
			c0,0.4-0.4,0.7-0.8,0.5l-3.2-1.8L302.7,157z"/>
	</g>
	<g>
		<path fill="#7B7C7D" d="M294.9,212.1c0-4.2,3.4-7.6,7.6-7.6h45.8c4.2,0,7.6,3.4,7.6,7.6v8.3c0,4.2-3.4,7.6-7.6,7.6h-45.8
			c-4.2,0-7.6-3.4-7.6-7.6V212.1L294.9,212.1z"/>
		<g>
			<path fill="#FFFFFF" d="M343.8,225.8c-3.9,0-7.1-3.2-7.1-7.1v-4.8c0-3.9,3.2-7.1,7.1-7.1h2.7c3.9,0,7.1,3.2,7.1,7.1v4.8
				c0,3.9-3.2,7.1-7.1,7.1H343.8z"/>
			<path fill="#C7C6C5" d="M346.5,207.2c3.7,0,6.6,3,6.6,6.6v4.8c0,3.7-3,6.6-6.6,6.6h-2.7c-3.7,0-6.6-3-6.6-6.6v-4.8
				c0-3.7,3-6.6,6.6-6.6H346.5 M346.5,206.2h-2.7c-4.2,0-7.6,3.4-7.6,7.6v4.8c0,4.2,3.4,7.6,7.6,7.6h2.7c4.2,0,7.6-3.4,7.6-7.6v-4.8
				C354.2,209.6,350.8,206.2,346.5,206.2L346.5,206.2z"/>
		</g>
		<g>
			<defs>
				<path id="SVGID_9_" d="M336.2,213.8c0-4.2,3.4-7.6,7.6-7.6h2.7c4.2,0,7.6,3.4,7.6,7.6v4.8c0,4.2-3.4,7.6-7.6,7.6h-2.7
					c-4.2,0-7.6-3.4-7.6-7.6V213.8L336.2,213.8z"/>
			</defs>
			<clipPath id="SVGID_2_">
				<use xlink:href="#SVGID_9_"  overflow="visible"/>
			</clipPath>
			<g clip-path="url(#SVGID_2_)">
				<rect x="330.9" y="207.8" fill="#1E1E1C" width="4.2" height="4.2"/>
				<rect x="335.1" y="212" fill="#1E1E1C" width="4.2" height="4.2"/>
				<rect x="339.2" y="207.8" fill="#1E1E1C" width="4.2" height="4.2"/>
				<rect x="343.4" y="212" fill="#1E1E1C" width="4.2" height="4.2"/>
				<rect x="330.9" y="216.2" fill="#1E1E1C" width="4.2" height="4.2"/>
				<rect x="335.1" y="220.4" fill="#1E1E1C" width="4.2" height="4.2"/>
				<rect x="339.2" y="216.2" fill="#1E1E1C" width="4.2" height="4.2"/>
				<rect x="343.4" y="220.4" fill="#1E1E1C" width="4.2" height="4.2"/>
				<rect x="347.6" y="207.8" fill="#1E1E1C" width="4.2" height="4.2"/>
				<rect x="351.8" y="212" fill="#1E1E1C" width="4.2" height="4.2"/>
				<rect x="347.6" y="216.2" fill="#1E1E1C" width="4.2" height="4.2"/>
				<rect x="351.8" y="220.4" fill="#1E1E1C" width="4.2" height="4.2"/>
			</g>
		</g>
		<g>
			<path fill="#C01724" d="M304.3,225.8c-3.9,0-7.1-3.2-7.1-7.1v-4.8c0-3.9,3.2-7.1,7.1-7.1h2.7c3.9,0,7.1,3.2,7.1,7.1v4.8
				c0,3.9-3.2,7.1-7.1,7.1H304.3z"/>
			<path fill="#AA1920" d="M307,207.2c3.7,0,6.6,3,6.6,6.6v4.8c0,3.7-3,6.6-6.6,6.6h-2.7c-3.7,0-6.6-3-6.6-6.6v-4.8
				c0-3.7,3-6.6,6.6-6.6H307 M307,206.2h-2.7c-4.2,0-7.6,3.4-7.6,7.6v4.8c0,4.2,3.4,7.6,7.6,7.6h2.7c4.2,0,7.6-3.4,7.6-7.6v-4.8
				C314.7,209.6,311.3,206.2,307,206.2L307,206.2z"/>
		</g>
		<g>
			<path fill="#009548" d="M324.1,225.8c-3.9,0-7.1-3.2-7.1-7.1v-4.8c0-3.9,3.2-7.1,7.1-7.1h2.7c3.9,0,7.1,3.2,7.1,7.1v4.8
				c0,3.9-3.2,7.1-7.1,7.1H324.1z"/>
			<path fill="#006139" d="M326.8,207.2c3.7,0,6.6,3,6.6,6.6v4.8c0,3.7-3,6.6-6.6,6.6h-2.7c-3.7,0-6.6-3-6.6-6.6v-4.8
				c0-3.7,3-6.6,6.6-6.6H326.8 M326.8,206.2h-2.7c-4.2,0-7.6,3.4-7.6,7.6v4.8c0,4.2,3.4,7.6,7.6,7.6h2.7c4.2,0,7.6-3.4,7.6-7.6v-4.8
				C334.4,209.6,331,206.2,326.8,206.2L326.8,206.2z"/>
		</g>
		<g>
			<path fill="#C7C6C5" d="M346.5,207.2c3.7,0,6.6,3,6.6,6.6v4.8c0,3.7-3,6.6-6.6,6.6h-2.7c-3.7,0-6.6-3-6.6-6.6v-4.8
				c0-3.7,3-6.6,6.6-6.6H346.5 M346.5,206.2h-2.7c-4.2,0-7.6,3.4-7.6,7.6v4.8c0,4.2,3.4,7.6,7.6,7.6h2.7c4.2,0,7.6-3.4,7.6-7.6v-4.8
				C354.2,209.6,350.8,206.2,346.5,206.2L346.5,206.2z"/>
		</g>
	</g>
	<path fill="#AC1737" d="M54.8,109.6c0.4,0.2,0.6,0.8,0.4,1.2l-14.9,29.5c-0.2,0.4-0.8,0.6-1.2,0.4c-0.4-0.2-0.6-0.8-0.4-1.2
		L53.6,110C53.8,109.6,54.4,109.4,54.8,109.6z"/>
	<g>
		<path fill="#AC1737" d="M28.1,139.3c0-4.2,3.4-7.6,7.7-7.6h3.9c4.2,0,7.7,3.4,7.7,7.6v5.5c0,4.2-3.4,7.7-7.7,7.7h-3.9
			c-4.2,0-7.7-3.4-7.7-7.7V139.3L28.1,139.3z"/>
		<g>
			<path fill="#FFFFFF" d="M33.2,138.4c0-0.5,0.4-0.8,0.9-0.8c0.5,0,0.9,0.3,0.9,0.8c0,0.5-0.4,0.8-0.9,0.8
				C33.5,139.2,33.2,138.9,33.2,138.4z M33.3,140.3h1.5v6.2h-1.5V140.3z"/>
			<path fill="#FFFFFF" d="M37.3,145.4h1.8V140h-1.5v-0.9c0.8-0.2,1.4-0.4,1.9-0.7h1.1v6.9h1.6v1.2h-4.9V145.4z"/>
		</g>
	</g>
	<path fill="#AC1737" d="M132.4,119.5c0.5,0.2,0.7,0.7,0.5,1.1l-11.7,30.9c-0.2,0.5-0.7,0.7-1.1,0.5c-0.5-0.2-0.7-0.7-0.5-1.1
		l11.7-30.9C131.4,119.6,131.9,119.3,132.4,119.5z"/>
	<path fill="#AC1737" d="M183.3,155.3c0.5,0,0.9,0.4,0.9,0.9l0,30c0,0.5-0.4,0.9-0.9,0.9s-0.9-0.4-0.9-0.9l0-30
		C182.5,155.7,182.8,155.3,183.3,155.3z"/>
	<path fill="#AC1737" d="M395.8,101.3c0.4,0.3,0.4,0.9,0.1,1.2l-20.6,25.8c-0.3,0.4-0.9,0.4-1.2,0.1s-0.4-0.9-0.1-1.2l20.6-25.8
		C394.9,101.1,395.4,101,395.8,101.3z"/>
	<g>
		<path fill="#AC1737" d="M123.7,115.8c0-4.2,3.4-7.7,7.6-7.7h5c4.2,0,7.7,3.4,7.7,7.7v5.1c0,4.2-3.4,7.7-7.7,7.7h-5
			c-4.2,0-7.6-3.4-7.6-7.7V115.8L123.7,115.8z"/>
		<g>
			<path fill="#FFFFFF" d="M129.3,114.6c0-0.5,0.4-0.8,0.9-0.8c0.5,0,0.9,0.3,0.9,0.8c0,0.5-0.4,0.8-0.9,0.8
				C129.7,115.5,129.3,115.1,129.3,114.6z M129.5,116.5h1.5v6.2h-1.5V116.5z"/>
			<path fill="#FFFFFF" d="M133,121.9c2.2-2.2,3.7-3.6,3.7-4.8c0-0.9-0.5-1.4-1.3-1.4c-0.6,0-1.1,0.4-1.6,0.9l-0.8-0.8
				c0.7-0.8,1.5-1.2,2.6-1.2c1.5,0,2.6,1,2.6,2.5c0,1.4-1.3,2.9-2.9,4.6c0.4,0,1-0.1,1.3-0.1h2v1.2H133V121.9z"/>
		</g>
	</g>
	<g>
		<path fill="#AC1737" d="M174.4,192.8c0-4.2,3.4-7.6,7.6-7.6h2.7c4.2,0,7.6,3.4,7.6,7.6v4.8c0,4.2-3.4,7.6-7.6,7.6H182
			c-4.2,0-7.6-3.4-7.6-7.6V192.8L174.4,192.8z"/>
		<g>
			<path fill="#FFFFFF" d="M181.2,197.3c0.6,0.6,1.4,0.9,2.2,0.9c0.9,0,1.4-0.4,1.4-1.1c0-0.7-0.5-0.9-1.3-1.2l-1.1-0.5
				c-0.8-0.3-1.7-1-1.7-2.2c0-1.3,1.2-2.3,2.8-2.3c1,0,1.9,0.4,2.6,1.1l-0.8,0.9c-0.5-0.4-1.1-0.7-1.8-0.7c-0.8,0-1.3,0.4-1.3,1
				c0,0.6,0.6,0.9,1.3,1.2l1.1,0.5c1,0.4,1.7,1,1.7,2.2c0,1.3-1.1,2.5-3,2.5c-1.1,0-2.2-0.4-3-1.2L181.2,197.3z"/>
		</g>
	</g>
	<g>
		<path fill="#AC1737" d="M311.9,189.3c0-4.2,3.4-7.6,7.7-7.6h11.7c4.2,0,7.6,3.4,7.6,7.6v4.8c0,4.2-3.4,7.6-7.6,7.6h-11.7
			c-4.2,0-7.7-3.4-7.7-7.6V189.3L311.9,189.3z"/>
		<g>
			<path fill="#FFFFFF" d="M319.5,187.5h5v1.2h-3.5v2.3h3v1.2h-3v3.5h-1.5V187.5z"/>
			<path fill="#FFFFFF" d="M326.5,187.5h1.5v7.1h3.4v1.2h-4.9V187.5z"/>
		</g>
	</g>
</g>
<g id="textos_y_numeros">
	<g>
		<g>
			<path fill="#7B7C7D" d="M383.5,147.2h1.6v7.8h3.8v1.4h-5.5V147.2z"/>
			<path fill="#7B7C7D" d="M394.2,152c0-0.7-0.3-1.4-1.3-1.4c-0.7,0-1.3,0.3-1.9,0.7l-0.6-1.1c0.8-0.5,1.7-0.9,2.8-0.9
				c1.7,0,2.6,1.1,2.6,3v4.1h-1.3l-0.1-0.8h0c-0.6,0.5-1.3,0.9-2.1,0.9c-1.2,0-2.1-0.8-2.1-2C390.1,153.1,391.4,152.3,394.2,152z
				 M392.7,155.4c0.6,0,1-0.3,1.5-0.8V153c-1.9,0.2-2.5,0.7-2.5,1.4C391.7,155.1,392.1,155.4,392.7,155.4z"/>
			<path fill="#7B7C7D" d="M404.6,147.1c1.1,0,2,0.6,2.6,1.2l-0.9,1c-0.5-0.5-1-0.8-1.7-0.8c-1.5,0-2.6,1.3-2.6,3.3
				c0,2.1,1,3.4,2.5,3.4c0.8,0,1.4-0.3,1.9-0.9l0.9,1c-0.7,0.9-1.7,1.3-2.9,1.3c-2.3,0-4.2-1.7-4.2-4.8
				C400.3,148.9,402.2,147.1,404.6,147.1z"/>
			<path fill="#7B7C7D" d="M412.5,152c0-0.7-0.3-1.4-1.3-1.4c-0.7,0-1.3,0.3-1.9,0.7l-0.6-1.1c0.8-0.5,1.7-0.9,2.8-0.9
				c1.7,0,2.6,1.1,2.6,3v4.1h-1.3l-0.1-0.8h0c-0.6,0.5-1.3,0.9-2.1,0.9c-1.2,0-2.1-0.8-2.1-2C408.5,153.1,409.7,152.3,412.5,152z
				 M411,155.4c0.6,0,1-0.3,1.5-0.8V153c-1.9,0.2-2.5,0.7-2.5,1.4C410.1,155.1,410.5,155.4,411,155.4z"/>
			<path fill="#7B7C7D" d="M416,147.4c0-0.6,0.4-0.9,1-0.9c0.6,0,1,0.4,1,0.9c0,0.5-0.4,0.9-1,0.9C416.4,148.3,416,147.9,416,147.4z
				 M416.1,149.5h1.6v6.9h-1.6V149.5z"/>
			<path fill="#7B7C7D" d="M421.2,152.8l-2.1-3.3h1.8l0.8,1.3c0.2,0.4,0.4,0.8,0.6,1.2h0.1c0.2-0.4,0.4-0.8,0.5-1.2l0.7-1.3h1.7
				l-2,3.5l2.2,3.4h-1.8l-0.8-1.4c-0.2-0.4-0.5-0.8-0.7-1.2H422c-0.2,0.4-0.4,0.8-0.6,1.2l-0.7,1.4H419L421.2,152.8z"/>
			<path fill="#7B7C7D" d="M430.4,152c0-0.7-0.3-1.4-1.3-1.4c-0.7,0-1.3,0.3-1.9,0.7l-0.6-1.1c0.8-0.5,1.7-0.9,2.8-0.9
				c1.7,0,2.6,1.1,2.6,3v4.1h-1.3l-0.1-0.8h0c-0.6,0.5-1.3,0.9-2.1,0.9c-1.2,0-2.1-0.8-2.1-2C426.3,153.1,427.6,152.3,430.4,152z
				 M428.9,155.4c0.6,0,1-0.3,1.5-0.8V153c-1.9,0.2-2.5,0.7-2.5,1.4C427.9,155.1,428.3,155.4,428.9,155.4z"/>
		</g>
	</g>
	<g>
		<g>
			<path fill="#7B7C7D" d="M190.9,30.8h-1.1v2.3h-1.5v-2.3h-4v-1.1l3.6-5.6h1.9v5.4h1.1V30.8z M188.3,29.6v-2c0-0.5,0-1.3,0.1-1.9
				h-0.1c-0.2,0.5-0.5,0.9-0.7,1.4l-1.6,2.5H188.3z"/>
		</g>
	</g>
	<g>
		<g>
			<path fill="#7B7C7D" d="M179.4,121.5h-4.2v-1.4h6v1c-2.1,2.6-2.5,4.5-2.6,8h-1.7C177,125.9,177.6,123.9,179.4,121.5z"/>
		</g>
	</g>
	<g>
		<g>
			<path fill="#7B7C7D" d="M255,31.2c0.3,0.4,0.9,0.7,1.4,0.7c1.1,0,2-0.8,2.1-3.3c-0.5,0.6-1.3,1-2,1c-1.5,0-2.6-0.9-2.6-2.8
				c0-1.8,1.3-2.9,2.8-2.9c1.8,0,3.2,1.4,3.2,4.4c0,3.5-1.7,4.9-3.5,4.9c-1.1,0-1.9-0.5-2.4-1L255,31.2z M258.5,27.4
				c-0.2-1.6-0.8-2.3-1.7-2.3c-0.7,0-1.3,0.6-1.3,1.7c0,1.1,0.5,1.6,1.4,1.6C257.4,28.4,258,28.1,258.5,27.4z"/>
		</g>
	</g>
	<g>
		<g>
			<path fill="#7B7C7D" d="M409.9,115.6h2v-5.9h-1.7v-1c0.9-0.2,1.5-0.4,2.1-0.7h1.2v7.6h1.8v1.3h-5.4V115.6z"/>
			<path fill="#7B7C7D" d="M416.6,112.4c0-3,1.2-4.6,3-4.6s3,1.6,3,4.6c0,3-1.2,4.7-3,4.7S416.6,115.5,416.6,112.4z M421.2,112.4
				c0-2.5-0.6-3.3-1.5-3.3c-0.9,0-1.5,0.8-1.5,3.3c0,2.5,0.6,3.4,1.5,3.4C420.6,115.9,421.2,115,421.2,112.4z"/>
		</g>
	</g>
	<g>
		<g>
			<path fill="#7B7C7D" d="M358.9,55.4h2v-5.9h-1.7v-1c0.9-0.2,1.5-0.4,2.1-0.7h1.2v7.6h1.8v1.3h-5.4V55.4z"/>
			<path fill="#7B7C7D" d="M366.1,55.4h2v-5.9h-1.7v-1c0.9-0.2,1.5-0.4,2.1-0.7h1.2v7.6h1.8v1.3h-5.4V55.4z"/>
		</g>
	</g>
	<g>
		<g>
			<path fill="#7B7C7D" d="M479.6,61.4h2v-5.9h-1.7v-1c0.9-0.2,1.5-0.4,2.1-0.7h1.2v7.6h1.8v1.3h-5.4V61.4z"/>
			<path fill="#7B7C7D" d="M486.3,61.8c2.5-2.4,4.1-4,4.1-5.4c0-0.9-0.5-1.6-1.5-1.6c-0.7,0-1.3,0.5-1.8,1l-0.9-0.9
				c0.8-0.9,1.6-1.4,2.9-1.4c1.7,0,2.8,1.1,2.8,2.8c0,1.6-1.5,3.2-3.3,5.1c0.5,0,1.1-0.1,1.5-0.1h2.2v1.4h-6.1V61.8z"/>
		</g>
	</g>
	<g>
		<g>
			<path fill="#7B7C7D" d="M484.5,178.6h2v-5.9h-1.7v-1c0.9-0.2,1.5-0.4,2.1-0.7h1.2v7.6h1.8v1.3h-5.4V178.6z"/>
			<path fill="#7B7C7D" d="M491.8,177.8c0.5,0.6,1.2,1,2.1,1c1,0,1.7-0.5,1.7-1.4c0-0.9-0.6-1.5-2.6-1.5v-1.2c1.8,0,2.3-0.6,2.3-1.4
				c0-0.7-0.5-1.2-1.3-1.2c-0.7,0-1.3,0.3-1.8,0.8l-0.8-1c0.8-0.7,1.6-1.1,2.7-1.1c1.7,0,2.9,0.8,2.9,2.4c0,1-0.6,1.7-1.6,2.1v0.1
				c1.1,0.3,1.9,1,1.9,2.2c0,1.6-1.4,2.6-3.1,2.6c-1.5,0-2.4-0.6-3-1.3L491.8,177.8z"/>
		</g>
	</g>
	<g>
		<g>
			<path fill="#7B7C7D" d="M213.8,120.3L213.8,120.3c-0.7-0.5-1.2-1.2-1.2-2.2c0-1.5,1.2-2.4,2.7-2.4c1.6,0,2.6,1,2.6,2.4
				c0,0.9-0.6,1.6-1.2,2.1v0.1c0.8,0.5,1.6,1.1,1.6,2.3c0,1.4-1.2,2.4-3,2.4c-1.8,0-3-1-3-2.5C212.2,121.5,213,120.8,213.8,120.3z
				 M215.3,124c0.9,0,1.5-0.5,1.5-1.3c0-1-0.9-1.3-2.2-1.8c-0.6,0.4-1,1-1,1.7C213.6,123.4,214.4,124,215.3,124z M216.6,118.3
				c0-0.8-0.5-1.4-1.3-1.4c-0.7,0-1.2,0.5-1.2,1.2c0,0.9,0.8,1.3,1.8,1.7C216.3,119.4,216.6,118.9,216.6,118.3z"/>
		</g>
	</g>
	<g>
		<g>
			<path fill="#7B7C7D" d="M438.6,33.4h5.5v1.4h-3.9v2.4h3.3v1.4h-3.3v2.7h4.1v1.4h-5.7V33.4z"/>
			<path fill="#7B7C7D" d="M446,35.7h1.6v4.1c0,1.1,0.3,1.6,1.1,1.6c0.6,0,1-0.3,1.5-1v-4.7h1.6v6.9h-1.3l-0.1-1h0
				c-0.6,0.7-1.3,1.2-2.2,1.2c-1.5,0-2.1-1-2.1-2.8V35.7z"/>
			<path fill="#7B7C7D" d="M453.9,35.7h1.3l0.1,1.2h0.1c0.5-0.9,1.2-1.4,2-1.4c0.4,0,0.6,0,0.8,0.1l-0.3,1.4
				c-0.2-0.1-0.4-0.1-0.7-0.1c-0.6,0-1.2,0.4-1.6,1.4v4.2h-1.6V35.7z"/>
			<path fill="#7B7C7D" d="M462,35.6c1.7,0,3.3,1.3,3.3,3.6c0,2.3-1.6,3.6-3.3,3.6c-1.7,0-3.3-1.3-3.3-3.6
				C458.7,36.9,460.3,35.6,462,35.6z M462,41.5c1,0,1.6-0.9,1.6-2.3c0-1.4-0.6-2.3-1.6-2.3c-1,0-1.6,0.9-1.6,2.3
				C460.3,40.6,461,41.5,462,41.5z"/>
			<path fill="#7B7C7D" d="M468.5,43.2v2.2h-1.6v-9.7h1.3l0.1,0.7h0.1c0.6-0.5,1.3-0.9,2.1-0.9c1.7,0,2.7,1.4,2.7,3.5
				c0,2.4-1.4,3.7-3,3.7c-0.6,0-1.2-0.3-1.8-0.8L468.5,43.2z M469.9,41.5c0.9,0,1.6-0.8,1.6-2.4c0-1.4-0.5-2.2-1.5-2.2
				c-0.5,0-1,0.3-1.5,0.8v3.2C469,41.3,469.5,41.5,469.9,41.5z"/>
			<path fill="#7B7C7D" d="M477.9,35.6c0.9,0,1.6,0.4,2,0.8l-0.8,1c-0.4-0.3-0.7-0.5-1.2-0.5c-1.1,0-1.9,0.9-1.9,2.3
				c0,1.4,0.8,2.3,1.8,2.3c0.6,0,1-0.3,1.4-0.6l0.7,1c-0.6,0.6-1.5,0.9-2.3,0.9c-1.9,0-3.3-1.3-3.3-3.6
				C474.4,36.9,476,35.6,477.9,35.6z"/>
			<path fill="#7B7C7D" d="M485.1,38.2c0-0.7-0.3-1.4-1.3-1.4c-0.7,0-1.3,0.3-1.9,0.7l-0.6-1.1c0.8-0.5,1.7-0.9,2.8-0.9
				c1.7,0,2.6,1.1,2.6,3v4.1h-1.3l-0.1-0.8h0c-0.6,0.5-1.3,0.9-2.1,0.9c-1.2,0-2.1-0.8-2.1-2C481.1,39.3,482.3,38.5,485.1,38.2z
				 M483.6,41.6c0.6,0,1-0.3,1.5-0.8v-1.6c-1.9,0.2-2.5,0.7-2.5,1.4C482.6,41.3,483.1,41.6,483.6,41.6z"/>
			<path fill="#7B7C7D" d="M488.7,35.7h1.3l0.1,1.2h0.1c0.5-0.9,1.2-1.4,2-1.4c0.4,0,0.6,0,0.8,0.1l-0.3,1.4
				c-0.2-0.1-0.4-0.1-0.7-0.1c-0.6,0-1.2,0.4-1.6,1.4v4.2h-1.6V35.7z"/>
		</g>
	</g>
	<g>
		<g>
			<path fill="#7B7C7D" d="M439.4,181.2c1.1,0,2,0.6,2.6,1.2l-0.9,1c-0.5-0.5-1-0.8-1.7-0.8c-1.5,0-2.6,1.3-2.6,3.3
				c0,2.1,1,3.4,2.5,3.4c0.8,0,1.4-0.3,1.9-0.9l0.9,1c-0.7,0.9-1.7,1.3-2.9,1.3c-2.3,0-4.2-1.7-4.2-4.8
				C435.2,183,437.1,181.2,439.4,181.2z"/>
			<path fill="#7B7C7D" d="M447.4,186.2c0-0.7-0.3-1.4-1.3-1.4c-0.7,0-1.3,0.3-1.9,0.7l-0.6-1.1c0.8-0.5,1.7-0.9,2.8-0.9
				c1.7,0,2.6,1.1,2.6,3v4.1h-1.3l-0.1-0.8h0c-0.6,0.5-1.3,0.9-2.1,0.9c-1.2,0-2.1-0.8-2.1-2C443.3,187.2,444.6,186.5,447.4,186.2z
				 M445.9,189.5c0.6,0,1-0.3,1.5-0.8v-1.6c-1.9,0.2-2.5,0.7-2.5,1.4C444.9,189.2,445.3,189.5,445.9,189.5z"/>
			<path fill="#7B7C7D" d="M451.2,184.9h-1v-1.2l1.1-0.1l0.2-1.9h1.4v1.9h1.8v1.3h-1.8v3.3c0,0.8,0.3,1.2,1,1.2
				c0.2,0,0.5-0.1,0.7-0.2l0.3,1.2c-0.4,0.1-0.9,0.3-1.4,0.3c-1.6,0-2.2-1-2.2-2.5V184.9z"/>
			<path fill="#7B7C7D" d="M459.9,186.2c0-0.7-0.3-1.4-1.3-1.4c-0.7,0-1.3,0.3-1.9,0.7l-0.6-1.1c0.8-0.5,1.7-0.9,2.8-0.9
				c1.7,0,2.6,1.1,2.6,3v4.1h-1.3l-0.1-0.8h0c-0.6,0.5-1.3,0.9-2.1,0.9c-1.2,0-2.1-0.8-2.1-2C455.8,187.2,457,186.5,459.9,186.2z
				 M458.4,189.5c0.6,0,1-0.3,1.5-0.8v-1.6c-1.9,0.2-2.5,0.7-2.5,1.4C457.4,189.2,457.8,189.5,458.4,189.5z"/>
			<path fill="#7B7C7D" d="M463.5,180.6h1.6v8.3c0,0.4,0.2,0.5,0.4,0.5c0.1,0,0.1,0,0.3,0l0.2,1.2c-0.2,0.1-0.5,0.1-0.9,0.1
				c-1.2,0-1.6-0.7-1.6-1.9V180.6z"/>
			<path fill="#7B7C7D" d="M467.2,183.7h1.6v4.1c0,1.1,0.3,1.6,1.1,1.6c0.6,0,1-0.3,1.5-1v-4.7h1.6v6.9h-1.3l-0.1-1h0
				c-0.6,0.7-1.3,1.2-2.2,1.2c-1.5,0-2.1-1-2.1-2.8V183.7z"/>
			<path fill="#7B7C7D" d="M475.1,183.7h1.3l0.1,0.9h0.1c0.6-0.6,1.3-1.1,2.3-1.1c1.5,0,2.1,1,2.1,2.8v4.3h-1.6v-4.1
				c0-1.1-0.3-1.6-1.1-1.6c-0.6,0-1,0.3-1.6,0.9v4.8h-1.6V183.7z"/>
			<path fill="#7B7C7D" d="M483.4,192.1c0.7,0,1.2-0.5,1.4-1.2l0.1-0.4l-2.7-6.8h1.7l1.2,3.4c0.2,0.6,0.4,1.3,0.6,1.9h0.1
				c0.2-0.6,0.4-1.3,0.5-1.9l1-3.4h1.6l-2.5,7.2c-0.6,1.6-1.3,2.5-2.8,2.5c-0.4,0-0.6-0.1-0.9-0.1l0.3-1.3
				C483,192.1,483.2,192.1,483.4,192.1z"/>
			<path fill="#7B7C7D" d="M493.8,186.2c0-0.7-0.3-1.4-1.3-1.4c-0.7,0-1.3,0.3-1.9,0.7l-0.6-1.1c0.8-0.5,1.7-0.9,2.8-0.9
				c1.7,0,2.6,1.1,2.6,3v4.1h-1.3l-0.1-0.8h0c-0.6,0.5-1.3,0.9-2.1,0.9c-1.2,0-2.1-0.8-2.1-2C489.7,187.2,491,186.5,493.8,186.2z
				 M492.3,189.5c0.6,0,1-0.3,1.5-0.8v-1.6c-1.9,0.2-2.5,0.7-2.5,1.4C491.3,189.2,491.7,189.5,492.3,189.5z"/>
		</g>
	</g>
	<g>
		<g>
			<path fill="#7B7C7D" d="M78.7,193.2h2v-5.9h-1.7v-1c0.9-0.2,1.5-0.4,2.1-0.7h1.2v7.6h1.8v1.3h-5.4V193.2z"/>
		</g>
	</g>
	<g>
		<g>
			<path fill="#7B7C7D" d="M59.5,152.2c2.5-2.4,4.1-4,4.1-5.4c0-0.9-0.5-1.6-1.5-1.6c-0.7,0-1.3,0.5-1.8,1l-0.9-0.9
				c0.8-0.9,1.6-1.4,2.9-1.4c1.7,0,2.8,1.1,2.8,2.8c0,1.6-1.5,3.2-3.3,5.1c0.5,0,1.1-0.1,1.5-0.1h2.2v1.4h-6.1V152.2z"/>
		</g>
	</g>
	<g>
		<g>
			<path fill="#7B7C7D" d="M4.1,85c0.5,0.6,1.2,1,2.1,1c1,0,1.7-0.5,1.7-1.4c0-0.9-0.6-1.5-2.6-1.5v-1.2c1.8,0,2.3-0.6,2.3-1.4
				c0-0.7-0.5-1.2-1.3-1.2c-0.7,0-1.3,0.3-1.8,0.8l-0.8-1C4.4,78.4,5.3,78,6.3,78c1.7,0,2.9,0.8,2.9,2.4c0,1-0.6,1.7-1.6,2.1v0.1
				c1.1,0.3,1.9,1,1.9,2.2c0,1.6-1.4,2.6-3.1,2.6c-1.5,0-2.4-0.6-3-1.3L4.1,85z"/>
		</g>
	</g>
	<g>
		<g>
			<path fill="#7B7C7D" d="M58.8,86.8c0.5,0.5,1.2,1,2.1,1c1,0,1.7-0.6,1.7-1.7c0-1.1-0.7-1.7-1.7-1.7c-0.6,0-0.9,0.2-1.4,0.5
				l-0.8-0.5l0.3-4.4h4.8v1.4h-3.4l-0.2,2.2c0.4-0.2,0.7-0.3,1.2-0.3c1.5,0,2.8,0.9,2.8,2.8c0,2-1.5,3.1-3.2,3.1
				c-1.5,0-2.4-0.6-3.1-1.2L58.8,86.8z"/>
		</g>
	</g>
	<g>
		<g>
			<path fill="#7B7C7D" d="M130.8,152c-0.3-0.4-0.9-0.7-1.4-0.7c-1.1,0-2,0.8-2.1,3.3c0.5-0.7,1.3-1.1,1.9-1.1
				c1.6,0,2.6,0.9,2.6,2.8c0,1.8-1.3,2.9-2.8,2.9c-1.8,0-3.3-1.4-3.3-4.4c0-3.5,1.7-4.9,3.5-4.9c1.1,0,1.9,0.5,2.4,1L130.8,152z
				 M130.3,156.4c0-1.1-0.5-1.6-1.4-1.6c-0.5,0-1.1,0.3-1.6,1c0.2,1.6,0.8,2.3,1.7,2.3C129.7,158.1,130.3,157.5,130.3,156.4z"/>
		</g>
	</g>
</g>
</svg>
