<?xml version="1.0" encoding="utf-8"?>
<!-- Generator: Adobe Illustrator 18.1.0, SVG Export Plug-In . SVG Version: 6.00 Build 0)  -->
<!DOCTYPE svg PUBLIC "-//W3C//DTD SVG 1.0//EN" "http://www.w3.org/TR/2001/REC-SVG-20010904/DTD/svg10.dtd">
<svg version="1.0" xmlns="http://www.w3.org/2000/svg" xmlns:xlink="http://www.w3.org/1999/xlink" x="0px" y="0px"
	 viewBox="0 0 504 251" enable-background="new 0 0 504 251" xml:space="preserve">
<g id="trazado">
	<path fill="#B7B5B6" d="M234.6,182l-2-16.8l0.1,0.3c-0.1-0.2-1.5-5.5,3.7-10.6c4.1-4,8.4-3.9,8.6-3.9c-0.2,0,94.7-6,94.7-6l0.1,0
		l0.1,0c0,0,1.9,0,3.9-2c0.8-0.9,0.9-3,0.8-4c0-0.1-0.4-8.3-0.4-8.3c0-0.3-0.3-7.8,5.3-11.3c5.1-3.2,7.5-3.4,11.2-2.8l42.2,5.4
		c0.2,0,4.9,0.5,7.7-4.6c2.8-5.1-1.4-9.6-1.6-9.8l0.3,0.3l-80.1-50.6c-0.1-0.1-3.3-1.9-5.8-0.1c-2.8,2.1-3.7,3.8-3.3,6.3
		c0.7,3.9,1.1,7.5,1.1,7.5c0,0.3,0.7,6.8-4,11.6c-4.3,4.4-7.9,4.2-11.8,4l-1.4-0.1c-4.5-0.2-31.9-3-33.1-3.1
		c-0.1,0-7.4-0.2-11.4-10.6c-3.9-9.9,3.7-17.1,8-19c2.7-1.2,13.7-5.3,14.2-5.4l-0.3,0.1c0.1-0.1,3.3-2.1,2.4-5.5
		c-1.3-4.9-3.4-14.1-3.5-14.5c-0.3-1.5-1.5-4.6-3.1-5c-0.4-0.1-0.8-0.2-1.2-0.3c-2.3-0.7-3.1-0.9-5.4,1c-0.1,0.1-66,48.2-66,48.2
		c-0.8,0.7-3.1,3.1-2.8,5.2c0.4,3,1.2,3.7,2.2,4.6c1.1,1,13.5,12.7,14,13.2l0.1,0.1l0.1,0.1c0.2,0.2,5.3,6.2,3.8,13.2
		c-1.4,6.8-4.6,9.1-7.7,10.8c-3.6,2-76.9,37.7-80,39.2c-0.3,0.1-6.3,2.8-11.4,4.1c-5.1,1.3-12.2,1.6-12.5,1.6c0,0-8.7,0.7-8.7,0.7
		c-0.2,0-6.3,0.8-9.2,7.5c-3.1,7-1.1,10.2,1.2,14c2,3.4,5.8,5.2,7.7,5.2c2.4,0,119.9,0.3,121.1,0.3c0.1,0,5.1,0,9.8-4.3
		c3.3-2.9,2.5-5.5,2.5-5.6l0-0.1C234.6,182.2,234.6,182,234.6,182L234.6,182z M312,73.2c0-0.1-0.7-7-1.1-10.9
		c-0.4-5.1,3.8-9.4,4.3-9.9c1.1-1.1,3.8-3.8,8.5-5.1c5-1.4,11,2.3,11.6,2.7c13,8.2,77.7,49.3,79.8,51.1c7.3,6.6,5.8,15.7,4,19.6
		c-6.3,12.2-17.3,10.8-17.8,10.7l-40.9-5.6c-2.6-0.3-3.7,0-5.6,1.3c-1.2,0.8-1.6,3.2-1.6,4l0-0.2l0.7,7.6l0-0.2c0,0.2,1,5-2.8,10.5
		c-4,5.7-10.8,5.5-11.1,5.5c-0.8,0.1-91.6,5.5-93,5.6c-1.3,0.1-2.2,0.2-4.2,1.7c-1.6,1.2-1.2,3.2-1.2,3.3c0.3,1.7,2.5,15.7,2.7,17.2
		c0.1,1.1,0.3,7-6.8,13.4c-6.4,5.9-15.8,5.8-16.2,5.8c0,0-72.8-0.1-72.8-0.1c-0.3,0-30.5-0.3-42.9-0.2c-14,0.2-20.2-10.7-20.5-11.1
		c-1.1-2-6.3-12.4-0.8-21.9c5.4-9.3,12.6-11.7,17.6-12.7c2.2-0.4,4.8-0.5,7.7-0.5c3.4-0.1,6.9-0.1,9.9-0.8c3.6-0.8,11.3-3.9,11.4-4
		c26.5-12.9,77.4-37.7,78.8-38.5c0.2-0.1,0.4-0.2,0.6-0.3c1.1-0.6,1.8-0.9,2.7-4c0.9-3.1-1.4-5.1-1.5-5.2
		c-0.1-0.1-11.9-11.4-11.9-11.4l0.2,0.2c-0.2-0.2-5.9-4.4-7.1-11.1c-1.7-9.7,6.3-15,6.6-15.2c-0.1,0.1,66.1-48.4,66.1-48.4
		c4.4-3.2,9.5-3.7,15.3-1.5c6.5,2.5,8.2,9,8.2,9.3c0,0,3.8,16.1,3.8,16.1l-0.1-0.2c0.1,0.2,1.6,4.7-0.6,9.9
		c-2.9,6.4-7.9,7.6-8.1,7.6l0.3-0.1L270.4,63c-0.3,0.1-3,1.4-2.5,5.9c0.5,4.6,5.1,5.5,5.3,5.5c-0.1,0,34.7,3.3,34.7,3.3l-0.3,0
		c4.1-0.3,4.5-4.4,4.5-4.9L312,73.2L312,73.2z"/>
</g>
<g id="PUNTOS_INTERMEDIOS_Y_SEMAFORO">
	<path fill="#AC1737" d="M126.9,175c0.5,0,0.9,0.4,0.9,0.9l0.2,33c0,0.5-0.4,0.9-0.9,0.9c-0.5,0-0.9-0.4-0.9-0.9l-0.2-33
		C126.1,175.4,126.5,175,126.9,175z"/>
	<path fill="#AC1737" d="M316.7,130.6c0.5,0,0.9,0.3,1,0.8l3.2,32.9c0,0.5-0.3,0.9-0.8,1s-0.9-0.3-1-0.8l-3.2-32.9
		C315.9,131.1,316.2,130.6,316.7,130.6z"/>
	<path fill="#AC1737" d="M189,106.9c-0.4-0.3-0.4-0.9,0-1.2l22.9-23.9c0.3-0.4,0.9-0.4,1.2,0s0.4,0.9,0,1.2l-22.9,23.9
		C189.9,107.2,189.3,107.2,189,106.9z"/>
	<path fill="#AC1737" d="M289.6,63.5c0-0.5,0.4-0.9,0.9-0.9l33.1,0.4c0.5,0,0.9,0.4,0.9,0.9c0,0.5-0.4,0.9-0.9,0.9l-33.1-0.4
		C290,64.3,289.6,63.9,289.6,63.5z"/>
	<g>
		<path fill="#AC1737" d="M287.9,61.2c0-4.2,3.4-7.7,7.6-7.7h5c4.2,0,7.7,3.4,7.7,7.7v5.1c0,4.2-3.4,7.7-7.7,7.7h-5
			c-4.2,0-7.6-3.4-7.6-7.7V61.2L287.9,61.2z"/>
		<g>
			<path fill="#FFFFFF" d="M293.5,60.1c0-0.5,0.4-0.8,0.9-0.8c0.5,0,0.9,0.3,0.9,0.8c0,0.5-0.4,0.8-0.9,0.8
				C293.9,60.9,293.5,60.6,293.5,60.1z M293.6,62h1.5v6.2h-1.5V62z"/>
			<path fill="#FFFFFF" d="M297.2,67.4c2.2-2.2,3.7-3.6,3.7-4.8c0-0.9-0.5-1.4-1.3-1.4c-0.6,0-1.1,0.4-1.6,0.9l-0.8-0.8
				c0.7-0.8,1.5-1.2,2.6-1.2c1.5,0,2.6,1,2.6,2.5c0,1.4-1.3,2.9-2.9,4.6c0.4,0,1-0.1,1.3-0.1h2v1.2h-5.5V67.4z"/>
		</g>
	</g>
	<g>
		<path fill="#AC1737" d="M118.8,215.4c0-4.2,3.4-7.6,7.6-7.6h2.7c4.2,0,7.6,3.4,7.6,7.6v4.8c0,4.2-3.4,7.6-7.6,7.6h-2.7
			c-4.2,0-7.6-3.4-7.6-7.6V215.4L118.8,215.4z"/>
		<g>
			<path fill="#FFFFFF" d="M125.7,219.9c0.6,0.6,1.4,0.9,2.2,0.9c0.9,0,1.4-0.4,1.4-1.1c0-0.7-0.5-0.9-1.3-1.2l-1.1-0.5
				c-0.8-0.3-1.7-1-1.7-2.2c0-1.3,1.2-2.3,2.8-2.3c1,0,1.9,0.4,2.6,1.1l-0.8,0.9c-0.5-0.4-1.1-0.7-1.8-0.7c-0.8,0-1.3,0.4-1.3,1
				c0,0.6,0.6,0.9,1.3,1.2l1.1,0.5c1,0.4,1.7,1,1.7,2.2c0,1.3-1.1,2.5-3,2.5c-1.1,0-2.2-0.4-3-1.2L125.7,219.9z"/>
		</g>
	</g>
	<g>
		<path fill="#AC1737" d="M176.5,211.3c0-4.2,3.4-7.6,7.7-7.6h11.7c4.2,0,7.6,3.4,7.6,7.6v4.8c0,4.2-3.4,7.6-7.6,7.6h-11.7
			c-4.2,0-7.7-3.4-7.7-7.6V211.3L176.5,211.3z"/>
		<g>
			<path fill="#FFFFFF" d="M184,209.5h5v1.2h-3.5v2.3h3v1.2h-3v3.5H184V209.5z"/>
			<path fill="#FFFFFF" d="M191.1,209.5h1.5v7.1h3.4v1.2h-4.9V209.5z"/>
		</g>
	</g>
	<g>
		<path fill="#AC1737" d="M182.5,99.9c0-4.2,3.4-7.6,7.7-7.6h3.9c4.2,0,7.7,3.4,7.7,7.6v5.5c0,4.2-3.4,7.7-7.7,7.7h-3.9
			c-4.2,0-7.7-3.4-7.7-7.7V99.9L182.5,99.9z"/>
		<g>
			<path fill="#FFFFFF" d="M187.5,99c0-0.5,0.4-0.8,0.9-0.8c0.5,0,0.9,0.3,0.9,0.8c0,0.5-0.4,0.8-0.9,0.8
				C187.9,99.8,187.5,99.5,187.5,99z M187.7,100.9h1.5v6.2h-1.5V100.9z"/>
			<path fill="#FFFFFF" d="M191.7,106h1.8v-5.3H192v-0.9c0.8-0.2,1.4-0.4,1.9-0.7h1.1v6.9h1.6v1.2h-4.9V106z"/>
		</g>
	</g>
	<g>
		<path fill="#AC1737" d="M309.8,169.5c0-4.2,3.4-7.7,7.6-7.7h5.1c4.2,0,7.7,3.4,7.7,7.7v5.1c0,4.2-3.4,7.6-7.7,7.6h-5.1
			c-4.2,0-7.6-3.4-7.6-7.6V169.5L309.8,169.5z"/>
		<g>
			<path fill="#FFFFFF" d="M315.4,168.3c0-0.5,0.4-0.8,0.9-0.8c0.5,0,0.9,0.3,0.9,0.8c0,0.5-0.4,0.8-0.9,0.8
				C315.8,169.1,315.4,168.8,315.4,168.3z M315.6,170.2h1.5v6.2h-1.5V170.2z"/>
			<path fill="#FFFFFF" d="M319.6,174.5c0.5,0.5,1.1,0.9,1.9,0.9c0.9,0,1.5-0.5,1.5-1.2c0-0.8-0.5-1.4-2.4-1.4v-1.1
				c1.6,0,2.1-0.5,2.1-1.3c0-0.7-0.5-1.1-1.2-1.1c-0.6,0-1.1,0.3-1.6,0.8l-0.8-0.9c0.7-0.6,1.5-1,2.4-1c1.5,0,2.6,0.8,2.6,2.1
				c0,0.9-0.5,1.5-1.4,1.9v0.1c1,0.3,1.7,0.9,1.7,2c0,1.5-1.3,2.3-2.8,2.3c-1.3,0-2.2-0.5-2.7-1.1L319.6,174.5z"/>
		</g>
	</g>
	<g>
		<path fill="#7B7C7D" d="M159.5,232.9c0-4.2,3.4-7.6,7.6-7.6h45.8c4.2,0,7.6,3.4,7.6,7.6v8.3c0,4.2-3.4,7.6-7.6,7.6h-45.8
			c-4.2,0-7.6-3.4-7.6-7.6V232.9L159.5,232.9z"/>
		<g>
			<path fill="#FFFFFF" d="M208.4,246.6c-3.9,0-7.1-3.2-7.1-7.1v-4.8c0-3.9,3.2-7.1,7.1-7.1h2.7c3.9,0,7.1,3.2,7.1,7.1v4.8
				c0,3.9-3.2,7.1-7.1,7.1H208.4z"/>
			<path fill="#C7C6C5" d="M211.1,228c3.7,0,6.6,3,6.6,6.6v4.8c0,3.7-3,6.6-6.6,6.6h-2.7c-3.7,0-6.6-3-6.6-6.6v-4.8
				c0-3.7,3-6.6,6.6-6.6H211.1 M211.1,227h-2.7c-4.2,0-7.6,3.4-7.6,7.6v4.8c0,4.2,3.4,7.6,7.6,7.6h2.7c4.2,0,7.6-3.4,7.6-7.6v-4.8
				C218.8,230.4,215.3,227,211.1,227L211.1,227z"/>
		</g>
		<g>
			<defs>
				<path id="SVGID_23_" d="M200.8,234.7c0-4.2,3.4-7.6,7.6-7.6h2.7c4.2,0,7.6,3.4,7.6,7.6v4.8c0,4.2-3.4,7.6-7.6,7.6h-2.7
					c-4.2,0-7.6-3.4-7.6-7.6V234.7L200.8,234.7z"/>
			</defs>
			<clipPath id="SVGID_2_">
				<use xlink:href="#SVGID_23_"  overflow="visible"/>
			</clipPath>
			<g clip-path="url(#SVGID_2_)">
				<rect x="195.5" y="228.7" fill="#1E1E1C" width="4.2" height="4.2"/>
				<rect x="199.6" y="232.8" fill="#1E1E1C" width="4.2" height="4.2"/>
				<rect x="203.8" y="228.7" fill="#1E1E1C" width="4.2" height="4.2"/>
				<rect x="208" y="232.8" fill="#1E1E1C" width="4.2" height="4.2"/>
				<rect x="195.5" y="237" fill="#1E1E1C" width="4.2" height="4.2"/>
				<rect x="199.6" y="241.2" fill="#1E1E1C" width="4.2" height="4.2"/>
				<rect x="203.8" y="237" fill="#1E1E1C" width="4.2" height="4.2"/>
				<rect x="208" y="241.2" fill="#1E1E1C" width="4.2" height="4.2"/>
				<rect x="212.1" y="228.7" fill="#1E1E1C" width="4.2" height="4.2"/>
				<rect x="216.3" y="232.8" fill="#1E1E1C" width="4.2" height="4.2"/>
				<rect x="212.1" y="237" fill="#1E1E1C" width="4.2" height="4.2"/>
				<rect x="216.3" y="241.2" fill="#1E1E1C" width="4.2" height="4.2"/>
			</g>
		</g>
		<g>
			<path fill="#C01724" d="M168.9,246.6c-3.9,0-7.1-3.2-7.1-7.1v-4.8c0-3.9,3.2-7.1,7.1-7.1h2.7c3.9,0,7.1,3.2,7.1,7.1v4.8
				c0,3.9-3.2,7.1-7.1,7.1H168.9z"/>
			<path fill="#AA1920" d="M171.6,228c3.7,0,6.6,3,6.6,6.6v4.8c0,3.7-3,6.6-6.6,6.6h-2.7c-3.7,0-6.6-3-6.6-6.6v-4.8
				c0-3.7,3-6.6,6.6-6.6H171.6 M171.6,227h-2.7c-4.2,0-7.6,3.4-7.6,7.6v4.8c0,4.2,3.4,7.6,7.6,7.6h2.7c4.2,0,7.6-3.4,7.6-7.6v-4.8
				C179.2,230.4,175.8,227,171.6,227L171.6,227z"/>
		</g>
		<g>
			<path fill="#009548" d="M188.7,246.6c-3.9,0-7.1-3.2-7.1-7.1v-4.8c0-3.9,3.2-7.1,7.1-7.1h2.7c3.9,0,7.1,3.2,7.1,7.1v4.8
				c0,3.9-3.2,7.1-7.1,7.1H188.7z"/>
			<path fill="#006139" d="M191.4,228c3.7,0,6.6,3,6.6,6.6v4.8c0,3.7-3,6.6-6.6,6.6h-2.7c-3.7,0-6.6-3-6.6-6.6v-4.8
				c0-3.7,3-6.6,6.6-6.6H191.4 M191.4,227h-2.7c-4.2,0-7.6,3.4-7.6,7.6v4.8c0,4.2,3.4,7.6,7.6,7.6h2.7c4.2,0,7.6-3.4,7.6-7.6v-4.8
				C199,230.4,195.6,227,191.4,227L191.4,227z"/>
		</g>
		<g>
			<path fill="#C7C6C5" d="M211.1,228c3.7,0,6.6,3,6.6,6.6v4.8c0,3.7-3,6.6-6.6,6.6h-2.7c-3.7,0-6.6-3-6.6-6.6v-4.8
				c0-3.7,3-6.6,6.6-6.6H211.1 M211.1,227h-2.7c-4.2,0-7.6,3.4-7.6,7.6v4.8c0,4.2,3.4,7.6,7.6,7.6h2.7c4.2,0,7.6-3.4,7.6-7.6v-4.8
				C218.8,230.4,215.3,227,211.1,227L211.1,227z"/>
		</g>
	</g>
</g>
<g id="textos_y_numeros">
	<g>
		<g>
			<path fill="#7B7C7D" d="M239.5,95.7c0.7,0.6,1.6,1,2.4,1c1,0,1.6-0.5,1.6-1.2c0-0.8-0.6-1-1.4-1.4l-1.3-0.6
				c-0.9-0.4-1.9-1.1-1.9-2.5c0-1.5,1.3-2.6,3.1-2.6c1.1,0,2.1,0.5,2.9,1.2l-0.8,1c-0.6-0.5-1.2-0.8-2-0.8c-0.9,0-1.4,0.4-1.4,1.1
				c0,0.7,0.7,1,1.5,1.3l1.2,0.5c1.1,0.5,1.9,1.2,1.9,2.5c0,1.5-1.2,2.7-3.3,2.7c-1.2,0-2.4-0.5-3.3-1.4L239.5,95.7z"/>
			<path fill="#7B7C7D" d="M247,92.3h-1v-1.2l1.1-0.1l0.2-1.9h1.4V91h1.8v1.3h-1.8v3.3c0,0.8,0.3,1.2,1,1.2c0.2,0,0.5-0.1,0.7-0.2
				l0.3,1.2c-0.4,0.1-0.9,0.3-1.4,0.3c-1.6,0-2.2-1-2.2-2.5V92.3z"/>
			<path fill="#7B7C7D" d="M255.6,93.5c0-0.7-0.3-1.4-1.3-1.4c-0.7,0-1.3,0.3-1.9,0.7l-0.6-1.1c0.8-0.5,1.7-0.9,2.8-0.9
				c1.7,0,2.6,1.1,2.6,3V98h-1.3l-0.1-0.8h0c-0.6,0.5-1.3,0.9-2.1,0.9c-1.2,0-2.1-0.8-2.1-2C251.5,94.6,252.8,93.8,255.6,93.5z
				 M254.1,96.9c0.6,0,1-0.3,1.5-0.8v-1.6c-1.9,0.2-2.5,0.7-2.5,1.4C253.1,96.6,253.5,96.9,254.1,96.9z"/>
			<path fill="#7B7C7D" d="M261.7,90.9c0.8,0,1.3,0.3,1.8,0.8l-0.1-1.1V88h1.6v10h-1.3l-0.1-0.7h-0.1c-0.5,0.5-1.2,0.9-2,0.9
				c-1.7,0-2.9-1.3-2.9-3.6C258.8,92.2,260.2,90.9,261.7,90.9z M262,96.8c0.5,0,1-0.2,1.5-0.8v-3.2c-0.5-0.4-0.9-0.6-1.4-0.6
				c-0.9,0-1.6,0.8-1.6,2.3C260.5,96,261,96.8,262,96.8z"/>
			<path fill="#7B7C7D" d="M267,88.9c0-0.6,0.4-0.9,1-0.9c0.6,0,1,0.4,1,0.9c0,0.5-0.4,0.9-1,0.9C267.4,89.8,267,89.4,267,88.9z
				 M267.2,91h1.6V98h-1.6V91z"/>
			<path fill="#7B7C7D" d="M273.7,90.9c1.7,0,3.3,1.3,3.3,3.6c0,2.3-1.6,3.6-3.3,3.6c-1.7,0-3.3-1.3-3.3-3.6
				C270.4,92.2,272,90.9,273.7,90.9z M273.7,96.8c1,0,1.6-0.9,1.6-2.3c0-1.4-0.6-2.3-1.6-2.3c-1,0-1.6,0.9-1.6,2.3
				C272.1,95.9,272.7,96.8,273.7,96.8z"/>
			<path fill="#7B7C7D" d="M278.6,91h1.3l0.1,0.9h0.1c0.6-0.6,1.3-1.1,2.3-1.1c1.5,0,2.1,1,2.1,2.8V98h-1.6v-4.1
				c0-1.1-0.3-1.6-1.1-1.6c-0.6,0-1,0.3-1.6,0.9V98h-1.6V91z"/>
		</g>
	</g>
	<g>
		<g>
			<path fill="#7B7C7D" d="M72.9,179.7h2v-5.9h-1.7v-1c0.9-0.2,1.5-0.4,2.1-0.7h1.2v7.6h1.8v1.3h-5.4V179.7z"/>
		</g>
	</g>
	<g>
		<g>
			<path fill="#7B7C7D" d="M112.3,146.6c2.5-2.4,4.1-4,4.1-5.4c0-0.9-0.5-1.6-1.5-1.6c-0.7,0-1.3,0.5-1.8,1l-0.9-0.9
				c0.8-0.9,1.6-1.4,2.9-1.4c1.7,0,2.8,1.1,2.8,2.8c0,1.6-1.5,3.2-3.3,5.1c0.5,0,1.1-0.1,1.5-0.1h2.2v1.4h-6.1V146.6z"/>
		</g>
	</g>
	<g>
		<g>
			<path fill="#7B7C7D" d="M230,116c0.5,0.6,1.2,1,2.1,1c1,0,1.7-0.5,1.7-1.4c0-0.9-0.6-1.5-2.6-1.5v-1.2c1.8,0,2.3-0.6,2.3-1.4
				c0-0.7-0.5-1.2-1.3-1.2c-0.7,0-1.3,0.3-1.8,0.8l-0.8-1c0.8-0.7,1.6-1.1,2.7-1.1c1.7,0,2.9,0.8,2.9,2.4c0,1-0.6,1.7-1.6,2.1v0.1
				c1.1,0.3,1.9,1,1.9,2.2c0,1.6-1.4,2.6-3.1,2.6c-1.5,0-2.4-0.6-3-1.3L230,116z"/>
		</g>
	</g>
	<g>
		<g>
			<path fill="#7B7C7D" d="M186.2,77.8h-1.1v2.3h-1.5v-2.3h-4v-1.1l3.6-5.6h1.9v5.4h1.1V77.8z M183.6,76.5v-2c0-0.5,0-1.3,0.1-1.9
				h-0.1c-0.2,0.5-0.5,0.9-0.7,1.4l-1.6,2.5H183.6z"/>
		</g>
	</g>
	<g>
		<g>
			<path fill="#7B7C7D" d="M264.1,10.6c0.5,0.5,1.2,1,2.1,1c1,0,1.7-0.6,1.7-1.7c0-1.1-0.7-1.7-1.7-1.7c-0.6,0-0.9,0.2-1.4,0.5
				l-0.8-0.5l0.3-4.4h4.8v1.4h-3.4l-0.2,2.2c0.4-0.2,0.7-0.3,1.2-0.3c1.5,0,2.8,0.9,2.8,2.8c0,2-1.5,3.1-3.2,3.1
				c-1.5,0-2.4-0.6-3.1-1.2L264.1,10.6z"/>
		</g>
	</g>
	<g>
		<g>
			<path fill="#7B7C7D" d="M276.4,37.4c-0.3-0.4-0.9-0.7-1.4-0.7c-1.1,0-2,0.8-2.1,3.3c0.5-0.7,1.3-1.1,1.9-1.1
				c1.6,0,2.6,0.9,2.6,2.8c0,1.8-1.3,2.9-2.8,2.9c-1.8,0-3.3-1.4-3.3-4.4c0-3.5,1.7-4.9,3.5-4.9c1.1,0,1.9,0.5,2.4,1L276.4,37.4z
				 M275.9,41.8c0-1.1-0.5-1.6-1.4-1.6c-0.5,0-1.1,0.3-1.6,1c0.2,1.6,0.8,2.3,1.7,2.3C275.3,43.5,275.9,42.9,275.9,41.8z"/>
		</g>
	</g>
	<g>
		<g>
			<path fill="#7B7C7D" d="M254,72.5h-4.2v-1.4h6v1c-2.1,2.6-2.5,4.5-2.6,8h-1.7C251.7,76.9,252.3,74.9,254,72.5z"/>
		</g>
	</g>
	<g>
		<g>
			<path fill="#7B7C7D" d="M327.9,85.6L327.9,85.6c-0.7-0.5-1.2-1.2-1.2-2.2c0-1.5,1.2-2.4,2.7-2.4c1.6,0,2.6,1,2.6,2.4
				c0,0.9-0.6,1.6-1.2,2.1v0.1c0.8,0.5,1.6,1.1,1.6,2.3c0,1.4-1.2,2.4-3,2.4c-1.8,0-3-1-3-2.5C326.3,86.8,327.1,86.1,327.9,85.6z
				 M329.4,89.3c0.9,0,1.5-0.5,1.5-1.3c0-1-0.9-1.3-2.2-1.8c-0.6,0.4-1,1-1,1.7C327.7,88.7,328.4,89.3,329.4,89.3z M330.7,83.6
				c0-0.8-0.5-1.4-1.3-1.4c-0.7,0-1.2,0.5-1.2,1.2c0,0.9,0.8,1.3,1.8,1.7C330.4,84.7,330.7,84.2,330.7,83.6z"/>
		</g>
	</g>
	<g>
		<g>
			<path fill="#7B7C7D" d="M314.5,41.2c0.3,0.4,0.9,0.7,1.4,0.7c1.1,0,2-0.8,2.1-3.3c-0.5,0.7-1.3,1-2,1c-1.5,0-2.6-0.9-2.6-2.8
				c0-1.8,1.3-2.9,2.8-2.9c1.8,0,3.2,1.4,3.2,4.4c0,3.5-1.7,4.9-3.5,4.9c-1.1,0-1.9-0.5-2.4-1L314.5,41.2z M318,37.3
				c-0.2-1.6-0.8-2.3-1.7-2.3c-0.7,0-1.3,0.6-1.3,1.7c0,1.1,0.5,1.6,1.4,1.6C316.9,38.4,317.5,38.1,318,37.3z"/>
		</g>
	</g>
	<g>
		<g>
			<path fill="#7B7C7D" d="M424.3,128.6h2v-5.9h-1.7v-1c0.9-0.2,1.5-0.4,2.1-0.7h1.2v7.7h1.8v1.3h-5.4V128.6z"/>
			<path fill="#7B7C7D" d="M431,125.4c0-3,1.2-4.6,3-4.6s3,1.6,3,4.6c0,3-1.2,4.7-3,4.7S431,128.4,431,125.4z M435.6,125.4
				c0-2.5-0.6-3.3-1.5-3.3c-0.9,0-1.5,0.8-1.5,3.3c0,2.5,0.6,3.4,1.5,3.4C434.9,128.8,435.6,127.9,435.6,125.4z"/>
		</g>
	</g>
	<g>
		<g>
			<path fill="#7B7C7D" d="M332.8,116.8h2v-5.9h-1.7v-1c0.9-0.2,1.5-0.4,2.1-0.7h1.2v7.7h1.8v1.3h-5.4V116.8z"/>
			<path fill="#7B7C7D" d="M340,116.8h2v-5.9h-1.7v-1c0.9-0.2,1.5-0.4,2.1-0.7h1.2v7.7h1.8v1.3H340V116.8z"/>
		</g>
	</g>
	<g>
		<g>
			<path fill="#7B7C7D" d="M358.9,156h2v-5.9h-1.7v-1c0.9-0.2,1.5-0.4,2.1-0.7h1.2v7.6h1.8v1.3h-5.4V156z"/>
			<path fill="#7B7C7D" d="M365.6,156.3c2.5-2.4,4.1-4,4.1-5.4c0-0.9-0.5-1.6-1.5-1.6c-0.7,0-1.3,0.5-1.8,1l-0.9-0.9
				c0.8-0.9,1.6-1.4,2.9-1.4c1.7,0,2.8,1.1,2.8,2.8c0,1.6-1.5,3.2-3.3,5.1c0.5,0,1.1-0.1,1.5-0.1h2.2v1.4h-6.1V156.3z"/>
		</g>
	</g>
	<g>
		<g>
			<path fill="#7B7C7D" d="M215.6,152.7h2v-5.9h-1.7v-1c0.9-0.2,1.5-0.4,2.1-0.7h1.2v7.7h1.8v1.3h-5.4V152.7z"/>
			<path fill="#7B7C7D" d="M222.9,151.9c0.5,0.6,1.2,1,2.1,1c1,0,1.7-0.5,1.7-1.4c0-0.9-0.6-1.5-2.6-1.5v-1.2c1.8,0,2.3-0.6,2.3-1.4
				c0-0.7-0.5-1.2-1.3-1.2c-0.7,0-1.3,0.3-1.8,0.8l-0.8-1c0.8-0.7,1.6-1.1,2.7-1.1c1.7,0,2.9,0.8,2.9,2.4c0,1-0.6,1.7-1.6,2.1v0.1
				c1.1,0.3,1.9,1,1.9,2.2c0,1.6-1.4,2.6-3.1,2.6c-1.5,0-2.4-0.6-3-1.3L222.9,151.9z"/>
		</g>
	</g>
	<g>
		<g>
			<path fill="#7B7C7D" d="M250.2,198.3h2v-5.9h-1.7v-1c0.9-0.2,1.5-0.4,2.1-0.7h1.2v7.7h1.8v1.3h-5.4V198.3z"/>
			<path fill="#7B7C7D" d="M263.3,197.3h-1.1v2.3h-1.5v-2.3h-4v-1.1l3.6-5.6h1.9v5.4h1.1V197.3z M260.6,196.1v-2
				c0-0.5,0-1.3,0.1-1.9h-0.1c-0.2,0.5-0.5,0.9-0.7,1.4l-1.6,2.5H260.6z"/>
		</g>
	</g>
	<path fill="#7B7C7D" d="M24.4,184H30v1.4H26v2.6h3.3v1.4H26v3.9h-1.6V184z"/>
	<path fill="#7B7C7D" d="M31.4,186.3h1.3l0.1,1.2h0.1c0.5-0.9,1.2-1.4,2-1.4c0.4,0,0.6,0,0.8,0.1l-0.3,1.4c-0.2-0.1-0.4-0.1-0.7-0.1
		c-0.6,0-1.2,0.4-1.6,1.4v4.2h-1.6V186.3z"/>
	<path fill="#7B7C7D" d="M40.4,188.8c0-0.7-0.3-1.4-1.3-1.4c-0.7,0-1.3,0.3-1.9,0.7l-0.6-1.1c0.8-0.5,1.7-0.9,2.8-0.9
		c1.7,0,2.6,1.1,2.6,3v4.1h-1.3l-0.1-0.8h0c-0.6,0.5-1.3,0.9-2.1,0.9c-1.2,0-2.1-0.8-2.1-2C36.4,189.9,37.6,189.1,40.4,188.8z
		 M38.9,192.1c0.6,0,1-0.3,1.5-0.8v-1.6c-1.9,0.2-2.5,0.7-2.5,1.4C37.9,191.8,38.3,192.1,38.9,192.1z"/>
	<path fill="#7B7C7D" d="M44,186.3h1.3l0.1,0.9h0.1c0.6-0.6,1.3-1.1,2.3-1.1c1.5,0,2.1,1,2.1,2.8v4.3h-1.6v-4.1
		c0-1.1-0.3-1.6-1.1-1.6c-0.6,0-1,0.3-1.6,0.9v4.8H44V186.3z"/>
	<path fill="#7B7C7D" d="M52.2,187.6h-1v-1.2l1.1-0.1l0.2-1.9h1.4v1.9h1.8v1.3h-1.8v3.3c0,0.8,0.3,1.2,1,1.2c0.2,0,0.5-0.1,0.7-0.2
		l0.3,1.2c-0.4,0.1-0.9,0.3-1.4,0.3c-1.6,0-2.2-1-2.2-2.5V187.6z"/>
	<path fill="#7B7C7D" d="M56.8,184.1c0-0.6,0.4-0.9,1-0.9s1,0.4,1,0.9c0,0.5-0.4,0.9-1,0.9S56.8,184.7,56.8,184.1z M57,186.3h1.6
		v6.9H57V186.3z"/>
	<path fill="#7B7C7D" d="M60.8,191.4c0.6,0.5,1.2,0.8,1.9,0.8c0.7,0,1.1-0.4,1.1-0.8c0-0.6-0.7-0.8-1.5-1.1c-0.9-0.3-1.9-0.9-1.9-2
		c0-1.2,1-2.1,2.5-2.1c1,0,1.7,0.4,2.3,0.8l-0.7,1c-0.5-0.4-1-0.6-1.5-0.6c-0.7,0-1,0.3-1,0.8c0,0.5,0.7,0.8,1.4,1
		c0.9,0.4,2,0.8,2,2.1c0,1.2-0.9,2.1-2.7,2.1c-0.9,0-1.9-0.4-2.6-1L60.8,191.4z"/>
	<path fill="#7B7C7D" d="M69.5,186.1c1.9,0,2.9,1.4,2.9,3.3c0,0.3,0,0.6-0.1,0.8h-4.4c0.1,1.3,0.9,2,2,2c0.6,0,1.1-0.2,1.6-0.5
		l0.6,1c-0.7,0.4-1.5,0.7-2.4,0.7c-1.9,0-3.4-1.3-3.4-3.6C66.4,187.5,67.9,186.1,69.5,186.1z M71,189.1c0-1.1-0.5-1.8-1.4-1.8
		c-0.8,0-1.5,0.6-1.7,1.8H71z"/>
	<path fill="#7B7C7D" d="M74,183.2h1.6v6.2h0l2.6-3.2h1.8l-2.4,2.8l2.6,4.1h-1.8l-1.8-3l-1.1,1.2v1.8H74V183.2z"/>
	<g>
		<g>
			<path fill="#7B7C7D" d="M24.7,206.6c0.7,0.6,1.6,1,2.4,1c1,0,1.6-0.5,1.6-1.2c0-0.8-0.6-1-1.4-1.4l-1.3-0.6
				c-0.9-0.4-1.9-1.1-1.9-2.5c0-1.5,1.3-2.6,3.1-2.6c1.1,0,2.1,0.5,2.9,1.2l-0.8,1c-0.6-0.5-1.2-0.8-2-0.8c-0.9,0-1.4,0.4-1.4,1.1
				c0,0.7,0.7,1,1.5,1.3l1.2,0.5c1.1,0.5,1.9,1.2,1.9,2.5c0,1.5-1.2,2.7-3.3,2.7c-1.2,0-2.4-0.5-3.3-1.4L24.7,206.6z"/>
			<path fill="#7B7C7D" d="M32.1,203.3h-1V202l1.1-0.1l0.2-1.9h1.4v1.9h1.8v1.3h-1.8v3.3c0,0.8,0.3,1.2,1,1.2c0.2,0,0.5-0.1,0.7-0.2
				l0.3,1.2c-0.4,0.1-0.9,0.3-1.4,0.3c-1.6,0-2.2-1-2.2-2.5V203.3z"/>
			<path fill="#7B7C7D" d="M40.8,204.5c0-0.7-0.3-1.4-1.3-1.4c-0.7,0-1.3,0.3-1.9,0.7l-0.6-1.1c0.8-0.5,1.7-0.9,2.8-0.9
				c1.7,0,2.6,1.1,2.6,3v4.1h-1.3l-0.1-0.8h0c-0.6,0.5-1.3,0.9-2.1,0.9c-1.2,0-2.1-0.8-2.1-2C36.7,205.6,37.9,204.8,40.8,204.5z
				 M39.3,207.8c0.6,0,1-0.3,1.5-0.8v-1.6c-1.9,0.2-2.5,0.7-2.5,1.4C38.3,207.5,38.7,207.8,39.3,207.8z"/>
			<path fill="#7B7C7D" d="M44.4,207.1c0.6,0.5,1.2,0.8,1.9,0.8c0.7,0,1.1-0.4,1.1-0.8c0-0.6-0.7-0.8-1.5-1.1
				c-0.9-0.3-1.9-0.9-1.9-2c0-1.2,1-2.1,2.5-2.1c1,0,1.7,0.4,2.3,0.8l-0.7,1c-0.5-0.4-1-0.6-1.5-0.6c-0.7,0-1,0.3-1,0.8
				c0,0.5,0.7,0.8,1.4,1c0.9,0.4,2,0.8,2,2.1c0,1.2-0.9,2.1-2.7,2.1c-0.9,0-1.9-0.4-2.6-1L44.4,207.1z"/>
			<path fill="#7B7C7D" d="M50.7,203.3h-1V202l1.1-0.1l0.2-1.9h1.4v1.9h1.8v1.3h-1.8v3.3c0,0.8,0.3,1.2,1,1.2c0.2,0,0.5-0.1,0.7-0.2
				l0.3,1.2c-0.4,0.1-0.9,0.3-1.4,0.3c-1.6,0-2.2-1-2.2-2.5V203.3z"/>
			<path fill="#7B7C7D" d="M55.5,202h1.3l0.1,0.9h0.1c0.6-0.6,1.3-1.1,2.3-1.1c1.5,0,2.1,1,2.1,2.8v4.3h-1.6v-4.1
				c0-1.1-0.3-1.6-1.1-1.6c-0.6,0-1,0.3-1.6,0.9v4.8h-1.6V202z"/>
			<path fill="#7B7C7D" d="M63.8,210.4c0.7,0,1.2-0.5,1.4-1.2l0.1-0.4l-2.7-6.8h1.7l1.2,3.4c0.2,0.6,0.4,1.3,0.6,1.9h0.1
				c0.2-0.6,0.4-1.3,0.5-1.9l1-3.4h1.6l-2.5,7.2c-0.6,1.6-1.3,2.5-2.8,2.5c-0.4,0-0.6-0.1-0.9-0.1l0.3-1.3
				C63.4,210.4,63.6,210.4,63.8,210.4z"/>
		</g>
	</g>
	<g>
		<g>
			<path fill="#7B7C7D" d="M177.2,156.8h1.6v3.7h3.7v-3.7h1.6v9.2h-1.6v-4.1h-3.7v4.1h-1.6V156.8z"/>
			<path fill="#7B7C7D" d="M189.2,158.9c1.7,0,3.3,1.3,3.3,3.6c0,2.3-1.6,3.6-3.3,3.6c-1.7,0-3.3-1.3-3.3-3.6
				C185.9,160.3,187.5,158.9,189.2,158.9z M189.2,164.9c1,0,1.6-0.9,1.6-2.3c0-1.4-0.6-2.3-1.6-2.3c-1,0-1.6,0.9-1.6,2.3
				C187.6,164,188.2,164.9,189.2,164.9z"/>
			<path fill="#7B7C7D" d="M194.1,159.1h1.3l0.1,1.2h0.1c0.5-0.9,1.2-1.4,2-1.4c0.4,0,0.6,0,0.8,0.1l-0.3,1.4
				c-0.2-0.1-0.4-0.1-0.7-0.1c-0.6,0-1.2,0.4-1.6,1.4v4.2h-1.6V159.1z"/>
			<path fill="#7B7C7D" d="M199.2,157c0-0.6,0.4-0.9,1-0.9s1,0.4,1,0.9c0,0.5-0.4,0.9-1,0.9S199.2,157.5,199.2,157z M199.4,159.1
				h1.6v6.9h-1.6V159.1z"/>
			<path fill="#7B7C7D" d="M202.5,165.2l3.3-4.8h-2.9v-1.3h4.9v0.9l-3.3,4.8h3.4v1.3h-5.4V165.2z"/>
			<path fill="#7B7C7D" d="M212.2,158.9c1.7,0,3.3,1.3,3.3,3.6c0,2.3-1.6,3.6-3.3,3.6c-1.7,0-3.3-1.3-3.3-3.6
				C208.9,160.3,210.4,158.9,212.2,158.9z M212.2,164.9c1,0,1.6-0.9,1.6-2.3c0-1.4-0.6-2.3-1.6-2.3c-1,0-1.6,0.9-1.6,2.3
				C210.5,164,211.1,164.9,212.2,164.9z"/>
			<path fill="#7B7C7D" d="M217.1,159.1h1.3l0.1,0.9h0.1c0.6-0.6,1.3-1.1,2.3-1.1c1.5,0,2.1,1,2.1,2.8v4.3h-1.6v-4.1
				c0-1.1-0.3-1.6-1.1-1.6c-0.6,0-1,0.3-1.6,0.9v4.8h-1.6V159.1z"/>
			<path fill="#7B7C7D" d="M225.2,160.4h-1v-1.2l1.1-0.1l0.2-1.9h1.4v1.9h1.8v1.3h-1.8v3.3c0,0.8,0.3,1.2,1,1.2
				c0.2,0,0.5-0.1,0.7-0.2l0.3,1.2c-0.4,0.1-0.9,0.3-1.4,0.3c-1.6,0-2.2-1-2.2-2.5V160.4z"/>
		</g>
	</g>
	<g>
		<g>
			<path fill="#7B7C7D" d="M424.4,135h1.6v4.2h0l3.3-4.2h1.8l-2.8,3.6l3.3,5.6h-1.8l-2.5-4.3l-1.3,1.7v2.7h-1.6V135z"/>
			<path fill="#7B7C7D" d="M435.4,137.2c1.9,0,2.9,1.4,2.9,3.3c0,0.3,0,0.6-0.1,0.8h-4.4c0.1,1.3,0.9,2,2,2c0.6,0,1.1-0.2,1.6-0.5
				l0.5,1c-0.7,0.4-1.5,0.7-2.4,0.7c-1.9,0-3.4-1.3-3.4-3.6C432.2,138.6,433.7,137.2,435.4,137.2z M436.8,140.2
				c0-1.1-0.5-1.8-1.4-1.8c-0.8,0-1.5,0.6-1.7,1.8H436.8z"/>
			<path fill="#7B7C7D" d="M438.9,137.3h1.7l1.1,3.6c0.2,0.7,0.4,1.4,0.6,2.1h0.1c0.2-0.7,0.4-1.4,0.6-2.1l1.1-3.6h1.6l-2.4,6.9
				h-1.9L438.9,137.3z"/>
			<path fill="#7B7C7D" d="M446.6,135.2c0-0.6,0.4-0.9,1-0.9c0.6,0,1,0.4,1,0.9c0,0.5-0.4,0.9-1,0.9
				C447,136.1,446.6,135.7,446.6,135.2z M446.8,137.3h1.6v6.9h-1.6V137.3z"/>
			<path fill="#7B7C7D" d="M450.5,137.3h1.3l0.1,0.9h0.1c0.6-0.6,1.3-1.1,2.3-1.1c1.5,0,2.1,1,2.1,2.8v4.3h-1.6v-4.1
				c0-1.1-0.3-1.6-1.1-1.6c-0.6,0-1,0.3-1.6,0.9v4.8h-1.6V137.3z"/>
		</g>
	</g>
	<g>
		<g>
			<path fill="#7B7C7D" d="M424.7,153.3c0.7,0.6,1.6,1,2.4,1c1,0,1.6-0.5,1.6-1.2c0-0.8-0.6-1-1.4-1.4l-1.3-0.6
				c-0.9-0.4-1.9-1.1-1.9-2.5c0-1.5,1.3-2.6,3.1-2.6c1.1,0,2.1,0.5,2.9,1.2l-0.8,1c-0.6-0.5-1.2-0.8-2-0.8c-0.9,0-1.4,0.4-1.4,1.1
				c0,0.7,0.7,1,1.5,1.3l1.2,0.5c1.1,0.5,1.9,1.2,1.9,2.5c0,1.5-1.2,2.7-3.3,2.7c-1.2,0-2.4-0.5-3.3-1.4L424.7,153.3z"/>
			<path fill="#7B7C7D" d="M434.9,148.5c0.9,0,1.6,0.4,2,0.8l-0.8,1c-0.4-0.3-0.7-0.5-1.2-0.5c-1.1,0-1.9,0.9-1.9,2.3
				c0,1.4,0.8,2.3,1.8,2.3c0.6,0,1-0.3,1.4-0.6l0.7,1c-0.6,0.6-1.5,0.9-2.3,0.9c-1.9,0-3.3-1.3-3.3-3.6
				C431.4,149.8,433.1,148.5,434.9,148.5z"/>
			<path fill="#7B7C7D" d="M438.4,145.6h1.6v2.6l-0.1,1.3c0.6-0.6,1.3-1,2.2-1c1.5,0,2.1,1,2.1,2.8v4.3h-1.6v-4.1
				c0-1.1-0.3-1.6-1.1-1.6c-0.6,0-1,0.3-1.6,0.9v4.8h-1.6V145.6z"/>
			<path fill="#7B7C7D" d="M445.6,148.6h1.6l0.8,3.6c0.1,0.7,0.2,1.3,0.4,2h0.1c0.1-0.7,0.3-1.3,0.4-2l0.9-3.6h1.5l0.9,3.6
				c0.2,0.7,0.3,1.3,0.5,2h0.1c0.1-0.7,0.2-1.3,0.4-2l0.8-3.6h1.5l-1.8,6.9h-1.9l-0.8-3.2c-0.2-0.7-0.3-1.3-0.4-2h-0.1
				c-0.1,0.7-0.3,1.4-0.4,2l-0.8,3.2h-1.9L445.6,148.6z"/>
			<path fill="#7B7C7D" d="M460.6,151.1c0-0.7-0.3-1.4-1.3-1.4c-0.7,0-1.3,0.3-1.9,0.7l-0.6-1.1c0.8-0.5,1.7-0.9,2.8-0.9
				c1.7,0,2.6,1.1,2.6,3v4.1h-1.3l-0.1-0.8h0c-0.6,0.5-1.3,0.9-2.1,0.9c-1.2,0-2.1-0.8-2.1-2C456.5,152.2,457.8,151.4,460.6,151.1z
				 M459.1,154.5c0.6,0,1-0.3,1.5-0.8v-1.6c-1.9,0.2-2.5,0.7-2.5,1.4C458.1,154.2,458.5,154.5,459.1,154.5z"/>
			<path fill="#7B7C7D" d="M464.2,148.6h1.3l0.1,0.9h0.1c0.6-0.6,1.3-1.1,2.3-1.1c1.5,0,2.1,1,2.1,2.8v4.3h-1.6v-4.1
				c0-1.1-0.3-1.6-1.1-1.6c-0.6,0-1,0.3-1.6,0.9v4.8h-1.6V148.6z"/>
			<path fill="#7B7C7D" d="M472.4,149.9h-1v-1.2l1.1-0.1l0.2-1.9h1.4v1.9h1.8v1.3H474v3.3c0,0.8,0.3,1.2,1,1.2
				c0.2,0,0.5-0.1,0.7-0.2l0.3,1.2c-0.4,0.1-0.9,0.3-1.4,0.3c-1.6,0-2.2-1-2.2-2.5V149.9z"/>
			<path fill="#7B7C7D" d="M476.7,154.7l3.3-4.8H477v-1.3h4.9v0.9l-3.3,4.8h3.4v1.3h-5.4V154.7z"/>
		</g>
	</g>
	<g>
		<path fill="#7B7C7D" d="M60,183.2h1.6l1.3,2.1h-1.2L60,183.2z"/>
		<path fill="#7B7C7D" d="M63.7,185.3h-1.2l1.3-2.1h1.6L63.7,185.3z"/>
	</g>
	<path fill="#7B7C7D" d="M24.2,196.6h1.6l1.3,2.1h-1.2L24.2,196.6z"/>
	<path fill="#7B7C7D" d="M28.3,198.7h-1.2l1.3-2.1H30L28.3,198.7z"/>
	<g>
		<g>
			<path fill="#7B7C7D" d="M66.7,201.1h-1.2l1.3-2.1h1.6L66.7,201.1z"/>
		</g>
	</g>
</g>
</svg>
