<?xml version="1.0" encoding="utf-8"?>
<!-- Generator: Adobe Illustrator 18.1.0, SVG Export Plug-In . SVG Version: 6.00 Build 0)  -->
<!DOCTYPE svg PUBLIC "-//W3C//DTD SVG 1.0//EN" "http://www.w3.org/TR/2001/REC-SVG-20010904/DTD/svg10.dtd">
<svg version="1.0" xmlns="http://www.w3.org/2000/svg" xmlns:xlink="http://www.w3.org/1999/xlink" x="0px" y="0px"
	 viewBox="0 0 504 251" enable-background="new 0 0 504 251" xml:space="preserve">
<g id="trazado">
	<path fill="#B7B5B6" d="M144,14.9c-7.4-0.3-10.6,6.4-12,9.2c-2.1,4.4-1.6,8,1.7,10.6l7.6,5.9C152,48.8,172,64.1,177,68.3
		c3.4,2.8,13.7,11.4,18.7,19c7.4,11.3,7.5,17.3,6.9,19.8c-0.5,1.9-1.7,3.4-3.7,4.5c-2,1.1-4.6,1.6-9.1-3.4l-0.2-0.3l-0.3-0.2
		c-2.1-1.7-6-6.8-10-12.2l-4.7-6.2l-0.1-0.1c-8-9.3-17.2-18.5-22.4-22.4c-9.3-7-14.7-9.5-20-9.2c-2.9,0.2-7.4,2.1-10.8,6
		c-1.3,1.5-2.7,3.6-3.6,6.3c-0.7,2.1-1.1,4.6-0.9,7.5c0.8,12.2,10.4,18.4,16.1,22.1l0.6,0.4c5.1,3.3,11,8.4,12.6,10.2
		c1.8,2.4,13,24.1,15.6,28.9c5.8,10.4,14,6.9,18.5,7.4c7.1,0.8,6.5,9.1,9.6,16.1c6,13.4,17.3,19.5,24.9,23.6
		c13.4,7.2,30.6,11.6,48.5,12.4c12.5,0.5,114.7,3.2,116.6,3.3c12.8,1.3,14.3-1.7,15-3.1c0.1-0.2,0.2-0.4,0.3-0.8
		c0.4-1.2,1-3.6,2.2-9.1l0.6-2.5c1.1-4.9-2.5-9.2-9-10.9l-1.9-0.4c-22.6-5.1-28.7-8.3-30.4-9.8c-3.6-3.2-3.4-5.4-3.2-7.4
		c0.2-2.3,2.8-5.3,5-8c2.6-3.1,5.3-6.3,6.2-9.9c2-8.2-2.1-16-9.8-18.4c-2.5-0.8-48.9-15-54.1-16.6l-0.2-0.1c-4-1.2-14.6-4.4-20.2,2
		c-3.8,4.3-5.8,4.9-11.4,0.9c-8.5-6-77.8-60.8-89.6-70.3C176.1,34.7,150.1,15.1,144,14.9L144,14.9z M174.4,43.4
		c11.9,9.5,81.4,64.6,90,70.6c8.6,6.1,15.1,5.4,21.8-2.1c1.1-1.2,4-2.1,12.1,0.3l0.2,0.1c5.2,1.6,51.5,15.8,54,16.6
		c4.7,1.5,5.4,5.8,4.6,9.1c-0.4,1.8-2.5,4.3-4.6,6.7c-3.1,3.7-6.4,7.5-6.8,12.1c-0.3,2.7-0.9,8.2,5.8,14.1
		c4.1,3.6,14.5,7.2,33.9,11.5l1.7,0.4c2.1,0.5,3.1,1.3,3.3,1.7c-0.1,0.3-0.6,2.5-0.6,2.5c-0.4,1.9-1.2,5.2-1.7,7.1
		c-1.6,0.2-4.8,0.2-7.7-0.1l-0.2,0l-0.2,0c-1,0-104-2.7-116.5-3.3c-16.5-0.7-32.9-4.9-45.2-11.4c-6.5-3.5-18.9-11.3-23.4-24.6
		c-3.7-11-3.6-16.4-13.9-15.4c-6.1,0.6-10.6,0.2-12.4-3.6c-1.1-2.2-14.3-27.9-16.8-30.7c-2.1-2.3-8.7-8-14.2-11.6l-0.6-0.4
		c-5.1-3.3-12-7.7-12.6-16c-0.2-3.2,0.7-6,2.6-8.2c2.1-2.4,4.7-3.3,5.4-3.3c2.3-0.1,5.7,0.7,14.8,7.6c4.7,3.5,13.5,12.4,21.1,21.2
		c0.1,0.2,4.5,6,4.5,6c4.7,6.3,8.5,11.4,11.5,13.7l-0.5-0.5c7.6,8.4,14.3,7.3,18.6,5c3.6-2,6-4.7,7.1-8.3c0.1-0.4,0.3-0.8,0.4-1.2
		c1.7-6.7-1-15.4-7.9-26c-5.1-7.7-14-15.5-20.2-20.7c-5.2-4.3-24.4-19.1-36-27.9c0,0-7.4-5.7-7.4-5.7c0-0.1,0-0.2,0.1-0.3
		c0.1-0.2,0.2-0.5,0.3-0.8c2-4.3,3.3-4.8,4.4-4.8C146.9,23.8,164,35.1,174.4,43.4L174.4,43.4z"/>
</g>
<g id="PUNTOS_INTERMEDIOS_Y_SEMAFORO">
	<g>
		<path fill="#AC1737" d="M323.3,214.1c0-4.2,3.4-7.6,7.7-7.6h11.7c4.2,0,7.6,3.4,7.6,7.6v4.8c0,4.2-3.4,7.6-7.6,7.6H331
			c-4.2,0-7.7-3.4-7.7-7.6V214.1L323.3,214.1z"/>
		<g>
			<path fill="#FFFFFF" d="M330.9,212.3h5v1.2h-3.5v2.3h3v1.2h-3v3.5h-1.5V212.3z"/>
			<path fill="#FFFFFF" d="M337.9,212.3h1.5v7.1h3.4v1.2h-4.9V212.3z"/>
		</g>
	</g>
	<path fill="#AC1737" d="M306.6,85.1c0.5,0.2,0.7,0.7,0.5,1.1L294.8,117c-0.2,0.5-0.7,0.7-1.1,0.5s-0.7-0.7-0.5-1.1l12.2-30.7
		C305.6,85.2,306.1,85,306.6,85.1z"/>
	<path fill="#AC1737" d="M241.9,179.1c0.5,0.2,0.7,0.7,0.5,1.1l-12.2,30.7c-0.2,0.5-0.7,0.7-1.1,0.5c-0.5-0.2-0.7-0.7-0.5-1.1
		l12.2-30.7C240.9,179.1,241.4,178.9,241.9,179.1z"/>
	<g>
		<path fill="#AC1737" d="M293.7,86.2c0-4.2,3.4-7.7,7.6-7.7h5.1c4.2,0,7.7,3.4,7.7,7.7v5.1c0,4.2-3.4,7.6-7.7,7.6h-5.1
			c-4.2,0-7.6-3.4-7.6-7.6V86.2L293.7,86.2z"/>
		<g>
			<path fill="#FFFFFF" d="M299.3,85c0-0.5,0.4-0.8,0.9-0.8c0.5,0,0.9,0.3,0.9,0.8c0,0.5-0.4,0.8-0.9,0.8
				C299.7,85.8,299.3,85.5,299.3,85z M299.5,86.9h1.5v6.2h-1.5V86.9z"/>
			<path fill="#FFFFFF" d="M303.5,91.2c0.5,0.5,1.1,0.9,1.9,0.9c0.9,0,1.5-0.5,1.5-1.2c0-0.8-0.5-1.4-2.4-1.4v-1.1
				c1.6,0,2.1-0.5,2.1-1.3c0-0.7-0.5-1.1-1.2-1.1c-0.6,0-1.1,0.3-1.6,0.8l-0.8-0.9c0.7-0.6,1.5-1,2.4-1c1.5,0,2.6,0.8,2.6,2.1
				c0,0.9-0.5,1.5-1.4,1.9v0.1c1,0.3,1.7,0.9,1.7,2c0,1.5-1.3,2.3-2.8,2.3c-1.3,0-2.2-0.5-2.7-1.1L303.5,91.2z"/>
		</g>
	</g>
	<g>
		<path fill="#AC1737" d="M337.6,207.9c0.5,0,0.9-0.4,0.9-0.9l0.1-25.3c0-0.5-0.4-0.8-0.8-0.8l-17.7-0.1c-0.5,0-0.9,0.4-0.9,0.9
			c0,0.5,0.4,0.9,0.9,0.9l16.4,0.1c0.2,0,0.3,0.2,0.3,0.3l-0.1,24C336.8,207.5,337.2,207.9,337.6,207.9z"/>
		<path fill="#AC1737" d="M316.9,182.2c-0.4-0.2-0.4-0.7,0-0.9l3.2-1.8l3.2-1.8c0.4-0.2,0.8,0.1,0.8,0.5l0,3.7l0,3.7
			c0,0.4-0.5,0.7-0.8,0.5l-3.2-1.8L316.9,182.2z"/>
	</g>
	<g>
		<path fill="#7B7C7D" d="M307,234.2c0-4.2,3.4-7.6,7.6-7.6h45.8c4.2,0,7.6,3.4,7.6,7.6v8.3c0,4.2-3.4,7.6-7.6,7.6h-45.8
			c-4.2,0-7.6-3.4-7.6-7.6V234.2L307,234.2z"/>
		<g>
			<path fill="#FFFFFF" d="M355.9,247.9c-3.9,0-7.1-3.2-7.1-7.1V236c0-3.9,3.2-7.1,7.1-7.1h2.7c3.9,0,7.1,3.2,7.1,7.1v4.8
				c0,3.9-3.2,7.1-7.1,7.1H355.9z"/>
			<path fill="#C7C6C5" d="M358.6,229.3c3.7,0,6.6,3,6.6,6.6v4.8c0,3.7-3,6.6-6.6,6.6h-2.7c-3.7,0-6.6-3-6.6-6.6V236
				c0-3.7,3-6.6,6.6-6.6H358.6 M358.6,228.3h-2.7c-4.2,0-7.6,3.4-7.6,7.6v4.8c0,4.2,3.4,7.6,7.6,7.6h2.7c4.2,0,7.6-3.4,7.6-7.6V236
				C366.2,231.7,362.8,228.3,358.6,228.3L358.6,228.3z"/>
		</g>
		<g>
			<defs>
				<path id="SVGID_5_" d="M348.2,236c0-4.2,3.4-7.6,7.6-7.6h2.7c4.2,0,7.6,3.4,7.6,7.6v4.8c0,4.2-3.4,7.6-7.6,7.6h-2.7
					c-4.2,0-7.6-3.4-7.6-7.6V236L348.2,236z"/>
			</defs>
			<clipPath id="SVGID_2_">
				<use xlink:href="#SVGID_5_"  overflow="visible"/>
			</clipPath>
			<g clip-path="url(#SVGID_2_)">
				<rect x="342.9" y="230" fill="#1E1E1C" width="4.2" height="4.2"/>
				<rect x="347.1" y="234.1" fill="#1E1E1C" width="4.2" height="4.2"/>
				<rect x="351.3" y="230" fill="#1E1E1C" width="4.2" height="4.2"/>
				<rect x="355.5" y="234.1" fill="#1E1E1C" width="4.2" height="4.2"/>
				<rect x="342.9" y="238.3" fill="#1E1E1C" width="4.2" height="4.2"/>
				<rect x="347.1" y="242.5" fill="#1E1E1C" width="4.2" height="4.2"/>
				<rect x="351.3" y="238.3" fill="#1E1E1C" width="4.2" height="4.2"/>
				<rect x="355.5" y="242.5" fill="#1E1E1C" width="4.2" height="4.2"/>
				<rect x="359.6" y="230" fill="#1E1E1C" width="4.2" height="4.2"/>
				<rect x="363.8" y="234.1" fill="#1E1E1C" width="4.2" height="4.2"/>
				<rect x="359.6" y="238.3" fill="#1E1E1C" width="4.2" height="4.2"/>
				<rect x="363.8" y="242.5" fill="#1E1E1C" width="4.2" height="4.2"/>
			</g>
		</g>
		<g>
			<path fill="#C01724" d="M316.4,247.9c-3.9,0-7.1-3.2-7.1-7.1V236c0-3.9,3.2-7.1,7.1-7.1h2.7c3.9,0,7.1,3.2,7.1,7.1v4.8
				c0,3.9-3.2,7.1-7.1,7.1H316.4z"/>
			<path fill="#AA1920" d="M319.1,229.3c3.7,0,6.6,3,6.6,6.6v4.8c0,3.7-3,6.6-6.6,6.6h-2.7c-3.7,0-6.6-3-6.6-6.6V236
				c0-3.7,3-6.6,6.6-6.6H319.1 M319.1,228.3h-2.7c-4.2,0-7.6,3.4-7.6,7.6v4.8c0,4.2,3.4,7.6,7.6,7.6h2.7c4.2,0,7.6-3.4,7.6-7.6V236
				C326.7,231.7,323.3,228.3,319.1,228.3L319.1,228.3z"/>
		</g>
		<g>
			<path fill="#009548" d="M336.1,247.9c-3.9,0-7.1-3.2-7.1-7.1V236c0-3.9,3.2-7.1,7.1-7.1h2.7c3.9,0,7.1,3.2,7.1,7.1v4.8
				c0,3.9-3.2,7.1-7.1,7.1H336.1z"/>
			<path fill="#006139" d="M338.8,229.3c3.7,0,6.6,3,6.6,6.6v4.8c0,3.7-3,6.6-6.6,6.6h-2.7c-3.7,0-6.6-3-6.6-6.6V236
				c0-3.7,3-6.6,6.6-6.6H338.8 M338.8,228.3h-2.7c-4.2,0-7.6,3.4-7.6,7.6v4.8c0,4.2,3.4,7.6,7.6,7.6h2.7c4.2,0,7.6-3.4,7.6-7.6V236
				C346.5,231.7,343.1,228.3,338.8,228.3L338.8,228.3z"/>
		</g>
		<g>
			<path fill="#C7C6C5" d="M358.6,229.3c3.7,0,6.6,3,6.6,6.6v4.8c0,3.7-3,6.6-6.6,6.6h-2.7c-3.7,0-6.6-3-6.6-6.6V236
				c0-3.7,3-6.6,6.6-6.6H358.6 M358.6,228.3h-2.7c-4.2,0-7.6,3.4-7.6,7.6v4.8c0,4.2,3.4,7.6,7.6,7.6h2.7c4.2,0,7.6-3.4,7.6-7.6V236
				C366.2,231.7,362.8,228.3,358.6,228.3L358.6,228.3z"/>
		</g>
	</g>
	<path fill="#AC1737" d="M118.2,115.3c-0.4-0.3-0.5-0.8-0.3-1.2l18.2-27.6c0.3-0.4,0.8-0.5,1.2-0.3s0.5,0.8,0.3,1.2l-18.2,27.6
		C119.2,115.5,118.6,115.6,118.2,115.3z"/>
	<path fill="#AC1737" d="M166.2,84.8c-0.4-0.3-0.5-0.8-0.3-1.2L184.2,56c0.3-0.4,0.8-0.5,1.2-0.3c0.4,0.3,0.5,0.8,0.3,1.2
		l-18.2,27.6C167.2,84.9,166.6,85,166.2,84.8z"/>
	<g>
		<path fill="#AC1737" d="M111.3,107.4c0-4.2,3.4-7.6,7.7-7.6h3.9c4.2,0,7.7,3.4,7.7,7.6v5.5c0,4.2-3.4,7.7-7.7,7.7h-3.9
			c-4.2,0-7.7-3.4-7.7-7.7V107.4L111.3,107.4z"/>
		<g>
			<path fill="#FFFFFF" d="M116.3,106.5c0-0.5,0.4-0.8,0.9-0.8c0.5,0,0.9,0.3,0.9,0.8c0,0.5-0.4,0.8-0.9,0.8
				C116.7,107.4,116.3,107,116.3,106.5z M116.5,108.5h1.5v6.2h-1.5V108.5z"/>
			<path fill="#FFFFFF" d="M120.5,113.5h1.8v-5.3h-1.5v-0.9c0.8-0.2,1.4-0.4,1.9-0.7h1.1v6.9h1.6v1.2h-4.9V113.5z"/>
		</g>
	</g>
	<g>
		<path fill="#AC1737" d="M160,75.5c0-4.2,3.4-7.7,7.6-7.7h5c4.2,0,7.7,3.4,7.7,7.7v5.1c0,4.2-3.4,7.7-7.7,7.7h-5
			c-4.2,0-7.6-3.4-7.6-7.7V75.5L160,75.5z"/>
		<g>
			<path fill="#FFFFFF" d="M165.6,74.4c0-0.5,0.4-0.8,0.9-0.8c0.5,0,0.9,0.3,0.9,0.8c0,0.5-0.4,0.8-0.9,0.8
				C165.9,75.2,165.6,74.9,165.6,74.4z M165.7,76.3h1.5v6.2h-1.5V76.3z"/>
			<path fill="#FFFFFF" d="M169.2,81.7c2.2-2.2,3.7-3.6,3.7-4.8c0-0.9-0.5-1.4-1.3-1.4c-0.6,0-1.1,0.4-1.6,0.9l-0.8-0.8
				c0.7-0.8,1.5-1.2,2.6-1.2c1.5,0,2.6,1,2.6,2.5c0,1.4-1.3,2.9-2.9,4.6c0.4,0,1-0.1,1.3-0.1h2v1.2h-5.5V81.7z"/>
		</g>
	</g>
	<g>
		<path fill="#AC1737" d="M222.4,209.8c0-4.2,3.4-7.6,7.6-7.6h2.7c4.2,0,7.6,3.4,7.6,7.6v4.8c0,4.2-3.4,7.6-7.6,7.6h-2.7
			c-4.2,0-7.6-3.4-7.6-7.6V209.8L222.4,209.8z"/>
		<g>
			<path fill="#FFFFFF" d="M229.3,214.3c0.6,0.6,1.4,0.9,2.2,0.9c0.9,0,1.4-0.4,1.4-1.1c0-0.7-0.5-0.9-1.3-1.2l-1.1-0.5
				c-0.8-0.3-1.7-1-1.7-2.2c0-1.3,1.2-2.3,2.8-2.3c1,0,1.9,0.4,2.6,1.1l-0.8,0.9c-0.5-0.4-1.1-0.7-1.8-0.7c-0.8,0-1.3,0.4-1.3,1
				c0,0.6,0.6,0.9,1.3,1.2l1.1,0.5c1,0.4,1.7,1,1.7,2.2c0,1.3-1.1,2.5-3,2.5c-1.1,0-2.2-0.4-3-1.2L229.3,214.3z"/>
		</g>
	</g>
</g>
<g id="textos_y_numeros">
	<g>
		<g>
			<path fill="#7B7C7D" d="M29.4,60H31v7.8h3.8v1.4h-5.5V60z"/>
			<path fill="#7B7C7D" d="M40.1,64.8c0-0.7-0.3-1.4-1.3-1.4c-0.7,0-1.3,0.3-1.9,0.7L36.3,63c0.8-0.5,1.7-0.9,2.8-0.9
				c1.7,0,2.6,1.1,2.6,3v4.1h-1.3l-0.1-0.8h0c-0.6,0.5-1.3,0.9-2.1,0.9c-1.2,0-2.1-0.8-2.1-2C36,65.9,37.2,65.1,40.1,64.8z
				 M38.6,68.1c0.6,0,1-0.3,1.5-0.8v-1.6c-1.9,0.2-2.5,0.7-2.5,1.4C37.6,67.9,38,68.1,38.6,68.1z"/>
			<path fill="#7B7C7D" d="M50.5,59.8c1.1,0,2,0.6,2.6,1.2l-0.9,1c-0.5-0.5-1-0.8-1.7-0.8c-1.5,0-2.6,1.3-2.6,3.3
				c0,2.1,1,3.4,2.5,3.4c0.8,0,1.4-0.3,1.9-0.9l0.9,1c-0.7,0.9-1.7,1.3-2.9,1.3c-2.3,0-4.2-1.7-4.2-4.8
				C46.2,61.6,48.1,59.8,50.5,59.8z"/>
			<path fill="#7B7C7D" d="M54.7,59.3h1.6v2.6l-0.1,1.3c0.6-0.6,1.3-1,2.2-1c1.5,0,2.1,1,2.1,2.8v4.3h-1.6v-4.1
				c0-1.1-0.3-1.6-1.1-1.6c-0.6,0-1,0.3-1.6,0.9v4.8h-1.6V59.3z"/>
			<path fill="#7B7C7D" d="M66.3,64.8c0-0.7-0.3-1.4-1.3-1.4c-0.7,0-1.3,0.3-1.9,0.7L62.5,63c0.8-0.5,1.7-0.9,2.8-0.9
				c1.7,0,2.6,1.1,2.6,3v4.1h-1.3l-0.1-0.8h0c-0.6,0.5-1.3,0.9-2.1,0.9c-1.2,0-2.1-0.8-2.1-2C62.2,65.9,63.5,65.1,66.3,64.8z
				 M64.8,68.1c0.6,0,1-0.3,1.5-0.8v-1.6c-1.9,0.2-2.5,0.7-2.5,1.4C63.8,67.9,64.2,68.1,64.8,68.1z"/>
			<path fill="#7B7C7D" d="M71.5,69.8V72h-1.6v-9.7h1.3l0.1,0.7h0.1c0.6-0.5,1.3-0.9,2.1-0.9c1.7,0,2.7,1.4,2.7,3.5
				c0,2.4-1.4,3.7-3,3.7c-0.6,0-1.2-0.3-1.8-0.8L71.5,69.8z M72.9,68.1c0.9,0,1.6-0.8,1.6-2.4c0-1.4-0.5-2.2-1.5-2.2
				c-0.5,0-1,0.3-1.5,0.8v3.2C72,67.9,72.5,68.1,72.9,68.1z"/>
			<path fill="#7B7C7D" d="M80.6,62.1c1.9,0,2.9,1.4,2.9,3.3c0,0.3,0,0.6-0.1,0.8H79c0.1,1.3,0.9,2,2,2c0.6,0,1.1-0.2,1.6-0.5l0.6,1
				c-0.7,0.4-1.5,0.7-2.4,0.7c-1.9,0-3.4-1.3-3.4-3.6C77.4,63.5,79,62.1,80.6,62.1z M82.1,65.2c0-1.1-0.5-1.8-1.4-1.8
				c-0.8,0-1.5,0.6-1.7,1.8H82.1z"/>
			<path fill="#7B7C7D" d="M85,59.3h1.6v8.3c0,0.4,0.2,0.5,0.4,0.5c0.1,0,0.1,0,0.3,0l0.2,1.2c-0.2,0.1-0.5,0.1-0.9,0.1
				c-1.2,0-1.6-0.7-1.6-1.9V59.3z"/>
			<path fill="#7B7C7D" d="M88.8,59.3h1.6v8.3c0,0.4,0.2,0.5,0.4,0.5c0.1,0,0.1,0,0.3,0l0.2,1.2c-0.2,0.1-0.5,0.1-0.9,0.1
				c-1.2,0-1.6-0.7-1.6-1.9V59.3z"/>
			<path fill="#7B7C7D" d="M95.4,62.1c1.9,0,2.9,1.4,2.9,3.3c0,0.3,0,0.6-0.1,0.8h-4.4c0.1,1.3,0.9,2,2,2c0.6,0,1.1-0.2,1.6-0.5
				l0.6,1c-0.7,0.4-1.5,0.7-2.4,0.7c-1.9,0-3.4-1.3-3.4-3.6C92.2,63.5,93.8,62.1,95.4,62.1z M96.9,65.2c0-1.1-0.5-1.8-1.4-1.8
				c-0.8,0-1.5,0.6-1.7,1.8H96.9z"/>
		</g>
	</g>
	<g>
		<g>
			<path fill="#7B7C7D" d="M63,3.1c1.3,0,2.2,0.6,2.8,1.2l-0.9,1c-0.5-0.5-1-0.8-1.8-0.8c-1.6,0-2.7,1.3-2.7,3.3
				c0,2.1,1,3.4,2.8,3.4c0.5,0,1-0.1,1.3-0.4v-2h-1.7V7.5h3.2v4.1c-0.6,0.6-1.7,1.1-3,1.1c-2.5,0-4.3-1.7-4.3-4.8
				C58.5,4.9,60.5,3.1,63,3.1z"/>
			<path fill="#7B7C7D" d="M71.5,8.1c0-0.7-0.3-1.4-1.3-1.4c-0.7,0-1.3,0.3-1.9,0.7l-0.6-1.1c0.8-0.5,1.7-0.9,2.8-0.9
				c1.7,0,2.6,1.1,2.6,3v4.1h-1.3l-0.1-0.8h0c-0.6,0.5-1.3,0.9-2.1,0.9c-1.2,0-2.1-0.8-2.1-2C67.4,9.2,68.7,8.4,71.5,8.1z M70,11.4
				c0.6,0,1-0.3,1.5-0.8V9.1C69.6,9.4,69,9.9,69,10.5C69,11.2,69.4,11.4,70,11.4z"/>
			<path fill="#7B7C7D" d="M75.1,5.6h1.3l0.1,1.2h0.1c0.5-0.9,1.2-1.4,2-1.4c0.4,0,0.6,0,0.8,0.1L79.1,7c-0.2-0.1-0.4-0.1-0.7-0.1
				c-0.6,0-1.2,0.4-1.6,1.4v4.2h-1.6V5.6z"/>
			<path fill="#7B7C7D" d="M84.1,8.1c0-0.7-0.3-1.4-1.3-1.4c-0.7,0-1.3,0.3-1.9,0.7l-0.6-1.1c0.8-0.5,1.7-0.9,2.8-0.9
				c1.7,0,2.6,1.1,2.6,3v4.1h-1.3l-0.1-0.8h0c-0.6,0.5-1.3,0.9-2.1,0.9c-1.2,0-2.1-0.8-2.1-2C80.1,9.2,81.3,8.4,84.1,8.1z
				 M82.6,11.4c0.6,0,1-0.3,1.5-0.8V9.1c-1.9,0.2-2.5,0.7-2.5,1.4C81.6,11.2,82.1,11.4,82.6,11.4z"/>
			<path fill="#7B7C7D" d="M88.3,12.3L88.3,12.3c-0.4-0.3-0.6-0.6-0.6-1.2c0-0.5,0.4-1,0.8-1.3V9.8c-0.5-0.4-0.9-1-0.9-1.8
				c0-1.6,1.3-2.5,2.7-2.5c0.4,0,0.7,0.1,1,0.2h2.5v1.2h-1.3c0.2,0.3,0.4,0.7,0.4,1.2c0,1.5-1.2,2.4-2.6,2.4c-0.3,0-0.6-0.1-0.9-0.2
				c-0.2,0.2-0.3,0.4-0.3,0.7c0,0.4,0.3,0.6,1.1,0.6h1.2c1.7,0,2.5,0.5,2.5,1.7c0,1.4-1.4,2.4-3.7,2.4c-1.7,0-2.9-0.6-2.9-1.8
				C87.3,13.2,87.6,12.7,88.3,12.3z M90.4,14.5c1.1,0,1.9-0.5,1.9-1.1c0-0.5-0.4-0.7-1.2-0.7h-0.9c-0.4,0-0.7,0-0.9-0.1
				c-0.4,0.3-0.5,0.6-0.5,0.9C88.6,14.2,89.3,14.5,90.4,14.5z M91.4,7.9c0-0.9-0.5-1.4-1.2-1.4C89.6,6.5,89,7,89,7.9
				c0,0.9,0.5,1.4,1.2,1.4C90.9,9.3,91.4,8.8,91.4,7.9z"/>
			<path fill="#7B7C7D" d="M97.8,5.4c1.9,0,2.9,1.4,2.9,3.3c0,0.3,0,0.6-0.1,0.8h-4.4c0.1,1.3,0.9,2,2,2c0.6,0,1.1-0.2,1.6-0.5
				l0.6,1c-0.7,0.4-1.5,0.7-2.4,0.7c-1.9,0-3.4-1.3-3.4-3.6C94.6,6.8,96.2,5.4,97.8,5.4z M99.3,8.5c0-1.1-0.5-1.8-1.4-1.8
				c-0.8,0-1.5,0.6-1.7,1.8H99.3z"/>
			<path fill="#7B7C7D" d="M104,3.3h1.7l1.3,4.6c0.3,1,0.5,1.9,0.8,3h0.1c0.3-1.1,0.5-2,0.8-3l1.3-4.6h1.7l-2.9,9.2h-1.9L104,3.3z"
				/>
			<path fill="#7B7C7D" d="M115.4,5.4c1.9,0,2.9,1.4,2.9,3.3c0,0.3,0,0.6-0.1,0.8h-4.4c0.1,1.3,0.9,2,2,2c0.6,0,1.1-0.2,1.6-0.5
				l0.6,1c-0.7,0.4-1.5,0.7-2.4,0.7c-1.9,0-3.4-1.3-3.4-3.6C112.2,6.8,113.8,5.4,115.4,5.4z M116.8,8.5c0-1.1-0.5-1.8-1.4-1.8
				c-0.8,0-1.5,0.6-1.7,1.8H116.8z"/>
			<path fill="#7B7C7D" d="M119.8,5.6h1.3l0.1,1.2h0.1c0.5-0.9,1.2-1.4,2-1.4c0.4,0,0.6,0,0.8,0.1L123.8,7c-0.2-0.1-0.4-0.1-0.7-0.1
				c-0.6,0-1.2,0.4-1.6,1.4v4.2h-1.6V5.6z"/>
			<path fill="#7B7C7D" d="M125.3,6.9h-1V5.7l1.1-0.1l0.2-1.9h1.4v1.9h1.8v1.3h-1.8v3.3c0,0.8,0.3,1.2,1,1.2c0.2,0,0.5-0.1,0.7-0.2
				l0.3,1.2c-0.4,0.1-0.9,0.3-1.4,0.3c-1.6,0-2.2-1-2.2-2.5V6.9z"/>
		</g>
	</g>
	<g>
		<g>
			<path fill="#7B7C7D" d="M279.4,126.5c-0.8,0.5-1.2,0.9-1.2,1.8c0,0,0.1,0,0.1,0c0.5,0,0.9,0.3,0.9,0.9c0,0.6-0.4,1-0.9,1
				c-0.7,0-1.1-0.6-1.1-1.6c0-1.2,0.6-2.2,1.8-2.8L279.4,126.5z"/>
			<path fill="#7B7C7D" d="M281.8,133.2c0.7,0.6,1.6,1,2.4,1c1,0,1.6-0.5,1.6-1.2c0-0.8-0.6-1-1.4-1.4l-1.3-0.6
				c-0.9-0.4-1.9-1.1-1.9-2.5c0-1.5,1.3-2.6,3.1-2.6c1.1,0,2.1,0.5,2.9,1.2l-0.8,1c-0.6-0.5-1.2-0.8-2-0.8c-0.9,0-1.4,0.4-1.4,1.1
				c0,0.7,0.7,1,1.5,1.3l1.2,0.5c1.1,0.5,1.9,1.2,1.9,2.5c0,1.5-1.2,2.7-3.3,2.7c-1.2,0-2.4-0.5-3.3-1.4L281.8,133.2z"/>
			<path fill="#7B7C7D" d="M288.9,129.3c0.8-0.5,1.2-0.9,1.2-1.8c0,0-0.1,0-0.1,0c-0.5,0-0.9-0.3-0.9-0.9c0-0.6,0.4-1,0.9-1
				c0.7,0,1.1,0.6,1.1,1.6c0,1.2-0.6,2.2-1.8,2.8L288.9,129.3z"/>
			<path fill="#7B7C7D" d="M299.7,126.1c1.1,0,2,0.6,2.6,1.2l-0.9,1c-0.5-0.5-1-0.8-1.7-0.8c-1.5,0-2.6,1.3-2.6,3.3
				c0,2.1,1,3.4,2.5,3.4c0.8,0,1.4-0.3,1.9-0.9l0.9,1c-0.7,0.9-1.7,1.3-2.9,1.3c-2.3,0-4.2-1.7-4.2-4.8
				C295.4,127.9,297.3,126.1,299.7,126.1z"/>
			<path fill="#7B7C7D" d="M303.9,125.6h1.6v2.6l-0.1,1.3c0.6-0.6,1.3-1,2.2-1c1.5,0,2.1,1,2.1,2.8v4.3h-1.6v-4.1
				c0-1.1-0.3-1.6-1.1-1.6c-0.6,0-1,0.3-1.6,0.9v4.8h-1.6V125.6z"/>
			<path fill="#7B7C7D" d="M314.5,128.4c1.9,0,2.9,1.4,2.9,3.3c0,0.3,0,0.6-0.1,0.8h-4.4c0.1,1.3,0.9,2,2,2c0.6,0,1.1-0.2,1.6-0.5
				l0.5,1c-0.7,0.4-1.5,0.7-2.4,0.7c-1.9,0-3.4-1.3-3.4-3.6C311.3,129.8,312.9,128.4,314.5,128.4z M315.9,131.4
				c0-1.1-0.5-1.8-1.4-1.8c-0.8,0-1.5,0.6-1.7,1.8H315.9z"/>
			<path fill="#7B7C7D" d="M318.9,128.6h1.3l0.1,0.9h0.1c0.6-0.6,1.3-1.1,2.1-1.1c1,0,1.6,0.5,1.9,1.2c0.7-0.7,1.4-1.2,2.2-1.2
				c1.5,0,2.1,1,2.1,2.8v4.3h-1.6v-4.1c0-1.1-0.3-1.6-1.1-1.6c-0.4,0-0.9,0.3-1.5,0.9v4.8H323v-4.1c0-1.1-0.3-1.6-1.1-1.6
				c-0.4,0-0.9,0.3-1.5,0.9v4.8h-1.6V128.6z"/>
			<path fill="#7B7C7D" d="M330.6,126.5c0-0.6,0.4-0.9,1-0.9c0.6,0,1,0.4,1,0.9c0,0.5-0.4,0.9-1,0.9
				C331,127.4,330.6,127,330.6,126.5z M330.8,128.6h1.6v6.9h-1.6V128.6z"/>
			<path fill="#7B7C7D" d="M334.5,128.6h1.3l0.1,0.9h0.1c0.6-0.6,1.3-1.1,2.3-1.1c1.5,0,2.1,1,2.1,2.8v4.3h-1.6v-4.1
				c0-1.1-0.3-1.6-1.1-1.6c-0.6,0-1,0.3-1.6,0.9v4.8h-1.6V128.6z"/>
		</g>
	</g>
	<g>
		<g>
			<path fill="#7B7C7D" d="M281.3,142.1c0-0.7-0.3-1.4-1.3-1.4c-0.7,0-1.3,0.3-1.9,0.7l-0.6-1.1c0.8-0.5,1.7-0.9,2.8-0.9
				c1.7,0,2.6,1.1,2.6,3v4.1h-1.3l-0.1-0.8h0c-0.6,0.5-1.3,0.9-2.1,0.9c-1.2,0-2.1-0.8-2.1-2C277.2,143.2,278.4,142.4,281.3,142.1z
				 M279.8,145.4c0.6,0,1-0.3,1.5-0.8v-1.6c-1.9,0.2-2.5,0.7-2.5,1.4C278.8,145.1,279.2,145.4,279.8,145.4z"/>
			<path fill="#7B7C7D" d="M284.8,139.6h1.6v4.1c0,1.1,0.3,1.6,1.1,1.6c0.6,0,1-0.3,1.5-1v-4.7h1.6v6.9h-1.3l-0.1-1h0
				c-0.6,0.7-1.3,1.2-2.2,1.2c-1.5,0-2.1-1-2.1-2.8V139.6z"/>
			<path fill="#7B7C7D" d="M294.1,142.9l-2.1-3.3h1.8l0.8,1.3c0.2,0.4,0.4,0.8,0.6,1.2h0.1c0.2-0.4,0.4-0.8,0.5-1.2l0.7-1.3h1.7
				l-2,3.5l2.2,3.4h-1.8l-0.8-1.4c-0.2-0.4-0.5-0.8-0.7-1.2h-0.1c-0.2,0.4-0.4,0.8-0.6,1.2l-0.7,1.4h-1.7L294.1,142.9z"/>
			<path fill="#7B7C7D" d="M302.5,137.3h3c1.9,0,3.3,0.6,3.3,2.3c0,0.9-0.5,1.7-1.6,2v0.1c1.3,0.2,2.1,0.9,2.1,2.2
				c0,1.8-1.5,2.7-3.5,2.7h-3.2V137.3z M305.3,141.1c1.3,0,1.8-0.5,1.8-1.4c0-0.8-0.6-1.2-1.8-1.2h-1.2v2.6H305.3z M305.5,145.2
				c1.4,0,2.1-0.5,2.1-1.6c0-1-0.7-1.4-2.1-1.4h-1.4v3H305.5z"/>
			<path fill="#7B7C7D" d="M313.6,139.4c1.7,0,3.3,1.3,3.3,3.6c0,2.3-1.6,3.6-3.3,3.6c-1.7,0-3.3-1.3-3.3-3.6
				C310.3,140.7,311.9,139.4,313.6,139.4z M313.6,145.3c1,0,1.6-0.9,1.6-2.3c0-1.4-0.6-2.3-1.6-2.3c-1,0-1.6,0.9-1.6,2.3
				C312,144.4,312.6,145.3,313.6,145.3z"/>
			<path fill="#7B7C7D" d="M321.3,139.4c1.9,0,2.9,1.4,2.9,3.3c0,0.3,0,0.6-0.1,0.8h-4.4c0.1,1.3,0.9,2,2,2c0.6,0,1.1-0.2,1.6-0.5
				l0.5,1c-0.7,0.4-1.5,0.7-2.4,0.7c-1.9,0-3.4-1.3-3.4-3.6C318.1,140.8,319.6,139.4,321.3,139.4z M322.7,142.4
				c0-1.1-0.5-1.8-1.4-1.8c-0.8,0-1.5,0.6-1.7,1.8H322.7z"/>
			<path fill="#7B7C7D" d="M325.6,139.6h1.6v4.1c0,1.1,0.3,1.6,1.1,1.6c0.6,0,1-0.3,1.5-1v-4.7h1.6v6.9h-1.3l-0.1-1h0
				c-0.6,0.7-1.3,1.2-2.2,1.2c-1.5,0-2.1-1-2.1-2.8V139.6z"/>
			<path fill="#7B7C7D" d="M337.1,137.8c-0.3-0.1-0.5-0.2-0.8-0.2c-0.6,0-0.9,0.4-0.9,1.2v0.7h1.4v1.3h-1.4v5.6h-1.6v-5.6h-0.9v-1.2
				l0.9-0.1v-0.7c0-1.4,0.7-2.5,2.3-2.5c0.5,0,1,0.1,1.3,0.2L337.1,137.8z"/>
			<path fill="#7B7C7D" d="M338.1,144.7c0.6,0.5,1.2,0.8,1.9,0.8c0.7,0,1.1-0.4,1.1-0.8c0-0.6-0.7-0.8-1.5-1.1
				c-0.9-0.3-1.9-0.9-1.9-2c0-1.2,1-2.1,2.5-2.1c1,0,1.7,0.4,2.3,0.8l-0.7,1c-0.5-0.4-1-0.6-1.5-0.6c-0.7,0-1,0.3-1,0.8
				c0,0.5,0.7,0.8,1.4,1c0.9,0.4,2,0.8,2,2.1c0,1.2-0.9,2.1-2.7,2.1c-0.9,0-1.9-0.4-2.6-1L338.1,144.7z"/>
		</g>
	</g>
	<g>
		<g>
			<path fill="#7B7C7D" d="M391.7,122.9c-0.8,0.5-1.2,0.9-1.2,1.8c0,0,0.1,0,0.1,0c0.5,0,0.9,0.3,0.9,0.9c0,0.6-0.4,1-0.9,1
				c-0.7,0-1.1-0.6-1.1-1.6c0-1.2,0.6-2.2,1.8-2.8L391.7,122.9z"/>
			<path fill="#7B7C7D" d="M394.1,129.6c0.7,0.6,1.6,1,2.4,1c1,0,1.6-0.5,1.6-1.2c0-0.8-0.6-1-1.4-1.4l-1.3-0.6
				c-0.9-0.4-1.9-1.1-1.9-2.5c0-1.5,1.3-2.6,3.1-2.6c1.1,0,2.1,0.5,2.9,1.2l-0.8,1c-0.6-0.5-1.2-0.8-2-0.8c-0.9,0-1.4,0.4-1.4,1.1
				c0,0.7,0.7,1,1.5,1.3l1.2,0.5c1.1,0.5,1.9,1.2,1.9,2.5c0,1.5-1.2,2.7-3.3,2.7c-1.2,0-2.4-0.5-3.3-1.4L394.1,129.6z"/>
			<path fill="#7B7C7D" d="M401.2,125.6c0.8-0.5,1.2-0.9,1.2-1.8c0,0-0.1,0-0.1,0c-0.5,0-0.9-0.3-0.9-0.9c0-0.6,0.4-1,0.9-1
				c0.7,0,1.1,0.6,1.1,1.6c0,1.2-0.6,2.2-1.8,2.8L401.2,125.6z"/>
			<path fill="#7B7C7D" d="M408.2,122.7h3c1.9,0,3.3,0.6,3.3,2.3c0,0.9-0.5,1.7-1.6,2v0.1c1.3,0.2,2.1,0.9,2.1,2.2
				c0,1.8-1.5,2.7-3.5,2.7h-3.2V122.7z M411,126.5c1.3,0,1.8-0.5,1.8-1.4c0-0.8-0.6-1.2-1.8-1.2h-1.2v2.6H411z M411.2,130.6
				c1.4,0,2.1-0.5,2.1-1.6c0-1-0.7-1.4-2.1-1.4h-1.4v3H411.2z"/>
			<path fill="#7B7C7D" d="M416.5,121.9h1.6v8.3c0,0.4,0.2,0.5,0.4,0.5c0.1,0,0.1,0,0.3,0l0.2,1.2c-0.2,0.1-0.5,0.1-0.9,0.1
				c-1.2,0-1.6-0.7-1.6-1.9V121.9z"/>
			<path fill="#7B7C7D" d="M423,124.8c1.9,0,2.9,1.4,2.9,3.3c0,0.3,0,0.6-0.1,0.8h-4.4c0.1,1.3,0.9,2,2,2c0.6,0,1.1-0.2,1.6-0.5
				l0.5,1c-0.7,0.4-1.5,0.7-2.4,0.7c-1.9,0-3.4-1.3-3.4-3.6C419.8,126.2,421.4,124.8,423,124.8z M424.5,127.8c0-1.1-0.5-1.8-1.4-1.8
				c-0.8,0-1.5,0.6-1.7,1.8H424.5z"/>
			<path fill="#7B7C7D" d="M427.4,125h1.6v4.1c0,1.1,0.3,1.6,1.1,1.6c0.6,0,1-0.3,1.5-1V125h1.6v6.9h-1.3l-0.1-1h0
				c-0.6,0.7-1.3,1.2-2.2,1.2c-1.5,0-2.1-1-2.1-2.8V125z"/>
			<path fill="#7B7C7D" d="M435.3,130c0.6,0.5,1.2,0.8,1.9,0.8c0.7,0,1.1-0.4,1.1-0.8c0-0.6-0.7-0.8-1.5-1.1c-0.9-0.3-1.9-0.9-1.9-2
				c0-1.2,1-2.1,2.5-2.1c1,0,1.7,0.4,2.3,0.8l-0.7,1c-0.5-0.4-1-0.6-1.5-0.6c-0.7,0-1,0.3-1,0.8c0,0.5,0.7,0.8,1.4,1
				c0.9,0.4,2,0.8,2,2.1c0,1.2-0.9,2.1-2.7,2.1c-0.9,0-1.9-0.4-2.6-1L435.3,130z"/>
		</g>
	</g>
	<g>
		<g>
			<path fill="#7B7C7D" d="M203.5,195h2v-5.9h-1.7v-1c0.9-0.2,1.5-0.4,2.1-0.7h1.2v7.6h1.8v1.3h-5.4V195z"/>
		</g>
	</g>
	<g>
		<g>
			<path fill="#7B7C7D" d="M186.5,180.3c2.5-2.4,4.1-4,4.1-5.4c0-0.9-0.5-1.6-1.5-1.6c-0.7,0-1.3,0.5-1.8,1l-0.9-0.9
				c0.8-0.9,1.6-1.4,2.9-1.4c1.7,0,2.8,1.1,2.8,2.8c0,1.6-1.5,3.2-3.3,5.1c0.5,0,1.1-0.1,1.5-0.1h2.2v1.4h-6.1V180.3z"/>
		</g>
	</g>
	<g>
		<g>
			<path fill="#7B7C7D" d="M166.8,157.5h-1.1v2.3h-1.5v-2.3h-4v-1.1l3.6-5.6h1.9v5.4h1.1V157.5z M164.1,156.2v-2
				c0-0.5,0-1.3,0.1-1.9h-0.1c-0.2,0.5-0.5,0.9-0.7,1.4l-1.6,2.5H164.1z"/>
		</g>
	</g>
	<g>
		<g>
			<path fill="#7B7C7D" d="M138,118.7c0.5,0.5,1.2,1,2.1,1c1,0,1.7-0.6,1.7-1.7c0-1.1-0.7-1.7-1.7-1.7c-0.6,0-0.9,0.2-1.4,0.5
				l-0.8-0.5l0.3-4.4h4.8v1.4h-3.4l-0.2,2.2c0.4-0.2,0.7-0.3,1.2-0.3c1.5,0,2.8,0.9,2.8,2.8c0,2-1.5,3.1-3.2,3.1
				c-1.5,0-2.4-0.6-3.1-1.2L138,118.7z"/>
		</g>
	</g>
	<g>
		<g>
			<path fill="#7B7C7D" d="M110,62.1c-0.3-0.4-0.9-0.7-1.4-0.7c-1.1,0-2,0.8-2.1,3.3c0.5-0.7,1.3-1.1,1.9-1.1c1.6,0,2.6,0.9,2.6,2.8
				c0,1.8-1.3,2.9-2.8,2.9c-1.8,0-3.3-1.4-3.3-4.4c0-3.5,1.7-4.9,3.5-4.9c1.1,0,1.9,0.5,2.4,1L110,62.1z M109.5,66.5
				c0-1.1-0.5-1.6-1.4-1.6c-0.5,0-1.1,0.3-1.6,1c0.2,1.6,0.8,2.3,1.7,2.3C108.9,68.2,109.5,67.6,109.5,66.5z"/>
		</g>
	</g>
	<g>
		<g>
			<path fill="#7B7C7D" d="M222.9,105.2h-4.2v-1.4h6v1c-2.1,2.6-2.5,4.5-2.6,8h-1.7C220.6,109.6,221.2,107.6,222.9,105.2z"/>
		</g>
	</g>
	<g>
		<g>
			<path fill="#7B7C7D" d="M136.1,7.9L136.1,7.9c-0.7-0.5-1.2-1.2-1.2-2.2c0-1.5,1.2-2.4,2.7-2.4c1.6,0,2.6,1,2.6,2.4
				c0,0.9-0.6,1.6-1.2,2.1v0.1c0.8,0.5,1.6,1.1,1.6,2.3c0,1.4-1.2,2.4-3,2.4c-1.8,0-3-1-3-2.5C134.5,9.1,135.2,8.4,136.1,7.9z
				 M137.5,11.5c0.9,0,1.5-0.5,1.5-1.3c0-1-0.9-1.3-2.2-1.8c-0.6,0.4-1,1-1,1.7C135.9,11,136.6,11.5,137.5,11.5z M138.9,5.9
				c0-0.8-0.5-1.4-1.3-1.4c-0.7,0-1.2,0.5-1.2,1.2c0,0.9,0.8,1.3,1.8,1.7C138.6,7,138.9,6.5,138.9,5.9z"/>
		</g>
	</g>
	<g>
		<g>
			<path fill="#7B7C7D" d="M267.4,130c0.3,0.4,0.9,0.7,1.4,0.7c1.1,0,2-0.8,2.1-3.3c-0.5,0.6-1.3,1-2,1c-1.5,0-2.6-0.9-2.6-2.8
				c0-1.8,1.3-2.9,2.8-2.9c1.8,0,3.2,1.4,3.2,4.4c0,3.5-1.7,4.9-3.5,4.9c-1.1,0-1.9-0.5-2.4-1L267.4,130z M271,126.2
				c-0.2-1.6-0.8-2.3-1.7-2.3c-0.7,0-1.3,0.6-1.3,1.7c0,1.1,0.5,1.6,1.4,1.6C269.9,127.3,270.5,127,271,126.2z"/>
		</g>
	</g>
	<g>
		<g>
			<path fill="#7B7C7D" d="M271.2,96.8h2v-5.9h-1.7v-1c0.9-0.2,1.5-0.4,2.1-0.7h1.2v7.6h1.8v1.3h-5.4V96.8z"/>
			<path fill="#7B7C7D" d="M278,93.6c0-3,1.2-4.6,3-4.6s3,1.6,3,4.6c0,3-1.2,4.7-3,4.7S278,96.6,278,93.6z M282.5,93.6
				c0-2.5-0.6-3.3-1.5-3.3c-0.9,0-1.5,0.8-1.5,3.3c0,2.5,0.6,3.4,1.5,3.4C281.9,97,282.5,96.1,282.5,93.6z"/>
		</g>
	</g>
	<g>
		<g>
			<path fill="#7B7C7D" d="M372.3,130.6h2v-5.9h-1.7v-1c0.9-0.2,1.5-0.4,2.1-0.7h1.2v7.6h1.8v1.3h-5.4V130.6z"/>
			<path fill="#7B7C7D" d="M379.6,130.6h2v-5.9h-1.7v-1c0.9-0.2,1.5-0.4,2.1-0.7h1.2v7.6h1.8v1.3h-5.4V130.6z"/>
		</g>
	</g>
	<g>
		<g>
			<path fill="#7B7C7D" d="M327.5,159.9h2V154h-1.7v-1c0.9-0.2,1.5-0.4,2.1-0.7h1.2v7.6h1.8v1.3h-5.4V159.9z"/>
			<path fill="#7B7C7D" d="M334.2,160.2c2.5-2.4,4.1-4,4.1-5.4c0-0.9-0.5-1.6-1.5-1.6c-0.7,0-1.3,0.5-1.8,1l-0.9-0.9
				c0.8-0.9,1.6-1.4,2.9-1.4c1.7,0,2.8,1.1,2.8,2.8c0,1.6-1.5,3.2-3.3,5.1c0.5,0,1.1-0.1,1.5-0.1h2.2v1.4h-6.1V160.2z"/>
		</g>
	</g>
	<g>
		<g>
			<path fill="#7B7C7D" d="M404.8,177.7h2v-5.9h-1.7v-1c0.9-0.2,1.5-0.4,2.1-0.7h1.2v7.6h1.8v1.3h-5.4V177.7z"/>
			<path fill="#7B7C7D" d="M412.1,176.9c0.5,0.6,1.2,1,2.1,1c1,0,1.7-0.5,1.7-1.4c0-0.9-0.6-1.5-2.6-1.5v-1.2c1.8,0,2.3-0.6,2.3-1.4
				c0-0.7-0.5-1.2-1.3-1.2c-0.7,0-1.3,0.3-1.8,0.8l-0.8-1c0.8-0.7,1.6-1.1,2.7-1.1c1.7,0,2.9,0.8,2.9,2.4c0,1-0.6,1.7-1.6,2.1v0.1
				c1.1,0.3,1.9,1,1.9,2.2c0,1.6-1.4,2.6-3.1,2.6c-1.5,0-2.4-0.6-3-1.3L412.1,176.9z"/>
		</g>
	</g>
	<g>
		<g>
			<path fill="#7B7C7D" d="M400,208.5h2v-5.9h-1.7v-1c0.9-0.2,1.5-0.4,2.1-0.7h1.2v7.6h1.8v1.3H400V208.5z"/>
			<path fill="#7B7C7D" d="M413.1,207.5h-1.1v2.3h-1.5v-2.3h-4v-1.1l3.6-5.6h1.9v5.4h1.1V207.5z M410.4,206.3v-2
				c0-0.5,0-1.3,0.1-1.9h-0.1c-0.2,0.5-0.5,0.9-0.7,1.4l-1.6,2.5H410.4z"/>
		</g>
	</g>
	<g>
		<g>
			<path fill="#7B7C7D" d="M197,135.7c0.5,0.6,1.2,1,2.1,1c1,0,1.7-0.5,1.7-1.4c0-0.9-0.6-1.5-2.6-1.5v-1.2c1.8,0,2.3-0.6,2.3-1.4
				c0-0.7-0.5-1.2-1.3-1.2c-0.7,0-1.3,0.3-1.8,0.8l-0.8-1c0.8-0.7,1.6-1.1,2.7-1.1c1.7,0,2.9,0.8,2.9,2.4c0,1-0.6,1.7-1.6,2.1v0.1
				c1.1,0.3,1.9,1,1.9,2.2c0,1.6-1.4,2.6-3.1,2.6c-1.5,0-2.4-0.6-3-1.3L197,135.7z"/>
		</g>
	</g>
	<g>
		<g>
			<path fill="#7B7C7D" d="M405.1,223.8l-2-3.6h-1.4v3.6h-1.6v-9.2h3.1c1.9,0,3.4,0.7,3.4,2.7c0,1.4-0.7,2.3-1.8,2.6l2.2,3.9H405.1z
				 M401.7,218.9h1.3c1.3,0,1.9-0.5,1.9-1.6c0-1.1-0.7-1.4-1.9-1.4h-1.3V218.9z"/>
			<path fill="#7B7C7D" d="M412.2,219.4c0-0.7-0.3-1.4-1.3-1.4c-0.7,0-1.3,0.3-1.9,0.7l-0.6-1.1c0.8-0.5,1.7-0.9,2.8-0.9
				c1.7,0,2.6,1.1,2.6,3v4.1h-1.3l-0.1-0.8h0c-0.6,0.5-1.3,0.9-2.1,0.9c-1.2,0-2.1-0.8-2.1-2C408.1,220.5,409.3,219.7,412.2,219.4z
				 M410.7,222.7c0.6,0,1-0.3,1.5-0.8v-1.6c-1.9,0.2-2.5,0.7-2.5,1.4C409.7,222.5,410.1,222.7,410.7,222.7z"/>
			<path fill="#7B7C7D" d="M418.8,216.7c0.9,0,1.6,0.4,2,0.8l-0.8,1c-0.4-0.3-0.7-0.5-1.2-0.5c-1.1,0-1.9,0.9-1.9,2.3
				c0,1.4,0.8,2.3,1.8,2.3c0.6,0,1-0.3,1.4-0.6l0.7,1c-0.6,0.6-1.5,0.9-2.3,0.9c-1.9,0-3.3-1.3-3.3-3.6
				C415.3,218.1,416.9,216.7,418.8,216.7z"/>
			<path fill="#7B7C7D" d="M425.3,216.7c0.9,0,1.6,0.4,2,0.8l-0.8,1c-0.4-0.3-0.7-0.5-1.2-0.5c-1.1,0-1.9,0.9-1.9,2.3
				c0,1.4,0.8,2.3,1.8,2.3c0.6,0,1-0.3,1.4-0.6l0.7,1c-0.6,0.6-1.5,0.9-2.3,0.9c-1.9,0-3.3-1.3-3.3-3.6
				C421.8,218.1,423.5,216.7,425.3,216.7z"/>
			<path fill="#7B7C7D" d="M431.6,216.7c1.7,0,3.3,1.3,3.3,3.6c0,2.3-1.6,3.6-3.3,3.6c-1.7,0-3.3-1.3-3.3-3.6
				C428.3,218.1,429.9,216.7,431.6,216.7z M431.6,222.7c1,0,1.6-0.9,1.6-2.3c0-1.4-0.6-2.3-1.6-2.3c-1,0-1.6,0.9-1.6,2.3
				C430,221.8,430.6,222.7,431.6,222.7z"/>
			<path fill="#7B7C7D" d="M436.5,216.9h1.3l0.1,1.2h0.1c0.5-0.9,1.2-1.4,2-1.4c0.4,0,0.6,0,0.8,0.1l-0.3,1.4
				c-0.2-0.1-0.4-0.1-0.7-0.1c-0.6,0-1.2,0.4-1.6,1.4v4.2h-1.6V216.9z"/>
			<path fill="#7B7C7D" d="M444.3,216.7c0.8,0,1.3,0.3,1.8,0.8l-0.1-1.1v-2.5h1.6v10h-1.3l-0.1-0.7h-0.1c-0.5,0.5-1.2,0.9-2,0.9
				c-1.7,0-2.9-1.3-2.9-3.6C441.4,218.1,442.8,216.7,444.3,216.7z M444.6,222.7c0.5,0,1-0.2,1.5-0.8v-3.2c-0.5-0.4-0.9-0.6-1.4-0.6
				c-0.9,0-1.6,0.8-1.6,2.3C443.1,221.9,443.6,222.7,444.6,222.7z"/>
			<path fill="#7B7C7D" d="M452.5,216.7c1.9,0,2.9,1.4,2.9,3.3c0,0.3,0,0.6-0.1,0.8h-4.4c0.1,1.3,0.9,2,2,2c0.6,0,1.1-0.2,1.6-0.5
				l0.5,1c-0.7,0.4-1.5,0.7-2.4,0.7c-1.9,0-3.4-1.3-3.4-3.6C449.3,218.1,450.9,216.7,452.5,216.7z M454,219.8c0-1.1-0.5-1.8-1.4-1.8
				c-0.8,0-1.5,0.6-1.7,1.8H454z"/>
			<path fill="#7B7C7D" d="M456.9,216.9h1.3l0.1,0.9h0.1c0.6-0.6,1.3-1.1,2.1-1.1c1,0,1.6,0.5,1.9,1.2c0.7-0.7,1.4-1.2,2.2-1.2
				c1.5,0,2.1,1,2.1,2.8v4.3h-1.6v-4.1c0-1.1-0.3-1.6-1.1-1.6c-0.4,0-0.9,0.3-1.5,0.9v4.8h-1.6v-4.1c0-1.1-0.3-1.6-1.1-1.6
				c-0.4,0-0.9,0.3-1.5,0.9v4.8h-1.6V216.9z"/>
			<path fill="#7B7C7D" d="M471.6,216.7c1.9,0,2.9,1.4,2.9,3.3c0,0.3,0,0.6-0.1,0.8h-4.4c0.1,1.3,0.9,2,2,2c0.6,0,1.1-0.2,1.6-0.5
				l0.5,1c-0.7,0.4-1.5,0.7-2.4,0.7c-1.9,0-3.4-1.3-3.4-3.6C468.4,218.1,469.9,216.7,471.6,216.7z M473,219.8c0-1.1-0.5-1.8-1.4-1.8
				c-0.8,0-1.5,0.6-1.7,1.8H473z"/>
			<path fill="#7B7C7D" d="M476,216.9h1.3l0.1,0.9h0.1c0.6-0.6,1.3-1.1,2.3-1.1c1.5,0,2.1,1,2.1,2.8v4.3h-1.6v-4.1
				c0-1.1-0.3-1.6-1.1-1.6c-0.6,0-1,0.3-1.6,0.9v4.8H476V216.9z"/>
			<path fill="#7B7C7D" d="M484.1,218.2h-1V217l1.1-0.1l0.2-1.9h1.4v1.9h1.8v1.3h-1.8v3.3c0,0.8,0.3,1.2,1,1.2
				c0.2,0,0.5-0.1,0.7-0.2l0.3,1.2c-0.4,0.1-0.9,0.3-1.4,0.3c-1.6,0-2.2-1-2.2-2.5V218.2z"/>
		</g>
	</g>
	<g>
		<g>
			<path fill="#7B7C7D" d="M217.2,118.3h1.8l1.7,4.5l0.6,1.8h0.1l0.6-1.8l1.6-4.5h1.8v9.2h-1.5v-4.2c0-0.9,0.1-2.1,0.2-2.9H224
				l-0.7,2.1l-1.6,4.2h-0.7l-1.6-4.2l-0.7-2.1h-0.1c0.1,0.8,0.2,2.1,0.2,2.9v4.2h-1.5V118.3z"/>
			<path fill="#7B7C7D" d="M227.5,120.6h1.6v4.1c0,1.1,0.3,1.6,1.1,1.6c0.6,0,1-0.3,1.5-1v-4.7h1.6v6.9H232l-0.1-1h0
				c-0.6,0.7-1.3,1.2-2.2,1.2c-1.5,0-2.1-1-2.1-2.8V120.6z"/>
			<path fill="#7B7C7D" d="M235.4,125.7c0.6,0.5,1.2,0.8,1.9,0.8c0.7,0,1.1-0.4,1.1-0.8c0-0.6-0.7-0.8-1.5-1.1
				c-0.9-0.3-1.9-0.9-1.9-2c0-1.2,1-2.1,2.5-2.1c1,0,1.7,0.4,2.3,0.8l-0.7,1c-0.5-0.4-1-0.6-1.5-0.6c-0.7,0-1,0.3-1,0.8
				c0,0.5,0.7,0.8,1.4,1c0.9,0.4,2,0.8,2,2.1c0,1.2-0.9,2.1-2.7,2.1c-0.9,0-1.9-0.4-2.6-1L235.4,125.7z"/>
			<path fill="#7B7C7D" d="M244.2,120.4c1.9,0,2.9,1.4,2.9,3.3c0,0.3,0,0.6-0.1,0.8h-4.4c0.1,1.3,0.9,2,2,2c0.6,0,1.1-0.2,1.6-0.5
				l0.5,1c-0.7,0.4-1.5,0.7-2.4,0.7c-1.9,0-3.4-1.3-3.4-3.6C241,121.8,242.6,120.4,244.2,120.4z M245.6,123.5c0-1.1-0.5-1.8-1.4-1.8
				c-0.8,0-1.5,0.6-1.7,1.8H245.6z M244.4,119.4h-1.2l1.3-2.1h1.6L244.4,119.4z"/>
			<path fill="#7B7C7D" d="M251.3,120.4c1.9,0,2.9,1.4,2.9,3.3c0,0.3,0,0.6-0.1,0.8h-4.4c0.1,1.3,0.9,2,2,2c0.6,0,1.1-0.2,1.6-0.5
				l0.5,1c-0.7,0.4-1.5,0.7-2.4,0.7c-1.9,0-3.4-1.3-3.4-3.6C248.2,121.8,249.7,120.4,251.3,120.4z M252.8,123.5
				c0-1.1-0.5-1.8-1.4-1.8c-0.8,0-1.5,0.6-1.7,1.8H252.8z"/>
		</g>
	</g>
	<g>
		<g>
			<path fill="#7B7C7D" d="M138.8,171.9h2.5c2.8,0,4.5,1.5,4.5,4.6c0,3.1-1.7,4.7-4.4,4.7h-2.5V171.9z M141.2,179.8
				c1.9,0,2.9-1.1,2.9-3.3c0-2.3-1.1-3.2-2.9-3.2h-0.7v6.6H141.2z"/>
			<path fill="#7B7C7D" d="M147.4,174.2h1.6v4.1c0,1.1,0.3,1.6,1.1,1.6c0.6,0,1-0.3,1.5-1v-4.7h1.6v6.9H152l-0.1-1h0
				c-0.6,0.7-1.3,1.2-2.2,1.2c-1.5,0-2.1-1-2.1-2.8V174.2z"/>
			<path fill="#7B7C7D" d="M155.4,174.2h1.3l0.1,0.9h0.1c0.6-0.6,1.3-1.1,2.3-1.1c1.5,0,2.1,1,2.1,2.8v4.3h-1.6V177
				c0-1.1-0.3-1.6-1.1-1.6c-0.6,0-1,0.3-1.6,0.9v4.8h-1.6V174.2z"/>
			<path fill="#7B7C7D" d="M163.3,171.2h1.6v8.3c0,0.4,0.2,0.5,0.4,0.5c0.1,0,0.1,0,0.3,0l0.2,1.2c-0.2,0.1-0.5,0.1-0.9,0.1
				c-1.2,0-1.6-0.7-1.6-1.9V171.2z"/>
			<path fill="#7B7C7D" d="M169.9,174c1.7,0,3.3,1.3,3.3,3.6c0,2.3-1.6,3.6-3.3,3.6c-1.7,0-3.3-1.3-3.3-3.6
				C166.6,175.4,168.2,174,169.9,174z M169.9,180c1,0,1.6-0.9,1.6-2.3c0-1.4-0.6-2.3-1.6-2.3c-1,0-1.6,0.9-1.6,2.3
				C168.3,179,168.9,180,169.9,180z"/>
			<path fill="#7B7C7D" d="M176.4,181.7v2.2h-1.6v-9.7h1.3l0.1,0.7h0.1c0.6-0.5,1.3-0.9,2.1-0.9c1.7,0,2.7,1.4,2.7,3.5
				c0,2.4-1.4,3.7-3,3.7c-0.6,0-1.2-0.3-1.8-0.8L176.4,181.7z M177.8,180c0.9,0,1.6-0.8,1.6-2.4c0-1.4-0.5-2.2-1.5-2.2
				c-0.5,0-1,0.3-1.5,0.8v3.2C177,179.8,177.4,180,177.8,180z"/>
		</g>
	</g>
</g>
</svg>
