<?xml version="1.0" encoding="utf-8"?>
<!-- Generator: Adobe Illustrator 18.1.0, SVG Export Plug-In . SVG Version: 6.00 Build 0)  -->
<!DOCTYPE svg PUBLIC "-//W3C//DTD SVG 1.0//EN" "http://www.w3.org/TR/2001/REC-SVG-20010904/DTD/svg10.dtd">
<svg version="1.0" xmlns="http://www.w3.org/2000/svg" xmlns:xlink="http://www.w3.org/1999/xlink" x="0px" y="0px"
	 viewBox="0 0 504 251" enable-background="new 0 0 504 251" xml:space="preserve">
<g id="trazado">
	<path fill="#B7B5B6" d="M240.7,238.9C240.7,238.9,240.7,238.9,240.7,238.9c-1.7,0-3.3-0.3-4.7-0.8c-3.4-1.3-5.7-4-6-4.3
		c-0.6-0.7-0.7-0.9-3.6-6.1l-0.3-0.5c-2.8-5-8.2-10.6-8.3-10.7c-0.5-0.5-13.6-13.3-16-15.7l-2.6,2.7c-0.3,0.3-2.2,2-4.8,2
		c-1.3,0-2.6-0.4-3.7-1.3c-2.7-2.1-4.5-4.3-4.6-4.4c-5.2-6.4-5.8-11.9-5.9-12.9c-0.2-2.2,0.5-3.4,1-4.1l11.8-18
		c3.4-5.1,20.1-30.6,20.8-31.6c1-1.4,2.3-2.4,3.9-3.1c1.6-0.7,3.8-1.2,6.6-1.4c2.7-0.2,9.4,0.5,9.7,0.6l0.1,0c0,0,1.8,0.3,4.2,0.3
		c1.5,0,2.8-0.1,4-0.3c3.5-0.7,6-3,6-3l16.2-15c0.4-0.3,2.1-1.8,4.5-2.1c3.3-0.4,5.2,2.6,5.3,2.9l0.2,0.4c0.1,0.3,3.2,8,4.2,10.6
		c0.2,0.5,0.3,0.8,0.4,1c0,0,0,0,0,0c0,0,0,0,0.1-0.1c1.4-3.4,1.8-4.6,1.8-4.6c1.6-6,1.3-11.5,1.3-11.5c0-0.8-0.2-1.9-0.3-2.5
		c-0.2-0.2-0.6-0.6-0.9-0.9l-49.8-39.2c-0.1-0.1-8.1-6.5-10.3-8.1c-1.6-1.3-3.7-1.4-3.7-1.4c-0.1,0-0.2,0-0.4,0c-0.7,0-2,0.2-3.6,1
		c-1.1,0.5-1.2,1.5-1.2,1.8l0,0.1l0,0.1l-0.2,7.9c-0.5,4.7-3.6,7.3-6.3,8.1c-0.7,0.2-1.7,0.5-3,0.5c-2.4,0-4.6-1-6.5-2.9
		c-3.2-3.2-2.9-7.1-2.2-8.9l6.1-14.9c3.2-6.7,7.2-10.6,10.2-13.4c3.4-3.3,8.8-4.4,9.5-4.6l3.9-0.7l35.8-5.8c1.5-0.2,8.6-1.3,9.3-1.3
		c0,0,0.1,0,0.2,0c0.6-0.1,1.5-0.3,2.8-0.3c1.8,0,3.6,0.3,5.3,1c4.4,1.7,6.7,5.6,6.9,6l0.1,0.2c6.1,13,8.4,24.6,8.4,25.1
		c0.5,3.2,1.3,8.9,1.4,9.1c0.1,0.7,1.7,14.6,2,18.4c0.3,3.2,1.8,5.8,2.4,6.8c0.3,0.5,1.1,1.6,1.8,2.5c0.8,1,1.5,2,1.9,2.7
		c1.3,2.2,1.1,5.5,0.8,7c-0.1,0.6-0.4,1.6-1,3.5c-0.8,2.8-2.2,7.5-2.4,9.3c-0.2,2.1,0.4,4.1,1.5,5.5c0.4,0.5,0.8,1,1.3,1.5
		c1.8,2,2.9,3.4,3.5,4.2c1.1,1.6,2,4.7,1.2,8.6c-0.9,4.3-4.4,6.6-6.4,7.6c-0.9,0.5-2.1,0.8-3.2,1.1c-1,0.3-2.1,0.6-2.8,1
		c-0.6,0.4-0.8,0.7-1.2,1.8c-0.1,0.2-0.2,0.4-0.3,0.6c-0.6,1.4-3.2,7.2-3.2,7.2L263,213.6c-0.2,0.4-5.8,11-8.7,15.8
		c-3.1,5.1-4.6,6.3-7.4,8C245.3,238.4,243.1,238.9,240.7,238.9L240.7,238.9z M202,195.3c0.9,0,2.3,0.3,3.5,1.5
		c1.6,1.6,16,15.8,16.2,15.9c0.3,0.3,6.1,6.3,9.2,11.9l0.3,0.5c2.5,4.5,2.8,5,3,5.3c0.4,0.5,1.9,2,3.6,2.6c0.8,0.3,1.8,0.4,2.8,0.4
		h0c1.4,0,2.7-0.3,3.5-0.8c1.9-1.1,2.8-1.7,5.5-6.1c2.7-4.5,8-14.6,8.5-15.5l27.2-59.9l0,0c0,0,2.6-5.8,3.2-7.2
		c0.1-0.2,0.1-0.3,0.2-0.5c0.5-1.3,1.3-3.1,3.6-4.4c1.2-0.7,2.6-1.1,3.9-1.5c0.9-0.3,1.7-0.5,2.2-0.8c1.1-0.6,3.1-1.9,3.6-4
		c0.5-2.4-0.1-4-0.3-4.3c-0.4-0.6-2-2.4-3.1-3.8c-0.5-0.6-0.9-1.1-1.3-1.6c-2.1-2.5-3.1-6-2.8-9.5c0.2-2.2,1.3-6,2.6-10.3
		c0.4-1.3,0.8-2.7,0.9-3.1c0.2-1.2,0.1-2.8-0.1-3.2c-0.3-0.5-1-1.4-1.6-2.2c-0.8-1.1-1.6-2.2-2.1-3c-0.8-1.4-2.7-4.7-3.1-9
		c-0.4-3.8-2-18.1-2-18.2l0,0c0,0-0.8-5.7-1.3-8.8c0-0.1-2.2-11.3-8-23.7c-0.2-0.4-1.7-2.6-4.1-3.6c-1.1-0.4-2.2-0.7-3.4-0.7
		c-0.8,0-1.4,0.1-1.8,0.2c-0.3,0-0.5,0.1-0.6,0.1c-0.5,0.1-5.8,0.8-9,1.3l-35.7,5.8l-3.8,0.7c-1.2,0.2-4.8,1.3-6.8,3.2
		c-2.8,2.6-6.2,5.9-9,11.7l-6,14.6c-0.1,0.3-0.4,1.7,1,3.2c0.9,0.9,1.8,1.3,2.7,1.3c0.5,0,1-0.1,1.3-0.2c0.7-0.2,2.3-1,2.6-3.5
		l0.2-7.5c-0.1-1.8,0.7-5.1,4.2-6.8c2.5-1.2,4.6-1.5,5.9-1.5c0.3,0,0.5,0,0.6,0c0.7,0,3.9,0.3,6.7,2.5c2.2,1.7,10,7.9,10.3,8.2
		l49.7,39.2c0.8,0.6,2.4,2,2.8,3.6c0.3,1.2,0.4,3.3,0.5,3.7c0,0.3,0.3,6.4-1.5,13.2c-0.1,0.2-0.4,1.5-2.1,5.4l-0.1,0.2
		c-0.8,1.5-2.6,3.2-5,3c-2.5-0.2-4.1-1-5.4-4.5c-0.8-2.2-3.4-8.7-4-10.1c-0.1-0.1-0.1-0.1-0.2-0.2c-0.6,0.1-1.3,0.6-1.4,0.7
		l-16.2,14.9c-0.1,0.1-3.6,3.4-8.7,4.4c-1.5,0.3-3.2,0.4-5,0.4c-2.5,0-4.5-0.3-4.9-0.3c-0.7-0.1-6.5-0.7-8.7-0.5
		c-2.8,0.2-4.1,0.6-4.7,0.9c-0.8,0.3-1.3,0.8-1.8,1.5c-0.7,1-12.7,19.2-20.6,31.3l-12,18.2c0,0.1,0,0.2,0,0.5c0,0.5,0.5,4.6,4.7,9.9
		c0,0,1.5,1.8,3.7,3.5c0.2,0.2,0.3,0.2,0.4,0.2c0.3,0,0.8-0.3,1-0.5l2.8-3C198.7,196.5,200.1,195.3,202,195.3L202,195.3z"/>
</g>
<g id="PUNTOS_INTERMEDIOS_Y_SEMAFORO">
	<path fill="#AC1737" d="M286.8,207.7c-0.2,0.5-0.7,0.7-1.1,0.5l-25.4-9.2c-0.5-0.2-0.7-0.7-0.5-1.1c0.2-0.5,0.7-0.7,1.1-0.5
		l25.4,9.2C286.7,206.8,287,207.3,286.8,207.7z"/>
	<g>
		<path fill="#AC1737" d="M275.3,201.6c0-4.2,3.4-7.6,7.6-7.6h2.7c4.2,0,7.6,3.4,7.6,7.6v4.8c0,4.2-3.4,7.6-7.6,7.6h-2.7
			c-4.2,0-7.6-3.4-7.6-7.6V201.6L275.3,201.6z"/>
		<g>
			<path fill="#FFFFFF" d="M282.1,206.1c0.6,0.6,1.4,0.9,2.2,0.9c0.9,0,1.4-0.4,1.4-1.1c0-0.7-0.5-0.9-1.3-1.2l-1.1-0.5
				c-0.8-0.3-1.7-1-1.7-2.2c0-1.3,1.2-2.3,2.8-2.3c1,0,1.9,0.4,2.6,1.1l-0.8,0.9c-0.5-0.4-1.1-0.7-1.8-0.7c-0.8,0-1.3,0.4-1.3,1
				c0,0.6,0.6,0.9,1.3,1.2l1.1,0.5c1,0.4,1.7,1,1.7,2.2c0,1.3-1.1,2.5-3,2.5c-1.1,0-2.2-0.4-3-1.2L282.1,206.1z"/>
		</g>
	</g>
	<g>
		<path fill="#AC1737" d="M211.5,14.1c0-4.2,3.4-7.6,7.7-7.6h11.7c4.2,0,7.6,3.4,7.6,7.6v4.8c0,4.2-3.4,7.6-7.6,7.6h-11.7
			c-4.2,0-7.7-3.4-7.7-7.6V14.1L211.5,14.1z"/>
		<g>
			<path fill="#FFFFFF" d="M219,12.3h5v1.2h-3.5v2.3h3v1.2h-3v3.5H219V12.3z"/>
			<path fill="#FFFFFF" d="M226.1,12.3h1.5v7.1h3.4v1.2h-4.9V12.3z"/>
		</g>
	</g>
	<g>
		<path fill="#AC1737" d="M225,14.4c-0.5,0.1-0.8,0.5-0.8,1l3.5,25c0.1,0.5,0.5,0.8,0.9,0.7l17.5-2.5c0.5-0.1,0.8-0.5,0.8-1
			c-0.1-0.5-0.5-0.8-1-0.8l-16.3,2.3c-0.2,0-0.4-0.1-0.4-0.3L226,15.2C225.9,14.7,225.5,14.3,225,14.4z"/>
		<path fill="#AC1737" d="M247.2,38.1c0.3-0.3,0.3-0.8-0.1-0.9l-3.4-1.4l-3.4-1.4c-0.4-0.2-0.8,0.2-0.7,0.6l0.5,3.6l0.5,3.6
			c0.1,0.4,0.5,0.6,0.9,0.4l2.9-2.3L247.2,38.1z"/>
	</g>
	<g>
		<path fill="#7B7C7D" d="M150.4,12.3c0-4.2,3.4-7.6,7.6-7.6h45.8c4.2,0,7.6,3.4,7.6,7.6v8.3c0,4.2-3.4,7.6-7.6,7.6h-45.8
			c-4.2,0-7.6-3.4-7.6-7.6V12.3L150.4,12.3z"/>
		<g>
			<path fill="#FFFFFF" d="M199.4,26c-3.9,0-7.1-3.2-7.1-7.1v-4.8c0-3.9,3.2-7.1,7.1-7.1h2.7c3.9,0,7.1,3.2,7.1,7.1v4.8
				c0,3.9-3.2,7.1-7.1,7.1H199.4z"/>
			<path fill="#C7C6C5" d="M202.1,7.4c3.7,0,6.6,3,6.6,6.6v4.8c0,3.7-3,6.6-6.6,6.6h-2.7c-3.7,0-6.6-3-6.6-6.6v-4.8
				c0-3.7,3-6.6,6.6-6.6H202.1 M202.1,6.4h-2.7c-4.2,0-7.6,3.4-7.6,7.6v4.8c0,4.2,3.4,7.6,7.6,7.6h2.7c4.2,0,7.6-3.4,7.6-7.6v-4.8
				C209.7,9.8,206.3,6.4,202.1,6.4L202.1,6.4z"/>
		</g>
		<g>
			<defs>
				<path id="SVGID_3_" d="M191.7,14.1c0-4.2,3.4-7.6,7.6-7.6h2.7c4.2,0,7.6,3.4,7.6,7.6v4.8c0,4.2-3.4,7.6-7.6,7.6h-2.7
					c-4.2,0-7.6-3.4-7.6-7.6V14.1L191.7,14.1z"/>
			</defs>
			<clipPath id="SVGID_2_">
				<use xlink:href="#SVGID_3_"  overflow="visible"/>
			</clipPath>
			<g clip-path="url(#SVGID_2_)">
				<rect x="186.4" y="8.1" fill="#1E1E1C" width="4.2" height="4.2"/>
				<rect x="190.6" y="12.2" fill="#1E1E1C" width="4.2" height="4.2"/>
				<rect x="194.8" y="8.1" fill="#1E1E1C" width="4.2" height="4.2"/>
				<rect x="198.9" y="12.2" fill="#1E1E1C" width="4.2" height="4.2"/>
				<rect x="186.4" y="16.4" fill="#1E1E1C" width="4.2" height="4.2"/>
				<rect x="190.6" y="20.6" fill="#1E1E1C" width="4.2" height="4.2"/>
				<rect x="194.8" y="16.4" fill="#1E1E1C" width="4.2" height="4.2"/>
				<rect x="198.9" y="20.6" fill="#1E1E1C" width="4.2" height="4.2"/>
				<rect x="203.1" y="8.1" fill="#1E1E1C" width="4.2" height="4.2"/>
				<rect x="207.3" y="12.2" fill="#1E1E1C" width="4.2" height="4.2"/>
				<rect x="203.1" y="16.4" fill="#1E1E1C" width="4.2" height="4.2"/>
				<rect x="207.3" y="20.6" fill="#1E1E1C" width="4.2" height="4.2"/>
			</g>
		</g>
		<g>
			<path fill="#C01724" d="M159.8,26c-3.9,0-7.1-3.2-7.1-7.1v-4.8c0-3.9,3.2-7.1,7.1-7.1h2.7c3.9,0,7.1,3.2,7.1,7.1v4.8
				c0,3.9-3.2,7.1-7.1,7.1H159.8z"/>
			<path fill="#AA1920" d="M162.5,7.4c3.7,0,6.6,3,6.6,6.6v4.8c0,3.7-3,6.6-6.6,6.6h-2.7c-3.7,0-6.6-3-6.6-6.6v-4.8
				c0-3.7,3-6.6,6.6-6.6H162.5 M162.5,6.4h-2.7c-4.2,0-7.6,3.4-7.6,7.6v4.8c0,4.2,3.4,7.6,7.6,7.6h2.7c4.2,0,7.6-3.4,7.6-7.6v-4.8
				C170.2,9.8,166.8,6.4,162.5,6.4L162.5,6.4z"/>
		</g>
		<g>
			<path fill="#009548" d="M179.6,26c-3.9,0-7.1-3.2-7.1-7.1v-4.8c0-3.9,3.2-7.1,7.1-7.1h2.7c3.9,0,7.1,3.2,7.1,7.1v4.8
				c0,3.9-3.2,7.1-7.1,7.1H179.6z"/>
			<path fill="#006139" d="M182.3,7.4c3.7,0,6.6,3,6.6,6.6v4.8c0,3.7-3,6.6-6.6,6.6h-2.7c-3.7,0-6.6-3-6.6-6.6v-4.8
				c0-3.7,3-6.6,6.6-6.6H182.3 M182.3,6.4h-2.7c-4.2,0-7.6,3.4-7.6,7.6v4.8c0,4.2,3.4,7.6,7.6,7.6h2.7c4.2,0,7.6-3.4,7.6-7.6v-4.8
				C190,9.8,186.5,6.4,182.3,6.4L182.3,6.4z"/>
		</g>
		<g>
			<path fill="#C7C6C5" d="M202.1,7.4c3.7,0,6.6,3,6.6,6.6v4.8c0,3.7-3,6.6-6.6,6.6h-2.7c-3.7,0-6.6-3-6.6-6.6v-4.8
				c0-3.7,3-6.6,6.6-6.6H202.1 M202.1,6.4h-2.7c-4.2,0-7.6,3.4-7.6,7.6v4.8c0,4.2,3.4,7.6,7.6,7.6h2.7c4.2,0,7.6-3.4,7.6-7.6v-4.8
				C209.7,9.8,206.3,6.4,202.1,6.4L202.1,6.4z"/>
		</g>
	</g>
</g>
<g id="textos_y_numeros">
	<g>
		<g>
			<path fill="#7B7C7D" d="M255.5,240.1h-4.2v-1.4h6v1c-2.1,2.6-2.5,4.5-2.6,8H253C253.1,244.5,253.7,242.5,255.5,240.1z"/>
			<path fill="#7B7C7D" d="M262.2,245.4c0.7,0.6,1.6,1,2.4,1c1,0,1.6-0.5,1.6-1.2c0-0.8-0.6-1-1.4-1.4l-1.3-0.6
				c-0.9-0.4-1.9-1.1-1.9-2.5c0-1.5,1.3-2.6,3.1-2.6c1.1,0,2.1,0.5,2.9,1.2l-0.8,1c-0.6-0.5-1.2-0.8-2-0.8c-0.9,0-1.4,0.4-1.4,1.1
				c0,0.7,0.7,1,1.5,1.3l1.2,0.5c1.1,0.5,1.9,1.2,1.9,2.5c0,1.5-1.2,2.7-3.3,2.7c-1.2,0-2.4-0.5-3.3-1.4L262.2,245.4z"/>
			<path fill="#7B7C7D" d="M269.6,242.1h-1v-1.2l1.1-0.1l0.2-1.9h1.4v1.9h1.8v1.3h-1.8v3.3c0,0.8,0.3,1.2,1,1.2
				c0.2,0,0.5-0.1,0.7-0.2l0.3,1.2c-0.4,0.1-0.9,0.3-1.4,0.3c-1.6,0-2.2-1-2.2-2.5V242.1z"/>
			<path fill="#7B7C7D" d="M277.3,240.6c1.7,0,3.3,1.3,3.3,3.6c0,2.3-1.6,3.6-3.3,3.6c-1.7,0-3.3-1.3-3.3-3.6
				C274,241.9,275.6,240.6,277.3,240.6z M277.3,246.6c1,0,1.6-0.9,1.6-2.3c0-1.4-0.6-2.3-1.6-2.3c-1,0-1.6,0.9-1.6,2.3
				C275.7,245.6,276.3,246.6,277.3,246.6z"/>
			<path fill="#7B7C7D" d="M281.5,240.8h1.6l0.8,3.6c0.1,0.7,0.2,1.3,0.4,2h0.1c0.1-0.7,0.3-1.3,0.4-2l0.9-3.6h1.5l0.9,3.6
				c0.2,0.7,0.3,1.3,0.5,2h0.1c0.1-0.7,0.2-1.3,0.4-2l0.8-3.6h1.5l-1.8,6.9h-1.9l-0.8-3.2c-0.2-0.6-0.3-1.3-0.4-2h-0.1
				c-0.1,0.7-0.3,1.4-0.4,2l-0.8,3.2h-1.9L281.5,240.8z"/>
			<path fill="#7B7C7D" d="M295.5,240.6c1.9,0,2.9,1.4,2.9,3.3c0,0.3,0,0.6-0.1,0.8h-4.4c0.1,1.3,0.9,2,2,2c0.6,0,1.1-0.2,1.6-0.5
				l0.5,1c-0.7,0.4-1.5,0.7-2.4,0.7c-1.9,0-3.4-1.3-3.4-3.6C292.3,242,293.9,240.6,295.5,240.6z M297,243.6c0-1.1-0.5-1.8-1.4-1.8
				c-0.8,0-1.5,0.6-1.7,1.8H297z"/>
		</g>
	</g>
	<g>
		<g>
			<path fill="#7B7C7D" d="M217.9,194.1l0.9,0.9l-1.6,3c-0.4,0.7-0.7,1.2-1.1,1.9l0,0c0.7-0.4,1.2-0.7,1.9-1.1l3-1.7l0.8,0.8l-6,3.3
				l-1-1L217.9,194.1z"/>
			<path fill="#7B7C7D" d="M221.8,202.7c0.4-0.4,0.5-0.8,0-1.3c-0.3-0.3-0.8-0.5-1.3-0.6l0.2-0.8c0.6,0.1,1.3,0.4,1.9,0.9
				c0.9,0.9,0.8,1.8-0.2,2.8l-2,2.1l-0.7-0.7l0.3-0.4l0,0c-0.6,0-1.1-0.2-1.5-0.6c-0.6-0.6-0.6-1.4,0-2
				C219.2,201.2,220.2,201.4,221.8,202.7z M219.4,203.6c0.3,0.3,0.6,0.4,1.1,0.4l0.8-0.8c-1.1-0.8-1.6-0.9-2-0.5
				C219,203,219.1,203.3,219.4,203.6z"/>
			<path fill="#7B7C7D" d="M226.4,201.7l0.8,0.8l-4.1,4.2c-0.2,0.2-0.2,0.4-0.1,0.4c0,0,0.1,0.1,0.1,0.1l-0.5,0.7
				c-0.1-0.1-0.3-0.2-0.5-0.4c-0.6-0.6-0.4-1.2,0.2-1.8L226.4,201.7z"/>
			<path fill="#7B7C7D" d="M228.3,206.4c0.9,0.9,0.8,2.1-0.2,3.1c-0.2,0.2-0.3,0.3-0.4,0.3l-2.2-2.2c-0.6,0.7-0.5,1.5,0.1,2
				c0.3,0.3,0.6,0.5,1.1,0.5l-0.2,0.8c-0.6-0.1-1.1-0.4-1.6-0.8c-1-1-1.1-2.4,0.1-3.5C226,205.5,227.5,205.6,228.3,206.4z
				 M227.5,208.6c0.5-0.6,0.6-1.1,0.2-1.6c-0.4-0.4-1.1-0.4-1.7,0.1L227.5,208.6z"/>
		</g>
	</g>
	<g>
		<g>
			<path fill="#7B7C7D" d="M192.4,216.3c0.3,0.4,0.9,0.7,1.4,0.7c1.1,0,2-0.8,2.1-3.3c-0.5,0.6-1.3,1-2,1c-1.5,0-2.6-0.9-2.6-2.8
				c0-1.8,1.3-2.9,2.8-2.9c1.8,0,3.2,1.4,3.2,4.4c0,3.5-1.7,4.9-3.5,4.9c-1.1,0-1.9-0.5-2.4-1L192.4,216.3z M195.9,212.5
				c-0.2-1.6-0.8-2.3-1.7-2.3c-0.7,0-1.3,0.6-1.3,1.7c0,1.1,0.5,1.6,1.4,1.6C194.8,213.5,195.4,213.2,195.9,212.5z"/>
		</g>
	</g>
	<g>
		<g>
			<path fill="#7B7C7D" d="M119.3,145.6h-3.1l-0.7,2.5h-1.7l3-9.2h1.9l3,9.2H120L119.3,145.6z M118.9,144.3l-0.3-1.1
				c-0.3-1-0.6-2-0.8-3h-0.1c-0.3,1-0.5,2.1-0.8,3l-0.3,1.1H118.9z"/>
			<path fill="#7B7C7D" d="M122.7,138.2h1.6v2.6l0,1.2c0.6-0.5,1.3-0.9,2-0.9c1.7,0,2.7,1.4,2.7,3.5c0,2.4-1.4,3.8-3,3.8
				c-0.6,0-1.3-0.3-1.9-0.9h0l-0.1,0.7h-1.3V138.2z M125.7,147c0.9,0,1.6-0.8,1.6-2.4c0-1.4-0.5-2.2-1.5-2.2c-0.5,0-1,0.3-1.5,0.8
				v3.2C124.8,146.8,125.3,147,125.7,147z"/>
			<path fill="#7B7C7D" d="M130.7,138.2h1.6v2.6l0,1.2c0.6-0.5,1.3-0.9,2-0.9c1.7,0,2.7,1.4,2.7,3.5c0,2.4-1.4,3.8-3,3.8
				c-0.6,0-1.3-0.3-1.9-0.9h0l-0.1,0.7h-1.3V138.2z M133.7,147c0.9,0,1.6-0.8,1.6-2.4c0-1.4-0.5-2.2-1.5-2.2c-0.5,0-1,0.3-1.5,0.8
				v3.2C132.8,146.8,133.3,147,133.7,147z"/>
			<path fill="#7B7C7D" d="M141.4,141c1.9,0,2.9,1.4,2.9,3.3c0,0.3,0,0.6-0.1,0.8h-4.4c0.1,1.3,0.9,2,2,2c0.6,0,1.1-0.2,1.6-0.5
				l0.6,1c-0.7,0.4-1.5,0.7-2.4,0.7c-1.9,0-3.4-1.3-3.4-3.6C138.2,142.4,139.7,141,141.4,141z M142.8,144c0-1.1-0.5-1.8-1.4-1.8
				c-0.8,0-1.5,0.6-1.7,1.8H142.8z"/>
			<path fill="#7B7C7D" d="M146.1,149.7c0.7,0,1.2-0.5,1.4-1.2l0.1-0.4l-2.7-6.8h1.7l1.2,3.4c0.2,0.6,0.4,1.3,0.6,1.9h0.1
				c0.2-0.6,0.4-1.3,0.5-1.9l1-3.4h1.6l-2.5,7.2c-0.6,1.6-1.3,2.5-2.8,2.5c-0.4,0-0.6-0.1-0.9-0.1l0.3-1.3
				C145.8,149.6,146,149.7,146.1,149.7z"/>
			<path fill="#7B7C7D" d="M155.7,146.8h2v-5.9H156v-1c0.9-0.2,1.5-0.4,2.1-0.7h1.2v7.6h1.8v1.3h-5.4V146.8z"/>
			<path fill="#7B7C7D" d="M162.9,146.8h2v-5.9h-1.7v-1c0.9-0.2,1.5-0.4,2.1-0.7h1.2v7.6h1.8v1.3h-5.4V146.8z"/>
		</g>
	</g>
	<g>
		<g>
			<path fill="#7B7C7D" d="M194,116.3h5.6v1.4h-3.9v2.6h3.3v1.4h-3.3v3.9H194V116.3z"/>
			<path fill="#7B7C7D" d="M204.8,121.1c0-0.7-0.3-1.4-1.3-1.4c-0.7,0-1.3,0.3-1.9,0.7l-0.6-1.1c0.8-0.5,1.7-0.9,2.8-0.9
				c1.7,0,2.6,1.1,2.6,3v4.1H205l-0.1-0.8h0c-0.6,0.5-1.3,0.9-2.1,0.9c-1.2,0-2.1-0.8-2.1-2C200.7,122.2,201.9,121.4,204.8,121.1z
				 M203.2,124.4c0.6,0,1-0.3,1.5-0.8v-1.6c-1.9,0.2-2.5,0.7-2.5,1.4C202.3,124.1,202.7,124.4,203.2,124.4z"/>
			<path fill="#7B7C7D" d="M208.3,118.6h1.3l0.1,1.2h0.1c0.5-0.9,1.2-1.4,2-1.4c0.4,0,0.6,0,0.8,0.1l-0.3,1.4
				c-0.2-0.1-0.4-0.1-0.7-0.1c-0.6,0-1.2,0.4-1.6,1.4v4.2h-1.6V118.6z"/>
			<path fill="#7B7C7D" d="M213.6,118.6h1.3l0.1,0.9h0.1c0.6-0.6,1.3-1.1,2.1-1.1c1,0,1.6,0.5,1.9,1.2c0.7-0.7,1.4-1.2,2.2-1.2
				c1.5,0,2.1,1,2.1,2.8v4.3h-1.6v-4.1c0-1.1-0.3-1.6-1.1-1.6c-0.4,0-0.9,0.3-1.5,0.9v4.8h-1.6v-4.1c0-1.1-0.3-1.6-1.1-1.6
				c-0.4,0-0.9,0.3-1.5,0.9v4.8h-1.6V118.6z"/>
			<path fill="#7B7C7D" d="M228.4,124.2h2v-5.9h-1.7v-1c0.9-0.2,1.5-0.4,2.1-0.7h1.2v7.6h1.8v1.3h-5.4V124.2z"/>
			<path fill="#7B7C7D" d="M235.1,124.6c2.5-2.4,4.1-4,4.1-5.4c0-0.9-0.5-1.6-1.5-1.6c-0.7,0-1.3,0.5-1.8,1l-0.9-0.9
				c0.8-0.9,1.6-1.4,2.9-1.4c1.7,0,2.8,1.1,2.8,2.8c0,1.6-1.5,3.2-3.3,5.1c0.5,0,1.1-0.1,1.5-0.1h2.2v1.4h-6.1V124.6z"/>
		</g>
	</g>
	<g>
		<g>
			<path fill="#7B7C7D" d="M315,191.6h2v-5.9h-1.7v-1c0.9-0.2,1.5-0.4,2.1-0.7h1.2v7.6h1.8v1.3H315V191.6z"/>
			<path fill="#7B7C7D" d="M328,190.6h-1.1v2.3h-1.5v-2.3h-4v-1.1l3.6-5.6h1.9v5.4h1.1V190.6z M325.4,189.4v-2c0-0.5,0-1.3,0.1-1.9
				h-0.1c-0.2,0.5-0.5,0.9-0.7,1.4l-1.6,2.5H325.4z"/>
			<path fill="#7B7C7D" d="M331.2,183.7h1.7l1.3,4.6c0.3,1,0.5,1.9,0.8,3h0.1c0.3-1.1,0.5-2,0.8-3l1.3-4.6h1.7L336,193h-1.9
				L331.2,183.7z"/>
			<path fill="#7B7C7D" d="M339.7,183.9c0-0.6,0.4-0.9,1-0.9c0.6,0,1,0.4,1,0.9c0,0.5-0.4,0.9-1,0.9
				C340.1,184.8,339.7,184.4,339.7,183.9z M339.9,186h1.6v6.9h-1.6V186z"/>
			<path fill="#7B7C7D" d="M343.6,183h1.6v8.3c0,0.4,0.2,0.5,0.4,0.5c0.1,0,0.1,0,0.3,0l0.2,1.2c-0.2,0.1-0.5,0.1-0.9,0.1
				c-1.2,0-1.6-0.7-1.6-1.9V183z"/>
			<path fill="#7B7C7D" d="M347.4,183h1.6v8.3c0,0.4,0.2,0.5,0.4,0.5c0.1,0,0.1,0,0.3,0l0.2,1.2c-0.2,0.1-0.5,0.1-0.9,0.1
				c-1.2,0-1.6-0.7-1.6-1.9V183z"/>
			<path fill="#7B7C7D" d="M355,188.5c0-0.7-0.3-1.4-1.3-1.4c-0.7,0-1.3,0.3-1.9,0.7l-0.6-1.1c0.8-0.5,1.7-0.9,2.8-0.9
				c1.7,0,2.6,1.1,2.6,3v4.1h-1.3l-0.1-0.8h0c-0.6,0.5-1.3,0.9-2.1,0.9c-1.2,0-2.1-0.8-2.1-2C350.9,189.6,352.1,188.8,355,188.5z
				 M353.5,191.9c0.6,0,1-0.3,1.5-0.8v-1.6c-1.9,0.2-2.5,0.7-2.5,1.4C352.5,191.6,352.9,191.9,353.5,191.9z"/>
			<path fill="#7B7C7D" d="M359.1,192.7L359.1,192.7c-0.4-0.3-0.6-0.6-0.6-1.2c0-0.5,0.4-1,0.8-1.3v-0.1c-0.5-0.4-0.9-1-0.9-1.8
				c0-1.6,1.3-2.5,2.7-2.5c0.4,0,0.7,0.1,1,0.2h2.5v1.2h-1.3c0.2,0.3,0.4,0.7,0.4,1.2c0,1.5-1.2,2.4-2.6,2.4c-0.3,0-0.6-0.1-0.9-0.2
				c-0.2,0.2-0.3,0.4-0.3,0.7c0,0.4,0.3,0.6,1.1,0.6h1.2c1.7,0,2.5,0.5,2.5,1.7c0,1.4-1.4,2.4-3.7,2.4c-1.7,0-2.9-0.6-2.9-1.8
				C358.1,193.6,358.5,193.1,359.1,192.7z M361.2,195c1.1,0,1.9-0.5,1.9-1.1c0-0.5-0.4-0.7-1.2-0.7H361c-0.4,0-0.7,0-0.9-0.1
				c-0.4,0.3-0.5,0.6-0.5,0.9C359.5,194.6,360.1,195,361.2,195z M362.3,188.3c0-0.9-0.5-1.4-1.2-1.4c-0.7,0-1.2,0.5-1.2,1.4
				c0,0.9,0.5,1.4,1.2,1.4C361.7,189.7,362.3,189.2,362.3,188.3z"/>
			<path fill="#7B7C7D" d="M368.7,185.9c1.9,0,2.9,1.4,2.9,3.3c0,0.3,0,0.6-0.1,0.8H367c0.1,1.3,0.9,2,2,2c0.6,0,1.1-0.2,1.6-0.5
				l0.5,1c-0.7,0.4-1.5,0.7-2.4,0.7c-1.9,0-3.4-1.3-3.4-3.6C365.5,187.2,367,185.9,368.7,185.9z M370.1,188.9c0-1.1-0.5-1.8-1.4-1.8
				c-0.8,0-1.5,0.6-1.7,1.8H370.1z"/>
			<path fill="#7B7C7D" d="M378,185.1h-2.7v-1.4h7v1.4h-2.7v7.8H378V185.1z"/>
			<path fill="#7B7C7D" d="M383.6,183h1.6v2.6l-0.1,1.3c0.6-0.6,1.3-1,2.2-1c1.5,0,2.1,1,2.1,2.8v4.3h-1.6v-4.1
				c0-1.1-0.3-1.6-1.1-1.6c-0.6,0-1,0.3-1.6,0.9v4.8h-1.6V183z"/>
			<path fill="#7B7C7D" d="M394.2,185.9c1.9,0,2.9,1.4,2.9,3.3c0,0.3,0,0.6-0.1,0.8h-4.4c0.1,1.3,0.9,2,2,2c0.6,0,1.1-0.2,1.6-0.5
				l0.5,1c-0.7,0.4-1.5,0.7-2.4,0.7c-1.9,0-3.4-1.3-3.4-3.6C391.1,187.2,392.6,185.9,394.2,185.9z M395.7,188.9
				c0-1.1-0.5-1.8-1.4-1.8c-0.8,0-1.5,0.6-1.7,1.8H395.7z"/>
			<path fill="#7B7C7D" d="M401.7,183.7h1.6v7.8h3.8v1.4h-5.5V183.7z"/>
			<path fill="#7B7C7D" d="M411.4,185.9c1.7,0,3.3,1.3,3.3,3.6c0,2.3-1.6,3.6-3.3,3.6c-1.7,0-3.3-1.3-3.3-3.6
				C408.1,187.2,409.7,185.9,411.4,185.9z M411.4,191.8c1,0,1.6-0.9,1.6-2.3c0-1.4-0.6-2.3-1.6-2.3c-1,0-1.6,0.9-1.6,2.3
				C409.8,190.9,410.4,191.8,411.4,191.8z"/>
			<path fill="#7B7C7D" d="M419.2,185.9c1.7,0,3.3,1.3,3.3,3.6c0,2.3-1.6,3.6-3.3,3.6c-1.7,0-3.3-1.3-3.3-3.6
				C415.9,187.2,417.5,185.9,419.2,185.9z M419.2,191.8c1,0,1.6-0.9,1.6-2.3c0-1.4-0.6-2.3-1.6-2.3c-1,0-1.6,0.9-1.6,2.3
				C417.5,190.9,418.2,191.8,419.2,191.8z"/>
			<path fill="#7B7C7D" d="M425.7,193.5v2.2h-1.6V186h1.3l0.1,0.7h0.1c0.6-0.5,1.3-0.9,2.1-0.9c1.7,0,2.7,1.4,2.7,3.5
				c0,2.4-1.4,3.7-3,3.7c-0.6,0-1.2-0.3-1.8-0.8L425.7,193.5z M427.1,191.8c0.9,0,1.6-0.8,1.6-2.4c0-1.4-0.5-2.2-1.5-2.2
				c-0.5,0-1,0.3-1.5,0.8v3.2C426.2,191.6,426.7,191.8,427.1,191.8z"/>
		</g>
	</g>
	<g>
		<g>
			<path fill="#7B7C7D" d="M130.3,69h1.6v7.8h3.8v1.4h-5.5V69z"/>
			<path fill="#7B7C7D" d="M137.1,71.3h1.6v4.1c0,1.1,0.3,1.6,1.1,1.6c0.6,0,1-0.3,1.5-1v-4.7h1.6v6.9h-1.3l-0.1-1h0
				c-0.6,0.7-1.3,1.2-2.2,1.2c-1.5,0-2.1-1-2.1-2.8V71.3z"/>
			<path fill="#7B7C7D" d="M152.8,69.6c-0.3-0.1-0.5-0.2-0.7-0.2c-0.6,0-0.9,0.4-0.9,1.2v0.7h1.4v1.3h-1.4v5.6h-1.6v-5.6H147v5.6
				h-1.6v-5.6h-0.9v-1.2l0.9-0.1v-0.6c0-1.4,0.7-2.5,2.4-2.5c0.5,0,1,0.1,1.4,0.3l-0.3,1.2c-0.3-0.1-0.5-0.2-0.9-0.2
				c-0.6,0-0.9,0.4-0.9,1.2v0.6h2.6v-0.7c0-1.4,0.7-2.5,2.3-2.5c0.5,0,1,0.1,1.3,0.2L152.8,69.6z"/>
			<path fill="#7B7C7D" d="M153.6,69.2c0-0.6,0.4-0.9,1-0.9s1,0.4,1,0.9c0,0.5-0.4,0.9-1,0.9S153.6,69.7,153.6,69.2z M153.8,71.3
				h1.6v6.9h-1.6V71.3z"/>
			<path fill="#7B7C7D" d="M160.2,71.1c1.9,0,2.9,1.4,2.9,3.3c0,0.3,0,0.6-0.1,0.8h-4.4c0.1,1.3,0.9,2,2,2c0.6,0,1.1-0.2,1.6-0.5
				l0.6,1c-0.7,0.4-1.5,0.7-2.4,0.7c-1.9,0-3.4-1.3-3.4-3.6C157,72.5,158.6,71.1,160.2,71.1z M161.6,74.2c0-1.1-0.5-1.8-1.4-1.8
				c-0.8,0-1.5,0.6-1.7,1.8H161.6z"/>
			<path fill="#7B7C7D" d="M164.6,68.3h1.6v8.3c0,0.4,0.2,0.5,0.4,0.5c0.1,0,0.1,0,0.3,0l0.2,1.2c-0.2,0.1-0.5,0.1-0.9,0.1
				c-1.2,0-1.6-0.7-1.6-1.9V68.3z"/>
			<path fill="#7B7C7D" d="M170.9,71.1c0.8,0,1.3,0.3,1.8,0.8l-0.1-1.1v-2.5h1.6v10H173l-0.1-0.7h-0.1c-0.5,0.5-1.2,0.9-2,0.9
				c-1.7,0-2.9-1.3-2.9-3.6C168,72.5,169.4,71.1,170.9,71.1z M171.3,77.1c0.5,0,1-0.2,1.5-0.8v-3.2c-0.5-0.4-0.9-0.6-1.4-0.6
				c-0.9,0-1.6,0.8-1.6,2.3C169.7,76.3,170.2,77.1,171.3,77.1z"/>
			<path fill="#7B7C7D" d="M179.3,76.9h2V71h-1.7v-1c0.9-0.2,1.5-0.4,2.1-0.7h1.2v7.6h1.8v1.3h-5.4V76.9z"/>
			<path fill="#7B7C7D" d="M190.4,70.6h-4.2v-1.4h6v1c-2.1,2.6-2.5,4.5-2.6,8h-1.7C188,75.1,188.6,73.1,190.4,70.6z"/>
		</g>
	</g>
	<g>
		<g>
			<path fill="#7B7C7D" d="M72.4,107.3h2v-5.9h-1.7v-1c0.9-0.2,1.5-0.4,2.1-0.7h1.2v7.6h1.8v1.3h-5.4V107.3z"/>
			<path fill="#7B7C7D" d="M84.3,101.5c-0.3-0.4-0.9-0.7-1.4-0.7c-1.1,0-2,0.8-2.1,3.3c0.5-0.7,1.3-1.1,1.9-1.1
				c1.6,0,2.6,0.9,2.6,2.8c0,1.8-1.3,2.9-2.8,2.9c-1.8,0-3.3-1.4-3.3-4.4c0-3.5,1.7-4.9,3.5-4.9c1.1,0,1.9,0.5,2.4,1L84.3,101.5z
				 M83.8,105.9c0-1.1-0.5-1.6-1.4-1.6c-0.5,0-1.1,0.3-1.6,1c0.2,1.6,0.8,2.3,1.7,2.3C83.2,107.6,83.8,107,83.8,105.9z"/>
			<path fill="#7B7C7D" d="M89.9,99.4h3c1.9,0,3.3,0.6,3.3,2.3c0,0.9-0.5,1.7-1.6,2v0.1c1.3,0.2,2.1,0.9,2.1,2.2
				c0,1.8-1.5,2.7-3.5,2.7h-3.2V99.4z M92.7,103.2c1.3,0,1.8-0.5,1.8-1.4c0-0.8-0.6-1.2-1.8-1.2h-1.2v2.6H92.7z M93,107.4
				c1.4,0,2.1-0.5,2.1-1.6c0-1-0.7-1.4-2.1-1.4h-1.4v3H93z"/>
			<path fill="#7B7C7D" d="M98.2,101.7h1.3l0.1,1.2h0.1c0.5-0.9,1.2-1.4,2-1.4c0.4,0,0.6,0,0.8,0.1l-0.3,1.4
				c-0.2-0.1-0.4-0.1-0.7-0.1c-0.6,0-1.2,0.4-1.6,1.4v4.2h-1.6V101.7z"/>
			<path fill="#7B7C7D" d="M106.3,101.6c1.7,0,3.3,1.3,3.3,3.6c0,2.3-1.6,3.6-3.3,3.6c-1.7,0-3.3-1.3-3.3-3.6
				C103,102.9,104.6,101.6,106.3,101.6z M106.3,107.5c1,0,1.6-0.9,1.6-2.3c0-1.4-0.6-2.3-1.6-2.3c-1,0-1.6,0.9-1.6,2.3
				C104.7,106.6,105.3,107.5,106.3,107.5z"/>
			<path fill="#7B7C7D" d="M114,101.6c1.7,0,3.3,1.3,3.3,3.6c0,2.3-1.6,3.6-3.3,3.6c-1.7,0-3.3-1.3-3.3-3.6
				C110.7,102.9,112.3,101.6,114,101.6z M114,107.5c1,0,1.6-0.9,1.6-2.3c0-1.4-0.6-2.3-1.6-2.3c-1,0-1.6,0.9-1.6,2.3
				C112.4,106.6,113,107.5,114,107.5z"/>
			<path fill="#7B7C7D" d="M118.9,98.7h1.6v6.2h0l2.6-3.2h1.8l-2.4,2.8l2.6,4.1h-1.8l-1.8-3l-1.1,1.2v1.8h-1.6V98.7z"/>
			<path fill="#7B7C7D" d="M126.3,98.7h1.6v8.3c0,0.4,0.2,0.5,0.4,0.5c0.1,0,0.1,0,0.3,0l0.2,1.2c-0.2,0.1-0.5,0.1-0.9,0.1
				c-1.2,0-1.6-0.7-1.6-1.9V98.7z"/>
			<path fill="#7B7C7D" d="M133.9,104.2c0-0.7-0.3-1.4-1.3-1.4c-0.7,0-1.3,0.3-1.9,0.7l-0.6-1.1c0.8-0.5,1.7-0.9,2.8-0.9
				c1.7,0,2.6,1.1,2.6,3v4.1h-1.3l-0.1-0.8h0c-0.6,0.5-1.3,0.9-2.1,0.9c-1.2,0-2.1-0.8-2.1-2C129.8,105.3,131.1,104.5,133.9,104.2z
				 M132.4,107.6c0.6,0,1-0.3,1.5-0.8v-1.6c-1.9,0.2-2.5,0.7-2.5,1.4C131.4,107.3,131.8,107.6,132.4,107.6z"/>
			<path fill="#7B7C7D" d="M137.5,101.7h1.3l0.1,0.9h0.1c0.6-0.6,1.3-1.1,2.3-1.1c1.5,0,2.1,1,2.1,2.8v4.3h-1.6v-4.1
				c0-1.1-0.3-1.6-1.1-1.6c-0.6,0-1,0.3-1.6,0.9v4.8h-1.6V101.7z"/>
			<path fill="#7B7C7D" d="M147.9,101.6c0.8,0,1.3,0.3,1.8,0.8l-0.1-1.1v-2.5h1.6v10H150l-0.1-0.7h-0.1c-0.5,0.5-1.2,0.9-2,0.9
				c-1.7,0-2.9-1.3-2.9-3.6C145,102.9,146.4,101.6,147.9,101.6z M148.2,107.5c0.5,0,1-0.2,1.5-0.8v-3.2c-0.5-0.4-0.9-0.6-1.4-0.6
				c-0.9,0-1.6,0.8-1.6,2.3C146.7,106.7,147.2,107.5,148.2,107.5z"/>
			<path fill="#7B7C7D" d="M153.4,106.8c0.6,0.5,1.2,0.8,1.9,0.8c0.7,0,1.1-0.4,1.1-0.8c0-0.6-0.7-0.8-1.5-1.1
				c-0.9-0.3-1.9-0.9-1.9-2c0-1.2,1-2.1,2.5-2.1c1,0,1.7,0.4,2.3,0.8l-0.7,1c-0.5-0.4-1-0.6-1.5-0.6c-0.7,0-1,0.3-1,0.8
				c0,0.5,0.7,0.8,1.4,1c0.9,0.4,2,0.8,2,2.1c0,1.2-0.9,2.1-2.7,2.1c-0.9,0-1.9-0.4-2.6-1L153.4,106.8z"/>
		</g>
	</g>
	<g>
		<g>
			<path fill="#7B7C7D" d="M95.7,35.8h1.7l0.8,4.7c0.2,1,0.3,2,0.5,3h0.1c0.2-1,0.4-2,0.6-3l1.1-4.7h1.4l1.1,4.7c0.2,1,0.4,2,0.6,3
				h0.1c0.2-1,0.3-2,0.5-3l0.8-4.7h1.6l-1.8,9.2h-2l-1.1-4.9c-0.2-0.7-0.3-1.4-0.4-2.1h-0.1c-0.1,0.7-0.3,1.4-0.4,2.1l-1.1,4.9h-2
				L95.7,35.8z"/>
			<path fill="#7B7C7D" d="M110.6,38c1.7,0,3.3,1.3,3.3,3.6c0,2.3-1.6,3.6-3.3,3.6c-1.7,0-3.3-1.3-3.3-3.6
				C107.3,39.3,108.9,38,110.6,38z M110.6,43.9c1,0,1.6-0.9,1.6-2.3c0-1.4-0.6-2.3-1.6-2.3c-1,0-1.6,0.9-1.6,2.3
				C109,43,109.6,43.9,110.6,43.9z"/>
			<path fill="#7B7C7D" d="M118.3,38c1.7,0,3.3,1.3,3.3,3.6c0,2.3-1.6,3.6-3.3,3.6c-1.7,0-3.3-1.3-3.3-3.6
				C115,39.3,116.6,38,118.3,38z M118.3,43.9c1,0,1.6-0.9,1.6-2.3c0-1.4-0.6-2.3-1.6-2.3c-1,0-1.6,0.9-1.6,2.3
				C116.7,43,117.3,43.9,118.3,43.9z"/>
			<path fill="#7B7C7D" d="M125.8,38c0.8,0,1.3,0.3,1.8,0.8l-0.1-1.1v-2.5h1.6v10h-1.3l-0.1-0.7h-0.1c-0.5,0.5-1.2,0.9-2,0.9
				c-1.7,0-2.9-1.3-2.9-3.6C122.8,39.3,124.2,38,125.8,38z M126.1,43.9c0.5,0,1-0.2,1.5-0.8v-3.2c-0.5-0.4-0.9-0.6-1.4-0.6
				c-0.9,0-1.6,0.8-1.6,2.3C124.5,43.1,125.1,43.9,126.1,43.9z"/>
			<path fill="#7B7C7D" d="M134.2,38c0.9,0,1.6,0.4,2,0.8l-0.8,1c-0.4-0.3-0.7-0.5-1.2-0.5c-1.1,0-1.9,0.9-1.9,2.3
				c0,1.4,0.8,2.3,1.8,2.3c0.6,0,1-0.3,1.4-0.6l0.7,1c-0.6,0.6-1.5,0.9-2.3,0.9c-1.9,0-3.3-1.3-3.3-3.6
				C130.8,39.3,132.4,38,134.2,38z"/>
			<path fill="#7B7C7D" d="M140.6,38c1.7,0,3.3,1.3,3.3,3.6c0,2.3-1.6,3.6-3.3,3.6c-1.7,0-3.3-1.3-3.3-3.6
				C137.3,39.3,138.8,38,140.6,38z M140.6,43.9c1,0,1.6-0.9,1.6-2.3c0-1.4-0.6-2.3-1.6-2.3c-1,0-1.6,0.9-1.6,2.3
				C138.9,43,139.5,43.9,140.6,43.9z"/>
			<path fill="#7B7C7D" d="M145.7,39.4h-1v-1.2l1.1-0.1l0.2-1.9h1.4v1.9h1.8v1.3h-1.8v3.3c0,0.8,0.3,1.2,1,1.2
				c0.2,0,0.5-0.1,0.7-0.2l0.3,1.2c-0.4,0.1-0.9,0.3-1.4,0.3c-1.6,0-2.2-1-2.2-2.5V39.4z"/>
			<path fill="#7B7C7D" d="M153.3,38c1.9,0,2.9,1.4,2.9,3.3c0,0.3,0,0.6-0.1,0.8h-4.4c0.1,1.3,0.9,2,2,2c0.6,0,1.1-0.2,1.6-0.5
				l0.6,1c-0.7,0.4-1.5,0.7-2.4,0.7c-1.9,0-3.4-1.3-3.4-3.6C150.1,39.3,151.7,38,153.3,38z M154.8,41c0-1.1-0.5-1.8-1.4-1.8
				c-0.8,0-1.5,0.6-1.7,1.8H154.8z"/>
			<path fill="#7B7C7D" d="M160.6,43.7h2v-5.9H161v-1c0.9-0.2,1.5-0.4,2.1-0.7h1.2v7.6h1.8v1.3h-5.4V43.7z"/>
			<path fill="#7B7C7D" d="M169,40.5L169,40.5c-0.7-0.5-1.2-1.2-1.2-2.2c0-1.5,1.2-2.4,2.7-2.4c1.6,0,2.6,1,2.6,2.4
				c0,0.9-0.6,1.6-1.2,2.1v0.1c0.8,0.5,1.6,1.1,1.6,2.3c0,1.4-1.2,2.4-3,2.4c-1.8,0-3-1-3-2.5C167.4,41.6,168.2,40.9,169,40.5z
				 M170.5,44.1c0.9,0,1.5-0.5,1.5-1.3c0-1-0.9-1.3-2.2-1.8c-0.6,0.4-1,1-1,1.7C168.8,43.5,169.6,44.1,170.5,44.1z M171.8,38.4
				c0-0.8-0.5-1.4-1.3-1.4c-0.7,0-1.2,0.5-1.2,1.2c0,0.9,0.8,1.3,1.8,1.7C171.5,39.5,171.8,39,171.8,38.4z"/>
		</g>
	</g>
	<g>
		<g>
			<path fill="#7B7C7D" d="M193,180.1l1.2-1.8c0.8-1.2,1.8-1.8,3.1-0.9c1.2,0.8,1.1,2.1,0.3,3.2l-0.6,0.9l2,1.4l-0.7,1L193,180.1z
				 M196.8,180.1c0.6-0.8,0.5-1.4-0.2-1.9c-0.7-0.5-1.2-0.2-1.7,0.6l-0.5,0.8l1.9,1.3L196.8,180.1z"/>
			<path fill="#7B7C7D" d="M196.3,175.5c-0.3-0.2-0.4-0.6-0.1-1c0.2-0.3,0.6-0.4,0.9-0.2c0.3,0.2,0.4,0.6,0.1,1
				C197,175.6,196.6,175.7,196.3,175.5z M197.6,176.2l0.7-0.9l4,2.8l-0.7,0.9L197.6,176.2z"/>
			<path fill="#7B7C7D" d="M199.9,174.4l-0.4,0.6l-0.7-0.5l0.4-0.7l-1-0.9l0.5-0.8l1.1,0.8l0.7-1l0.8,0.5l-0.7,1l1.9,1.3
				c0.5,0.3,0.8,0.3,1.1-0.1c0.1-0.1,0.2-0.3,0.2-0.5l0.8,0.3c-0.1,0.3-0.2,0.6-0.4,0.9c-0.6,0.9-1.5,0.9-2.3,0.3L199.9,174.4z"/>
			<path fill="#7B7C7D" d="M204.2,173.1c0.5-0.2,0.9-0.4,1.2-0.8c0.3-0.4,0.2-0.8,0-1c-0.3-0.2-0.8,0.1-1.2,0.4
				c-0.6,0.4-1.3,0.8-2,0.3c-0.7-0.5-0.8-1.4-0.2-2.3c0.4-0.6,0.9-0.9,1.4-1l0.3,0.8c-0.4,0.1-0.7,0.3-1,0.7c-0.3,0.4-0.2,0.7,0,0.9
				c0.3,0.2,0.7-0.1,1.2-0.4c0.6-0.4,1.3-0.8,2-0.3c0.7,0.5,0.9,1.4,0.2,2.4c-0.4,0.6-1,1-1.6,1.1L204.2,173.1z"/>
			<path fill="#7B7C7D" d="M207.6,167.5c0.6-0.1,1.2-0.5,1.6-1c0.4-0.6,0.4-1.1,0-1.4c-0.4-0.3-0.8-0.1-1.4,0.3l-0.8,0.5
				c-0.6,0.4-1.4,0.6-2.2,0.1c-0.9-0.6-1-1.8-0.3-2.8c0.4-0.6,1.1-1.1,1.8-1.2l0.3,0.9c-0.5,0.1-0.9,0.4-1.3,0.9
				c-0.4,0.5-0.3,1,0.1,1.3c0.4,0.3,0.9,0,1.3-0.3l0.8-0.5c0.7-0.5,1.4-0.6,2.2-0.1c0.9,0.6,1.1,1.8,0.3,3c-0.5,0.7-1.3,1.2-2.1,1.4
				L207.6,167.5z"/>
			<path fill="#7B7C7D" d="M208.7,161.8l-0.4,0.6l-0.7-0.5l0.4-0.7l-1-0.9l0.5-0.8l1.1,0.8l0.7-1l0.7,0.5l-0.7,1l1.9,1.3
				c0.5,0.3,0.8,0.3,1.1-0.1c0.1-0.1,0.2-0.3,0.2-0.5l0.8,0.3c-0.1,0.3-0.2,0.6-0.4,0.9c-0.6,0.9-1.5,0.9-2.3,0.3L208.7,161.8z"/>
			<path fill="#7B7C7D" d="M209.9,158.4l0.5-0.8l0.8,0.4l0,0c-0.3-0.7-0.3-1.3,0-1.7c0.1-0.2,0.3-0.3,0.4-0.4l0.7,0.7
				c-0.1,0.1-0.2,0.2-0.4,0.4c-0.2,0.3-0.3,0.9,0.2,1.5l2.5,1.7l-0.7,0.9L209.9,158.4z"/>
			<path fill="#7B7C7D" d="M215,154.1c-0.4-0.3-0.9-0.4-1.3,0.2c-0.3,0.4-0.4,0.9-0.4,1.4l-0.9-0.1c0-0.6,0.2-1.4,0.6-2
				c0.7-1,1.7-1.1,2.8-0.3l2.4,1.7l-0.5,0.8l-0.5-0.2l0,0c0.1,0.6,0,1.1-0.3,1.6c-0.5,0.7-1.3,0.9-2,0.4
				C214,157,214,155.9,215,154.1z M216.3,156.4c0.2-0.3,0.2-0.7,0.2-1.2l-0.9-0.6c-0.6,1.2-0.6,1.8-0.2,2
				C215.8,156.8,216.1,156.7,216.3,156.4z"/>
			<path fill="#7B7C7D" d="M213.7,150.3c-0.3-0.2-0.4-0.6-0.1-1c0.2-0.3,0.6-0.4,0.9-0.2c0.3,0.2,0.4,0.6,0.1,1
				C214.4,150.4,214,150.5,213.7,150.3z M215,151l0.7-0.9l4,2.8l-0.7,0.9L215,151z"/>
			<path fill="#7B7C7D" d="M220.6,151.3L220.6,151.3c-0.3,0.1-0.6,0.1-1-0.1c-0.3-0.2-0.4-0.6-0.4-1l0,0c-0.4,0.1-1,0.1-1.4-0.2
				c-0.9-0.6-0.9-1.7-0.3-2.6c0.2-0.2,0.3-0.4,0.5-0.5l1-1.4l0.7,0.5l-0.5,0.7c0.2,0,0.6,0,0.8,0.2c0.9,0.6,0.9,1.6,0.3,2.5
				c-0.1,0.2-0.3,0.3-0.5,0.5c0,0.2,0.1,0.3,0.2,0.5c0.2,0.2,0.5,0.1,0.8-0.4l0.5-0.7c0.7-1,1.3-1.3,2-0.8c0.8,0.5,0.8,1.8-0.1,3.1
				c-0.7,1-1.5,1.4-2.2,1C220.7,152.2,220.5,151.8,220.6,151.3z M219.3,147.6c-0.5-0.3-1-0.2-1.3,0.2c-0.3,0.4-0.2,0.9,0.3,1.3
				c0.5,0.4,1,0.2,1.3-0.1C219.9,148.5,219.8,148,219.3,147.6z M222.7,150.9c0.4-0.7,0.5-1.3,0.1-1.5c-0.3-0.2-0.6,0-0.9,0.4
				l-0.4,0.6c-0.2,0.2-0.3,0.4-0.4,0.5c0,0.3,0.1,0.6,0.3,0.7C221.8,151.8,222.3,151.6,222.7,150.9z"/>
			<path fill="#7B7C7D" d="M217.6,143.4l0.7-0.9l1.5,1l0.8,0.6c-0.1-0.6-0.1-1.2,0.3-1.7c0.6-0.9,1.4-0.8,2.5-0.1l2.5,1.7l-0.7,0.9
				l-2.4-1.7c-0.7-0.5-1-0.4-1.3,0c-0.2,0.4-0.2,0.7-0.1,1.3l2.8,1.9l-0.7,0.9L217.6,143.4z"/>
			<path fill="#7B7C7D" d="M223.4,140.4L223,141l-0.7-0.5l0.4-0.7l-1-0.9l0.5-0.8l1.1,0.8l0.7-1l0.7,0.5l-0.7,1l1.9,1.3
				c0.5,0.3,0.8,0.3,1.1-0.1c0.1-0.1,0.2-0.3,0.2-0.5l0.8,0.3c-0.1,0.3-0.2,0.6-0.4,0.9c-0.6,0.9-1.5,0.9-2.3,0.3L223.4,140.4z"/>
		</g>
	</g>
	<g>
		<g>
			<path fill="#7B7C7D" d="M224.7,41.8l1,0.7l-1.6,3c-0.3,0.6-0.7,1.2-1,1.9l0,0c0.5-0.5,1.1-0.9,1.6-1.4l2.7-2.1l0.8,0.6l-1.4,3.1
				c-0.3,0.6-0.6,1.3-0.9,1.9l0,0c0.5-0.5,1-1,1.5-1.5l2.5-2.3l0.9,0.7l-5,4.4l-1.1-0.9l1.5-3.2c0.2-0.5,0.5-0.9,0.7-1.4l0,0
				c-0.4,0.3-0.8,0.7-1.2,1l-2.7,2.2l-1.1-0.9L224.7,41.8z"/>
			<path fill="#7B7C7D" d="M232.1,49.4c1.1,0.8,1,2,0.2,3.1c-0.1,0.2-0.3,0.3-0.4,0.4l-2.5-1.9c-0.5,0.8-0.3,1.5,0.3,2
				c0.3,0.3,0.7,0.4,1.1,0.4l-0.1,0.8c-0.6,0-1.2-0.2-1.7-0.6c-1.1-0.8-1.3-2.2-0.3-3.5C229.7,48.8,231.2,48.7,232.1,49.4z
				 M231.6,51.7c0.5-0.6,0.5-1.2,0-1.6c-0.5-0.4-1.1-0.3-1.7,0.3L231.6,51.7z"/>
			<path fill="#7B7C7D" d="M235.8,49.7l0.9,0.7l-3.6,4.6c-0.2,0.2-0.1,0.4,0,0.5c0,0,0.1,0.1,0.2,0.1l-0.4,0.8
				c-0.1,0-0.3-0.1-0.5-0.3c-0.6-0.5-0.6-1.1,0-1.8L235.8,49.7z"/>
			<path fill="#7B7C7D" d="M238,51.3l0.9,0.7l-3.6,4.6c-0.2,0.2-0.1,0.4,0,0.5c0,0,0.1,0.1,0.2,0.1L235,58c-0.1,0-0.3-0.1-0.5-0.3
				c-0.7-0.5-0.6-1.1,0-1.8L238,51.3z"/>
			<path fill="#7B7C7D" d="M238.8,54.7l0.9,0.7l-3,3.9l-0.9-0.7L238.8,54.7z M239.6,53.4c0.2-0.3,0.6-0.3,1-0.1
				c0.3,0.2,0.4,0.6,0.2,1c-0.2,0.3-0.6,0.3-1,0.1C239.5,54.1,239.4,53.7,239.6,53.4z"/>
			<path fill="#7B7C7D" d="M240.9,56.3l0.8,0.6l-0.3,0.6l0,0c0.6-0.1,1.2,0,1.8,0.4c0.8,0.6,0.8,1.5,0,2.5l-1.9,2.4l-0.9-0.7
				l1.8-2.3c0.5-0.6,0.5-1,0.1-1.3c-0.3-0.3-0.7-0.3-1.3-0.2l-2.1,2.7l-0.9-0.7L240.9,56.3z"/>
			<path fill="#7B7C7D" d="M242.7,63.7L242.7,63.7c-0.1-0.3-0.1-0.6,0.2-0.9c0.2-0.3,0.6-0.4,1-0.4l0,0c-0.1-0.4-0.1-1,0.3-1.4
				c0.7-0.9,1.8-0.8,2.6-0.2c0.2,0.2,0.4,0.4,0.5,0.5l1.4,1.1l-0.5,0.7l-0.7-0.5c0,0.2-0.1,0.6-0.3,0.8c-0.7,0.9-1.7,0.8-2.5,0.2
				c-0.2-0.1-0.3-0.3-0.5-0.5c-0.2,0-0.3,0.1-0.5,0.2c-0.2,0.2-0.1,0.5,0.4,0.8l0.7,0.5c0.9,0.7,1.2,1.4,0.7,2.1
				c-0.6,0.8-1.9,0.7-3.1-0.2c-0.9-0.7-1.4-1.6-0.8-2.3C241.8,63.8,242.2,63.6,242.7,63.7z M242.9,65.9c0.6,0.5,1.3,0.5,1.5,0.2
				c0.2-0.3,0.1-0.6-0.4-0.9l-0.5-0.4c-0.2-0.2-0.4-0.3-0.5-0.5c-0.3,0-0.6,0.1-0.7,0.3C242.1,64.9,242.3,65.4,242.9,65.9z
				 M246.4,62.6c0.4-0.5,0.3-1-0.1-1.3c-0.4-0.3-0.9-0.2-1.3,0.2c-0.4,0.5-0.3,1,0.1,1.3C245.5,63.1,246,63.1,246.4,62.6z"/>
			<path fill="#7B7C7D" d="M249,63.7l-0.6-0.4l0.5-0.7l0.6,0.4l0.9-1l0.8,0.6l-0.8,1.1l1,0.8l-0.6,0.7l-1-0.8l-1.4,1.9
				c-0.4,0.5-0.3,0.8,0,1.1c0.1,0.1,0.3,0.2,0.5,0.2l-0.4,0.8c-0.3-0.1-0.6-0.2-0.9-0.5c-0.9-0.7-0.8-1.5-0.2-2.4L249,63.7z"/>
			<path fill="#7B7C7D" d="M254,66.2c1,0.8,1.3,2.2,0.3,3.5c-1,1.3-2.4,1.4-3.4,0.6c-1-0.7-1.3-2.2-0.3-3.5
				C251.5,65.5,253,65.5,254,66.2z M251.4,69.5c0.6,0.4,1.3,0.2,1.9-0.6c0.6-0.8,0.7-1.6,0.1-2c-0.6-0.4-1.3-0.2-1.9,0.6
				C250.9,68.3,250.8,69.1,251.4,69.5z"/>
			<path fill="#7B7C7D" d="M256.6,68.4l0.8,0.6l-0.3,0.6l0,0c0.6-0.1,1.2,0,1.8,0.4c0.8,0.6,0.8,1.5,0,2.5l-1.9,2.4l-0.9-0.7
				l1.8-2.3c0.5-0.6,0.5-1,0.1-1.3c-0.3-0.3-0.7-0.3-1.3-0.2l-2.1,2.7l-0.9-0.7L256.6,68.4z"/>
			<path fill="#7B7C7D" d="M261,75.9c0.1,0.6,0.4,1.3,0.9,1.6c0.6,0.4,1.1,0.4,1.4,0c0.3-0.4,0.1-0.8-0.2-1.4l-0.5-0.9
				c-0.4-0.6-0.6-1.4,0-2.2c0.6-0.8,1.9-0.9,2.9-0.1c0.6,0.5,1,1.2,1.1,1.9l-0.9,0.2c-0.1-0.5-0.3-1-0.8-1.3c-0.5-0.4-1-0.4-1.3,0
				c-0.3,0.4,0,0.9,0.3,1.4l0.5,0.8c0.4,0.7,0.5,1.5,0,2.2c-0.6,0.8-1.9,1-3,0.1c-0.7-0.5-1.2-1.3-1.3-2.2L261,75.9z"/>
			<path fill="#7B7C7D" d="M266.6,77.2l-0.6-0.4l0.5-0.7l0.6,0.4l0.9-1l0.8,0.6l-0.8,1.1l1,0.8l-0.6,0.7l-1-0.8l-1.4,1.9
				c-0.4,0.5-0.3,0.8,0,1.1c0.1,0.1,0.3,0.2,0.5,0.2l-0.4,0.8c-0.3-0.1-0.6-0.2-0.9-0.5c-0.9-0.7-0.8-1.5-0.2-2.4L266.6,77.2z"/>
			<path fill="#7B7C7D" d="M269.9,78.6l0.8,0.6l-0.5,0.7l0,0c0.7-0.3,1.3-0.3,1.7,0.1c0.2,0.2,0.3,0.3,0.4,0.4l-0.8,0.7
				c-0.1-0.1-0.2-0.2-0.4-0.4c-0.3-0.2-0.8-0.3-1.5,0.1l-1.8,2.4l-0.9-0.7L269.9,78.6z"/>
			<path fill="#7B7C7D" d="M273.9,83.9c0.3-0.4,0.4-0.9-0.1-1.3c-0.4-0.3-0.9-0.4-1.4-0.5l0.1-0.9c0.6,0.1,1.4,0.2,2,0.7
				c1,0.8,1,1.7,0.2,2.8l-1.8,2.3l-0.7-0.6l0.3-0.5l0,0c-0.6,0-1.1-0.1-1.6-0.4c-0.7-0.5-0.8-1.3-0.3-2
				C271.1,82.7,272.1,82.8,273.9,83.9z M271.6,85.1c0.3,0.2,0.7,0.3,1.2,0.2l0.7-0.9c-1.2-0.7-1.7-0.7-2-0.3
				C271.1,84.5,271.2,84.9,271.6,85.1z"/>
			<path fill="#7B7C7D" d="M277,84l0.9,0.7l-3,3.9l-0.9-0.7L277,84z M277.8,82.8c0.2-0.3,0.6-0.3,1-0.1c0.3,0.2,0.4,0.6,0.2,1
				c-0.2,0.3-0.6,0.3-1,0.1C277.6,83.5,277.5,83.1,277.8,82.8z"/>
			<path fill="#7B7C7D" d="M276.4,89.6L276.4,89.6c-0.1-0.3-0.1-0.6,0.2-1c0.2-0.3,0.6-0.4,1-0.4l0,0c-0.1-0.4-0.1-1,0.3-1.4
				c0.7-0.9,1.8-0.8,2.6-0.2c0.2,0.2,0.4,0.4,0.5,0.5l1.4,1.1l-0.5,0.7l-0.7-0.5c0,0.2-0.1,0.6-0.3,0.8c-0.7,0.9-1.7,0.8-2.5,0.2
				c-0.2-0.1-0.3-0.3-0.5-0.5c-0.2,0-0.3,0.1-0.5,0.2c-0.2,0.2-0.1,0.5,0.4,0.8l0.7,0.5c0.9,0.7,1.2,1.4,0.7,2.1
				c-0.6,0.8-1.9,0.7-3.1-0.2c-0.9-0.7-1.4-1.6-0.8-2.3C275.5,89.7,275.9,89.6,276.4,89.6z M276.7,91.8c0.6,0.5,1.3,0.5,1.5,0.2
				c0.2-0.3,0.1-0.6-0.4-0.9l-0.5-0.4c-0.2-0.2-0.4-0.3-0.5-0.5c-0.3,0-0.6,0.1-0.7,0.3C275.8,90.8,276.1,91.3,276.7,91.8z
				 M280.1,88.5c0.4-0.5,0.3-1-0.1-1.3c-0.4-0.3-0.9-0.2-1.3,0.2c-0.4,0.5-0.3,1,0.1,1.3C279.2,89.1,279.7,89,280.1,88.5z"/>
			<path fill="#7B7C7D" d="M284.5,87.1l0.9,0.7l-1.1,1.4l-0.6,0.7c0.6-0.1,1.2,0,1.7,0.4c0.8,0.6,0.8,1.5,0,2.5l-1.9,2.4l-0.9-0.7
				l1.8-2.3c0.5-0.6,0.5-1,0.1-1.3c-0.3-0.3-0.7-0.3-1.3-0.2l-2.1,2.7l-0.9-0.7L284.5,87.1z"/>
			<path fill="#7B7C7D" d="M287.2,93l-0.6-0.4l0.5-0.7l0.6,0.4l0.9-1l0.8,0.6l-0.8,1.1l1,0.8l-0.6,0.7l-1-0.8l-1.4,1.9
				c-0.4,0.5-0.3,0.8,0,1.1c0.1,0.1,0.3,0.2,0.5,0.2l-0.4,0.8c-0.3-0.1-0.6-0.2-0.9-0.5c-0.9-0.7-0.8-1.5-0.2-2.4L287.2,93z"/>
		</g>
	</g>
	<g>
		<g>
			<path fill="#7B7C7D" d="M285.3,25.6h2v-5.9h-1.7v-1c0.9-0.2,1.5-0.4,2.1-0.7h1.2v7.6h1.8v1.3h-5.4V25.6z"/>
			<path fill="#7B7C7D" d="M299.3,17.5c1.1,0,2,0.6,2.6,1.2l-0.9,1c-0.5-0.5-1-0.8-1.7-0.8c-1.5,0-2.6,1.3-2.6,3.3
				c0,2.1,1,3.4,2.5,3.4c0.8,0,1.4-0.3,1.9-0.9l0.9,1c-0.7,0.9-1.7,1.3-2.9,1.3c-2.3,0-4.2-1.7-4.2-4.8
				C295.1,19.3,297,17.5,299.3,17.5z"/>
			<path fill="#7B7C7D" d="M306.3,19.8c1.7,0,3.3,1.3,3.3,3.6c0,2.3-1.6,3.6-3.3,3.6c-1.7,0-3.3-1.3-3.3-3.6
				C303.1,21.2,304.6,19.8,306.3,19.8z M306.3,25.8c1,0,1.6-0.9,1.6-2.3c0-1.4-0.6-2.3-1.6-2.3c-1,0-1.6,0.9-1.6,2.3
				C304.7,24.9,305.3,25.8,306.3,25.8z"/>
			<path fill="#7B7C7D" d="M312.9,27.5v2.2h-1.6V20h1.3l0.1,0.7h0.1c0.6-0.5,1.3-0.9,2.1-0.9c1.7,0,2.7,1.4,2.7,3.5
				c0,2.4-1.4,3.7-3,3.7c-0.6,0-1.2-0.3-1.8-0.8L312.9,27.5z M314.3,25.8c0.9,0,1.6-0.8,1.6-2.4c0-1.4-0.5-2.2-1.5-2.2
				c-0.5,0-1,0.3-1.5,0.8v3.2C313.4,25.6,313.9,25.8,314.3,25.8z"/>
			<path fill="#7B7C7D" d="M319.3,25.1c0.6,0.5,1.2,0.8,1.9,0.8c0.7,0,1.1-0.4,1.1-0.8c0-0.6-0.7-0.8-1.5-1.1
				c-0.9-0.3-1.9-0.9-1.9-2c0-1.2,1-2.1,2.5-2.1c1,0,1.7,0.4,2.3,0.8l-0.7,1c-0.5-0.4-1-0.6-1.5-0.6c-0.7,0-1,0.3-1,0.8
				c0,0.5,0.7,0.8,1.4,1c0.9,0.4,2,0.8,2,2.1c0,1.2-0.9,2.1-2.7,2.1c-0.9,0-1.9-0.4-2.6-1L319.3,25.1z"/>
			<path fill="#7B7C7D" d="M328,19.8c1.9,0,2.9,1.4,2.9,3.3c0,0.3,0,0.6-0.1,0.8h-4.4c0.1,1.3,0.9,2,2,2c0.6,0,1.1-0.2,1.6-0.5
				l0.5,1c-0.7,0.4-1.5,0.7-2.4,0.7c-1.9,0-3.4-1.3-3.4-3.6C324.8,21.2,326.4,19.8,328,19.8z M329.5,22.8c0-1.1-0.5-1.8-1.4-1.8
				c-0.8,0-1.5,0.6-1.7,1.8H329.5z"/>
		</g>
	</g>
	<g>
		<g>
			<path fill="#7B7C7D" d="M301.3,81.4c2.5-2.4,4.1-4,4.1-5.4c0-0.9-0.5-1.6-1.5-1.6c-0.7,0-1.3,0.5-1.8,1l-0.9-0.9
				c0.8-0.9,1.6-1.4,2.9-1.4c1.7,0,2.8,1.1,2.8,2.8c0,1.6-1.5,3.2-3.3,5.1c0.5,0,1.1-0.1,1.5-0.1h2.2v1.4h-6.1V81.4z"/>
			<path fill="#7B7C7D" d="M312.1,73.1h1.8l1.7,4.5l0.6,1.8h0.1l0.6-1.8l1.6-4.5h1.8v9.2h-1.5v-4.2c0-0.9,0.1-2.1,0.2-2.9h-0.1
				l-0.7,2.1l-1.6,4.2h-0.7l-1.6-4.2l-0.7-2.1h-0.1c0.1,0.8,0.2,2.1,0.2,2.9v4.2h-1.5V73.1z"/>
			<path fill="#7B7C7D" d="M326.2,77.9c0-0.7-0.3-1.4-1.3-1.4c-0.7,0-1.3,0.3-1.9,0.7l-0.6-1.1c0.8-0.5,1.7-0.9,2.8-0.9
				c1.7,0,2.6,1.1,2.6,3v4.1h-1.3l-0.1-0.8h0c-0.6,0.5-1.3,0.9-2.1,0.9c-1.2,0-2.1-0.8-2.1-2C322.1,79,323.3,78.2,326.2,77.9z
				 M324.7,81.3c0.6,0,1-0.3,1.5-0.8v-1.6c-1.9,0.2-2.5,0.7-2.5,1.4C323.7,81,324.1,81.3,324.7,81.3z"/>
			<path fill="#7B7C7D" d="M330.3,82.1L330.3,82.1c-0.4-0.3-0.6-0.6-0.6-1.2c0-0.5,0.4-1,0.8-1.3v-0.1c-0.5-0.4-0.9-1-0.9-1.8
				c0-1.6,1.3-2.5,2.7-2.5c0.4,0,0.7,0.1,1,0.2h2.5v1.2h-1.3c0.2,0.3,0.4,0.7,0.4,1.2c0,1.5-1.2,2.4-2.6,2.4c-0.3,0-0.6-0.1-0.9-0.2
				c-0.2,0.2-0.3,0.4-0.3,0.7c0,0.4,0.3,0.6,1.1,0.6h1.2c1.7,0,2.5,0.5,2.5,1.7c0,1.4-1.4,2.4-3.7,2.4c-1.7,0-2.9-0.6-2.9-1.8
				C329.3,83,329.7,82.5,330.3,82.1z M332.4,84.4c1.1,0,1.9-0.5,1.9-1.1c0-0.5-0.4-0.7-1.2-0.7h-0.9c-0.4,0-0.7,0-0.9-0.1
				c-0.4,0.3-0.5,0.6-0.5,0.9C330.7,84,331.3,84.4,332.4,84.4z M333.5,77.7c0-0.9-0.5-1.4-1.2-1.4c-0.7,0-1.2,0.5-1.2,1.4
				c0,0.9,0.5,1.4,1.2,1.4C332.9,79.1,333.5,78.6,333.5,77.7z"/>
			<path fill="#7B7C7D" d="M337.6,82.1L337.6,82.1c-0.4-0.3-0.6-0.6-0.6-1.2c0-0.5,0.4-1,0.8-1.3v-0.1c-0.5-0.4-0.9-1-0.9-1.8
				c0-1.6,1.3-2.5,2.7-2.5c0.4,0,0.7,0.1,1,0.2h2.5v1.2h-1.3c0.2,0.3,0.4,0.7,0.4,1.2c0,1.5-1.2,2.4-2.6,2.4c-0.3,0-0.6-0.1-0.9-0.2
				c-0.2,0.2-0.3,0.4-0.3,0.7c0,0.4,0.3,0.6,1.1,0.6h1.2c1.7,0,2.5,0.5,2.5,1.7c0,1.4-1.4,2.4-3.7,2.4c-1.7,0-2.9-0.6-2.9-1.8
				C336.7,83,337,82.5,337.6,82.1z M339.8,84.4c1.1,0,1.9-0.5,1.9-1.1c0-0.5-0.4-0.7-1.2-0.7h-0.9c-0.4,0-0.7,0-0.9-0.1
				c-0.4,0.3-0.5,0.6-0.5,0.9C338,84,338.7,84.4,339.8,84.4z M340.8,77.7c0-0.9-0.5-1.4-1.2-1.4c-0.7,0-1.2,0.5-1.2,1.4
				c0,0.9,0.5,1.4,1.2,1.4C340.3,79.1,340.8,78.6,340.8,77.7z"/>
			<path fill="#7B7C7D" d="M347.3,75.3c1.7,0,3.3,1.3,3.3,3.6c0,2.3-1.6,3.6-3.3,3.6c-1.7,0-3.3-1.3-3.3-3.6
				C344,76.6,345.6,75.3,347.3,75.3z M347.3,81.2c1,0,1.6-0.9,1.6-2.3c0-1.4-0.6-2.3-1.6-2.3c-1,0-1.6,0.9-1.6,2.3
				C345.7,80.3,346.3,81.2,347.3,81.2z"/>
			<path fill="#7B7C7D" d="M352.4,76.7h-1v-1.2l1.1-0.1l0.2-1.9h1.4v1.9h1.8v1.3h-1.8V80c0,0.8,0.3,1.2,1,1.2c0.2,0,0.5-0.1,0.7-0.2
				l0.3,1.2c-0.4,0.1-0.9,0.3-1.4,0.3c-1.6,0-2.2-1-2.2-2.5V76.7z"/>
			<path fill="#7B7C7D" d="M357.5,76.7h-1v-1.2l1.1-0.1l0.2-1.9h1.4v1.9h1.8v1.3h-1.8V80c0,0.8,0.3,1.2,1,1.2c0.2,0,0.5-0.1,0.7-0.2
				l0.3,1.2c-0.4,0.1-0.9,0.3-1.4,0.3c-1.6,0-2.2-1-2.2-2.5V76.7z"/>
			<path fill="#7B7C7D" d="M362.5,80.5c0.6,0.5,1.2,0.8,1.9,0.8c0.7,0,1.1-0.4,1.1-0.8c0-0.6-0.7-0.8-1.5-1.1
				c-0.9-0.3-1.9-0.9-1.9-2c0-1.2,1-2.1,2.5-2.1c1,0,1.7,0.4,2.3,0.8l-0.7,1c-0.5-0.4-1-0.6-1.5-0.6c-0.7,0-1,0.3-1,0.8
				c0,0.5,0.7,0.8,1.4,1c0.9,0.4,2,0.8,2,2.1c0,1.2-0.9,2.1-2.7,2.1c-0.9,0-1.9-0.4-2.6-1L362.5,80.5z"/>
		</g>
	</g>
	<g>
		<g>
			<path fill="#7B7C7D" d="M310.8,117h-1.1v2.3h-1.5V117h-4v-1.1l3.6-5.6h1.9v5.4h1.1V117z M308.2,115.8v-2c0-0.5,0-1.3,0.1-1.9
				h-0.1c-0.2,0.5-0.5,0.9-0.7,1.4l-1.6,2.5H308.2z"/>
			<path fill="#7B7C7D" d="M315.2,110.1h3c1.9,0,3.3,0.6,3.3,2.3c0,0.9-0.5,1.7-1.6,2v0.1c1.3,0.2,2.1,0.9,2.1,2.2
				c0,1.8-1.5,2.7-3.5,2.7h-3.2V110.1z M318,114c1.3,0,1.8-0.5,1.8-1.4c0-0.8-0.6-1.2-1.8-1.2h-1.2v2.6H318z M318.2,118.1
				c1.4,0,2.1-0.5,2.1-1.6c0-1-0.7-1.4-2.1-1.4h-1.4v3H318.2z"/>
			<path fill="#7B7C7D" d="M326.2,112.3c1.9,0,2.9,1.4,2.9,3.3c0,0.3,0,0.6-0.1,0.8h-4.4c0.1,1.3,0.9,2,2,2c0.6,0,1.1-0.2,1.6-0.5
				l0.5,1c-0.7,0.4-1.5,0.7-2.4,0.7c-1.9,0-3.4-1.3-3.4-3.6C323,113.6,324.6,112.3,326.2,112.3z M327.7,115.3c0-1.1-0.5-1.8-1.4-1.8
				c-0.8,0-1.5,0.6-1.7,1.8H327.7z"/>
			<path fill="#7B7C7D" d="M333.7,112.3c0.9,0,1.6,0.4,2,0.8l-0.8,1c-0.4-0.3-0.7-0.5-1.2-0.5c-1.1,0-1.9,0.9-1.9,2.3
				c0,1.4,0.8,2.3,1.8,2.3c0.6,0,1-0.3,1.4-0.6l0.7,1c-0.6,0.6-1.5,0.9-2.3,0.9c-1.9,0-3.3-1.3-3.3-3.6
				C330.2,113.6,331.8,112.3,333.7,112.3z"/>
			<path fill="#7B7C7D" d="M337.2,109.4h1.6v6.2h0l2.6-3.2h1.8l-2.4,2.8l2.6,4.1h-1.8l-1.8-3l-1.1,1.2v1.8h-1.6V109.4z"/>
			<path fill="#7B7C7D" d="M347.3,112.3c1.9,0,2.9,1.4,2.9,3.3c0,0.3,0,0.6-0.1,0.8h-4.4c0.1,1.3,0.9,2,2,2c0.6,0,1.1-0.2,1.6-0.5
				l0.5,1c-0.7,0.4-1.5,0.7-2.4,0.7c-1.9,0-3.4-1.3-3.4-3.6C344.1,113.6,345.6,112.3,347.3,112.3z M348.7,115.3
				c0-1.1-0.5-1.8-1.4-1.8c-0.8,0-1.5,0.6-1.7,1.8H348.7z"/>
			<path fill="#7B7C7D" d="M351.9,113.7h-1v-1.2l1.1-0.1l0.2-1.9h1.4v1.9h1.8v1.3h-1.8v3.3c0,0.8,0.3,1.2,1,1.2
				c0.2,0,0.5-0.1,0.7-0.2l0.3,1.2c-0.4,0.1-0.9,0.3-1.4,0.3c-1.6,0-2.2-1-2.2-2.5V113.7z"/>
			<path fill="#7B7C7D" d="M357,113.7h-1v-1.2l1.1-0.1l0.2-1.9h1.4v1.9h1.8v1.3h-1.8v3.3c0,0.8,0.3,1.2,1,1.2c0.2,0,0.5-0.1,0.7-0.2
				l0.3,1.2c-0.4,0.1-0.9,0.3-1.4,0.3c-1.6,0-2.2-1-2.2-2.5V113.7z"/>
			<path fill="#7B7C7D" d="M361.9,117.5c0.6,0.5,1.2,0.8,1.9,0.8c0.7,0,1.1-0.4,1.1-0.8c0-0.6-0.7-0.8-1.5-1.1
				c-0.9-0.3-1.9-0.9-1.9-2c0-1.2,1-2.1,2.5-2.1c1,0,1.7,0.4,2.3,0.8l-0.7,1c-0.5-0.4-1-0.6-1.5-0.6c-0.7,0-1,0.3-1,0.8
				c0,0.5,0.7,0.8,1.4,1c0.9,0.4,2,0.8,2,2.1c0,1.2-0.9,2.1-2.7,2.1c-0.9,0-1.9-0.4-2.6-1L361.9,117.5z"/>
		</g>
	</g>
	<g>
		<g>
			<path fill="#7B7C7D" d="M199.1,103.7H196l-0.7,2.5h-1.7l3-9.2h1.9l3,9.2h-1.7L199.1,103.7z M198.8,102.4l-0.3-1.1
				c-0.3-1-0.6-2-0.8-3h-0.1c-0.3,1-0.5,2.1-0.8,3l-0.3,1.1H198.8z"/>
			<path fill="#7B7C7D" d="M202.4,97.2c0-0.6,0.4-0.9,1-0.9c0.6,0,1,0.4,1,0.9c0,0.5-0.4,0.9-1,0.9
				C202.8,98.1,202.4,97.7,202.4,97.2z M202.6,99.3h1.6v6.9h-1.6V99.3z"/>
			<path fill="#7B7C7D" d="M206.3,99.3h1.3l0.1,0.9h0.1c0.6-0.6,1.3-1.1,2.3-1.1c1.5,0,2.1,1,2.1,2.8v4.3h-1.6v-4.1
				c0-1.1-0.3-1.6-1.1-1.6c-0.6,0-1,0.3-1.6,0.9v4.8h-1.6V99.3z"/>
			<path fill="#7B7C7D" d="M214.4,100.6h-1v-1.2l1.1-0.1l0.2-1.9h1.4v1.9h1.8v1.3H216v3.3c0,0.8,0.3,1.2,1,1.2
				c0.2,0,0.5-0.1,0.7-0.2l0.3,1.2c-0.4,0.1-0.9,0.3-1.4,0.3c-1.6,0-2.2-1-2.2-2.5V100.6z"/>
			<path fill="#7B7C7D" d="M219.3,99.3h1.3l0.1,1.2h0.1c0.5-0.9,1.2-1.4,2-1.4c0.4,0,0.6,0,0.8,0.1l-0.3,1.4
				c-0.2-0.1-0.4-0.1-0.7-0.1c-0.6,0-1.2,0.4-1.6,1.4v4.2h-1.6V99.3z"/>
			<path fill="#7B7C7D" d="M227.3,99.1c1.9,0,2.9,1.4,2.9,3.3c0,0.3,0,0.6-0.1,0.8h-4.4c0.1,1.3,0.9,2,2,2c0.6,0,1.1-0.2,1.6-0.5
				l0.5,1c-0.7,0.4-1.5,0.7-2.4,0.7c-1.9,0-3.4-1.3-3.4-3.6C224.1,100.5,225.6,99.1,227.3,99.1z M228.7,102.1c0-1.1-0.5-1.8-1.4-1.8
				c-0.8,0-1.5,0.6-1.7,1.8H228.7z"/>
			<path fill="#7B7C7D" d="M234.4,99.1c1.9,0,2.9,1.4,2.9,3.3c0,0.3,0,0.6-0.1,0.8h-4.4c0.1,1.3,0.9,2,2,2c0.6,0,1.1-0.2,1.6-0.5
				l0.5,1c-0.7,0.4-1.5,0.7-2.4,0.7c-1.9,0-3.4-1.3-3.4-3.6C231.2,100.5,232.8,99.1,234.4,99.1z M235.9,102.1c0-1.1-0.5-1.8-1.4-1.8
				c-0.8,0-1.5,0.6-1.7,1.8H235.9z"/>
			<path fill="#7B7C7D" d="M241.7,104.9h2V99h-1.7v-1c0.9-0.2,1.5-0.4,2.1-0.7h1.2v7.6h1.8v1.3h-5.4V104.9z"/>
			<path fill="#7B7C7D" d="M249,104.1c0.5,0.5,1.2,1,2.1,1c1,0,1.7-0.6,1.7-1.7c0-1.1-0.7-1.7-1.7-1.7c-0.6,0-0.9,0.2-1.4,0.5
				l-0.8-0.5l0.3-4.4h4.8v1.4h-3.4l-0.2,2.2c0.4-0.2,0.7-0.3,1.2-0.3c1.5,0,2.8,0.9,2.8,2.8c0,2-1.5,3.1-3.2,3.1
				c-1.5,0-2.4-0.6-3.1-1.2L249,104.1z"/>
		</g>
	</g>
	<g>
		<g>
			<path fill="#7B7C7D" d="M241,217.8l0.5-1.1l2.4,1.1l1.1-2.4l-2.4-1.1l0.5-1.1l6,2.7l-0.5,1.1l-2.6-1.2l-1.1,2.4l2.6,1.2l-0.5,1.1
				L241,217.8z"/>
			<path fill="#7B7C7D" d="M247.9,210.9c-0.5-0.2-1-0.2-1.2,0.4c-0.2,0.4-0.2,1-0.1,1.5l-0.9,0.1c-0.1-0.6-0.1-1.4,0.2-2.1
				c0.5-1.1,1.4-1.4,2.7-0.8l2.7,1.2l-0.4,0.9l-0.5-0.1l0,0c0.2,0.6,0.2,1.1,0,1.7c-0.4,0.8-1.1,1.1-1.9,0.7
				C247.4,213.8,247.3,212.8,247.9,210.9z M249.6,212.8c0.2-0.4,0.1-0.7-0.1-1.2l-1-0.5c-0.4,1.3-0.3,1.8,0.2,2
				C249.2,213.4,249.4,213.2,249.6,212.8z"/>
			<path fill="#7B7C7D" d="M247.3,207.8l0.4-0.9l0.6,0.2l0,0c-0.2-0.6-0.3-1.2,0-1.8c0.4-1,1.3-1.1,2.4-0.6l2.8,1.3l-0.5,1l-2.7-1.2
				c-0.7-0.3-1.1-0.2-1.3,0.2c-0.2,0.4-0.1,0.7,0.1,1.3l3.1,1.4l-0.5,1L247.3,207.8z"/>
			<path fill="#7B7C7D" d="M254.1,204.3L254.1,204.3c-0.3,0.1-0.6,0.2-1,0c-0.3-0.2-0.5-0.5-0.6-0.9l0,0c-0.4,0.2-0.9,0.3-1.4,0
				c-1-0.5-1.2-1.6-0.8-2.5c0.1-0.2,0.3-0.5,0.4-0.6l0.7-1.6l0.8,0.3l-0.4,0.8c0.2-0.1,0.6-0.1,0.9,0.1c1,0.4,1.2,1.4,0.8,2.4
				c-0.1,0.2-0.2,0.4-0.4,0.6c0.1,0.2,0.1,0.3,0.3,0.4c0.3,0.1,0.5,0,0.7-0.5l0.4-0.8c0.5-1.1,1.1-1.5,1.8-1.1
				c0.9,0.4,1.2,1.6,0.5,3.1c-0.5,1.1-1.2,1.7-2,1.3C254.4,205.2,254.2,204.8,254.1,204.3z M252.2,201c-0.6-0.2-1-0.1-1.2,0.4
				c-0.2,0.4,0,0.9,0.5,1.2c0.6,0.3,1.1,0.1,1.3-0.4C253,201.7,252.8,201.2,252.2,201z M256.2,203.6c0.3-0.7,0.2-1.4-0.2-1.5
				c-0.3-0.2-0.6,0.1-0.8,0.6l-0.3,0.6c-0.1,0.2-0.2,0.4-0.3,0.6c0.1,0.3,0.2,0.5,0.4,0.6C255.4,204.6,255.9,204.3,256.2,203.6z"/>
			<path fill="#7B7C7D" d="M254.5,196.2c-0.5-0.2-1-0.2-1.2,0.4c-0.2,0.4-0.2,1-0.1,1.5l-0.9,0.1c-0.1-0.6-0.1-1.4,0.2-2.1
				c0.5-1.1,1.4-1.4,2.7-0.8l2.7,1.2l-0.4,0.9l-0.5-0.1l0,0c0.2,0.6,0.2,1.1,0,1.7c-0.4,0.8-1.1,1.1-1.9,0.7
				C254,199.2,253.9,198.2,254.5,196.2z M256.2,198.2c0.2-0.4,0.1-0.7-0.1-1.2l-1-0.5c-0.4,1.3-0.3,1.8,0.2,2
				C255.7,198.7,256,198.6,256.2,198.2z"/>
			<path fill="#7B7C7D" d="M253.9,193.2l0.4-0.9l0.8,0.3l0,0c-0.4-0.6-0.5-1.2-0.3-1.7c0.1-0.2,0.2-0.4,0.3-0.5l0.8,0.6
				c-0.1,0.1-0.2,0.2-0.3,0.4c-0.2,0.4-0.1,0.9,0.4,1.5l2.7,1.2l-0.5,1L253.9,193.2z"/>
			<path fill="#7B7C7D" d="M259.4,189c0.6-0.2,1.1-0.7,1.4-1.3c0.3-0.7,0.2-1.2-0.3-1.4c-0.5-0.2-0.8,0.1-1.3,0.5l-0.7,0.7
				c-0.5,0.5-1.3,0.9-2.1,0.5c-0.9-0.4-1.3-1.6-0.8-2.8c0.3-0.7,0.9-1.2,1.6-1.5l0.4,0.9c-0.5,0.2-0.9,0.6-1.1,1.1
				c-0.3,0.6-0.2,1,0.3,1.2c0.5,0.2,0.8-0.2,1.3-0.6l0.7-0.7c0.6-0.6,1.3-0.9,2.2-0.5c1,0.4,1.4,1.6,0.8,2.9c-0.4,0.8-1,1.4-1.8,1.7
				L259.4,189z"/>
			<path fill="#7B7C7D" d="M259.4,183.2l-0.3,0.6l-0.8-0.4l0.3-0.7l-1.2-0.7l0.4-0.9l1.2,0.5l0.5-1.1l0.8,0.4l-0.5,1.1l2.1,1
				c0.5,0.2,0.9,0.2,1.1-0.3c0.1-0.2,0.1-0.4,0.1-0.5l0.9,0.2c0,0.3-0.1,0.6-0.2,1c-0.5,1-1.3,1.1-2.3,0.7L259.4,183.2z"/>
			<path fill="#7B7C7D" d="M260,179.7l0.4-0.9l0.8,0.3l0,0c-0.4-0.6-0.5-1.2-0.3-1.7c0.1-0.2,0.2-0.4,0.3-0.5l0.8,0.6
				c-0.1,0.1-0.2,0.2-0.3,0.4c-0.2,0.4-0.1,0.9,0.4,1.5l2.7,1.2l-0.5,1L260,179.7z"/>
			<path fill="#7B7C7D" d="M264.2,174.6c-0.5-0.2-1-0.2-1.2,0.4c-0.2,0.4-0.2,1-0.1,1.5l-0.9,0.1c-0.1-0.6-0.1-1.4,0.2-2.1
				c0.5-1.1,1.4-1.4,2.7-0.8l2.7,1.2l-0.4,0.9l-0.5-0.1l0,0c0.2,0.6,0.2,1.1,0,1.7c-0.4,0.8-1.1,1.1-1.9,0.7
				C263.8,177.5,263.6,176.5,264.2,174.6z M266,176.5c0.2-0.4,0.1-0.7-0.1-1.2l-1-0.5c-0.4,1.3-0.3,1.8,0.2,2
				C265.5,177.1,265.8,176.9,266,176.5z"/>
			<path fill="#7B7C7D" d="M262.3,171c-0.4-0.2-0.5-0.5-0.3-0.9c0.2-0.4,0.5-0.5,0.9-0.4c0.3,0.2,0.5,0.5,0.3,0.9
				C263,171,262.6,171.2,262.3,171z M263.7,171.5l0.5-1l4.5,2l-0.5,1L263.7,171.5z"/>
			<path fill="#7B7C7D" d="M269.2,170.7L269.2,170.7c-0.3,0.1-0.6,0.2-1,0c-0.3-0.2-0.5-0.5-0.6-0.9l0,0c-0.4,0.2-0.9,0.3-1.4,0
				c-1-0.5-1.2-1.6-0.8-2.5c0.1-0.2,0.3-0.5,0.4-0.6l0.7-1.6l0.8,0.3l-0.4,0.8c0.2-0.1,0.6-0.1,0.9,0.1c1,0.4,1.2,1.4,0.8,2.4
				c-0.1,0.2-0.2,0.4-0.4,0.6c0.1,0.2,0.1,0.3,0.3,0.4c0.3,0.1,0.5,0,0.7-0.5l0.4-0.8c0.5-1.1,1.1-1.5,1.8-1.1
				c0.9,0.4,1.2,1.6,0.5,3.1c-0.5,1.1-1.2,1.7-2,1.3C269.5,171.6,269.3,171.3,269.2,170.7z M267.3,167.4c-0.6-0.2-1-0.1-1.2,0.4
				s0,0.9,0.5,1.2c0.6,0.3,1.1,0.1,1.3-0.4C268.1,168.2,267.9,167.7,267.3,167.4z M271.3,170c0.3-0.7,0.2-1.4-0.2-1.5
				c-0.3-0.2-0.6,0.1-0.8,0.6l-0.3,0.6c-0.1,0.2-0.2,0.4-0.3,0.6c0.1,0.3,0.2,0.5,0.4,0.6C270.6,171,271,170.7,271.3,170z"/>
			<path fill="#7B7C7D" d="M264.9,163.5l0.5-1l1.7,0.7l0.8,0.4c-0.2-0.5-0.3-1.1,0-1.7c0.4-1,1.3-1.1,2.4-0.6l2.8,1.3l-0.5,1
				l-2.7-1.2c-0.7-0.3-1.1-0.2-1.3,0.2c-0.2,0.4-0.1,0.7,0.1,1.3l3.1,1.4l-0.5,1L264.9,163.5z"/>
			<path fill="#7B7C7D" d="M270.1,159.5l-0.3,0.6l-0.8-0.4l0.3-0.7l-1.2-0.7l0.4-0.9l1.2,0.6l0.5-1.1l0.8,0.4l-0.5,1.1l2.1,1
				c0.5,0.2,0.9,0.2,1.1-0.3c0.1-0.2,0.1-0.4,0.1-0.5l0.9,0.2c0,0.3-0.1,0.6-0.2,1c-0.5,1-1.3,1.1-2.3,0.7L270.1,159.5z"/>
		</g>
	</g>
	<g>
		<g>
			<path fill="#7B7C7D" d="M259,132.4h2v-5.9h-1.7v-1c0.9-0.2,1.5-0.4,2.1-0.7h1.2v7.6h1.8v1.3H259V132.4z"/>
			<path fill="#7B7C7D" d="M266.3,131.6c0.5,0.6,1.2,1,2.1,1c1,0,1.7-0.5,1.7-1.4c0-0.9-0.6-1.5-2.6-1.5v-1.2c1.8,0,2.3-0.6,2.3-1.4
				c0-0.7-0.5-1.2-1.3-1.2c-0.7,0-1.3,0.3-1.8,0.8l-0.8-1c0.8-0.7,1.6-1.1,2.7-1.1c1.7,0,2.9,0.8,2.9,2.4c0,1-0.6,1.7-1.6,2.1v0.1
				c1.1,0.3,1.9,1,1.9,2.2c0,1.6-1.4,2.6-3.1,2.6c-1.5,0-2.4-0.6-3-1.3L266.3,131.6z"/>
		</g>
	</g>
	<g>
		<g>
			<path fill="#7B7C7D" d="M306.9,100.4c0.5,0.6,1.2,1,2.1,1c1,0,1.7-0.5,1.7-1.4c0-0.9-0.6-1.5-2.6-1.5v-1.2c1.8,0,2.3-0.6,2.3-1.4
				c0-0.7-0.5-1.2-1.3-1.2c-0.7,0-1.3,0.3-1.8,0.8l-0.8-1c0.8-0.7,1.6-1.1,2.7-1.1c1.7,0,2.9,0.8,2.9,2.4c0,1-0.6,1.7-1.6,2.1v0.1
				c1.1,0.3,1.9,1,1.9,2.2c0,1.6-1.4,2.6-3.1,2.6c-1.5,0-2.4-0.6-3-1.3L306.9,100.4z"/>
		</g>
	</g>
	<g>
		<g>
			<path fill="#7B7C7D" d="M311,138.7c0.5,0.5,1.2,1,2.1,1c1,0,1.7-0.6,1.7-1.7c0-1.1-0.7-1.7-1.7-1.7c-0.6,0-0.9,0.2-1.4,0.5
				l-0.8-0.5l0.3-4.4h4.8v1.4h-3.4l-0.2,2.2c0.4-0.2,0.7-0.3,1.2-0.3c1.5,0,2.8,0.9,2.8,2.8c0,2-1.5,3.1-3.2,3.1
				c-1.5,0-2.4-0.6-3.1-1.2L311,138.7z"/>
		</g>
	</g>
	<g>
		<g>
			<path fill="#7B7C7D" d="M300.1,150.2c-0.3-0.4-0.9-0.7-1.4-0.7c-1.1,0-2,0.8-2.1,3.3c0.5-0.7,1.3-1.1,1.9-1.1
				c1.6,0,2.6,0.9,2.6,2.8c0,1.8-1.3,2.9-2.8,2.9c-1.8,0-3.3-1.4-3.3-4.4c0-3.5,1.7-4.9,3.5-4.9c1.1,0,1.9,0.5,2.4,1L300.1,150.2z
				 M299.6,154.6c0-1.1-0.5-1.6-1.4-1.6c-0.5,0-1.1,0.3-1.6,1c0.2,1.6,0.8,2.3,1.7,2.3C299,156.3,299.6,155.7,299.6,154.6z"/>
			<path fill="#7B7C7D" d="M309.4,148c1.1,0,2,0.6,2.6,1.2l-0.9,1c-0.5-0.5-1-0.8-1.7-0.8c-1.5,0-2.6,1.3-2.6,3.3
				c0,2.1,1,3.4,2.5,3.4c0.8,0,1.4-0.3,1.9-0.9l0.9,1c-0.7,0.9-1.7,1.3-2.9,1.3c-2.3,0-4.2-1.7-4.2-4.8
				C305.2,149.8,307.1,148,309.4,148z"/>
			<path fill="#7B7C7D" d="M313.6,147.4h1.6v2.6l-0.1,1.3c0.6-0.6,1.3-1,2.2-1c1.5,0,2.1,1,2.1,2.8v4.3h-1.6v-4.1
				c0-1.1-0.3-1.6-1.1-1.6c-0.6,0-1,0.3-1.6,0.9v4.8h-1.6V147.4z"/>
			<path fill="#7B7C7D" d="M325.3,153c0-0.7-0.3-1.4-1.3-1.4c-0.7,0-1.3,0.3-1.9,0.7l-0.6-1.1c0.8-0.5,1.7-0.9,2.8-0.9
				c1.7,0,2.6,1.1,2.6,3v4.1h-1.3l-0.1-0.8h0c-0.6,0.5-1.3,0.9-2.1,0.9c-1.2,0-2.1-0.8-2.1-2C321.2,154,322.5,153.3,325.3,153z
				 M323.8,156.3c0.6,0,1-0.3,1.5-0.8V154c-1.9,0.2-2.5,0.7-2.5,1.4C322.8,156,323.2,156.3,323.8,156.3z"/>
			<path fill="#7B7C7D" d="M330.5,157.9v2.2h-1.6v-9.7h1.3l0.1,0.7h0.1c0.6-0.5,1.3-0.9,2.1-0.9c1.7,0,2.7,1.4,2.7,3.5
				c0,2.4-1.4,3.7-3,3.7c-0.6,0-1.2-0.3-1.8-0.8L330.5,157.9z M331.9,156.2c0.9,0,1.6-0.8,1.6-2.4c0-1.4-0.5-2.2-1.5-2.2
				c-0.5,0-1,0.3-1.5,0.8v3.2C331,156.1,331.5,156.2,331.9,156.2z"/>
			<path fill="#7B7C7D" d="M339.6,150.3c1.9,0,2.9,1.4,2.9,3.3c0,0.3,0,0.6-0.1,0.8H338c0.1,1.3,0.9,2,2,2c0.6,0,1.1-0.2,1.6-0.5
				l0.5,1c-0.7,0.4-1.5,0.7-2.4,0.7c-1.9,0-3.4-1.3-3.4-3.6C336.4,151.7,338,150.3,339.6,150.3z M341,153.3c0-1.1-0.5-1.8-1.4-1.8
				c-0.8,0-1.5,0.6-1.7,1.8H341z"/>
			<path fill="#7B7C7D" d="M344,147.4h1.6v8.3c0,0.4,0.2,0.5,0.4,0.5c0.1,0,0.1,0,0.3,0l0.2,1.2c-0.2,0.1-0.5,0.1-0.9,0.1
				c-1.2,0-1.6-0.7-1.6-1.9V147.4z"/>
		</g>
	</g>
	<g>
		<g>
			<path fill="#7B7C7D" d="M204.6,188.7L204.6,188.7c-0.7-0.5-1.2-1.2-1.2-2.2c0-1.5,1.2-2.4,2.7-2.4c1.6,0,2.6,1,2.6,2.4
				c0,0.9-0.6,1.6-1.2,2.1v0.1c0.8,0.5,1.6,1.1,1.6,2.3c0,1.4-1.2,2.4-3,2.4c-1.8,0-3-1-3-2.5C203,189.9,203.8,189.2,204.6,188.7z
				 M206.1,192.4c0.9,0,1.5-0.5,1.5-1.3c0-1-0.9-1.3-2.2-1.8c-0.6,0.4-1,1-1,1.7C204.4,191.8,205.1,192.4,206.1,192.4z M207.4,186.7
				c0-0.8-0.5-1.4-1.3-1.4c-0.7,0-1.2,0.5-1.2,1.2c0,0.9,0.8,1.3,1.8,1.7C207.1,187.8,207.4,187.3,207.4,186.7z"/>
		</g>
	</g>
	<g>
		<g>
			<path fill="#7B7C7D" d="M89.5,181.7c1.1,0,2,0.6,2.6,1.2l-0.9,1c-0.5-0.5-1-0.8-1.7-0.8c-1.5,0-2.6,1.3-2.6,3.3
				c0,2.1,1,3.4,2.5,3.4c0.8,0,1.4-0.3,1.9-0.9l0.9,1c-0.7,0.9-1.7,1.3-2.9,1.3c-2.3,0-4.2-1.7-4.2-4.8
				C85.2,183.5,87.1,181.7,89.5,181.7z"/>
			<path fill="#7B7C7D" d="M93.7,181.1h1.6v8.3c0,0.4,0.2,0.5,0.4,0.5c0.1,0,0.1,0,0.3,0l0.2,1.2c-0.2,0.1-0.5,0.1-0.9,0.1
				c-1.2,0-1.6-0.7-1.6-1.9V181.1z"/>
			<path fill="#7B7C7D" d="M97.4,184.2h1.6v4.1c0,1.1,0.3,1.6,1.1,1.6c0.6,0,1-0.3,1.5-1v-4.7h1.6v6.9H102l-0.1-1h0
				c-0.6,0.7-1.3,1.2-2.2,1.2c-1.5,0-2.1-1-2.1-2.8V184.2z"/>
			<path fill="#7B7C7D" d="M105.4,181.1h1.6v2.6l0,1.2c0.6-0.5,1.3-0.9,2-0.9c1.7,0,2.7,1.4,2.7,3.5c0,2.4-1.4,3.8-3,3.8
				c-0.6,0-1.3-0.3-1.9-0.9h0l-0.1,0.7h-1.3V181.1z M108.4,189.9c0.9,0,1.6-0.8,1.6-2.4c0-1.4-0.5-2.2-1.5-2.2c-0.5,0-1,0.3-1.5,0.8
				v3.2C107.5,189.8,108,189.9,108.4,189.9z"/>
			<path fill="#7B7C7D" d="M120.1,181.7c1.1,0,2,0.6,2.6,1.2l-0.9,1c-0.5-0.5-1-0.8-1.7-0.8c-1.5,0-2.6,1.3-2.6,3.3
				c0,2.1,1,3.4,2.5,3.4c0.8,0,1.4-0.3,1.9-0.9l0.9,1c-0.7,0.9-1.7,1.3-2.9,1.3c-2.3,0-4.2-1.7-4.2-4.8
				C115.8,183.5,117.7,181.7,120.1,181.7z"/>
			<path fill="#7B7C7D" d="M127.1,184c1.7,0,3.3,1.3,3.3,3.6c0,2.3-1.6,3.6-3.3,3.6c-1.7,0-3.3-1.3-3.3-3.6
				C123.8,185.3,125.4,184,127.1,184z M127.1,189.9c1,0,1.6-0.9,1.6-2.3c0-1.4-0.6-2.3-1.6-2.3c-1,0-1.6,0.9-1.6,2.3
				C125.5,189,126.1,189.9,127.1,189.9z"/>
			<path fill="#7B7C7D" d="M132,184.2h1.3l0.1,1.2h0.1c0.5-0.9,1.2-1.4,2-1.4c0.4,0,0.6,0,0.8,0.1l-0.3,1.4
				c-0.2-0.1-0.4-0.1-0.7-0.1c-0.6,0-1.2,0.4-1.6,1.4v4.2H132V184.2z"/>
			<path fill="#7B7C7D" d="M137.3,184.2h1.3l0.1,0.9h0.1c0.6-0.6,1.3-1.1,2.3-1.1c1.5,0,2.1,1,2.1,2.8v4.3h-1.6V187
				c0-1.1-0.3-1.6-1.1-1.6c-0.6,0-1,0.3-1.6,0.9v4.8h-1.6V184.2z"/>
			<path fill="#7B7C7D" d="M147.9,184c1.9,0,2.9,1.4,2.9,3.3c0,0.3,0,0.6-0.1,0.8h-4.4c0.1,1.3,0.9,2,2,2c0.6,0,1.1-0.2,1.6-0.5
				l0.6,1c-0.7,0.4-1.5,0.7-2.4,0.7c-1.9,0-3.4-1.3-3.4-3.6C144.8,185.4,146.3,184,147.9,184z M149.4,187c0-1.1-0.5-1.8-1.4-1.8
				c-0.8,0-1.5,0.6-1.7,1.8H149.4z"/>
			<path fill="#7B7C7D" d="M152.4,184.2h1.3l0.1,1.2h0.1c0.5-0.9,1.2-1.4,2-1.4c0.4,0,0.6,0,0.8,0.1l-0.3,1.4
				c-0.2-0.1-0.4-0.1-0.7-0.1c-0.6,0-1.2,0.4-1.6,1.4v4.2h-1.6V184.2z"/>
			<path fill="#7B7C7D" d="M160.5,189.8h2v-5.9h-1.7v-1c0.9-0.2,1.5-0.4,2.1-0.7h1.2v7.6h1.8v1.3h-5.4V189.8z"/>
			<path fill="#7B7C7D" d="M167.3,186.6c0-3,1.2-4.6,3-4.6s3,1.6,3,4.6c0,3-1.2,4.7-3,4.7S167.3,189.6,167.3,186.6z M171.8,186.6
				c0-2.5-0.6-3.3-1.5-3.3c-0.9,0-1.5,0.8-1.5,3.3c0,2.5,0.6,3.4,1.5,3.4C171.2,190,171.8,189.1,171.8,186.6z"/>
		</g>
	</g>
	<line fill="none" stroke="#7B7C7D" stroke-dasharray="3" x1="256.5" y1="101.5" x2="282.6" y2="108"/>
	<g>
		<g>
			<line fill="none" stroke="#7B7C7D" x1="215.3" y1="56.2" x2="215.9" y2="57.6"/>
			<line fill="none" stroke="#7B7C7D" stroke-dasharray="2.6436,2.6436" x1="216.9" y1="60.1" x2="222.3" y2="73.5"/>
			<polyline fill="none" stroke="#7B7C7D" points="222.8,74.8 223.4,76.2 222,76.8 			"/>
			<line fill="none" stroke="#7B7C7D" stroke-dasharray="3.137,3.137" x1="219.2" y1="78.1" x2="163.7" y2="103.8"/>
			<line fill="none" stroke="#7B7C7D" x1="162.2" y1="104.5" x2="160.9" y2="105.1"/>
		</g>
	</g>
	<path fill="none" stroke="#7B7C7D" stroke-dasharray="3" d="M279.3,129.5c0,0,8.2,48.8,9.2,49s23.6,10,23.6,10"/>
	<line fill="none" stroke="#7B7C7D" stroke-dasharray="3" x1="210.7" y1="35.3" x2="177.9" y2="40.7"/>
	<path fill="none" stroke="#7B7C7D" stroke-dasharray="3" d="M215.6,133.8c0.8,1.4-45.4,10.4-45.4,10.4"/>
</g>
</svg>
