<?xml version="1.0" encoding="utf-8"?>
<!-- Generator: Adobe Illustrator 18.1.0, SVG Export Plug-In . SVG Version: 6.00 Build 0)  -->
<!DOCTYPE svg PUBLIC "-//W3C//DTD SVG 1.0//EN" "http://www.w3.org/TR/2001/REC-SVG-20010904/DTD/svg10.dtd">
<svg version="1.0" xmlns="http://www.w3.org/2000/svg" xmlns:xlink="http://www.w3.org/1999/xlink" x="0px" y="0px"
	 viewBox="0 0 504 251" enable-background="new 0 0 504 251" xml:space="preserve">
<g id="trazado">
	<path fill="#8F979C" d="M340.2,61.4c-10.3,2.5-46.1,12.4-47.6,12.9l-0.1,0l-0.1,0.1c-0.1,0-8.1,2.7-17.8-0.8l-0.2-0.1l-0.2,0
		c-0.7-0.2-73-20.1-87.4-25.3l-14.4-5.4c-11.5-4.4-22.3-8.6-28.5-9.7c-9.5-1.7-32.6,1-39.8,19.7l-0.1,0.2l-26.7,79.5
		c-1.1,3.2-1.6,9.8,4.1,14.2c5.9,4.6,10.4,4.9,20.9,1.5c9.4-3.1,116.3-34.1,117.4-34.4c0.6-0.2,64-17.8,80.8-21.5
		c13.9-3.1,32.8-7.3,38.1-7.8c5.9-0.6,8.9-0.3,10.9,4.6c1,2.4,1.3,4,1,5.3c-0.4,1.7-1.8,2.7-4,3.8c-5.4,2.8-17.4,9-20.8,24.9
		c-0.3,1.6-0.6,3.3-0.7,5.2c-1.7,20.4,10.7,27.4,11.2,27.7l0.1,0.1l0.1,0.1c2.3,1.1,8.7,4.9,11.5,9.1l1.8,2.6
		c3.5,5.1,6.8,9.9,5.3,16.9c0,0,0,0,0,0c-1,4.9-7.9,7.3-7.9,7.3l-11.5,3.6l-0.1,0.1c-0.4,0.1-3.8,1.2-7.2-1.7
		c-2.7-2.4-2.5-5.1-1.9-8.1l0.2-1.2l0.4-2.8c0.7-4.1,1.7-10.2,1.9-13.4c0.2-4,0.8-16.3-10.8-27.6c-9.9-9.7-20.7-18.8-33.2-14.5
		c-17.2,6-26.4,12.4-28.1,19.5c-0.1,0.5-0.2,1-0.3,1.4c-1.4,6.6-0.9,9.4,0,12.3l0.2,0.8c0,0.1,8,29.1,8.2,29.8
		c0.5,2.1,6.4,26,33.1,36.9c27.3,11.1,51.4-3.3,52.4-3.9c-0.1,0,48.8-28.7,48.8-28.7l0.2-0.1l0.2-0.2c1.5-1.1,14.7-11.2,18.7-15.5
		c3.1-3.3,5.3-6.7,6.3-11.3c0.6-2.8,0.7-6,0.4-9.9c-1-10.2-2.5-18.1-7.5-28.7c-4.7-9.8-16.9-33.8-18.2-36.4
		c-0.7-1.9-3.2-6.6-11.7-12l-25.8-16.1C361.1,64.3,352.3,58.5,340.2,61.4L340.2,61.4z M342.2,69.7c8.3-2,14.2,1.8,14.5,2
		c0.1,0.1,25.8,16.1,25.8,16.1c6.9,4.4,8.2,7.7,8.2,7.7c0,0.1,0.1,0.2,0.1,0.2l0.2,0.5c0.1,0.3,13.5,26.3,18.2,36.4
		c4.5,9.5,5.8,16.4,6.8,25.8c0.3,3,0.2,5.3-0.2,7.2c-0.7,3.2-2.2,5.2-4.2,7.3c-2.9,3.1-13.4,11.3-17.4,14.3
		c-0.4,0.3-48.6,28.6-48.6,28.6c-0.3,0.2-21.5,12.7-44.7,3.3c-23-9.4-27.7-30-27.9-30.9l0-0.1l-8.2-29.9c0,0.1-0.3-1-0.3-1
		c-0.5-1.7-0.9-3.2,0.5-9.3c0.2-1,2.4-6.4,22.5-13.4c7.2-2.5,14.4,2.7,24.4,12.5c8.8,8.6,8.4,17.6,8.2,21c-0.1,2.7-1.1,8.8-1.7,12.4
		l-0.5,2.9l-0.1,0.8c-0.6,2.9-2.1,10.4,4.7,16.3c5.9,5.1,12.8,4.4,15.9,3.2l-0.3,0.1l11.5-3.6c0.5-0.2,11.6-3.9,13.7-13.7
		c0,0,0,0,0,0c2.3-10.7-2.6-17.9-6.6-23.6l-1.6-2.4c-4.4-6.7-13.1-11.2-14.7-12c-0.5-0.3-8-5.1-6.8-19.5c0.1-1.4,0.3-2.8,0.6-4
		c2.5-11.9,11.4-16.5,16.3-19.1c4.8-2.5,7.6-5.7,8.5-9.7c0.6-3,0.1-6.5-1.5-10.5c-4.7-11.4-14.8-10.4-19.7-9.9
		c-5.4,0.5-20.3,3.8-39.2,8c-17.1,3.8-78.7,20.9-81.3,21.6c-4.5,1.3-108.2,31.4-117.7,34.5c-9,2.9-10.2,2.1-12.9-0.1
		c-1.7-1.3-1.6-3.3-1.4-4.2c0-0.2,0.1-0.4,0.1-0.4c0,0,25.7-76.4,26.7-79.3c5.4-13.8,24.3-15.3,30.3-14.3c5.4,0.9,16.3,5.2,26.9,9.2
		l14.6,5.5c14.8,5.3,85.1,24.7,88,25.5l-0.3-0.1c12.1,4.4,22,1.4,23.4,0.9C295.8,82.3,332.1,72.2,342.2,69.7L342.2,69.7z"/>
	<path fill="#B7B5B6" d="M339.6,61c-10.3,2.5-46.1,12.4-47.7,12.9l-0.1,0l-0.1,0.1c-0.1,0-8.1,2.7-17.8-0.8l-0.2-0.1l-0.2,0
		c-0.7-0.2-73-20.1-87.4-25.3l-14.4-5.4c-11.5-4.4-22.3-8.6-28.5-9.7c-9.5-1.7-32.6,1-39.8,19.7l-0.1,0.2l-26.7,79.5
		c-1.1,3.2-1.6,9.8,4.1,14.2c5.9,4.6,10.4,4.9,20.9,1.5c9.4-3.1,116.3-34.1,117.4-34.4c0.6-0.2,64-17.8,80.8-21.5
		c13.9-3.1,32.8-7.3,38.1-7.8c5.9-0.6,8.9-0.3,10.9,4.6c1,2.4,1.3,4,1,5.3c-0.4,1.7-1.8,2.7-4,3.8c-5.4,2.8-17.4,9-20.8,24.9
		c-0.3,1.6-0.6,3.3-0.7,5.2c-1.7,20.4,10.7,27.4,11.2,27.7l0.1,0.1l0.1,0.1c2.3,1.1,8.7,4.9,11.5,9.1l1.8,2.6
		c3.5,5.1,6.8,9.9,5.3,16.9c0,0,0,0,0,0c-1,4.9-7.9,7.3-7.9,7.3l-11.5,3.6l-0.1,0.1c-0.4,0.1-3.8,1.2-7.2-1.7
		c-2.7-2.4-2.5-5.1-1.9-8.1l0.2-1.2l0.4-2.8c0.7-4.1,1.7-10.2,1.9-13.4c0.2-4,0.8-16.3-10.8-27.6c-9.9-9.7-20.7-18.8-33.2-14.5
		c-17.2,6-26.4,12.4-28.1,19.5c-0.1,0.5-0.2,1-0.3,1.4c-1.4,6.6-0.9,9.4,0,12.3l0.2,0.8c0,0.1,8,29.1,8.2,29.8
		c0.5,2.1,6.4,26,33.1,36.9c27.3,11.1,51.4-3.3,52.4-3.9c-0.1,0,48.8-28.7,48.8-28.7l0.2-0.1l0.2-0.2c1.5-1.1,14.7-11.2,18.7-15.5
		c3.1-3.3,5.3-6.7,6.3-11.3c0.6-2.8,0.7-6,0.4-9.9c-1-10.2-2.5-18.1-7.5-28.7c-4.7-9.8-16.9-33.8-18.2-36.4
		c-0.7-1.9-3.2-6.6-11.7-12l-25.8-16.1C360.5,63.9,351.7,58.2,339.6,61L339.6,61z M341.6,69.4c8.3-2,14.2,1.8,14.5,2
		c0.1,0.1,25.8,16.1,25.8,16.1c6.9,4.4,8.2,7.7,8.2,7.7c0,0.1,0.1,0.2,0.1,0.2l0.2,0.5c0.1,0.3,13.5,26.3,18.2,36.4
		c4.5,9.5,5.8,16.4,6.7,25.8c0.3,3,0.2,5.3-0.2,7.2c-0.7,3.2-2.2,5.2-4.2,7.3c-2.9,3.1-13.4,11.3-17.4,14.3
		c-0.4,0.3-48.6,28.6-48.6,28.6c-0.3,0.2-21.5,12.7-44.7,3.3c-23-9.4-27.7-30-27.9-30.9l0-0.1l-8.2-29.9c0,0.1-0.3-1-0.3-1
		c-0.5-1.7-0.9-3.2,0.5-9.3c0.2-1,2.4-6.4,22.5-13.4c7.2-2.5,14.4,2.7,24.4,12.5c8.8,8.6,8.4,17.6,8.2,21c-0.1,2.7-1.1,8.8-1.7,12.4
		l-0.5,2.9l-0.1,0.8c-0.6,2.9-2.1,10.4,4.7,16.3c5.9,5.1,12.8,4.4,15.9,3.2l-0.3,0.1l11.5-3.6c0.5-0.2,11.6-3.9,13.7-13.7
		c0,0,0,0,0,0c2.3-10.7-2.6-17.9-6.6-23.6l-1.6-2.4c-4.3-6.7-13.1-11.2-14.7-12c-0.5-0.3-8-5.1-6.8-19.5c0.1-1.4,0.3-2.8,0.6-4
		c2.5-11.9,11.4-16.5,16.3-19.1c4.8-2.5,7.6-5.7,8.5-9.7c0.6-3,0.1-6.5-1.5-10.5C352.1,74,342,75,337.1,75.5
		c-5.4,0.5-20.3,3.8-39.2,8c-17.1,3.8-78.7,20.9-81.3,21.6c-4.5,1.3-108.2,31.4-117.7,34.5c-9,2.9-10.2,2.1-12.9-0.1
		c-1.7-1.3-1.6-3.3-1.4-4.2c0-0.2,0.1-0.4,0.1-0.4c0,0,25.7-76.4,26.7-79.3c5.4-13.8,24.3-15.3,30.3-14.3c5.4,0.9,16.3,5.2,26.9,9.2
		l14.6,5.5c14.8,5.3,85.1,24.7,88,25.5l-0.3-0.1c12.1,4.4,22,1.4,23.4,0.9C295.2,81.9,331.5,71.8,341.6,69.4L341.6,69.4z"/>
	
		<line fill="none" stroke="#AC1737" stroke-width="2" stroke-linecap="round" stroke-dasharray="2,4" x1="351.1" y1="191.8" x2="393.3" y2="221.1"/>
</g>
<g id="PUNTOS_INTERMEDIOS_Y_SEMAFORO">
	<g>
		<path fill="#AC1737" d="M228.8,121.1c-0.5,0.1-1-0.2-1.1-0.6L221.2,96c-0.1-0.4,0.1-0.9,0.6-1l17.1-4.6c0.5-0.1,1,0.2,1.1,0.6
			c0.1,0.5-0.2,1-0.6,1.1l-15.9,4.2c-0.2,0-0.3,0.2-0.2,0.4l6.2,23.2C229.5,120.5,229.2,120.9,228.8,121.1z"/>
		<path fill="#AC1737" d="M242.3,90.9c0.3-0.3,0.2-0.8-0.2-0.9l-3.5-1l-3.5-1c-0.4-0.1-0.8,0.3-0.7,0.7l0.9,3.5l0.9,3.5
			c0.1,0.4,0.6,0.5,0.9,0.2l2.6-2.6L242.3,90.9z"/>
	</g>
	<path fill="#AC1737" d="M162.5,116.7c0.5-0.1,1,0.1,1.1,0.6l10.1,31.5c0.1,0.5-0.1,1-0.6,1.1c-0.5,0.1-1-0.1-1.1-0.6l-10.1-31.5
		C161.8,117.3,162,116.9,162.5,116.7z"/>
	<path fill="#AC1737" d="M235.1,74.9c-0.5-0.1-0.7-0.6-0.6-1.1l8.7-31.9c0.1-0.5,0.6-0.7,1.1-0.6c0.5,0.1,0.7,0.6,0.6,1.1l-8.7,31.9
		C236.1,74.8,235.6,75,235.1,74.9z"/>
	<path fill="#AC1737" d="M241,94.6c0.5-0.1,1,0.1,1.1,0.6l10.1,31.5c0.1,0.5-0.1,1-0.6,1.1c-0.5,0.1-1-0.1-1.1-0.6l-10.1-31.5
		C240.2,95.3,240.5,94.8,241,94.6z"/>
	<path fill="#AC1737" d="M356.6,133.7c0.4,0.3,0.5,0.8,0.2,1.2l-18.6,27.3c-0.3,0.4-0.8,0.5-1.2,0.2c-0.4-0.3-0.5-0.8-0.2-1.2
		l18.6-27.3C355.6,133.5,356.2,133.4,356.6,133.7z"/>
	<path fill="#AC1737" d="M354.9,244.2c-0.4,0.2-1,0.1-1.2-0.4l-15.2-29.4c-0.2-0.4-0.1-1,0.4-1.2c0.4-0.2,1-0.1,1.2,0.4l15.2,29.4
		C355.5,243.4,355.3,244,354.9,244.2z"/>
	<g>
		<path fill="#AC1737" d="M343,238c0-4.2,3.4-7.7,7.6-7.7h5c4.2,0,7.7,3.4,7.7,7.7v5.1c0,4.2-3.4,7.7-7.7,7.7h-5
			c-4.2,0-7.6-3.4-7.6-7.7V238L343,238z"/>
		<g>
			<path fill="#FFFFFF" d="M348.7,236.9c0-0.5,0.4-0.8,0.9-0.8s0.9,0.3,0.9,0.8c0,0.5-0.4,0.8-0.9,0.8S348.7,237.4,348.7,236.9z
				 M348.8,238.8h1.5v6.2h-1.5V238.8z"/>
			<path fill="#FFFFFF" d="M352.3,244.2c2.2-2.2,3.7-3.6,3.7-4.8c0-0.9-0.5-1.4-1.3-1.4c-0.6,0-1.1,0.4-1.6,0.9l-0.8-0.8
				c0.7-0.8,1.5-1.2,2.6-1.2c1.5,0,2.6,1,2.6,2.5c0,1.4-1.3,2.9-2.9,4.6c0.4,0,1-0.1,1.3-0.1h2v1.2h-5.5V244.2z"/>
		</g>
	</g>
	<g>
		<path fill="#AC1737" d="M242.9,118.8c0-4.2,3.4-7.6,7.6-7.6h2.7c4.2,0,7.6,3.4,7.6,7.6v4.8c0,4.2-3.4,7.6-7.6,7.6h-2.7
			c-4.2,0-7.6-3.4-7.6-7.6V118.8L242.9,118.8z"/>
		<g>
			<path fill="#FFFFFF" d="M249.8,123.3c0.6,0.6,1.4,0.9,2.2,0.9c0.9,0,1.4-0.4,1.4-1.1c0-0.7-0.5-0.9-1.3-1.2l-1.1-0.5
				c-0.8-0.3-1.7-1-1.7-2.2c0-1.3,1.2-2.3,2.8-2.3c1,0,1.9,0.4,2.6,1.1l-0.8,0.9c-0.5-0.4-1.1-0.7-1.8-0.7c-0.8,0-1.3,0.4-1.3,1
				c0,0.6,0.6,0.9,1.3,1.2l1.1,0.5c1,0.4,1.7,1,1.7,2.2c0,1.3-1.1,2.5-3,2.5c-1.1,0-2.2-0.4-3-1.2L249.8,123.3z"/>
		</g>
	</g>
	<g>
		<path fill="#AC1737" d="M158.9,153.6c0-4.2,3.4-7.6,7.7-7.6h11.7c4.2,0,7.6,3.4,7.6,7.6v4.8c0,4.2-3.4,7.6-7.6,7.6h-11.7
			c-4.2,0-7.7-3.4-7.7-7.6V153.6L158.9,153.6z"/>
		<g>
			<path fill="#FFFFFF" d="M166.4,151.9h5v1.2h-3.5v2.3h3v1.2h-3v3.5h-1.5V151.9z"/>
			<path fill="#FFFFFF" d="M173.5,151.9h1.5v7.1h3.4v1.2h-4.9V151.9z"/>
		</g>
	</g>
	<g>
		<path fill="#AC1737" d="M351.8,136.2c0-4.2,3.4-7.6,7.7-7.6h3.9c4.2,0,7.7,3.4,7.7,7.6v5.5c0,4.2-3.4,7.7-7.7,7.7h-3.9
			c-4.2,0-7.7-3.4-7.7-7.7V136.2L351.8,136.2z"/>
		<g>
			<path fill="#FFFFFF" d="M356.9,135.3c0-0.5,0.4-0.8,0.9-0.8c0.5,0,0.9,0.3,0.9,0.8c0,0.5-0.4,0.8-0.9,0.8
				C357.2,136.1,356.9,135.8,356.9,135.3z M357,137.2h1.5v6.2H357V137.2z"/>
			<path fill="#FFFFFF" d="M361,142.3h1.8V137h-1.5v-0.9c0.8-0.2,1.4-0.4,1.9-0.7h1.1v6.9h1.6v1.2H361V142.3z"/>
		</g>
	</g>
	<g>
		<path fill="#7B7C7D" d="M185.4,152.2c0-4.2,3.4-7.6,7.6-7.6h6.8c4.2,0,7.6,3.4,7.6,7.6v8.3c0,4.2-3.4,7.6-7.6,7.6h-6.8
			c-4.2,0-7.6-3.4-7.6-7.6V152.2L185.4,152.2z"/>
		<g>
			<path fill="#FFFFFF" d="M195.2,165.9c-3.9,0-7.1-3.2-7.1-7.1V154c0-3.9,3.2-7.1,7.1-7.1h2.7c3.9,0,7.1,3.2,7.1,7.1v4.8
				c0,3.9-3.2,7.1-7.1,7.1H195.2z"/>
			<path fill="#C7C6C5" d="M197.9,147.3c3.7,0,6.6,3,6.6,6.6v4.8c0,3.7-3,6.6-6.6,6.6h-2.7c-3.7,0-6.6-3-6.6-6.6V154
				c0-3.7,3-6.6,6.6-6.6H197.9 M197.9,146.3h-2.7c-4.2,0-7.6,3.4-7.6,7.6v4.8c0,4.2,3.4,7.6,7.6,7.6h2.7c4.2,0,7.6-3.4,7.6-7.6V154
				C205.6,149.7,202.2,146.3,197.9,146.3L197.9,146.3z"/>
		</g>
		<g>
			<defs>
				<path id="SVGID_19_" d="M187.5,154c0-4.2,3.4-7.6,7.6-7.6h2.7c4.2,0,7.6,3.4,7.6,7.6v4.8c0,4.2-3.4,7.6-7.6,7.6h-2.7
					c-4.2,0-7.6-3.4-7.6-7.6V154L187.5,154z"/>
			</defs>
			<clipPath id="SVGID_2_">
				<use xlink:href="#SVGID_19_"  overflow="visible"/>
			</clipPath>
			<g clip-path="url(#SVGID_2_)">
				<rect x="182.2" y="148" fill="#1E1E1C" width="4.2" height="4.2"/>
				<rect x="186.3" y="152.1" fill="#1E1E1C" width="4.2" height="4.2"/>
				<rect x="190.5" y="148" fill="#1E1E1C" width="4.2" height="4.2"/>
				<rect x="194.7" y="152.1" fill="#1E1E1C" width="4.2" height="4.2"/>
				<rect x="182.2" y="156.3" fill="#1E1E1C" width="4.2" height="4.2"/>
				<rect x="186.3" y="160.5" fill="#1E1E1C" width="4.2" height="4.2"/>
				<rect x="190.5" y="156.3" fill="#1E1E1C" width="4.2" height="4.2"/>
				<rect x="194.7" y="160.5" fill="#1E1E1C" width="4.2" height="4.2"/>
				<rect x="198.8" y="148" fill="#1E1E1C" width="4.2" height="4.2"/>
				<rect x="203" y="152.1" fill="#1E1E1C" width="4.2" height="4.2"/>
				<rect x="198.8" y="156.3" fill="#1E1E1C" width="4.2" height="4.2"/>
				<rect x="203" y="160.5" fill="#1E1E1C" width="4.2" height="4.2"/>
			</g>
		</g>
		<g>
			<path fill="#C7C6C5" d="M197.9,147.3c3.7,0,6.6,3,6.6,6.6v4.8c0,3.7-3,6.6-6.6,6.6h-2.7c-3.7,0-6.6-3-6.6-6.6V154
				c0-3.7,3-6.6,6.6-6.6H197.9 M197.9,146.3h-2.7c-4.2,0-7.6,3.4-7.6,7.6v4.8c0,4.2,3.4,7.6,7.6,7.6h2.7c4.2,0,7.6-3.4,7.6-7.6V154
				C205.6,149.7,202.2,146.3,197.9,146.3L197.9,146.3z"/>
		</g>
	</g>
	<g>
		<path fill="#7B7C7D" d="M201,126.8c0-4.2,3.4-7.6,7.6-7.6h25.8c4.2,0,7.6,3.4,7.6,7.6v8.3c0,4.2-3.4,7.6-7.6,7.6h-25.8
			c-4.2,0-7.6-3.4-7.6-7.6V126.8L201,126.8z"/>
		<g>
			<g>
				<path fill="#C01724" d="M210.3,140.6c-3.9,0-7.1-3.2-7.1-7.1v-4.8c0-3.9,3.2-7.1,7.1-7.1h2.7c3.9,0,7.1,3.2,7.1,7.1v4.8
					c0,3.9-3.2,7.1-7.1,7.1H210.3z"/>
				<path fill="#AA1920" d="M213,122c3.7,0,6.6,3,6.6,6.6v4.8c0,3.7-3,6.6-6.6,6.6h-2.7c-3.7,0-6.6-3-6.6-6.6v-4.8
					c0-3.7,3-6.6,6.6-6.6H213 M213,121h-2.7c-4.2,0-7.6,3.4-7.6,7.6v4.8c0,4.2,3.4,7.6,7.6,7.6h2.7c4.2,0,7.6-3.4,7.6-7.6v-4.8
					C220.7,124.4,217.2,121,213,121L213,121z"/>
			</g>
			<g>
				<path fill="#009548" d="M230.1,140.6c-3.9,0-7.1-3.2-7.1-7.1v-4.8c0-3.9,3.2-7.1,7.1-7.1h2.7c3.9,0,7.1,3.2,7.1,7.1v4.8
					c0,3.9-3.2,7.1-7.1,7.1H230.1z"/>
				<path fill="#006139" d="M232.8,122c3.7,0,6.6,3,6.6,6.6v4.8c0,3.7-3,6.6-6.6,6.6h-2.7c-3.7,0-6.6-3-6.6-6.6v-4.8
					c0-3.7,3-6.6,6.6-6.6H232.8 M232.8,121h-2.7c-4.2,0-7.6,3.4-7.6,7.6v4.8c0,4.2,3.4,7.6,7.6,7.6h2.7c4.2,0,7.6-3.4,7.6-7.6v-4.8
					C240.4,124.4,237,121,232.8,121L232.8,121z"/>
			</g>
		</g>
	</g>
	<g>
		<path fill="#AC1737" d="M232.7,40.9c0-4.2,3.4-7.7,7.6-7.7h5.1c4.2,0,7.7,3.4,7.7,7.7V46c0,4.2-3.4,7.6-7.7,7.6h-5.1
			c-4.2,0-7.6-3.4-7.6-7.6V40.9L232.7,40.9z"/>
		<g>
			<path fill="#FFFFFF" d="M238.3,39.7c0-0.5,0.4-0.8,0.9-0.8c0.5,0,0.9,0.3,0.9,0.8c0,0.5-0.4,0.8-0.9,0.8
				C238.7,40.5,238.3,40.2,238.3,39.7z M238.5,41.6h1.5v6.2h-1.5V41.6z"/>
			<path fill="#FFFFFF" d="M242.5,45.9c0.5,0.5,1.1,0.9,1.9,0.9c0.9,0,1.5-0.5,1.5-1.2c0-0.8-0.5-1.4-2.4-1.4v-1.1
				c1.6,0,2.1-0.5,2.1-1.3c0-0.7-0.5-1.1-1.2-1.1c-0.6,0-1.1,0.3-1.6,0.8l-0.8-0.9c0.7-0.6,1.5-1,2.4-1c1.5,0,2.6,0.8,2.6,2.1
				c0,0.9-0.5,1.5-1.4,1.9v0.1c1,0.3,1.7,0.9,1.7,2c0,1.5-1.3,2.3-2.8,2.3c-1.3,0-2.2-0.5-2.7-1.1L242.5,45.9z"/>
		</g>
	</g>
</g>
<g id="textos_y_numeros">
	<g>
		<g>
			<path fill="#7B7C7D" d="M331.6,96.4h2v-5.9h-1.7v-1c0.9-0.2,1.5-0.4,2.1-0.7h1.2v7.6h1.8v1.3h-5.4V96.4z"/>
		</g>
	</g>
	<g>
		<g>
			<path fill="#7B7C7D" d="M339.2,134.4c2.5-2.4,4.1-4,4.1-5.4c0-0.9-0.5-1.6-1.5-1.6c-0.7,0-1.3,0.5-1.8,1l-0.9-0.9
				c0.8-0.9,1.6-1.4,2.9-1.4c1.7,0,2.8,1.1,2.8,2.8c0,1.6-1.5,3.2-3.3,5.1c0.5,0,1.1-0.1,1.5-0.1h2.2v1.4h-6.1V134.4z"/>
		</g>
	</g>
	<g>
		<g>
			<path fill="#7B7C7D" d="M338.5,185.2c0.5,0.6,1.2,1,2.1,1c1,0,1.7-0.5,1.7-1.4c0-0.9-0.6-1.5-2.6-1.5v-1.2c1.8,0,2.3-0.6,2.3-1.4
				c0-0.7-0.5-1.2-1.3-1.2c-0.7,0-1.3,0.3-1.8,0.8l-0.8-1c0.8-0.7,1.6-1.1,2.7-1.1c1.7,0,2.9,0.8,2.9,2.4c0,1-0.6,1.7-1.6,2.1v0.1
				c1.1,0.3,1.9,1,1.9,2.2c0,1.6-1.4,2.6-3.1,2.6c-1.5,0-2.4-0.6-3-1.3L338.5,185.2z"/>
		</g>
	</g>
	<g>
		<g>
			<path fill="#7B7C7D" d="M310.9,162.6h-1.1v2.3h-1.5v-2.3h-4v-1.1l3.6-5.6h1.9v5.4h1.1V162.6z M308.3,161.4v-2
				c0-0.5,0-1.3,0.1-1.9h-0.1c-0.2,0.5-0.5,0.9-0.7,1.4l-1.6,2.5H308.3z"/>
		</g>
	</g>
	<g>
		<g>
			<path fill="#7B7C7D" d="M288.5,116.8c0.5,0.5,1.2,1,2.1,1c1,0,1.7-0.6,1.7-1.7c0-1.1-0.7-1.7-1.7-1.7c-0.6,0-0.9,0.2-1.4,0.5
				l-0.8-0.5l0.3-4.4h4.8v1.4h-3.4l-0.2,2.2c0.4-0.2,0.7-0.3,1.2-0.3c1.5,0,2.8,0.9,2.8,2.8c0,2-1.5,3.1-3.2,3.1
				c-1.5,0-2.4-0.6-3.1-1.2L288.5,116.8z"/>
		</g>
	</g>
	<g>
		<g>
			<path fill="#7B7C7D" d="M249.7,146.1c-0.3-0.4-0.9-0.7-1.4-0.7c-1.1,0-2,0.8-2.1,3.3c0.5-0.7,1.3-1.1,1.9-1.1
				c1.6,0,2.6,0.9,2.6,2.8c0,1.8-1.3,2.9-2.8,2.9c-1.8,0-3.3-1.4-3.3-4.4c0-3.5,1.7-4.9,3.5-4.9c1.1,0,1.9,0.5,2.4,1L249.7,146.1z
				 M249.2,150.5c0-1.1-0.5-1.6-1.4-1.6c-0.5,0-1.1,0.3-1.6,1c0.2,1.6,0.8,2.3,1.7,2.3C248.6,152.2,249.2,151.6,249.2,150.5z"/>
		</g>
	</g>
	<g>
		<g>
			<path fill="#7B7C7D" d="M286.2,230.7h-4.2v-1.4h6v1c-2.1,2.6-2.5,4.5-2.6,8h-1.7C283.8,235.1,284.5,233.1,286.2,230.7z"/>
		</g>
	</g>
	<g>
		<g>
			<path fill="#7B7C7D" d="M435.6,167.5L435.6,167.5c-0.7-0.5-1.2-1.2-1.2-2.2c0-1.5,1.2-2.4,2.7-2.4c1.6,0,2.6,1,2.6,2.4
				c0,0.9-0.6,1.6-1.2,2.1v0.1c0.8,0.5,1.6,1.1,1.6,2.3c0,1.4-1.2,2.4-3,2.4c-1.8,0-3-1-3-2.5C434,168.7,434.8,168,435.6,167.5z
				 M437.1,171.1c0.9,0,1.5-0.5,1.5-1.3c0-1-0.9-1.3-2.2-1.8c-0.6,0.4-1,1-1,1.7C435.4,170.5,436.1,171.1,437.1,171.1z M438.4,165.5
				c0-0.8-0.5-1.4-1.3-1.4c-0.7,0-1.2,0.5-1.2,1.2c0,0.9,0.8,1.3,1.8,1.7C438.1,166.6,438.4,166.1,438.4,165.5z"/>
		</g>
	</g>
	<g>
		<g>
			<path fill="#7B7C7D" d="M400.4,79.7c0.3,0.4,0.9,0.7,1.4,0.7c1.1,0,2-0.8,2.1-3.3c-0.5,0.6-1.3,1-2,1c-1.5,0-2.6-0.9-2.6-2.8
				c0-1.8,1.3-2.9,2.8-2.9c1.8,0,3.2,1.4,3.2,4.4c0,3.5-1.7,4.9-3.5,4.9c-1.1,0-1.9-0.5-2.4-1L400.4,79.7z M403.9,75.9
				c-0.2-1.6-0.8-2.3-1.7-2.3c-0.7,0-1.3,0.6-1.3,1.7c0,1.1,0.5,1.6,1.4,1.6C402.8,76.9,403.4,76.6,403.9,75.9z"/>
		</g>
	</g>
	<g>
		<g>
			<path fill="#7B7C7D" d="M348.1,51.7h2v-5.9h-1.7v-1c0.9-0.2,1.5-0.4,2.1-0.7h1.2v7.6h1.8V53h-5.4V51.7z"/>
			<path fill="#7B7C7D" d="M354.9,48.5c0-3,1.2-4.6,3-4.6s3,1.6,3,4.6c0,3-1.2,4.7-3,4.7S354.9,51.6,354.9,48.5z M359.4,48.5
				c0-2.5-0.6-3.3-1.5-3.3c-0.9,0-1.5,0.8-1.5,3.3c0,2.5,0.6,3.4,1.5,3.4C358.8,51.9,359.4,51.1,359.4,48.5z"/>
		</g>
	</g>
	<g>
		<g>
			<path fill="#7B7C7D" d="M279.8,64.7h2v-5.9h-1.7v-1c0.9-0.2,1.5-0.4,2.1-0.7h1.2v7.6h1.8v1.3h-5.4V64.7z"/>
			<path fill="#7B7C7D" d="M287,64.7h2v-5.9h-1.7v-1c0.9-0.2,1.5-0.4,2.1-0.7h1.2v7.6h1.8v1.3H287V64.7z"/>
		</g>
	</g>
	<g>
		<g>
			<path fill="#7B7C7D" d="M117.7,24.1h2v-5.9h-1.7v-1c0.9-0.2,1.5-0.4,2.1-0.7h1.2v7.6h1.8v1.3h-5.4V24.1z"/>
			<path fill="#7B7C7D" d="M124.4,24.5c2.5-2.4,4.1-4,4.1-5.4c0-0.9-0.5-1.6-1.5-1.6c-0.7,0-1.3,0.5-1.8,1l-0.9-0.9
				c0.8-0.9,1.6-1.4,2.9-1.4c1.7,0,2.8,1.1,2.8,2.8c0,1.6-1.5,3.2-3.3,5.1c0.5,0,1.1-0.1,1.5-0.1h2.2v1.4h-6.1V24.5z"/>
		</g>
	</g>
	<g>
		<g>
			<path fill="#7B7C7D" d="M70.4,161.1h2v-5.9h-1.7v-1c0.9-0.2,1.5-0.4,2.1-0.7h1.2v7.6h1.8v1.3h-5.4V161.1z"/>
			<path fill="#7B7C7D" d="M77.8,160.3c0.5,0.6,1.2,1,2.1,1c1,0,1.7-0.5,1.7-1.4c0-0.9-0.6-1.5-2.6-1.5v-1.2c1.8,0,2.3-0.6,2.3-1.4
				c0-0.7-0.5-1.2-1.3-1.2c-0.7,0-1.3,0.3-1.8,0.8l-0.8-1c0.8-0.7,1.6-1.1,2.7-1.1c1.7,0,2.9,0.8,2.9,2.4c0,1-0.6,1.7-1.6,2.1v0.1
				c1.1,0.3,1.9,1,1.9,2.2c0,1.6-1.4,2.6-3.1,2.6c-1.5,0-2.4-0.6-3-1.3L77.8,160.3z"/>
		</g>
	</g>
	<g>
		<g>
			<path fill="#7B7C7D" d="M121,8.5c0.7,0.6,1.6,1,2.4,1c1,0,1.6-0.5,1.6-1.2c0-0.8-0.6-1-1.4-1.4l-1.3-0.6
				c-0.9-0.4-1.9-1.1-1.9-2.5c0-1.5,1.3-2.6,3.1-2.6c1.1,0,2.1,0.5,2.9,1.2l-0.8,1c-0.6-0.5-1.2-0.8-2-0.8c-0.9,0-1.4,0.4-1.4,1.1
				c0,0.7,0.7,1,1.5,1.3l1.2,0.5c1.1,0.5,1.9,1.2,1.9,2.5c0,1.5-1.2,2.7-3.3,2.7c-1.2,0-2.4-0.5-3.3-1.4L121,8.5z"/>
			<path fill="#7B7C7D" d="M132,6.4c0-0.7-0.3-1.4-1.3-1.4c-0.7,0-1.3,0.3-1.9,0.7l-0.6-1.1c0.8-0.5,1.7-0.9,2.8-0.9
				c1.7,0,2.6,1.1,2.6,3v4.1h-1.3l-0.1-0.8h0c-0.6,0.5-1.3,0.9-2.1,0.9c-1.2,0-2.1-0.8-2.1-2C127.9,7.5,129.2,6.7,132,6.4z
				 M130.5,9.7c0.6,0,1-0.3,1.5-0.8V7.4c-1.9,0.2-2.5,0.7-2.5,1.4C129.5,9.4,129.9,9.7,130.5,9.7z"/>
			<path fill="#7B7C7D" d="M138.6,3.7c0.9,0,1.6,0.4,2,0.8l-0.8,1c-0.4-0.3-0.7-0.5-1.2-0.5c-1.1,0-1.9,0.9-1.9,2.3
				c0,1.4,0.8,2.3,1.8,2.3c0.6,0,1-0.3,1.4-0.6l0.7,1c-0.6,0.6-1.5,0.9-2.3,0.9c-1.9,0-3.3-1.3-3.3-3.6C135.2,5,136.8,3.7,138.6,3.7
				z"/>
			<path fill="#7B7C7D" d="M142.1,0.8h1.6v2.6l-0.1,1.3c0.6-0.6,1.3-1,2.2-1c1.5,0,2.1,1,2.1,2.8v4.3h-1.6V6.7
				c0-1.1-0.3-1.6-1.1-1.6c-0.6,0-1,0.3-1.6,0.9v4.8h-1.6V0.8z"/>
			<path fill="#7B7C7D" d="M150.1,9c0.6,0.5,1.2,0.8,1.9,0.8c0.7,0,1.1-0.4,1.1-0.8c0-0.6-0.7-0.8-1.5-1.1c-0.9-0.3-1.9-0.9-1.9-2
				c0-1.2,1-2.1,2.5-2.1c1,0,1.7,0.4,2.3,0.8l-0.7,1c-0.5-0.4-1-0.6-1.5-0.6c-0.7,0-1,0.3-1,0.8c0,0.5,0.7,0.8,1.4,1
				c0.9,0.4,2,0.8,2,2.1c0,1.2-0.9,2.1-2.7,2.1c-0.9,0-1.9-0.4-2.6-1L150.1,9z"/>
			<path fill="#7B7C7D" d="M158.8,3.7c1.9,0,2.9,1.4,2.9,3.3c0,0.3,0,0.6-0.1,0.8h-4.4c0.1,1.3,0.9,2,2,2c0.6,0,1.1-0.2,1.6-0.5
				l0.6,1c-0.7,0.4-1.5,0.7-2.4,0.7c-1.9,0-3.4-1.3-3.4-3.6C155.6,5.1,157.2,3.7,158.8,3.7z M160.3,6.7c0-1.1-0.5-1.8-1.4-1.8
				c-0.8,0-1.5,0.6-1.7,1.8H160.3z"/>
			<path fill="#7B7C7D" d="M163.2,3.9h1.3l0.1,0.9h0.1c0.6-0.6,1.3-1.1,2.3-1.1c1.5,0,2.1,1,2.1,2.8v4.3h-1.6V6.7
				c0-1.1-0.3-1.6-1.1-1.6c-0.6,0-1,0.3-1.6,0.9v4.8h-1.6V3.9z"/>
			<path fill="#7B7C7D" d="M171.1,0.8h1.6v6.2h0l2.6-3.2h1.8l-2.4,2.8l2.6,4.1h-1.8l-1.8-3L172.7,9v1.8h-1.6V0.8z"/>
			<path fill="#7B7C7D" d="M178.4,3.9h1.6V8c0,1.1,0.3,1.6,1.1,1.6c0.6,0,1-0.3,1.5-1V3.9h1.6v6.9H183l-0.1-1h0
				c-0.6,0.7-1.3,1.2-2.2,1.2c-1.5,0-2.1-1-2.1-2.8V3.9z"/>
			<path fill="#7B7C7D" d="M186.3,3.9h1.3l0.1,1.2h0.1c0.5-0.9,1.2-1.4,2-1.4c0.4,0,0.6,0,0.8,0.1l-0.3,1.4
				c-0.2-0.1-0.4-0.1-0.7-0.1c-0.6,0-1.2,0.4-1.6,1.4v4.2h-1.6V3.9z"/>
			<path fill="#7B7C7D" d="M190.7,3.9h1.7l1.1,3.6c0.2,0.7,0.4,1.4,0.6,2.1h0.1c0.2-0.7,0.4-1.4,0.6-2.1l1.1-3.6h1.6l-2.4,6.9h-1.9
				L190.7,3.9z"/>
			<path fill="#7B7C7D" d="M201.3,3.7c1.9,0,2.9,1.4,2.9,3.3c0,0.3,0,0.6-0.1,0.8h-4.4c0.1,1.3,0.9,2,2,2c0.6,0,1.1-0.2,1.6-0.5
				l0.6,1c-0.7,0.4-1.5,0.7-2.4,0.7c-1.9,0-3.4-1.3-3.4-3.6C198.1,5.1,199.7,3.7,201.3,3.7z M202.8,6.7c0-1.1-0.5-1.8-1.4-1.8
				c-0.8,0-1.5,0.6-1.7,1.8H202.8z"/>
		</g>
	</g>
	<g>
		<g>
			<path fill="#7B7C7D" d="M395.6,224c0-3,1.7-4.7,4.1-4.7c2.4,0,4.1,1.8,4.1,4.7c0,3-1.7,4.8-4.1,4.8
				C397.3,228.9,395.6,227,395.6,224z M402.1,224c0-2.1-0.9-3.3-2.4-3.3c-1.5,0-2.4,1.3-2.4,3.3c0,2.1,0.9,3.4,2.4,3.4
				C401.2,227.4,402.1,226.1,402.1,224z"/>
			<path fill="#7B7C7D" d="M405.5,221.8h1.3l0.1,0.9h0.1c0.6-0.6,1.3-1.1,2.1-1.1c1,0,1.6,0.5,1.9,1.2c0.7-0.7,1.4-1.2,2.2-1.2
				c1.5,0,2.1,1,2.1,2.8v4.3h-1.6v-4.1c0-1.1-0.3-1.6-1.1-1.6c-0.4,0-0.9,0.3-1.5,0.9v4.8h-1.6v-4.1c0-1.1-0.3-1.6-1.1-1.6
				c-0.4,0-0.9,0.3-1.5,0.9v4.8h-1.6V221.8z"/>
			<path fill="#7B7C7D" d="M420.1,221.6c1.9,0,2.9,1.4,2.9,3.3c0,0.3,0,0.6-0.1,0.8h-4.4c0.1,1.3,0.9,2,2,2c0.6,0,1.1-0.2,1.6-0.5
				l0.5,1c-0.7,0.4-1.5,0.7-2.4,0.7c-1.9,0-3.4-1.3-3.4-3.6C416.9,223,418.5,221.6,420.1,221.6z M421.6,224.6c0-1.1-0.5-1.8-1.4-1.8
				c-0.8,0-1.5,0.6-1.7,1.8H421.6z"/>
			<path fill="#7B7C7D" d="M425,228.5L425,228.5c-0.4-0.3-0.6-0.6-0.6-1.2c0-0.5,0.4-1,0.8-1.3v-0.1c-0.5-0.4-0.9-1-0.9-1.8
				c0-1.6,1.3-2.5,2.7-2.5c0.4,0,0.7,0.1,1,0.2h2.5v1.2h-1.3c0.2,0.3,0.4,0.7,0.4,1.2c0,1.5-1.2,2.4-2.6,2.4c-0.3,0-0.6-0.1-0.9-0.2
				c-0.2,0.2-0.3,0.4-0.3,0.7c0,0.4,0.3,0.6,1.1,0.6h1.2c1.7,0,2.5,0.5,2.5,1.7c0,1.4-1.4,2.4-3.7,2.4c-1.7,0-2.9-0.6-2.9-1.8
				C424.1,229.4,424.4,228.9,425,228.5z M427.2,230.7c1.1,0,1.9-0.5,1.9-1.1c0-0.5-0.4-0.7-1.2-0.7h-0.9c-0.4,0-0.7,0-0.9-0.1
				c-0.4,0.3-0.5,0.6-0.5,0.9C425.4,230.3,426.1,230.7,427.2,230.7z M428.2,224.1c0-0.9-0.5-1.4-1.2-1.4c-0.7,0-1.2,0.5-1.2,1.4
				c0,0.9,0.5,1.4,1.2,1.4C427.7,225.5,428.2,225,428.2,224.1z"/>
			<path fill="#7B7C7D" d="M435.6,224.3c0-0.7-0.3-1.4-1.3-1.4c-0.7,0-1.3,0.3-1.9,0.7l-0.6-1.1c0.8-0.5,1.7-0.9,2.8-0.9
				c1.7,0,2.6,1.1,2.6,3v4.1h-1.3l-0.1-0.8h0c-0.6,0.5-1.3,0.9-2.1,0.9c-1.2,0-2.1-0.8-2.1-2C431.6,225.4,432.8,224.6,435.6,224.3z
				 M434.1,227.6c0.6,0,1-0.3,1.5-0.8v-1.6c-1.9,0.2-2.5,0.7-2.5,1.4C433.1,227.3,433.5,227.6,434.1,227.6z"/>
		</g>
	</g>
	<g>
		<g>
			<path fill="#7B7C7D" d="M107.5,179.6c-0.3,0.1-0.8,0.3-1.5,0.3c-1.8,0-3.1-1-3.7-2.3c-2-0.4-3.3-2.1-3.3-4.8c0-3,1.7-4.7,4.1-4.7
				c2.4,0,4.1,1.8,4.1,4.7c0,2.6-1.2,4.3-3.1,4.7c0.4,0.7,1.3,1,2.1,1c0.4,0,0.7-0.1,1-0.2L107.5,179.6z M103.1,176.2
				c1.5,0,2.4-1.3,2.4-3.4c0-2.1-0.9-3.3-2.4-3.3c-1.5,0-2.4,1.3-2.4,3.3C100.7,174.9,101.6,176.2,103.1,176.2z"/>
			<path fill="#7B7C7D" d="M108.8,170.5h1.6v4.1c0,1.1,0.3,1.6,1.1,1.6c0.6,0,1-0.3,1.5-1v-4.7h1.6v6.9h-1.3l-0.1-1h0
				c-0.6,0.7-1.3,1.2-2.2,1.2c-1.5,0-2.1-1-2.1-2.8V170.5z"/>
			<path fill="#7B7C7D" d="M119.4,170.4c1.9,0,2.9,1.4,2.9,3.3c0,0.3,0,0.6-0.1,0.8h-4.4c0.1,1.3,0.9,2,2,2c0.6,0,1.1-0.2,1.6-0.5
				l0.6,1c-0.7,0.4-1.5,0.7-2.4,0.7c-1.9,0-3.4-1.3-3.4-3.6C116.3,171.7,117.8,170.4,119.4,170.4z M120.9,173.4
				c0-1.1-0.5-1.8-1.4-1.8c-0.8,0-1.5,0.6-1.7,1.8H120.9z"/>
			<path fill="#7B7C7D" d="M126.9,170.4c0.9,0,1.6,0.4,2,0.8l-0.8,1c-0.4-0.3-0.7-0.5-1.2-0.5c-1.1,0-1.9,0.9-1.9,2.3
				c0,1.4,0.8,2.3,1.8,2.3c0.6,0,1-0.3,1.4-0.6l0.7,1c-0.6,0.6-1.5,0.9-2.3,0.9c-1.9,0-3.3-1.3-3.3-3.6
				C123.4,171.7,125,170.4,126.9,170.4z"/>
			<path fill="#7B7C7D" d="M130.4,167.5h1.6v6.2h0l2.6-3.2h1.8l-2.4,2.8l2.6,4.1h-1.8l-1.8-3l-1.1,1.2v1.8h-1.6V167.5z"/>
			<path fill="#7B7C7D" d="M140.5,170.4c1.9,0,2.9,1.4,2.9,3.3c0,0.3,0,0.6-0.1,0.8h-4.4c0.1,1.3,0.9,2,2,2c0.6,0,1.1-0.2,1.6-0.5
				l0.6,1c-0.7,0.4-1.5,0.7-2.4,0.7c-1.9,0-3.4-1.3-3.4-3.6C137.3,171.7,138.9,170.4,140.5,170.4z M141.9,173.4
				c0-1.1-0.5-1.8-1.4-1.8c-0.8,0-1.5,0.6-1.7,1.8H141.9z"/>
			<path fill="#7B7C7D" d="M144.9,170.5h1.3l0.1,0.9h0.1c0.6-0.6,1.3-1.1,2.3-1.1c1.5,0,2.1,1,2.1,2.8v4.3h-1.6v-4.1
				c0-1.1-0.3-1.6-1.1-1.6c-0.6,0-1,0.3-1.6,0.9v4.8h-1.6V170.5z"/>
			<path fill="#7B7C7D" d="M152.8,167.5h1.6v2.6l0,1.2c0.6-0.5,1.3-0.9,2-0.9c1.7,0,2.7,1.4,2.7,3.5c0,2.4-1.4,3.8-3,3.8
				c-0.6,0-1.3-0.3-1.9-0.9h0l-0.1,0.7h-1.3V167.5z M155.8,176.3c0.9,0,1.6-0.8,1.6-2.4c0-1.4-0.5-2.2-1.5-2.2c-0.5,0-1,0.3-1.5,0.8
				v3.2C154.9,176.1,155.4,176.3,155.8,176.3z"/>
			<path fill="#7B7C7D" d="M163.5,170.4c1.9,0,2.9,1.4,2.9,3.3c0,0.3,0,0.6-0.1,0.8h-4.4c0.1,1.3,0.9,2,2,2c0.6,0,1.1-0.2,1.6-0.5
				l0.6,1c-0.7,0.4-1.5,0.7-2.4,0.7c-1.9,0-3.4-1.3-3.4-3.6C160.3,171.7,161.9,170.4,163.5,170.4z M165,173.4c0-1.1-0.5-1.8-1.4-1.8
				c-0.8,0-1.5,0.6-1.7,1.8H165z"/>
			<path fill="#7B7C7D" d="M167.9,170.5h1.3l0.1,1.2h0.1c0.5-0.9,1.2-1.4,2-1.4c0.4,0,0.6,0,0.8,0.1l-0.3,1.4
				c-0.2-0.1-0.4-0.1-0.7-0.1c-0.6,0-1.2,0.4-1.6,1.4v4.2h-1.6V170.5z"/>
			<path fill="#7B7C7D" d="M173.7,177.2L173.7,177.2c-0.4-0.3-0.6-0.6-0.6-1.2c0-0.5,0.4-1,0.8-1.3v-0.1c-0.5-0.4-0.9-1-0.9-1.8
				c0-1.6,1.3-2.5,2.7-2.5c0.4,0,0.7,0.1,1,0.2h2.5v1.2h-1.3c0.2,0.3,0.4,0.7,0.4,1.2c0,1.5-1.2,2.4-2.6,2.4c-0.3,0-0.6-0.1-0.9-0.2
				c-0.2,0.2-0.3,0.4-0.3,0.7c0,0.4,0.3,0.6,1.1,0.6h1.2c1.7,0,2.5,0.5,2.5,1.7c0,1.4-1.4,2.4-3.7,2.4c-1.7,0-2.9-0.6-2.9-1.8
				C172.7,178.1,173.1,177.6,173.7,177.2z M175.8,179.5c1.1,0,1.9-0.5,1.9-1.1c0-0.5-0.4-0.7-1.2-0.7h-0.9c-0.4,0-0.7,0-0.9-0.1
				c-0.4,0.3-0.5,0.6-0.5,0.9C174.1,179.1,174.7,179.5,175.8,179.5z M176.9,172.8c0-0.9-0.5-1.4-1.2-1.4c-0.7,0-1.2,0.5-1.2,1.4
				c0,0.9,0.5,1.4,1.2,1.4C176.3,174.2,176.9,173.7,176.9,172.8z"/>
		</g>
	</g>
</g>
</svg>
