<?xml version="1.0" encoding="utf-8"?>
<!-- Generator: Adobe Illustrator 18.1.0, SVG Export Plug-In . SVG Version: 6.00 Build 0)  -->
<!DOCTYPE svg PUBLIC "-//W3C//DTD SVG 1.0//EN" "http://www.w3.org/TR/2001/REC-SVG-20010904/DTD/svg10.dtd">
<svg version="1.0" xmlns="http://www.w3.org/2000/svg" xmlns:xlink="http://www.w3.org/1999/xlink" x="0px" y="0px"
	 viewBox="0 0 504 251" enable-background="new 0 0 504 251" xml:space="preserve">
<g id="trazado">
	<path fill="#B7B5B6" d="M206.1,32.5c0,0-50.6-10.6-50.7-10.6c-1.5-0.4-16.9-3.9-25.5,8.3l-0.1,0.1L119.8,47l0.1-0.2
		c-0.2,0.2-2.1,3.2-3.5,8c-1.2,4.2-2,9.8-0.6,16c2.8,12.9,19.9,18.8,20.6,19c0,0,21.5,7.7,23,8.2c3.1,1.3,8.5,4.4,10.1,7.2
		c1.7,3,2.5,5.5,2.5,7.5l-0.3,17.6c0,0.2-0.2,7.2,5.2,11.7l46.2,38.2l0.1,0.1c0.8,0.5,7.7,5.3,14.6,2.4c5.2-2.2,10.7-5.2,10.9-5.3
		c0.3-0.1,2.9-1.3,6.4,1.1c5.7,3.9,55.2,37.8,55.7,38.1l0.1,0.1l0.2,0.1c4.8,2.7,15.8,4.9,22.8-5.8c3.1-4.8,5.7-9,6.4-10.2
		c0.3-0.4,2.1-1.9,5.9-1c6.8,1.6,21,4.5,21.6,4.6l0.1,0l0.1,0c5.5,0.8,16.6-0.2,19.3-9.7c0-0.1,0-0.1,0.1-0.2
		c3.5-12.5-7.2-17.3-10.7-18.9l-0.2-0.1l-32.2-12.8c0,0,0,0,0,0c0,0-3.3-1.4-9-4.4c-14.6-7.4-37.7-21.3-38.8-22
		c-0.8-0.5-7.1-4.9-14.9-8.7c-8.1-3.9-34.6-16.3-46.4-21.7L160,71.5c-5.8-2.7-15.2-8.9-16.1-14.3c-0.5-3.1-0.3-5.6,0.3-7.6
		c0.7-2.2,1.8-3.8,2.9-4.8c0.7-0.6,6.7-6.1,15.8,0.8c10.6,8,57.8,44.4,59.9,46c1.1,0.9,6.4,5.4,13.1,5.4l8.7-0.2
		c0.3,0,4.7-0.3,8.6,3.2c5.3,4.7,16,13.1,16.5,13.4l0.2,0.1l0.2,0.1c5.7,3.4,18.4,6.9,25.3-4.2c3.7-5.9,3.1-10.7,2-13.7
		c-2.9-7.8-12.2-11.3-14.9-12.1c-7.6-2.4-58-17.5-58.5-17.6c-0.7-0.2-6.3-2.1-6.2-8.5c0.1-9.7,0-12.6,0-12.7
		C217.9,44.2,217.1,35,206.1,32.5L206.1,32.5z M210.3,45.2c0,0.7,0.1,3.9,0,12.2c-0.1,10,7.6,14.8,11.7,15.9
		c0.4,0.1,50.8,15.2,58.4,17.6c3.8,1.2,8.7,3.9,10,7.5c0.8,2.1,0.3,4.4-1.3,7c-4.5,7.2-13.3,2.7-14.8,1.8c-1.2-0.9-11.1-8.7-15.9-13
		c-6.4-5.7-13.9-5.1-14.2-5.1c0.1,0-8.3,0.2-8.3,0.2c-4.2,0-8-3.4-8.1-3.5l-0.1-0.1l-0.1-0.1c-0.5-0.4-49.3-38-60.1-46.1
		c-11.5-8.6-21.6-4.1-25.7-0.1c-2.3,2.2-3.9,5-4.8,8.1c-1,3.3-1.1,7-0.5,11c1.8,11,18.6,19.1,20.5,19.9c0,0,75.1,34.6,75.1,34.6
		c11.8,5.4,38.2,17.8,46.3,21.7c7.6,3.6,13.9,8.1,14,8.1l0.1,0.1l0.1,0.1c0.2,0.1,24.2,14.6,39.4,22.3c6.1,3.1,9.4,4.5,9.5,4.6
		c0.1,0,31,12.4,32.2,12.8c6,2.7,7.7,5.3,6.4,9.9c0,0,0,0,0,0.1c-1.6,5.4-10.4,4.4-10.9,4.3c-0.9-0.2-14.7-3-21.2-4.5
		c-7.3-1.7-12.1,1.5-13.7,3.7l-0.1,0.2l-0.1,0.2c0,0-2.9,4.9-6.5,10.3c-4.7,7.1-11.2,4.2-12.7,3.4c-3.5-2.4-50-34.1-55.5-37.9
		c-6.1-4.2-11.9-2.9-14.5-1.5c0,0-5.3,2.9-10.1,4.9c-2.5,1-6-0.7-7.1-1.6c-0.3-0.3-45.9-37.9-45.9-37.9c-2.5-2-2.4-5.6-2.4-5.6
		c0,0,0.3-17.8,0.3-17.8c0-3.4-1.2-7.1-3.5-11.2c-3.4-6-12.7-10.1-13.8-10.5l-0.1,0l-23.3-8.3c-3.9-1.3-14.1-6.3-15.7-13.5
		c-1-4.7-0.4-9,0.5-12.2c1.1-3.6,2.5-5.8,2.5-5.9l0.1-0.1c0,0,9.7-16,9.9-16.4c5.8-8.1,17-5.3,17.4-5.2l0.2,0
		c0,0,50.5,10.5,50.6,10.6C209.5,41.1,210.2,44.4,210.3,45.2L210.3,45.2z"/>
</g>
<g id="PUNTOS_INTERMEDIOS_Y_SEMAFORO">
	<path fill="#AC1737" d="M324.2,143.4c0.4,0.3,0.5,0.8,0.3,1.2l-17.7,27.9c-0.3,0.4-0.8,0.5-1.2,0.3c-0.4-0.3-0.5-0.8-0.3-1.2
		l17.7-27.9C323.2,143.3,323.7,143.1,324.2,143.4z"/>
	<path fill="#AC1737" d="M140.8,77.6c0.5,0.2,0.7,0.7,0.5,1.1l-11.7,30.9c-0.2,0.5-0.7,0.7-1.1,0.5c-0.5-0.2-0.7-0.7-0.5-1.1
		l11.7-30.9C139.8,77.7,140.3,77.4,140.8,77.6z"/>
	<path fill="#AC1737" d="M303.1,196.8c0.4,0.3,0.5,0.9,0.2,1.2l-20.4,26c-0.3,0.4-0.9,0.5-1.2,0.2c-0.4-0.3-0.5-0.9-0.2-1.2l20.4-26
		C302.2,196.6,302.8,196.5,303.1,196.8z"/>
	<path fill="#AC1737" d="M276.4,88.4c0.3,0.4,0.3,0.9-0.1,1.2l-19.5,17c-0.4,0.3-0.9,0.3-1.2-0.1c-0.3-0.4-0.3-0.9,0.1-1.2l19.5-17
		C275.5,88,276.1,88,276.4,88.4z"/>
	<g>
		<path fill="#AC1737" d="M264.4,94.2c0-4.2,3.4-7.7,7.6-7.7h5.1c4.2,0,7.7,3.4,7.7,7.7v5.1c0,4.2-3.4,7.6-7.7,7.6h-5.1
			c-4.2,0-7.6-3.4-7.6-7.6V94.2L264.4,94.2z"/>
		<g>
			<path fill="#FFFFFF" d="M270.1,93.1c0-0.5,0.4-0.8,0.9-0.8c0.5,0,0.9,0.3,0.9,0.8c0,0.5-0.4,0.8-0.9,0.8
				C270.5,93.9,270.1,93.5,270.1,93.1z M270.3,95h1.5v6.2h-1.5V95z"/>
			<path fill="#FFFFFF" d="M274.3,99.3c0.5,0.5,1.1,0.9,1.9,0.9c0.9,0,1.5-0.5,1.5-1.2c0-0.8-0.5-1.4-2.4-1.4v-1.1
				c1.6,0,2.1-0.5,2.1-1.3c0-0.7-0.5-1.1-1.2-1.1c-0.6,0-1.1,0.3-1.6,0.8l-0.8-0.9c0.7-0.6,1.5-1,2.4-1c1.5,0,2.6,0.8,2.6,2.1
				c0,0.9-0.5,1.5-1.4,1.9V97c1,0.3,1.7,0.9,1.7,2c0,1.5-1.3,2.3-2.8,2.3c-1.3,0-2.2-0.5-2.7-1.1L274.3,99.3z"/>
		</g>
	</g>
	<g>
		<path fill="#AC1737" d="M248,135.5c-0.4-0.2-0.6-0.8-0.4-1.2l12.1-22.2c0.2-0.4,0.7-0.5,1.1-0.3l15.5,8.5c0.4,0.2,0.6,0.8,0.4,1.2
			c-0.2,0.4-0.8,0.6-1.2,0.4l-14.4-7.9c-0.2-0.1-0.4,0-0.5,0.1l-11.5,21.1C249,135.5,248.4,135.7,248,135.5z"/>
		<path fill="#AC1737" d="M278.6,122.9c0.4,0,0.7-0.5,0.4-0.8l-1.9-3.1l-1.9-3.1c-0.2-0.4-0.7-0.3-0.9,0l-1.8,3.2l-1.8,3.2
			c-0.2,0.4,0.1,0.8,0.5,0.8l3.7-0.1L278.6,122.9z"/>
	</g>
	<g>
		<path fill="#7B7C7D" d="M219.1,151.7c0-4.2,3.4-7.6,7.6-7.6h45.8c4.2,0,7.6,3.4,7.6,7.6v8.3c0,4.2-3.4,7.6-7.6,7.6h-45.8
			c-4.2,0-7.6-3.4-7.6-7.6V151.7L219.1,151.7z"/>
		<g>
			<path fill="#FFFFFF" d="M268.1,165.4c-3.9,0-7.1-3.2-7.1-7.1v-4.8c0-3.9,3.2-7.1,7.1-7.1h2.7c3.9,0,7.1,3.2,7.1,7.1v4.8
				c0,3.9-3.2,7.1-7.1,7.1H268.1z"/>
			<path fill="#C7C6C5" d="M270.8,146.8c3.7,0,6.6,3,6.6,6.6v4.8c0,3.7-3,6.6-6.6,6.6h-2.7c-3.7,0-6.6-3-6.6-6.6v-4.8
				c0-3.7,3-6.6,6.6-6.6H270.8 M270.8,145.8h-2.7c-4.2,0-7.6,3.4-7.6,7.6v4.8c0,4.2,3.4,7.6,7.6,7.6h2.7c4.2,0,7.6-3.4,7.6-7.6v-4.8
				C278.4,149.2,275,145.8,270.8,145.8L270.8,145.8z"/>
		</g>
		<g>
			<defs>
				<path id="SVGID_7_" d="M260.4,153.4c0-4.2,3.4-7.6,7.6-7.6h2.7c4.2,0,7.6,3.4,7.6,7.6v4.8c0,4.2-3.4,7.6-7.6,7.6h-2.7
					c-4.2,0-7.6-3.4-7.6-7.6V153.4L260.4,153.4z"/>
			</defs>
			<clipPath id="SVGID_2_">
				<use xlink:href="#SVGID_7_"  overflow="visible"/>
			</clipPath>
			<g clip-path="url(#SVGID_2_)">
				<rect x="255.1" y="147.4" fill="#1E1E1C" width="4.2" height="4.2"/>
				<rect x="259.3" y="151.6" fill="#1E1E1C" width="4.2" height="4.2"/>
				<rect x="263.5" y="147.4" fill="#1E1E1C" width="4.2" height="4.2"/>
				<rect x="267.6" y="151.6" fill="#1E1E1C" width="4.2" height="4.2"/>
				<rect x="255.1" y="155.8" fill="#1E1E1C" width="4.2" height="4.2"/>
				<rect x="259.3" y="159.9" fill="#1E1E1C" width="4.2" height="4.2"/>
				<rect x="263.5" y="155.8" fill="#1E1E1C" width="4.2" height="4.2"/>
				<rect x="267.6" y="159.9" fill="#1E1E1C" width="4.2" height="4.2"/>
				<rect x="271.8" y="147.4" fill="#1E1E1C" width="4.2" height="4.2"/>
				<rect x="276" y="151.6" fill="#1E1E1C" width="4.2" height="4.2"/>
				<rect x="271.8" y="155.8" fill="#1E1E1C" width="4.2" height="4.2"/>
				<rect x="276" y="159.9" fill="#1E1E1C" width="4.2" height="4.2"/>
			</g>
		</g>
		<g>
			<path fill="#C01724" d="M228.5,165.4c-3.9,0-7.1-3.2-7.1-7.1v-4.8c0-3.9,3.2-7.1,7.1-7.1h2.7c3.9,0,7.1,3.2,7.1,7.1v4.8
				c0,3.9-3.2,7.1-7.1,7.1H228.5z"/>
			<path fill="#AA1920" d="M231.2,146.8c3.7,0,6.6,3,6.6,6.6v4.8c0,3.7-3,6.6-6.6,6.6h-2.7c-3.7,0-6.6-3-6.6-6.6v-4.8
				c0-3.7,3-6.6,6.6-6.6H231.2 M231.2,145.8h-2.7c-4.2,0-7.6,3.4-7.6,7.6v4.8c0,4.2,3.4,7.6,7.6,7.6h2.7c4.2,0,7.6-3.4,7.6-7.6v-4.8
				C238.9,149.2,235.5,145.8,231.2,145.8L231.2,145.8z"/>
		</g>
		<g>
			<path fill="#009548" d="M248.3,165.4c-3.9,0-7.1-3.2-7.1-7.1v-4.8c0-3.9,3.2-7.1,7.1-7.1h2.7c3.9,0,7.1,3.2,7.1,7.1v4.8
				c0,3.9-3.2,7.1-7.1,7.1H248.3z"/>
			<path fill="#006139" d="M251,146.8c3.7,0,6.6,3,6.6,6.6v4.8c0,3.7-3,6.6-6.6,6.6h-2.7c-3.7,0-6.6-3-6.6-6.6v-4.8
				c0-3.7,3-6.6,6.6-6.6H251 M251,145.8h-2.7c-4.2,0-7.6,3.4-7.6,7.6v4.8c0,4.2,3.4,7.6,7.6,7.6h2.7c4.2,0,7.6-3.4,7.6-7.6v-4.8
				C258.7,149.2,255.2,145.8,251,145.8L251,145.8z"/>
		</g>
		<g>
			<path fill="#C7C6C5" d="M270.8,146.8c3.7,0,6.6,3,6.6,6.6v4.8c0,3.7-3,6.6-6.6,6.6h-2.7c-3.7,0-6.6-3-6.6-6.6v-4.8
				c0-3.7,3-6.6,6.6-6.6H270.8 M270.8,145.8h-2.7c-4.2,0-7.6,3.4-7.6,7.6v4.8c0,4.2,3.4,7.6,7.6,7.6h2.7c4.2,0,7.6-3.4,7.6-7.6v-4.8
				C278.4,149.2,275,145.8,270.8,145.8L270.8,145.8z"/>
		</g>
	</g>
	<g>
		<path fill="#AC1737" d="M275.3,219.1c0-4.2,3.4-7.6,7.7-7.6h3.9c4.2,0,7.7,3.4,7.7,7.6v5.5c0,4.2-3.4,7.7-7.7,7.7H283
			c-4.2,0-7.7-3.4-7.7-7.7V219.1L275.3,219.1z"/>
		<g>
			<path fill="#FFFFFF" d="M280.4,218.2c0-0.5,0.4-0.8,0.9-0.8c0.5,0,0.9,0.3,0.9,0.8c0,0.5-0.4,0.8-0.9,0.8
				C280.8,219,280.4,218.7,280.4,218.2z M280.5,220.1h1.5v6.2h-1.5V220.1z"/>
			<path fill="#FFFFFF" d="M284.5,225.1h1.8v-5.3h-1.5v-0.9c0.8-0.2,1.4-0.4,1.9-0.7h1.1v6.9h1.6v1.2h-4.9V225.1z"/>
		</g>
	</g>
	<g>
		<path fill="#AC1737" d="M123.9,101.7c0-4.2,3.4-7.7,7.6-7.7h5c4.2,0,7.7,3.4,7.7,7.7v5.1c0,4.2-3.4,7.7-7.7,7.7h-5
			c-4.2,0-7.6-3.4-7.6-7.7V101.7L123.9,101.7z"/>
		<g>
			<path fill="#FFFFFF" d="M129.5,100.6c0-0.5,0.4-0.8,0.9-0.8c0.5,0,0.9,0.3,0.9,0.8c0,0.5-0.4,0.8-0.9,0.8
				C129.9,101.4,129.5,101.1,129.5,100.6z M129.6,102.5h1.5v6.2h-1.5V102.5z"/>
			<path fill="#FFFFFF" d="M133.2,107.9c2.2-2.2,3.7-3.6,3.7-4.8c0-0.9-0.5-1.4-1.3-1.4c-0.6,0-1.1,0.4-1.6,0.9l-0.8-0.8
				c0.7-0.8,1.5-1.2,2.6-1.2c1.5,0,2.6,1,2.6,2.5c0,1.4-1.3,2.9-2.9,4.6c0.4,0,1-0.1,1.3-0.1h2v1.2h-5.5V107.9z"/>
		</g>
	</g>
	<g>
		<path fill="#AC1737" d="M299.7,169.1c0-4.2,3.4-7.6,7.6-7.6h2.7c4.2,0,7.6,3.4,7.6,7.6v4.8c0,4.2-3.4,7.6-7.6,7.6h-2.7
			c-4.2,0-7.6-3.4-7.6-7.6V169.1L299.7,169.1z"/>
		<g>
			<path fill="#FFFFFF" d="M306.6,173.6c0.6,0.6,1.4,0.9,2.2,0.9c0.9,0,1.4-0.4,1.4-1.1c0-0.7-0.5-0.9-1.3-1.2l-1.1-0.5
				c-0.8-0.3-1.7-1-1.7-2.2c0-1.3,1.2-2.3,2.8-2.3c1,0,1.9,0.4,2.6,1.1l-0.8,0.9c-0.5-0.4-1.1-0.7-1.8-0.7c-0.8,0-1.3,0.4-1.3,1
				c0,0.6,0.6,0.9,1.3,1.2l1.1,0.5c1,0.4,1.7,1,1.7,2.2c0,1.3-1.1,2.5-3,2.5c-1.1,0-2.2-0.4-3-1.2L306.6,173.6z"/>
		</g>
	</g>
	<g>
		<path fill="#AC1737" d="M230.2,131.6c0-4.2,3.4-7.6,7.7-7.6h11.7c4.2,0,7.6,3.4,7.6,7.6v4.8c0,4.2-3.4,7.6-7.6,7.6h-11.7
			c-4.2,0-7.7-3.4-7.7-7.6V131.6L230.2,131.6z"/>
		<g>
			<path fill="#FFFFFF" d="M237.7,129.8h5v1.2h-3.5v2.3h3v1.2h-3v3.5h-1.5V129.8z"/>
			<path fill="#FFFFFF" d="M244.7,129.8h1.5v7.1h3.4v1.2h-4.9V129.8z"/>
		</g>
	</g>
</g>
<g id="textos_y_numeros">
	<g>
		<g>
			<path fill="#7B7C7D" d="M406.6,197.8c0.7,0.6,1.6,1,2.4,1c1,0,1.6-0.5,1.6-1.2c0-0.8-0.6-1-1.4-1.4l-1.3-0.6
				c-0.9-0.4-1.9-1.1-1.9-2.5c0-1.5,1.3-2.6,3.1-2.6c1.1,0,2.1,0.5,2.9,1.2l-0.8,1c-0.6-0.5-1.2-0.8-2-0.8c-0.9,0-1.4,0.4-1.4,1.1
				c0,0.7,0.7,1,1.5,1.3l1.2,0.5c1.1,0.5,1.9,1.2,1.9,2.5c0,1.5-1.2,2.7-3.3,2.7c-1.2,0-2.4-0.5-3.3-1.4L406.6,197.8z"/>
			<path fill="#7B7C7D" d="M417.5,195.6c0-0.7-0.3-1.4-1.3-1.4c-0.7,0-1.3,0.3-1.9,0.7l-0.6-1.1c0.8-0.5,1.7-0.9,2.8-0.9
				c1.7,0,2.6,1.1,2.6,3v4.1h-1.3l-0.1-0.8h0c-0.6,0.5-1.3,0.9-2.1,0.9c-1.2,0-2.1-0.8-2.1-2C413.5,196.7,414.7,195.9,417.5,195.6z
				 M416,199c0.6,0,1-0.3,1.5-0.8v-1.6c-1.9,0.2-2.5,0.7-2.5,1.4C415,198.7,415.5,199,416,199z"/>
			<path fill="#7B7C7D" d="M421.1,193.1h1.3l0.1,0.9h0.1c0.6-0.6,1.3-1.1,2.3-1.1c1.5,0,2.1,1,2.1,2.8v4.3h-1.6v-4.1
				c0-1.1-0.3-1.6-1.1-1.6c-0.6,0-1,0.3-1.6,0.9v4.8h-1.6V193.1z"/>
			<path fill="#7B7C7D" d="M432.1,190.8h2.5c2.8,0,4.5,1.5,4.5,4.6c0,3.1-1.7,4.7-4.4,4.7h-2.5V190.8z M434.4,198.7
				c1.9,0,2.9-1.1,2.9-3.3c0-2.3-1.1-3.2-2.9-3.2h-0.7v6.6H434.4z"/>
			<path fill="#7B7C7D" d="M443.6,193c1.7,0,3.3,1.3,3.3,3.6c0,2.3-1.6,3.6-3.3,3.6c-1.7,0-3.3-1.3-3.3-3.6
				C440.3,194.3,441.8,193,443.6,193z M443.6,198.9c1,0,1.6-0.9,1.6-2.3c0-1.4-0.6-2.3-1.6-2.3c-1,0-1.6,0.9-1.6,2.3
				C441.9,198,442.6,198.9,443.6,198.9z"/>
			<path fill="#7B7C7D" d="M448.5,193.1h1.3l0.1,0.9h0.1c0.6-0.6,1.3-1.1,2.3-1.1c1.5,0,2.1,1,2.1,2.8v4.3h-1.6v-4.1
				c0-1.1-0.3-1.6-1.1-1.6c-0.6,0-1,0.3-1.6,0.9v4.8h-1.6V193.1z"/>
			<path fill="#7B7C7D" d="M460.2,195.6c0-0.7-0.3-1.4-1.3-1.4c-0.7,0-1.3,0.3-1.9,0.7l-0.6-1.1c0.8-0.5,1.7-0.9,2.8-0.9
				c1.7,0,2.6,1.1,2.6,3v4.1h-1.3l-0.1-0.8h0c-0.6,0.5-1.3,0.9-2.1,0.9c-1.2,0-2.1-0.8-2.1-2C456.1,196.7,457.3,195.9,460.2,195.6z
				 M458.7,199c0.6,0,1-0.3,1.5-0.8v-1.6c-1.9,0.2-2.5,0.7-2.5,1.4C457.7,198.7,458.1,199,458.7,199z"/>
			<path fill="#7B7C7D" d="M464,194.4h-1v-1.2l1.1-0.1l0.2-1.9h1.4v1.9h1.8v1.3h-1.8v3.3c0,0.8,0.3,1.2,1,1.2c0.2,0,0.5-0.1,0.7-0.2
				l0.3,1.2c-0.4,0.1-0.9,0.3-1.4,0.3c-1.6,0-2.2-1-2.2-2.5V194.4z"/>
			<path fill="#7B7C7D" d="M471.7,193c1.7,0,3.3,1.3,3.3,3.6c0,2.3-1.6,3.6-3.3,3.6c-1.7,0-3.3-1.3-3.3-3.6
				C468.4,194.3,470,193,471.7,193z M471.7,198.9c1,0,1.6-0.9,1.6-2.3c0-1.4-0.6-2.3-1.6-2.3s-1.6,0.9-1.6,2.3
				C470.1,198,470.7,198.9,471.7,198.9z"/>
		</g>
	</g>
	<g>
		<g>
			<path fill="#7B7C7D" d="M318.8,236.8h3.1c2,0,3.5,0.7,3.5,2.9c0,2-1.5,3-3.5,3h-1.5v3.4h-1.6V236.8z M321.7,241.3
				c1.4,0,2-0.6,2-1.7c0-1.2-0.7-1.5-2-1.5h-1.3v3.2H321.7z"/>
			<path fill="#7B7C7D" d="M329.8,238.9c1.7,0,3.3,1.3,3.3,3.6c0,2.3-1.6,3.6-3.3,3.6c-1.7,0-3.3-1.3-3.3-3.6
				C326.5,240.2,328,238.9,329.8,238.9z M329.8,244.8c1,0,1.6-0.9,1.6-2.3c0-1.4-0.6-2.3-1.6-2.3c-1,0-1.6,0.9-1.6,2.3
				C328.1,243.9,328.8,244.8,329.8,244.8z"/>
			<path fill="#7B7C7D" d="M335.2,245.8L335.2,245.8c-0.4-0.3-0.6-0.6-0.6-1.2c0-0.5,0.4-1,0.8-1.3v-0.1c-0.5-0.4-0.9-1-0.9-1.8
				c0-1.6,1.3-2.5,2.7-2.5c0.4,0,0.7,0.1,1,0.2h2.5v1.2h-1.3c0.2,0.3,0.4,0.7,0.4,1.2c0,1.5-1.2,2.4-2.6,2.4c-0.3,0-0.6-0.1-0.9-0.2
				c-0.2,0.2-0.3,0.4-0.3,0.7c0,0.4,0.3,0.6,1.1,0.6h1.2c1.7,0,2.5,0.5,2.5,1.7c0,1.4-1.4,2.4-3.7,2.4c-1.7,0-2.9-0.6-2.9-1.8
				C334.2,246.7,334.6,246.2,335.2,245.8z M337.3,248c1.1,0,1.9-0.5,1.9-1.1c0-0.5-0.4-0.7-1.2-0.7h-0.9c-0.4,0-0.7,0-0.9-0.1
				c-0.4,0.3-0.5,0.6-0.5,0.9C335.6,247.6,336.2,248,337.3,248z M338.4,241.4c0-0.9-0.5-1.4-1.2-1.4c-0.7,0-1.2,0.5-1.2,1.4
				c0,0.9,0.5,1.4,1.2,1.4C337.8,242.8,338.4,242.3,338.4,241.4z"/>
			<path fill="#7B7C7D" d="M342.5,245.8L342.5,245.8c-0.4-0.3-0.6-0.6-0.6-1.2c0-0.5,0.4-1,0.8-1.3v-0.1c-0.5-0.4-0.9-1-0.9-1.8
				c0-1.6,1.3-2.5,2.7-2.5c0.4,0,0.7,0.1,1,0.2h2.5v1.2h-1.3c0.2,0.3,0.4,0.7,0.4,1.2c0,1.5-1.2,2.4-2.6,2.4c-0.3,0-0.6-0.1-0.9-0.2
				c-0.2,0.2-0.3,0.4-0.3,0.7c0,0.4,0.3,0.6,1.1,0.6h1.2c1.7,0,2.5,0.5,2.5,1.7c0,1.4-1.4,2.4-3.7,2.4c-1.7,0-2.9-0.6-2.9-1.8
				C341.6,246.7,341.9,246.2,342.5,245.8z M344.7,248c1.1,0,1.9-0.5,1.9-1.1c0-0.5-0.4-0.7-1.2-0.7h-0.9c-0.4,0-0.7,0-0.9-0.1
				c-0.4,0.3-0.5,0.6-0.5,0.9C342.9,247.6,343.6,248,344.7,248z M345.7,241.4c0-0.9-0.5-1.4-1.2-1.4c-0.7,0-1.2,0.5-1.2,1.4
				c0,0.9,0.5,1.4,1.2,1.4C345.2,242.8,345.7,242.3,345.7,241.4z"/>
			<path fill="#7B7C7D" d="M349.2,236.9c0-0.6,0.4-0.9,1-0.9c0.6,0,1,0.4,1,0.9c0,0.5-0.4,0.9-1,0.9
				C349.6,237.9,349.2,237.5,349.2,236.9z M349.4,239.1h1.6v6.9h-1.6V239.1z"/>
			<path fill="#7B7C7D" d="M355.9,238.9c1.7,0,3.3,1.3,3.3,3.6c0,2.3-1.6,3.6-3.3,3.6c-1.7,0-3.3-1.3-3.3-3.6
				C352.6,240.2,354.2,238.9,355.9,238.9z M355.9,244.8c1,0,1.6-0.9,1.6-2.3c0-1.4-0.6-2.3-1.6-2.3c-1,0-1.6,0.9-1.6,2.3
				C354.3,243.9,354.9,244.8,355.9,244.8z"/>
			<path fill="#7B7C7D" d="M364.1,243.7c0.7,0.6,1.6,1,2.4,1c1,0,1.6-0.5,1.6-1.2c0-0.8-0.6-1-1.4-1.4l-1.3-0.6
				c-0.9-0.4-1.9-1.1-1.9-2.5c0-1.5,1.3-2.6,3.1-2.6c1.1,0,2.1,0.5,2.9,1.2l-0.8,1c-0.6-0.5-1.2-0.8-2-0.8c-0.9,0-1.4,0.4-1.4,1.1
				c0,0.7,0.7,1,1.5,1.3l1.2,0.5c1.1,0.5,1.9,1.2,1.9,2.5c0,1.5-1.2,2.7-3.3,2.7c-1.2,0-2.4-0.5-3.3-1.4L364.1,243.7z"/>
			<path fill="#7B7C7D" d="M374.1,238.9c1.9,0,2.9,1.4,2.9,3.3c0,0.3,0,0.6-0.1,0.8h-4.4c0.1,1.3,0.9,2,2,2c0.6,0,1.1-0.2,1.6-0.5
				l0.5,1c-0.7,0.4-1.5,0.7-2.4,0.7c-1.9,0-3.4-1.3-3.4-3.6C370.9,240.3,372.5,238.9,374.1,238.9z M375.5,241.9
				c0-1.1-0.5-1.8-1.4-1.8c-0.8,0-1.5,0.6-1.7,1.8H375.5z"/>
			<path fill="#7B7C7D" d="M381.5,238.9c0.9,0,1.6,0.4,2,0.8l-0.8,1c-0.4-0.3-0.7-0.5-1.2-0.5c-1.1,0-1.9,0.9-1.9,2.3
				c0,1.4,0.8,2.3,1.8,2.3c0.6,0,1-0.3,1.4-0.6l0.7,1c-0.6,0.6-1.5,0.9-2.3,0.9c-1.9,0-3.3-1.3-3.3-3.6
				C378,240.2,379.7,238.9,381.5,238.9z"/>
			<path fill="#7B7C7D" d="M388,238.9c0.9,0,1.6,0.4,2,0.8l-0.8,1c-0.4-0.3-0.7-0.5-1.2-0.5c-1.1,0-1.9,0.9-1.9,2.3
				c0,1.4,0.8,2.3,1.8,2.3c0.6,0,1-0.3,1.4-0.6l0.7,1c-0.6,0.6-1.5,0.9-2.3,0.9c-1.9,0-3.3-1.3-3.3-3.6
				C384.6,240.2,386.2,238.9,388,238.9z"/>
			<path fill="#7B7C7D" d="M394.4,238.9c1.7,0,3.3,1.3,3.3,3.6c0,2.3-1.6,3.6-3.3,3.6c-1.7,0-3.3-1.3-3.3-3.6
				C391.1,240.2,392.6,238.9,394.4,238.9z M394.4,244.8c1,0,1.6-0.9,1.6-2.3c0-1.4-0.6-2.3-1.6-2.3c-1,0-1.6,0.9-1.6,2.3
				C392.7,243.9,393.4,244.8,394.4,244.8z"/>
		</g>
	</g>
	<g>
		<g>
			<path fill="#7B7C7D" d="M344.8,217h1.6v7.8h3.8v1.4h-5.5V217z"/>
			<path fill="#7B7C7D" d="M351.7,219.3h1.6v4.1c0,1.1,0.3,1.6,1.1,1.6c0.6,0,1-0.3,1.5-1v-4.7h1.6v6.9h-1.3l-0.1-1h0
				c-0.6,0.7-1.3,1.2-2.2,1.2c-1.5,0-2.1-1-2.1-2.8V219.3z"/>
			<path fill="#7B7C7D" d="M362.6,219.2c0.9,0,1.6,0.4,2,0.8l-0.8,1c-0.4-0.3-0.7-0.5-1.2-0.5c-1.1,0-1.9,0.9-1.9,2.3
				c0,1.4,0.8,2.3,1.8,2.3c0.6,0,1-0.3,1.4-0.6l0.7,1c-0.6,0.6-1.5,0.9-2.3,0.9c-1.9,0-3.3-1.3-3.3-3.6
				C359.1,220.5,360.8,219.2,362.6,219.2z"/>
			<path fill="#7B7C7D" d="M368.9,219.2c1.7,0,3.3,1.3,3.3,3.6c0,2.3-1.6,3.6-3.3,3.6c-1.7,0-3.3-1.3-3.3-3.6
				C365.6,220.5,367.2,219.2,368.9,219.2z M368.9,225.1c1,0,1.6-0.9,1.6-2.3c0-1.4-0.6-2.3-1.6-2.3c-1,0-1.6,0.9-1.6,2.3
				C367.3,224.2,367.9,225.1,368.9,225.1z"/>
		</g>
	</g>
	<g>
		<g>
			<path fill="#7B7C7D" d="M326.9,101.5c1.1,0,2,0.6,2.6,1.2l-0.9,1c-0.5-0.5-1-0.8-1.7-0.8c-1.5,0-2.6,1.3-2.6,3.3
				c0,2.1,1,3.4,2.5,3.4c0.8,0,1.4-0.3,1.9-0.9l0.9,1c-0.7,0.9-1.7,1.3-2.9,1.3c-2.3,0-4.2-1.7-4.2-4.8
				C322.7,103.3,324.6,101.5,326.9,101.5z"/>
			<path fill="#7B7C7D" d="M334,103.8c1.7,0,3.3,1.3,3.3,3.6c0,2.3-1.6,3.6-3.3,3.6c-1.7,0-3.3-1.3-3.3-3.6
				C330.7,105.2,332.3,103.8,334,103.8z M334,109.8c1,0,1.6-0.9,1.6-2.3c0-1.4-0.6-2.3-1.6-2.3c-1,0-1.6,0.9-1.6,2.3
				C332.4,108.9,333,109.8,334,109.8z"/>
			<path fill="#7B7C7D" d="M338.9,104h1.3l0.1,1.2h0.1c0.5-0.9,1.2-1.4,2-1.4c0.4,0,0.6,0,0.8,0.1l-0.3,1.4
				c-0.2-0.1-0.4-0.1-0.7-0.1c-0.6,0-1.2,0.4-1.6,1.4v4.2h-1.6V104z"/>
			<path fill="#7B7C7D" d="M344.1,104h1.3l0.1,1.2h0.1c0.5-0.9,1.2-1.4,2-1.4c0.4,0,0.6,0,0.8,0.1l-0.3,1.4
				c-0.2-0.1-0.4-0.1-0.7-0.1c-0.6,0-1.2,0.4-1.6,1.4v4.2h-1.6V104z"/>
			<path fill="#7B7C7D" d="M352.1,103.8c1.9,0,2.9,1.4,2.9,3.3c0,0.3,0,0.6-0.1,0.8h-4.4c0.1,1.3,0.9,2,2,2c0.6,0,1.1-0.2,1.6-0.5
				l0.5,1c-0.7,0.4-1.5,0.7-2.4,0.7c-1.9,0-3.4-1.3-3.4-3.6C349,105.2,350.5,103.8,352.1,103.8z M353.6,106.9c0-1.1-0.5-1.8-1.4-1.8
				c-0.8,0-1.5,0.6-1.7,1.8H353.6z"/>
			<path fill="#7B7C7D" d="M356.6,104h1.3l0.1,0.9h0.1c0.6-0.6,1.3-1.1,2.3-1.1c1.5,0,2.1,1,2.1,2.8v4.3h-1.6v-4.1
				c0-1.1-0.3-1.6-1.1-1.6c-0.6,0-1,0.3-1.6,0.9v4.8h-1.6V104z"/>
			<path fill="#7B7C7D" d="M364.7,105.3h-1v-1.2l1.1-0.1l0.2-1.9h1.4v1.9h1.8v1.3h-1.8v3.3c0,0.8,0.3,1.2,1,1.2
				c0.2,0,0.5-0.1,0.7-0.2l0.3,1.2c-0.4,0.1-0.9,0.3-1.4,0.3c-1.6,0-2.2-1-2.2-2.5V105.3z"/>
			<path fill="#7B7C7D" d="M373.3,106.5c0-0.7-0.3-1.4-1.3-1.4c-0.7,0-1.3,0.3-1.9,0.7l-0.6-1.1c0.8-0.5,1.7-0.9,2.8-0.9
				c1.7,0,2.6,1.1,2.6,3v4.1h-1.3l-0.1-0.8h0c-0.6,0.5-1.3,0.9-2.1,0.9c-1.2,0-2.1-0.8-2.1-2C369.3,107.6,370.5,106.8,373.3,106.5z
				 M371.8,109.8c0.6,0,1-0.3,1.5-0.8v-1.6c-1.9,0.2-2.5,0.7-2.5,1.4C370.8,109.6,371.3,109.8,371.8,109.8z"/>
			<path fill="#7B7C7D" d="M376.8,101.9c0-0.6,0.4-0.9,1-0.9c0.6,0,1,0.4,1,0.9c0,0.5-0.4,0.9-1,0.9
				C377.2,102.8,376.8,102.4,376.8,101.9z M376.9,104h1.6v6.9h-1.6V104z"/>
			<path fill="#7B7C7D" d="M383.5,103.8c1.7,0,3.3,1.3,3.3,3.6c0,2.3-1.6,3.6-3.3,3.6c-1.7,0-3.3-1.3-3.3-3.6
				C380.2,105.2,381.8,103.8,383.5,103.8z M383.5,109.8c1,0,1.6-0.9,1.6-2.3c0-1.4-0.6-2.3-1.6-2.3c-1,0-1.6,0.9-1.6,2.3
				C381.9,108.9,382.5,109.8,383.5,109.8z"/>
		</g>
	</g>
	<g>
		<g>
			<path fill="#7B7C7D" d="M395.4,198.7h2v-5.9h-1.7v-1c0.9-0.2,1.5-0.4,2.1-0.7h1.2v7.6h1.8v1.3h-5.4V198.7z"/>
		</g>
	</g>
	<g>
		<g>
			<path fill="#7B7C7D" d="M344.2,211.8c2.5-2.4,4.1-4,4.1-5.4c0-0.9-0.5-1.6-1.5-1.6c-0.7,0-1.3,0.5-1.8,1l-0.9-0.9
				c0.8-0.9,1.6-1.4,2.9-1.4c1.7,0,2.8,1.1,2.8,2.8c0,1.6-1.5,3.2-3.3,5.1c0.5,0,1.1-0.1,1.5-0.1h2.2v1.4h-6.1V211.8z"/>
		</g>
	</g>
	<g>
		<g>
			<path fill="#7B7C7D" d="M318.7,230.1c0.5,0.6,1.2,1,2.1,1c1,0,1.7-0.5,1.7-1.4c0-0.9-0.6-1.5-2.6-1.5V227c1.8,0,2.3-0.6,2.3-1.4
				c0-0.7-0.5-1.2-1.3-1.2c-0.7,0-1.3,0.3-1.8,0.8l-0.8-1c0.8-0.7,1.6-1.1,2.7-1.1c1.7,0,2.9,0.8,2.9,2.4c0,1-0.6,1.7-1.6,2.1v0.1
				c1.1,0.3,1.9,1,1.9,2.2c0,1.6-1.4,2.6-3.1,2.6c-1.5,0-2.4-0.6-3-1.3L318.7,230.1z"/>
		</g>
	</g>
	<g>
		<g>
			<path fill="#7B7C7D" d="M230.3,193.5c0.5,0.5,1.2,1,2.1,1c1,0,1.7-0.6,1.7-1.7c0-1.1-0.7-1.7-1.7-1.7c-0.6,0-0.9,0.2-1.4,0.5
				l-0.8-0.5l0.3-4.4h4.8v1.4h-3.4l-0.2,2.2c0.4-0.2,0.7-0.3,1.2-0.3c1.5,0,2.8,0.9,2.8,2.8c0,2-1.5,3.1-3.2,3.1
				c-1.5,0-2.4-0.6-3.1-1.2L230.3,193.5z"/>
		</g>
	</g>
	<g>
		<g>
			<path fill="#7B7C7D" d="M169.6,142.9c-0.3-0.4-0.9-0.7-1.4-0.7c-1.1,0-2,0.8-2.1,3.3c0.5-0.7,1.3-1.1,1.9-1.1
				c1.6,0,2.6,0.9,2.6,2.8c0,1.8-1.3,2.9-2.8,2.9c-1.8,0-3.3-1.4-3.3-4.4c0-3.5,1.7-4.9,3.5-4.9c1.1,0,1.9,0.5,2.4,1L169.6,142.9z
				 M169.1,147.3c0-1.1-0.5-1.6-1.4-1.6c-0.5,0-1.1,0.3-1.6,1c0.2,1.6,0.8,2.3,1.7,2.3C168.5,149,169.1,148.4,169.1,147.3z"/>
		</g>
	</g>
	<g>
		<g>
			<path fill="#7B7C7D" d="M166,108.4h-4.2V107h6v1c-2.1,2.6-2.5,4.5-2.6,8h-1.7C163.7,112.8,164.3,110.8,166,108.4z"/>
		</g>
	</g>
	<g>
		<g>
			<path fill="#7B7C7D" d="M110,78.4L110,78.4c-0.7-0.5-1.2-1.2-1.2-2.2c0-1.5,1.2-2.4,2.7-2.4c1.6,0,2.6,1,2.6,2.4
				c0,0.9-0.6,1.6-1.2,2.1v0.1c0.8,0.5,1.6,1.1,1.6,2.3c0,1.4-1.2,2.4-3,2.4c-1.8,0-3-1-3-2.5C108.4,79.6,109.2,78.8,110,78.4z
				 M111.5,82c0.9,0,1.5-0.5,1.5-1.3c0-1-0.9-1.3-2.2-1.8c-0.6,0.4-1,1-1,1.7C109.8,81.4,110.6,82,111.5,82z M112.8,76.4
				c0-0.8-0.5-1.4-1.3-1.4c-0.7,0-1.2,0.5-1.2,1.2c0,0.9,0.8,1.3,1.8,1.7C112.5,77.4,112.8,76.9,112.8,76.4z"/>
		</g>
	</g>
	<g>
		<g>
			<path fill="#7B7C7D" d="M133.7,16.5c0.3,0.4,0.9,0.7,1.4,0.7c1.1,0,2-0.8,2.1-3.3c-0.5,0.6-1.3,1-2,1c-1.5,0-2.6-0.9-2.6-2.8
				c0-1.8,1.3-2.9,2.8-2.9c1.8,0,3.2,1.4,3.2,4.4c0,3.5-1.7,4.9-3.5,4.9c-1.1,0-1.9-0.5-2.4-1L133.7,16.5z M137.3,12.7
				c-0.2-1.6-0.8-2.3-1.7-2.3c-0.7,0-1.3,0.6-1.3,1.7c0,1.1,0.5,1.6,1.4,1.6C136.2,13.7,136.8,13.4,137.3,12.7z"/>
		</g>
	</g>
	<g>
		<g>
			<path fill="#7B7C7D" d="M215.9,27.8h2v-5.9h-1.7v-1c0.9-0.2,1.5-0.4,2.1-0.7h1.2v7.6h1.8v1.3h-5.4V27.8z"/>
			<path fill="#7B7C7D" d="M222.7,24.6c0-3,1.2-4.6,3-4.6s3,1.6,3,4.6c0,3-1.2,4.7-3,4.7S222.7,27.6,222.7,24.6z M227.2,24.6
				c0-2.5-0.6-3.3-1.5-3.3c-0.9,0-1.5,0.8-1.5,3.3c0,2.5,0.6,3.4,1.5,3.4C226.6,28,227.2,27.1,227.2,24.6z"/>
		</g>
	</g>
	<g>
		<g>
			<path fill="#7B7C7D" d="M223.9,58.7h2v-5.9h-1.7v-1c0.9-0.2,1.5-0.4,2.1-0.7h1.2v7.6h1.8V60h-5.4V58.7z"/>
			<path fill="#7B7C7D" d="M231.1,58.7h2v-5.9h-1.7v-1c0.9-0.2,1.5-0.4,2.1-0.7h1.2v7.6h1.8V60h-5.4V58.7z"/>
		</g>
	</g>
	<g>
		<g>
			<path fill="#7B7C7D" d="M305.1,109.2h2v-5.9h-1.7v-1c0.9-0.2,1.5-0.4,2.1-0.7h1.2v7.6h1.8v1.3h-5.4V109.2z"/>
			<path fill="#7B7C7D" d="M311.8,109.6c2.5-2.4,4.1-4,4.1-5.4c0-0.9-0.5-1.6-1.5-1.6c-0.7,0-1.3,0.5-1.8,1l-0.9-0.9
				c0.8-0.9,1.6-1.4,2.9-1.4c1.7,0,2.8,1.1,2.8,2.8c0,1.6-1.5,3.2-3.3,5.1c0.5,0,1.1-0.1,1.5-0.1h2.2v1.4h-6.1V109.6z"/>
		</g>
	</g>
	<g>
		<g>
			<path fill="#7B7C7D" d="M149.4,55.3h2v-5.9h-1.7v-1c0.9-0.2,1.5-0.4,2.1-0.7h1.2v7.6h1.8v1.3h-5.4V55.3z"/>
			<path fill="#7B7C7D" d="M156.6,54.5c0.5,0.5,1.2,1,2.1,1c1,0,1.7-0.6,1.7-1.7c0-1.1-0.7-1.7-1.7-1.7c-0.6,0-0.9,0.2-1.4,0.5
				l-0.8-0.5l0.3-4.4h4.8v1.4h-3.4l-0.2,2.2c0.4-0.2,0.7-0.3,1.2-0.3c1.5,0,2.8,0.9,2.8,2.8c0,2-1.5,3.1-3.2,3.1
				c-1.5,0-2.4-0.6-3.1-1.2L156.6,54.5z"/>
		</g>
	</g>
	<g>
		<g>
			<path fill="#7B7C7D" d="M239.5,106.9h2V101h-1.7v-1c0.9-0.2,1.5-0.4,2.1-0.7h1.2v7.6h1.8v1.3h-5.4V106.9z"/>
			<path fill="#7B7C7D" d="M246.8,106c0.5,0.6,1.2,1,2.1,1c1,0,1.7-0.5,1.7-1.4c0-0.9-0.6-1.5-2.6-1.5V103c1.8,0,2.3-0.6,2.3-1.4
				c0-0.7-0.5-1.2-1.3-1.2c-0.7,0-1.3,0.3-1.8,0.8l-0.8-1c0.8-0.7,1.6-1.1,2.7-1.1c1.7,0,2.9,0.8,2.9,2.4c0,1-0.6,1.7-1.6,2.1v0.1
				c1.1,0.3,1.9,1,1.9,2.2c0,1.6-1.4,2.6-3.1,2.6c-1.5,0-2.4-0.6-3-1.3L246.8,106z"/>
		</g>
	</g>
	<g>
		<g>
			<path fill="#7B7C7D" d="M273.5,54.9h2V49h-1.7v-1c0.9-0.2,1.5-0.4,2.1-0.7h1.2v7.6h1.8v1.3h-5.4V54.9z"/>
			<path fill="#7B7C7D" d="M286.6,54h-1.1v2.3H284V54h-4v-1.1l3.6-5.6h1.9v5.4h1.1V54z M284,52.7v-2c0-0.5,0-1.3,0.1-1.9H284
				c-0.2,0.5-0.5,0.9-0.7,1.4l-1.6,2.5H284z"/>
		</g>
	</g>
	<g>
		<g>
			<path fill="#7B7C7D" d="M255.6,188.4h-1.1v2.3H253v-2.3h-4v-1.1l3.6-5.6h1.9v5.4h1.1V188.4z M253,187.2v-2c0-0.5,0-1.3,0.1-1.9
				H253c-0.2,0.5-0.5,0.9-0.7,1.4l-1.6,2.5H253z"/>
		</g>
	</g>
	<g>
		<g>
			<path fill="#7B7C7D" d="M224.8,38.7h3.1c2,0,3.5,0.7,3.5,2.9c0,2-1.5,3-3.5,3h-1.5v3.4h-1.6V38.7z M227.8,43.2c1.4,0,2-0.6,2-1.7
				c0-1.2-0.7-1.5-2-1.5h-1.3v3.2H227.8z"/>
			<path fill="#7B7C7D" d="M236.8,43.5c0-0.7-0.3-1.4-1.3-1.4c-0.7,0-1.3,0.3-1.9,0.7l-0.6-1.1c0.8-0.5,1.7-0.9,2.8-0.9
				c1.7,0,2.6,1.1,2.6,3v4.1h-1.3l-0.1-0.8h0c-0.6,0.5-1.3,0.9-2.1,0.9c-1.2,0-2.1-0.8-2.1-2C232.7,44.6,234,43.8,236.8,43.5z
				 M235.3,46.8c0.6,0,1-0.3,1.5-0.8v-1.6c-1.9,0.2-2.5,0.7-2.5,1.4C234.3,46.5,234.7,46.8,235.3,46.8z"/>
			<path fill="#7B7C7D" d="M240.4,37.9h1.6v8.3c0,0.4,0.2,0.5,0.4,0.5c0.1,0,0.1,0,0.3,0l0.2,1.2c-0.2,0.1-0.5,0.1-0.9,0.1
				c-1.2,0-1.6-0.7-1.6-1.9V37.9z"/>
			<path fill="#7B7C7D" d="M248,43.5c0-0.7-0.3-1.4-1.3-1.4c-0.7,0-1.3,0.3-1.9,0.7l-0.6-1.1c0.8-0.5,1.7-0.9,2.8-0.9
				c1.7,0,2.6,1.1,2.6,3v4.1h-1.3l-0.1-0.8h0c-0.6,0.5-1.3,0.9-2.1,0.9c-1.2,0-2.1-0.8-2.1-2C243.9,44.6,245.2,43.8,248,43.5z
				 M246.5,46.8c0.6,0,1-0.3,1.5-0.8v-1.6c-1.9,0.2-2.5,0.7-2.5,1.4C245.5,46.5,245.9,46.8,246.5,46.8z"/>
			<path fill="#7B7C7D" d="M252.1,47.7L252.1,47.7c-0.4-0.3-0.6-0.6-0.6-1.2c0-0.5,0.4-1,0.8-1.3v-0.1c-0.5-0.4-0.9-1-0.9-1.8
				c0-1.6,1.3-2.5,2.7-2.5c0.4,0,0.7,0.1,1,0.2h2.5v1.2h-1.3c0.2,0.3,0.4,0.7,0.4,1.2c0,1.5-1.2,2.4-2.6,2.4c-0.3,0-0.6-0.1-0.9-0.2
				c-0.2,0.2-0.3,0.4-0.3,0.7c0,0.4,0.3,0.6,1.1,0.6h1.2c1.7,0,2.5,0.5,2.5,1.7c0,1.4-1.4,2.4-3.7,2.4c-1.7,0-2.9-0.6-2.9-1.8
				C251.1,48.6,251.5,48.1,252.1,47.7z M254.3,49.9c1.1,0,1.9-0.5,1.9-1.1c0-0.5-0.4-0.7-1.2-0.7H254c-0.4,0-0.7,0-0.9-0.1
				c-0.4,0.3-0.5,0.6-0.5,0.9C252.5,49.5,253.2,49.9,254.3,49.9z M255.3,43.3c0-0.9-0.5-1.4-1.2-1.4s-1.2,0.5-1.2,1.4
				c0,0.9,0.5,1.4,1.2,1.4C254.8,44.7,255.3,44.2,255.3,43.3z"/>
			<path fill="#7B7C7D" d="M258.7,38.8c0-0.6,0.4-0.9,1-0.9c0.6,0,1,0.4,1,0.9c0,0.5-0.4,0.9-1,0.9
				C259.2,39.8,258.7,39.4,258.7,38.8z M258.9,41h1.6v6.9h-1.6V41z"/>
			<path fill="#7B7C7D" d="M265.5,40.8c1.7,0,3.3,1.3,3.3,3.6c0,2.3-1.6,3.6-3.3,3.6c-1.7,0-3.3-1.3-3.3-3.6
				C262.2,42.1,263.7,40.8,265.5,40.8z M265.5,46.7c1,0,1.6-0.9,1.6-2.3c0-1.4-0.6-2.3-1.6-2.3c-1,0-1.6,0.9-1.6,2.3
				C263.8,45.8,264.4,46.7,265.5,46.7z"/>
		</g>
	</g>
	<g>
		<g>
			<path fill="#7B7C7D" d="M233,26.8c0.7,0.6,1.6,1,2.4,1c1,0,1.6-0.5,1.6-1.2c0-0.8-0.6-1-1.4-1.4l-1.3-0.6
				c-0.9-0.4-1.9-1.1-1.9-2.5c0-1.5,1.3-2.6,3.1-2.6c1.1,0,2.1,0.5,2.9,1.2l-0.8,1c-0.6-0.5-1.2-0.8-2-0.8c-0.9,0-1.4,0.4-1.4,1.1
				c0,0.7,0.7,1,1.5,1.3l1.2,0.5c1.1,0.5,1.9,1.2,1.9,2.5c0,1.5-1.2,2.7-3.3,2.7c-1.2,0-2.4-0.5-3.3-1.4L233,26.8z"/>
			<path fill="#7B7C7D" d="M243.2,22c0.9,0,1.6,0.4,2,0.8l-0.8,1c-0.4-0.3-0.7-0.5-1.2-0.5c-1.1,0-1.9,0.9-1.9,2.3
				c0,1.4,0.8,2.3,1.8,2.3c0.6,0,1-0.3,1.4-0.6l0.7,1c-0.6,0.6-1.5,0.9-2.3,0.9c-1.9,0-3.3-1.3-3.3-3.6
				C239.7,23.4,241.3,22,243.2,22z"/>
			<path fill="#7B7C7D" d="M250.5,24.7c0-0.7-0.3-1.4-1.3-1.4c-0.7,0-1.3,0.3-1.9,0.7l-0.6-1.1c0.8-0.5,1.7-0.9,2.8-0.9
				c1.7,0,2.6,1.1,2.6,3v4.1h-1.3l-0.1-0.8h0c-0.6,0.5-1.3,0.9-2.1,0.9c-1.2,0-2.1-0.8-2.1-2C246.4,25.8,247.6,25,250.5,24.7z
				 M249,28c0.6,0,1-0.3,1.5-0.8v-1.6c-1.9,0.2-2.5,0.7-2.5,1.4C248,27.8,248.4,28,249,28z"/>
			<path fill="#7B7C7D" d="M254.1,22.2h1.3l0.1,1.2h0.1c0.5-0.9,1.2-1.4,2-1.4c0.4,0,0.6,0,0.8,0.1l-0.3,1.4
				c-0.2-0.1-0.4-0.1-0.7-0.1c-0.6,0-1.2,0.4-1.6,1.4v4.2h-1.6V22.2z"/>
			<path fill="#7B7C7D" d="M260.9,29.7v2.2h-1.6v-9.7h1.3l0.1,0.7h0.1c0.6-0.5,1.3-0.9,2.1-0.9c1.7,0,2.7,1.4,2.7,3.5
				c0,2.4-1.4,3.7-3,3.7c-0.6,0-1.2-0.3-1.8-0.8L260.9,29.7z M262.3,28c0.9,0,1.6-0.8,1.6-2.4c0-1.4-0.5-2.2-1.5-2.2
				c-0.5,0-1,0.3-1.5,0.8v3.2C261.5,27.8,261.9,28,262.3,28z"/>
			<path fill="#7B7C7D" d="M270,22c1.9,0,2.9,1.4,2.9,3.3c0,0.3,0,0.6-0.1,0.8h-4.4c0.1,1.3,0.9,2,2,2c0.6,0,1.1-0.2,1.6-0.5l0.5,1
				c-0.7,0.4-1.5,0.7-2.4,0.7c-1.9,0-3.4-1.3-3.4-3.6C266.8,23.4,268.4,22,270,22z M271.5,25.1c0-1.1-0.5-1.8-1.4-1.8
				c-0.8,0-1.5,0.6-1.7,1.8H271.5z"/>
			<path fill="#7B7C7D" d="M274.4,22.2h1.3l0.1,1.2h0.1c0.5-0.9,1.2-1.4,2-1.4c0.4,0,0.6,0,0.8,0.1l-0.3,1.4
				c-0.2-0.1-0.4-0.1-0.7-0.1c-0.6,0-1.2,0.4-1.6,1.4v4.2h-1.6V22.2z"/>
			<path fill="#7B7C7D" d="M279.5,20.1c0-0.6,0.4-0.9,1-0.9c0.6,0,1,0.4,1,0.9c0,0.5-0.4,0.9-1,0.9C279.9,21,279.5,20.6,279.5,20.1z
				 M279.7,22.2h1.6v6.9h-1.6V22.2z"/>
			<path fill="#7B7C7D" d="M287.2,24.7c0-0.7-0.3-1.4-1.3-1.4c-0.7,0-1.3,0.3-1.9,0.7l-0.6-1.1c0.8-0.5,1.7-0.9,2.8-0.9
				c1.7,0,2.6,1.1,2.6,3v4.1h-1.3l-0.1-0.8h0c-0.6,0.5-1.3,0.9-2.1,0.9c-1.2,0-2.1-0.8-2.1-2C283.1,25.8,284.3,25,287.2,24.7z
				 M285.7,28c0.6,0,1-0.3,1.5-0.8v-1.6c-1.9,0.2-2.5,0.7-2.5,1.4C284.7,27.8,285.1,28,285.7,28z"/>
		</g>
	</g>
	<g>
		<g>
			<path fill="#7B7C7D" d="M32.7,80.5h-3.1L28.8,83h-1.7l3-9.2h1.9l3,9.2h-1.7L32.7,80.5z M32.3,79.2L32,78.1c-0.3-1-0.6-2-0.8-3
				h-0.1c-0.3,1-0.5,2.1-0.8,3l-0.3,1.1H32.3z"/>
			<path fill="#7B7C7D" d="M36.1,76.1h1.3l0.1,1.2h0.1c0.5-0.9,1.2-1.4,2-1.4c0.4,0,0.6,0,0.8,0.1l-0.3,1.4
				c-0.2-0.1-0.4-0.1-0.7-0.1c-0.6,0-1.2,0.4-1.6,1.4V83h-1.6V76.1z"/>
			<path fill="#7B7C7D" d="M41.3,76.1h1.3l0.1,1.2h0.1c0.5-0.9,1.2-1.4,2-1.4c0.4,0,0.6,0,0.8,0.1l-0.3,1.4
				c-0.2-0.1-0.4-0.1-0.7-0.1c-0.6,0-1.2,0.4-1.6,1.4V83h-1.6V76.1z"/>
			<path fill="#7B7C7D" d="M50.4,78.6c0-0.7-0.3-1.4-1.3-1.4c-0.7,0-1.3,0.3-1.9,0.7l-0.6-1.1c0.8-0.5,1.7-0.9,2.8-0.9
				c1.7,0,2.6,1.1,2.6,3V83h-1.3l-0.1-0.8h0c-0.6,0.5-1.3,0.9-2.1,0.9c-1.2,0-2.1-0.8-2.1-2C46.3,79.6,47.5,78.9,50.4,78.6z
				 M48.9,81.9c0.6,0,1-0.3,1.5-0.8v-1.6c-1.9,0.2-2.5,0.7-2.5,1.4C47.9,81.6,48.3,81.9,48.9,81.9z"/>
			<path fill="#7B7C7D" d="M54,73h1.6v2.6l0,1.2c0.6-0.5,1.3-0.9,2-0.9c1.7,0,2.7,1.4,2.7,3.5c0,2.4-1.4,3.8-3,3.8
				c-0.6,0-1.3-0.3-1.9-0.9h0L55.3,83H54V73z M57,81.8c0.9,0,1.6-0.8,1.6-2.4c0-1.4-0.5-2.2-1.5-2.2c-0.5,0-1,0.3-1.5,0.8v3.2
				C56.1,81.7,56.6,81.8,57,81.8z"/>
			<path fill="#7B7C7D" d="M61.9,73h1.6v2.6l0,1.2c0.6-0.5,1.3-0.9,2-0.9c1.7,0,2.7,1.4,2.7,3.5c0,2.4-1.4,3.8-3,3.8
				c-0.6,0-1.3-0.3-1.9-0.9h0L63.2,83h-1.3V73z M65,81.8c0.9,0,1.6-0.8,1.6-2.4c0-1.4-0.5-2.2-1.5-2.2c-0.5,0-1,0.3-1.5,0.8v3.2
				C64.1,81.7,64.6,81.8,65,81.8z"/>
			<path fill="#7B7C7D" d="M69.7,73.9c0-0.6,0.4-0.9,1-0.9s1,0.4,1,0.9c0,0.5-0.4,0.9-1,0.9S69.7,74.5,69.7,73.9z M69.9,76.1h1.6V83
				h-1.6V76.1z"/>
			<path fill="#7B7C7D" d="M77.4,78.6c0-0.7-0.3-1.4-1.3-1.4c-0.7,0-1.3,0.3-1.9,0.7l-0.6-1.1c0.8-0.5,1.7-0.9,2.8-0.9
				c1.7,0,2.6,1.1,2.6,3V83h-1.3l-0.1-0.8h0c-0.6,0.5-1.3,0.9-2.1,0.9c-1.2,0-2.1-0.8-2.1-2C73.3,79.6,74.5,78.9,77.4,78.6z
				 M75.9,81.9c0.6,0,1-0.3,1.5-0.8v-1.6c-1.9,0.2-2.5,0.7-2.5,1.4C74.9,81.6,75.3,81.9,75.9,81.9z"/>
			<path fill="#7B7C7D" d="M81.2,77.3h-1v-1.2l1.1-0.1l0.2-1.9h1.4v1.9h1.8v1.3h-1.8v3.3c0,0.8,0.3,1.2,1,1.2c0.2,0,0.5-0.1,0.7-0.2
				l0.3,1.2c-0.4,0.1-0.9,0.3-1.4,0.3c-1.6,0-2.2-1-2.2-2.5V77.3z"/>
			<path fill="#7B7C7D" d="M89.9,78.6c0-0.7-0.3-1.4-1.3-1.4c-0.7,0-1.3,0.3-1.9,0.7l-0.6-1.1c0.8-0.5,1.7-0.9,2.8-0.9
				c1.7,0,2.6,1.1,2.6,3V83h-1.3L90,82.2h0c-0.6,0.5-1.3,0.9-2.1,0.9c-1.2,0-2.1-0.8-2.1-2C85.8,79.6,87,78.9,89.9,78.6z M88.3,81.9
				c0.6,0,1-0.3,1.5-0.8v-1.6c-1.9,0.2-2.5,0.7-2.5,1.4C87.4,81.6,87.8,81.9,88.3,81.9z"/>
			<path fill="#7B7C7D" d="M96.4,81.7h2v-5.9h-1.7v-1c0.9-0.2,1.5-0.4,2.1-0.7h1.2v7.6h1.8V83h-5.4V81.7z"/>
		</g>
	</g>
	<g>
		<g>
			<path fill="#7B7C7D" d="M56.8,15.8h-3.1L53,18.3h-1.7l3-9.2h1.9l3,9.2h-1.7L56.8,15.8z M56.4,14.5l-0.3-1.1c-0.3-1-0.6-2-0.8-3
				h-0.1c-0.3,1-0.5,2.1-0.8,3l-0.3,1.1H56.4z"/>
			<path fill="#7B7C7D" d="M60.2,11.4h1.3l0.1,1.2h0.1c0.5-0.9,1.2-1.4,2-1.4c0.4,0,0.6,0,0.8,0.1l-0.3,1.4
				c-0.2-0.1-0.4-0.1-0.7-0.1c-0.6,0-1.2,0.4-1.6,1.4v4.2h-1.6V11.4z"/>
			<path fill="#7B7C7D" d="M65.5,11.4h1.3l0.1,1.2H67c0.5-0.9,1.2-1.4,2-1.4c0.4,0,0.6,0,0.8,0.1l-0.3,1.4c-0.2-0.1-0.4-0.1-0.7-0.1
				c-0.6,0-1.2,0.4-1.6,1.4v4.2h-1.6V11.4z"/>
			<path fill="#7B7C7D" d="M74.5,13.9c0-0.7-0.3-1.4-1.3-1.4c-0.7,0-1.3,0.3-1.9,0.7l-0.6-1.1c0.8-0.5,1.7-0.9,2.8-0.9
				c1.7,0,2.6,1.1,2.6,3v4.1h-1.3l-0.1-0.8h0c-0.6,0.5-1.3,0.9-2.1,0.9c-1.2,0-2.1-0.8-2.1-2C70.4,15,71.7,14.2,74.5,13.9z M73,17.2
				c0.6,0,1-0.3,1.5-0.8v-1.6c-1.9,0.2-2.5,0.7-2.5,1.4C72,16.9,72.4,17.2,73,17.2z"/>
			<path fill="#7B7C7D" d="M78.1,8.3h1.6v2.6l0,1.2c0.6-0.5,1.3-0.9,2-0.9c1.7,0,2.7,1.4,2.7,3.5c0,2.4-1.4,3.8-3,3.8
				c-0.6,0-1.3-0.3-1.9-0.9h0l-0.1,0.7h-1.3V8.3z M81.1,17.1c0.9,0,1.6-0.8,1.6-2.4c0-1.4-0.5-2.2-1.5-2.2c-0.5,0-1,0.3-1.5,0.8v3.2
				C80.2,17,80.7,17.1,81.1,17.1z"/>
			<path fill="#7B7C7D" d="M86.1,8.3h1.6v2.6l0,1.2c0.6-0.5,1.3-0.9,2-0.9c1.7,0,2.7,1.4,2.7,3.5c0,2.4-1.4,3.8-3,3.8
				c-0.6,0-1.3-0.3-1.9-0.9h0l-0.1,0.7h-1.3V8.3z M89.1,17.1c0.9,0,1.6-0.8,1.6-2.4c0-1.4-0.5-2.2-1.5-2.2c-0.5,0-1,0.3-1.5,0.8v3.2
				C88.2,17,88.7,17.1,89.1,17.1z"/>
			<path fill="#7B7C7D" d="M93.8,9.2c0-0.6,0.4-0.9,1-0.9s1,0.4,1,0.9c0,0.5-0.4,0.9-1,0.9S93.8,9.8,93.8,9.2z M94,11.4h1.6v6.9H94
				V11.4z"/>
			<path fill="#7B7C7D" d="M101.5,13.9c0-0.7-0.3-1.4-1.3-1.4c-0.7,0-1.3,0.3-1.9,0.7l-0.6-1.1c0.8-0.5,1.7-0.9,2.8-0.9
				c1.7,0,2.6,1.1,2.6,3v4.1h-1.3l-0.1-0.8h0c-0.6,0.5-1.3,0.9-2.1,0.9c-1.2,0-2.1-0.8-2.1-2C97.4,15,98.7,14.2,101.5,13.9z
				 M100,17.2c0.6,0,1-0.3,1.5-0.8v-1.6c-1.9,0.2-2.5,0.7-2.5,1.4C99,16.9,99.4,17.2,100,17.2z"/>
			<path fill="#7B7C7D" d="M105.3,12.7h-1v-1.2l1.1-0.1l0.2-1.9h1.4v1.9h1.8v1.3H107V16c0,0.8,0.3,1.2,1,1.2c0.2,0,0.5-0.1,0.7-0.2
				l0.3,1.2c-0.4,0.1-0.9,0.3-1.4,0.3c-1.6,0-2.2-1-2.2-2.5V12.7z"/>
			<path fill="#7B7C7D" d="M114,13.9c0-0.7-0.3-1.4-1.3-1.4c-0.7,0-1.3,0.3-1.9,0.7l-0.6-1.1c0.8-0.5,1.7-0.9,2.8-0.9
				c1.7,0,2.6,1.1,2.6,3v4.1h-1.3l-0.1-0.8h0c-0.6,0.5-1.3,0.9-2.1,0.9c-1.2,0-2.1-0.8-2.1-2C109.9,15,111.1,14.2,114,13.9z
				 M112.5,17.2c0.6,0,1-0.3,1.5-0.8v-1.6c-1.9,0.2-2.5,0.7-2.5,1.4C111.5,16.9,111.9,17.2,112.5,17.2z"/>
			<path fill="#7B7C7D" d="M120,17.4c2.5-2.4,4.1-4,4.1-5.4c0-0.9-0.5-1.6-1.5-1.6c-0.7,0-1.3,0.5-1.8,1l-0.9-0.9
				c0.8-0.9,1.6-1.4,2.9-1.4c1.7,0,2.8,1.1,2.8,2.8c0,1.6-1.5,3.2-3.3,5.1c0.5,0,1.1-0.1,1.5-0.1h2.2v1.4H120V17.4z"/>
		</g>
	</g>
	<g>
		<g>
			<path fill="#7B7C7D" d="M59.6,33.8h3c1.9,0,3.3,0.6,3.3,2.3c0,0.9-0.5,1.7-1.6,2v0.1c1.3,0.2,2.1,0.9,2.1,2.2
				c0,1.8-1.5,2.7-3.5,2.7h-3.2V33.8z M62.4,37.7c1.3,0,1.8-0.5,1.8-1.4c0-0.8-0.6-1.2-1.8-1.2h-1.2v2.6H62.4z M62.6,41.8
				c1.4,0,2.1-0.5,2.1-1.6c0-1-0.7-1.4-2.1-1.4h-1.4v3H62.6z"/>
			<path fill="#7B7C7D" d="M67.7,36.1h1.6v4.1c0,1.1,0.3,1.6,1.1,1.6c0.6,0,1-0.3,1.5-1v-4.7h1.6v6.9h-1.3l-0.1-1h0
				c-0.6,0.7-1.3,1.2-2.2,1.2c-1.5,0-2.1-1-2.1-2.8V36.1z"/>
			<path fill="#7B7C7D" d="M78.7,36c0.9,0,1.6,0.4,2,0.8l-0.8,1c-0.4-0.3-0.7-0.5-1.2-0.5c-1.1,0-1.9,0.9-1.9,2.3
				c0,1.4,0.8,2.3,1.8,2.3c0.6,0,1-0.3,1.4-0.6l0.7,1c-0.6,0.6-1.5,0.9-2.3,0.9c-1.9,0-3.3-1.3-3.3-3.6C75.2,37.3,76.8,36,78.7,36z"
				/>
			<path fill="#7B7C7D" d="M82,34c0-0.6,0.4-0.9,1-0.9s1,0.4,1,0.9c0,0.5-0.4,0.9-1,0.9S82,34.5,82,34z M82.2,36.1h1.6v6.9h-1.6
				V36.1z"/>
			<path fill="#7B7C7D" d="M85.9,36.1h1.3l0.1,0.9h0.1c0.6-0.6,1.3-1.1,2.3-1.1c1.5,0,2.1,1,2.1,2.8v4.3h-1.6v-4.1
				c0-1.1-0.3-1.6-1.1-1.6c-0.6,0-1,0.3-1.6,0.9v4.8h-1.6V36.1z"/>
			<path fill="#7B7C7D" d="M96.5,36c1.9,0,2.9,1.4,2.9,3.3c0,0.3,0,0.6-0.1,0.8h-4.4c0.1,1.3,0.9,2,2,2c0.6,0,1.1-0.2,1.6-0.5l0.6,1
				c-0.7,0.4-1.5,0.7-2.4,0.7c-1.9,0-3.4-1.3-3.4-3.6C93.3,37.4,94.9,36,96.5,36z M98,39c0-1.1-0.5-1.8-1.4-1.8
				c-0.8,0-1.5,0.6-1.7,1.8H98z"/>
		</g>
	</g>
	<g>
		<g>
			<path fill="#7B7C7D" d="M126.5,126.6c0.7,0.6,1.6,1,2.4,1c1,0,1.6-0.5,1.6-1.2c0-0.8-0.6-1-1.4-1.4l-1.3-0.6
				c-0.9-0.4-1.9-1.1-1.9-2.5c0-1.5,1.3-2.6,3.1-2.6c1.1,0,2.1,0.5,2.9,1.2l-0.8,1c-0.6-0.5-1.2-0.8-2-0.8c-0.9,0-1.4,0.4-1.4,1.1
				c0,0.7,0.7,1,1.5,1.3l1.2,0.5c1.1,0.5,1.9,1.2,1.9,2.5c0,1.5-1.2,2.7-3.3,2.7c-1.2,0-2.4-0.5-3.3-1.4L126.5,126.6z"/>
			<path fill="#7B7C7D" d="M137.5,124.5c0-0.7-0.3-1.4-1.3-1.4c-0.7,0-1.3,0.3-1.9,0.7l-0.6-1.1c0.8-0.5,1.7-0.9,2.8-0.9
				c1.7,0,2.6,1.1,2.6,3v4.1h-1.3l-0.1-0.8h0c-0.6,0.5-1.3,0.9-2.1,0.9c-1.2,0-2.1-0.8-2.1-2C133.4,125.6,134.7,124.8,137.5,124.5z
				 M136,127.8c0.6,0,1-0.3,1.5-0.8v-1.6c-1.9,0.2-2.5,0.7-2.5,1.4C135,127.6,135.4,127.8,136,127.8z"/>
			<path fill="#7B7C7D" d="M140.2,122h1.7l1.1,3.6c0.2,0.7,0.4,1.4,0.6,2.1h0.1c0.2-0.7,0.4-1.4,0.6-2.1l1.1-3.6h1.6l-2.4,6.9h-1.9
				L140.2,122z"/>
			<path fill="#7B7C7D" d="M150.8,121.8c1.9,0,2.9,1.4,2.9,3.3c0,0.3,0,0.6-0.1,0.8h-4.4c0.1,1.3,0.9,2,2,2c0.6,0,1.1-0.2,1.6-0.5
				l0.6,1c-0.7,0.4-1.5,0.7-2.4,0.7c-1.9,0-3.4-1.3-3.4-3.6C147.6,123.2,149.2,121.8,150.8,121.8z M152.3,124.9
				c0-1.1-0.5-1.8-1.4-1.8c-0.8,0-1.5,0.6-1.7,1.8H152.3z"/>
			<path fill="#7B7C7D" d="M155.2,119h1.6v8.3c0,0.4,0.2,0.5,0.4,0.5c0.1,0,0.1,0,0.3,0l0.2,1.2c-0.2,0.1-0.5,0.1-0.9,0.1
				c-1.2,0-1.6-0.7-1.6-1.9V119z"/>
			<path fill="#7B7C7D" d="M159.1,119h1.6v8.3c0,0.4,0.2,0.5,0.4,0.5c0.1,0,0.1,0,0.3,0l0.2,1.2c-0.2,0.1-0.5,0.1-0.9,0.1
				c-1.2,0-1.6-0.7-1.6-1.9V119z"/>
			<path fill="#7B7C7D" d="M162.7,119.9c0-0.6,0.4-0.9,1-0.9s1,0.4,1,0.9c0,0.5-0.4,0.9-1,0.9S162.7,120.4,162.7,119.9z M162.9,122
				h1.6v6.9h-1.6V122z"/>
		</g>
	</g>
	<g>
		<g>
			<path fill="#7B7C7D" d="M105.3,140.7c1.1,0,2,0.6,2.6,1.2l-0.9,1c-0.5-0.5-1-0.8-1.7-0.8c-1.5,0-2.6,1.3-2.6,3.3
				c0,2.1,1,3.4,2.5,3.4c0.8,0,1.4-0.3,1.9-0.9l0.9,1c-0.7,0.9-1.7,1.3-2.9,1.3c-2.3,0-4.2-1.7-4.2-4.8
				C101.1,142.5,102.9,140.7,105.3,140.7z"/>
			<path fill="#7B7C7D" d="M113.3,145.6c0-0.7-0.3-1.4-1.3-1.4c-0.7,0-1.3,0.3-1.9,0.7l-0.6-1.1c0.8-0.5,1.7-0.9,2.8-0.9
				c1.7,0,2.6,1.1,2.6,3v4.1h-1.3l-0.1-0.8h0c-0.6,0.5-1.3,0.9-2.1,0.9c-1.2,0-2.1-0.8-2.1-2C109.2,146.7,110.5,146,113.3,145.6z
				 M111.8,149c0.6,0,1-0.3,1.5-0.8v-1.6c-1.9,0.2-2.5,0.7-2.5,1.4C110.8,148.7,111.2,149,111.8,149z"/>
			<path fill="#7B7C7D" d="M117,148.2c0.6,0.5,1.2,0.8,1.9,0.8c0.7,0,1.1-0.4,1.1-0.8c0-0.6-0.7-0.8-1.5-1.1c-0.9-0.3-1.9-0.9-1.9-2
				c0-1.2,1-2.1,2.5-2.1c1,0,1.7,0.4,2.3,0.8l-0.7,1c-0.5-0.4-1-0.6-1.5-0.6c-0.7,0-1,0.3-1,0.8c0,0.5,0.7,0.8,1.4,1
				c0.9,0.4,2,0.8,2,2.1c0,1.2-0.9,2.1-2.7,2.1c-0.9,0-1.9-0.4-2.6-1L117,148.2z"/>
			<path fill="#7B7C7D" d="M126.8,145.6c0-0.7-0.3-1.4-1.3-1.4c-0.7,0-1.3,0.3-1.9,0.7l-0.6-1.1c0.8-0.5,1.7-0.9,2.8-0.9
				c1.7,0,2.6,1.1,2.6,3v4.1h-1.3l-0.1-0.8h0c-0.6,0.5-1.3,0.9-2.1,0.9c-1.2,0-2.1-0.8-2.1-2C122.7,146.7,123.9,146,126.8,145.6z
				 M125.2,149c0.6,0,1-0.3,1.5-0.8v-1.6c-1.9,0.2-2.5,0.7-2.5,1.4C124.3,148.7,124.7,149,125.2,149z"/>
			<path fill="#7B7C7D" d="M130.4,143.1h1.3l0.1,0.9h0.1c0.6-0.6,1.3-1.1,2.3-1.1c1.5,0,2.1,1,2.1,2.8v4.3h-1.6v-4.1
				c0-1.1-0.3-1.6-1.1-1.6c-0.6,0-1,0.3-1.6,0.9v4.8h-1.6V143.1z"/>
			<path fill="#7B7C7D" d="M141.1,143c1.7,0,3.3,1.3,3.3,3.6c0,2.3-1.6,3.6-3.3,3.6c-1.7,0-3.3-1.3-3.3-3.6
				C137.8,144.3,139.4,143,141.1,143z M141.1,148.9c1,0,1.6-0.9,1.6-2.3c0-1.4-0.6-2.3-1.6-2.3c-1,0-1.6,0.9-1.6,2.3
				C139.5,148,140.1,148.9,141.1,148.9z"/>
			<path fill="#7B7C7D" d="M145.1,143.1h1.7l1.1,3.6c0.2,0.7,0.4,1.4,0.6,2.1h0.1c0.2-0.7,0.4-1.4,0.6-2.1l1.1-3.6h1.6l-2.4,6.9
				h-1.9L145.1,143.1z"/>
			<path fill="#7B7C7D" d="M156.8,145.6c0-0.7-0.3-1.4-1.3-1.4c-0.7,0-1.3,0.3-1.9,0.7l-0.6-1.1c0.8-0.5,1.7-0.9,2.8-0.9
				c1.7,0,2.6,1.1,2.6,3v4.1h-1.3l-0.1-0.8h0c-0.6,0.5-1.3,0.9-2.1,0.9c-1.2,0-2.1-0.8-2.1-2C152.7,146.7,153.9,146,156.8,145.6z
				 M155.3,149c0.6,0,1-0.3,1.5-0.8v-1.6c-1.9,0.2-2.5,0.7-2.5,1.4C154.3,148.7,154.7,149,155.3,149z"/>
		</g>
	</g>
	<g>
		<g>
			<path fill="#7B7C7D" d="M116.1,186.4h3c1.9,0,3.3,0.6,3.3,2.3c0,0.9-0.5,1.7-1.6,2v0.1c1.3,0.2,2.1,0.9,2.1,2.2
				c0,1.8-1.5,2.7-3.5,2.7h-3.2V186.4z M118.9,190.2c1.3,0,1.8-0.5,1.8-1.4c0-0.8-0.6-1.2-1.8-1.2h-1.2v2.6H118.9z M119.1,194.4
				c1.4,0,2.1-0.5,2.1-1.6c0-1-0.7-1.4-2.1-1.4h-1.4v3H119.1z"/>
			<path fill="#7B7C7D" d="M127.2,188.5c1.7,0,3.3,1.3,3.3,3.6c0,2.3-1.6,3.6-3.3,3.6c-1.7,0-3.3-1.3-3.3-3.6
				C123.9,189.9,125.5,188.5,127.2,188.5z M127.2,194.5c1,0,1.6-0.9,1.6-2.3c0-1.4-0.6-2.3-1.6-2.3c-1,0-1.6,0.9-1.6,2.3
				C125.6,193.6,126.2,194.5,127.2,194.5z"/>
			<path fill="#7B7C7D" d="M132.1,188.7h1.3l0.1,1.2h0.1c0.5-0.9,1.2-1.4,2-1.4c0.4,0,0.6,0,0.8,0.1l-0.3,1.4
				c-0.2-0.1-0.4-0.1-0.7-0.1c-0.6,0-1.2,0.4-1.6,1.4v4.2h-1.6V188.7z"/>
			<path fill="#7B7C7D" d="M137.9,195.4L137.9,195.4c-0.4-0.3-0.6-0.6-0.6-1.2c0-0.5,0.4-1,0.8-1.3v-0.1c-0.5-0.4-0.9-1-0.9-1.8
				c0-1.6,1.3-2.5,2.7-2.5c0.4,0,0.7,0.1,1,0.2h2.5v1.2h-1.3c0.2,0.3,0.4,0.7,0.4,1.2c0,1.5-1.2,2.4-2.6,2.4c-0.3,0-0.6-0.1-0.9-0.2
				c-0.2,0.2-0.3,0.4-0.3,0.7c0,0.4,0.3,0.6,1.1,0.6h1.2c1.7,0,2.5,0.5,2.5,1.7c0,1.4-1.4,2.4-3.7,2.4c-1.7,0-2.9-0.6-2.9-1.8
				C136.9,196.3,137.3,195.8,137.9,195.4z M140,197.6c1.1,0,1.9-0.5,1.9-1.1c0-0.5-0.4-0.7-1.2-0.7h-0.9c-0.4,0-0.7,0-0.9-0.1
				c-0.4,0.3-0.5,0.6-0.5,0.9C138.3,197.3,138.9,197.6,140,197.6z M141.1,191c0-0.9-0.5-1.4-1.2-1.4c-0.7,0-1.2,0.5-1.2,1.4
				c0,0.9,0.5,1.4,1.2,1.4C140.5,192.4,141.1,191.9,141.1,191z"/>
			<path fill="#7B7C7D" d="M147.5,188.5c1.7,0,3.3,1.3,3.3,3.6c0,2.3-1.6,3.6-3.3,3.6c-1.7,0-3.3-1.3-3.3-3.6
				C144.3,189.9,145.8,188.5,147.5,188.5z M147.5,194.5c1,0,1.6-0.9,1.6-2.3c0-1.4-0.6-2.3-1.6-2.3c-1,0-1.6,0.9-1.6,2.3
				C145.9,193.6,146.5,194.5,147.5,194.5z"/>
			<path fill="#7B7C7D" d="M152.9,193.3c0.7,0.6,1.6,1,2.4,1c1,0,1.6-0.5,1.6-1.2c0-0.8-0.6-1-1.4-1.4l-1.3-0.6
				c-0.9-0.4-1.9-1.1-1.9-2.5c0-1.5,1.3-2.6,3.1-2.6c1.1,0,2.1,0.5,2.9,1.2l-0.8,1c-0.6-0.5-1.2-0.8-2-0.8c-0.9,0-1.4,0.4-1.4,1.1
				c0,0.7,0.7,1,1.5,1.3l1.2,0.5c1.1,0.5,1.9,1.2,1.9,2.5c0,1.5-1.2,2.7-3.3,2.7c-1.2,0-2.4-0.5-3.3-1.4L152.9,193.3z"/>
			<path fill="#7B7C7D" d="M163.9,191.2c0-0.7-0.3-1.4-1.3-1.4c-0.7,0-1.3,0.3-1.9,0.7l-0.6-1.1c0.8-0.5,1.7-0.9,2.8-0.9
				c1.7,0,2.6,1.1,2.6,3v4.1h-1.3l-0.1-0.8h0c-0.6,0.5-1.3,0.9-2.1,0.9c-1.2,0-2.1-0.8-2.1-2C159.8,192.3,161,191.5,163.9,191.2z
				 M162.4,194.5c0.6,0,1-0.3,1.5-0.8v-1.6c-1.9,0.2-2.5,0.7-2.5,1.4C161.4,194.3,161.8,194.5,162.4,194.5z"/>
			<path fill="#7B7C7D" d="M167.5,188.7h1.3l0.1,0.9h0.1c0.6-0.6,1.3-1.1,2.3-1.1c1.5,0,2.1,1,2.1,2.8v4.3h-1.6v-4.1
				c0-1.1-0.3-1.6-1.1-1.6c-0.6,0-1,0.3-1.6,0.9v4.8h-1.6V188.7z"/>
			<path fill="#7B7C7D" d="M178.4,186.4h1.6v7.8h3.8v1.4h-5.5V186.4z"/>
			<path fill="#7B7C7D" d="M188.2,188.5c1.7,0,3.3,1.3,3.3,3.6c0,2.3-1.6,3.6-3.3,3.6c-1.7,0-3.3-1.3-3.3-3.6
				C184.9,189.9,186.4,188.5,188.2,188.5z M188.2,194.5c1,0,1.6-0.9,1.6-2.3c0-1.4-0.6-2.3-1.6-2.3c-1,0-1.6,0.9-1.6,2.3
				C186.5,193.6,187.1,194.5,188.2,194.5z"/>
			<path fill="#7B7C7D" d="M193.1,188.7h1.3l0.1,1.2h0.1c0.5-0.9,1.2-1.4,2-1.4c0.4,0,0.6,0,0.8,0.1l-0.3,1.4
				c-0.2-0.1-0.4-0.1-0.7-0.1c-0.6,0-1.2,0.4-1.6,1.4v4.2h-1.6V188.7z"/>
			<path fill="#7B7C7D" d="M201.1,188.5c1.9,0,2.9,1.4,2.9,3.3c0,0.3,0,0.6-0.1,0.8h-4.4c0.1,1.3,0.9,2,2,2c0.6,0,1.1-0.2,1.6-0.5
				l0.5,1c-0.7,0.4-1.5,0.7-2.4,0.7c-1.9,0-3.4-1.3-3.4-3.6C197.9,189.9,199.4,188.5,201.1,188.5z M202.5,191.6
				c0-1.1-0.5-1.8-1.4-1.8c-0.8,0-1.5,0.6-1.7,1.8H202.5z"/>
			<path fill="#7B7C7D" d="M205.5,188.7h1.3l0.1,0.9h0.1c0.6-0.6,1.3-1.1,2.3-1.1c1.5,0,2.1,1,2.1,2.8v4.3h-1.6v-4.1
				c0-1.1-0.3-1.6-1.1-1.6c-0.6,0-1,0.3-1.6,0.9v4.8h-1.6V188.7z"/>
			<path fill="#7B7C7D" d="M212.8,194.8l3.3-4.8h-2.9v-1.3h4.9v0.9l-3.3,4.8h3.4v1.3h-5.4V194.8z"/>
			<path fill="#7B7C7D" d="M222.5,188.5c1.7,0,3.3,1.3,3.3,3.6c0,2.3-1.6,3.6-3.3,3.6c-1.7,0-3.3-1.3-3.3-3.6
				C219.2,189.9,220.7,188.5,222.5,188.5z M222.5,194.5c1,0,1.6-0.9,1.6-2.3c0-1.4-0.6-2.3-1.6-2.3c-1,0-1.6,0.9-1.6,2.3
				C220.8,193.6,221.5,194.5,222.5,194.5z"/>
		</g>
	</g>
	<g>
		<g>
			<path fill="#7B7C7D" d="M194.4,220.8h1.8l1.7,4.5l0.6,1.8h0.1l0.6-1.8l1.6-4.5h1.8v9.2H201v-4.2c0-0.9,0.1-2.1,0.2-2.9h-0.1
				l-0.7,2.1l-1.6,4.2h-0.7l-1.6-4.2l-0.7-2.1h-0.1c0.1,0.8,0.2,2.1,0.2,2.9v4.2h-1.5V220.8z"/>
			<path fill="#7B7C7D" d="M208.5,225.6c0-0.7-0.3-1.4-1.3-1.4c-0.7,0-1.3,0.3-1.9,0.7l-0.6-1.1c0.8-0.5,1.7-0.9,2.8-0.9
				c1.7,0,2.6,1.1,2.6,3v4.1h-1.3l-0.1-0.8h0c-0.6,0.5-1.3,0.9-2.1,0.9c-1.2,0-2.1-0.8-2.1-2C204.4,226.7,205.7,225.9,208.5,225.6z
				 M207,228.9c0.6,0,1-0.3,1.5-0.8v-1.6c-1.9,0.2-2.5,0.7-2.5,1.4C206,228.6,206.4,228.9,207,228.9z"/>
			<path fill="#7B7C7D" d="M212.3,224.4h-1v-1.2l1.1-0.1l0.2-1.9h1.4v1.9h1.8v1.3H214v3.3c0,0.8,0.3,1.2,1,1.2
				c0.2,0,0.5-0.1,0.7-0.2l0.3,1.2c-0.4,0.1-0.9,0.3-1.4,0.3c-1.6,0-2.2-1-2.2-2.5V224.4z"/>
			<path fill="#7B7C7D" d="M219.9,222.9c1.9,0,2.9,1.4,2.9,3.3c0,0.3,0,0.6-0.1,0.8h-4.4c0.1,1.3,0.9,2,2,2c0.6,0,1.1-0.2,1.6-0.5
				l0.5,1c-0.7,0.4-1.5,0.7-2.4,0.7c-1.9,0-3.4-1.3-3.4-3.6C216.7,224.3,218.3,222.9,219.9,222.9z M221.4,225.9
				c0-1.1-0.5-1.8-1.4-1.8c-0.8,0-1.5,0.6-1.7,1.8H221.4z"/>
			<path fill="#7B7C7D" d="M224.3,223.1h1.3l0.1,1.2h0.1c0.5-0.9,1.2-1.4,2-1.4c0.4,0,0.6,0,0.8,0.1l-0.3,1.4
				c-0.2-0.1-0.4-0.1-0.7-0.1c-0.6,0-1.2,0.4-1.6,1.4v4.2h-1.6V223.1z"/>
			<path fill="#7B7C7D" d="M233.4,225.6c0-0.7-0.3-1.4-1.3-1.4c-0.7,0-1.3,0.3-1.9,0.7l-0.6-1.1c0.8-0.5,1.7-0.9,2.8-0.9
				c1.7,0,2.6,1.1,2.6,3v4.1h-1.3l-0.1-0.8h0c-0.6,0.5-1.3,0.9-2.1,0.9c-1.2,0-2.1-0.8-2.1-2C229.3,226.7,230.5,225.9,233.4,225.6z
				 M231.9,228.9c0.6,0,1-0.3,1.5-0.8v-1.6c-1.9,0.2-2.5,0.7-2.5,1.4C230.9,228.6,231.3,228.9,231.9,228.9z"/>
			<path fill="#7B7C7D" d="M237.1,228.2c0.6,0.5,1.2,0.8,1.9,0.8c0.7,0,1.1-0.4,1.1-0.8c0-0.6-0.7-0.8-1.5-1.1
				c-0.9-0.3-1.9-0.9-1.9-2c0-1.2,1-2.1,2.5-2.1c1,0,1.7,0.4,2.3,0.8l-0.7,1c-0.5-0.4-1-0.6-1.5-0.6c-0.7,0-1,0.3-1,0.8
				c0,0.5,0.7,0.8,1.4,1c0.9,0.4,2,0.8,2,2.1c0,1.2-0.9,2.1-2.7,2.1c-0.9,0-1.9-0.4-2.6-1L237.1,228.2z"/>
			<path fill="#7B7C7D" d="M243.1,228.2c0.6,0.5,1.2,0.8,1.9,0.8c0.7,0,1.1-0.4,1.1-0.8c0-0.6-0.7-0.8-1.5-1.1
				c-0.9-0.3-1.9-0.9-1.9-2c0-1.2,1-2.1,2.5-2.1c1,0,1.7,0.4,2.3,0.8l-0.7,1c-0.5-0.4-1-0.6-1.5-0.6c-0.7,0-1,0.3-1,0.8
				c0,0.5,0.7,0.8,1.4,1c0.9,0.4,2,0.8,2,2.1c0,1.2-0.9,2.1-2.7,2.1c-0.9,0-1.9-0.4-2.6-1L243.1,228.2z"/>
			<path fill="#7B7C7D" d="M249,220.9c0-0.6,0.4-0.9,1-0.9c0.6,0,1,0.4,1,0.9c0,0.5-0.4,0.9-1,0.9C249.4,221.9,249,221.5,249,220.9z
				 M249.1,223.1h1.6v6.9h-1.6V223.1z"/>
		</g>
	</g>
	<g>
		<g>
			<path fill="#7B7C7D" d="M292,47h3c1.9,0,3.3,0.6,3.3,2.3c0,0.9-0.5,1.7-1.6,2v0.1c1.3,0.2,2.1,0.9,2.1,2.2c0,1.8-1.5,2.7-3.5,2.7
				H292V47z M294.8,50.9c1.3,0,1.8-0.5,1.8-1.4c0-0.8-0.6-1.2-1.8-1.2h-1.2v2.6H294.8z M295,55c1.4,0,2.1-0.5,2.1-1.6
				c0-1-0.7-1.4-2.1-1.4h-1.4v3H295z"/>
			<path fill="#7B7C7D" d="M300.1,47.2c0-0.6,0.4-0.9,1-0.9c0.6,0,1,0.4,1,0.9c0,0.5-0.4,0.9-1,0.9
				C300.5,48.1,300.1,47.7,300.1,47.2z M300.3,49.3h1.6v6.9h-1.6V49.3z"/>
			<path fill="#7B7C7D" d="M306.8,49.2c1.7,0,3.3,1.3,3.3,3.6c0,2.3-1.6,3.6-3.3,3.6c-1.7,0-3.3-1.3-3.3-3.6
				C303.5,50.5,305.1,49.2,306.8,49.2z M306.8,55.1c1,0,1.6-0.9,1.6-2.3c0-1.4-0.6-2.3-1.6-2.3c-1,0-1.6,0.9-1.6,2.3
				C305.2,54.2,305.8,55.1,306.8,55.1z"/>
			<path fill="#7B7C7D" d="M311.7,49.3h1.3l0.1,0.9h0.1c0.6-0.6,1.3-1.1,2.3-1.1c1.5,0,2.1,1,2.1,2.8v4.3H316v-4.1
				c0-1.1-0.3-1.6-1.1-1.6c-0.6,0-1,0.3-1.6,0.9v4.8h-1.6V49.3z"/>
			<path fill="#7B7C7D" d="M322.1,49.2c0.8,0,1.3,0.3,1.8,0.8l-0.1-1.1v-2.5h1.6v10h-1.3l-0.1-0.7H324c-0.5,0.5-1.2,0.9-2,0.9
				c-1.7,0-2.9-1.3-2.9-3.6C319.2,50.6,320.6,49.2,322.1,49.2z M322.4,55.1c0.5,0,1-0.2,1.5-0.8v-3.2c-0.5-0.4-0.9-0.6-1.4-0.6
				c-0.9,0-1.6,0.8-1.6,2.3C320.9,54.3,321.4,55.1,322.4,55.1z"/>
			<path fill="#7B7C7D" d="M330.3,49.2c1.9,0,2.9,1.4,2.9,3.3c0,0.3,0,0.6-0.1,0.8h-4.4c0.1,1.3,0.9,2,2,2c0.6,0,1.1-0.2,1.6-0.5
				l0.5,1c-0.7,0.4-1.5,0.7-2.4,0.7c-1.9,0-3.4-1.3-3.4-3.6C327.1,50.6,328.7,49.2,330.3,49.2z M331.8,52.2c0-1.1-0.5-1.8-1.4-1.8
				c-0.8,0-1.5,0.6-1.7,1.8H331.8z"/>
			<path fill="#7B7C7D" d="M335,50.6h-1v-1.2l1.1-0.1l0.2-1.9h1.4v1.9h1.8v1.3h-1.8v3.3c0,0.8,0.3,1.2,1,1.2c0.2,0,0.5-0.1,0.7-0.2
				l0.3,1.2c-0.4,0.1-0.9,0.3-1.4,0.3c-1.6,0-2.2-1-2.2-2.5V50.6z"/>
			<path fill="#7B7C7D" d="M340,50.6h-1v-1.2l1.1-0.1l0.2-1.9h1.4v1.9h1.8v1.3h-1.8v3.3c0,0.8,0.3,1.2,1,1.2c0.2,0,0.5-0.1,0.7-0.2
				l0.3,1.2c-0.4,0.1-0.9,0.3-1.4,0.3c-1.6,0-2.2-1-2.2-2.5V50.6z"/>
			<path fill="#7B7C7D" d="M344.7,47.2c0-0.6,0.4-0.9,1-0.9c0.6,0,1,0.4,1,0.9c0,0.5-0.4,0.9-1,0.9
				C345.1,48.1,344.7,47.7,344.7,47.2z M344.9,49.3h1.6v6.9h-1.6V49.3z"/>
			<path fill="#7B7C7D" d="M351,55.3c2.5-2.4,4.1-4,4.1-5.4c0-0.9-0.5-1.6-1.5-1.6c-0.7,0-1.3,0.5-1.8,1l-0.9-0.9
				c0.8-0.9,1.6-1.4,2.9-1.4c1.7,0,2.8,1.1,2.8,2.8c0,1.6-1.5,3.2-3.3,5.1c0.5,0,1.1-0.1,1.5-0.1h2.2v1.4H351V55.3z"/>
		</g>
	</g>
	<g>
		<g>
			<path fill="#7B7C7D" d="M297.3,70.1h3c1.9,0,3.3,0.6,3.3,2.3c0,0.9-0.5,1.7-1.6,2v0.1c1.3,0.2,2.1,0.9,2.1,2.2
				c0,1.8-1.5,2.7-3.5,2.7h-3.2V70.1z M300.1,73.9c1.3,0,1.8-0.5,1.8-1.4c0-0.8-0.6-1.2-1.8-1.2h-1.2v2.6H300.1z M300.3,78.1
				c1.4,0,2.1-0.5,2.1-1.6c0-1-0.7-1.4-2.1-1.4h-1.4v3H300.3z"/>
			<path fill="#7B7C7D" d="M305.4,70.3c0-0.6,0.4-0.9,1-0.9c0.6,0,1,0.4,1,0.9c0,0.5-0.4,0.9-1,0.9
				C305.8,71.2,305.4,70.8,305.4,70.3z M305.6,72.4h1.6v6.9h-1.6V72.4z"/>
			<path fill="#7B7C7D" d="M312.1,72.2c1.7,0,3.3,1.3,3.3,3.6c0,2.3-1.6,3.6-3.3,3.6c-1.7,0-3.3-1.3-3.3-3.6
				C308.8,73.6,310.4,72.2,312.1,72.2z M312.1,78.2c1,0,1.6-0.9,1.6-2.3c0-1.4-0.6-2.3-1.6-2.3c-1,0-1.6,0.9-1.6,2.3
				C310.5,77.2,311.1,78.2,312.1,78.2z"/>
			<path fill="#7B7C7D" d="M317,72.4h1.3l0.1,0.9h0.1c0.6-0.6,1.3-1.1,2.3-1.1c1.5,0,2.1,1,2.1,2.8v4.3h-1.6v-4.1
				c0-1.1-0.3-1.6-1.1-1.6c-0.6,0-1,0.3-1.6,0.9v4.8H317V72.4z"/>
			<path fill="#7B7C7D" d="M327.4,72.2c0.8,0,1.3,0.3,1.8,0.8l-0.1-1.1v-2.5h1.6v10h-1.3l-0.1-0.7h-0.1c-0.5,0.5-1.2,0.9-2,0.9
				c-1.7,0-2.9-1.3-2.9-3.6C324.5,73.6,325.9,72.2,327.4,72.2z M327.7,78.2c0.5,0,1-0.2,1.5-0.8v-3.2c-0.5-0.4-0.9-0.6-1.4-0.6
				c-0.9,0-1.6,0.8-1.6,2.3C326.2,77.3,326.7,78.2,327.7,78.2z"/>
			<path fill="#7B7C7D" d="M335.6,72.2c1.9,0,2.9,1.4,2.9,3.3c0,0.3,0,0.6-0.1,0.8H334c0.1,1.3,0.9,2,2,2c0.6,0,1.1-0.2,1.6-0.5
				l0.5,1c-0.7,0.4-1.5,0.7-2.4,0.7c-1.9,0-3.4-1.3-3.4-3.6C332.4,73.6,334,72.2,335.6,72.2z M337,75.2c0-1.1-0.5-1.8-1.4-1.8
				c-0.8,0-1.5,0.6-1.7,1.8H337z"/>
			<path fill="#7B7C7D" d="M340.2,73.7h-1v-1.2l1.1-0.1l0.2-1.9h1.4v1.9h1.8v1.3h-1.8V77c0,0.8,0.3,1.2,1,1.2c0.2,0,0.5-0.1,0.7-0.2
				l0.3,1.2c-0.4,0.1-0.9,0.3-1.4,0.3c-1.6,0-2.2-1-2.2-2.5V73.7z"/>
			<path fill="#7B7C7D" d="M345.3,73.7h-1v-1.2l1.1-0.1l0.2-1.9h1.4v1.9h1.8v1.3H347V77c0,0.8,0.3,1.2,1,1.2c0.2,0,0.5-0.1,0.7-0.2
				l0.3,1.2c-0.4,0.1-0.9,0.3-1.4,0.3c-1.6,0-2.2-1-2.2-2.5V73.7z"/>
			<path fill="#7B7C7D" d="M350,70.3c0-0.6,0.4-0.9,1-0.9c0.6,0,1,0.4,1,0.9c0,0.5-0.4,0.9-1,0.9C350.4,71.2,350,70.8,350,70.3z
				 M350.2,72.4h1.6v6.9h-1.6V72.4z"/>
			<path fill="#7B7C7D" d="M356.8,78h2v-5.9h-1.7v-1c0.9-0.2,1.5-0.4,2.1-0.7h1.2V78h1.8v1.3h-5.4V78z"/>
		</g>
	</g>
	<g>
		<g>
			<path fill="#7B7C7D" d="M320.1,141.2l-2-3.6h-1.4v3.6h-1.6v-9.2h3.1c1.9,0,3.4,0.7,3.4,2.7c0,1.4-0.7,2.3-1.8,2.6l2.2,3.9H320.1z
				 M316.7,136.3h1.3c1.3,0,1.9-0.5,1.9-1.6c0-1.1-0.7-1.4-1.9-1.4h-1.3V136.3z"/>
			<path fill="#7B7C7D" d="M326.1,134.1c1.9,0,2.9,1.4,2.9,3.3c0,0.3,0,0.6-0.1,0.8h-4.4c0.1,1.3,0.9,2,2,2c0.6,0,1.1-0.2,1.6-0.5
				l0.5,1c-0.7,0.4-1.5,0.7-2.4,0.7c-1.9,0-3.4-1.3-3.4-3.6C322.9,135.5,324.5,134.1,326.1,134.1z M327.6,137.1
				c0-1.1-0.5-1.8-1.4-1.8c-0.8,0-1.5,0.6-1.7,1.8H327.6z"/>
			<path fill="#7B7C7D" d="M330.8,135.5h-1v-1.2l1.1-0.1l0.2-1.9h1.4v1.9h1.8v1.3h-1.8v3.3c0,0.8,0.3,1.2,1,1.2
				c0.2,0,0.5-0.1,0.7-0.2l0.3,1.2c-0.4,0.1-0.9,0.3-1.4,0.3c-1.6,0-2.2-1-2.2-2.5V135.5z"/>
			<path fill="#7B7C7D" d="M335.9,135.5h-1v-1.2l1.1-0.1l0.2-1.9h1.4v1.9h1.8v1.3h-1.8v3.3c0,0.8,0.3,1.2,1,1.2
				c0.2,0,0.5-0.1,0.7-0.2l0.3,1.2c-0.4,0.1-0.9,0.3-1.4,0.3c-1.6,0-2.2-1-2.2-2.5V135.5z"/>
			<path fill="#7B7C7D" d="M340.5,132.1c0-0.6,0.4-0.9,1-0.9c0.6,0,1,0.4,1,0.9c0,0.5-0.4,0.9-1,0.9
				C340.9,133,340.5,132.7,340.5,132.1z M340.7,134.2h1.6v6.9h-1.6V134.2z"/>
			<path fill="#7B7C7D" d="M344.4,131.2h1.6v8.3c0,0.4,0.2,0.5,0.4,0.5c0.1,0,0.1,0,0.3,0l0.2,1.2c-0.2,0.1-0.5,0.1-0.9,0.1
				c-1.2,0-1.6-0.7-1.6-1.9V131.2z"/>
			<path fill="#7B7C7D" d="M348,132.1c0-0.6,0.4-0.9,1-0.9c0.6,0,1,0.4,1,0.9c0,0.5-0.4,0.9-1,0.9C348.5,133,348,132.7,348,132.1z
				 M348.2,134.2h1.6v6.9h-1.6V134.2z"/>
			<path fill="#7B7C7D" d="M351.9,134.2h1.3l0.1,0.9h0.1c0.6-0.6,1.3-1.1,2.3-1.1c1.5,0,2.1,1,2.1,2.8v4.3h-1.6V137
				c0-1.1-0.3-1.6-1.1-1.6c-0.6,0-1,0.3-1.6,0.9v4.8h-1.6V134.2z"/>
			<path fill="#7B7C7D" d="M362.6,134.1c1.9,0,2.9,1.4,2.9,3.3c0,0.3,0,0.6-0.1,0.8H361c0.1,1.3,0.9,2,2,2c0.6,0,1.1-0.2,1.6-0.5
				l0.5,1c-0.7,0.4-1.5,0.7-2.4,0.7c-1.9,0-3.4-1.3-3.4-3.6C359.4,135.5,360.9,134.1,362.6,134.1z M364,137.1c0-1.1-0.5-1.8-1.4-1.8
				c-0.8,0-1.5,0.6-1.7,1.8H364z"/>
			<path fill="#7B7C7D" d="M369.8,134.1c1.7,0,3.3,1.3,3.3,3.6c0,2.3-1.6,3.6-3.3,3.6c-1.7,0-3.3-1.3-3.3-3.6
				C366.5,135.4,368.1,134.1,369.8,134.1z M369.8,140c1,0,1.6-0.9,1.6-2.3c0-1.4-0.6-2.3-1.6-2.3c-1,0-1.6,0.9-1.6,2.3
				C368.2,139.1,368.8,140,369.8,140z"/>
		</g>
	</g>
</g>
</svg>
