<?xml version="1.0" encoding="utf-8"?>
<!-- Generator: Adobe Illustrator 18.1.0, SVG Export Plug-In . SVG Version: 6.00 Build 0)  -->
<!DOCTYPE svg PUBLIC "-//W3C//DTD SVG 1.0//EN" "http://www.w3.org/TR/2001/REC-SVG-20010904/DTD/svg10.dtd">
<svg version="1.0" xmlns="http://www.w3.org/2000/svg" xmlns:xlink="http://www.w3.org/1999/xlink" x="0px" y="0px"
	 viewBox="0 0 504 251" enable-background="new 0 0 504 251" xml:space="preserve">
<g id="trazado">
	<path fill="#B7B5B6" d="M282.4,0.3C278.9,1,277,3,276,4.5c-2.3,3.6-1.4,7.8-1.3,8.3c0,0,19.2,81.6,19.2,81.6l0.1,0.3
		c0.1,0.4,0.5,1.8-1.1,3.2c-1.2,1.1-2.2,0.8-2.8,0.4l-0.1-0.1l-0.2-0.1l-40.4-21.4c-0.3-0.2-8.3-4.4-17.5,1
		c-9.7,5.6-9.8,14.8-9.8,18.2l0,1.4c0,3.4,0,6.9-2.9,9.7c-3.4,3.3-7.5,3.5-10.8,3.6l-0.2,0c-3.6,0.1-47.1,3.4-49,3.5
		c-0.4,0-8.1,0.8-15.1,6.5c-6.9,5.6-9.6,12.3-9.7,12.5l-16.5,41.7l-0.1,0.3c-0.2,1.1-1.2,6.9,2.4,10.2c2.2,2,6,4.1,11.6,2.3
		c3-0.9,104.4-30.8,105.4-31.1c1.7-0.4,7.2-1.1,10.4,1.4c3.8,3,4.2,5.3,4.2,5.3l0-0.2l0,0.5l0.2,0.6c0,0,3.6,10.3,3.9,11
		c0,0.1,0,0.1,0,0.2c0,0.4,0,1.1-0.3,1.5c-0.2,0.3-0.7,1.3-3.6,1.7c-3.3,0.5-111,17.8-115.6,18.5l0.3,0c-4.7,0.3-13.5,3.5-13.3,13.1
		l0.1,9.1l0.1,0.5c1.2,4.1,5.2,11.1,12.7,10.9c6.6-0.2,127.6-7.1,132.7-7.4c0.8-0.1,7-0.7,9.6-5.3c1.1-2,2-5.3-0.4-10.2
		c-1.2-2.5-0.1-4,0.3-4.4l0.2-0.2l12.8-14.3l0.2-0.3c0.2-0.3,0.9-1.1,2.4-0.9l0.3,0l40.2-2.1c0.6,0,4.7-0.4,7.1-3.8
		c1.1-1.6,2.1-4.3,1-8.4L294.8,7C293.8,3.9,290-1.3,282.4,0.3L282.4,0.3z M281.9,11.1c-0.4-2,0.3-3.2,2-3.5c2.4-0.5,3.4,0.6,3.8,1.6
		c0.1,0.4,47.6,166.3,47.6,166.3c0.1,0.5,0.2,0.9,0.2,1.2c0,0.4,0,0.7-0.1,0.9c-0.2,0.4-1,0.6-1.5,0.7c0,0-39.6,2-39.8,2.1
		c-4.8-0.3-7.9,2.6-9,4.4l0.4-0.6l-12.6,14.1l0.3-0.3c-2,1.8-4.9,6.9-1.9,13.1c0.7,1.4,0.9,2.6,0.6,3.2c-0.5,0.9-2.5,1.5-3.7,1.6
		c-1.2,0.1-125.9,7.2-132.4,7.4c-3,0.1-4.7-3.9-5.2-5.2c0-1-0.1-8-0.1-8c-0.1-4.8,5.4-5.5,6.5-5.6l0.1,0l0.2,0
		c1.1-0.2,112.2-18,115.5-18.5c4.5-0.6,7.5-2.5,9.2-5.7c1-2,1.1-4,1.1-5.3c0-0.7-0.1-1.2-0.2-1.4l0-0.2c0,0-3.8-10.7-4-11.3
		c-0.3-1.7-1.5-5.6-6.9-9.8c-6.8-5.3-16.6-2.9-17-2.8c-4.3,1.3-102.6,30.3-105.7,31.2c-2.3,0.7-3.4,0.1-4.3-0.7
		c-0.2-0.2-0.3-0.7-0.3-1.4c0-0.5,0-1.2,0.1-1.7c0.3-0.9,16.2-40.9,16.2-40.9c0-0.1,2.2-5.2,7.5-9.5c5.2-4.2,11-4.9,11.1-4.9
		c15.5-1.2,45.8-3.4,48.6-3.5l0.2,0c3.8-0.1,10.3-0.3,15.7-5.7c5.2-5,5.1-11.1,5.1-15.1l0-1.2c0.1-4.4,0.8-8.9,6.1-11.9
		c5.6-3.2,10.1-0.9,10.3-0.8l40.4,21.4l-0.4-0.3c2.2,1.5,7.5,3.3,12.1-1c4.4-4.1,3.9-9.1,2.9-11.5l0.2,0.6L281.9,11.1L281.9,11.1z"
		/>
</g>
<g id="PUNTOS_INTERMEDIOS_Y_SEMAFORO">
	<path fill="#AC1737" d="M214,171.1c-0.5,0.2-1-0.1-1.1-0.6l-10.4-31.4c-0.2-0.5,0.1-1,0.6-1.1c0.5-0.2,1,0.1,1.1,0.6l10.4,31.4
		C214.7,170.4,214.4,170.9,214,171.1z"/>
	<path fill="#AC1737" d="M194,124.1c-0.5,0-0.9-0.4-0.9-0.9l-0.9-33c0-0.5,0.4-0.9,0.9-0.9c0.5,0,0.9,0.4,0.9,0.9l0.9,33
		C194.8,123.7,194.5,124.1,194,124.1z"/>
	<path fill="#AC1737" d="M305.3,139.8c-0.2-0.5,0.1-1,0.6-1.1l31.4-10.4c0.5-0.2,1,0.1,1.1,0.6c0.2,0.5-0.1,1-0.6,1.1l-31.4,10.4
		C306,140.5,305.5,140.2,305.3,139.8z"/>
	<path fill="#AC1737" d="M291.7,38.9c-0.2-0.5,0.1-1,0.6-1.1l31.4-10.4c0.5-0.2,1,0.1,1.1,0.6s-0.1,1-0.6,1.1l-31.4,10.4
		C292.3,39.6,291.8,39.4,291.7,38.9z"/>
	<g>
		<path fill="#AC1737" d="M189,215.1c0.5,0,0.9,0.4,0.9,0.9l-0.4,25.3c0,0.5-0.4,0.8-0.8,0.8l-17.7-0.3c-0.5,0-0.9-0.4-0.9-0.9
			c0-0.5,0.4-0.9,0.9-0.9l16.4,0.3c0.2,0,0.3-0.1,0.3-0.3l0.4-24C188.1,215.5,188.5,215.1,189,215.1z"/>
		<path fill="#AC1737" d="M167.8,240.4c-0.4,0.2-0.4,0.7,0,0.9l3.2,1.9l3.2,1.9c0.4,0.2,0.8,0,0.8-0.5l0.1-3.7l0.1-3.7
			c0-0.4-0.4-0.7-0.8-0.5l-3.2,1.8L167.8,240.4z"/>
	</g>
	<g>
		<path fill="#AC1737" d="M175.6,206.1c0-4.2,3.4-7.6,7.7-7.6h11.7c4.2,0,7.6,3.4,7.6,7.6v4.8c0,4.2-3.4,7.6-7.6,7.6h-11.7
			c-4.2,0-7.7-3.4-7.7-7.6V206.1L175.6,206.1z"/>
		<g>
			<path fill="#FFFFFF" d="M183.1,204.4h5v1.2h-3.5v2.3h3v1.2h-3v3.5h-1.5V204.4z"/>
			<path fill="#FFFFFF" d="M190.1,204.4h1.5v7.1h3.4v1.2h-4.9V204.4z"/>
		</g>
	</g>
	<g>
		<path fill="#AC1737" d="M194.8,136.2c0-4.2,3.4-7.6,7.7-7.6h3.9c4.2,0,7.7,3.4,7.7,7.6v5.5c0,4.2-3.4,7.7-7.7,7.7h-3.9
			c-4.2,0-7.7-3.4-7.7-7.7V136.2L194.8,136.2z"/>
		<g>
			<path fill="#FFFFFF" d="M199.9,135.3c0-0.5,0.4-0.8,0.9-0.8c0.5,0,0.9,0.3,0.9,0.8c0,0.5-0.4,0.8-0.9,0.8
				C200.3,136.1,199.9,135.8,199.9,135.3z M200.1,137.2h1.5v6.2h-1.5V137.2z"/>
			<path fill="#FFFFFF" d="M204,142.3h1.8V137h-1.5V136c0.8-0.2,1.4-0.4,1.9-0.7h1.1v6.9h1.6v1.2H204V142.3z"/>
		</g>
	</g>
	<g>
		<path fill="#AC1737" d="M309.4,24.6c0-4.2,3.4-7.7,7.6-7.7h5.1c4.2,0,7.7,3.4,7.7,7.7v5.1c0,4.2-3.4,7.6-7.7,7.6h-5.1
			c-4.2,0-7.6-3.4-7.6-7.6V24.6L309.4,24.6z"/>
		<g>
			<path fill="#FFFFFF" d="M315.1,23.5c0-0.5,0.4-0.8,0.9-0.8c0.5,0,0.9,0.3,0.9,0.8c0,0.5-0.4,0.8-0.9,0.8
				C315.5,24.3,315.1,23.9,315.1,23.5z M315.3,25.4h1.5v6.2h-1.5V25.4z"/>
			<path fill="#FFFFFF" d="M319.3,29.7c0.5,0.5,1.1,0.9,1.9,0.9c0.9,0,1.5-0.5,1.5-1.2c0-0.8-0.5-1.4-2.4-1.4v-1.1
				c1.6,0,2.1-0.5,2.1-1.3c0-0.7-0.5-1.1-1.2-1.1c-0.6,0-1.1,0.3-1.6,0.8l-0.8-0.9c0.7-0.6,1.5-1,2.4-1c1.5,0,2.6,0.8,2.6,2.1
				c0,0.9-0.5,1.5-1.4,1.9v0.1c1,0.3,1.7,0.9,1.7,2c0,1.5-1.3,2.3-2.8,2.3c-1.3,0-2.2-0.5-2.7-1.1L319.3,29.7z"/>
		</g>
	</g>
	<g>
		<path fill="#AC1737" d="M182.3,94.9c0-4.2,3.4-7.7,7.6-7.7h5c4.2,0,7.7,3.4,7.7,7.7v5.1c0,4.2-3.4,7.7-7.7,7.7h-5
			c-4.2,0-7.6-3.4-7.6-7.7V94.9L182.3,94.9z"/>
		<g>
			<path fill="#FFFFFF" d="M187.9,93.8c0-0.5,0.4-0.8,0.9-0.8c0.5,0,0.9,0.3,0.9,0.8c0,0.5-0.4,0.8-0.9,0.8
				C188.3,94.6,187.9,94.3,187.9,93.8z M188.1,95.7h1.5v6.2h-1.5V95.7z"/>
			<path fill="#FFFFFF" d="M191.6,101.1c2.2-2.2,3.7-3.6,3.7-4.8c0-0.9-0.5-1.4-1.3-1.4c-0.6,0-1.1,0.4-1.6,0.9l-0.8-0.8
				c0.7-0.8,1.5-1.2,2.6-1.2c1.5,0,2.6,1,2.6,2.5c0,1.4-1.3,2.9-2.9,4.6c0.4,0,1-0.1,1.3-0.1h2v1.2h-5.5V101.1z"/>
		</g>
	</g>
	<g>
		<path fill="#AC1737" d="M302.2,131.8c0-4.2,3.4-7.6,7.6-7.6h2.7c4.2,0,7.6,3.4,7.6,7.6v4.8c0,4.2-3.4,7.6-7.6,7.6h-2.7
			c-4.2,0-7.6-3.4-7.6-7.6V131.8L302.2,131.8z"/>
		<g>
			<path fill="#FFFFFF" d="M309,136.3c0.6,0.6,1.4,0.9,2.2,0.9c0.9,0,1.4-0.4,1.4-1.1c0-0.7-0.5-0.9-1.3-1.2l-1.1-0.5
				c-0.8-0.3-1.7-1-1.7-2.2c0-1.3,1.2-2.3,2.8-2.3c1,0,1.9,0.4,2.6,1.1l-0.8,0.9c-0.5-0.4-1.1-0.7-1.8-0.7c-0.8,0-1.3,0.4-1.3,1
				c0,0.6,0.6,0.9,1.3,1.2l1.1,0.5c1,0.4,1.7,1,1.7,2.2c0,1.3-1.1,2.5-3,2.5c-1.1,0-2.2-0.4-3-1.2L309,136.3z"/>
		</g>
	</g>
</g>
<g id="textos_y_numeros">
	<g>
		<g>
			<path fill="#7B7C7D" d="M168,7.1h1.6v3.7h3.7V7.1h1.6v9.2h-1.6v-4.1h-3.7v4.1H168V7.1z"/>
			<path fill="#7B7C7D" d="M181,11.9c0-0.7-0.3-1.4-1.3-1.4c-0.7,0-1.3,0.3-1.9,0.7l-0.6-1.1c0.8-0.5,1.7-0.9,2.8-0.9
				c1.7,0,2.6,1.1,2.6,3v4.1h-1.3l-0.1-0.8h0c-0.6,0.5-1.3,0.9-2.1,0.9c-1.2,0-2.1-0.8-2.1-2C176.9,13,178.2,12.2,181,11.9z
				 M179.5,15.2c0.6,0,1-0.3,1.5-0.8v-1.6c-1.9,0.2-2.5,0.7-2.5,1.4C178.5,15,178.9,15.2,179.5,15.2z"/>
			<path fill="#7B7C7D" d="M184.4,7.3c0-0.6,0.4-0.9,1-0.9s1,0.4,1,0.9c0,0.5-0.4,0.9-1,0.9S184.4,7.8,184.4,7.3z M184.6,9.4h1.6
				v6.9h-1.6V9.4z"/>
			<path fill="#7B7C7D" d="M188.3,9.4h1.3l0.1,1.2h0.1c0.5-0.9,1.2-1.4,2-1.4c0.4,0,0.6,0,0.8,0.1l-0.3,1.4
				c-0.2-0.1-0.4-0.1-0.7-0.1c-0.6,0-1.2,0.4-1.6,1.4v4.2h-1.6V9.4z"/>
			<path fill="#7B7C7D" d="M195.2,16.9v2.2h-1.6V9.4h1.3l0.1,0.7h0.1c0.6-0.5,1.3-0.9,2.1-0.9c1.7,0,2.7,1.4,2.7,3.5
				c0,2.4-1.4,3.7-3,3.7c-0.6,0-1.2-0.3-1.8-0.8L195.2,16.9z M196.6,15.2c0.9,0,1.6-0.8,1.6-2.4c0-1.4-0.5-2.2-1.5-2.2
				c-0.5,0-1,0.3-1.5,0.8v3.2C195.7,15,196.2,15.2,196.6,15.2z"/>
			<path fill="#7B7C7D" d="M201.3,7.3c0-0.6,0.4-0.9,1-0.9s1,0.4,1,0.9c0,0.5-0.4,0.9-1,0.9S201.3,7.8,201.3,7.3z M201.5,9.4h1.6
				v6.9h-1.6V9.4z"/>
			<path fill="#7B7C7D" d="M205.2,9.4h1.3l0.1,0.9h0.1c0.6-0.6,1.3-1.1,2.3-1.1c1.5,0,2.1,1,2.1,2.8v4.3h-1.6v-4.1
				c0-1.1-0.3-1.6-1.1-1.6c-0.6,0-1,0.3-1.6,0.9v4.8h-1.6V9.4z"/>
			<path fill="#7B7C7D" d="M219.9,6.9c1.1,0,2,0.6,2.6,1.2l-0.9,1c-0.5-0.5-1-0.8-1.7-0.8c-1.5,0-2.6,1.3-2.6,3.3
				c0,2.1,1,3.4,2.5,3.4c0.8,0,1.4-0.3,1.9-0.9l0.9,1c-0.7,0.9-1.7,1.3-2.9,1.3c-2.3,0-4.2-1.7-4.2-4.8
				C215.6,8.7,217.5,6.9,219.9,6.9z"/>
			<path fill="#7B7C7D" d="M224,9.4h1.6v4.1c0,1.1,0.3,1.6,1.1,1.6c0.6,0,1-0.3,1.5-1V9.4h1.6v6.9h-1.3l-0.1-1h0
				c-0.6,0.7-1.3,1.2-2.2,1.2c-1.5,0-2.1-1-2.1-2.8V9.4z"/>
			<path fill="#7B7C7D" d="M231.9,9.4h1.3l0.1,1.2h0.1c0.5-0.9,1.2-1.4,2-1.4c0.4,0,0.6,0,0.8,0.1l-0.3,1.4
				c-0.2-0.1-0.4-0.1-0.7-0.1c-0.6,0-1.2,0.4-1.6,1.4v4.2h-1.6V9.4z"/>
			<path fill="#7B7C7D" d="M236.3,9.4h1.7l1.1,3.6c0.2,0.7,0.4,1.4,0.6,2.1h0.1c0.2-0.7,0.4-1.4,0.6-2.1l1.1-3.6h1.6l-2.4,6.9h-1.9
				L236.3,9.4z"/>
			<path fill="#7B7C7D" d="M246.9,9.2c1.9,0,2.9,1.4,2.9,3.3c0,0.3,0,0.6-0.1,0.8h-4.4c0.1,1.3,0.9,2,2,2c0.6,0,1.1-0.2,1.6-0.5
				l0.5,1c-0.7,0.4-1.5,0.7-2.4,0.7c-1.9,0-3.4-1.3-3.4-3.6C243.7,10.6,245.3,9.2,246.9,9.2z M248.4,12.3c0-1.1-0.5-1.8-1.4-1.8
				c-0.8,0-1.5,0.6-1.7,1.8H248.4z"/>
		</g>
	</g>
	<g>
		<g>
			<path fill="#7B7C7D" d="M316,38.8l0.6,2c0.7,2.3-0.2,4-2.7,4.7c-2.5,0.7-4.2-0.3-4.8-2.5l-0.6-2.1L316,38.8z M310.1,42.5
				c0.4,1.5,1.5,2.2,3.4,1.6c1.8-0.5,2.4-1.6,2-3.2l-0.2-0.6l-5.4,1.5L310.1,42.5z"/>
			<path fill="#7B7C7D" d="M316.9,48.7c0.4,1.4-0.3,3-2.2,3.5c-1.9,0.5-3.3-0.4-3.7-1.9c-0.4-1.4,0.3-3,2.2-3.5
				C315.1,46.3,316.5,47.3,316.9,48.7z M312.1,50.1c0.2,0.8,1.1,1.1,2.3,0.8c1.1-0.3,1.7-1,1.5-1.9c-0.2-0.8-1.1-1.1-2.3-0.8
				C312.4,48.5,311.8,49.2,312.1,50.1z"/>
			<path fill="#7B7C7D" d="M317.8,52.2l0.4,1.3l-2.7,1.5c-0.5,0.3-1,0.5-1.5,0.8l0,0c0.6-0.1,1.2-0.1,1.7-0.1l3.2-0.1l0.3,1.2
				l-2.7,1.6c-0.5,0.3-1,0.6-1.5,0.8l0,0c0.6-0.1,1.1-0.1,1.7-0.2l3.1-0.2l0.4,1.2l-6.1,0.2l-0.4-1.6l2.5-1.4c0.5-0.3,1-0.5,1.6-0.8
				l0,0c-0.6,0.1-1.2,0.1-1.8,0.1l-2.8,0.1l-0.4-1.5L317.8,52.2z"/>
			<path fill="#7B7C7D" d="M320.4,61.4l0.3,1.1l-0.7,0.3l0,0c0.6,0.4,1.2,0.8,1.4,1.6c0.3,1.2-0.3,2-1.8,2.4l-3.6,1l-0.4-1.3l3.4-1
				c0.9-0.3,1.2-0.6,1-1.3c-0.1-0.5-0.5-0.8-1.1-1.1l-4,1.1l-0.4-1.3L320.4,61.4z"/>
			<path fill="#7B7C7D" d="M324.7,67.1l0.4,1.3l-2.1,0.6l-1.1,0.3c0.6,0.3,1.1,0.8,1.4,1.6c0.3,1.2-0.3,2-1.8,2.4l-3.6,1l-0.4-1.3
				l3.4-1c0.9-0.3,1.2-0.6,1-1.3c-0.1-0.5-0.5-0.8-1.1-1.1l-4,1.1l-0.4-1.3L324.7,67.1z"/>
			<path fill="#7B7C7D" d="M324,74.3l0.4,1.3l-5.7,1.6l-0.4-1.3L324,74.3z M325.7,73.6c0.5-0.1,0.9,0.1,1,0.6c0.1,0.5-0.1,0.9-0.5,1
				c-0.4,0.1-0.8-0.1-1-0.6C325.1,74.2,325.3,73.8,325.7,73.6z"/>
			<path fill="#7B7C7D" d="M327.4,76.6l0.4,1.3l-6.8,1.9c-0.3,0.1-0.4,0.3-0.4,0.4c0,0.1,0,0.1,0.1,0.2l-0.9,0.5
				c-0.1-0.1-0.2-0.4-0.3-0.7c-0.3-0.9,0.2-1.5,1.2-1.7L327.4,76.6z"/>
			<path fill="#7B7C7D" d="M328.3,79.7l0.4,1.3l-6.8,1.9c-0.3,0.1-0.4,0.3-0.4,0.4c0,0.1,0,0.1,0.1,0.2l-0.9,0.5
				c-0.1-0.1-0.2-0.4-0.3-0.7c-0.3-0.9,0.2-1.5,1.2-1.7L328.3,79.7z"/>
			<path fill="#7B7C7D" d="M323.7,87.4c-0.4,0.7-0.5,1.5-0.3,2.2c0.2,0.8,0.8,1.2,1.3,1c0.6-0.2,0.7-0.7,0.8-1.5l0.2-1.2
				c0.1-0.8,0.5-1.8,1.6-2.1c1.2-0.3,2.4,0.5,2.8,1.9c0.3,0.9,0.1,1.8-0.3,2.6l-1.1-0.4c0.3-0.6,0.4-1.2,0.2-1.8
				c-0.2-0.7-0.7-1.1-1.2-0.9c-0.6,0.2-0.6,0.8-0.7,1.5l-0.1,1.1c-0.1,1-0.5,1.8-1.6,2.1c-1.2,0.3-2.5-0.4-3-2.1
				c-0.3-1-0.2-2.1,0.3-3L323.7,87.4z"/>
			<path fill="#7B7C7D" d="M328.1,92.7l-0.2-0.8l1-0.3l0.3,0.9l1.6-0.3l0.3,1.1l-1.5,0.4l0.4,1.4l-1,0.3l-0.4-1.4l-2.7,0.8
				c-0.7,0.2-0.9,0.5-0.8,1.1c0.1,0.2,0.2,0.4,0.3,0.6l-0.9,0.5c-0.2-0.3-0.4-0.6-0.5-1.1c-0.4-1.3,0.3-2,1.5-2.4L328.1,92.7z"/>
			<path fill="#7B7C7D" d="M330.3,96.4l0.3,1.1l-1,0.4l0,0c0.9,0.2,1.4,0.7,1.6,1.3c0.1,0.3,0.1,0.5,0.1,0.7l-1.2,0.1
				c0-0.2,0-0.4-0.1-0.6c-0.1-0.4-0.6-0.9-1.5-1l-3.5,1l-0.4-1.3L330.3,96.4z"/>
			<path fill="#7B7C7D" d="M330.4,104.3c0.6-0.2,1-0.6,0.8-1.3c-0.2-0.6-0.6-1-1-1.4l0.8-0.7c0.6,0.5,1.1,1.2,1.4,2.1
				c0.4,1.4-0.3,2.4-1.8,2.8l-3.4,1l-0.3-1.1l0.6-0.3l0,0c-0.6-0.4-1.1-0.9-1.3-1.5c-0.3-1,0.2-1.9,1.2-2.2
				C328.5,101.3,329.5,102.1,330.4,104.3z M327.3,103.9c0.1,0.5,0.5,0.8,1,1.1l1.3-0.4c-0.6-1.5-1.2-1.9-1.7-1.7
				C327.3,103,327.2,103.4,327.3,103.9z"/>
			<path fill="#7B7C7D" d="M333.3,106.7l0.4,1.3l-5.7,1.6l-0.4-1.3L333.3,106.7z M335,106.1c0.4-0.1,0.9,0.1,1,0.6s-0.1,0.9-0.5,1
				c-0.4,0.1-0.8-0.1-1-0.6S334.5,106.2,335,106.1z"/>
			<path fill="#7B7C7D" d="M328.8,111.7L328.8,111.7c0.1-0.4,0.4-0.7,0.8-0.8c0.4-0.1,0.9,0.1,1.2,0.3l0,0c0.2-0.5,0.6-1,1.3-1.2
				c1.3-0.4,2.3,0.5,2.7,1.7c0.1,0.3,0.1,0.6,0.1,0.9l0.6,2l-1,0.3l-0.3-1c-0.2,0.2-0.5,0.5-0.9,0.6c-1.3,0.4-2.2-0.4-2.5-1.6
				c-0.1-0.2-0.1-0.5-0.1-0.8c-0.2-0.1-0.4-0.2-0.6-0.1c-0.3,0.1-0.5,0.4-0.3,1.1l0.3,1c0.4,1.4,0.2,2.2-0.8,2.5
				c-1.1,0.3-2.3-0.6-2.9-2.5c-0.4-1.4-0.2-2.5,0.8-2.8C327.8,111.1,328.3,111.3,328.8,111.7z M327.4,114c0.3,0.9,0.9,1.4,1.3,1.3
				c0.4-0.1,0.5-0.5,0.3-1.2l-0.2-0.8c-0.1-0.3-0.1-0.6-0.1-0.8c-0.3-0.2-0.6-0.3-0.9-0.2C327.3,112.4,327.2,113.1,327.4,114z
				 M333.1,113.3c0.7-0.2,1-0.7,0.8-1.3c-0.2-0.6-0.7-0.9-1.4-0.7c-0.7,0.2-1,0.8-0.9,1.3C331.8,113.2,332.4,113.5,333.1,113.3z"/>
			<path fill="#7B7C7D" d="M338.3,115l0.4,1.3l-2.1,0.6l-1.1,0.3c0.6,0.3,1.1,0.8,1.4,1.6c0.3,1.2-0.3,2-1.8,2.4l-3.6,1l-0.4-1.3
				l3.4-1c0.9-0.3,1.2-0.6,1-1.3c-0.1-0.5-0.5-0.8-1.1-1.1l-4,1.1l-0.4-1.3L338.3,115z"/>
			<path fill="#7B7C7D" d="M336.7,122.7l-0.2-0.8l1-0.3l0.3,0.9l1.6-0.3l0.3,1.1l-1.5,0.4l0.4,1.4l-1,0.3L337,124l-2.7,0.8
				c-0.7,0.2-0.9,0.5-0.8,1.1c0.1,0.2,0.2,0.4,0.3,0.6l-0.9,0.5c-0.2-0.3-0.4-0.6-0.5-1.1c-0.4-1.3,0.3-2,1.5-2.4L336.7,122.7z"/>
		</g>
	</g>
	<g>
		<g>
			<path fill="#7B7C7D" d="M349.8,202.4c0.3,0.4,0.9,0.7,1.4,0.7c1.1,0,2-0.8,2.1-3.3c-0.5,0.6-1.3,1-2,1c-1.5,0-2.6-0.9-2.6-2.8
				c0-1.8,1.3-2.9,2.8-2.9c1.8,0,3.2,1.4,3.2,4.4c0,3.5-1.7,4.9-3.5,4.9c-1.1,0-1.9-0.5-2.4-1L349.8,202.4z M353.3,198.6
				c-0.2-1.6-0.8-2.3-1.7-2.3c-0.7,0-1.3,0.6-1.3,1.7c0,1.1,0.5,1.6,1.4,1.6C352.2,199.7,352.8,199.4,353.3,198.6z"/>
			<path fill="#7B7C7D" d="M356.1,199.7c0-3,1.2-4.6,3-4.6s3,1.6,3,4.6c0,3-1.2,4.7-3,4.7S356.1,202.8,356.1,199.7z M360.6,199.7
				c0-2.5-0.6-3.3-1.5-3.3c-0.9,0-1.5,0.8-1.5,3.3c0,2.5,0.6,3.4,1.5,3.4C360,203.2,360.6,202.3,360.6,199.7z"/>
			<path fill="#7B7C7D" d="M363.1,198.3c0-1.5,1-2.4,2.2-2.4s2.2,0.9,2.2,2.4c0,1.5-1,2.4-2.2,2.4S363.1,199.8,363.1,198.3z
				 M366.4,198.3c0-0.9-0.4-1.5-1-1.5c-0.7,0-1,0.6-1,1.5c0,0.9,0.4,1.5,1,1.5C366,199.8,366.4,199.2,366.4,198.3z"/>
			<path fill="#7B7C7D" d="M375.8,194.9c1.1,0,2,0.6,2.6,1.2l-0.9,1c-0.5-0.5-1-0.8-1.7-0.8c-1.5,0-2.6,1.3-2.6,3.3
				c0,2.1,1,3.4,2.5,3.4c0.8,0,1.4-0.3,1.9-0.9l0.9,1c-0.7,0.9-1.7,1.3-2.9,1.3c-2.3,0-4.2-1.7-4.2-4.8
				C371.5,196.7,373.4,194.9,375.8,194.9z"/>
			<path fill="#7B7C7D" d="M382.8,197.2c1.7,0,3.3,1.3,3.3,3.6c0,2.3-1.6,3.6-3.3,3.6c-1.7,0-3.3-1.3-3.3-3.6
				C379.5,198.5,381.1,197.2,382.8,197.2z M382.8,203.1c1,0,1.6-0.9,1.6-2.3c0-1.4-0.6-2.3-1.6-2.3c-1,0-1.6,0.9-1.6,2.3
				C381.2,202.2,381.8,203.1,382.8,203.1z"/>
			<path fill="#7B7C7D" d="M387.7,197.3h1.3l0.1,1.2h0.1c0.5-0.9,1.2-1.4,2-1.4c0.4,0,0.6,0,0.8,0.1l-0.3,1.4
				c-0.2-0.1-0.4-0.1-0.7-0.1c-0.6,0-1.2,0.4-1.6,1.4v4.2h-1.6V197.3z"/>
			<path fill="#7B7C7D" d="M393,197.3h1.3l0.1,0.9h0.1c0.6-0.6,1.3-1.1,2.3-1.1c1.5,0,2.1,1,2.1,2.8v4.3h-1.6v-4.1
				c0-1.1-0.3-1.6-1.1-1.6c-0.6,0-1,0.3-1.6,0.9v4.8H393V197.3z"/>
			<path fill="#7B7C7D" d="M403.6,197.2c1.9,0,2.9,1.4,2.9,3.3c0,0.3,0,0.6-0.1,0.8H402c0.1,1.3,0.9,2,2,2c0.6,0,1.1-0.2,1.6-0.5
				l0.5,1c-0.7,0.4-1.5,0.7-2.4,0.7c-1.9,0-3.4-1.3-3.4-3.6C400.4,198.6,402,197.2,403.6,197.2z M405.1,200.2c0-1.1-0.5-1.8-1.4-1.8
				c-0.8,0-1.5,0.6-1.7,1.8H405.1z"/>
			<path fill="#7B7C7D" d="M408,197.3h1.3l0.1,1.2h0.1c0.5-0.9,1.2-1.4,2-1.4c0.4,0,0.6,0,0.8,0.1l-0.3,1.4
				c-0.2-0.1-0.4-0.1-0.7-0.1c-0.6,0-1.2,0.4-1.6,1.4v4.2H408V197.3z"/>
		</g>
	</g>
	<g>
		<g>
			<path fill="#7B7C7D" d="M243.7,112.2h1.7l1.3,4.6c0.3,1,0.5,1.9,0.8,3h0.1c0.3-1.1,0.5-2,0.8-3l1.3-4.6h1.7l-2.9,9.2h-1.9
				L243.7,112.2z"/>
			<path fill="#7B7C7D" d="M259.1,112.1c1.1,0,2,0.6,2.6,1.2l-0.9,1c-0.5-0.5-1-0.8-1.7-0.8c-1.5,0-2.6,1.3-2.6,3.3
				c0,2.1,1,3.4,2.5,3.4c0.8,0,1.4-0.3,1.9-0.9l0.9,1c-0.7,0.9-1.7,1.3-2.9,1.3c-2.3,0-4.2-1.7-4.2-4.8
				C254.9,113.9,256.8,112.1,259.1,112.1z"/>
			<path fill="#7B7C7D" d="M266.2,114.4c1.7,0,3.3,1.3,3.3,3.6c0,2.3-1.6,3.6-3.3,3.6c-1.7,0-3.3-1.3-3.3-3.6
				C262.9,115.7,264.4,114.4,266.2,114.4z M266.2,120.3c1,0,1.6-0.9,1.6-2.3c0-1.4-0.6-2.3-1.6-2.3c-1,0-1.6,0.9-1.6,2.3
				C264.5,119.4,265.1,120.3,266.2,120.3z"/>
			<path fill="#7B7C7D" d="M271.1,114.5h1.3l0.1,1.2h0.1c0.5-0.9,1.2-1.4,2-1.4c0.4,0,0.6,0,0.8,0.1l-0.3,1.4
				c-0.2-0.1-0.4-0.1-0.7-0.1c-0.6,0-1.2,0.4-1.6,1.4v4.2h-1.6V114.5z"/>
			<path fill="#7B7C7D" d="M276.3,114.5h1.3l0.1,0.9h0.1c0.6-0.6,1.3-1.1,2.3-1.1c1.5,0,2.1,1,2.1,2.8v4.3h-1.6v-4.1
				c0-1.1-0.3-1.6-1.1-1.6c-0.6,0-1,0.3-1.6,0.9v4.8h-1.6V114.5z"/>
			<path fill="#7B7C7D" d="M287,114.4c1.9,0,2.9,1.4,2.9,3.3c0,0.3,0,0.6-0.1,0.8h-4.4c0.1,1.3,0.9,2,2,2c0.6,0,1.1-0.2,1.6-0.5
				l0.5,1c-0.7,0.4-1.5,0.7-2.4,0.7c-1.9,0-3.4-1.3-3.4-3.6C283.8,115.7,285.3,114.4,287,114.4z M288.4,117.4c0-1.1-0.5-1.8-1.4-1.8
				c-0.8,0-1.5,0.6-1.7,1.8H288.4z"/>
			<path fill="#7B7C7D" d="M291.4,114.5h1.3l0.1,1.2h0.1c0.5-0.9,1.2-1.4,2-1.4c0.4,0,0.6,0,0.8,0.1l-0.3,1.4
				c-0.2-0.1-0.4-0.1-0.7-0.1c-0.6,0-1.2,0.4-1.6,1.4v4.2h-1.6V114.5z"/>
		</g>
	</g>
	<g>
		<g>
			<path fill="#7B7C7D" d="M282.8,232.7h1.7l1.3,4.6c0.3,1,0.5,1.9,0.8,3h0.1c0.3-1.1,0.5-2,0.8-3l1.3-4.6h1.7l-2.9,9.2h-1.9
				L282.8,232.7z"/>
			<path fill="#7B7C7D" d="M291.2,232.9c0-0.6,0.4-0.9,1-0.9c0.6,0,1,0.4,1,0.9c0,0.5-0.4,0.9-1,0.9
				C291.7,233.8,291.2,233.4,291.2,232.9z M291.4,235h1.6v6.9h-1.6V235z"/>
			<path fill="#7B7C7D" d="M298.1,234.9c0.9,0,1.6,0.4,2,0.8l-0.8,1c-0.4-0.3-0.7-0.5-1.2-0.5c-1.1,0-1.9,0.9-1.9,2.3
				c0,1.4,0.8,2.3,1.8,2.3c0.6,0,1-0.3,1.4-0.6l0.7,1c-0.6,0.6-1.5,0.9-2.3,0.9c-1.9,0-3.3-1.3-3.3-3.6
				C294.7,236.2,296.3,234.9,298.1,234.9z"/>
			<path fill="#7B7C7D" d="M301.9,236.3h-1v-1.2l1.1-0.1l0.2-1.9h1.4v1.9h1.8v1.3h-1.8v3.3c0,0.8,0.3,1.2,1,1.2
				c0.2,0,0.5-0.1,0.7-0.2l0.3,1.2c-0.4,0.1-0.9,0.3-1.4,0.3c-1.6,0-2.2-1-2.2-2.5V236.3z"/>
			<path fill="#7B7C7D" d="M309.6,234.9c1.7,0,3.3,1.3,3.3,3.6c0,2.3-1.6,3.6-3.3,3.6c-1.7,0-3.3-1.3-3.3-3.6
				C306.3,236.2,307.8,234.9,309.6,234.9z M309.6,240.8c1,0,1.6-0.9,1.6-2.3c0-1.4-0.6-2.3-1.6-2.3c-1,0-1.6,0.9-1.6,2.3
				C307.9,239.9,308.6,240.8,309.6,240.8z"/>
			<path fill="#7B7C7D" d="M314.5,235h1.3l0.1,1.2h0.1c0.5-0.9,1.2-1.4,2-1.4c0.4,0,0.6,0,0.8,0.1l-0.3,1.4
				c-0.2-0.1-0.4-0.1-0.7-0.1c-0.6,0-1.2,0.4-1.6,1.4v4.2h-1.6V235z"/>
			<path fill="#7B7C7D" d="M320.1,243.5c0.7,0,1.2-0.5,1.4-1.2l0.1-0.4l-2.7-6.8h1.7l1.2,3.4c0.2,0.6,0.4,1.3,0.6,1.9h0.1
				c0.2-0.6,0.4-1.3,0.5-1.9l1-3.4h1.6l-2.5,7.2c-0.6,1.6-1.3,2.5-2.8,2.5c-0.4,0-0.6-0.1-0.9-0.1l0.3-1.3
				C319.7,243.4,319.9,243.5,320.1,243.5z"/>
			<path fill="#7B7C7D" d="M333.5,232.6c1.1,0,2,0.6,2.6,1.2l-0.9,1c-0.5-0.5-1-0.8-1.7-0.8c-1.5,0-2.6,1.3-2.6,3.3
				c0,2.1,1,3.4,2.5,3.4c0.8,0,1.4-0.3,1.9-0.9l0.9,1c-0.7,0.9-1.7,1.3-2.9,1.3c-2.3,0-4.2-1.7-4.2-4.8
				C329.3,234.3,331.1,232.6,333.5,232.6z"/>
			<path fill="#7B7C7D" d="M340.5,234.9c1.7,0,3.3,1.3,3.3,3.6c0,2.3-1.6,3.6-3.3,3.6c-1.7,0-3.3-1.3-3.3-3.6
				C337.3,236.2,338.8,234.9,340.5,234.9z M340.5,240.8c1,0,1.6-0.9,1.6-2.3c0-1.4-0.6-2.3-1.6-2.3c-1,0-1.6,0.9-1.6,2.3
				C338.9,239.9,339.5,240.8,340.5,240.8z"/>
			<path fill="#7B7C7D" d="M345.5,235h1.3l0.1,1.2h0.1c0.5-0.9,1.2-1.4,2-1.4c0.4,0,0.6,0,0.8,0.1l-0.3,1.4
				c-0.2-0.1-0.4-0.1-0.7-0.1c-0.6,0-1.2,0.4-1.6,1.4v4.2h-1.6V235z"/>
			<path fill="#7B7C7D" d="M350.7,235h1.3l0.1,0.9h0.1c0.6-0.6,1.3-1.1,2.3-1.1c1.5,0,2.1,1,2.1,2.8v4.3H355v-4.1
				c0-1.1-0.3-1.6-1.1-1.6c-0.6,0-1,0.3-1.6,0.9v4.8h-1.6V235z"/>
			<path fill="#7B7C7D" d="M361.4,234.9c1.9,0,2.9,1.4,2.9,3.3c0,0.3,0,0.6-0.1,0.8h-4.4c0.1,1.3,0.9,2,2,2c0.6,0,1.1-0.2,1.6-0.5
				l0.5,1c-0.7,0.4-1.5,0.7-2.4,0.7c-1.9,0-3.4-1.3-3.4-3.6C358.2,236.2,359.7,234.9,361.4,234.9z M362.8,237.9
				c0-1.1-0.5-1.8-1.4-1.8c-0.8,0-1.5,0.6-1.7,1.8H362.8z"/>
			<path fill="#7B7C7D" d="M365.8,235h1.3l0.1,1.2h0.1c0.5-0.9,1.2-1.4,2-1.4c0.4,0,0.6,0,0.8,0.1l-0.3,1.4
				c-0.2-0.1-0.4-0.1-0.7-0.1c-0.6,0-1.2,0.4-1.6,1.4v4.2h-1.6V235z"/>
		</g>
	</g>
	<g>
		<g>
			<path fill="#7B7C7D" d="M102.4,113.8h2v-5.9h-1.7v-1c0.9-0.2,1.5-0.4,2.1-0.7h1.2v7.6h1.8v1.3h-5.4V113.8z"/>
			<path fill="#7B7C7D" d="M109.8,112.9c0.5,0.6,1.2,1,2.1,1c1,0,1.7-0.5,1.7-1.4c0-0.9-0.6-1.5-2.6-1.5v-1.2c1.8,0,2.3-0.6,2.3-1.4
				c0-0.7-0.5-1.2-1.3-1.2c-0.7,0-1.3,0.3-1.8,0.8l-0.8-1c0.8-0.7,1.6-1.1,2.7-1.1c1.7,0,2.9,0.8,2.9,2.4c0,1-0.6,1.7-1.6,2.1v0.1
				c1.1,0.3,1.9,1,1.9,2.2c0,1.6-1.4,2.6-3.1,2.6c-1.5,0-2.4-0.6-3-1.3L109.8,112.9z"/>
			<path fill="#7B7C7D" d="M116.4,110.6c0-3,1.2-4.6,3-4.6s3,1.6,3,4.6c0,3-1.2,4.7-3,4.7S116.4,113.6,116.4,110.6z M121,110.6
				c0-2.5-0.6-3.3-1.5-3.3c-0.9,0-1.5,0.8-1.5,3.3c0,2.5,0.6,3.4,1.5,3.4C120.4,114,121,113.1,121,110.6z"/>
			<path fill="#7B7C7D" d="M132.2,115.1l-2-3.6h-1.4v3.6h-1.6v-9.2h3.1c1.9,0,3.4,0.7,3.4,2.7c0,1.4-0.7,2.3-1.8,2.6l2.2,3.9H132.2z
				 M128.8,110.2h1.3c1.3,0,1.9-0.5,1.9-1.6c0-1.1-0.7-1.4-1.9-1.4h-1.3V110.2z"/>
		</g>
	</g>
	<g>
		<g>
			<path fill="#7B7C7D" d="M176.4,73.3c0.7,0.6,1.6,1,2.4,1c1,0,1.6-0.5,1.6-1.2c0-0.8-0.6-1-1.4-1.4l-1.3-0.6
				c-0.9-0.4-1.9-1.1-1.9-2.5c0-1.5,1.3-2.6,3.1-2.6c1.1,0,2.1,0.5,2.9,1.2l-0.8,1c-0.6-0.5-1.2-0.8-2-0.8c-0.9,0-1.4,0.4-1.4,1.1
				c0,0.7,0.7,1,1.5,1.3l1.2,0.5c1.1,0.5,1.9,1.2,1.9,2.5c0,1.5-1.2,2.7-3.3,2.7c-1.2,0-2.4-0.5-3.3-1.4L176.4,73.3z"/>
			<path fill="#7B7C7D" d="M190.4,66.2c1.1,0,2,0.6,2.6,1.2l-0.9,1c-0.5-0.5-1-0.8-1.7-0.8c-1.5,0-2.6,1.3-2.6,3.3
				c0,2.1,1,3.4,2.5,3.4c0.8,0,1.4-0.3,1.9-0.9l0.9,1c-0.7,0.9-1.7,1.3-2.9,1.3c-2.3,0-4.2-1.7-4.2-4.8
				C186.1,68,188,66.2,190.4,66.2z"/>
			<path fill="#7B7C7D" d="M194.5,68.7h1.6v4.1c0,1.1,0.3,1.6,1.1,1.6c0.6,0,1-0.3,1.5-1v-4.7h1.6v6.9H199l-0.1-1h0
				c-0.6,0.7-1.3,1.2-2.2,1.2c-1.5,0-2.1-1-2.1-2.8V68.7z"/>
			<path fill="#7B7C7D" d="M202.4,68.7h1.3l0.1,1.2h0.1c0.5-0.9,1.2-1.4,2-1.4c0.4,0,0.6,0,0.8,0.1l-0.3,1.4
				c-0.2-0.1-0.4-0.1-0.7-0.1c-0.6,0-1.2,0.4-1.6,1.4v4.2h-1.6V68.7z"/>
			<path fill="#7B7C7D" d="M206.8,68.7h1.7l1.1,3.6c0.2,0.7,0.4,1.4,0.6,2.1h0.1c0.2-0.7,0.4-1.4,0.6-2.1l1.1-3.6h1.6l-2.4,6.9h-1.9
				L206.8,68.7z"/>
			<path fill="#7B7C7D" d="M217.4,68.5c1.9,0,2.9,1.4,2.9,3.3c0,0.3,0,0.6-0.1,0.8h-4.4c0.1,1.3,0.9,2,2,2c0.6,0,1.1-0.2,1.6-0.5
				l0.6,1c-0.7,0.4-1.5,0.7-2.4,0.7c-1.9,0-3.4-1.3-3.4-3.6C214.2,69.9,215.8,68.5,217.4,68.5z M218.8,71.6c0-1.1-0.5-1.8-1.4-1.8
				c-0.8,0-1.5,0.6-1.7,1.8H218.8z"/>
		</g>
	</g>
	<g>
		<g>
			<path fill="#7B7C7D" d="M120,238.1h2v-5.9h-1.7v-1c0.9-0.2,1.5-0.4,2.1-0.7h1.2v7.6h1.8v1.3H120V238.1z"/>
		</g>
	</g>
	<g>
		<g>
			<path fill="#7B7C7D" d="M111,207.6c2.5-2.4,4.1-4,4.1-5.4c0-0.9-0.5-1.6-1.5-1.6c-0.7,0-1.3,0.5-1.8,1l-0.9-0.9
				c0.8-0.9,1.6-1.4,2.9-1.4c1.7,0,2.8,1.1,2.8,2.8c0,1.6-1.5,3.2-3.3,5.1c0.5,0,1.1-0.1,1.5-0.1h2.2v1.4H111V207.6z"/>
		</g>
	</g>
	<g>
		<g>
			<path fill="#7B7C7D" d="M268.8,178.4c0.5,0.6,1.2,1,2.1,1c1,0,1.7-0.5,1.7-1.4c0-0.9-0.6-1.5-2.6-1.5v-1.2c1.8,0,2.3-0.6,2.3-1.4
				c0-0.7-0.5-1.2-1.3-1.2c-0.7,0-1.3,0.3-1.8,0.8l-0.8-1c0.8-0.7,1.6-1.1,2.7-1.1c1.7,0,2.9,0.8,2.9,2.4c0,1-0.6,1.7-1.6,2.1v0.1
				c1.1,0.3,1.9,1,1.9,2.2c0,1.6-1.4,2.6-3.1,2.6c-1.5,0-2.4-0.6-3-1.3L268.8,178.4z"/>
		</g>
	</g>
	<g>
		<g>
			<path fill="#7B7C7D" d="M251.4,146.4h-1.1v2.3h-1.5v-2.3h-4v-1.1l3.6-5.6h1.9v5.4h1.1V146.4z M248.8,145.1v-2
				c0-0.5,0-1.3,0.1-1.9h-0.1c-0.2,0.5-0.5,0.9-0.7,1.4l-1.6,2.5H248.8z"/>
		</g>
	</g>
	<g>
		<g>
			<path fill="#7B7C7D" d="M145.4,107.9c-0.3-0.4-0.9-0.7-1.4-0.7c-1.1,0-2,0.8-2.1,3.3c0.5-0.7,1.3-1.1,1.9-1.1
				c1.6,0,2.6,0.9,2.6,2.8c0,1.8-1.3,2.9-2.8,2.9c-1.8,0-3.3-1.4-3.3-4.4c0-3.5,1.7-4.9,3.5-4.9c1.1,0,1.9,0.5,2.4,1L145.4,107.9z
				 M144.9,112.3c0-1.1-0.5-1.6-1.4-1.6c-0.5,0-1.1,0.3-1.6,1c0.2,1.6,0.8,2.3,1.7,2.3C144.3,114,144.9,113.4,144.9,112.3z"/>
		</g>
	</g>
	<g>
		<g>
			<path fill="#7B7C7D" d="M105.2,182.9c0.5,0.5,1.2,1,2.1,1c1,0,1.7-0.6,1.7-1.7c0-1.1-0.7-1.7-1.7-1.7c-0.6,0-0.9,0.2-1.4,0.5
				l-0.8-0.5l0.3-4.4h4.8v1.4h-3.4l-0.2,2.2c0.4-0.2,0.7-0.3,1.2-0.3c1.5,0,2.8,0.9,2.8,2.8c0,2-1.5,3.1-3.2,3.1
				c-1.5,0-2.4-0.6-3.1-1.2L105.2,182.9z"/>
		</g>
	</g>
	<g>
		<g>
			<path fill="#7B7C7D" d="M216.1,99h-4.2v-1.4h6v1c-2.1,2.6-2.5,4.5-2.6,8h-1.7C213.8,103.4,214.4,101.4,216.1,99z"/>
		</g>
	</g>
	<g>
		<g>
			<path fill="#7B7C7D" d="M225.6,71L225.6,71c-0.7-0.5-1.2-1.2-1.2-2.2c0-1.5,1.2-2.4,2.7-2.4c1.6,0,2.6,1,2.6,2.4
				c0,0.9-0.6,1.6-1.2,2.1V71c0.8,0.5,1.6,1.1,1.6,2.3c0,1.4-1.2,2.4-3,2.4c-1.8,0-3-1-3-2.5C223.9,72.2,224.7,71.5,225.6,71z
				 M227,74.6c0.9,0,1.5-0.5,1.5-1.3c0-1-0.9-1.3-2.2-1.8c-0.6,0.4-1,1-1,1.7C225.4,74.1,226.1,74.6,227,74.6z M228.3,69
				c0-0.8-0.5-1.4-1.3-1.4c-0.7,0-1.2,0.5-1.2,1.2c0,0.9,0.8,1.3,1.8,1.7C228.1,70.1,228.3,69.6,228.3,69z"/>
		</g>
	</g>
	<g>
		<g>
			<path fill="#7B7C7D" d="M300.9,114.2c0.3,0.4,0.9,0.7,1.4,0.7c1.1,0,2-0.8,2.1-3.3c-0.5,0.6-1.3,1-2,1c-1.5,0-2.6-0.9-2.6-2.8
				c0-1.8,1.3-2.9,2.8-2.9c1.8,0,3.2,1.4,3.2,4.4c0,3.5-1.7,4.9-3.5,4.9c-1.1,0-1.9-0.5-2.4-1L300.9,114.2z M304.4,110.3
				c-0.2-1.6-0.8-2.3-1.7-2.3c-0.7,0-1.3,0.6-1.3,1.7c0,1.1,0.5,1.6,1.4,1.6C303.3,111.4,303.9,111.1,304.4,110.3z"/>
		</g>
	</g>
	<g>
		<g>
			<path fill="#7B7C7D" d="M256.4,15h2V9.1h-1.7v-1c0.9-0.2,1.5-0.4,2.1-0.7h1.2V15h1.8v1.3h-5.4V15z"/>
			<path fill="#7B7C7D" d="M263.1,11.8c0-3,1.2-4.6,3-4.6s3,1.6,3,4.6c0,3-1.2,4.7-3,4.7S263.1,14.8,263.1,11.8z M267.7,11.8
				c0-2.5-0.6-3.3-1.5-3.3c-0.9,0-1.5,0.8-1.5,3.3c0,2.5,0.6,3.4,1.5,3.4C267,15.2,267.7,14.3,267.7,11.8z"/>
		</g>
	</g>
	<g>
		<g>
			<path fill="#7B7C7D" d="M349.3,187.7h2v-5.9h-1.7v-1c0.9-0.2,1.5-0.4,2.1-0.7h1.2v7.6h1.8v1.3h-5.4V187.7z"/>
			<path fill="#7B7C7D" d="M356.6,187.7h2v-5.9h-1.7v-1c0.9-0.2,1.5-0.4,2.1-0.7h1.2v7.6h1.8v1.3h-5.4V187.7z"/>
		</g>
	</g>
	<g>
		<g>
			<path fill="#7B7C7D" d="M293.5,199.3h2v-5.9h-1.7v-1c0.9-0.2,1.5-0.4,2.1-0.7h1.2v7.6h1.8v1.3h-5.4V199.3z"/>
			<path fill="#7B7C7D" d="M300.2,199.7c2.5-2.4,4.1-4,4.1-5.4c0-0.9-0.5-1.6-1.5-1.6c-0.7,0-1.3,0.5-1.8,1l-0.9-0.9
				c0.8-0.9,1.6-1.4,2.9-1.4c1.7,0,2.8,1.1,2.8,2.8c0,1.6-1.5,3.2-3.3,5.1c0.5,0,1.1-0.1,1.5-0.1h2.2v1.4h-6.1V199.7z"/>
		</g>
	</g>
	<g>
		<g>
			<path fill="#7B7C7D" d="M253,202.2h2v-5.9h-1.7v-1c0.9-0.2,1.5-0.4,2.1-0.7h1.2v7.6h1.8v1.3H253V202.2z"/>
			<path fill="#7B7C7D" d="M260.4,201.4c0.5,0.6,1.2,1,2.1,1c1,0,1.7-0.5,1.7-1.4c0-0.9-0.6-1.5-2.6-1.5v-1.2c1.8,0,2.3-0.6,2.3-1.4
				c0-0.7-0.5-1.2-1.3-1.2c-0.7,0-1.3,0.3-1.8,0.8l-0.8-1c0.8-0.7,1.6-1.1,2.7-1.1c1.7,0,2.9,0.8,2.9,2.4c0,1-0.6,1.7-1.6,2.1v0.1
				c1.1,0.3,1.9,1,1.9,2.2c0,1.6-1.4,2.6-3.1,2.6c-1.5,0-2.4-0.6-3-1.3L260.4,201.4z"/>
		</g>
	</g>
	<g>
		<g>
			<path fill="#7B7C7D" d="M283.8,224.6h2v-5.9h-1.7v-1c0.9-0.2,1.5-0.4,2.1-0.7h1.2v7.6h1.8v1.3h-5.4V224.6z"/>
			<path fill="#7B7C7D" d="M296.9,223.6h-1.1v2.3h-1.5v-2.3h-4v-1.1l3.6-5.6h1.9v5.4h1.1V223.6z M294.3,222.4v-2
				c0-0.5,0-1.3,0.1-1.9h-0.1c-0.2,0.5-0.5,0.9-0.7,1.4l-1.6,2.5H294.3z"/>
		</g>
	</g>
</g>
</svg>
