<?xml version="1.0" encoding="utf-8"?>
<!-- Generator: Adobe Illustrator 18.1.0, SVG Export Plug-In . SVG Version: 6.00 Build 0)  -->
<!DOCTYPE svg PUBLIC "-//W3C//DTD SVG 1.0//EN" "http://www.w3.org/TR/2001/REC-SVG-20010904/DTD/svg10.dtd">
<svg version="1.0" xmlns="http://www.w3.org/2000/svg" xmlns:xlink="http://www.w3.org/1999/xlink" x="0px" y="0px"
	 viewBox="0 0 504 251" enable-background="new 0 0 504 251" xml:space="preserve">
<g id="trazado">
	<path fill="#B7B5B6" d="M245.9,14.4c-1.2,0.4-23.8,8.5-34.8,11.4c-11.8,3.1-40.7,9.8-43.8,10.4c-1,0.2-24.8,5.4-30.6,28.1
		c-2,7.6-2.7,13-2.8,17.1c-0.1,5.2,0.9,8.4,2.3,11.7l0.5,1.4c1,2.7,2.6,5.2,4.2,7.6c1.2,1.8,3.3,5.2,3.3,6.4c0,0,0,0.1,0,0.1
		c-0.3,0.8-0.6,1.1-0.8,1.2c-0.2,0.1-0.7,0-1.2-0.3c-4.3-2.6-10.6-5.4-16-3.6c-2.1,0.7-5,2.4-6.7,6.6c-2,4.9-0.7,8.6,0.8,10.7
		c2.9,4.4,8.2,5.9,10.2,6c0,0,157.7,2.5,157.7,2.5l46.9,0.9c1.4,0,5.7,0.2,5.8,4.2c0.1,1.2-0.3,1.8-0.7,2.1
		c-1.3,1.3-4.3,1.6-5.5,1.6l-0.2,0l-0.2,0l-184.5,16l-0.1,0c-5.9,0.9-11.9,4.8-11.1,11.2c0.5,3.7,3,16.3,15.8,22.3
		c10.8,5,21.9,5.6,31.9,1.8l16-6.1c0,0,5.1-1.8,8.6,1.1c4.1,3.5,26.9,26.8,38.6,38.9c2,3.1,6.7,7.5,13.2,6.7c1,0,6.2-0.3,11.1-7.2
		c3.7-5.1,11-15.2,11.2-30c0-1.8,0-3.8-0.3-5.8c-1.1-10.7-10.7-16.5-12-17.2c-0.1,0-8.2-5.3-8.2-5.3c0,0,0-0.1,0-0.2
		c0,0,0-0.1,0-0.1c0.3,0,0.6-0.1,0.8,0l0.3,0l0.4,0c0.4,0,38.7-2.3,48.7-2.1l49.2,1.2l-1.1-0.2c2.5,0.8,8.2,0.8,11.4-5.2
		c2.4-4.4,8.4-14.5,8.6-14.8c0.7-1,1.4-2.6,1.5-4.6c0-2-0.6-4.3-2.4-6.7c-3.1-4.1-35.6-49.8-35.9-50.3c-0.2-0.3-7-10.5-19.9-10.8
		c-5.8-0.1-14,1-19.7,7.2c0,0-0.3,0.4-0.3,0.4c-7.1,8.1-15.5,8.9-21.3,8.1c-13.8-1.9-18.4-15-18.9-19.4c0-0.1-4.7-47.5-4.7-48.1
		c0-0.1,0-0.3,0-0.4c0-2.6-1.3-5.7-4.6-7.4C252.2,11.7,247.3,13.7,245.9,14.4L245.9,14.4z M145.8,117.4c1.8-0.6,4.2-2.1,5.7-5.9
		c1.8-4.6-1.2-9.2-4-13.6c-1.3-2.1-2.7-4.3-3.4-6.2l-0.6-1.6c-1.6-3.9-3.2-8,0.9-23.9c4.6-18,23.8-22.2,24.6-22.3
		c3.7-0.8,32.8-7.6,44.2-10.5c11.6-3,34.6-11.3,35.6-11.6l0.2-0.1l0.2-0.1c1.2-0.6,3.1-1,3.7-0.7c0.2,0.1,0.3,0.2,0.3,0.2
		c0,0,0,0,0,0c0,0.1,0,0.3,0,0.3l0,0.7l4.8,48.6c1.1,9.3,8.8,24,25.7,26.3c10.9,1.5,21-2.3,28.3-10.7L312,86c3.7-4,9.5-4.7,13.7-4.6
		c8.6,0.2,13.3,7.1,13.5,7.4c1.4,2,33,46.4,36.2,50.6c0.8,1,0.9,1.7,0.8,2c0,0,0,0,0,0l-0.3,0.4c-0.3,0.4-6.3,10.5-8.8,15.1
		c-0.2,0.4-0.9,1.6-2.2,1.3l0.1,0l-0.5-0.1l-0.6,0l-49.3-1.3c-10-0.2-46.2,1.9-49,2.1c-3.6-0.3-7.7,1.2-8.8,5.3
		c-1.5,5.4,1.7,8.7,3.5,9.7l-0.3-0.2l8.3,5.4l0.1,0.1c0.1,0,7.5,4.3,8.2,11.3c0.2,1.7,0.2,3.3,0.2,4.8c-0.2,12.3-6.3,20.7-9.7,25.5
		c-2.6,3.7-4.8,3.9-4.9,3.9c0,0-0.1,0-0.1,0l-0.4,0c-3.7,0.6-6-3.2-6.1-3.4l-0.2-0.4l-0.3-0.4c-1.4-1.4-34-35.1-39.5-39.7
		c-7.1-6-16.2-2.6-16.5-2.5c0,0-16,6.1-16,6.1c-8.1,3.1-16.8,2.5-25.8-1.6c-9.1-4.2-10.9-13.4-11.3-16.1c0,0,0-0.1,0-0.1
		c0-1,2.8-2.1,4.4-2.3c0.4,0,183.6-15.9,184-15.9c1.5,0,7.3-0.2,11.1-3.9c1.9-1.9,2.9-4.4,3-7.3c0-0.2,0-0.5,0-0.7
		c-0.4-8.8-8.3-11.8-13.6-11.7c0,0-46.9-0.9-46.9-0.9c0,0-154.6-2.5-157.5-2.5c-0.8-0.1-3.1-1.1-4-2.6c-0.2-0.3-0.4-0.8-0.4-1.4
		c0-0.5,0.1-1.1,0.4-1.9c0.6-1.5,1.3-1.9,1.8-2.1c1.9-0.6,5.5,0.4,9.4,2.8C140.4,117.8,143.3,118.2,145.8,117.4L145.8,117.4z"/>
</g>
<g id="PUNTOS_INTERMEDIOS_Y_SEMAFORO">
	<path fill="#AC1737" d="M148.5,38.8c0.4-0.3,0.9-0.3,1.2,0.1l21.6,25c0.3,0.4,0.3,0.9-0.1,1.2c-0.4,0.3-0.9,0.3-1.2-0.1l-21.6-25
		C148.1,39.7,148.2,39.1,148.5,38.8z"/>
	<path fill="#AC1737" d="M167.9,136.9c-0.5-0.1-0.8-0.5-0.8-1l3.5-32.9c0.1-0.5,0.5-0.8,1-0.8s0.8,0.5,0.8,1l-3.5,32.9
		C168.8,136.6,168.4,137,167.9,136.9z"/>
	<path fill="#AC1737" d="M167.1,177.7c0.5,0.1,0.8,0.6,0.6,1.1l-8,32.1c-0.1,0.5-0.6,0.8-1.1,0.6c-0.5-0.1-0.8-0.6-0.6-1.1l8-32.1
		C166.2,177.9,166.7,177.6,167.1,177.7z"/>
	<path fill="#AC1737" d="M358.8,124c-0.2-0.4-0.1-1,0.4-1.2l29-15.8c0.4-0.2,1-0.1,1.2,0.4s0.1,1-0.4,1.2l-29,15.8
		C359.5,124.6,359,124.5,358.8,124z"/>
	<g>
		<path fill="#AC1737" d="M263.4,113.1c0.5,0,0.9,0.4,0.9,0.9l-0.4,25.3c0,0.5-0.4,0.8-0.8,0.8l-17.7-0.3c-0.5,0-0.9-0.4-0.9-0.9
			c0-0.5,0.4-0.9,0.9-0.9l16.4,0.3c0.2,0,0.3-0.1,0.3-0.3l0.4-24C262.5,113.4,262.9,113.1,263.4,113.1z"/>
		<path fill="#AC1737" d="M242.2,138.4c-0.4,0.2-0.4,0.7,0,0.9l3.2,1.9l3.2,1.9c0.4,0.2,0.8,0,0.8-0.5l0.1-3.7l0.1-3.7
			c0-0.4-0.4-0.7-0.8-0.5l-3.2,1.8L242.2,138.4z"/>
	</g>
	<g>
		<path fill="#AC1737" d="M249.9,107.1c0-4.2,3.4-7.6,7.7-7.6h11.7c4.2,0,7.6,3.4,7.6,7.6v4.8c0,4.2-3.4,7.6-7.6,7.6h-11.7
			c-4.2,0-7.7-3.4-7.7-7.6V107.1L249.9,107.1z"/>
		<g>
			<path fill="#FFFFFF" d="M257.4,105.3h5v1.2h-3.5v2.3h3v1.2h-3v3.5h-1.5V105.3z"/>
			<path fill="#FFFFFF" d="M264.5,105.3h1.5v7.1h3.4v1.2h-4.9V105.3z"/>
		</g>
	</g>
	<g>
		<path fill="#AC1737" d="M157.3,59.6c0-4.2,3.4-7.6,7.7-7.6h3.9c4.2,0,7.7,3.4,7.7,7.6v5.5c0,4.2-3.4,7.7-7.7,7.7H165
			c-4.2,0-7.7-3.4-7.7-7.7V59.6L157.3,59.6z"/>
		<g>
			<path fill="#FFFFFF" d="M162.4,58.7c0-0.5,0.4-0.8,0.9-0.8c0.5,0,0.9,0.3,0.9,0.8c0,0.5-0.4,0.8-0.9,0.8
				C162.8,59.5,162.4,59.2,162.4,58.7z M162.5,60.6h1.5v6.2h-1.5V60.6z"/>
			<path fill="#FFFFFF" d="M166.5,65.7h1.8v-5.3h-1.5v-0.9c0.8-0.2,1.4-0.4,1.9-0.7h1.1v6.9h1.6v1.2h-4.9V65.7z"/>
		</g>
	</g>
	<g>
		<path fill="#AC1737" d="M150.7,209.6c0-4.2,3.4-7.7,7.6-7.7h5.1c4.2,0,7.7,3.4,7.7,7.7v5.1c0,4.2-3.4,7.6-7.7,7.6h-5.1
			c-4.2,0-7.6-3.4-7.6-7.6V209.6L150.7,209.6z"/>
		<g>
			<path fill="#FFFFFF" d="M156.4,208.5c0-0.5,0.4-0.8,0.9-0.8c0.5,0,0.9,0.3,0.9,0.8c0,0.5-0.4,0.8-0.9,0.8
				C156.8,209.3,156.4,208.9,156.4,208.5z M156.6,210.4h1.5v6.2h-1.5V210.4z"/>
			<path fill="#FFFFFF" d="M160.6,214.7c0.5,0.5,1.1,0.9,1.9,0.9c0.9,0,1.5-0.5,1.5-1.2c0-0.8-0.5-1.4-2.4-1.4v-1.1
				c1.6,0,2.1-0.5,2.1-1.3c0-0.7-0.5-1.1-1.2-1.1c-0.6,0-1.1,0.3-1.6,0.8l-0.8-0.9c0.7-0.6,1.5-1,2.4-1c1.5,0,2.6,0.8,2.6,2.1
				c0,0.9-0.5,1.5-1.4,1.9v0.1c1,0.3,1.7,0.9,1.7,2c0,1.5-1.3,2.3-2.8,2.3c-1.3,0-2.2-0.5-2.7-1.1L160.6,214.7z"/>
		</g>
	</g>
	<g>
		<path fill="#7B7C7D" d="M186.2,103c0-4.2,3.4-7.6,7.6-7.6h45.8c4.2,0,7.6,3.4,7.6,7.6v8.3c0,4.2-3.4,7.6-7.6,7.6h-45.8
			c-4.2,0-7.6-3.4-7.6-7.6V103L186.2,103z"/>
		<g>
			<path fill="#FFFFFF" d="M235.1,116.7c-3.9,0-7.1-3.2-7.1-7.1v-4.8c0-3.9,3.2-7.1,7.1-7.1h2.7c3.9,0,7.1,3.2,7.1,7.1v4.8
				c0,3.9-3.2,7.1-7.1,7.1H235.1z"/>
			<path fill="#C7C6C5" d="M237.8,98.1c3.7,0,6.6,3,6.6,6.6v4.8c0,3.7-3,6.6-6.6,6.6h-2.7c-3.7,0-6.6-3-6.6-6.6v-4.8
				c0-3.7,3-6.6,6.6-6.6H237.8 M237.8,97.1h-2.7c-4.2,0-7.6,3.4-7.6,7.6v4.8c0,4.2,3.4,7.6,7.6,7.6h2.7c4.2,0,7.6-3.4,7.6-7.6v-4.8
				C245.5,100.5,242.1,97.1,237.8,97.1L237.8,97.1z"/>
		</g>
		<g>
			<defs>
				<path id="SVGID_33_" d="M227.5,104.8c0-4.2,3.4-7.6,7.6-7.6h2.7c4.2,0,7.6,3.4,7.6,7.6v4.8c0,4.2-3.4,7.6-7.6,7.6h-2.7
					c-4.2,0-7.6-3.4-7.6-7.6V104.8L227.5,104.8z"/>
			</defs>
			<clipPath id="SVGID_2_">
				<use xlink:href="#SVGID_33_"  overflow="visible"/>
			</clipPath>
			<g clip-path="url(#SVGID_2_)">
				<rect x="222.2" y="98.8" fill="#1E1E1C" width="4.2" height="4.2"/>
				<rect x="226.4" y="102.9" fill="#1E1E1C" width="4.2" height="4.2"/>
				<rect x="230.5" y="98.8" fill="#1E1E1C" width="4.2" height="4.2"/>
				<rect x="234.7" y="102.9" fill="#1E1E1C" width="4.2" height="4.2"/>
				<rect x="222.2" y="107.1" fill="#1E1E1C" width="4.2" height="4.2"/>
				<rect x="226.4" y="111.3" fill="#1E1E1C" width="4.2" height="4.2"/>
				<rect x="230.5" y="107.1" fill="#1E1E1C" width="4.2" height="4.2"/>
				<rect x="234.7" y="111.3" fill="#1E1E1C" width="4.2" height="4.2"/>
				<rect x="238.9" y="98.8" fill="#1E1E1C" width="4.2" height="4.2"/>
				<rect x="243" y="102.9" fill="#1E1E1C" width="4.2" height="4.2"/>
				<rect x="238.9" y="107.1" fill="#1E1E1C" width="4.2" height="4.2"/>
				<rect x="243" y="111.3" fill="#1E1E1C" width="4.2" height="4.2"/>
			</g>
		</g>
		<g>
			<path fill="#C01724" d="M195.6,116.7c-3.9,0-7.1-3.2-7.1-7.1v-4.8c0-3.9,3.2-7.1,7.1-7.1h2.7c3.9,0,7.1,3.2,7.1,7.1v4.8
				c0,3.9-3.2,7.1-7.1,7.1H195.6z"/>
			<path fill="#AA1920" d="M198.3,98.1c3.7,0,6.6,3,6.6,6.6v4.8c0,3.7-3,6.6-6.6,6.6h-2.7c-3.7,0-6.6-3-6.6-6.6v-4.8
				c0-3.7,3-6.6,6.6-6.6H198.3 M198.3,97.1h-2.7c-4.2,0-7.6,3.4-7.6,7.6v4.8c0,4.2,3.4,7.6,7.6,7.6h2.7c4.2,0,7.6-3.4,7.6-7.6v-4.8
				C206,100.5,202.5,97.1,198.3,97.1L198.3,97.1z"/>
		</g>
		<g>
			<path fill="#009548" d="M215.4,116.7c-3.9,0-7.1-3.2-7.1-7.1v-4.8c0-3.9,3.2-7.1,7.1-7.1h2.7c3.9,0,7.1,3.2,7.1,7.1v4.8
				c0,3.9-3.2,7.1-7.1,7.1H215.4z"/>
			<path fill="#006139" d="M218.1,98.1c3.7,0,6.6,3,6.6,6.6v4.8c0,3.7-3,6.6-6.6,6.6h-2.7c-3.7,0-6.6-3-6.6-6.6v-4.8
				c0-3.7,3-6.6,6.6-6.6H218.1 M218.1,97.1h-2.7c-4.2,0-7.6,3.4-7.6,7.6v4.8c0,4.2,3.4,7.6,7.6,7.6h2.7c4.2,0,7.6-3.4,7.6-7.6v-4.8
				C225.7,100.5,222.3,97.1,218.1,97.1L218.1,97.1z"/>
		</g>
		<g>
			<path fill="#C7C6C5" d="M237.8,98.1c3.7,0,6.6,3,6.6,6.6v4.8c0,3.7-3,6.6-6.6,6.6h-2.7c-3.7,0-6.6-3-6.6-6.6v-4.8
				c0-3.7,3-6.6,6.6-6.6H237.8 M237.8,97.1h-2.7c-4.2,0-7.6,3.4-7.6,7.6v4.8c0,4.2,3.4,7.6,7.6,7.6h2.7c4.2,0,7.6-3.4,7.6-7.6v-4.8
				C245.5,100.5,242.1,97.1,237.8,97.1L237.8,97.1z"/>
		</g>
	</g>
	<g>
		<path fill="#AC1737" d="M374,107.2c0-4.2,3.4-7.7,7.6-7.7h5c4.2,0,7.7,3.4,7.7,7.7v5.1c0,4.2-3.4,7.7-7.7,7.7h-5
			c-4.2,0-7.6-3.4-7.6-7.7V107.2L374,107.2z"/>
		<g>
			<path fill="#FFFFFF" d="M379.6,106.1c0-0.5,0.4-0.8,0.9-0.8c0.5,0,0.9,0.3,0.9,0.8c0,0.5-0.4,0.8-0.9,0.8
				C379.9,106.9,379.6,106.5,379.6,106.1z M379.7,108h1.5v6.2h-1.5V108z"/>
			<path fill="#FFFFFF" d="M383.2,113.4c2.2-2.2,3.7-3.6,3.7-4.8c0-0.9-0.5-1.4-1.3-1.4c-0.6,0-1.1,0.4-1.6,0.9l-0.8-0.8
				c0.7-0.8,1.5-1.2,2.6-1.2c1.5,0,2.6,1,2.6,2.5c0,1.4-1.3,2.9-2.9,4.6c0.4,0,1-0.1,1.3-0.1h2v1.2h-5.5V113.4z"/>
		</g>
	</g>
	<g>
		<path fill="#AC1737" d="M163.7,105.8c0-4.2,3.4-7.6,7.6-7.6h2.7c4.2,0,7.6,3.4,7.6,7.6v4.8c0,4.2-3.4,7.6-7.6,7.6h-2.7
			c-4.2,0-7.6-3.4-7.6-7.6V105.8L163.7,105.8z"/>
		<g>
			<path fill="#FFFFFF" d="M170.5,110.2c0.6,0.6,1.4,0.9,2.2,0.9c0.9,0,1.4-0.4,1.4-1.1c0-0.7-0.5-0.9-1.3-1.2l-1.1-0.5
				c-0.8-0.3-1.7-1-1.7-2.2c0-1.3,1.2-2.3,2.8-2.3c1,0,1.9,0.4,2.6,1.1l-0.8,0.9c-0.5-0.4-1.1-0.7-1.8-0.7c-0.8,0-1.3,0.4-1.3,1
				c0,0.6,0.6,0.9,1.3,1.2l1.1,0.5c1,0.4,1.7,1,1.7,2.2c0,1.3-1.1,2.5-3,2.5c-1.1,0-2.2-0.4-3-1.2L170.5,110.2z"/>
		</g>
	</g>
</g>
<g id="textos_y_numeros">
	<g>
		<g>
			<path fill="#7B7C7D" d="M266.7,9.6h-1.1v2.3h-1.5V9.6h-4V8.5l3.6-5.6h1.9v5.4h1.1V9.6z M264.1,8.3v-2c0-0.5,0-1.3,0.1-1.9h-0.1
				c-0.2,0.5-0.5,0.9-0.7,1.4l-1.6,2.5H264.1z"/>
		</g>
	</g>
	<g>
		<g>
			<path fill="#7B7C7D" d="M284.7,81.4c0.5,0.5,1.2,1,2.1,1c1,0,1.7-0.6,1.7-1.7c0-1.1-0.7-1.7-1.7-1.7c-0.6,0-0.9,0.2-1.4,0.5
				l-0.8-0.5l0.3-4.4h4.8v1.4h-3.4l-0.2,2.2c0.4-0.2,0.7-0.3,1.2-0.3c1.5,0,2.8,0.9,2.8,2.8c0,2-1.5,3.1-3.2,3.1
				c-1.5,0-2.4-0.6-3.1-1.2L284.7,81.4z"/>
		</g>
	</g>
	<g>
		<g>
			<path fill="#7B7C7D" d="M328.2,90c-0.3-0.4-0.9-0.7-1.4-0.7c-1.1,0-2,0.8-2.1,3.3c0.5-0.7,1.3-1.1,1.9-1.1c1.6,0,2.6,0.9,2.6,2.8
				c0,1.8-1.3,2.9-2.8,2.9c-1.8,0-3.3-1.4-3.3-4.4c0-3.5,1.7-4.9,3.5-4.9c1.1,0,1.9,0.5,2.4,1L328.2,90z M327.7,94.4
				c0-1.1-0.5-1.6-1.4-1.6c-0.5,0-1.1,0.3-1.6,1c0.2,1.6,0.8,2.3,1.7,2.3C327.1,96.1,327.7,95.5,327.7,94.4z"/>
		</g>
	</g>
	<g>
		<g>
			<path fill="#7B7C7D" d="M395.7,135.5h-4.2v-1.4h6v1c-2.1,2.6-2.5,4.5-2.6,8h-1.7C393.3,139.9,393.9,137.9,395.7,135.5z"/>
		</g>
	</g>
	<g>
		<g>
			<path fill="#7B7C7D" d="M373.2,175.6L373.2,175.6c-0.7-0.5-1.2-1.2-1.2-2.2c0-1.5,1.2-2.4,2.7-2.4c1.6,0,2.6,1,2.6,2.4
				c0,0.9-0.6,1.6-1.2,2.1v0.1c0.8,0.5,1.6,1.1,1.6,2.3c0,1.4-1.2,2.4-3,2.4c-1.8,0-3-1-3-2.5C371.6,176.8,372.4,176.1,373.2,175.6z
				 M374.7,179.2c0.9,0,1.5-0.5,1.5-1.3c0-1-0.9-1.3-2.2-1.8c-0.6,0.4-1,1-1,1.7C373,178.7,373.8,179.2,374.7,179.2z M376,173.6
				c0-0.8-0.5-1.4-1.3-1.4c-0.7,0-1.2,0.5-1.2,1.2c0,0.9,0.8,1.3,1.8,1.7C375.7,174.7,376,174.2,376,173.6z"/>
		</g>
	</g>
	<g>
		<g>
			<path fill="#7B7C7D" d="M247.1,169.2c0.3,0.4,0.9,0.7,1.4,0.7c1.1,0,2-0.8,2.1-3.3c-0.5,0.6-1.3,1-2,1c-1.5,0-2.6-0.9-2.6-2.8
				c0-1.8,1.3-2.9,2.8-2.9c1.8,0,3.2,1.4,3.2,4.4c0,3.5-1.7,4.9-3.5,4.9c-1.1,0-1.9-0.5-2.4-1L247.1,169.2z M250.6,165.4
				c-0.2-1.6-0.8-2.3-1.7-2.3c-0.7,0-1.3,0.6-1.3,1.7c0,1.1,0.5,1.6,1.4,1.6C249.5,166.4,250.1,166.1,250.6,165.4z"/>
		</g>
	</g>
	<g>
		<g>
			<path fill="#7B7C7D" d="M292.6,190.5h2v-5.9H293v-1c0.9-0.2,1.5-0.4,2.1-0.7h1.2v7.6h1.8v1.3h-5.4V190.5z"/>
			<path fill="#7B7C7D" d="M299.4,187.3c0-3,1.2-4.6,3-4.6s3,1.6,3,4.6c0,3-1.2,4.7-3,4.7S299.4,190.3,299.4,187.3z M303.9,187.3
				c0-2.5-0.6-3.3-1.5-3.3c-0.9,0-1.5,0.8-1.5,3.3c0,2.5,0.6,3.4,1.5,3.4C303.3,190.7,303.9,189.8,303.9,187.3z"/>
		</g>
	</g>
	<g>
		<g>
			<path fill="#7B7C7D" d="M261.2,244.9h2V239h-1.7v-1c0.9-0.2,1.5-0.4,2.1-0.7h1.2v7.6h1.8v1.3h-5.4V244.9z"/>
			<path fill="#7B7C7D" d="M268.5,244.9h2V239h-1.7v-1c0.9-0.2,1.5-0.4,2.1-0.7h1.2v7.6h1.8v1.3h-5.4V244.9z"/>
		</g>
	</g>
	<g>
		<g>
			<path fill="#7B7C7D" d="M199.9,200.7h2v-5.9h-1.7v-1c0.9-0.2,1.5-0.4,2.1-0.7h1.2v7.6h1.8v1.3h-5.4V200.7z"/>
			<path fill="#7B7C7D" d="M206.6,201.1c2.5-2.4,4.1-4,4.1-5.4c0-0.9-0.5-1.6-1.5-1.6c-0.7,0-1.3,0.5-1.8,1l-0.9-0.9
				c0.8-0.9,1.6-1.4,2.9-1.4c1.7,0,2.8,1.1,2.8,2.8c0,1.6-1.5,3.2-3.3,5.1c0.5,0,1.1-0.1,1.5-0.1h2.2v1.4h-6.1V201.1z"/>
		</g>
	</g>
	<g>
		<g>
			<path fill="#7B7C7D" d="M140.2,199.7h2v-5.9h-1.7v-1c0.9-0.2,1.5-0.4,2.1-0.7h1.2v7.6h1.8v1.3h-5.4V199.7z"/>
			<path fill="#7B7C7D" d="M147.5,198.9c0.5,0.6,1.2,1,2.1,1c1,0,1.7-0.5,1.7-1.4c0-0.9-0.6-1.5-2.6-1.5v-1.2c1.8,0,2.3-0.6,2.3-1.4
				c0-0.7-0.5-1.2-1.3-1.2c-0.7,0-1.3,0.3-1.8,0.8l-0.8-1c0.8-0.7,1.6-1.1,2.7-1.1c1.7,0,2.9,0.8,2.9,2.4c0,1-0.6,1.7-1.6,2.1v0.1
				c1.1,0.3,1.9,1,1.9,2.2c0,1.6-1.4,2.6-3.1,2.6c-1.5,0-2.4-0.6-3-1.3L147.5,198.9z"/>
		</g>
	</g>
	<g>
		<g>
			<path fill="#7B7C7D" d="M123.1,162.5h2v-5.9h-1.7v-1c0.9-0.2,1.5-0.4,2.1-0.7h1.2v7.6h1.8v1.3h-5.4V162.5z"/>
			<path fill="#7B7C7D" d="M136.2,161.6h-1.1v2.3h-1.5v-2.3h-4v-1.1l3.6-5.6h1.9v5.4h1.1V161.6z M133.5,160.3v-2
				c0-0.5,0-1.3,0.1-1.9h-0.1c-0.2,0.5-0.5,0.9-0.7,1.4l-1.6,2.5H133.5z"/>
		</g>
	</g>
	<g>
		<g>
			<path fill="#7B7C7D" d="M110.5,119.9h2V114h-1.7v-1c0.9-0.2,1.5-0.4,2.1-0.7h1.2v7.6h1.8v1.3h-5.4V119.9z"/>
		</g>
	</g>
	<g>
		<g>
			<path fill="#7B7C7D" d="M156.4,100.5c2.5-2.4,4.1-4,4.1-5.4c0-0.9-0.5-1.6-1.5-1.6c-0.7,0-1.3,0.5-1.8,1l-0.9-0.9
				c0.8-0.9,1.6-1.4,2.9-1.4c1.7,0,2.8,1.1,2.8,2.8c0,1.6-1.5,3.2-3.3,5.1c0.5,0,1.1-0.1,1.5-0.1h2.2v1.4h-6.1V100.5z"/>
		</g>
	</g>
	<g>
		<g>
			<path fill="#7B7C7D" d="M138.2,41.4c0.5,0.6,1.2,1,2.1,1c1,0,1.7-0.5,1.7-1.4c0-0.9-0.6-1.5-2.6-1.5v-1.2c1.8,0,2.3-0.6,2.3-1.4
				c0-0.7-0.5-1.2-1.3-1.2c-0.7,0-1.3,0.3-1.8,0.8l-0.8-1c0.8-0.7,1.6-1.1,2.7-1.1c1.7,0,2.9,0.8,2.9,2.4c0,1-0.6,1.7-1.6,2.1v0.1
				c1.1,0.3,1.9,1,1.9,2.2c0,1.6-1.4,2.6-3.1,2.6c-1.5,0-2.4-0.6-3-1.3L138.2,41.4z"/>
		</g>
	</g>
	<g>
		<g>
			<path fill="#7B7C7D" d="M354.1,141.4h2v-5.9h-1.7v-1c0.9-0.2,1.5-0.4,2.1-0.7h1.2v7.6h1.8v1.3h-5.4V141.4z"/>
			<path fill="#7B7C7D" d="M361.3,140.6c0.5,0.5,1.2,1,2.1,1c1,0,1.7-0.6,1.7-1.7c0-1.1-0.7-1.7-1.7-1.7c-0.6,0-0.9,0.2-1.4,0.5
				l-0.8-0.5l0.3-4.4h4.8v1.4H363l-0.2,2.2c0.4-0.2,0.7-0.3,1.2-0.3c1.5,0,2.8,0.9,2.8,2.8c0,2-1.5,3.1-3.2,3.1
				c-1.5,0-2.4-0.6-3.1-1.2L361.3,140.6z"/>
		</g>
	</g>
</g>
</svg>
