<?xml version="1.0" encoding="utf-8"?>
<!-- Generator: Adobe Illustrator 18.1.0, SVG Export Plug-In . SVG Version: 6.00 Build 0)  -->
<!DOCTYPE svg PUBLIC "-//W3C//DTD SVG 1.0//EN" "http://www.w3.org/TR/2001/REC-SVG-20010904/DTD/svg10.dtd">
<svg version="1.0" xmlns="http://www.w3.org/2000/svg" xmlns:xlink="http://www.w3.org/1999/xlink" x="0px" y="0px"
	 viewBox="0 0 504 251" enable-background="new 0 0 504 251" xml:space="preserve">
<g id="trazado">
	<path fill="#B7B5B6" d="M177.2,231.5c-5.2,0-10.3-4.1-11.3-4.9c-1-0.7-6.7-5.1-6.7-12.4c0-8.1,5-15.3,6.7-17.7
		c0.5-0.8,1.3-1.8,2.1-2.9c1.8-2.4,4-5.3,4.9-7.1l0.6-1.1c1.5-2.8,3.3-6.3,5.8-8.8c2.2-2.3,7.6-4.6,14.5-7.5c1.2-0.5,2.4-1,3.4-1.4
		c3.2-1.4,8.4-4,13-6.3c2.7-1.4,5-2.6,6.6-3.3c2.9-1.4,6.3-1.9,9.9-2.4c2.1-0.3,4.4-0.6,6.5-1.2c5.8-1.5,10.1-2.7,15.3-6.3
		c5.6-3.9,8.7-7.8,9.4-11.8c0.8-4.2,1.2-9.2,1.4-14.8c0.1-2.4,0-6.5,0-10.5c0-4,0-7.8,0-9.8c0.1-5.5,2.9-7.1,7-7.8
		c1.7-0.3,2.1-1.1,2.9-3.2c0.1-0.3,0.2-0.5,0.3-0.7c1.1-2.6,3.1-5.8,5.2-8.4c1.8-2.1,6.1-5.7,13-10.8c4.4-3.2,41.1-33.6,41.4-33.9
		c1-0.9,4.8-4,7.7-4c3.7,0,7.6,3.1,11,5.9l1,0.8c3.1,2.4,6.9,5.1,7,5.2l0.2,0.2c3.5,3.1,3.8,8.2,3.9,11.5c0,0.6,0.1,1.2,0.1,1.6
		c0.4,3.9,0.8,6.9,1.2,8.7c0.6,2.4,0.5,5,0.5,5.5c0,2.6-0.8,4.9-2.5,6.6c-2.6,2.6-6.2,3-8.2,3l0,0c-1.3,0-2.5-0.2-3.6-0.5
		c-4.1-1.2-8.6-4.4-9.5-9.1c-0.8-3.9,1.2-7.2,3.2-10.4c0.3-0.6,0.7-1.1,1-1.7c1.4-2.5,0.8-4.4,0.5-4.7c-0.2-0.1-0.4-0.2-0.6-0.2
		c-0.1,0-0.8,0.1-2.4,2.2c-2.7,3.6-4.9,10.3-6.6,15.8c-1.7,5.5-5.5,11.5-9.1,17.3c-1,1.6-2,3.1-2.9,4.7c-4.3,7-11.7,17.8-14.3,21.4
		c-1.5,2-3.4,4.5-5.2,6.8c-1.3,1.7-2.6,3.3-3.6,4.7c-0.7,1-1.4,2.1-2.2,3.3c-1.8,2.8-4,6.2-7.6,9.5c-5,4.7-15,9.9-15.4,10.1
		c-5.5,3.2-8,4.9-10,8.4c-1.8,3.1-1.6,13.9-1.5,19.6l0,1.6c0.1,7-0.5,12.4-4,15.9c-2.1,2.1-5.8,3.1-11.4,3.1c-1.8,0-3.8-0.1-6.1-0.3
		c-1.1-0.1-2.2-0.2-3.5-0.2c-3.5,0-7.4,0.4-11.5,0.8l-1.8,0.2c-4.7,0.5-10.3,0.5-15.5,0.5l-4.8,0c-5.9,0-8.7,0.2-10.8,1.6
		c-2.2,1.5-3.2,8.2-3.9,15.3c-1,10.2-4.9,12.7-6.3,13.3C180.1,231.2,178.7,231.5,177.2,231.5L177.2,231.5z M336.8,37.2
		c-0.7,0-3,1.4-4.6,2.9c-1.6,1.3-37.2,30.8-41.7,34.1c-8.2,6-11.1,8.7-12.2,10c-1.8,2.2-3.6,5-4.5,7.1c-0.1,0.2-0.2,0.4-0.3,0.7
		c-0.8,2.1-2.1,5.3-6.5,6.1c-2.7,0.5-3,0.7-3.1,3.3c0,2,0,5.7,0,9.6c0,4,0.1,8.1,0,10.6c-0.1,5.9-0.6,11.1-1.4,15.6
		c-1,5.3-4.7,10.2-11.4,14.8c-5.8,4.1-10.7,5.5-16.8,7c-2.3,0.6-4.7,0.9-6.9,1.3c-3.3,0.5-6.3,0.9-8.6,2c-1.5,0.7-3.9,2-6.5,3.3
		c-4.7,2.4-9.9,5-13.2,6.5c-1,0.4-2.2,0.9-3.5,1.5c-4.5,1.8-11.2,4.6-12.9,6.4c-2,2.1-3.6,5.2-5,7.8l-0.6,1.1
		c-1.1,2.1-3.4,5.2-5.3,7.7c-0.8,1.1-1.5,2-2,2.7c-1.6,2.3-5.8,8.4-5.8,15c0,5.3,4.6,8.5,4.7,8.5l0.2,0.2c1.2,1.1,5.1,3.8,8.3,3.8
		c0.7,0,1.4-0.2,1.9-0.5l0.4-0.2l0,0c0.5-0.4,2.6-2.3,3.3-9.3c1-10.3,2.3-16.3,6-18.8c3.4-2.2,7.5-2.4,13.4-2.4l4.8,0
		c5.1,0,10.5-0.1,15.1-0.5l1.8-0.2c4.2-0.4,8.2-0.8,12-0.8c1.5,0,2.8,0.1,4,0.2c2.1,0.2,4,0.3,5.6,0.3c5.4,0,7.3-1.1,8-1.7
		c2.4-2.4,2.7-7.5,2.6-12.5l0-1.6c-0.2-9.4-0.1-18.1,2.1-22.1c2.6-4.5,5.6-6.6,11.9-10.2c0.2-0.1,9.9-5.1,14.4-9.4
		c3.1-2.9,5.1-6,6.8-8.6c0.8-1.3,1.6-2.5,2.4-3.6c1.1-1.4,2.4-3.1,3.7-4.8c1.8-2.3,3.7-4.7,5.2-6.7c2.7-3.6,10.1-14.4,14.1-21
		c0.9-1.5,1.9-3.1,3-4.7c3.5-5.5,7.1-11.2,8.6-16.1c1.9-6.2,4.2-13.1,7.3-17.3c1.4-1.9,3.4-4.1,6.2-4.1c1.1,0,2,0.3,2.6,0.6
		c1.3,0.6,2.3,1.7,2.8,3.3c0.8,2.5,0.4,5.4-1.2,8.1c-0.4,0.6-0.7,1.2-1.1,1.8c-1.7,2.8-3,5-2.6,7c0.5,2.6,3.5,4.7,6.2,5.4
		c0.6,0.2,1.5,0.3,2.3,0.3c2.1,0,3.8-0.6,4.8-1.6c0.8-0.8,1.1-1.8,1.1-3.2l0-0.1l0-0.1c0,0,0.1-2.2-0.3-4.2c-0.5-2-0.9-5.2-1.3-9.4
		c0-0.5-0.1-1.2-0.1-1.8c-0.1-2.7-0.3-6.3-2.2-8.1c-0.7-0.5-4.2-2.9-7.1-5.3l-1-0.8C342.4,40.1,338.8,37.2,336.8,37.2L336.8,37.2z"
		/>
</g>
<g id="PUNTOS_INTERMEDIOS_Y_SEMAFORO">
	<g>
		<path fill="#AC1737" d="M143.9,182.1c0-4.2,3.4-7.7,7.6-7.7h5.1c4.2,0,7.7,3.4,7.7,7.7v5.1c0,4.2-3.4,7.6-7.7,7.6h-5.1
			c-4.2,0-7.6-3.4-7.6-7.6V182.1L143.9,182.1z"/>
		<g>
			<path fill="#FFFFFF" d="M149.6,181c0-0.5,0.4-0.8,0.9-0.8c0.5,0,0.9,0.3,0.9,0.8c0,0.5-0.4,0.8-0.9,0.8
				C149.9,181.8,149.6,181.4,149.6,181z M149.7,182.9h1.5v6.2h-1.5V182.9z"/>
			<path fill="#FFFFFF" d="M153.8,187.2c0.5,0.5,1.1,0.9,1.9,0.9c0.9,0,1.5-0.5,1.5-1.2c0-0.8-0.5-1.4-2.4-1.4v-1.1
				c1.6,0,2.1-0.5,2.1-1.3c0-0.7-0.5-1.1-1.2-1.1c-0.6,0-1.1,0.3-1.6,0.8l-0.8-0.9c0.7-0.6,1.5-1,2.4-1c1.5,0,2.6,0.8,2.6,2.1
				c0,0.9-0.5,1.5-1.4,1.9v0.1c1,0.3,1.7,0.9,1.7,2c0,1.5-1.3,2.3-2.8,2.3c-1.3,0-2.2-0.5-2.7-1.1L153.8,187.2z"/>
		</g>
	</g>
	<g>
		<path fill="#AC1737" d="M269.3,68.1c-0.4,0.3-0.4,0.9-0.1,1.2l16.9,18.8c0.3,0.3,0.8,0.4,1.2,0.1l13.1-11.9
			c0.4-0.3,0.4-0.9,0.1-1.2c-0.3-0.4-0.9-0.4-1.2-0.1l-12.2,11c-0.1,0.1-0.3,0.1-0.5,0l-16.1-17.8C270.2,67.8,269.6,67.8,269.3,68.1
			z"/>
		<path fill="#AC1737" d="M301.9,73.1c0.4-0.1,0.8,0.3,0.6,0.7l-1.1,3.5l-1.1,3.5c-0.1,0.4-0.6,0.5-0.9,0.2l-2.5-2.7l-2.5-2.7
			c-0.3-0.3-0.1-0.8,0.3-0.9l3.6-0.8L301.9,73.1z"/>
	</g>
	<g>
		<path fill="#7B7C7D" d="M182.5,55.2c0-4.2,3.4-7.6,7.6-7.6h45.8c4.2,0,7.6,3.4,7.6,7.6v8.3c0,4.2-3.4,7.6-7.6,7.6h-45.8
			c-4.2,0-7.6-3.4-7.6-7.6V55.2L182.5,55.2z"/>
		<g>
			<path fill="#FFFFFF" d="M231.4,68.9c-3.9,0-7.1-3.2-7.1-7.1v-4.8c0-3.9,3.2-7.1,7.1-7.1h2.7c3.9,0,7.1,3.2,7.1,7.1v4.8
				c0,3.9-3.2,7.1-7.1,7.1H231.4z"/>
			<path fill="#C7C6C5" d="M234.1,50.3c3.7,0,6.6,3,6.6,6.6v4.8c0,3.7-3,6.6-6.6,6.6h-2.7c-3.7,0-6.6-3-6.6-6.6v-4.8
				c0-3.7,3-6.6,6.6-6.6H234.1 M234.1,49.3h-2.7c-4.2,0-7.6,3.4-7.6,7.6v4.8c0,4.2,3.4,7.6,7.6,7.6h2.7c4.2,0,7.6-3.4,7.6-7.6v-4.8
				C241.8,52.7,238.3,49.3,234.1,49.3L234.1,49.3z"/>
		</g>
		<g>
			<defs>
				<path id="SVGID_11_" d="M223.8,56.9c0-4.2,3.4-7.6,7.6-7.6h2.7c4.2,0,7.6,3.4,7.6,7.6v4.8c0,4.2-3.4,7.6-7.6,7.6h-2.7
					c-4.2,0-7.6-3.4-7.6-7.6V56.9L223.8,56.9z"/>
			</defs>
			<clipPath id="SVGID_2_">
				<use xlink:href="#SVGID_11_"  overflow="visible"/>
			</clipPath>
			<g clip-path="url(#SVGID_2_)">
				<rect x="218.5" y="51" fill="#1E1E1C" width="4.2" height="4.2"/>
				<rect x="222.6" y="55.1" fill="#1E1E1C" width="4.2" height="4.2"/>
				<rect x="226.8" y="51" fill="#1E1E1C" width="4.2" height="4.2"/>
				<rect x="231" y="55.1" fill="#1E1E1C" width="4.2" height="4.2"/>
				<rect x="218.5" y="59.3" fill="#1E1E1C" width="4.2" height="4.2"/>
				<rect x="222.6" y="63.5" fill="#1E1E1C" width="4.2" height="4.2"/>
				<rect x="226.8" y="59.3" fill="#1E1E1C" width="4.2" height="4.2"/>
				<rect x="231" y="63.5" fill="#1E1E1C" width="4.2" height="4.2"/>
				<rect x="235.2" y="51" fill="#1E1E1C" width="4.2" height="4.2"/>
				<rect x="239.3" y="55.1" fill="#1E1E1C" width="4.2" height="4.2"/>
				<rect x="235.2" y="59.3" fill="#1E1E1C" width="4.2" height="4.2"/>
				<rect x="239.3" y="63.5" fill="#1E1E1C" width="4.2" height="4.2"/>
			</g>
		</g>
		<g>
			<path fill="#C01724" d="M191.9,68.9c-3.9,0-7.1-3.2-7.1-7.1v-4.8c0-3.9,3.2-7.1,7.1-7.1h2.7c3.9,0,7.1,3.2,7.1,7.1v4.8
				c0,3.9-3.2,7.1-7.1,7.1H191.9z"/>
			<path fill="#AA1920" d="M194.6,50.3c3.7,0,6.6,3,6.6,6.6v4.8c0,3.7-3,6.6-6.6,6.6h-2.7c-3.7,0-6.6-3-6.6-6.6v-4.8
				c0-3.7,3-6.6,6.6-6.6H194.6 M194.6,49.3h-2.7c-4.2,0-7.6,3.4-7.6,7.6v4.8c0,4.2,3.4,7.6,7.6,7.6h2.7c4.2,0,7.6-3.4,7.6-7.6v-4.8
				C202.2,52.7,198.8,49.3,194.6,49.3L194.6,49.3z"/>
		</g>
		<g>
			<path fill="#009548" d="M211.7,68.9c-3.9,0-7.1-3.2-7.1-7.1v-4.8c0-3.9,3.2-7.1,7.1-7.1h2.7c3.9,0,7.1,3.2,7.1,7.1v4.8
				c0,3.9-3.2,7.1-7.1,7.1H211.7z"/>
			<path fill="#006139" d="M214.4,50.3c3.7,0,6.6,3,6.6,6.6v4.8c0,3.7-3,6.6-6.6,6.6h-2.7c-3.7,0-6.6-3-6.6-6.6v-4.8
				c0-3.7,3-6.6,6.6-6.6H214.4 M214.4,49.3h-2.7c-4.2,0-7.6,3.4-7.6,7.6v4.8c0,4.2,3.4,7.6,7.6,7.6h2.7c4.2,0,7.6-3.4,7.6-7.6v-4.8
				C222,52.7,218.6,49.3,214.4,49.3L214.4,49.3z"/>
		</g>
		<g>
			<path fill="#C7C6C5" d="M234.1,50.3c3.7,0,6.6,3,6.6,6.6v4.8c0,3.7-3,6.6-6.6,6.6h-2.7c-3.7,0-6.6-3-6.6-6.6v-4.8
				c0-3.7,3-6.6,6.6-6.6H234.1 M234.1,49.3h-2.7c-4.2,0-7.6,3.4-7.6,7.6v4.8c0,4.2,3.4,7.6,7.6,7.6h2.7c4.2,0,7.6-3.4,7.6-7.6v-4.8
				C241.8,52.7,238.3,49.3,234.1,49.3L234.1,49.3z"/>
		</g>
	</g>
	<path fill="#AC1737" d="M152.5,175.7c0.3-0.4,0.9-0.4,1.2-0.1l24.8,21.8c0.4,0.3,0.4,0.9,0.1,1.2c-0.3,0.4-0.9,0.4-1.2,0.1
		L152.6,177C152.2,176.7,152.2,176.1,152.5,175.7z"/>
	<path fill="#AC1737" d="M286.8,180.3c0,0.5-0.4,0.9-0.9,0.9l-33-0.3c-0.5,0-0.9-0.4-0.9-0.9c0-0.5,0.4-0.9,0.9-0.9l33,0.3
		C286.4,179.4,286.8,179.8,286.8,180.3z"/>
	<path fill="#AC1737" d="M319.3,140.2c-0.3,0.4-0.9,0.4-1.2,0.1l-25-21.6c-0.4-0.3-0.4-0.9-0.1-1.2c0.3-0.4,0.9-0.4,1.2-0.1l25,21.6
		C319.6,139.3,319.6,139.8,319.3,140.2z"/>
	<path fill="#AC1737" d="M339.1,85.9c-0.3,0.4-0.9,0.4-1.2,0.1l-25-21.6c-0.4-0.3-0.4-0.9-0.1-1.2c0.3-0.4,0.9-0.4,1.2-0.1l25,21.6
		C339.4,85,339.4,85.5,339.1,85.9z"/>
	<g>
		<path fill="#AC1737" d="M269.5,177.6c0-4.2,3.4-7.7,7.6-7.7h5c4.2,0,7.7,3.4,7.7,7.7v5.1c0,4.2-3.4,7.7-7.7,7.7h-5
			c-4.2,0-7.6-3.4-7.6-7.7V177.6L269.5,177.6z"/>
		<g>
			<path fill="#FFFFFF" d="M275.1,176.5c0-0.5,0.4-0.8,0.9-0.8s0.9,0.3,0.9,0.8c0,0.5-0.4,0.8-0.9,0.8S275.1,177,275.1,176.5z
				 M275.3,178.4h1.5v6.2h-1.5V178.4z"/>
			<path fill="#FFFFFF" d="M278.8,183.8c2.2-2.2,3.7-3.6,3.7-4.8c0-0.9-0.5-1.4-1.3-1.4c-0.6,0-1.1,0.4-1.6,0.9l-0.8-0.8
				c0.7-0.8,1.5-1.2,2.6-1.2c1.5,0,2.6,1,2.6,2.5c0,1.4-1.3,2.9-2.9,4.6c0.4,0,1-0.1,1.3-0.1h2v1.2h-5.5V183.8z"/>
		</g>
	</g>
	<g>
		<path fill="#AC1737" d="M305.7,129.6c0-4.2,3.4-7.6,7.6-7.6h2.7c4.2,0,7.6,3.4,7.6,7.6v4.8c0,4.2-3.4,7.6-7.6,7.6h-2.7
			c-4.2,0-7.6-3.4-7.6-7.6V129.6L305.7,129.6z"/>
		<g>
			<path fill="#FFFFFF" d="M312.5,134c0.6,0.6,1.4,0.9,2.2,0.9c0.9,0,1.4-0.4,1.4-1.1c0-0.7-0.5-0.9-1.3-1.2l-1.1-0.5
				c-0.8-0.3-1.7-1-1.7-2.2c0-1.3,1.2-2.3,2.8-2.3c1,0,1.9,0.4,2.6,1.1l-0.8,0.9c-0.5-0.4-1.1-0.7-1.8-0.7c-0.8,0-1.3,0.4-1.3,1
				c0,0.6,0.6,0.9,1.3,1.2l1.1,0.5c1,0.4,1.7,1,1.7,2.2c0,1.3-1.1,2.5-3,2.5c-1.1,0-2.2-0.4-3-1.2L312.5,134z"/>
		</g>
	</g>
	<g>
		<path fill="#AC1737" d="M246,56.9c0-4.2,3.4-7.6,7.7-7.6h11.7c4.2,0,7.6,3.4,7.6,7.6v4.8c0,4.2-3.4,7.6-7.6,7.6h-11.7
			c-4.2,0-7.7-3.4-7.7-7.6V56.9L246,56.9z"/>
		<g>
			<path fill="#FFFFFF" d="M253.5,55.2h5v1.2h-3.5v2.3h3V60h-3v3.5h-1.5V55.2z"/>
			<path fill="#FFFFFF" d="M260.5,55.2h1.5v7.1h3.4v1.2h-4.9V55.2z"/>
		</g>
	</g>
	<g>
		<path fill="#AC1737" d="M306.6,66.2c0-4.2,3.4-7.6,7.7-7.6h3.9c4.2,0,7.7,3.4,7.7,7.6v5.5c0,4.2-3.4,7.7-7.7,7.7h-3.9
			c-4.2,0-7.7-3.4-7.7-7.7V66.2L306.6,66.2z"/>
		<g>
			<path fill="#FFFFFF" d="M311.7,65.3c0-0.5,0.4-0.8,0.9-0.8c0.5,0,0.9,0.3,0.9,0.8c0,0.5-0.4,0.8-0.9,0.8
				C312,66.1,311.7,65.8,311.7,65.3z M311.8,67.2h1.5v6.2h-1.5V67.2z"/>
			<path fill="#FFFFFF" d="M315.8,72.2h1.8v-5.3h-1.5V66c0.8-0.2,1.4-0.4,1.9-0.7h1.1v6.9h1.6v1.2h-4.9V72.2z"/>
		</g>
	</g>
	<g>
		<g>
			<path fill="none" stroke="#AC1737" stroke-width="2" stroke-linecap="round" stroke-dasharray="2,4" d="M342,18.1
				c0,0.5-0.3,25.6-0.4,33.1"/>
			<g>
				<circle fill="#AC1737" cx="341.6" cy="51.1" r="2.3"/>
			</g>
		</g>
	</g>
</g>
<g id="textos_y_numeros">
	<g>
		<g>
			<path fill="#7B7C7D" d="M258,21.6h1.6v3.7h3.7v-3.7h1.6v9.2h-1.6v-4.1h-3.7v4.1H258V21.6z"/>
			<path fill="#7B7C7D" d="M271,26.4c0-0.7-0.3-1.4-1.3-1.4c-0.7,0-1.3,0.3-1.9,0.7l-0.6-1.1c0.8-0.5,1.7-0.9,2.8-0.9
				c1.7,0,2.6,1.1,2.6,3v4.1h-1.3l-0.1-0.8h0c-0.6,0.5-1.3,0.9-2.1,0.9c-1.2,0-2.1-0.8-2.1-2C266.9,27.5,268.1,26.8,271,26.4z
				 M269.5,29.8c0.6,0,1-0.3,1.5-0.8v-1.6c-1.9,0.2-2.5,0.7-2.5,1.4C268.5,29.5,268.9,29.8,269.5,29.8z"/>
			<path fill="#7B7C7D" d="M278.3,26.4c0-0.7-0.3-1.4-1.3-1.4c-0.7,0-1.3,0.3-1.9,0.7l-0.6-1.1c0.8-0.5,1.7-0.9,2.8-0.9
				c1.7,0,2.6,1.1,2.6,3v4.1h-1.3l-0.1-0.8h0c-0.6,0.5-1.3,0.9-2.1,0.9c-1.2,0-2.1-0.8-2.1-2C274.3,27.5,275.5,26.8,278.3,26.4z
				 M276.8,29.8c0.6,0,1-0.3,1.5-0.8v-1.6c-1.9,0.2-2.5,0.7-2.5,1.4C275.8,29.5,276.3,29.8,276.8,29.8z"/>
			<path fill="#7B7C7D" d="M281.9,23.9h1.3l0.1,1.2h0.1c0.5-0.9,1.2-1.4,2-1.4c0.4,0,0.6,0,0.8,0.1l-0.3,1.4
				c-0.2-0.1-0.4-0.1-0.7-0.1c-0.6,0-1.2,0.4-1.6,1.4v4.2h-1.6V23.9z"/>
			<path fill="#7B7C7D" d="M287.2,20.9h1.6v2.6l0,1.2c0.6-0.5,1.3-0.9,2-0.9c1.7,0,2.7,1.4,2.7,3.5c0,2.4-1.4,3.8-3,3.8
				c-0.6,0-1.3-0.3-1.9-0.9h0l-0.1,0.7h-1.3V20.9z M290.2,29.7c0.9,0,1.6-0.8,1.6-2.4c0-1.4-0.5-2.2-1.5-2.2c-0.5,0-1,0.3-1.5,0.8
				v3.2C289.3,29.5,289.8,29.7,290.2,29.7z"/>
			<path fill="#7B7C7D" d="M298,23.8c1.7,0,3.3,1.3,3.3,3.6c0,2.3-1.6,3.6-3.3,3.6c-1.7,0-3.3-1.3-3.3-3.6
				C294.7,25.1,296.3,23.8,298,23.8z M298,29.7c1,0,1.6-0.9,1.6-2.3c0-1.4-0.6-2.3-1.6-2.3c-1,0-1.6,0.9-1.6,2.3
				C296.4,28.8,297,29.7,298,29.7z"/>
			<path fill="#7B7C7D" d="M305.9,23.8c0.9,0,1.6,0.4,2,0.8l-0.8,1c-0.4-0.3-0.7-0.5-1.2-0.5c-1.1,0-1.9,0.9-1.9,2.3
				c0,1.4,0.8,2.3,1.8,2.3c0.6,0,1-0.3,1.4-0.6l0.7,1c-0.6,0.6-1.5,0.9-2.3,0.9c-1.9,0-3.3-1.3-3.3-3.6
				C302.5,25.1,304.1,23.8,305.9,23.8z"/>
			<path fill="#7B7C7D" d="M309.4,20.9h1.6v2.6l-0.1,1.3c0.6-0.6,1.3-1,2.2-1c1.5,0,2.1,1,2.1,2.8v4.3h-1.6v-4.1
				c0-1.1-0.3-1.6-1.1-1.6c-0.6,0-1,0.3-1.6,0.9v4.8h-1.6V20.9z"/>
			<path fill="#7B7C7D" d="M317.5,25.2h-1V24l1.1-0.1l0.2-1.9h1.4v1.9h1.8v1.3h-1.8v3.3c0,0.8,0.3,1.2,1,1.2c0.2,0,0.5-0.1,0.7-0.2
				l0.3,1.2c-0.4,0.1-0.9,0.3-1.4,0.3c-1.6,0-2.2-1-2.2-2.5V25.2z"/>
		</g>
	</g>
	<g>
		<g>
			<path fill="#7B7C7D" d="M73.4,222.3h2.5c2.8,0,4.5,1.5,4.5,4.6c0,3.1-1.7,4.7-4.4,4.7h-2.5V222.3z M75.8,230.2
				c1.9,0,2.9-1.1,2.9-3.3c0-2.3-1.1-3.2-2.9-3.2h-0.7v6.6H75.8z"/>
			<path fill="#7B7C7D" d="M82,224.6h1.6v4.1c0,1.1,0.3,1.6,1.1,1.6c0.6,0,1-0.3,1.5-1v-4.7h1.6v6.9h-1.3l-0.1-1h0
				c-0.6,0.7-1.3,1.2-2.2,1.2c-1.5,0-2.1-1-2.1-2.8V224.6z"/>
			<path fill="#7B7C7D" d="M89.8,222.5c0-0.6,0.4-0.9,1-0.9s1,0.4,1,0.9c0,0.5-0.4,0.9-1,0.9S89.8,223,89.8,222.5z M89.9,224.6h1.6
				v6.9h-1.6V224.6z"/>
			<path fill="#7B7C7D" d="M93.6,221.6h1.6v6.2h0l2.6-3.2h1.8l-2.4,2.8l2.6,4.1h-1.8l-1.8-3l-1.1,1.2v1.8h-1.6V221.6z"/>
			<path fill="#7B7C7D" d="M103.7,224.4c1.9,0,2.9,1.4,2.9,3.3c0,0.3,0,0.6-0.1,0.8h-4.4c0.1,1.3,0.9,2,2,2c0.6,0,1.1-0.2,1.6-0.5
				l0.6,1c-0.7,0.4-1.5,0.7-2.4,0.7c-1.9,0-3.4-1.3-3.4-3.6C100.6,225.8,102.1,224.4,103.7,224.4z M105.2,227.5
				c0-1.1-0.5-1.8-1.4-1.8c-0.8,0-1.5,0.6-1.7,1.8H105.2z"/>
			<path fill="#7B7C7D" d="M108.2,224.6h1.3l0.1,1.2h0.1c0.5-0.9,1.2-1.4,2-1.4c0.4,0,0.6,0,0.8,0.1l-0.3,1.4
				c-0.2-0.1-0.4-0.1-0.7-0.1c-0.6,0-1.2,0.4-1.6,1.4v4.2h-1.6V224.6z"/>
			<path fill="#7B7C7D" d="M113.5,229.7c0.6,0.5,1.2,0.8,1.9,0.8c0.7,0,1.1-0.4,1.1-0.8c0-0.6-0.7-0.8-1.5-1.1
				c-0.9-0.3-1.9-0.9-1.9-2c0-1.2,1-2.1,2.5-2.1c1,0,1.7,0.4,2.3,0.8l-0.7,1c-0.5-0.4-1-0.6-1.5-0.6c-0.7,0-1,0.3-1,0.8
				c0,0.5,0.7,0.8,1.4,1c0.9,0.4,2,0.8,2,2.1c0,1.2-0.9,2.1-2.7,2.1c-0.9,0-1.9-0.4-2.6-1L113.5,229.7z"/>
			<path fill="#7B7C7D" d="M119.5,221.6h1.6v8.3c0,0.4,0.2,0.5,0.4,0.5c0.1,0,0.1,0,0.3,0l0.2,1.2c-0.2,0.1-0.5,0.1-0.9,0.1
				c-1.2,0-1.6-0.7-1.6-1.9V221.6z"/>
			<path fill="#7B7C7D" d="M126.2,224.4c1.7,0,3.3,1.3,3.3,3.6c0,2.3-1.6,3.6-3.3,3.6c-1.7,0-3.3-1.3-3.3-3.6
				C122.9,225.8,124.4,224.4,126.2,224.4z M126.2,230.4c1,0,1.6-0.9,1.6-2.3c0-1.4-0.6-2.3-1.6-2.3c-1,0-1.6,0.9-1.6,2.3
				C124.5,229.5,125.2,230.4,126.2,230.4z"/>
			<path fill="#7B7C7D" d="M133.9,224.4c1.7,0,3.3,1.3,3.3,3.6c0,2.3-1.6,3.6-3.3,3.6c-1.7,0-3.3-1.3-3.3-3.6
				C130.6,225.8,132.2,224.4,133.9,224.4z M133.9,230.4c1,0,1.6-0.9,1.6-2.3c0-1.4-0.6-2.3-1.6-2.3c-1,0-1.6,0.9-1.6,2.3
				C132.3,229.5,132.9,230.4,133.9,230.4z"/>
			<path fill="#7B7C7D" d="M139.1,225.9h-1v-1.2l1.1-0.1l0.2-1.9h1.4v1.9h1.8v1.3h-1.8v3.3c0,0.8,0.3,1.2,1,1.2
				c0.2,0,0.5-0.1,0.7-0.2l0.3,1.2c-0.4,0.1-0.9,0.3-1.4,0.3c-1.6,0-2.2-1-2.2-2.5V225.9z"/>
		</g>
	</g>
	<g>
		<g>
			<path fill="#7B7C7D" d="M197,235.3h1.8l1.7,4.5l0.6,1.8h0.1l0.6-1.8l1.6-4.5h1.8v9.2h-1.5v-4.2c0-0.9,0.1-2.1,0.2-2.9h-0.1
				l-0.7,2.1l-1.6,4.2h-0.7l-1.6-4.2l-0.7-2.1h-0.1c0.1,0.8,0.2,2.1,0.2,2.9v4.2H197V235.3z"/>
			<path fill="#7B7C7D" d="M211.1,240.1c0-0.7-0.3-1.4-1.3-1.4c-0.7,0-1.3,0.3-1.9,0.7l-0.6-1.1c0.8-0.5,1.7-0.9,2.8-0.9
				c1.7,0,2.6,1.1,2.6,3v4.1h-1.3l-0.1-0.8h0c-0.6,0.5-1.3,0.9-2.1,0.9c-1.2,0-2.1-0.8-2.1-2C207,241.2,208.3,240.4,211.1,240.1z
				 M209.6,243.4c0.6,0,1-0.3,1.5-0.8v-1.6c-1.9,0.2-2.5,0.7-2.5,1.4C208.6,243.2,209,243.4,209.6,243.4z"/>
			<path fill="#7B7C7D" d="M214.7,237.6h1.3l0.1,0.9h0.1c0.6-0.6,1.3-1.1,2.3-1.1c1.5,0,2.1,1,2.1,2.8v4.3H219v-4.1
				c0-1.1-0.3-1.6-1.1-1.6c-0.6,0-1,0.3-1.6,0.9v4.8h-1.6V237.6z"/>
			<path fill="#7B7C7D" d="M225.1,237.4c0.8,0,1.3,0.3,1.8,0.8l-0.1-1.1v-2.5h1.6v10h-1.3l-0.1-0.7H227c-0.5,0.5-1.2,0.9-2,0.9
				c-1.7,0-2.9-1.3-2.9-3.6C222.2,238.8,223.6,237.4,225.1,237.4z M225.4,243.4c0.5,0,1-0.2,1.5-0.8v-3.2c-0.5-0.4-0.9-0.6-1.4-0.6
				c-0.9,0-1.6,0.8-1.6,2.3C223.8,242.6,224.4,243.4,225.4,243.4z"/>
			<path fill="#7B7C7D" d="M233.3,237.4c1.9,0,2.9,1.4,2.9,3.3c0,0.3,0,0.6-0.1,0.8h-4.4c0.1,1.3,0.9,2,2,2c0.6,0,1.1-0.2,1.6-0.5
				l0.6,1c-0.7,0.4-1.5,0.7-2.4,0.7c-1.9,0-3.4-1.3-3.4-3.6C230.1,238.8,231.7,237.4,233.3,237.4z M234.7,240.5
				c0-1.1-0.5-1.8-1.4-1.8c-0.8,0-1.5,0.6-1.7,1.8H234.7z"/>
			<path fill="#7B7C7D" d="M236.8,237.6h1.7l1.1,3.6c0.2,0.7,0.4,1.4,0.6,2.1h0.1c0.2-0.7,0.4-1.4,0.6-2.1l1.1-3.6h1.6l-2.4,6.9
				h-1.9L236.8,237.6z"/>
			<path fill="#7B7C7D" d="M247.4,237.4c1.9,0,2.9,1.4,2.9,3.3c0,0.3,0,0.6-0.1,0.8h-4.4c0.1,1.3,0.9,2,2,2c0.6,0,1.1-0.2,1.6-0.5
				l0.6,1c-0.7,0.4-1.5,0.7-2.4,0.7c-1.9,0-3.4-1.3-3.4-3.6C244.2,238.8,245.8,237.4,247.4,237.4z M248.9,240.5
				c0-1.1-0.5-1.8-1.4-1.8c-0.8,0-1.5,0.6-1.7,1.8H248.9z"/>
			<path fill="#7B7C7D" d="M254.6,237.4c1.9,0,2.9,1.4,2.9,3.3c0,0.3,0,0.6-0.1,0.8H253c0.1,1.3,0.9,2,2,2c0.6,0,1.1-0.2,1.6-0.5
				l0.6,1c-0.7,0.4-1.5,0.7-2.4,0.7c-1.9,0-3.4-1.3-3.4-3.6C251.4,238.8,253,237.4,254.6,237.4z M256,240.5c0-1.1-0.5-1.8-1.4-1.8
				c-0.8,0-1.5,0.6-1.7,1.8H256z"/>
			<path fill="#7B7C7D" d="M259,237.6h1.3l0.1,0.9h0.1c0.6-0.6,1.3-1.1,2.3-1.1c1.5,0,2.1,1,2.1,2.8v4.3h-1.6v-4.1
				c0-1.1-0.3-1.6-1.1-1.6c-0.6,0-1,0.3-1.6,0.9v4.8H259V237.6z"/>
		</g>
	</g>
	<g>
		<g>
			<path fill="#7B7C7D" d="M205.2,206.8h2.5c2.8,0,4.5,1.5,4.5,4.6c0,3.1-1.7,4.7-4.4,4.7h-2.5V206.8z M207.5,214.7
				c1.9,0,2.9-1.1,2.9-3.3c0-2.3-1.1-3.2-2.9-3.2h-0.7v6.6H207.5z"/>
			<path fill="#7B7C7D" d="M216.6,209c1.9,0,2.9,1.4,2.9,3.3c0,0.3,0,0.6-0.1,0.8H215c0.1,1.3,0.9,2,2,2c0.6,0,1.1-0.2,1.6-0.5
				l0.6,1c-0.7,0.4-1.5,0.7-2.4,0.7c-1.9,0-3.4-1.3-3.4-3.6C213.4,210.3,215,209,216.6,209z M218,212c0-1.1-0.5-1.8-1.4-1.8
				c-0.8,0-1.5,0.6-1.7,1.8H218z"/>
			<path fill="#7B7C7D" d="M224,206.8h3c1.9,0,3.3,0.6,3.3,2.3c0,0.9-0.5,1.7-1.6,2v0.1c1.3,0.2,2.1,0.9,2.1,2.2
				c0,1.8-1.5,2.7-3.5,2.7H224V206.8z M226.8,210.7c1.3,0,1.8-0.5,1.8-1.4c0-0.8-0.6-1.2-1.8-1.2h-1.2v2.6H226.8z M227,214.8
				c1.4,0,2.1-0.5,2.1-1.6c0-1-0.7-1.4-2.1-1.4h-1.4v3H227z"/>
			<path fill="#7B7C7D" d="M232.2,209.1h1.6v4.1c0,1.1,0.3,1.6,1.1,1.6c0.6,0,1-0.3,1.5-1v-4.7h1.6v6.9h-1.3l-0.1-1h0
				c-0.6,0.7-1.3,1.2-2.2,1.2c-1.5,0-2.1-1-2.1-2.8V209.1z"/>
			<path fill="#7B7C7D" d="M240.1,206.1h1.6v8.3c0,0.4,0.2,0.5,0.4,0.5c0.1,0,0.1,0,0.3,0l0.2,1.2c-0.2,0.1-0.5,0.1-0.9,0.1
				c-1.2,0-1.6-0.7-1.6-1.9V206.1z"/>
			<path fill="#7B7C7D" d="M244.2,210.4h-1v-1.2l1.1-0.1l0.2-1.9h1.4v1.9h1.8v1.3h-1.8v3.3c0,0.8,0.3,1.2,1,1.2
				c0.2,0,0.5-0.1,0.7-0.2l0.3,1.2c-0.4,0.1-0.9,0.3-1.4,0.3c-1.6,0-2.2-1-2.2-2.5V210.4z"/>
		</g>
	</g>
	<g>
		<g>
			<path fill="#7B7C7D" d="M299.1,160.9l-2-3.6h-1.4v3.6h-1.6v-9.2h3.1c1.9,0,3.4,0.7,3.4,2.7c0,1.4-0.7,2.3-1.8,2.6l2.2,3.9H299.1z
				 M295.8,155.9h1.3c1.3,0,1.9-0.5,1.9-1.6c0-1.1-0.7-1.4-1.9-1.4h-1.3V155.9z"/>
			<path fill="#7B7C7D" d="M302.3,153.9h1.6v4.1c0,1.1,0.3,1.6,1.1,1.6c0.6,0,1-0.3,1.5-1v-4.7h1.6v6.9h-1.3l-0.1-1h0
				c-0.6,0.7-1.3,1.2-2.2,1.2c-1.5,0-2.1-1-2.1-2.8V153.9z"/>
			<path fill="#7B7C7D" d="M310.3,159c0.6,0.5,1.2,0.8,1.9,0.8c0.7,0,1.1-0.4,1.1-0.8c0-0.6-0.7-0.8-1.5-1.1c-0.9-0.3-1.9-0.9-1.9-2
				c0-1.2,1-2.1,2.5-2.1c1,0,1.7,0.4,2.3,0.8l-0.7,1c-0.5-0.4-1-0.6-1.5-0.6c-0.7,0-1,0.3-1,0.8c0,0.5,0.7,0.8,1.4,1
				c0.9,0.4,2,0.8,2,2.1c0,1.2-0.9,2.1-2.7,2.1c-0.9,0-1.9-0.4-2.6-1L310.3,159z"/>
			<path fill="#7B7C7D" d="M316.3,150.9h1.6v6.2h0l2.6-3.2h1.8l-2.4,2.8l2.6,4.1h-1.8l-1.8-3l-1.1,1.2v1.8h-1.6V150.9z"/>
			<path fill="#7B7C7D" d="M326.4,153.8c1.9,0,2.9,1.4,2.9,3.3c0,0.3,0,0.6-0.1,0.8h-4.4c0.1,1.3,0.9,2,2,2c0.6,0,1.1-0.2,1.6-0.5
				l0.5,1c-0.7,0.4-1.5,0.7-2.4,0.7c-1.9,0-3.4-1.3-3.4-3.6C323.2,155.1,324.8,153.8,326.4,153.8z M327.9,156.8
				c0-1.1-0.5-1.8-1.4-1.8c-0.8,0-1.5,0.6-1.7,1.8H327.9z"/>
			<path fill="#7B7C7D" d="M330.8,153.9h1.3l0.1,0.9h0.1c0.6-0.6,1.3-1.1,2.3-1.1c1.5,0,2.1,1,2.1,2.8v4.3h-1.6v-4.1
				c0-1.1-0.3-1.6-1.1-1.6c-0.6,0-1,0.3-1.6,0.9v4.8h-1.6V153.9z"/>
			<path fill="#7B7C7D" d="M338.8,150.9h1.6v2.6l-0.1,1.3c0.6-0.6,1.3-1,2.2-1c1.5,0,2.1,1,2.1,2.8v4.3H343v-4.1
				c0-1.1-0.3-1.6-1.1-1.6c-0.6,0-1,0.3-1.6,0.9v4.8h-1.6V150.9z"/>
			<path fill="#7B7C7D" d="M349.5,153.8c1.7,0,3.3,1.3,3.3,3.6c0,2.3-1.6,3.6-3.3,3.6c-1.7,0-3.3-1.3-3.3-3.6
				C346.2,155.1,347.7,153.8,349.5,153.8z M349.5,159.7c1,0,1.6-0.9,1.6-2.3c0-1.4-0.6-2.3-1.6-2.3c-1,0-1.6,0.9-1.6,2.3
				C347.8,158.8,348.4,159.7,349.5,159.7z"/>
			<path fill="#7B7C7D" d="M357.1,153.8c1.9,0,2.9,1.4,2.9,3.3c0,0.3,0,0.6-0.1,0.8h-4.4c0.1,1.3,0.9,2,2,2c0.6,0,1.1-0.2,1.6-0.5
				l0.5,1c-0.7,0.4-1.5,0.7-2.4,0.7c-1.9,0-3.4-1.3-3.4-3.6C353.9,155.1,355.5,153.8,357.1,153.8z M358.6,156.8
				c0-1.1-0.5-1.8-1.4-1.8c-0.8,0-1.5,0.6-1.7,1.8H358.6z"/>
			<path fill="#7B7C7D" d="M361.5,150.9h1.6v6.2h0l2.6-3.2h1.8l-2.4,2.8l2.6,4.1H366l-1.8-3l-1.1,1.2v1.8h-1.6V150.9z"/>
		</g>
	</g>
	<g>
		<g>
			<path fill="#7B7C7D" d="M276,201.8c0.7,0.6,1.6,1,2.4,1c1,0,1.6-0.5,1.6-1.2c0-0.8-0.6-1-1.4-1.4l-1.3-0.6
				c-0.9-0.4-1.9-1.1-1.9-2.5c0-1.5,1.3-2.6,3.1-2.6c1.1,0,2.1,0.5,2.9,1.2l-0.8,1c-0.6-0.5-1.2-0.8-2-0.8c-0.9,0-1.4,0.4-1.4,1.1
				c0,0.7,0.7,1,1.5,1.3l1.2,0.5c1.1,0.5,1.9,1.2,1.9,2.5c0,1.5-1.2,2.7-3.3,2.7c-1.2,0-2.4-0.5-3.3-1.4L276,201.8z"/>
			<path fill="#7B7C7D" d="M283.5,198.5h-1v-1.2l1.1-0.1l0.2-1.9h1.4v1.9h1.8v1.3h-1.8v3.3c0,0.8,0.3,1.2,1,1.2
				c0.2,0,0.5-0.1,0.7-0.2l0.3,1.2c-0.4,0.1-0.9,0.3-1.4,0.3c-1.6,0-2.2-1-2.2-2.5V198.5z"/>
			<path fill="#7B7C7D" d="M291.1,197c1.9,0,2.9,1.4,2.9,3.3c0,0.3,0,0.6-0.1,0.8h-4.4c0.1,1.3,0.9,2,2,2c0.6,0,1.1-0.2,1.6-0.5
				l0.5,1c-0.7,0.4-1.5,0.7-2.4,0.7c-1.9,0-3.4-1.3-3.4-3.6C287.9,198.4,289.5,197,291.1,197z M292.5,200.1c0-1.1-0.5-1.8-1.4-1.8
				c-0.8,0-1.5,0.6-1.7,1.8H292.5z"/>
			<path fill="#7B7C7D" d="M295.5,194.2h1.6v6.2h0l2.6-3.2h1.8l-2.4,2.8l2.6,4.1H300l-1.8-3l-1.1,1.2v1.8h-1.6V194.2z"/>
			<path fill="#7B7C7D" d="M302.9,194.2h1.6v6.2h0l2.6-3.2h1.8l-2.4,2.8l2.6,4.1h-1.8l-1.8-3l-1.1,1.2v1.8h-1.6V194.2z"/>
			<path fill="#7B7C7D" d="M313,197c1.9,0,2.9,1.4,2.9,3.3c0,0.3,0,0.6-0.1,0.8h-4.4c0.1,1.3,0.9,2,2,2c0.6,0,1.1-0.2,1.6-0.5l0.5,1
				c-0.7,0.4-1.5,0.7-2.4,0.7c-1.9,0-3.4-1.3-3.4-3.6C309.8,198.4,311.3,197,313,197z M314.4,200.1c0-1.1-0.5-1.8-1.4-1.8
				c-0.8,0-1.5,0.6-1.7,1.8H314.4z"/>
			<path fill="#7B7C7D" d="M317.4,197.2h1.3l0.1,0.9h0.1c0.6-0.6,1.3-1.1,2.3-1.1c1.5,0,2.1,1,2.1,2.8v4.3h-1.6V200
				c0-1.1-0.3-1.6-1.1-1.6c-0.6,0-1,0.3-1.6,0.9v4.8h-1.6V197.2z"/>
			<path fill="#7B7C7D" d="M324.6,197.2h1.6l0.8,3.6c0.1,0.7,0.2,1.3,0.4,2h0.1c0.1-0.7,0.3-1.3,0.4-2l0.9-3.6h1.5l0.9,3.6
				c0.2,0.7,0.3,1.3,0.5,2h0.1c0.1-0.7,0.2-1.3,0.4-2l0.8-3.6h1.5l-1.8,6.9h-1.9l-0.8-3.2c-0.2-0.6-0.3-1.3-0.4-2h-0.1
				c-0.1,0.7-0.3,1.4-0.4,2l-0.8,3.2h-1.9L324.6,197.2z"/>
			<path fill="#7B7C7D" d="M339.6,199.7c0-0.7-0.3-1.4-1.3-1.4c-0.7,0-1.3,0.3-1.9,0.7l-0.6-1.1c0.8-0.5,1.7-0.9,2.8-0.9
				c1.7,0,2.6,1.1,2.6,3v4.1h-1.3l-0.1-0.8h0c-0.6,0.5-1.3,0.9-2.1,0.9c-1.2,0-2.1-0.8-2.1-2C335.5,200.8,336.8,200,339.6,199.7z
				 M338.1,203c0.6,0,1-0.3,1.5-0.8v-1.6c-1.9,0.2-2.5,0.7-2.5,1.4C337.1,202.8,337.5,203,338.1,203z"/>
			<path fill="#7B7C7D" d="M343.2,194.2h1.6v8.3c0,0.4,0.2,0.5,0.4,0.5c0.1,0,0.1,0,0.3,0l0.2,1.2c-0.2,0.1-0.5,0.1-0.9,0.1
				c-1.2,0-1.6-0.7-1.6-1.9V194.2z"/>
		</g>
	</g>
	<g>
		<g>
			<path fill="#7B7C7D" d="M73.1,162.6h1.8l1.7,4.5l0.6,1.8h0.1l0.6-1.8l1.6-4.5h1.8v9.2h-1.5v-4.2c0-0.9,0.1-2.1,0.2-2.9h-0.1
				l-0.7,2.1l-1.6,4.2h-0.7l-1.6-4.2l-0.7-2.1h-0.1c0.1,0.8,0.2,2.1,0.2,2.9v4.2h-1.5V162.6z"/>
			<path fill="#7B7C7D" d="M86.2,164.7c1.9,0,2.9,1.4,2.9,3.3c0,0.3,0,0.6-0.1,0.8h-4.4c0.1,1.3,0.9,2,2,2c0.6,0,1.1-0.2,1.6-0.5
				l0.6,1c-0.7,0.4-1.5,0.7-2.4,0.7c-1.9,0-3.4-1.3-3.4-3.6C83,166.1,84.6,164.7,86.2,164.7z M87.6,167.7c0-1.1-0.5-1.8-1.4-1.8
				c-0.8,0-1.5,0.6-1.7,1.8H87.6z"/>
			<path fill="#7B7C7D" d="M93.3,164.7c1.9,0,2.9,1.4,2.9,3.3c0,0.3,0,0.6-0.1,0.8h-4.4c0.1,1.3,0.9,2,2,2c0.6,0,1.1-0.2,1.6-0.5
				l0.6,1c-0.7,0.4-1.5,0.7-2.4,0.7c-1.9,0-3.4-1.3-3.4-3.6C90.1,166.1,91.7,164.7,93.3,164.7z M94.8,167.7c0-1.1-0.5-1.8-1.4-1.8
				c-0.8,0-1.5,0.6-1.7,1.8H94.8z"/>
			<path fill="#7B7C7D" d="M97.7,164.9h1.6v4.1c0,1.1,0.3,1.6,1.1,1.6c0.6,0,1-0.3,1.5-1v-4.7h1.6v6.9h-1.3l-0.1-1h0
				c-0.6,0.7-1.3,1.2-2.2,1.2c-1.5,0-2.1-1-2.1-2.8V164.9z"/>
			<path fill="#7B7C7D" d="M104.9,164.9h1.6l0.8,3.6c0.1,0.7,0.2,1.3,0.4,2h0.1c0.1-0.7,0.3-1.3,0.4-2l0.9-3.6h1.5l0.9,3.6
				c0.2,0.7,0.3,1.3,0.5,2h0.1c0.1-0.7,0.2-1.3,0.4-2l0.8-3.6h1.5l-1.8,6.9h-1.9l-0.8-3.2c-0.2-0.6-0.3-1.3-0.4-2h-0.1
				c-0.1,0.7-0.3,1.4-0.4,2l-0.8,3.2h-1.9L104.9,164.9z"/>
			<path fill="#7B7C7D" d="M118.9,164.7c1.9,0,2.9,1.4,2.9,3.3c0,0.3,0,0.6-0.1,0.8h-4.4c0.1,1.3,0.9,2,2,2c0.6,0,1.1-0.2,1.6-0.5
				l0.6,1c-0.7,0.4-1.5,0.7-2.4,0.7c-1.9,0-3.4-1.3-3.4-3.6C115.7,166.1,117.3,164.7,118.9,164.7z M120.3,167.7
				c0-1.1-0.5-1.8-1.4-1.8c-0.8,0-1.5,0.6-1.7,1.8H120.3z"/>
			<path fill="#7B7C7D" d="M123.3,164.9h1.3l0.1,0.9h0.1c0.6-0.6,1.3-1.1,2.3-1.1c1.5,0,2.1,1,2.1,2.8v4.3h-1.6v-4.1
				c0-1.1-0.3-1.6-1.1-1.6c-0.6,0-1,0.3-1.6,0.9v4.8h-1.6V164.9z"/>
			<path fill="#7B7C7D" d="M131.2,164.9h1.3l0.1,0.9h0.1c0.6-0.6,1.3-1.1,2.1-1.1c1,0,1.6,0.5,1.9,1.2c0.7-0.7,1.4-1.2,2.2-1.2
				c1.5,0,2.1,1,2.1,2.8v4.3h-1.6v-4.1c0-1.1-0.3-1.6-1.1-1.6c-0.4,0-0.9,0.3-1.5,0.9v4.8h-1.6v-4.1c0-1.1-0.3-1.6-1.1-1.6
				c-0.4,0-0.9,0.3-1.5,0.9v4.8h-1.6V164.9z"/>
			<path fill="#7B7C7D" d="M145.8,164.7c1.9,0,2.9,1.4,2.9,3.3c0,0.3,0,0.6-0.1,0.8h-4.4c0.1,1.3,0.9,2,2,2c0.6,0,1.1-0.2,1.6-0.5
				l0.6,1c-0.7,0.4-1.5,0.7-2.4,0.7c-1.9,0-3.4-1.3-3.4-3.6C142.7,166.1,144.2,164.7,145.8,164.7z M147.3,167.7
				c0-1.1-0.5-1.8-1.4-1.8c-0.8,0-1.5,0.6-1.7,1.8H147.3z"/>
			<path fill="#7B7C7D" d="M153,164.7c1.9,0,2.9,1.4,2.9,3.3c0,0.3,0,0.6-0.1,0.8h-4.4c0.1,1.3,0.9,2,2,2c0.6,0,1.1-0.2,1.6-0.5
				l0.6,1c-0.7,0.4-1.5,0.7-2.4,0.7c-1.9,0-3.4-1.3-3.4-3.6C149.8,166.1,151.4,164.7,153,164.7z M154.5,167.7c0-1.1-0.5-1.8-1.4-1.8
				c-0.8,0-1.5,0.6-1.7,1.8H154.5z"/>
			<path fill="#7B7C7D" d="M157.4,164.9h1.3l0.1,1.2h0.1c0.5-0.9,1.2-1.4,2-1.4c0.4,0,0.6,0,0.8,0.1l-0.3,1.4
				c-0.2-0.1-0.4-0.1-0.7-0.1c-0.6,0-1.2,0.4-1.6,1.4v4.2h-1.6V164.9z"/>
		</g>
	</g>
	<g>
		<g>
			<path fill="#7B7C7D" d="M140,141.2h1.6v3.7h3.7v-3.7h1.6v9.2h-1.6v-4.1h-3.7v4.1H140V141.2z"/>
			<path fill="#7B7C7D" d="M152,143.4c1.7,0,3.3,1.3,3.3,3.6c0,2.3-1.6,3.6-3.3,3.6c-1.7,0-3.3-1.3-3.3-3.6
				C148.7,144.7,150.3,143.4,152,143.4z M152,149.3c1,0,1.6-0.9,1.6-2.3c0-1.4-0.6-2.3-1.6-2.3c-1,0-1.6,0.9-1.6,2.3
				C150.4,148.4,151,149.3,152,149.3z"/>
			<path fill="#7B7C7D" d="M157.5,150.2L157.5,150.2c-0.4-0.3-0.6-0.6-0.6-1.2c0-0.5,0.4-1,0.8-1.3v-0.1c-0.5-0.4-0.9-1-0.9-1.8
				c0-1.6,1.3-2.5,2.7-2.5c0.4,0,0.7,0.1,1,0.2h2.5v1.2h-1.3c0.2,0.3,0.4,0.7,0.4,1.2c0,1.5-1.2,2.4-2.6,2.4c-0.3,0-0.6-0.1-0.9-0.2
				c-0.2,0.2-0.3,0.4-0.3,0.7c0,0.4,0.3,0.6,1.1,0.6h1.2c1.7,0,2.5,0.5,2.5,1.7c0,1.4-1.4,2.4-3.7,2.4c-1.7,0-2.9-0.6-2.9-1.8
				C156.5,151.1,156.8,150.6,157.5,150.2z M159.6,152.5c1.1,0,1.9-0.5,1.9-1.1c0-0.5-0.4-0.7-1.2-0.7h-0.9c-0.4,0-0.7,0-0.9-0.1
				c-0.4,0.3-0.5,0.6-0.5,0.9C157.8,152.1,158.5,152.5,159.6,152.5z M160.6,145.8c0-0.9-0.5-1.4-1.2-1.4c-0.7,0-1.2,0.5-1.2,1.4
				c0,0.9,0.5,1.4,1.2,1.4C160.1,147.2,160.6,146.7,160.6,145.8z"/>
			<path fill="#7B7C7D" d="M167,143.4c1.9,0,2.9,1.4,2.9,3.3c0,0.3,0,0.6-0.1,0.8h-4.4c0.1,1.3,0.9,2,2,2c0.6,0,1.1-0.2,1.6-0.5
				l0.6,1c-0.7,0.4-1.5,0.7-2.4,0.7c-1.9,0-3.4-1.3-3.4-3.6C163.8,144.7,165.4,143.4,167,143.4z M168.5,146.4c0-1.1-0.5-1.8-1.4-1.8
				c-0.8,0-1.5,0.6-1.7,1.8H168.5z"/>
			<path fill="#7B7C7D" d="M174.5,141.2h1.6v3.7h3.7v-3.7h1.6v9.2h-1.6v-4.1h-3.7v4.1h-1.6V141.2z"/>
			<path fill="#7B7C7D" d="M186.4,143.4c1.9,0,2.9,1.4,2.9,3.3c0,0.3,0,0.6-0.1,0.8h-4.4c0.1,1.3,0.9,2,2,2c0.6,0,1.1-0.2,1.6-0.5
				l0.6,1c-0.7,0.4-1.5,0.7-2.4,0.7c-1.9,0-3.4-1.3-3.4-3.6C183.2,144.7,184.8,143.4,186.4,143.4z M187.8,146.4
				c0-1.1-0.5-1.8-1.4-1.8c-0.8,0-1.5,0.6-1.7,1.8H187.8z"/>
			<path fill="#7B7C7D" d="M190.6,141.4c0-0.6,0.4-0.9,1-0.9s1,0.4,1,0.9c0,0.5-0.4,0.9-1,0.9S190.6,141.9,190.6,141.4z
				 M190.8,143.5h1.6v6.9h-1.6V143.5z"/>
			<path fill="#7B7C7D" d="M197,143.4c0.8,0,1.3,0.3,1.8,0.8l-0.1-1.1v-2.5h1.6v10H199l-0.1-0.7h-0.1c-0.5,0.5-1.2,0.9-2,0.9
				c-1.7,0-2.9-1.3-2.9-3.6C194.1,144.7,195.5,143.4,197,143.4z M197.3,149.3c0.5,0,1-0.2,1.5-0.8v-3.2c-0.5-0.4-0.9-0.6-1.4-0.6
				c-0.9,0-1.6,0.8-1.6,2.3C195.7,148.5,196.3,149.3,197.3,149.3z"/>
			<path fill="#7B7C7D" d="M205.2,143.4c1.9,0,2.9,1.4,2.9,3.3c0,0.3,0,0.6-0.1,0.8h-4.4c0.1,1.3,0.9,2,2,2c0.6,0,1.1-0.2,1.6-0.5
				l0.6,1c-0.7,0.4-1.5,0.7-2.4,0.7c-1.9,0-3.4-1.3-3.4-3.6C202,144.7,203.6,143.4,205.2,143.4z M206.6,146.4c0-1.1-0.5-1.8-1.4-1.8
				c-0.8,0-1.5,0.6-1.7,1.8H206.6z"/>
		</g>
	</g>
	<g>
		<g>
			<path fill="#7B7C7D" d="M351,12.6c0.7,0.6,1.6,1,2.4,1c1,0,1.6-0.5,1.6-1.2c0-0.8-0.6-1-1.4-1.4l-1.3-0.6
				c-0.9-0.4-1.9-1.1-1.9-2.5c0-1.5,1.3-2.6,3.1-2.6c1.1,0,2.1,0.5,2.9,1.2l-0.8,1c-0.6-0.5-1.2-0.8-2-0.8c-0.9,0-1.4,0.4-1.4,1.1
				c0,0.7,0.7,1,1.5,1.3l1.2,0.5c1.1,0.5,1.9,1.2,1.9,2.5c0,1.5-1.2,2.7-3.3,2.7c-1.2,0-2.4-0.5-3.3-1.4L351,12.6z"/>
			<path fill="#7B7C7D" d="M358.4,9.3h-1V8.1l1.1-0.1l0.2-1.9h1.4V8h1.8v1.3h-1.8v3.3c0,0.8,0.3,1.2,1,1.2c0.2,0,0.5-0.1,0.7-0.2
				l0.3,1.2c-0.4,0.1-0.9,0.3-1.4,0.3c-1.6,0-2.2-1-2.2-2.5V9.3z"/>
			<path fill="#7B7C7D" d="M363.3,8h1.3l0.1,1.2h0.1c0.5-0.9,1.2-1.4,2-1.4c0.4,0,0.6,0,0.8,0.1l-0.3,1.4c-0.2-0.1-0.4-0.1-0.7-0.1
				c-0.6,0-1.2,0.4-1.6,1.4v4.2h-1.6V8z"/>
			<path fill="#7B7C7D" d="M368.5,8h1.6v4.1c0,1.1,0.3,1.6,1.1,1.6c0.6,0,1-0.3,1.5-1V8h1.6v6.9H373l-0.1-1h0
				c-0.6,0.7-1.3,1.2-2.2,1.2c-1.5,0-2.1-1-2.1-2.8V8z"/>
			<path fill="#7B7C7D" d="M376.4,5h1.6v2.6l0,1.2c0.6-0.5,1.3-0.9,2-0.9c1.7,0,2.7,1.4,2.7,3.5c0,2.4-1.4,3.8-3,3.8
				c-0.6,0-1.3-0.3-1.9-0.9h0l-0.1,0.7h-1.3V5z M379.4,13.8c0.9,0,1.6-0.8,1.6-2.4c0-1.4-0.5-2.2-1.5-2.2c-0.5,0-1,0.3-1.5,0.8v3.2
				C378.5,13.6,379,13.8,379.4,13.8z"/>
			<path fill="#7B7C7D" d="M384.4,5h1.6v2.6l0,1.2c0.6-0.5,1.3-0.9,2-0.9c1.7,0,2.7,1.4,2.7,3.5c0,2.4-1.4,3.8-3,3.8
				c-0.6,0-1.3-0.3-1.9-0.9h0l-0.1,0.7h-1.3V5z M387.4,13.8c0.9,0,1.6-0.8,1.6-2.4c0-1.4-0.5-2.2-1.5-2.2c-0.5,0-1,0.3-1.5,0.8v3.2
				C386.5,13.6,387,13.8,387.4,13.8z"/>
			<path fill="#7B7C7D" d="M395.1,7.8c1.9,0,2.9,1.4,2.9,3.3c0,0.3,0,0.6-0.1,0.8h-4.4c0.1,1.3,0.9,2,2,2c0.6,0,1.1-0.2,1.6-0.5
				l0.5,1c-0.7,0.4-1.5,0.7-2.4,0.7c-1.9,0-3.4-1.3-3.4-3.6C391.9,9.2,393.4,7.8,395.1,7.8z M396.5,10.9c0-1.1-0.5-1.8-1.4-1.8
				c-0.8,0-1.5,0.6-1.7,1.8H396.5z"/>
			<path fill="#7B7C7D" d="M399.5,8h1.3l0.1,0.9h0.1c0.6-0.6,1.3-1.1,2.3-1.1c1.5,0,2.1,1,2.1,2.8v4.3h-1.6v-4.1
				c0-1.1-0.3-1.6-1.1-1.6c-0.6,0-1,0.3-1.6,0.9v4.8h-1.6V8z"/>
		</g>
	</g>
	<g>
		<g>
			<path fill="#7B7C7D" d="M326.8,29.5h2v-5.9h-1.7v-1c0.9-0.2,1.5-0.4,2.1-0.7h1.2v7.6h1.8v1.3h-5.4V29.5z"/>
		</g>
	</g>
	<g>
		<g>
			<path fill="#7B7C7D" d="M365.8,43.1c2.5-2.4,4.1-4,4.1-5.4c0-0.9-0.5-1.6-1.5-1.6c-0.7,0-1.3,0.5-1.8,1l-0.9-0.9
				c0.8-0.9,1.6-1.4,2.9-1.4c1.7,0,2.8,1.1,2.8,2.8c0,1.6-1.5,3.2-3.3,5.1c0.5,0,1.1-0.1,1.5-0.1h2.2v1.4h-6.1V43.1z"/>
		</g>
	</g>
	<g>
		<g>
			<path fill="#7B7C7D" d="M339,12.8c0.5,0.5,1.2,1,2.1,1c1,0,1.7-0.6,1.7-1.7c0-1.1-0.7-1.7-1.7-1.7c-0.6,0-0.9,0.2-1.4,0.5
				l-0.8-0.5l0.3-4.4h4.8v1.4h-3.4l-0.2,2.2c0.4-0.2,0.7-0.3,1.2-0.3c1.5,0,2.8,0.9,2.8,2.8c0,2-1.5,3.1-3.2,3.1
				c-1.5,0-2.4-0.6-3.1-1.2L339,12.8z"/>
		</g>
	</g>
	<g>
		<g>
			<path fill="#7B7C7D" d="M367.7,81.5c0.5,0.6,1.2,1,2.1,1c1,0,1.7-0.5,1.7-1.4c0-0.9-0.6-1.5-2.6-1.5v-1.2c1.8,0,2.3-0.6,2.3-1.4
				c0-0.7-0.5-1.2-1.3-1.2c-0.7,0-1.3,0.3-1.8,0.8l-0.8-1c0.8-0.7,1.6-1.1,2.7-1.1c1.7,0,2.9,0.8,2.9,2.4c0,1-0.6,1.7-1.6,2.1V79
				c1.1,0.3,1.9,1,1.9,2.2c0,1.6-1.4,2.6-3.1,2.6c-1.5,0-2.4-0.6-3-1.3L367.7,81.5z"/>
		</g>
	</g>
	<g>
		<g>
			<path fill="#7B7C7D" d="M298.6,140.9c-0.3-0.4-0.9-0.7-1.4-0.7c-1.1,0-2,0.8-2.1,3.3c0.5-0.7,1.3-1.1,1.9-1.1
				c1.6,0,2.6,0.9,2.6,2.8c0,1.8-1.3,2.9-2.8,2.9c-1.8,0-3.3-1.4-3.3-4.4c0-3.5,1.7-4.9,3.5-4.9c1.1,0,1.9,0.5,2.4,1L298.6,140.9z
				 M298.2,145.3c0-1.1-0.5-1.6-1.4-1.6c-0.5,0-1.1,0.3-1.6,1c0.2,1.6,0.8,2.3,1.7,2.3C297.6,147,298.2,146.4,298.2,145.3z"/>
		</g>
	</g>
	<g>
		<g>
			<path fill="#7B7C7D" d="M274.3,158.4H270V157h6v1c-2.1,2.6-2.5,4.5-2.6,8h-1.7C271.9,162.8,272.6,160.8,274.3,158.4z"/>
		</g>
	</g>
	<g>
		<g>
			<path fill="#7B7C7D" d="M265.4,199.5L265.4,199.5c-0.7-0.5-1.2-1.2-1.2-2.2c0-1.5,1.2-2.4,2.7-2.4c1.6,0,2.6,1,2.6,2.4
				c0,0.9-0.6,1.6-1.2,2.1v0.1c0.8,0.5,1.6,1.1,1.6,2.3c0,1.4-1.2,2.4-3,2.4c-1.8,0-3-1-3-2.5C263.7,200.7,264.5,200,265.4,199.5z
				 M266.8,203.1c0.9,0,1.5-0.5,1.5-1.3c0-1-0.9-1.3-2.2-1.8c-0.6,0.4-1,1-1,1.7C265.2,202.5,265.9,203.1,266.8,203.1z M268.1,197.5
				c0-0.8-0.5-1.4-1.3-1.4c-0.7,0-1.2,0.5-1.2,1.2c0,0.9,0.8,1.3,1.8,1.7C267.9,198.6,268.1,198.1,268.1,197.5z"/>
		</g>
	</g>
	<g>
		<g>
			<path fill="#7B7C7D" d="M194.3,213.9c0.3,0.4,0.9,0.7,1.4,0.7c1.1,0,2-0.8,2.1-3.3c-0.5,0.6-1.3,1-2,1c-1.5,0-2.6-0.9-2.6-2.8
				c0-1.8,1.3-2.9,2.8-2.9c1.8,0,3.2,1.4,3.2,4.4c0,3.5-1.7,4.9-3.5,4.9c-1.1,0-1.9-0.5-2.4-1L194.3,213.9z M197.9,210.1
				c-0.2-1.6-0.8-2.3-1.7-2.3c-0.7,0-1.3,0.6-1.3,1.7c0,1.1,0.5,1.6,1.4,1.6C196.7,211.2,197.4,210.9,197.9,210.1z"/>
		</g>
	</g>
	<g>
		<g>
			<path fill="#7B7C7D" d="M179.3,243.2h2v-5.9h-1.7v-1c0.9-0.2,1.5-0.4,2.1-0.7h1.2v7.6h1.8v1.3h-5.4V243.2z"/>
			<path fill="#7B7C7D" d="M186,240c0-3,1.2-4.6,3-4.6s3,1.6,3,4.6c0,3-1.2,4.7-3,4.7S186,243.1,186,240z M190.6,240
				c0-2.5-0.6-3.3-1.5-3.3c-0.9,0-1.5,0.8-1.5,3.3c0,2.5,0.6,3.4,1.5,3.4C189.9,243.4,190.6,242.6,190.6,240z"/>
		</g>
	</g>
	<g>
		<g>
			<path fill="#7B7C7D" d="M147.7,230.2h2v-5.9H148v-1c0.9-0.2,1.5-0.4,2.1-0.7h1.2v7.6h1.8v1.3h-5.4V230.2z"/>
			<path fill="#7B7C7D" d="M154.9,230.2h2v-5.9h-1.7v-1c0.9-0.2,1.5-0.4,2.1-0.7h1.2v7.6h1.8v1.3h-5.4V230.2z"/>
		</g>
	</g>
	<g>
		<g>
			<path fill="#7B7C7D" d="M167.1,170.5h2v-5.9h-1.7v-1c0.9-0.2,1.5-0.4,2.1-0.7h1.2v7.6h1.8v1.3h-5.4V170.5z"/>
			<path fill="#7B7C7D" d="M173.9,170.9c2.5-2.4,4.1-4,4.1-5.4c0-0.9-0.5-1.6-1.5-1.6c-0.7,0-1.3,0.5-1.8,1l-0.9-0.9
				c0.8-0.9,1.6-1.4,2.9-1.4c1.7,0,2.8,1.1,2.8,2.8c0,1.6-1.5,3.2-3.3,5.1c0.5,0,1.1-0.1,1.5-0.1h2.2v1.4h-6.1V170.9z"/>
		</g>
	</g>
	<g>
		<g>
			<path fill="#7B7C7D" d="M212.6,149.1h2v-5.9h-1.7v-1c0.9-0.2,1.5-0.4,2.1-0.7h1.2v7.6h1.8v1.3h-5.4V149.1z"/>
			<path fill="#7B7C7D" d="M219.9,148.3c0.5,0.6,1.2,1,2.1,1c1,0,1.7-0.5,1.7-1.4c0-0.9-0.6-1.5-2.6-1.5v-1.2c1.8,0,2.3-0.6,2.3-1.4
				c0-0.7-0.5-1.2-1.3-1.2c-0.7,0-1.3,0.3-1.8,0.8l-0.8-1c0.8-0.7,1.6-1.1,2.7-1.1c1.7,0,2.9,0.8,2.9,2.4c0,1-0.6,1.7-1.6,2.1v0.1
				c1.1,0.3,1.9,1,1.9,2.2c0,1.6-1.4,2.6-3.1,2.6c-1.5,0-2.4-0.6-3-1.3L219.9,148.3z"/>
		</g>
	</g>
	<g>
		<g>
			<path fill="#7B7C7D" d="M241.8,138.4h2v-5.9h-1.7v-1c0.9-0.2,1.5-0.4,2.1-0.7h1.2v7.6h1.8v1.3h-5.4V138.4z"/>
			<path fill="#7B7C7D" d="M249.1,137.6c0.5,0.5,1.2,1,2.1,1c1,0,1.7-0.6,1.7-1.7c0-1.1-0.7-1.7-1.7-1.7c-0.6,0-0.9,0.2-1.4,0.5
				l-0.8-0.5l0.3-4.4h4.8v1.4h-3.4l-0.2,2.2c0.4-0.2,0.7-0.3,1.2-0.3c1.5,0,2.8,0.9,2.8,2.8c0,2-1.5,3.1-3.2,3.1
				c-1.5,0-2.4-0.6-3.1-1.2L249.1,137.6z"/>
		</g>
	</g>
	<g>
		<g>
			<path fill="#7B7C7D" d="M245.4,96.1h2v-5.9h-1.7v-1c0.9-0.2,1.5-0.4,2.1-0.7h1.2v7.6h1.8v1.3h-5.4V96.1z"/>
			<path fill="#7B7C7D" d="M257.3,90.3c-0.3-0.4-0.9-0.7-1.4-0.7c-1.1,0-2,0.8-2.1,3.3c0.5-0.7,1.3-1.1,1.9-1.1
				c1.6,0,2.6,0.9,2.6,2.8c0,1.8-1.3,2.9-2.8,2.9c-1.8,0-3.3-1.4-3.3-4.4c0-3.5,1.7-4.9,3.5-4.9c1.1,0,1.9,0.5,2.4,1L257.3,90.3z
				 M256.8,94.6c0-1.1-0.5-1.6-1.4-1.6c-0.5,0-1.1,0.3-1.6,1c0.2,1.6,0.8,2.3,1.7,2.3C256.2,96.3,256.8,95.7,256.8,94.6z"/>
		</g>
	</g>
	<g>
		<g>
			<path fill="#7B7C7D" d="M274.3,103.6h2v-5.9h-1.7v-1c0.9-0.2,1.5-0.4,2.1-0.7h1.2v7.6h1.8v1.3h-5.4V103.6z"/>
			<path fill="#7B7C7D" d="M285.3,97.3h-4.2v-1.4h6v1c-2.1,2.6-2.5,4.5-2.6,8h-1.7C283,101.7,283.6,99.7,285.3,97.3z"/>
		</g>
	</g>
	<g>
		<g>
			<path fill="#7B7C7D" d="M257.1,82.4h2v-5.9h-1.7v-1c0.9-0.2,1.5-0.4,2.1-0.7h1.2v7.6h1.8v1.3h-5.4V82.4z"/>
			<path fill="#7B7C7D" d="M265.5,79.1L265.5,79.1c-0.7-0.5-1.2-1.2-1.2-2.2c0-1.5,1.2-2.4,2.7-2.4c1.6,0,2.6,1,2.6,2.4
				c0,0.9-0.6,1.6-1.2,2.1v0.1c0.8,0.5,1.6,1.1,1.6,2.3c0,1.4-1.2,2.4-3,2.4c-1.8,0-3-1-3-2.5C263.9,80.3,264.7,79.6,265.5,79.1z
				 M267,82.7c0.9,0,1.5-0.5,1.5-1.3c0-1-0.9-1.3-2.2-1.8c-0.6,0.4-1,1-1,1.7C265.3,82.1,266.1,82.7,267,82.7z M268.3,77.1
				c0-0.8-0.5-1.4-1.3-1.4c-0.7,0-1.2,0.5-1.2,1.2c0,0.9,0.8,1.3,1.8,1.7C268,78.2,268.3,77.7,268.3,77.1z"/>
		</g>
	</g>
	<g>
		<g>
			<path fill="#7B7C7D" d="M353.5,70.3h-1.1v2.3h-1.5v-2.3h-4v-1.1l3.6-5.6h1.9V69h1.1V70.3z M350.9,69v-2c0-0.5,0-1.3,0.1-1.9h-0.1
				c-0.2,0.5-0.5,0.9-0.7,1.4l-1.6,2.5H350.9z"/>
		</g>
	</g>
	<g>
		<g>
			<path fill="#7B7C7D" d="M196.3,127.9l-2-3.6h-1.4v3.6h-1.6v-9.2h3.1c1.9,0,3.4,0.7,3.4,2.7c0,1.4-0.7,2.3-1.8,2.6l2.2,3.9H196.3z
				 M192.9,123h1.3c1.3,0,1.9-0.5,1.9-1.6c0-1.1-0.7-1.4-1.9-1.4h-1.3V123z"/>
			<path fill="#7B7C7D" d="M203.3,123.5c0-0.7-0.3-1.4-1.3-1.4c-0.7,0-1.3,0.3-1.9,0.7l-0.6-1.1c0.8-0.5,1.7-0.9,2.8-0.9
				c1.7,0,2.6,1.1,2.6,3v4.1h-1.3l-0.1-0.8h0c-0.6,0.5-1.3,0.9-2.1,0.9c-1.2,0-2.1-0.8-2.1-2C199.3,124.6,200.5,123.8,203.3,123.5z
				 M201.8,126.8c0.6,0,1-0.3,1.5-0.8v-1.6c-1.9,0.2-2.5,0.7-2.5,1.4C200.8,126.6,201.3,126.8,201.8,126.8z"/>
			<path fill="#7B7C7D" d="M206.9,121h1.3l0.1,0.9h0.1c0.6-0.6,1.3-1.1,2.1-1.1c1,0,1.6,0.5,1.9,1.2c0.7-0.7,1.4-1.2,2.2-1.2
				c1.5,0,2.1,1,2.1,2.8v4.3h-1.6v-4.1c0-1.1-0.3-1.6-1.1-1.6c-0.4,0-0.9,0.3-1.5,0.9v4.8h-1.6v-4.1c0-1.1-0.3-1.6-1.1-1.6
				c-0.4,0-0.9,0.3-1.5,0.9v4.8h-1.6V121z"/>
			<path fill="#7B7C7D" d="M218.9,126.1c0.6,0.5,1.2,0.8,1.9,0.8c0.7,0,1.1-0.4,1.1-0.8c0-0.6-0.7-0.8-1.5-1.1
				c-0.9-0.3-1.9-0.9-1.9-2c0-1.2,1-2.1,2.5-2.1c1,0,1.7,0.4,2.3,0.8l-0.7,1c-0.5-0.4-1-0.6-1.5-0.6c-0.7,0-1,0.3-1,0.8
				c0,0.5,0.7,0.8,1.4,1c0.9,0.4,2,0.8,2,2.1c0,1.2-0.9,2.1-2.7,2.1c-0.9,0-1.9-0.4-2.6-1L218.9,126.1z"/>
			<path fill="#7B7C7D" d="M224.9,118h1.6v2.6l-0.1,1.3c0.6-0.6,1.3-1,2.2-1c1.5,0,2.1,1,2.1,2.8v4.3h-1.6v-4.1
				c0-1.1-0.3-1.6-1.1-1.6c-0.6,0-1,0.3-1.6,0.9v4.8h-1.6V118z"/>
			<path fill="#7B7C7D" d="M235.6,120.8c1.7,0,3.3,1.3,3.3,3.6c0,2.3-1.6,3.6-3.3,3.6c-1.7,0-3.3-1.3-3.3-3.6
				C232.3,122.2,233.9,120.8,235.6,120.8z M235.6,126.8c1,0,1.6-0.9,1.6-2.3c0-1.4-0.6-2.3-1.6-2.3c-1,0-1.6,0.9-1.6,2.3
				C234,125.9,234.6,126.8,235.6,126.8z"/>
			<path fill="#7B7C7D" d="M243.3,120.8c1.9,0,2.9,1.4,2.9,3.3c0,0.3,0,0.6-0.1,0.8h-4.4c0.1,1.3,0.9,2,2,2c0.6,0,1.1-0.2,1.6-0.5
				l0.6,1c-0.7,0.4-1.5,0.7-2.4,0.7c-1.9,0-3.4-1.3-3.4-3.6C240.1,122.2,241.6,120.8,243.3,120.8z M244.7,123.9
				c0-1.1-0.5-1.8-1.4-1.8c-0.8,0-1.5,0.6-1.7,1.8H244.7z"/>
			<path fill="#7B7C7D" d="M247.7,118h1.6v6.2h0l2.6-3.2h1.8l-2.4,2.8l2.6,4.1h-1.8l-1.8-3l-1.1,1.2v1.8h-1.6V118z"/>
		</g>
	</g>
	<g>
		<g>
			<path fill="#7B7C7D" d="M123,88c1.3,0,2.2,0.6,2.8,1.2l-0.9,1c-0.5-0.5-1-0.8-1.8-0.8c-1.6,0-2.7,1.3-2.7,3.3
				c0,2.1,1,3.4,2.8,3.4c0.5,0,1-0.1,1.3-0.4v-2h-1.7v-1.3h3.2v4.1c-0.6,0.6-1.7,1.1-3,1.1c-2.5,0-4.3-1.7-4.3-4.8
				C118.6,89.8,120.6,88,123,88z"/>
			<path fill="#7B7C7D" d="M130.6,90.3c1.9,0,2.9,1.4,2.9,3.3c0,0.3,0,0.6-0.1,0.8h-4.4c0.1,1.3,0.9,2,2,2c0.6,0,1.1-0.2,1.6-0.5
				l0.5,1c-0.7,0.4-1.5,0.7-2.4,0.7c-1.9,0-3.4-1.3-3.4-3.6C127.4,91.7,128.9,90.3,130.6,90.3z M132,93.3c0-1.1-0.5-1.8-1.4-1.8
				c-0.8,0-1.5,0.6-1.7,1.8H132z"/>
			<path fill="#7B7C7D" d="M137.7,90.3c1.9,0,2.9,1.4,2.9,3.3c0,0.3,0,0.6-0.1,0.8h-4.4c0.1,1.3,0.9,2,2,2c0.6,0,1.1-0.2,1.6-0.5
				l0.5,1c-0.7,0.4-1.5,0.7-2.4,0.7c-1.9,0-3.4-1.3-3.4-3.6C134.5,91.7,136.1,90.3,137.7,90.3z M139.2,93.3c0-1.1-0.5-1.8-1.4-1.8
				c-0.8,0-1.5,0.6-1.7,1.8H139.2z"/>
			<path fill="#7B7C7D" d="M142.1,90.5h1.3l0.1,1.2h0.1c0.5-0.9,1.2-1.4,2-1.4c0.4,0,0.6,0,0.8,0.1l-0.3,1.4
				c-0.2-0.1-0.4-0.1-0.7-0.1c-0.6,0-1.2,0.4-1.6,1.4v4.2h-1.6V90.5z"/>
			<path fill="#7B7C7D" d="M147.6,91.8h-1v-1.2l1.1-0.1l0.2-1.9h1.4v1.9h1.8v1.3h-1.8v3.3c0,0.8,0.3,1.2,1,1.2
				c0.2,0,0.5-0.1,0.7-0.2l0.3,1.2c-0.4,0.1-0.9,0.3-1.4,0.3c-1.6,0-2.2-1-2.2-2.5V91.8z"/>
			<path fill="#7B7C7D" d="M157.4,89.6h-2.7v-1.4h7v1.4H159v7.8h-1.6V89.6z"/>
			<path fill="#7B7C7D" d="M162.9,88.3c0-0.6,0.4-0.9,1-0.9c0.6,0,1,0.4,1,0.9c0,0.5-0.4,0.9-1,0.9
				C163.3,89.3,162.9,88.9,162.9,88.3z M163,90.5h1.6v6.9H163V90.5z"/>
			<path fill="#7B7C7D" d="M166.7,90.5h1.3l0.1,0.9h0.1c0.6-0.6,1.3-1.1,2.1-1.1c1,0,1.6,0.5,1.9,1.2c0.7-0.7,1.4-1.2,2.2-1.2
				c1.5,0,2.1,1,2.1,2.8v4.3H175v-4.1c0-1.1-0.3-1.6-1.1-1.6c-0.4,0-0.9,0.3-1.5,0.9v4.8h-1.6v-4.1c0-1.1-0.3-1.6-1.1-1.6
				c-0.4,0-0.9,0.3-1.5,0.9v4.8h-1.6V90.5z"/>
			<path fill="#7B7C7D" d="M178.6,90.5h1.3l0.1,0.9h0.1c0.6-0.6,1.3-1.1,2.1-1.1c1,0,1.6,0.5,1.9,1.2c0.7-0.7,1.4-1.2,2.2-1.2
				c1.5,0,2.1,1,2.1,2.8v4.3h-1.6v-4.1c0-1.1-0.3-1.6-1.1-1.6c-0.4,0-0.9,0.3-1.5,0.9v4.8h-1.6v-4.1c0-1.1-0.3-1.6-1.1-1.6
				c-0.4,0-0.9,0.3-1.5,0.9v4.8h-1.6V90.5z"/>
			<path fill="#7B7C7D" d="M193.3,90.3c1.9,0,2.9,1.4,2.9,3.3c0,0.3,0,0.6-0.1,0.8h-4.4c0.1,1.3,0.9,2,2,2c0.6,0,1.1-0.2,1.6-0.5
				l0.5,1c-0.7,0.4-1.5,0.7-2.4,0.7c-1.9,0-3.4-1.3-3.4-3.6C190.1,91.7,191.6,90.3,193.3,90.3z M194.7,93.3c0-1.1-0.5-1.8-1.4-1.8
				c-0.8,0-1.5,0.6-1.7,1.8H194.7z"/>
			<path fill="#7B7C7D" d="M197.7,90.5h1.3l0.1,1.2h0.1c0.5-0.9,1.2-1.4,2-1.4c0.4,0,0.6,0,0.8,0.1l-0.3,1.4
				c-0.2-0.1-0.4-0.1-0.7-0.1c-0.6,0-1.2,0.4-1.6,1.4v4.2h-1.6V90.5z"/>
			<path fill="#7B7C7D" d="M206,88.2h3c1.9,0,3.3,0.6,3.3,2.3c0,0.9-0.5,1.7-1.6,2v0.1c1.3,0.2,2.1,0.9,2.1,2.2
				c0,1.8-1.5,2.7-3.5,2.7H206V88.2z M208.8,92c1.3,0,1.8-0.5,1.8-1.4c0-0.8-0.6-1.2-1.8-1.2h-1.2V92H208.8z M209,96.1
				c1.4,0,2.1-0.5,2.1-1.6c0-1-0.7-1.4-2.1-1.4h-1.4v3H209z"/>
			<path fill="#7B7C7D" d="M217,90.3c1.7,0,3.3,1.3,3.3,3.6c0,2.3-1.6,3.6-3.3,3.6c-1.7,0-3.3-1.3-3.3-3.6
				C213.8,91.6,215.3,90.3,217,90.3z M217,96.2c1,0,1.6-0.9,1.6-2.3c0-1.4-0.6-2.3-1.6-2.3c-1,0-1.6,0.9-1.6,2.3
				C215.4,95.3,216,96.2,217,96.2z"/>
			<path fill="#7B7C7D" d="M225,90.3c0.9,0,1.6,0.4,2,0.8l-0.8,1c-0.4-0.3-0.7-0.5-1.2-0.5c-1.1,0-1.9,0.9-1.9,2.3
				c0,1.4,0.8,2.3,1.8,2.3c0.6,0,1-0.3,1.4-0.6l0.7,1c-0.6,0.6-1.5,0.9-2.3,0.9c-1.9,0-3.3-1.3-3.3-3.6
				C221.5,91.6,223.1,90.3,225,90.3z"/>
			<path fill="#7B7C7D" d="M228.5,87.4h1.6V90l-0.1,1.3c0.6-0.6,1.3-1,2.2-1c1.5,0,2.1,1,2.1,2.8v4.3h-1.6v-4.1
				c0-1.1-0.3-1.6-1.1-1.6c-0.6,0-1,0.3-1.6,0.9v4.8h-1.6V87.4z"/>
			<path fill="#7B7C7D" d="M236.6,91.8h-1v-1.2l1.1-0.1l0.2-1.9h1.4v1.9h1.8v1.3h-1.8v3.3c0,0.8,0.3,1.2,1,1.2
				c0.2,0,0.5-0.1,0.7-0.2l0.3,1.2c-0.4,0.1-0.9,0.3-1.4,0.3c-1.6,0-2.2-1-2.2-2.5V91.8z"/>
		</g>
	</g>
	<g>
		<g>
			<path fill="#7B7C7D" d="M319.2,108.5h1.7l1.3,4.6c0.3,1,0.5,1.9,0.8,3h0.1c0.3-1.1,0.5-2,0.8-3l1.3-4.6h1.7l-2.9,9.2h-1.9
				L319.2,108.5z"/>
			<path fill="#7B7C7D" d="M330.6,110.6c1.9,0,2.9,1.4,2.9,3.3c0,0.3,0,0.6-0.1,0.8H329c0.1,1.3,0.9,2,2,2c0.6,0,1.1-0.2,1.6-0.5
				l0.5,1c-0.7,0.4-1.5,0.7-2.4,0.7c-1.9,0-3.4-1.3-3.4-3.6C327.4,112,329,110.6,330.6,110.6z M332.1,113.6c0-1.1-0.5-1.8-1.4-1.8
				c-0.8,0-1.5,0.6-1.7,1.8H332.1z"/>
			<path fill="#7B7C7D" d="M337.8,110.6c1.9,0,2.9,1.4,2.9,3.3c0,0.3,0,0.6-0.1,0.8h-4.4c0.1,1.3,0.9,2,2,2c0.6,0,1.1-0.2,1.6-0.5
				l0.5,1c-0.7,0.4-1.5,0.7-2.4,0.7c-1.9,0-3.4-1.3-3.4-3.6C334.6,112,336.1,110.6,337.8,110.6z M339.2,113.6c0-1.1-0.5-1.8-1.4-1.8
				c-0.8,0-1.5,0.6-1.7,1.8H339.2z"/>
			<path fill="#7B7C7D" d="M342.2,110.8h1.3l0.1,0.9h0.1c0.6-0.6,1.3-1.1,2.3-1.1c1.5,0,2.1,1,2.1,2.8v4.3h-1.6v-4.1
				c0-1.1-0.3-1.6-1.1-1.6c-0.6,0-1,0.3-1.6,0.9v4.8h-1.6V110.8z"/>
			<path fill="#7B7C7D" d="M350.1,115.9c0.6,0.5,1.2,0.8,1.9,0.8c0.7,0,1.1-0.4,1.1-0.8c0-0.6-0.7-0.8-1.5-1.1
				c-0.9-0.3-1.9-0.9-1.9-2c0-1.2,1-2.1,2.5-2.1c1,0,1.7,0.4,2.3,0.8l-0.7,1c-0.5-0.4-1-0.6-1.5-0.6c-0.7,0-1,0.3-1,0.8
				c0,0.5,0.7,0.8,1.4,1c0.9,0.4,2,0.8,2,2.1c0,1.2-0.9,2.1-2.7,2.1c-0.9,0-1.9-0.4-2.6-1L350.1,115.9z"/>
			<path fill="#7B7C7D" d="M356.2,107.7h1.6v8.3c0,0.4,0.2,0.5,0.4,0.5c0.1,0,0.1,0,0.3,0l0.2,1.2c-0.2,0.1-0.5,0.1-0.9,0.1
				c-1.2,0-1.6-0.7-1.6-1.9V107.7z"/>
			<path fill="#7B7C7D" d="M363.8,113.3c0-0.7-0.3-1.4-1.3-1.4c-0.7,0-1.3,0.3-1.9,0.7l-0.6-1.1c0.8-0.5,1.7-0.9,2.8-0.9
				c1.7,0,2.6,1.1,2.6,3v4.1h-1.3l-0.1-0.8h0c-0.6,0.5-1.3,0.9-2.1,0.9c-1.2,0-2.1-0.8-2.1-2C359.7,114.4,360.9,113.6,363.8,113.3z
				 M362.2,116.6c0.6,0,1-0.3,1.5-0.8v-1.6c-1.9,0.2-2.5,0.7-2.5,1.4C361.3,116.3,361.7,116.6,362.2,116.6z"/>
			<path fill="#7B7C7D" d="M367.4,110.8h1.3l0.1,0.9h0.1c0.6-0.6,1.3-1.1,2.3-1.1c1.5,0,2.1,1,2.1,2.8v4.3h-1.6v-4.1
				c0-1.1-0.3-1.6-1.1-1.6c-0.6,0-1,0.3-1.6,0.9v4.8h-1.6V110.8z"/>
			<path fill="#7B7C7D" d="M375.8,117.5L375.8,117.5c-0.4-0.3-0.6-0.6-0.6-1.2c0-0.5,0.4-1,0.8-1.3v-0.1c-0.5-0.4-0.9-1-0.9-1.8
				c0-1.6,1.3-2.5,2.7-2.5c0.4,0,0.7,0.1,1,0.2h2.5v1.2H380c0.2,0.3,0.4,0.7,0.4,1.2c0,1.5-1.2,2.4-2.6,2.4c-0.3,0-0.6-0.1-0.9-0.2
				c-0.2,0.2-0.3,0.4-0.3,0.7c0,0.4,0.3,0.6,1.1,0.6h1.2c1.7,0,2.5,0.5,2.5,1.7c0,1.4-1.4,2.4-3.7,2.4c-1.7,0-2.9-0.6-2.9-1.8
				C374.8,118.4,375.1,117.9,375.8,117.5z M377.9,119.7c1.1,0,1.9-0.5,1.9-1.1c0-0.5-0.4-0.7-1.2-0.7h-0.9c-0.4,0-0.7,0-0.9-0.1
				c-0.4,0.3-0.5,0.6-0.5,0.9C376.1,119.3,376.8,119.7,377.9,119.7z M379,113.1c0-0.9-0.5-1.4-1.2-1.4c-0.7,0-1.2,0.5-1.2,1.4
				c0,0.9,0.5,1.4,1.2,1.4C378.4,114.5,379,114,379,113.1z"/>
		</g>
	</g>
	<g>
		<g>
			<path fill="#7B7C7D" d="M377.4,34.9h1.8l1.7,4.5l0.6,1.8h0.1l0.6-1.8l1.6-4.5h1.8v9.2H384v-4.2c0-0.9,0.1-2.1,0.2-2.9h-0.1
				l-0.7,2.1l-1.6,4.2h-0.7l-1.6-4.2l-0.7-2.1h-0.1c0.1,0.8,0.2,2.1,0.2,2.9v4.2h-1.5V34.9z"/>
			<path fill="#7B7C7D" d="M391.5,39.7c0-0.7-0.3-1.4-1.3-1.4c-0.7,0-1.3,0.3-1.9,0.7l-0.6-1.1c0.8-0.5,1.7-0.9,2.8-0.9
				c1.7,0,2.6,1.1,2.6,3v4.1h-1.3l-0.1-0.8h0c-0.6,0.5-1.3,0.9-2.1,0.9c-1.2,0-2.1-0.8-2.1-2C387.4,40.7,388.7,40,391.5,39.7z
				 M390,43c0.6,0,1-0.3,1.5-0.8v-1.6c-1.9,0.2-2.5,0.7-2.5,1.4C389,42.7,389.4,43,390,43z"/>
			<path fill="#7B7C7D" d="M397.6,37c0.8,0,1.3,0.3,1.8,0.8l-0.1-1.1v-2.5h1.6v10h-1.3l-0.1-0.7h-0.1c-0.5,0.5-1.2,0.9-2,0.9
				c-1.7,0-2.9-1.3-2.9-3.6C394.7,38.4,396.1,37,397.6,37z M397.9,42.9c0.5,0,1-0.2,1.5-0.8v-3.2c-0.5-0.4-0.9-0.6-1.4-0.6
				c-0.9,0-1.6,0.8-1.6,2.3C396.4,42.1,396.9,42.9,397.9,42.9z"/>
			<path fill="#7B7C7D" d="M402.9,35c0-0.6,0.4-0.9,1-0.9c0.6,0,1,0.4,1,0.9c0,0.5-0.4,0.9-1,0.9C403.3,35.9,402.9,35.6,402.9,35z
				 M403.1,37.2h1.6v6.9h-1.6V37.2z"/>
			<path fill="#7B7C7D" d="M406.8,37.2h1.6v7.3c0,1.5-0.6,2.6-2.2,2.6c-0.5,0-0.9-0.1-1.1-0.2l0.3-1.2c0.2,0.1,0.4,0.1,0.6,0.1
				c0.6,0,0.8-0.4,0.8-1.2V37.2z M406.6,35c0-0.6,0.4-0.9,1-0.9c0.6,0,1,0.4,1,0.9c0,0.5-0.4,0.9-1,0.9
				C407,35.9,406.6,35.6,406.6,35z"/>
			<path fill="#7B7C7D" d="M410.5,34.1h1.6v6.2h0l2.6-3.2h1.8l-2.4,2.8l2.6,4.1h-1.8l-1.8-3l-1.1,1.2v1.8h-1.6V34.1z"/>
		</g>
	</g>
	<g>
		<g>
			<path fill="#7B7C7D" d="M343.6,90.8c0-3,1.7-4.7,4.1-4.7c2.4,0,4.1,1.8,4.1,4.7c0,3-1.7,4.8-4.1,4.8
				C345.3,95.6,343.6,93.8,343.6,90.8z M350.1,90.8c0-2.1-0.9-3.3-2.4-3.3c-1.5,0-2.4,1.3-2.4,3.3c0,2.1,0.9,3.4,2.4,3.4
				C349.1,94.2,350.1,92.9,350.1,90.8z"/>
			<path fill="#7B7C7D" d="M353.5,93.6c0.6,0.5,1.2,0.8,1.9,0.8c0.7,0,1.1-0.4,1.1-0.8c0-0.6-0.7-0.8-1.5-1.1
				c-0.9-0.3-1.9-0.9-1.9-2c0-1.2,1-2.1,2.5-2.1c1,0,1.7,0.4,2.3,0.8l-0.7,1c-0.5-0.4-1-0.6-1.5-0.6c-0.7,0-1,0.3-1,0.8
				c0,0.5,0.7,0.8,1.4,1c0.9,0.4,2,0.8,2,2.1c0,1.2-0.9,2.1-2.7,2.1c-0.9,0-1.9-0.4-2.6-1L353.5,93.6z"/>
			<path fill="#7B7C7D" d="M359.6,93.6c0.6,0.5,1.2,0.8,1.9,0.8c0.7,0,1.1-0.4,1.1-0.8c0-0.6-0.7-0.8-1.5-1.1
				c-0.9-0.3-1.9-0.9-1.9-2c0-1.2,1-2.1,2.5-2.1c1,0,1.7,0.4,2.3,0.8l-0.7,1c-0.5-0.4-1-0.6-1.5-0.6c-0.7,0-1,0.3-1,0.8
				c0,0.5,0.7,0.8,1.4,1c0.9,0.4,2,0.8,2,2.1c0,1.2-0.9,2.1-2.7,2.1c-0.9,0-1.9-0.4-2.6-1L359.6,93.6z"/>
			<path fill="#7B7C7D" d="M368.4,88.4c1.9,0,2.9,1.4,2.9,3.3c0,0.3,0,0.6-0.1,0.8h-4.4c0.1,1.3,0.9,2,2,2c0.6,0,1.1-0.2,1.6-0.5
				l0.5,1c-0.7,0.4-1.5,0.7-2.4,0.7c-1.9,0-3.4-1.3-3.4-3.6C365.2,89.8,366.7,88.4,368.4,88.4z M369.8,91.4c0-1.1-0.5-1.8-1.4-1.8
				c-0.8,0-1.5,0.6-1.7,1.8H369.8z"/>
			<path fill="#7B7C7D" d="M372.8,85.5h1.6v2.6l0,1.2c0.6-0.5,1.3-0.9,2-0.9c1.7,0,2.7,1.4,2.7,3.5c0,2.4-1.4,3.8-3,3.8
				c-0.6,0-1.3-0.3-1.9-0.9h0l-0.1,0.7h-1.3V85.5z M375.8,94.3c0.9,0,1.6-0.8,1.6-2.4c0-1.4-0.5-2.2-1.5-2.2c-0.5,0-1,0.3-1.5,0.8
				v3.2C374.9,94.1,375.4,94.3,375.8,94.3z"/>
			<path fill="#7B7C7D" d="M380.7,88.5h1.3l0.1,1.2h0.1c0.5-0.9,1.2-1.4,2-1.4c0.4,0,0.6,0,0.8,0.1l-0.3,1.4
				c-0.2-0.1-0.4-0.1-0.7-0.1c-0.6,0-1.2,0.4-1.6,1.4v4.2h-1.6V88.5z"/>
			<path fill="#7B7C7D" d="M388.8,88.4c1.7,0,3.3,1.3,3.3,3.6c0,2.3-1.6,3.6-3.3,3.6c-1.7,0-3.3-1.3-3.3-3.6
				C385.5,89.7,387.1,88.4,388.8,88.4z M388.8,94.3c1,0,1.6-0.9,1.6-2.3c0-1.4-0.6-2.3-1.6-2.3c-1,0-1.6,0.9-1.6,2.3
				C387.2,93.4,387.8,94.3,388.8,94.3z"/>
			<path fill="#7B7C7D" d="M396.5,88.4c1.9,0,2.9,1.4,2.9,3.3c0,0.3,0,0.6-0.1,0.8h-4.4c0.1,1.3,0.9,2,2,2c0.6,0,1.1-0.2,1.6-0.5
				l0.5,1c-0.7,0.4-1.5,0.7-2.4,0.7c-1.9,0-3.4-1.3-3.4-3.6C393.3,89.8,394.9,88.4,396.5,88.4z M397.9,91.4c0-1.1-0.5-1.8-1.4-1.8
				c-0.8,0-1.5,0.6-1.7,1.8H397.9z"/>
			<path fill="#7B7C7D" d="M400.9,85.5h1.6v6.2h0l2.6-3.2h1.8l-2.4,2.8l2.6,4.1h-1.8l-1.8-3l-1.1,1.2v1.8h-1.6V85.5z"/>
			<path fill="#7B7C7D" d="M411,88.4c1.9,0,2.9,1.4,2.9,3.3c0,0.3,0,0.6-0.1,0.8h-4.4c0.1,1.3,0.9,2,2,2c0.6,0,1.1-0.2,1.6-0.5
				l0.5,1c-0.7,0.4-1.5,0.7-2.4,0.7c-1.9,0-3.4-1.3-3.4-3.6C407.8,89.8,409.4,88.4,411,88.4z M412.4,91.4c0-1.1-0.5-1.8-1.4-1.8
				c-0.8,0-1.5,0.6-1.7,1.8H412.4z"/>
			<path fill="#7B7C7D" d="M415.4,88.5h1.3l0.1,0.9h0.1c0.6-0.6,1.3-1.1,2.3-1.1c1.5,0,2.1,1,2.1,2.8v4.3h-1.6v-4.1
				c0-1.1-0.3-1.6-1.1-1.6c-0.6,0-1,0.3-1.6,0.9v4.8h-1.6V88.5z"/>
		</g>
	</g>
</g>
</svg>
