<?xml version="1.0" encoding="utf-8"?>
<!-- Generator: Adobe Illustrator 21.0.0, SVG Export Plug-In . SVG Version: 6.00 Build 0)  -->
<svg version="1.0" id="Layer_1" xmlns="http://www.w3.org/2000/svg" xmlns:xlink="http://www.w3.org/1999/xlink" x="0px" y="0px"
	 viewBox="0 0 504 251" style="enable-background:new 0 0 504 251;" xml:space="preserve">
<style type="text/css">
	.st0{fill:#B7B5B6;}
	.st1{fill:#AC1737;}
	.st2{fill:#FFFFFF;}
	.st3{fill:#7B7C7D;}
	.st4{fill:#C7C6C5;}
	.st5{clip-path:url(#SVGID_2_);}
	.st6{fill:#1E1E1C;}
	.st7{fill:#C01724;}
	.st8{fill:#AA1920;}
	.st9{fill:#009548;}
	.st10{fill:#006139;}
</style>
<g>
	<g>
		<path class="st0" d="M313.5,168.4c4.7-3.7,7.6-8.6,8.4-14.2c0.6-4.3,0-9-1.8-13.2l-0.5-1.1c-10.1-23.6-16.2-37.1-18.7-41.2
			c-0.2-0.3-0.4-0.6-0.5-0.8l0-0.1l0-0.1l-0.1-0.2c-8.1-9.9-19.3-8.1-25.3-7.2l-0.4,0.1c-0.2,0-0.4,0.1-0.6,0.1
			c-6.6,1-69.4,9.9-78.8,11.1c-11.4,1.4-16.6,5-21.6,8.5c-5.1,3.5-11.5,10.9-12.4,15.8c-0.1,0.3-0.2,0.9-0.3,1.8
			c-1,5.4-4.1,21.8-6.4,31.3c-1,4.1-3.6,8.1-7.2,11.3c-3.2,2.8-7,4.7-10,5c-11.7,0.3-26.3-0.5-29.9-6.4c-0.1-0.1-0.2-0.3-0.2-0.4
			c-1.5-3.9-0.3-7.1,0-7.7l0.4-0.7c8.4-14.1,36.2-60.8,41.5-68.4c6.7-8.6,21.6-9.3,22.2-9.3l0.3,0l0.1,0l0.1,0
			c2.2-0.3,233.1-28,249.2-29.4c10.1-0.8,17.7-4.2,22.2-9.6c3.4-4.2,4.8-9.5,4.1-15.3c-0.3-2.8-1.1-5.3-2.4-7.4
			c-7.2-11.8-25.2-8.6-32.9-7.2c-0.6,0.1-1.1,0.2-1.5,0.3l-0.1,0c-5.9,1-104.9,14.6-113.5,15.7c-7.1,0.9-22.8,0.7-25.8,0.6l-0.1,0
			l-0.1,0h-0.1l-0.1,0c-6.2,0.2-136.6,4.1-167.9,5.2c-0.7,0-7.9,0.3-11.9,6.9c-1,1.5-1.7,3.1-2,4.6l0,0l0,0l0,0.1L57.3,221.6l0,0.1
			l0,0.1l0,0.1C56.5,227,57,231,58.8,234c3.7,6.1,11.1,5.4,14.5,4.2c0.6-0.2,7-2.4,16.7-5.6c31.9-10.7,98.1-33.1,108.7-36.7
			c14.2-4.8,17.5-6.8,22.8-12c1.2-1.1,2.4-2.5,3.8-4.2l0.1-0.1c4.5-5.2,11.2-13,21.6-17.6c12.8-5.6,24.5-0.4,30.3,3.1
			c9.1,5.6,15.2,8.2,20.4,8.7C301.6,174.3,306.5,173.9,313.5,168.4z M282.6,156.4c-7.5-4.6-22.7-11.3-39.8-3.8
			c-12.5,5.5-20.1,14.4-25.2,20.3l-0.3,0.4c-1.2,1.3-2.2,2.5-2.9,3.2c-3.7,3.6-5.1,5-19,9.7c-10,3.4-71.3,24.1-104.2,35.2
			c-11.8,4-0.9,0.3-19,6.4l-0.8,0.3l-1.1,0.4l-0.9,0.3c-0.9,0.3-1.2-0.1-1.4-0.3l-0.2-0.3c-0.1-0.1-0.6-1.3-0.3-4.9L98.6,49
			c0.3-0.9,1.3-3.3,4.7-3.6c6.3-0.5,117-3.7,164.2-5.1l2.9-0.1c1.2,0,18.9,0.4,27.4-0.7c9.1-1.2,107.6-14.8,113.8-15.8
			c0.5-0.1,1.1-0.2,1.7-0.3c5.2-0.9,19.3-3.4,22.8,2.4c0.5,0.9,1.5,2,1.5,3.3v0l-0.4,0c0.4,3-0.5,5.6-2.1,7.6
			c-2.6,3.3-8,5.3-15.2,5.9c-15.7,1.3-225.1,26.5-249.4,29.4c-2.5,0.1-20.7,1.3-29.9,13.3l-0.1,0.1l-0.1,0.1l-0.1,0.1
			c-5.6,8.1-36.2,59.5-42.3,69.7l-0.2,0.3l0,0.1l0,0.1l0,0.1c-0.4,0.8-4,8.1-0.4,16.8l0.1,0.1l0,0.1l0.1,0.1l0.1,0.1
			c0.2,0.3,0.4,0.9,0.6,1.3c3.2,5.3,10.8,11.6,39.1,11.6h0l0-0.3l0.2-0.1l0-0.1l0,0c10.1-1,23.1-11,26.3-24.1
			c2.3-9.4,5.3-25.3,6.4-31.3l0.1-0.6c0.1-0.8,0.3-1.4,0.3-1.7c0.3-1.1,3.8-6.3,8.2-9.3c4.6-3.2,8.2-5.6,17.1-6.7
			c10.2-1.3,74.2-10.4,79.1-11.1l0.6-0.1l0.6-0.1c5.3-0.8,11.4-1.8,15.7,3.3c0,0,0,0,0,0c0,0,0,0.1,0.1,0.1c1.2,2,5.1,9.9,18,39.9
			l0.4,1.1c0.7,1.6,3.7,9.7-3.6,15.4C301.6,164.7,298.5,166.2,282.6,156.4z M305.7,164.5C305.7,164.5,305.7,164.5,305.7,164.5
			C305.7,164.5,305.7,164.5,305.7,164.5z"/>
	</g>
</g>
<g id="PUNTOS_INTERMEDIOS_Y_SEMAFORO_1_">
	<path class="st1" d="M47.3,144.7c0-0.5,0.5-0.9,1-0.8l33,1.7c0.5,0,0.9,0.5,0.8,1c0,0.5-0.5,0.9-1,0.8l-33-1.7
		C47.7,145.5,47.3,145.1,47.3,144.7z"/>
	<g>
		<path class="st1" d="M28.8,141.8c0-4.2,3.4-7.6,7.7-7.6h11.7c4.2,0,7.6,3.4,7.6,7.6v4.8c0,4.2-3.4,7.6-7.6,7.6H36.5
			c-4.2,0-7.7-3.4-7.7-7.6V141.8L28.8,141.8z"/>
		<g>
			<path class="st2" d="M36.3,140h5v1.2h-3.5v2.3h3v1.2h-3v3.5h-1.5V140z"/>
			<path class="st2" d="M43.4,140h1.5v7.1h3.4v1.2h-4.9V140z"/>
		</g>
	</g>
	<g>
		<path class="st3" d="M47.2,158.4c4.2,0,7.6,3.4,7.6,7.6v45.8c0,4.2-3.4,7.6-7.6,7.6h-8.3c-4.2,0-7.6-3.4-7.6-7.6V166
			c0-4.2,3.4-7.6,7.6-7.6H47.2L47.2,158.4z"/>
		<g>
			<path class="st2" d="M33.5,207.3c0-3.9,3.2-7.1,7.1-7.1h4.8c3.9,0,7.1,3.2,7.1,7.1v2.7c0,3.9-3.2,7.1-7.1,7.1h-4.8
				c-3.9,0-7.1-3.2-7.1-7.1V207.3z"/>
			<path class="st4" d="M52.1,210c0,3.7-3,6.6-6.6,6.6h-4.8c-3.7,0-6.6-3-6.6-6.6v-2.7c0-3.7,3-6.6,6.6-6.6h4.8c3.7,0,6.6,3,6.6,6.6
				V210 M53.1,210v-2.7c0-4.2-3.4-7.6-7.6-7.6h-4.8c-4.2,0-7.6,3.4-7.6,7.6v2.7c0,4.2,3.4,7.6,7.6,7.6h4.8
				C49.7,217.7,53.1,214.2,53.1,210L53.1,210z"/>
		</g>
		<g>
			<g>
				<defs>
					<path id="SVGID_1_" d="M45.4,199.7c4.2,0,7.6,3.4,7.6,7.6v2.7c0,4.2-3.4,7.6-7.6,7.6h-4.8c-4.2,0-7.6-3.4-7.6-7.6v-2.7
						c0-4.2,3.4-7.6,7.6-7.6H45.4L45.4,199.7z"/>
				</defs>
				<clipPath id="SVGID_2_">
					<use xlink:href="#SVGID_1_"  style="overflow:visible;"/>
				</clipPath>
				<g class="st5">
					<rect x="47.2" y="194.4" class="st6" width="4.2" height="4.2"/>
					<rect x="43.1" y="198.5" class="st6" width="4.2" height="4.2"/>
					<rect x="47.2" y="202.7" class="st6" width="4.2" height="4.2"/>
					<rect x="43.1" y="206.9" class="st6" width="4.2" height="4.2"/>
					<rect x="38.9" y="194.4" class="st6" width="4.2" height="4.2"/>
					<rect x="34.7" y="198.5" class="st6" width="4.2" height="4.2"/>
					<rect x="38.9" y="202.7" class="st6" width="4.2" height="4.2"/>
					<rect x="34.7" y="206.9" class="st6" width="4.2" height="4.2"/>
					<rect x="47.2" y="211" class="st6" width="4.2" height="4.2"/>
					<rect x="43.1" y="215.2" class="st6" width="4.2" height="4.2"/>
					<rect x="38.9" y="211" class="st6" width="4.2" height="4.2"/>
					<rect x="34.7" y="215.2" class="st6" width="4.2" height="4.2"/>
				</g>
			</g>
		</g>
		<g>
			<path class="st7" d="M33.5,167.8c0-3.9,3.2-7.1,7.1-7.1h4.8c3.9,0,7.1,3.2,7.1,7.1v2.7c0,3.9-3.2,7.1-7.1,7.1h-4.8
				c-3.9,0-7.1-3.2-7.1-7.1V167.8z"/>
			<path class="st8" d="M52.1,170.5c0,3.7-3,6.6-6.6,6.6h-4.8c-3.7,0-6.6-3-6.6-6.6v-2.7c0-3.7,3-6.6,6.6-6.6h4.8
				c3.7,0,6.6,3,6.6,6.6V170.5 M53.1,170.5v-2.7c0-4.2-3.4-7.6-7.6-7.6h-4.8c-4.2,0-7.6,3.4-7.6,7.6v2.7c0,4.2,3.4,7.6,7.6,7.6h4.8
				C49.7,178.1,53.1,174.7,53.1,170.5L53.1,170.5z"/>
		</g>
		<g>
			<path class="st9" d="M33.5,187.6c0-3.9,3.2-7.1,7.1-7.1h4.8c3.9,0,7.1,3.2,7.1,7.1v2.7c0,3.9-3.2,7.1-7.1,7.1h-4.8
				c-3.9,0-7.1-3.2-7.1-7.1V187.6z"/>
			<path class="st10" d="M52.1,190.3c0,3.7-3,6.6-6.6,6.6h-4.8c-3.7,0-6.6-3-6.6-6.6v-2.7c0-3.7,3-6.6,6.6-6.6h4.8
				c3.7,0,6.6,3,6.6,6.6V190.3 M53.1,190.3v-2.7c0-4.2-3.4-7.6-7.6-7.6h-4.8c-4.2,0-7.6,3.4-7.6,7.6v2.7c0,4.2,3.4,7.6,7.6,7.6h4.8
				C49.7,197.9,53.1,194.5,53.1,190.3L53.1,190.3z"/>
		</g>
		<g>
			<path class="st4" d="M52.1,210c0,3.7-3,6.6-6.6,6.6h-4.8c-3.7,0-6.6-3-6.6-6.6v-2.7c0-3.7,3-6.6,6.6-6.6h4.8c3.7,0,6.6,3,6.6,6.6
				V210 M53.1,210v-2.7c0-4.2-3.4-7.6-7.6-7.6h-4.8c-4.2,0-7.6,3.4-7.6,7.6v2.7c0,4.2,3.4,7.6,7.6,7.6h4.8
				C49.7,217.7,53.1,214.2,53.1,210L53.1,210z"/>
		</g>
	</g>
</g>
<g id="textos_y_numeros_1_">
	<g>
		<g>
			<path class="st3" d="M80.2,32.3h2v-5.9h-1.7v-1c0.9-0.2,1.5-0.4,2.1-0.7h1.2v7.6h1.8v1.3h-5.4V32.3z"/>
		</g>
	</g>
	<g>
		<g>
			<path class="st3" d="M286.7,21.3c2.5-2.4,4.1-4,4.1-5.4c0-0.9-0.5-1.6-1.5-1.6c-0.7,0-1.3,0.5-1.8,1l-0.9-0.9
				c0.8-0.9,1.6-1.4,2.9-1.4c1.7,0,2.8,1.1,2.8,2.8c0,1.6-1.5,3.2-3.3,5.1c0.5,0,1.1-0.1,1.5-0.1h2.2v1.4h-6.1v-0.9H286.7z"/>
		</g>
	</g>
	<g>
		<g>
			<path class="st3" d="M456.9,29.5c0.5,0.6,1.2,1,2.1,1c1,0,1.7-0.5,1.7-1.4s-0.6-1.5-2.6-1.5v-1.2c1.8,0,2.3-0.6,2.3-1.4
				c0-0.7-0.5-1.2-1.3-1.2c-0.7,0-1.3,0.3-1.8,0.8l-0.8-1c0.8-0.7,1.6-1.1,2.7-1.1c1.7,0,2.9,0.8,2.9,2.4c0,1-0.6,1.7-1.6,2.1v0.1
				c1.1,0.3,1.9,1,1.9,2.2c0,1.6-1.4,2.6-3.1,2.6c-1.5,0-2.4-0.6-3-1.3L456.9,29.5z"/>
		</g>
	</g>
	<g>
		<g>
			<path class="st3" d="M140,70.5h-1.1v2.3h-1.5v-2.3h-4v-1.1l3.6-5.6h1.9v5.4h1.1V70.5z M137.4,69.2v-2c0-0.5,0-1.3,0.1-1.9h-0.1
				c-0.2,0.5-0.5,0.9-0.7,1.4l-1.6,2.5H137.4z"/>
		</g>
	</g>
	<g>
		<g>
			<path class="st3" d="M88.5,191.1c0.5,0.5,1.2,1,2.1,1c1,0,1.7-0.6,1.7-1.7s-0.7-1.7-1.7-1.7c-0.6,0-0.9,0.2-1.4,0.5l-0.8-0.5
				l0.3-4.4h4.8v1.4h-3.4l-0.2,2.2c0.4-0.2,0.7-0.3,1.2-0.3c1.5,0,2.8,0.9,2.8,2.8c0,2-1.5,3.1-3.2,3.1c-1.5,0-2.4-0.6-3.1-1.2
				L88.5,191.1z"/>
		</g>
	</g>
	<g>
		<g>
			<path class="st3" d="M163.8,184.3c-0.3-0.4-0.9-0.7-1.4-0.7c-1.1,0-2,0.8-2.1,3.3c0.5-0.7,1.3-1.1,1.9-1.1c1.6,0,2.6,0.9,2.6,2.8
				c0,1.8-1.3,2.9-2.8,2.9c-1.8,0-3.3-1.4-3.3-4.4c0-3.5,1.7-4.9,3.5-4.9c1.1,0,1.9,0.5,2.4,1L163.8,184.3z M163.3,188.7
				c0-1.1-0.5-1.6-1.4-1.6c-0.5,0-1.1,0.3-1.6,1c0.2,1.6,0.8,2.3,1.7,2.3C162.7,190.4,163.3,189.8,163.3,188.7z"/>
		</g>
	</g>
	<g>
		<g>
			<path class="st3" d="M187.1,127.5h-4.2v-1.4h6v1c-2.1,2.6-2.5,4.5-2.6,8h-1.7C184.8,131.9,185.4,129.9,187.1,127.5z"/>
		</g>
	</g>
	<g>
		<g>
			<path class="st3" d="M298.5,85.6L298.5,85.6c-0.7-0.5-1.2-1.2-1.2-2.2c0-1.5,1.2-2.4,2.7-2.4c1.6,0,2.6,1,2.6,2.4
				c0,0.9-0.6,1.6-1.2,2.1v0.1c0.8,0.5,1.6,1.1,1.6,2.3c0,1.4-1.2,2.4-3,2.4s-3-1-3-2.5C296.9,86.8,297.7,86.1,298.5,85.6z
				 M300,89.3c0.9,0,1.5-0.5,1.5-1.3c0-1-0.9-1.3-2.2-1.8c-0.6,0.4-1,1-1,1.7C298.3,88.7,299,89.3,300,89.3z M301.3,83.6
				c0-0.8-0.5-1.4-1.3-1.4c-0.7,0-1.2,0.5-1.2,1.2c0,0.9,0.8,1.3,1.8,1.7C301,84.7,301.3,84.2,301.3,83.6z"/>
		</g>
	</g>
	<g>
		<g>
			<path class="st3" d="M336,168.5c0.3,0.4,0.9,0.7,1.4,0.7c1.1,0,2-0.8,2.1-3.3c-0.5,0.7-1.3,1-2,1c-1.5,0-2.6-0.9-2.6-2.8
				c0-1.8,1.3-2.9,2.8-2.9c1.8,0,3.2,1.4,3.2,4.4c0,3.5-1.7,4.9-3.5,4.9c-1.1,0-1.9-0.5-2.4-1L336,168.5z M339.5,164.6
				c-0.2-1.6-0.8-2.3-1.7-2.3c-0.7,0-1.3,0.6-1.3,1.7s0.5,1.6,1.4,1.6C338.4,165.8,339,165.4,339.5,164.6z"/>
		</g>
	</g>
	<g>
		<g>
			<path class="st3" d="M248.3,182.8h2v-5.9h-1.7v-1c0.9-0.2,1.5-0.4,2.1-0.7h1.2v7.7h1.8v1.3h-5.4V182.8z"/>
			<path class="st3" d="M255,179.6c0-3,1.2-4.6,3-4.6s3,1.6,3,4.6c0,3-1.2,4.7-3,4.7S255,182.6,255,179.6z M259.6,179.6
				c0-2.5-0.6-3.3-1.5-3.3s-1.5,0.8-1.5,3.3s0.6,3.4,1.5,3.4C258.9,183,259.6,182.1,259.6,179.6z"/>
		</g>
	</g>
	<g>
		<g>
			<path class="st3" d="M214.2,207.1h2v-5.9h-1.7v-1c0.9-0.2,1.5-0.4,2.1-0.7h1.2v7.7h1.8v1.3h-5.4V207.1z"/>
			<path class="st3" d="M221.4,207.1h2v-5.9h-1.7v-1c0.9-0.2,1.5-0.4,2.1-0.7h1.2v7.7h1.8v1.3h-5.4V207.1z"/>
		</g>
	</g>
	<g>
		<g>
			<path class="st3" d="M37.6,242.3h2v-5.9h-1.7v-1c0.9-0.2,1.5-0.4,2.1-0.7h1.2v7.6H43v1.3h-5.4V242.3z"/>
			<path class="st3" d="M44.3,242.6c2.5-2.4,4.1-4,4.1-5.4c0-0.9-0.5-1.6-1.5-1.6c-0.7,0-1.3,0.5-1.8,1l-0.9-0.9
				c0.8-0.9,1.6-1.4,2.9-1.4c1.7,0,2.8,1.1,2.8,2.8c0,1.6-1.5,3.2-3.3,5.1c0.5,0,1.1-0.1,1.5-0.1h2.2v1.4h-6.1L44.3,242.6
				L44.3,242.6z"/>
		</g>
	</g>
</g>
</svg>
