<?xml version="1.0" encoding="utf-8"?>
<!-- Generator: Adobe Illustrator 18.1.0, SVG Export Plug-In . SVG Version: 6.00 Build 0)  -->
<!DOCTYPE svg PUBLIC "-//W3C//DTD SVG 1.0//EN" "http://www.w3.org/TR/2001/REC-SVG-20010904/DTD/svg10.dtd">
<svg version="1.0" xmlns="http://www.w3.org/2000/svg" xmlns:xlink="http://www.w3.org/1999/xlink" x="0px" y="0px"
	 viewBox="0 0 504 251" enable-background="new 0 0 504 251" xml:space="preserve">
<g id="trazado">
	<path fill="#B7B5B6" d="M122.6,63c3.2,9.5,21.5,62.9,21.5,62.9s0.2,0.6,0.4,1.2c1.4,3.8,3.9,7.2,7.4,9c7.6,4.1,20.3,10.8,22.4,11.9
		c11.8,4.9,14.7,26.4,2,31.1l-29.9,17.6c-7.7,6.2-2.4,14,2.1,14.1c4.9,0,225.1,0.2,225.1,0.2s0.6,0.1,0.8,0c5.3-0.2,7-8.4,3.9-11.4
		l-41.5-63.7c0,0-0.5-0.8-1.1-2.1c-2.9-6.6-1.8-13.9,3.1-19.5c6.4-7.5,31-36.1,31-36.1c5.1-5.4,4.1-9.3,0.1-15l-11.7-22
		c0,0-0.2-0.4-0.3-0.6c-1-1.7-2.5-2.7-4.5-2.7c-6.6-0.3-21.6-0.4-23.5-0.5c-4.5,0.4-9.4,2.7-11.3,7.1c-4.3,9.8-15.7,38.5-15.7,38.5
		s-2.1,4.4-5.2,9.7c-10.7,18.3-27,31.7-48.7,35.8c-20.5,3.8-20-14.1-19.9-15.5c1.1-9.9,5.1-19.7,7.7-29.3c2.3-7.4-3.8-10.6-8.3-14.8
		c-11.1-10.5-14.4-20.6-18-33.9c-2.4-9.1-12.2-9.1-14.4,0c-0.5,2-6.7,49.6-7.3,54.8c0.1,12.2-16.7,20.7-23,6.3
		c-5.5-12.3-10.2-29.9-14.4-42.9c0,0-0.1-0.4-0.3-0.7c-1.4-3-4.8-3.9-9-3.3l-16.3,5.4C124.3,55.7,121.1,58.7,122.6,63L122.6,63z
		 M139.3,38.5c8.9-1.6,19.7,1.2,22.4,11.6c1.8,5.6,12.7,41.1,14.6,42.6c0.7-0.5,1.4-2.6,1.4-3.5c0,0,1.8-13.7,3.6-27.5
		c1.8-13.7,3.7-28,4-29.3c4.9-20.6,30.4-19.8,35.6-0.2c4.5,16.9,6.8,20.7,19.7,33.1c6.4,6.2,9.3,12.2,6.6,21.5
		c-0.1,0.5-1.9,7-3.7,13.7c-2,7.4-3.7,13.8-3.7,13.9c-0.5,4.3,3.9,4.1,7,3.5c22.5-4.2,36.5-19.3,45.9-39.2
		c1.1-2.7,11.6-29.1,15.7-38.5c3.6-8.2,12.6-13.4,21.1-13.6c0,0,17.1,0.2,24.2,0.5c6.1,0.2,11.7,3.9,14.2,9.5l11.2,21.1
		c6.5,9.7,7.2,18.8-1.4,28c-1.7,2-24.6,28.7-30.8,35.9c-2.2,2.6-2.6,5.9-1,8.6l40.8,62.7c9.7,10.1,0.7,30.6-13.7,29.2
		c-9.1,0-220-0.2-224.8-0.2c-15.9,0-24.3-22.7-8.1-34.1c0,0,7.8-4.6,15.6-9.2c7.7-4.5,15.8-9.2,16.4-9.5c2.1-1,1.9-9.1-2.7-11
		c0,0-14.7-7.8-22.9-12.2c-6.3-3.4-11.2-9.9-13-16.8c-1.3-3.7-18.3-53.4-21.4-62.5c-2.9-8.7,1.2-17.3,8.6-21.8L139.3,38.5
		L139.3,38.5z"/>
</g>
<g id="PUNTOS_INTERMEDIOS_Y_SEMAFORO">
	<path fill="#AC1737" d="M193.7,238.7c-0.5,0-0.9-0.4-0.9-0.9v-33c0-0.5,0.4-0.9,0.9-0.9s0.9,0.4,0.9,0.9v33
		C194.6,238.3,194.2,238.7,193.7,238.7z"/>
	<path fill="#AC1737" d="M355.6,49.4c-0.2-0.4-0.1-1,0.3-1.2l23.4-13.6c0.4-0.2,1-0.1,1.2,0.3s0.1,1-0.3,1.2l-23.4,13.6
		C356.4,49.9,355.9,49.8,355.6,49.4z"/>
	<path fill="#AC1737" d="M140.3,87.8c0.1,0.5-0.1,1-0.6,1.1L102,100.7c-0.5,0.1-1-0.1-1.1-0.6c-0.1-0.5,0.1-1,0.6-1.1l37.7-11.8
		C139.6,87.1,140.1,87.3,140.3,87.8z"/>
	<g>
		<path fill="#AC1737" d="M184.7,236.8c0-4.2,3.4-7.6,7.6-7.6h2.7c4.2,0,7.6,3.4,7.6,7.6v4.8c0,4.2-3.4,7.6-7.6,7.6h-2.7
			c-4.2,0-7.6-3.4-7.6-7.6V236.8L184.7,236.8z"/>
		<g>
			<path fill="#FFFFFF" d="M191.6,241.3c0.6,0.6,1.4,0.9,2.2,0.9c0.9,0,1.4-0.4,1.4-1.1c0-0.7-0.5-0.9-1.3-1.2l-1.1-0.5
				c-0.8-0.3-1.7-1-1.7-2.2c0-1.3,1.2-2.3,2.8-2.3c1,0,1.9,0.4,2.6,1.1l-0.8,0.9c-0.5-0.4-1.1-0.7-1.8-0.7c-0.8,0-1.3,0.4-1.3,1
				c0,0.6,0.6,0.9,1.3,1.2l1.1,0.5c1,0.4,1.7,1,1.7,2.2c0,1.3-1.1,2.5-3,2.5c-1.1,0-2.2-0.4-3-1.2L191.6,241.3z"/>
		</g>
	</g>
	<g>
		<path fill="#AC1737" d="M224.2,235.3c0-4.2,3.4-7.6,7.7-7.6h11.7c4.2,0,7.6,3.4,7.6,7.6v4.8c0,4.2-3.4,7.6-7.6,7.6h-11.7
			c-4.2,0-7.7-3.4-7.7-7.6V235.3L224.2,235.3z"/>
		<g>
			<path fill="#FFFFFF" d="M231.7,233.6h5v1.2h-3.5v2.3h3v1.2h-3v3.5h-1.5V233.6z"/>
			<path fill="#FFFFFF" d="M238.8,233.6h1.5v7.1h3.4v1.2h-4.9V233.6z"/>
		</g>
	</g>
	<g>
		<path fill="#AC1737" d="M379.2,29.1c0-4.2,3.4-7.7,7.6-7.7h5.1c4.2,0,7.7,3.4,7.7,7.7v5.1c0,4.2-3.4,7.6-7.7,7.6h-5.1
			c-4.2,0-7.6-3.4-7.6-7.6V29.1L379.2,29.1z"/>
		<g>
			<path fill="#FFFFFF" d="M384.8,27.9c0-0.5,0.4-0.8,0.9-0.8c0.5,0,0.9,0.3,0.9,0.8c0,0.5-0.4,0.8-0.9,0.8
				C385.2,28.7,384.8,28.4,384.8,27.9z M385,29.8h1.5V36H385V29.8z"/>
			<path fill="#FFFFFF" d="M389.1,34.1c0.5,0.5,1.1,0.9,1.9,0.9c0.9,0,1.5-0.5,1.5-1.2c0-0.8-0.5-1.4-2.4-1.4v-1.1
				c1.6,0,2.1-0.5,2.1-1.3c0-0.7-0.5-1.1-1.2-1.1c-0.6,0-1.1,0.3-1.6,0.8l-0.8-0.9c0.7-0.6,1.5-1,2.4-1c1.5,0,2.6,0.8,2.6,2.1
				c0,0.9-0.5,1.5-1.4,1.9v0.1c1,0.3,1.7,0.9,1.7,2c0,1.5-1.3,2.3-2.8,2.3c-1.3,0-2.2-0.5-2.7-1.1L389.1,34.1z"/>
		</g>
	</g>
	<g>
		<path fill="#AC1737" d="M92.2,96.2c0-4.2,3.4-7.6,7.7-7.6h3.9c4.2,0,7.7,3.4,7.7,7.6v5.5c0,4.2-3.4,7.7-7.7,7.7h-3.9
			c-4.2,0-7.7-3.4-7.7-7.7V96.2L92.2,96.2z"/>
		<g>
			<path fill="#FFFFFF" d="M97.3,95.3c0-0.5,0.4-0.8,0.9-0.8c0.5,0,0.9,0.3,0.9,0.8c0,0.5-0.4,0.8-0.9,0.8
				C97.7,96.1,97.3,95.8,97.3,95.3z M97.5,97.2h1.5v6.2h-1.5V97.2z"/>
			<path fill="#FFFFFF" d="M101.5,102.3h1.8V97h-1.5V96c0.8-0.2,1.4-0.4,1.9-0.7h1.1v6.9h1.6v1.2h-4.9V102.3z"/>
		</g>
	</g>
	<g>
		<path fill="#AC1737" d="M228.7,19.4c0-4.2,3.4-7.7,7.6-7.7h5c4.2,0,7.7,3.4,7.7,7.7v5.1c0,4.2-3.4,7.7-7.7,7.7h-5
			c-4.2,0-7.6-3.4-7.6-7.7V19.4L228.7,19.4z"/>
		<g>
			<path fill="#FFFFFF" d="M234.3,18.3c0-0.5,0.4-0.8,0.9-0.8c0.5,0,0.9,0.3,0.9,0.8c0,0.5-0.4,0.8-0.9,0.8
				C234.7,19.1,234.3,18.8,234.3,18.3z M234.5,20.2h1.5v6.2h-1.5V20.2z"/>
			<path fill="#FFFFFF" d="M238,25.6c2.2-2.2,3.7-3.6,3.7-4.8c0-0.9-0.5-1.4-1.3-1.4c-0.6,0-1.1,0.4-1.6,0.9l-0.8-0.8
				c0.7-0.8,1.5-1.2,2.6-1.2c1.5,0,2.6,1,2.6,2.5c0,1.4-1.3,2.9-2.9,4.6c0.4,0,1-0.1,1.3-0.1h2v1.2H238V25.6z"/>
		</g>
	</g>
	<path fill="#AC1737" d="M205,40.6c-0.2-0.4,0-1,0.4-1.2L229.9,28c0.4-0.2,1,0,1.2,0.4s0,1-0.4,1.2L206.1,41
		C205.7,41.2,205.2,41,205,40.6z"/>
	<path fill="#AC1737" d="M237,229.5c0.5,0,0.9-0.4,0.9-0.9v-25.3c0-0.5-0.4-0.8-0.8-0.8h-17.7c-0.5,0-0.9,0.4-0.9,0.9
		c0,0.5,0.4,0.9,0.9,0.9h16.4c0.2,0,0.3,0.2,0.3,0.3v24C236.2,229.2,236.6,229.5,237,229.5z"/>
	<path fill="#AC1737" d="M216.2,203.9c-0.4-0.2-0.4-0.7,0-0.9l3.2-1.8l3.2-1.8c0.4-0.2,0.8,0.1,0.8,0.5v3.7v3.7
		c0,0.4-0.4,0.7-0.8,0.5l-3.2-1.8L216.2,203.9z"/>
	<g>
		<path fill="#7B7C7D" d="M331.8,42.7c-0.2-0.3-0.7-0.5-1.2-0.5c-0.8,0-1.4,0.5-1.4,2.1c0.4-0.5,1-0.8,1.5-0.8
			c1.3,0,2.4,0.7,2.4,2.4s-1.2,2.7-2.7,2.7c-1.5,0-3.1-1.1-3.1-3.9c0-2.8,1.6-4.2,3.2-4.2c1.1,0,1.9,0.5,2.4,1L331.8,42.7z M331,46
			c0-0.8-0.4-0.9-0.9-0.9c-0.4,0-0.7,0.2-1,0.7c0.2,1.1,0.6,1.4,1,1.4C330.6,47,331,46.8,331,46z"/>
	</g>
	<g>
		<path fill="#7B7C7D" d="M255.8,234.8c0-4.2,3.4-7.6,7.6-7.6h45.8c4.2,0,7.6,3.4,7.6,7.6v8.3c0,4.2-3.4,7.6-7.6,7.6h-45.8
			c-4.2,0-7.6-3.4-7.6-7.6V234.8L255.8,234.8z"/>
		<g>
			<path fill="#FFFFFF" d="M304.7,248.5c-3.9,0-7.1-3.2-7.1-7.1v-4.8c0-3.9,3.2-7.1,7.1-7.1h2.7c3.9,0,7.1,3.2,7.1,7.1v4.8
				c0,3.9-3.2,7.1-7.1,7.1H304.7z"/>
			<path fill="#C7C6C5" d="M307.4,229.9c3.7,0,6.6,3,6.6,6.6v4.8c0,3.7-3,6.6-6.6,6.6h-2.7c-3.7,0-6.6-3-6.6-6.6v-4.8
				c0-3.7,3-6.6,6.6-6.6H307.4 M307.4,228.9h-2.7c-4.2,0-7.6,3.4-7.6,7.6v4.8c0,4.2,3.4,7.6,7.6,7.6h2.7c4.2,0,7.6-3.4,7.6-7.6v-4.8
				C315.1,232.3,311.6,228.9,307.4,228.9L307.4,228.9z"/>
		</g>
		<g>
			<defs>
				<path id="SVGID_3_" d="M297.1,236.5c0-4.2,3.4-7.6,7.6-7.6h2.7c4.2,0,7.6,3.4,7.6,7.6v4.8c0,4.2-3.4,7.6-7.6,7.6h-2.7
					c-4.2,0-7.6-3.4-7.6-7.6V236.5L297.1,236.5z"/>
			</defs>
			<clipPath id="SVGID_2_">
				<use xlink:href="#SVGID_3_"  overflow="visible"/>
			</clipPath>
			<g clip-path="url(#SVGID_2_)">
				<rect x="291.8" y="230.6" fill="#1E1E1C" width="4.2" height="4.2"/>
				<rect x="295.9" y="234.7" fill="#1E1E1C" width="4.2" height="4.2"/>
				<rect x="300.1" y="230.6" fill="#1E1E1C" width="4.2" height="4.2"/>
				<rect x="304.3" y="234.7" fill="#1E1E1C" width="4.2" height="4.2"/>
				<rect x="291.8" y="238.9" fill="#1E1E1C" width="4.2" height="4.2"/>
				<rect x="295.9" y="243.1" fill="#1E1E1C" width="4.2" height="4.2"/>
				<rect x="300.1" y="238.9" fill="#1E1E1C" width="4.2" height="4.2"/>
				<rect x="304.3" y="243.1" fill="#1E1E1C" width="4.2" height="4.2"/>
				<rect x="308.4" y="230.6" fill="#1E1E1C" width="4.2" height="4.2"/>
				<rect x="312.6" y="234.7" fill="#1E1E1C" width="4.2" height="4.2"/>
				<rect x="308.4" y="238.9" fill="#1E1E1C" width="4.2" height="4.2"/>
				<rect x="312.6" y="243.1" fill="#1E1E1C" width="4.2" height="4.2"/>
			</g>
		</g>
		<g>
			<path fill="#C01724" d="M265.2,248.5c-3.9,0-7.1-3.2-7.1-7.1v-4.8c0-3.9,3.2-7.1,7.1-7.1h2.7c3.9,0,7.1,3.2,7.1,7.1v4.8
				c0,3.9-3.2,7.1-7.1,7.1H265.2z"/>
			<path fill="#AA1920" d="M267.9,229.9c3.7,0,6.6,3,6.6,6.6v4.8c0,3.7-3,6.6-6.6,6.6h-2.7c-3.7,0-6.6-3-6.6-6.6v-4.8
				c0-3.7,3-6.6,6.6-6.6H267.9 M267.9,228.9h-2.7c-4.2,0-7.6,3.4-7.6,7.6v4.8c0,4.2,3.4,7.6,7.6,7.6h2.7c4.2,0,7.6-3.4,7.6-7.6v-4.8
				C275.5,232.3,272.1,228.9,267.9,228.9L267.9,228.9z"/>
		</g>
		<g>
			<path fill="#009548" d="M285,248.5c-3.9,0-7.1-3.2-7.1-7.1v-4.8c0-3.9,3.2-7.1,7.1-7.1h2.7c3.9,0,7.1,3.2,7.1,7.1v4.8
				c0,3.9-3.2,7.1-7.1,7.1H285z"/>
			<path fill="#006139" d="M287.7,229.9c3.7,0,6.6,3,6.6,6.6v4.8c0,3.7-3,6.6-6.6,6.6H285c-3.7,0-6.6-3-6.6-6.6v-4.8
				c0-3.7,3-6.6,6.6-6.6H287.7 M287.7,228.9H285c-4.2,0-7.6,3.4-7.6,7.6v4.8c0,4.2,3.4,7.6,7.6,7.6h2.7c4.2,0,7.6-3.4,7.6-7.6v-4.8
				C295.3,232.3,291.9,228.9,287.7,228.9L287.7,228.9z"/>
		</g>
		<g>
			<path fill="#C7C6C5" d="M307.4,229.9c3.7,0,6.6,3,6.6,6.6v4.8c0,3.7-3,6.6-6.6,6.6h-2.7c-3.7,0-6.6-3-6.6-6.6v-4.8
				c0-3.7,3-6.6,6.6-6.6H307.4 M307.4,228.9h-2.7c-4.2,0-7.6,3.4-7.6,7.6v4.8c0,4.2,3.4,7.6,7.6,7.6h2.7c4.2,0,7.6-3.4,7.6-7.6v-4.8
				C315.1,232.3,311.6,228.9,307.4,228.9L307.4,228.9z"/>
		</g>
	</g>
</g>
<g id="textos_y_numeros">
	<g>
		<g>
			<path fill="#7B7C7D" d="M119.8,219h1.7v-4H120v-1.3c0.9-0.2,1.5-0.4,2-0.8h1.6v6.1h1.4v1.7h-5.2V219z"/>
		</g>
	</g>
	<g>
		<g>
			<path fill="#7B7C7D" d="M194.1,163.7c1.9-1.7,3.3-3,3.3-4.1c0-0.7-0.4-1-1-1c-0.5,0-0.9,0.4-1.3,0.7l-1.1-1.1
				c0.8-0.9,1.6-1.3,2.7-1.3c1.6,0,2.7,1,2.7,2.6c0,1.3-1.2,2.6-2.2,3.7c0.4,0,1-0.1,1.3-0.1h1.3v1.8h-5.7V163.7z"/>
		</g>
	</g>
	<g>
		<g>
			<path fill="#7B7C7D" d="M128.3,149.5c0.5,0.4,1,0.7,1.6,0.7c0.7,0,1.1-0.2,1.1-0.7c0-0.6-0.3-0.9-2-0.9v-1.5
				c1.3,0,1.7-0.3,1.7-0.9c0-0.5-0.3-0.7-0.8-0.7c-0.5,0-0.9,0.2-1.4,0.6l-1.1-1.3c0.8-0.6,1.6-1,2.5-1c1.7,0,2.8,0.8,2.8,2.2
				c0,0.8-0.4,1.3-1.3,1.7v0c0.9,0.3,1.5,0.9,1.5,1.9c0,1.5-1.4,2.3-3,2.3c-1.3,0-2.2-0.4-2.8-1.1L128.3,149.5z"/>
		</g>
	</g>
	<g>
		<g>
			<path fill="#7B7C7D" d="M102.2,48h-0.8v1.8h-2V48H96v-1.5l2.7-4.6h2.6l0,4.5h0.8V48z M99.4,46.4l0-0.9c0-0.5,0-1.3,0.1-1.9h0
				c-0.2,0.5-0.4,0.9-0.6,1.4L98,46.4H99.4z"/>
		</g>
	</g>
	<g>
		<g>
			<path fill="#7B7C7D" d="M147.7,30.9c0.5,0.4,1,0.7,1.6,0.7c0.7,0,1.2-0.3,1.2-1c0-0.7-0.4-1-1.1-1c-0.4,0-0.6,0.1-1.1,0.4
				l-0.9-0.6l0.2-4h4.6v1.8h-2.8l-0.1,1.1c0.3-0.1,0.5-0.1,0.7-0.1c1.4,0,2.5,0.8,2.5,2.4c0,1.8-1.4,2.8-3,2.8
				c-1.3,0-2.2-0.5-2.8-1.1L147.7,30.9z"/>
		</g>
	</g>
	<g>
		<g>
			<path fill="#7B7C7D" d="M183,112.9c-0.2-0.3-0.7-0.5-1.2-0.5c-0.8,0-1.4,0.5-1.4,2.1c0.4-0.5,1-0.8,1.5-0.8
				c1.3,0,2.4,0.7,2.4,2.4s-1.2,2.7-2.7,2.7c-1.5,0-3.1-1.1-3.1-3.9s1.6-4.2,3.2-4.2c1.1,0,1.9,0.5,2.4,1L183,112.9z M182.2,116.1
				c0-0.8-0.4-0.9-0.9-0.9c-0.4,0-0.7,0.2-1,0.7c0.2,1.1,0.6,1.4,1,1.4C181.8,117.2,182.2,116.9,182.2,116.1z"/>
		</g>
	</g>
	<g>
		<g>
			<path fill="#7B7C7D" d="M196,4.4l-3.4,0V2.6l5.6,0v1.3c-1.8,2.1-2,3.5-2.1,6.5h-2.1C194.1,8,194.5,6.4,196,4.4z"/>
		</g>
	</g>
	<g>
		<g>
			<path fill="#7B7C7D" d="M233.9,43.2L233.9,43.2c-0.6-0.5-1-1.1-1-1.9c0-1.4,1.1-2.2,2.6-2.2c1.5,0,2.4,0.8,2.4,2.2
				c0,0.7-0.4,1.3-1,1.6v0c0.8,0.4,1.3,1,1.3,2.1c0,1.3-1.1,2.2-2.9,2.2c-1.6,0-2.8-0.9-2.8-2.1C232.6,44.1,233.1,43.6,233.9,43.2z
				 M235.4,45.7c0.5,0,0.9-0.2,0.9-0.8c0-0.6-0.5-0.8-1.5-1.2c-0.2,0.3-0.4,0.7-0.4,1.1C234.4,45.4,234.9,45.7,235.4,45.7z
				 M236.2,41.4c0-0.5-0.3-0.9-0.8-0.9c-0.4,0-0.7,0.2-0.7,0.8c0,0.5,0.4,0.8,1.2,1.1C236.1,42.1,236.2,41.7,236.2,41.4z"/>
		</g>
	</g>
	<g>
		<g>
			<path fill="#7B7C7D" d="M256.7,69.7c0.2,0.3,0.7,0.5,1.2,0.5c0.8,0,1.4-0.5,1.4-2.1c-0.4,0.5-1,0.8-1.5,0.8
				c-1.3,0-2.4-0.7-2.4-2.4s1.2-2.7,2.7-2.7c1.5,0,3.1,1.1,3.1,3.9c0,2.8-1.6,4.2-3.2,4.2c-1.1,0-1.9-0.5-2.4-1L256.7,69.7z
				 M259.3,66.8c-0.2-1.1-0.6-1.4-1-1.4c-0.4,0-0.8,0.3-0.8,1.1c0,0.8,0.4,0.9,0.9,0.9C258.6,67.4,259,67.2,259.3,66.8z"/>
		</g>
	</g>
	<g>
		<g>
			<path fill="#7B7C7D" d="M232.9,144.1h1.7l0-4h-1.5v-1.3c0.9-0.2,1.5-0.4,2-0.8h1.6l0,6.1h1.4v1.7h-5.2V144.1z"/>
			<path fill="#7B7C7D" d="M239.1,141.9c0-2.7,1.2-4,2.9-4s2.9,1.4,2.9,4c0,2.7-1.2,4.1-2.9,4.1S239.1,144.5,239.1,141.9z
				 M243,141.9c0-2.1-0.4-2.4-0.9-2.4s-0.9,0.3-0.9,2.4c0,2.1,0.4,2.5,0.9,2.5S243,143.9,243,141.9z"/>
		</g>
	</g>
	<g>
		<g>
			<path fill="#7B7C7D" d="M299.3,107.6h1.7v-4h-1.5v-1.3c0.9-0.2,1.5-0.4,2-0.8h1.6v6.1h1.4v1.7h-5.2V107.6z"/>
			<path fill="#7B7C7D" d="M306,107.6h1.7v-4h-1.5v-1.3c0.9-0.2,1.5-0.4,2-0.8h1.6v6.1h1.4v1.7H306V107.6z"/>
		</g>
	</g>
	<g>
		<g>
			<path fill="#7B7C7D" d="M304.8,19.9h1.7v-4H305v-1.3c0.9-0.2,1.5-0.4,2-0.8h1.6v6.1h1.4v1.7h-5.2V19.9z"/>
			<path fill="#7B7C7D" d="M311.1,20.4c1.9-1.7,3.3-3,3.3-4.1c0-0.7-0.4-1-1-1c-0.5,0-0.9,0.4-1.3,0.7l-1.1-1.1
				c0.8-0.9,1.6-1.3,2.7-1.3c1.6,0,2.7,1,2.7,2.6c0,1.3-1.2,2.6-2.2,3.7c0.4,0,1-0.1,1.3-0.1h1.3v1.8h-5.7V20.4z"/>
		</g>
	</g>
	<g>
		<g>
			<path fill="#7B7C7D" d="M359.1,18.1h1.7v-4h-1.5v-1.3c0.9-0.2,1.5-0.4,2-0.8h1.6v6.1h1.4v1.7h-5.2V18.1z"/>
			<path fill="#7B7C7D" d="M366.1,17.5c0.5,0.4,1,0.7,1.6,0.7c0.7,0,1.1-0.2,1.1-0.7c0-0.6-0.3-0.9-2-0.9v-1.5
				c1.3,0,1.7-0.3,1.7-0.9c0-0.5-0.3-0.7-0.8-0.7c-0.5,0-0.9,0.2-1.4,0.6l-1.1-1.3c0.8-0.6,1.6-1,2.5-1c1.7,0,2.8,0.8,2.8,2.2
				c0,0.8-0.4,1.3-1.3,1.7v0c0.9,0.3,1.5,0.9,1.5,1.9c0,1.5-1.4,2.3-3,2.3c-1.3,0-2.2-0.4-2.8-1.1L366.1,17.5z"/>
		</g>
	</g>
	<g>
		<g>
			<path fill="#7B7C7D" d="M391.7,72.3h1.7v-4h-1.5V67c0.9-0.2,1.5-0.4,2-0.8h1.6v6.1h1.4V74h-5.2V72.3z"/>
			<path fill="#7B7C7D" d="M403.9,72.3h-0.8V74h-2v-1.8h-3.3v-1.5l2.7-4.6h2.6v4.5h0.8V72.3z M401.1,70.7v-0.9c0-0.5,0-1.3,0.1-1.9
				h0c-0.2,0.5-0.4,0.9-0.6,1.4l-0.7,1.3H401.1z"/>
		</g>
	</g>
	<g>
		<g>
			<path fill="#7B7C7D" d="M316.1,128.7h1.7v-4h-1.5v-1.3c0.9-0.2,1.5-0.4,2-0.8h1.6v6.1h1.4v1.7h-5.2V128.7z"/>
			<path fill="#7B7C7D" d="M323.1,128.2c0.5,0.4,1,0.7,1.6,0.7c0.7,0,1.2-0.3,1.2-1c0-0.7-0.4-1-1.1-1c-0.4,0-0.6,0.1-1.1,0.4
				l-0.9-0.6l0.2-4h4.6v1.8h-2.8l-0.1,1.1c0.3-0.1,0.5-0.1,0.7-0.1c1.4,0,2.5,0.8,2.5,2.4c0,1.8-1.4,2.8-3,2.8
				c-1.3,0-2.2-0.5-2.8-1.1L323.1,128.2z"/>
		</g>
	</g>
	<g>
		<g>
			<path fill="#7B7C7D" d="M398.9,216.6h1.7v-4h-1.5v-1.3c0.9-0.2,1.5-0.4,2-0.8h1.6v6.1h1.4v1.7h-5.2V216.6z"/>
			<path fill="#7B7C7D" d="M409.8,212.6c-0.2-0.3-0.7-0.5-1.2-0.5c-0.8,0-1.4,0.5-1.4,2.1c0.4-0.5,1-0.8,1.5-0.8
				c1.3,0,2.4,0.7,2.4,2.4s-1.2,2.7-2.7,2.7c-1.5,0-3.1-1.1-3.1-3.9s1.6-4.2,3.2-4.2c1.1,0,1.9,0.5,2.4,1L409.8,212.6z M409.1,215.8
				c0-0.8-0.4-0.9-0.9-0.9c-0.4,0-0.7,0.2-1,0.7c0.2,1.1,0.6,1.4,1,1.4C408.7,216.9,409.1,216.7,409.1,215.8z"/>
		</g>
	</g>
</g>
</svg>
