<?xml version="1.0" encoding="utf-8"?>
<!-- Generator: Adobe Illustrator 18.1.0, SVG Export Plug-In . SVG Version: 6.00 Build 0)  -->
<!DOCTYPE svg PUBLIC "-//W3C//DTD SVG 1.0//EN" "http://www.w3.org/TR/2001/REC-SVG-20010904/DTD/svg10.dtd">
<svg version="1.0" xmlns="http://www.w3.org/2000/svg" xmlns:xlink="http://www.w3.org/1999/xlink" x="0px" y="0px"
	 viewBox="0 0 504 251" enable-background="new 0 0 504 251" xml:space="preserve">
<g id="trazado">
	<path fill="#B7B5B6" d="M65.3,95.2c-1.1,0.9-1,1.7-0.4,2.9l5.1,6l21.5,25.2c13.5,16.3,20.4,23,42.3,25.4c4.7,0.5,10-1.8,13.3-5.2
		c0,0,3-2.9,6.1-5.8c4.5-4.3,10.2-10.8,17-10.8c9.5,0,17.1,10.6,22.8,17c0,0,0.4,0.6,0.6,0.9c4.1,5.5,10.5,6.2,16.5,3l36.6-14.3
		l48.1-18.9l44-17.5L370,91.8c5.3-2.6,13.8,2,16.4,6.8c1.6,3,9,16,9,16l15.3,27.2l11.1,19.9c0,0,0.3,0.6,0.7,1.6
		c1.9,4.9,1.5,10.4-1.1,15c-3.8,6.6-20.7,29.9-20.7,29.9c-0.9,1.1-8.4,11.2-7.5,14c0.7,2.6,2.7,3.9,6.5,2
		c5.6-2.8,33.7-20.2,33.7-20.2s0.3-0.2,0.5-0.4c3.1-2.6,3.8-7.3,3.5-11.1c-1-11.1-2.1-31.5-2.2-33.3c-0.6-5.1-2.6-10.9-5.6-15.1
		c-5.4-7.4-45.8-62.6-45.8-62.6s-0.2-0.3-0.5-0.6c-2.7-3.1-6.4-5.3-10.2-6.8c-8.8-3.4-76-29.5-76-29.5L218.3,14l-6.5-2.4
		c-6-1.8-17.2-3.1-19,5.4c-1,4.4,7.2,11.7,10.2,15.3l0.3,0.5c5.6,6.6,38.7,12.5,47,14.3c15.5,3.4,42.2,9.7,56.8,17
		c7.1,3.6,15.3,8.8,16.6,17.4c1.4,6.8-3,12.9-9,16c0,0-5.8,2.8-18.2,5.6c-11.8,2.7-46.4,10.8-46.4,10.8c-16.3,4.2-39.7,8.9-56.5,9.2
		c-24.6,0.4-49.2,1.6-73.7,2.5c-17.5,1.5-19.3,1.5-26.6-16.7l-6.6-13.3l-0.3-0.7C84.5,91.4,69.1,94.7,65.3,95.2L65.3,95.2z M209,2.6
		c3,0.6,5.5,1.4,5.5,1.4l6.7,2.5L300,36.9c0,0,67.1,26.1,75.9,29.5c5.1,1.9,11.1,5.6,14.4,10.2c0,0,40.4,55.2,45.8,62.5
		c3.8,5.1,6.6,12.8,7.2,19.2c0,0,1.2,21.8,2.2,33.2c0.6,6.9-1.6,15.4-7.9,19.1c0,0-28.5,17.7-34.2,20.5
		c-11.4,5.7-21.2-3.7-17.2-14.6c1.7-4.8,5-9.6,8.1-13.6c0,0,16.5-22.7,20.2-29.1c1.5-2.5,1.7-5.9,0.4-8.5l-11.1-19.9l-15.3-27.2
		c0,0-7.4-13.1-9-16.1c-0.6-1.1-4.4-3.6-5.5-3.5l-0.7,0.3l-31.4,11.5l-43.9,17.5l-48.2,18.9l-36.1,14.1c-9.7,4.9-20.9,3-27-6.4
		c-3.4-3.9-11-13.8-16.3-13.8c-3.9,0-14.5,11.5-17.3,14.2c0,0-0.6,0.6-1.6,1.5c-13.4,11.2-33.8,5.4-47.2-3.2
		c-5.7-3.6-14.2-13.4-18.7-18.9l-21.5-25.2l-5.7-6.7c-3.2-6.1-1.8-12.5,4.7-15.3c0,0,12-1.7,18.9-2.1c5.2-0.4,10.4,1.9,12.2,7
		l6.6,13.4c0,0,0.9,2.2,1.8,4.5c4.6,10.8,6.5,8.4,17,7.5l46.5-1.8c10.1-0.4,22.4-0.6,27.5-0.7c16.1-0.2,39.1-4.9,54.7-9
		c0,0,34.7-8.1,46.5-10.8c10.4-2.4,15.6-4.6,16.4-5c3-1.5,4.9-3.6,4.7-6.9l-0.1-0.5c-1.5-11.6-31.4-18.4-39.8-20.7
		c-17.3-4.9-34.7-8.1-52.1-12.3c-6.2-1.5-22.8-6.4-27.1-12.4c-5.2-6.2-13.7-13-11.8-22C187.2,4,199.4,0.7,209,2.6L209,2.6z"/>
</g>
<g id="PUNTOS_INTERMEDIOS_Y_SEMAFORO">
	<path fill="#AC1737" d="M122.3,97.1c0.2,0.4,0,1-0.4,1.2l-30.2,13.5c-0.4,0.2-1,0-1.2-0.4c-0.2-0.4,0-1,0.4-1.2l30.2-13.5
		C121.6,96.4,122.1,96.6,122.3,97.1z"/>
	<path fill="#AC1737" d="M314.5,53.4c-0.5-0.1-0.7-0.6-0.6-1.1L324,20.8c0.1-0.5,0.6-0.7,1.1-0.6c0.5,0.1,0.7,0.6,0.6,1.1
		l-10.1,31.5C315.4,53.3,314.9,53.6,314.5,53.4z"/>
	<path fill="#AC1737" d="M218.9,67.3c-0.5-0.1-0.7-0.6-0.6-1.1l10.1-31.5c0.1-0.5,0.6-0.7,1.1-0.6c0.5,0.1,0.7,0.6,0.6,1.1L220,66.7
		C219.9,67.2,219.4,67.4,218.9,67.3z"/>
	<path fill="#AC1737" d="M405.6,214.4c0.4-0.2,1-0.1,1.2,0.3l16.6,28.6c0.2,0.4,0.1,1-0.3,1.2c-0.4,0.2-1,0.1-1.2-0.3l-16.6-28.6
		C405,215.2,405.1,214.7,405.6,214.4z"/>
	<g>
		<path fill="#AC1737" d="M211,64.8c0-4.2,3.4-7.7,7.6-7.7h5c4.2,0,7.7,3.4,7.7,7.7v5.1c0,4.2-3.4,7.7-7.7,7.7h-5
			c-4.2,0-7.6-3.4-7.6-7.7V64.8L211,64.8z"/>
		<g>
			<path fill="#FFFFFF" d="M216.6,63.7c0-0.5,0.4-0.8,0.9-0.8c0.5,0,0.9,0.3,0.9,0.8c0,0.5-0.4,0.8-0.9,0.8
				C217,64.5,216.6,64.1,216.6,63.7z M216.8,65.6h1.5v6.2h-1.5V65.6z"/>
			<path fill="#FFFFFF" d="M220.3,71c2.2-2.2,3.7-3.6,3.7-4.8c0-0.9-0.5-1.4-1.3-1.4c-0.6,0-1.1,0.4-1.6,0.9l-0.8-0.8
				c0.7-0.8,1.5-1.2,2.6-1.2c1.5,0,2.6,1,2.6,2.5c0,1.4-1.3,2.9-2.9,4.6c0.4,0,1-0.1,1.3-0.1h2v1.2h-5.5V71z"/>
		</g>
	</g>
	<g>
		<path fill="#AC1737" d="M316.3,23.4c0-4.2,3.4-7.6,7.6-7.6h2.7c4.2,0,7.6,3.4,7.6,7.6v4.8c0,4.2-3.4,7.6-7.6,7.6h-2.7
			c-4.2,0-7.6-3.4-7.6-7.6V23.4L316.3,23.4z"/>
		<g>
			<path fill="#FFFFFF" d="M323.2,27.8c0.6,0.6,1.4,0.9,2.2,0.9c0.9,0,1.4-0.4,1.4-1.1c0-0.7-0.5-0.9-1.3-1.2l-1.1-0.5
				c-0.8-0.3-1.7-1-1.7-2.2c0-1.3,1.2-2.3,2.8-2.3c1,0,1.9,0.4,2.6,1.1l-0.8,0.9c-0.5-0.4-1.1-0.7-1.8-0.7c-0.8,0-1.3,0.4-1.3,1
				c0,0.6,0.6,0.9,1.3,1.2l1.1,0.5c1,0.4,1.7,1,1.7,2.2c0,1.3-1.1,2.5-3,2.5c-1.1,0-2.2-0.4-3-1.2L323.2,27.8z"/>
		</g>
	</g>
	<g>
		<path fill="#AC1737" d="M292.2,141.5c0.5-0.2,0.7-0.7,0.6-1.1l-8.1-23.9c-0.1-0.4-0.6-0.7-1-0.5l-16.8,5.7
			c-0.5,0.2-0.7,0.7-0.6,1.1c0.2,0.5,0.7,0.7,1.1,0.6l15.6-5.3c0.2-0.1,0.4,0,0.4,0.2l7.7,22.7C291.2,141.4,291.7,141.7,292.2,141.5
			z"/>
		<path fill="#AC1737" d="M264.2,123.9c-0.4-0.1-0.6-0.6-0.3-0.9l2.4-2.8l2.4-2.8c0.3-0.3,0.8-0.2,0.9,0.2l1.2,3.5l1.2,3.5
			c0.1,0.4-0.2,0.8-0.6,0.7l-3.6-0.7L264.2,123.9z"/>
	</g>
	<g>
		<path fill="#AC1737" d="M278,147.9c0-4.2,3.4-7.6,7.7-7.6h11.7c4.2,0,7.6,3.4,7.6,7.6v4.8c0,4.2-3.4,7.6-7.6,7.6h-11.7
			c-4.2,0-7.7-3.4-7.7-7.6V147.9L278,147.9z"/>
		<g>
			<path fill="#FFFFFF" d="M285.5,146.1h5v1.2H287v2.3h3v1.2h-3v3.5h-1.5V146.1z"/>
			<path fill="#FFFFFF" d="M292.6,146.1h1.5v7.1h3.4v1.2h-4.9V146.1z"/>
		</g>
	</g>
	<g>
		<path fill="#AC1737" d="M105.2,94.3c0-4.2,3.4-7.6,7.7-7.6h3.9c4.2,0,7.7,3.4,7.7,7.6v5.5c0,4.2-3.4,7.7-7.7,7.7h-3.9
			c-4.2,0-7.7-3.4-7.7-7.7V94.3L105.2,94.3z"/>
		<g>
			<path fill="#FFFFFF" d="M110.3,93.4c0-0.5,0.4-0.8,0.9-0.8c0.5,0,0.9,0.3,0.9,0.8c0,0.5-0.4,0.8-0.9,0.8
				C110.6,94.3,110.3,93.9,110.3,93.4z M110.4,95.4h1.5v6.2h-1.5V95.4z"/>
			<path fill="#FFFFFF" d="M114.4,100.4h1.8v-5.3h-1.5v-0.9c0.8-0.2,1.4-0.4,1.9-0.7h1.1v6.9h1.6v1.2h-4.9V100.4z"/>
		</g>
	</g>
	<g>
		<path fill="#AC1737" d="M413,236.9c0-4.2,3.4-7.7,7.6-7.7h5.1c4.2,0,7.7,3.4,7.7,7.7v5.1c0,4.2-3.4,7.6-7.7,7.6h-5.1
			c-4.2,0-7.6-3.4-7.6-7.6V236.9L413,236.9z"/>
		<g>
			<path fill="#FFFFFF" d="M418.7,235.7c0-0.5,0.4-0.8,0.9-0.8c0.5,0,0.9,0.3,0.9,0.8c0,0.5-0.4,0.8-0.9,0.8
				C419.1,236.6,418.7,236.2,418.7,235.7z M418.8,237.6h1.5v6.2h-1.5V237.6z"/>
			<path fill="#FFFFFF" d="M422.9,241.9c0.5,0.5,1.1,0.9,1.9,0.9c0.9,0,1.5-0.5,1.5-1.2c0-0.8-0.5-1.4-2.4-1.4v-1.1
				c1.6,0,2.1-0.5,2.1-1.3c0-0.7-0.5-1.1-1.2-1.1c-0.6,0-1.1,0.3-1.6,0.8l-0.8-0.9c0.7-0.6,1.5-1,2.4-1c1.5,0,2.6,0.8,2.6,2.1
				c0,0.9-0.5,1.5-1.4,1.9v0.1c1,0.3,1.7,0.9,1.7,2c0,1.5-1.3,2.3-2.8,2.3c-1.3,0-2.2-0.5-2.7-1.1L422.9,241.9z"/>
		</g>
	</g>
	<g>
		<path fill="#7B7C7D" d="M282.1,174.9c0-4.2,3.4-7.6,7.6-7.6h45.8c4.2,0,7.6,3.4,7.6,7.6v8.3c0,4.2-3.4,7.6-7.6,7.6h-45.8
			c-4.2,0-7.6-3.4-7.6-7.6V174.9L282.1,174.9z"/>
		<g>
			<path fill="#FFFFFF" d="M331.1,188.6c-3.9,0-7.1-3.2-7.1-7.1v-4.8c0-3.9,3.2-7.1,7.1-7.1h2.7c3.9,0,7.1,3.2,7.1,7.1v4.8
				c0,3.9-3.2,7.1-7.1,7.1H331.1z"/>
			<path fill="#C7C6C5" d="M333.8,170c3.7,0,6.6,3,6.6,6.6v4.8c0,3.7-3,6.6-6.6,6.6h-2.7c-3.7,0-6.6-3-6.6-6.6v-4.8
				c0-3.7,3-6.6,6.6-6.6H333.8 M333.8,169h-2.7c-4.2,0-7.6,3.4-7.6,7.6v4.8c0,4.2,3.4,7.6,7.6,7.6h2.7c4.2,0,7.6-3.4,7.6-7.6v-4.8
				C341.4,172.4,338,169,333.8,169L333.8,169z"/>
		</g>
		<g>
			<defs>
				<path id="SVGID_29_" d="M323.4,176.7c0-4.2,3.4-7.6,7.6-7.6h2.7c4.2,0,7.6,3.4,7.6,7.6v4.8c0,4.2-3.4,7.6-7.6,7.6h-2.7
					c-4.2,0-7.6-3.4-7.6-7.6V176.7L323.4,176.7z"/>
			</defs>
			<clipPath id="SVGID_2_">
				<use xlink:href="#SVGID_29_"  overflow="visible"/>
			</clipPath>
			<g clip-path="url(#SVGID_2_)">
				<rect x="318.1" y="170.7" fill="#1E1E1C" width="4.2" height="4.2"/>
				<rect x="322.3" y="174.9" fill="#1E1E1C" width="4.2" height="4.2"/>
				<rect x="326.5" y="170.7" fill="#1E1E1C" width="4.2" height="4.2"/>
				<rect x="330.6" y="174.9" fill="#1E1E1C" width="4.2" height="4.2"/>
				<rect x="318.1" y="179" fill="#1E1E1C" width="4.2" height="4.2"/>
				<rect x="322.3" y="183.2" fill="#1E1E1C" width="4.2" height="4.2"/>
				<rect x="326.5" y="179" fill="#1E1E1C" width="4.2" height="4.2"/>
				<rect x="330.6" y="183.2" fill="#1E1E1C" width="4.2" height="4.2"/>
				<rect x="334.8" y="170.7" fill="#1E1E1C" width="4.2" height="4.2"/>
				<rect x="339" y="174.9" fill="#1E1E1C" width="4.2" height="4.2"/>
				<rect x="334.8" y="179" fill="#1E1E1C" width="4.2" height="4.2"/>
				<rect x="339" y="183.2" fill="#1E1E1C" width="4.2" height="4.2"/>
			</g>
		</g>
		<g>
			<path fill="#C01724" d="M291.6,188.6c-3.9,0-7.1-3.2-7.1-7.1v-4.8c0-3.9,3.2-7.1,7.1-7.1h2.7c3.9,0,7.1,3.2,7.1,7.1v4.8
				c0,3.9-3.2,7.1-7.1,7.1H291.6z"/>
			<path fill="#AA1920" d="M294.3,170c3.7,0,6.6,3,6.6,6.6v4.8c0,3.7-3,6.6-6.6,6.6h-2.7c-3.7,0-6.6-3-6.6-6.6v-4.8
				c0-3.7,3-6.6,6.6-6.6H294.3 M294.3,169h-2.7c-4.2,0-7.6,3.4-7.6,7.6v4.8c0,4.2,3.4,7.6,7.6,7.6h2.7c4.2,0,7.6-3.4,7.6-7.6v-4.8
				C301.9,172.4,298.5,169,294.3,169L294.3,169z"/>
		</g>
		<g>
			<path fill="#009548" d="M311.3,188.6c-3.9,0-7.1-3.2-7.1-7.1v-4.8c0-3.9,3.2-7.1,7.1-7.1h2.7c3.9,0,7.1,3.2,7.1,7.1v4.8
				c0,3.9-3.2,7.1-7.1,7.1H311.3z"/>
			<path fill="#006139" d="M314,170c3.7,0,6.6,3,6.6,6.6v4.8c0,3.7-3,6.6-6.6,6.6h-2.7c-3.7,0-6.6-3-6.6-6.6v-4.8
				c0-3.7,3-6.6,6.6-6.6H314 M314,169h-2.7c-4.2,0-7.6,3.4-7.6,7.6v4.8c0,4.2,3.4,7.6,7.6,7.6h2.7c4.2,0,7.6-3.4,7.6-7.6v-4.8
				C321.7,172.4,318.2,169,314,169L314,169z"/>
		</g>
		<g>
			<path fill="#C7C6C5" d="M333.8,170c3.7,0,6.6,3,6.6,6.6v4.8c0,3.7-3,6.6-6.6,6.6h-2.7c-3.7,0-6.6-3-6.6-6.6v-4.8
				c0-3.7,3-6.6,6.6-6.6H333.8 M333.8,169h-2.7c-4.2,0-7.6,3.4-7.6,7.6v4.8c0,4.2,3.4,7.6,7.6,7.6h2.7c4.2,0,7.6-3.4,7.6-7.6v-4.8
				C341.4,172.4,338,169,333.8,169L333.8,169z"/>
		</g>
	</g>
</g>
<g id="textos_y_numeros">
	<g>
		<g>
			<path fill="#7B7C7D" d="M416.9,61.8c1.1,0,2,0.6,2.6,1.2l-0.9,1c-0.5-0.5-1-0.8-1.7-0.8c-1.5,0-2.6,1.3-2.6,3.3
				c0,2.1,1,3.4,2.5,3.4c0.8,0,1.4-0.3,1.9-0.9l0.9,1c-0.7,0.9-1.7,1.3-2.9,1.3c-2.3,0-4.2-1.7-4.2-4.8
				C412.6,63.6,414.5,61.8,416.9,61.8z"/>
			<path fill="#7B7C7D" d="M421,64.3h1.6v4.1c0,1.1,0.3,1.6,1.1,1.6c0.6,0,1-0.3,1.5-1v-4.7h1.6v6.9h-1.3l-0.1-1h0
				c-0.6,0.7-1.3,1.2-2.2,1.2c-1.5,0-2.1-1-2.1-2.8V64.3z"/>
			<path fill="#7B7C7D" d="M428.9,64.3h1.3l0.1,1.2h0.1c0.5-0.9,1.2-1.4,2-1.4c0.4,0,0.6,0,0.8,0.1l-0.3,1.4
				c-0.2-0.1-0.4-0.1-0.7-0.1c-0.6,0-1.2,0.4-1.6,1.4v4.2h-1.6V64.3z"/>
			<path fill="#7B7C7D" d="M433.3,64.3h1.7l1.1,3.6c0.2,0.7,0.4,1.4,0.6,2.1h0.1c0.2-0.7,0.4-1.4,0.6-2.1l1.1-3.6h1.6l-2.4,6.9h-1.9
				L433.3,64.3z"/>
			<path fill="#7B7C7D" d="M444,64.1c1.7,0,3.3,1.3,3.3,3.6c0,2.3-1.6,3.6-3.3,3.6c-1.7,0-3.3-1.3-3.3-3.6
				C440.7,65.4,442.3,64.1,444,64.1z M444,70.1c1,0,1.6-0.9,1.6-2.3c0-1.4-0.6-2.3-1.6-2.3c-1,0-1.6,0.9-1.6,2.3
				C442.4,69.1,443,70.1,444,70.1z"/>
			<path fill="#7B7C7D" d="M448.9,64.3h1.3l0.1,0.9h0.1c0.6-0.6,1.3-1.1,2.3-1.1c1.5,0,2.1,1,2.1,2.8v4.3h-1.6v-4.1
				c0-1.1-0.3-1.6-1.1-1.6c-0.6,0-1,0.3-1.6,0.9v4.8h-1.6V64.3z"/>
			<path fill="#7B7C7D" d="M459.6,64.1c1.9,0,2.9,1.4,2.9,3.3c0,0.3,0,0.6-0.1,0.8H458c0.1,1.3,0.9,2,2,2c0.6,0,1.1-0.2,1.6-0.5
				l0.5,1c-0.7,0.4-1.5,0.7-2.4,0.7c-1.9,0-3.4-1.3-3.4-3.6C456.4,65.5,458,64.1,459.6,64.1z M461,67.1c0-1.1-0.5-1.8-1.4-1.8
				c-0.8,0-1.5,0.6-1.7,1.8H461z"/>
		</g>
	</g>
	<g>
		<g>
			<path fill="#7B7C7D" d="M335.2,123.8h1.8l1.7,4.5l0.6,1.8h0.1l0.6-1.8l1.6-4.5h1.8v9.2h-1.5v-4.2c0-0.9,0.1-2.1,0.2-2.9H342
				l-0.7,2.1l-1.6,4.2h-0.7l-1.6-4.2l-0.7-2.1h-0.1c0.1,0.8,0.2,2.1,0.2,2.9v4.2h-1.5V123.8z"/>
			<path fill="#7B7C7D" d="M345.4,124c0-0.6,0.4-0.9,1-0.9c0.6,0,1,0.4,1,0.9c0,0.5-0.4,0.9-1,0.9
				C345.8,124.9,345.4,124.5,345.4,124z M345.6,126.1h1.6v6.9h-1.6V126.1z"/>
			<path fill="#7B7C7D" d="M349.3,131.2c0.6,0.5,1.2,0.8,1.9,0.8c0.7,0,1.1-0.4,1.1-0.8c0-0.6-0.7-0.8-1.5-1.1
				c-0.9-0.3-1.9-0.9-1.9-2c0-1.2,1-2.1,2.5-2.1c1,0,1.7,0.4,2.3,0.8l-0.7,1c-0.5-0.4-1-0.6-1.5-0.6c-0.7,0-1,0.3-1,0.8
				c0,0.5,0.7,0.8,1.4,1c0.9,0.4,2,0.8,2,2.1c0,1.2-0.9,2.1-2.7,2.1c-0.9,0-1.9-0.4-2.6-1L349.3,131.2z"/>
			<path fill="#7B7C7D" d="M359.1,128.6c0-0.7-0.3-1.4-1.3-1.4c-0.7,0-1.3,0.3-1.9,0.7l-0.6-1.1c0.8-0.5,1.7-0.9,2.8-0.9
				c1.7,0,2.6,1.1,2.6,3v4.1h-1.3l-0.1-0.8h0c-0.6,0.5-1.3,0.9-2.1,0.9c-1.2,0-2.1-0.8-2.1-2C355.1,129.7,356.3,128.9,359.1,128.6z
				 M357.6,132c0.6,0,1-0.3,1.5-0.8v-1.6c-1.9,0.2-2.5,0.7-2.5,1.4C356.6,131.7,357,132,357.6,132z"/>
			<path fill="#7B7C7D" d="M362.7,126.1h1.3l0.1,0.9h0.1c0.6-0.6,1.3-1.1,2.3-1.1c1.5,0,2.1,1,2.1,2.8v4.3H367v-4.1
				c0-1.1-0.3-1.6-1.1-1.6c-0.6,0-1,0.3-1.6,0.9v4.8h-1.6V126.1z"/>
			<path fill="#7B7C7D" d="M373.5,126c1.7,0,3.3,1.3,3.3,3.6c0,2.3-1.6,3.6-3.3,3.6c-1.7,0-3.3-1.3-3.3-3.6
				C370.2,127.3,371.7,126,373.5,126z M373.5,131.9c1,0,1.6-0.9,1.6-2.3c0-1.4-0.6-2.3-1.6-2.3c-1,0-1.6,0.9-1.6,2.3
				C371.8,131,372.5,131.9,373.5,131.9z"/>
		</g>
	</g>
	<g>
		<g>
			<path fill="#7B7C7D" d="M350.1,225c1.1,0,2,0.6,2.6,1.2l-0.9,1c-0.5-0.5-1-0.8-1.7-0.8c-1.5,0-2.6,1.3-2.6,3.3
				c0,2.1,1,3.4,2.5,3.4c0.8,0,1.4-0.3,1.9-0.9l0.9,1c-0.7,0.9-1.7,1.3-2.9,1.3c-2.3,0-4.2-1.7-4.2-4.8
				C345.8,226.8,347.7,225,350.1,225z"/>
			<path fill="#7B7C7D" d="M358,230c0-0.7-0.3-1.4-1.3-1.4c-0.7,0-1.3,0.3-1.9,0.7l-0.6-1.1c0.8-0.5,1.7-0.9,2.8-0.9
				c1.7,0,2.6,1.1,2.6,3v4.1h-1.3l-0.1-0.8h0c-0.6,0.5-1.3,0.9-2.1,0.9c-1.2,0-2.1-0.8-2.1-2C353.9,231.1,355.2,230.3,358,230z
				 M356.5,233.3c0.6,0,1-0.3,1.5-0.8V231c-1.9,0.2-2.5,0.7-2.5,1.4C355.5,233,355.9,233.3,356.5,233.3z"/>
			<path fill="#7B7C7D" d="M361.6,227.5h1.3l0.1,1.2h0.1c0.5-0.9,1.2-1.4,2-1.4c0.4,0,0.6,0,0.8,0.1l-0.3,1.4
				c-0.2-0.1-0.4-0.1-0.7-0.1c-0.6,0-1.2,0.4-1.6,1.4v4.2h-1.6V227.5z"/>
			<path fill="#7B7C7D" d="M366.9,227.5h1.3l0.1,1.2h0.1c0.5-0.9,1.2-1.4,2-1.4c0.4,0,0.6,0,0.8,0.1l-0.3,1.4
				c-0.2-0.1-0.4-0.1-0.7-0.1c-0.6,0-1.2,0.4-1.6,1.4v4.2h-1.6V227.5z"/>
			<path fill="#7B7C7D" d="M375,227.3c1.7,0,3.3,1.3,3.3,3.6c0,2.3-1.6,3.6-3.3,3.6c-1.7,0-3.3-1.3-3.3-3.6
				C371.7,228.6,373.3,227.3,375,227.3z M375,233.2c1,0,1.6-0.9,1.6-2.3c0-1.4-0.6-2.3-1.6-2.3c-1,0-1.6,0.9-1.6,2.3
				C373.4,232.3,374,233.2,375,233.2z"/>
		</g>
	</g>
	<g>
		<g>
			<path fill="#7B7C7D" d="M103.1,169.8h1.7l1.3,4.6c0.3,1,0.5,1.9,0.8,3h0.1c0.3-1.1,0.5-2,0.8-3l1.3-4.6h1.7l-2.9,9.2h-1.9
				L103.1,169.8z"/>
		</g>
	</g>
	<g>
		<g>
			<path fill="#7B7C7D" d="M116.4,174.6c0-0.7-0.3-1.4-1.3-1.4c-0.7,0-1.3,0.3-1.9,0.7l-0.6-1.1c0.8-0.5,1.7-0.9,2.8-0.9
				c1.7,0,2.6,1.1,2.6,3v4.1h-1.3l-0.1-0.8h0c-0.6,0.5-1.3,0.9-2.1,0.9c-1.2,0-2.1-0.8-2.1-2C112.3,175.7,113.5,174.9,116.4,174.6z
				 M114.9,178c0.6,0,1-0.3,1.5-0.8v-1.6c-1.9,0.2-2.5,0.7-2.5,1.4C113.9,177.7,114.3,178,114.9,178z"/>
			<path fill="#7B7C7D" d="M120,172.1h1.3l0.1,1.2h0.1c0.5-0.9,1.2-1.4,2-1.4c0.4,0,0.6,0,0.8,0.1l-0.3,1.4
				c-0.2-0.1-0.4-0.1-0.7-0.1c-0.6,0-1.2,0.4-1.6,1.4v4.2H120V172.1z"/>
			<path fill="#7B7C7D" d="M125.1,170c0-0.6,0.4-0.9,1-0.9s1,0.4,1,0.9c0,0.5-0.4,0.9-1,0.9S125.1,170.5,125.1,170z M125.2,172.1
				h1.6v6.9h-1.6V172.1z"/>
			<path fill="#7B7C7D" d="M132.7,174.6c0-0.7-0.3-1.4-1.3-1.4c-0.7,0-1.3,0.3-1.9,0.7l-0.6-1.1c0.8-0.5,1.7-0.9,2.8-0.9
				c1.7,0,2.6,1.1,2.6,3v4.1H133l-0.1-0.8h0c-0.6,0.5-1.3,0.9-2.1,0.9c-1.2,0-2.1-0.8-2.1-2C128.6,175.7,129.9,174.9,132.7,174.6z
				 M131.2,178c0.6,0,1-0.3,1.5-0.8v-1.6c-1.9,0.2-2.5,0.7-2.5,1.4C130.2,177.7,130.6,178,131.2,178z"/>
			<path fill="#7B7C7D" d="M136.3,172.1h1.3l0.1,0.9h0.1c0.6-0.6,1.3-1.1,2.3-1.1c1.5,0,2.1,1,2.1,2.8v4.3h-1.6v-4.1
				c0-1.1-0.3-1.6-1.1-1.6c-0.6,0-1,0.3-1.6,0.9v4.8h-1.6V172.1z"/>
			<path fill="#7B7C7D" d="M144.5,173.4h-1v-1.2l1.1-0.1l0.2-1.9h1.4v1.9h1.8v1.3h-1.8v3.3c0,0.8,0.3,1.2,1,1.2
				c0.2,0,0.5-0.1,0.7-0.2l0.3,1.2c-0.4,0.1-0.9,0.3-1.4,0.3c-1.6,0-2.2-1-2.2-2.5V173.4z"/>
			<path fill="#7B7C7D" d="M152.1,172c1.9,0,2.9,1.4,2.9,3.3c0,0.3,0,0.6-0.1,0.8h-4.4c0.1,1.3,0.9,2,2,2c0.6,0,1.1-0.2,1.6-0.5
				l0.6,1c-0.7,0.4-1.5,0.7-2.4,0.7c-1.9,0-3.4-1.3-3.4-3.6C148.9,173.4,150.4,172,152.1,172z M153.5,175c0-1.1-0.5-1.8-1.4-1.8
				c-0.8,0-1.5,0.6-1.7,1.8H153.5z"/>
		</g>
	</g>
	<g>
		<g>
			<path fill="#7B7C7D" d="M106.7,187.1c0.8,0,1.3,0.3,1.8,0.8l-0.1-1.1v-2.5h1.6v10h-1.3l-0.1-0.7h-0.1c-0.5,0.5-1.2,0.9-2,0.9
				c-1.7,0-2.9-1.3-2.9-3.6C103.8,188.5,105.2,187.1,106.7,187.1z M107,193c0.5,0,1-0.2,1.5-0.8V189c-0.5-0.4-0.9-0.6-1.4-0.6
				c-0.9,0-1.6,0.8-1.6,2.3C105.4,192.2,106,193,107,193z"/>
			<path fill="#7B7C7D" d="M114.9,187.1c1.9,0,2.9,1.4,2.9,3.3c0,0.3,0,0.6-0.1,0.8h-4.4c0.1,1.3,0.9,2,2,2c0.6,0,1.1-0.2,1.6-0.5
				l0.6,1c-0.7,0.4-1.5,0.7-2.4,0.7c-1.9,0-3.4-1.3-3.4-3.6C111.7,188.5,113.3,187.1,114.9,187.1z M116.3,190.1
				c0-1.1-0.5-1.8-1.4-1.8c-0.8,0-1.5,0.6-1.7,1.8H116.3z"/>
			<path fill="#7B7C7D" d="M119.3,184.2h1.6v8.3c0,0.4,0.2,0.5,0.4,0.5c0.1,0,0.1,0,0.3,0l0.2,1.2c-0.2,0.1-0.5,0.1-0.9,0.1
				c-1.2,0-1.6-0.7-1.6-1.9V184.2z"/>
			<path fill="#7B7C7D" d="M126.1,185h3.1c2,0,3.5,0.7,3.5,2.8c0,2-1.5,3-3.5,3h-1.5v3.4h-1.6V185z M129.1,189.5c1.4,0,2-0.6,2-1.7
				c0-1.2-0.7-1.5-2-1.5h-1.3v3.2H129.1z"/>
			<path fill="#7B7C7D" d="M138.1,189.8c0-0.7-0.3-1.4-1.3-1.4c-0.7,0-1.3,0.3-1.9,0.7l-0.6-1.1c0.8-0.5,1.7-0.9,2.8-0.9
				c1.7,0,2.6,1.1,2.6,3v4.1h-1.3l-0.1-0.8h0c-0.6,0.5-1.3,0.9-2.1,0.9c-1.2,0-2.1-0.8-2.1-2C134,190.8,135.3,190.1,138.1,189.8z
				 M136.6,193.1c0.6,0,1-0.3,1.5-0.8v-1.6c-1.9,0.2-2.5,0.7-2.5,1.4C135.6,192.8,136,193.1,136.6,193.1z"/>
			<path fill="#7B7C7D" d="M141.7,187.3h1.3l0.1,1.2h0.1c0.5-0.9,1.2-1.4,2-1.4c0.4,0,0.6,0,0.8,0.1l-0.3,1.4
				c-0.2-0.1-0.4-0.1-0.7-0.1c-0.6,0-1.2,0.4-1.6,1.4v4.2h-1.6V187.3z"/>
			<path fill="#7B7C7D" d="M150,187.1c0.9,0,1.6,0.4,2,0.8l-0.8,1c-0.4-0.3-0.7-0.5-1.2-0.5c-1.1,0-1.9,0.9-1.9,2.3
				c0,1.4,0.8,2.3,1.8,2.3c0.6,0,1-0.3,1.4-0.6l0.7,1c-0.6,0.6-1.5,0.9-2.3,0.9c-1.9,0-3.3-1.3-3.3-3.6
				C146.5,188.4,148.1,187.1,150,187.1z"/>
			<path fill="#7B7C7D" d="M156.3,187.1c1.7,0,3.3,1.3,3.3,3.6c0,2.3-1.6,3.6-3.3,3.6c-1.7,0-3.3-1.3-3.3-3.6
				C153,188.4,154.6,187.1,156.3,187.1z M156.3,193c1,0,1.6-0.9,1.6-2.3c0-1.4-0.6-2.3-1.6-2.3c-1,0-1.6,0.9-1.6,2.3
				C154.7,192.1,155.3,193,156.3,193z"/>
		</g>
	</g>
	<g>
		<g>
			<path fill="#7B7C7D" d="M63.7,78.5l-2-3.6h-1.4v3.6h-1.6v-9.2h3.1c1.9,0,3.4,0.7,3.4,2.7c0,1.4-0.7,2.3-1.8,2.6l2.2,3.9H63.7z
				 M60.3,73.6h1.3c1.3,0,1.9-0.5,1.9-1.6c0-1.1-0.7-1.4-1.9-1.4h-1.3V73.6z"/>
			<path fill="#7B7C7D" d="M66.8,69.5c0-0.6,0.4-0.9,1-0.9s1,0.4,1,0.9c0,0.5-0.4,0.9-1,0.9S66.8,70,66.8,69.5z M67,71.6h1.6v6.9H67
				V71.6z"/>
			<path fill="#7B7C7D" d="M73.5,71.4c1.7,0,3.3,1.3,3.3,3.6c0,2.3-1.6,3.6-3.3,3.6c-1.7,0-3.3-1.3-3.3-3.6
				C70.2,72.8,71.8,71.4,73.5,71.4z M73.5,77.4c1,0,1.6-0.9,1.6-2.3c0-1.4-0.6-2.3-1.6-2.3c-1,0-1.6,0.9-1.6,2.3
				C71.9,76.4,72.5,77.4,73.5,77.4z"/>
		</g>
	</g>
	<g>
		<g>
			<path fill="#7B7C7D" d="M267.2,87.2c-0.3,0.1-0.8,0.3-1.5,0.3c-1.8,0-3.1-1-3.7-2.3c-2-0.4-3.3-2.1-3.3-4.8c0-3,1.7-4.7,4.1-4.7
				c2.4,0,4.1,1.8,4.1,4.7c0,2.6-1.2,4.3-3.1,4.7c0.4,0.7,1.3,1,2.1,1c0.4,0,0.7-0.1,1-0.2L267.2,87.2z M262.8,83.8
				c1.5,0,2.4-1.3,2.4-3.4c0-2.1-0.9-3.3-2.4-3.3s-2.4,1.3-2.4,3.3C260.4,82.5,261.3,83.8,262.8,83.8z"/>
			<path fill="#7B7C7D" d="M268.5,78.1h1.6v4.1c0,1.1,0.3,1.6,1.1,1.6c0.6,0,1-0.3,1.5-1v-4.7h1.6V85H273l-0.1-1h0
				c-0.6,0.7-1.3,1.2-2.2,1.2c-1.5,0-2.1-1-2.1-2.8V78.1z"/>
			<path fill="#7B7C7D" d="M279.1,77.9c1.9,0,2.9,1.4,2.9,3.3c0,0.3,0,0.6-0.1,0.8h-4.4c0.1,1.3,0.9,2,2,2c0.6,0,1.1-0.2,1.6-0.5
				l0.5,1c-0.7,0.4-1.5,0.7-2.4,0.7c-1.9,0-3.4-1.3-3.4-3.6C276,79.3,277.5,77.9,279.1,77.9z M280.6,81c0-1.1-0.5-1.8-1.4-1.8
				c-0.8,0-1.5,0.6-1.7,1.8H280.6z"/>
			<path fill="#7B7C7D" d="M283.6,78.1h1.3l0.1,1.2h0.1c0.5-0.9,1.2-1.4,2-1.4c0.4,0,0.6,0,0.8,0.1l-0.3,1.4
				c-0.2-0.1-0.4-0.1-0.7-0.1c-0.6,0-1.2,0.4-1.6,1.4V85h-1.6V78.1z"/>
			<path fill="#7B7C7D" d="M291.8,77.9c0.9,0,1.6,0.4,2,0.8l-0.8,1c-0.4-0.3-0.7-0.5-1.2-0.5c-1.1,0-1.9,0.9-1.9,2.3
				c0,1.4,0.8,2.3,1.8,2.3c0.6,0,1-0.3,1.4-0.6l0.7,1c-0.6,0.6-1.5,0.9-2.3,0.9c-1.9,0-3.3-1.3-3.3-3.6
				C288.4,79.3,290,77.9,291.8,77.9z"/>
			<path fill="#7B7C7D" d="M295.2,76c0-0.6,0.4-0.9,1-0.9c0.6,0,1,0.4,1,0.9c0,0.5-0.4,0.9-1,0.9C295.6,76.9,295.2,76.5,295.2,76z
				 M295.3,78.1h1.6V85h-1.6V78.1z"/>
			<path fill="#7B7C7D" d="M302.8,80.6c0-0.7-0.3-1.4-1.3-1.4c-0.7,0-1.3,0.3-1.9,0.7l-0.6-1.1c0.8-0.5,1.7-0.9,2.8-0.9
				c1.7,0,2.6,1.1,2.6,3V85h-1.3l-0.1-0.8h0c-0.6,0.5-1.3,0.9-2.1,0.9c-1.2,0-2.1-0.8-2.1-2C298.7,81.7,300,80.9,302.8,80.6z
				 M301.3,83.9c0.6,0,1-0.3,1.5-0.8v-1.6c-1.9,0.2-2.5,0.7-2.5,1.4C300.3,83.7,300.7,83.9,301.3,83.9z"/>
		</g>
	</g>
	<g>
		<g>
			<path fill="#7B7C7D" d="M102.7,3.7h-2.7V2.3h7v1.4h-2.7v7.8h-1.6V3.7z"/>
			<path fill="#7B7C7D" d="M108.4,4.6h1.3l0.1,1.2h0.1c0.5-0.9,1.2-1.4,2-1.4c0.4,0,0.6,0,0.8,0.1L112.4,6c-0.2-0.1-0.4-0.1-0.7-0.1
				c-0.6,0-1.2,0.4-1.6,1.4v4.2h-1.6V4.6z"/>
			<path fill="#7B7C7D" d="M117.5,7.1c0-0.7-0.3-1.4-1.3-1.4c-0.7,0-1.3,0.3-1.9,0.7l-0.6-1.1c0.8-0.5,1.7-0.9,2.8-0.9
				c1.7,0,2.6,1.1,2.6,3v4.1h-1.3l-0.1-0.8h0c-0.6,0.5-1.3,0.9-2.1,0.9c-1.2,0-2.1-0.8-2.1-2C113.4,8.2,114.6,7.4,117.5,7.1z
				 M115.9,10.4c0.6,0,1-0.3,1.5-0.8V8.1c-1.9,0.2-2.5,0.7-2.5,1.4C115,10.2,115.4,10.4,115.9,10.4z"/>
			<path fill="#7B7C7D" d="M121,4.6h1.3l0.1,0.9h0.1c0.6-0.6,1.3-1.1,2.1-1.1c1,0,1.6,0.5,1.9,1.2c0.7-0.7,1.4-1.2,2.2-1.2
				c1.5,0,2.1,1,2.1,2.8v4.3h-1.6V7.4c0-1.1-0.3-1.6-1.1-1.6c-0.4,0-0.9,0.3-1.5,0.9v4.8h-1.6V7.4c0-1.1-0.3-1.6-1.1-1.6
				c-0.4,0-0.9,0.3-1.5,0.9v4.8H121V4.6z"/>
			<path fill="#7B7C7D" d="M135.8,4.4c1.7,0,3.3,1.3,3.3,3.6c0,2.3-1.6,3.6-3.3,3.6c-1.7,0-3.3-1.3-3.3-3.6
				C132.5,5.7,134.1,4.4,135.8,4.4z M135.8,10.4c1,0,1.6-0.9,1.6-2.3c0-1.4-0.6-2.3-1.6-2.3c-1,0-1.6,0.9-1.6,2.3
				C134.2,9.4,134.8,10.4,135.8,10.4z"/>
			<path fill="#7B7C7D" d="M140.7,4.6h1.3l0.1,0.9h0.1c0.6-0.6,1.3-1.1,2.3-1.1c1.5,0,2.1,1,2.1,2.8v4.3H145V7.4
				c0-1.1-0.3-1.6-1.1-1.6c-0.6,0-1,0.3-1.6,0.9v4.8h-1.6V4.6z"/>
			<path fill="#7B7C7D" d="M148.8,5.9h-1V4.7l1.1-0.1l0.2-1.9h1.4v1.9h1.8v1.3h-1.8v3.3c0,0.8,0.3,1.2,1,1.2c0.2,0,0.5-0.1,0.7-0.2
				l0.3,1.2c-0.4,0.1-0.9,0.3-1.4,0.3c-1.6,0-2.2-1-2.2-2.5V5.9z"/>
			<path fill="#7B7C7D" d="M156.5,4.4c1.7,0,3.3,1.3,3.3,3.6c0,2.3-1.6,3.6-3.3,3.6c-1.7,0-3.3-1.3-3.3-3.6
				C153.2,5.7,154.8,4.4,156.5,4.4z M156.5,10.4c1,0,1.6-0.9,1.6-2.3c0-1.4-0.6-2.3-1.6-2.3c-1,0-1.6,0.9-1.6,2.3
				C154.9,9.4,155.5,10.4,156.5,10.4z"/>
		</g>
	</g>
	<g>
		<g>
			<path fill="#7B7C7D" d="M200.9,142.8h2v-5.9h-1.7v-1c0.9-0.2,1.5-0.4,2.1-0.7h1.2v7.6h1.8v1.3h-5.4V142.8z"/>
		</g>
	</g>
	<g>
		<g>
			<path fill="#7B7C7D" d="M168.5,157.9c2.5-2.4,4.1-4,4.1-5.4c0-0.9-0.5-1.6-1.5-1.6c-0.7,0-1.3,0.5-1.8,1l-0.9-0.9
				c0.8-0.9,1.6-1.4,2.9-1.4c1.7,0,2.8,1.1,2.8,2.8c0,1.6-1.5,3.2-3.3,5.1c0.5,0,1.1-0.1,1.5-0.1h2.2v1.4h-6.1V157.9z"/>
		</g>
	</g>
	<g>
		<g>
			<path fill="#7B7C7D" d="M123.7,143.7c0.5,0.6,1.2,1,2.1,1c1,0,1.7-0.5,1.7-1.4c0-0.9-0.6-1.5-2.6-1.5v-1.2c1.8,0,2.3-0.6,2.3-1.4
				c0-0.7-0.5-1.2-1.3-1.2c-0.7,0-1.3,0.3-1.8,0.8l-0.8-1c0.8-0.7,1.6-1.1,2.7-1.1c1.7,0,2.9,0.8,2.9,2.4c0,1-0.6,1.7-1.6,2.1v0.1
				c1.1,0.3,1.9,1,1.9,2.2c0,1.6-1.4,2.6-3.1,2.6c-1.5,0-2.4-0.6-3-1.3L123.7,143.7z"/>
		</g>
	</g>
	<g>
		<g>
			<path fill="#7B7C7D" d="M50.6,97.7h-1.1v2.3h-1.5v-2.3h-4v-1.1l3.6-5.6h1.9v5.4h1.1V97.7z M47.9,96.5v-2c0-0.5,0-1.3,0.1-1.9H48
				c-0.2,0.5-0.5,0.9-0.7,1.4l-1.6,2.5H47.9z"/>
		</g>
	</g>
	<g>
		<g>
			<path fill="#7B7C7D" d="M90.6,78.2c0.5,0.5,1.2,1,2.1,1c1,0,1.7-0.6,1.7-1.7c0-1.1-0.7-1.7-1.7-1.7c-0.6,0-0.9,0.2-1.4,0.5
				l-0.8-0.5l0.3-4.4h4.8v1.4h-3.4l-0.2,2.2c0.4-0.2,0.7-0.3,1.2-0.3c1.5,0,2.8,0.9,2.8,2.8c0,2-1.5,3.1-3.2,3.1
				c-1.5,0-2.4-0.6-3.1-1.2L90.6,78.2z"/>
		</g>
	</g>
	<g>
		<g>
			<path fill="#7B7C7D" d="M106.5,129.8c-0.3-0.4-0.9-0.7-1.4-0.7c-1.1,0-2,0.8-2.1,3.3c0.5-0.7,1.3-1.1,1.9-1.1
				c1.6,0,2.6,0.9,2.6,2.8c0,1.8-1.3,2.9-2.8,2.9c-1.8,0-3.3-1.4-3.3-4.4c0-3.5,1.7-4.9,3.5-4.9c1.1,0,1.9,0.5,2.4,1L106.5,129.8z
				 M106.1,134.2c0-1.1-0.5-1.6-1.4-1.6c-0.5,0-1.1,0.3-1.6,1c0.2,1.6,0.8,2.3,1.7,2.3C105.5,135.9,106.1,135.3,106.1,134.2z"/>
		</g>
	</g>
	<g>
		<g>
			<path fill="#7B7C7D" d="M205.2,98.3h-4.2v-1.4h6v1c-2.1,2.6-2.5,4.5-2.6,8h-1.7C202.8,102.7,203.4,100.7,205.2,98.3z"/>
		</g>
	</g>
	<g>
		<g>
			<path fill="#7B7C7D" d="M331.3,79.5L331.3,79.5c-0.7-0.6-1.2-1.2-1.2-2.2c0-1.5,1.2-2.4,2.7-2.4c1.6,0,2.6,1,2.6,2.4
				c0,0.9-0.6,1.6-1.2,2.1v0.1c0.8,0.5,1.6,1.1,1.6,2.3c0,1.4-1.2,2.4-3,2.4c-1.8,0-3-1-3-2.5C329.6,80.7,330.4,79.9,331.3,79.5z
				 M332.7,83.1c0.9,0,1.5-0.5,1.5-1.3c0-1-0.9-1.3-2.2-1.8c-0.6,0.4-1,1-1,1.7C331.1,82.5,331.8,83.1,332.7,83.1z M334,77.5
				c0-0.8-0.5-1.4-1.3-1.4c-0.7,0-1.2,0.5-1.2,1.2c0,0.9,0.8,1.3,1.8,1.7C333.8,78.5,334,78,334,77.5z"/>
		</g>
	</g>
	<g>
		<g>
			<path fill="#7B7C7D" d="M190.5,52c0.3,0.4,0.9,0.7,1.4,0.7c1.1,0,2-0.8,2.1-3.3c-0.5,0.6-1.3,1-2,1c-1.5,0-2.6-0.9-2.6-2.8
				c0-1.8,1.3-2.9,2.8-2.9c1.8,0,3.2,1.4,3.2,4.4c0,3.5-1.7,4.9-3.5,4.9c-1.1,0-1.9-0.5-2.4-1L190.5,52z M194,48.2
				c-0.2-1.6-0.8-2.3-1.7-2.3c-0.7,0-1.3,0.6-1.3,1.7c0,1.1,0.5,1.6,1.4,1.6C192.9,49.2,193.5,48.9,194,48.2z"/>
		</g>
	</g>
	<g>
		<g>
			<path fill="#7B7C7D" d="M166.3,10.6h2V4.7h-1.7v-1c0.9-0.2,1.5-0.4,2.1-0.7h1.2v7.6h1.8v1.3h-5.4V10.6z"/>
			<path fill="#7B7C7D" d="M173.1,7.4c0-3,1.2-4.6,3-4.6s3,1.6,3,4.6c0,3-1.2,4.7-3,4.7S173.1,10.4,173.1,7.4z M177.6,7.4
				c0-2.5-0.6-3.3-1.5-3.3c-0.9,0-1.5,0.8-1.5,3.3s0.6,3.4,1.5,3.4C177,10.8,177.6,9.9,177.6,7.4z"/>
		</g>
	</g>
	<g>
		<g>
			<path fill="#7B7C7D" d="M394.5,69.9h2V64h-1.7v-1c0.9-0.2,1.5-0.4,2.1-0.7h1.2v7.7h1.8v1.3h-5.4V69.9z"/>
			<path fill="#7B7C7D" d="M401.8,69.9h2V64h-1.7v-1c0.9-0.2,1.5-0.4,2.1-0.7h1.2v7.7h1.8v1.3h-5.4V69.9z"/>
		</g>
	</g>
	<g>
		<g>
			<path fill="#7B7C7D" d="M448.1,150h2v-5.9h-1.7v-1c0.9-0.2,1.5-0.4,2.1-0.7h1.2v7.7h1.8v1.3h-5.4V150z"/>
			<path fill="#7B7C7D" d="M454.9,150.3c2.5-2.4,4.1-4,4.1-5.4c0-0.9-0.5-1.6-1.5-1.6c-0.7,0-1.3,0.5-1.8,1l-0.9-0.9
				c0.8-0.9,1.6-1.4,2.9-1.4c1.7,0,2.8,1.1,2.8,2.8c0,1.6-1.5,3.2-3.3,5.1c0.5,0,1.1-0.1,1.5-0.1h2.2v1.4h-6.1V150.3z"/>
		</g>
	</g>
	<g>
		<g>
			<path fill="#7B7C7D" d="M450.2,210.9h2V205h-1.7v-1c0.9-0.2,1.5-0.4,2.1-0.7h1.2v7.7h1.8v1.3h-5.4V210.9z"/>
			<path fill="#7B7C7D" d="M457.6,210.1c0.5,0.6,1.2,1,2.1,1c1,0,1.7-0.5,1.7-1.4c0-0.9-0.6-1.5-2.6-1.5V207c1.8,0,2.3-0.6,2.3-1.4
				c0-0.7-0.5-1.2-1.3-1.2c-0.7,0-1.3,0.3-1.8,0.8l-0.8-1c0.8-0.7,1.6-1.1,2.7-1.1c1.7,0,2.9,0.8,2.9,2.4c0,1-0.6,1.7-1.6,2.1v0.1
				c1.1,0.3,1.9,1,1.9,2.2c0,1.6-1.4,2.6-3.1,2.6c-1.5,0-2.4-0.6-3-1.3L457.6,210.1z"/>
		</g>
	</g>
	<g>
		<g>
			<path fill="#7B7C7D" d="M361.2,218.4h2v-5.9h-1.7v-1c0.9-0.2,1.5-0.4,2.1-0.7h1.2v7.6h1.8v1.3h-5.4V218.4z"/>
			<path fill="#7B7C7D" d="M374.3,217.5h-1.1v2.3h-1.5v-2.3h-4v-1.1l3.6-5.6h1.9v5.4h1.1V217.5z M371.6,216.2v-2
				c0-0.5,0-1.3,0.1-1.9h-0.1c-0.2,0.5-0.5,0.9-0.7,1.4l-1.6,2.5H371.6z"/>
		</g>
	</g>
	<g>
		<g>
			<path fill="#7B7C7D" d="M389.3,172.2h2v-5.9h-1.7v-1c0.9-0.2,1.5-0.4,2.1-0.7h1.2v7.6h1.8v1.3h-5.4V172.2z"/>
			<path fill="#7B7C7D" d="M396.6,171.4c0.5,0.5,1.2,1,2.1,1c1,0,1.7-0.6,1.7-1.7c0-1.1-0.7-1.7-1.7-1.7c-0.6,0-0.9,0.2-1.4,0.5
				l-0.8-0.5l0.3-4.4h4.8v1.4h-3.4l-0.2,2.2c0.4-0.2,0.7-0.3,1.2-0.3c1.5,0,2.8,0.9,2.8,2.8c0,2-1.5,3.1-3.2,3.1
				c-1.5,0-2.4-0.6-3.1-1.2L396.6,171.4z"/>
		</g>
	</g>
	<g>
		<g>
			<path fill="#7B7C7D" d="M362,118.5h2v-5.9h-1.7v-1c0.9-0.2,1.5-0.4,2.1-0.7h1.2v7.6h1.8v1.3H362V118.5z"/>
			<path fill="#7B7C7D" d="M373.9,112.6c-0.3-0.4-0.9-0.7-1.4-0.7c-1.1,0-2,0.8-2.1,3.3c0.5-0.7,1.3-1.1,1.9-1.1
				c1.6,0,2.6,0.9,2.6,2.8c0,1.8-1.3,2.9-2.8,2.9c-1.8,0-3.3-1.4-3.3-4.4c0-3.5,1.7-4.9,3.5-4.9c1.1,0,1.9,0.5,2.4,1L373.9,112.6z
				 M373.4,117c0-1.1-0.5-1.6-1.4-1.6c-0.5,0-1.1,0.3-1.6,1c0.2,1.6,0.8,2.3,1.7,2.3C372.8,118.7,373.4,118.1,373.4,117z"/>
		</g>
	</g>
</g>
</svg>
