<?xml version="1.0" encoding="utf-8"?>
<!-- Generator: Adobe Illustrator 18.1.0, SVG Export Plug-In . SVG Version: 6.00 Build 0)  -->
<!DOCTYPE svg PUBLIC "-//W3C//DTD SVG 1.0//EN" "http://www.w3.org/TR/2001/REC-SVG-20010904/DTD/svg10.dtd">
<svg version="1.0" xmlns="http://www.w3.org/2000/svg" xmlns:xlink="http://www.w3.org/1999/xlink" x="0px" y="0px"
	 viewBox="0 0 504 251" enable-background="new 0 0 504 251" xml:space="preserve">
<g id="trazado">
	<path fill="#B7B5B6" d="M143.6,87.3c2.7,5.2,5.7,6.4,10.5,7c4,0.5,128.3,13.8,133.6,14.4c0.9,0.1,3.2,0.7,3.3,3.7
		c0.1,3.3-4.9,4.3-5.1,4.3c0,0-60.5,11-60.5,11l0.3,0c-0.3,0-7.5,0.8-11.6,7.5c-3.9,6.3-16.5,24.9-16.6,25.1l-0.1,0.2l-0.1,0.2
		c-0.1,0.3-3.4,7-2.5,14.6c0.8,6.8,4.3,11.9,4.5,12.1l0,0l30,43.4c2.1,3,8,7.8,15.1,4.6c6.4-2.9,17.7-8.9,18.1-9.1l0.4-0.2l0.3-0.3
		c3.1-2.9,7.6-10.3,2.3-17.3c-4.7-6.2-25.4-30.3-27.4-32.6c-2.2-3.3-7-12.9-4.1-19c4.2-8.9,7.8-11.1,12.9-12c0,0,40.3-6.9,40.5-6.9
		c0.5-0.1,9.2-0.9,14.8,7.2l23.6,34l0.1,0.1c0.4,0.5,3.6,4.5,8,5c0.8,0.1,1.6,0.1,2.3-0.1c1.4-0.2,2.7-0.9,3.9-1.8
		c5.5-4.5,5.2-7.8,4.4-12.8l-0.1-0.8L321.3,35.7l0-0.1c-0.1-0.5-3.2-13.1-16-18.9c-5-2.3-9.6-3-13.9-2.3c-4.5,0.8-8.7,3.3-12.5,7.5
		c-4.3,4.8-36.9,48.5-38.3,50.4c-0.2,0.3-4.3,6.1-12.6,7.6c-0.2,0-0.4,0.1-0.6,0.1c-7.2,1.3-9.9,0-11.4-0.6
		c-1.6-0.7-18.6-9.1-25.3-12.3c-0.6-0.4-6.3-4.2-7.6-10.3c-0.6-2.9-1.4-10.5-1.4-10.6l0,0.3c0-3-1.6-8.9-7.5-10.3
		c-6.8-1.5-9.8,1.2-12.4,6l-18.2,34C142.5,78.3,141.2,83,143.6,87.3L143.6,87.3z M288.4,101.8c-1.3-0.1-129.6-13.9-133.6-14.4
		c-3.1-0.4-3.7-0.6-5.2-3.3c-1.1-2.2,0-4.5,0-4.6c0,0,18.1-33.9,18.1-33.9c1.6-3,2-3.2,4.8-2.6c2,0.5,2.1,3.5,2.1,3.6l0,0.1l0,0.2
		c0,0.3,0.9,8.1,1.5,11.3c1.9,9.3,10.4,14.6,10.8,14.8l0.1,0.1l0.1,0.1c1,0.5,23.6,11.6,25.7,12.5c3.1,1.4,7.5,2.6,16.1,1
		c11.2-2.1,16.7-10.1,17-10.4l-0.1,0.1c11.7-15.7,34.6-46.2,37.9-49.9c2.2-2.4,4.8-4.7,8.5-5.3c2.7-0.5,5.9-0.1,9.9,1.7
		c9.5,4.3,12,13.5,12.1,14.1c0.1,0.3,22.9,132.7,22.9,132.7l0.1,0.8c0.7,3.9,0.7,4-1.9,6.2c-0.3,0.2-0.5,0.3-0.7,0.4
		c-0.1,0-0.2,0-0.3,0c-1.1-0.1-2.6-1.4-3.3-2.3c-0.2-0.2-23.4-33.8-23.4-33.8c-8.2-11.7-20.9-10.2-21.4-10.1c-0.1,0-40.8,7-40.8,7
		c-8.3,1.4-13.3,5.9-18,15.8c-5.2,11.1,4.3,25.4,4.7,26l0.1,0.2l0.1,0.2c0.2,0.3,22.6,26.2,27.3,32.4c2.5,3.4-0.4,6.9-1.3,7.8
		c-2.2,1.2-11.7,6.2-17.2,8.7c-0.4,0.2-0.8,0.3-1.2,0.4c-3,0.5-5.2-2.3-5.4-2.6c0,0-29.9-43.3-29.9-43.3c0,0-2.7-4-3.3-9
		c-0.6-5,1.4-9.7,1.7-10.5c1.4-2.1,12.9-19,16.6-25.1c2-3.2,5.4-4,6.2-4.2c0.1,0,0.2,0,0.2,0l0.1,0l0.1,0l60.4-11c0,0,0.1,0,0.1,0
		c3.8-0.7,10.9-3.9,10.7-11.3C297.7,104.7,291.6,102.1,288.4,101.8L288.4,101.8z"/>
</g>
<g id="PUNTOS_INTERMEDIOS_Y_SEMAFORO">
	<path fill="#AC1737" d="M357.3,122.9c0.1,0.5-0.2,0.9-0.7,1l-32.3,6.9c-0.5,0.1-0.9-0.2-1-0.7s0.2-0.9,0.7-1l32.3-6.9
		C356.7,122.1,357.2,122.4,357.3,122.9z"/>
	<path fill="#AC1737" d="M234.5,203c0.4-0.2,1-0.1,1.2,0.3l16.2,28.8c0.2,0.4,0.1,1-0.3,1.2s-1,0.1-1.2-0.3l-16.2-28.8
		C233.9,203.8,234.1,203.3,234.5,203z"/>
	<g>
		<path fill="#AC1737" d="M362.4,123.8c0-4.2,3.4-7.6,7.6-7.6h2.7c4.2,0,7.6,3.4,7.6,7.6v4.8c0,4.2-3.4,7.6-7.6,7.6H370
			c-4.2,0-7.6-3.4-7.6-7.6V123.8L362.4,123.8z"/>
		<g>
			<path fill="#FFFFFF" d="M369.2,128.3c0.6,0.6,1.4,0.9,2.2,0.9c0.9,0,1.4-0.4,1.4-1.1c0-0.7-0.5-0.9-1.3-1.2l-1.1-0.5
				c-0.8-0.3-1.7-1-1.7-2.2c0-1.3,1.2-2.3,2.8-2.3c1,0,1.9,0.4,2.6,1.1l-0.8,0.9c-0.5-0.4-1.1-0.7-1.8-0.7c-0.8,0-1.3,0.4-1.3,1
				c0,0.6,0.6,0.9,1.3,1.2l1.1,0.5c1,0.4,1.7,1,1.7,2.2c0,1.3-1.1,2.5-3,2.5c-1.1,0-2.2-0.4-3-1.2L369.2,128.3z"/>
		</g>
	</g>
	<g>
		<path fill="#AC1737" d="M137.2,108.2c0-4.2,3.4-7.6,7.7-7.6h11.7c4.2,0,7.6,3.4,7.6,7.6v4.8c0,4.2-3.4,7.6-7.6,7.6h-11.7
			c-4.2,0-7.7-3.4-7.7-7.6V108.2L137.2,108.2z"/>
		<g>
			<path fill="#FFFFFF" d="M144.7,106.5h5v1.2h-3.5v2.3h3v1.2h-3v3.5h-1.5V106.5z"/>
			<path fill="#FFFFFF" d="M151.7,106.5h1.5v7.1h3.4v1.2h-4.9V106.5z"/>
		</g>
	</g>
	<g>
		<path fill="#AC1737" d="M231,207.4c0-4.2,3.4-7.7,7.6-7.7h5.1c4.2,0,7.7,3.4,7.7,7.7v5.1c0,4.2-3.4,7.6-7.7,7.6h-5.1
			c-4.2,0-7.6-3.4-7.6-7.6V207.4L231,207.4z"/>
		<g>
			<path fill="#FFFFFF" d="M236.7,206.2c0-0.5,0.4-0.8,0.9-0.8c0.5,0,0.9,0.3,0.9,0.8c0,0.5-0.4,0.8-0.9,0.8
				C237,207,236.7,206.7,236.7,206.2z M236.8,208.1h1.5v6.2h-1.5V208.1z"/>
			<path fill="#FFFFFF" d="M240.9,212.4c0.5,0.5,1.1,0.9,1.9,0.9c0.9,0,1.5-0.5,1.5-1.2c0-0.8-0.5-1.4-2.4-1.4v-1.1
				c1.6,0,2.1-0.5,2.1-1.3c0-0.7-0.5-1.1-1.2-1.1c-0.6,0-1.1,0.3-1.6,0.8l-0.8-0.9c0.7-0.6,1.5-1,2.4-1c1.5,0,2.6,0.8,2.6,2.1
				c0,0.9-0.5,1.5-1.4,1.9v0.1c1,0.3,1.7,0.9,1.7,2c0,1.5-1.3,2.3-2.8,2.3c-1.3,0-2.2-0.5-2.7-1.1L240.9,212.4z"/>
		</g>
	</g>
	<g>
		<path fill="#AC1737" d="M342.1,123.6c0-4.2,3.4-7.7,7.6-7.7h5c4.2,0,7.7,3.4,7.7,7.7v5.1c0,4.2-3.4,7.7-7.7,7.7h-5
			c-4.2,0-7.6-3.4-7.6-7.7V123.6L342.1,123.6z"/>
		<g>
			<path fill="#FFFFFF" d="M347.7,122.5c0-0.5,0.4-0.8,0.9-0.8c0.5,0,0.9,0.3,0.9,0.8c0,0.5-0.4,0.8-0.9,0.8
				C348.1,123.3,347.7,123,347.7,122.5z M347.8,124.4h1.5v6.2h-1.5V124.4z"/>
			<path fill="#FFFFFF" d="M351.4,129.8c2.2-2.2,3.7-3.6,3.7-4.8c0-0.9-0.5-1.4-1.3-1.4c-0.6,0-1.1,0.4-1.6,0.9l-0.8-0.8
				c0.7-0.8,1.5-1.2,2.6-1.2c1.5,0,2.6,1,2.6,2.5c0,1.4-1.3,2.9-2.9,4.6c0.4,0,1-0.1,1.3-0.1h2v1.2h-5.5V129.8z"/>
		</g>
	</g>
	<g>
		<path fill="#AC1737" d="M207.5,112.7c0.5,0,0.9-0.3,1-0.8l2.5-25.2c0-0.5-0.3-0.9-0.7-0.9l-17.6-1.7c-0.5,0-0.9,0.3-1,0.8
			c0,0.5,0.3,0.9,0.8,1l16.4,1.6c0.2,0,0.3,0.2,0.3,0.4l-2.3,23.9C206.7,112.2,207,112.6,207.5,112.7z"/>
		<path fill="#AC1737" d="M189.3,85.1c-0.3-0.2-0.3-0.8,0.1-0.9l3.3-1.5l3.3-1.5c0.4-0.2,0.8,0.1,0.8,0.5l-0.4,3.7l-0.4,3.7
			c0,0.4-0.5,0.6-0.8,0.4l-3-2.1L189.3,85.1z"/>
	</g>
	<path fill="#AC1737" d="M227.5,47.1c0.3-0.4,0.8-0.5,1.2-0.2l27.5,18.4c0.4,0.3,0.5,0.8,0.2,1.2s-0.8,0.5-1.2,0.2l-27.5-18.4
		C227.3,48,227.2,47.5,227.5,47.1z"/>
	<path fill="#AC1737" d="M179.2,82.6c0.5,0.1,0.8,0.5,0.7,1l-2.3,19.3c-0.1,0.5-0.5,0.8-1,0.7c-0.5-0.1-0.8-0.5-0.7-1l2.3-19.3
		C178.3,82.9,178.7,82.6,179.2,82.6z"/>
	<g>
		<path fill="#7B7C7D" d="M163.3,106.5c0-4.2,3.4-7.6,7.6-7.6h6.8c4.2,0,7.6,3.4,7.6,7.6v8.3c0,4.2-3.4,7.6-7.6,7.6h-6.8
			c-4.2,0-7.6-3.4-7.6-7.6V106.5L163.3,106.5z"/>
		<g>
			<path fill="#FFFFFF" d="M173.1,120.2c-3.9,0-7.1-3.2-7.1-7.1v-4.8c0-3.9,3.2-7.1,7.1-7.1h2.7c3.9,0,7.1,3.2,7.1,7.1v4.8
				c0,3.9-3.2,7.1-7.1,7.1H173.1z"/>
			<path fill="#C7C6C5" d="M175.8,101.6c3.7,0,6.6,3,6.6,6.6v4.8c0,3.7-3,6.6-6.6,6.6h-2.7c-3.7,0-6.6-3-6.6-6.6v-4.8
				c0-3.7,3-6.6,6.6-6.6H175.8 M175.8,100.6h-2.7c-4.2,0-7.6,3.4-7.6,7.6v4.8c0,4.2,3.4,7.6,7.6,7.6h2.7c4.2,0,7.6-3.4,7.6-7.6v-4.8
				C183.4,104,180,100.6,175.8,100.6L175.8,100.6z"/>
		</g>
		<g>
			<defs>
				<path id="SVGID_17_" d="M165.3,108.2c0-4.2,3.4-7.6,7.6-7.6h2.7c4.2,0,7.6,3.4,7.6,7.6v4.8c0,4.2-3.4,7.6-7.6,7.6h-2.7
					c-4.2,0-7.6-3.4-7.6-7.6V108.2L165.3,108.2z"/>
			</defs>
			<clipPath id="SVGID_2_">
				<use xlink:href="#SVGID_17_"  overflow="visible"/>
			</clipPath>
			<g clip-path="url(#SVGID_2_)">
				<rect x="160" y="102.3" fill="#1E1E1C" width="4.2" height="4.2"/>
				<rect x="164.2" y="106.4" fill="#1E1E1C" width="4.2" height="4.2"/>
				<rect x="168.3" y="102.3" fill="#1E1E1C" width="4.2" height="4.2"/>
				<rect x="172.5" y="106.4" fill="#1E1E1C" width="4.2" height="4.2"/>
				<rect x="160" y="110.6" fill="#1E1E1C" width="4.2" height="4.2"/>
				<rect x="164.2" y="114.8" fill="#1E1E1C" width="4.2" height="4.2"/>
				<rect x="168.3" y="110.6" fill="#1E1E1C" width="4.2" height="4.2"/>
				<rect x="172.5" y="114.8" fill="#1E1E1C" width="4.2" height="4.2"/>
				<rect x="176.7" y="102.3" fill="#1E1E1C" width="4.2" height="4.2"/>
				<rect x="180.8" y="106.4" fill="#1E1E1C" width="4.2" height="4.2"/>
				<rect x="176.7" y="110.6" fill="#1E1E1C" width="4.2" height="4.2"/>
				<rect x="180.8" y="114.8" fill="#1E1E1C" width="4.2" height="4.2"/>
			</g>
		</g>
		<g>
			<path fill="#C7C6C5" d="M175.8,101.6c3.7,0,6.6,3,6.6,6.6v4.8c0,3.7-3,6.6-6.6,6.6h-2.7c-3.7,0-6.6-3-6.6-6.6v-4.8
				c0-3.7,3-6.6,6.6-6.6H175.8 M175.8,100.6h-2.7c-4.2,0-7.6,3.4-7.6,7.6v4.8c0,4.2,3.4,7.6,7.6,7.6h2.7c4.2,0,7.6-3.4,7.6-7.6v-4.8
				C183.4,104,180,100.6,175.8,100.6L175.8,100.6z"/>
		</g>
	</g>
	<g>
		<path fill="#7B7C7D" d="M191,111c0-4.2,3.4-7.6,7.6-7.6h25.8c4.2,0,7.6,3.4,7.6,7.6v8.3c0,4.2-3.4,7.6-7.6,7.6h-25.8
			c-4.2,0-7.6-3.4-7.6-7.6V111L191,111z"/>
		<g>
			<g>
				<path fill="#C01724" d="M200.3,124.7c-3.9,0-7.1-3.2-7.1-7.1v-4.8c0-3.9,3.2-7.1,7.1-7.1h2.7c3.9,0,7.1,3.2,7.1,7.1v4.8
					c0,3.9-3.2,7.1-7.1,7.1H200.3z"/>
				<path fill="#AA1920" d="M203,106.1c3.7,0,6.6,3,6.6,6.6v4.8c0,3.7-3,6.6-6.6,6.6h-2.7c-3.7,0-6.6-3-6.6-6.6v-4.8
					c0-3.7,3-6.6,6.6-6.6H203 M203,105.1h-2.7c-4.2,0-7.6,3.4-7.6,7.6v4.8c0,4.2,3.4,7.6,7.6,7.6h2.7c4.2,0,7.6-3.4,7.6-7.6v-4.8
					C210.6,108.5,207.2,105.1,203,105.1L203,105.1z"/>
			</g>
			<g>
				<path fill="#009548" d="M220,124.7c-3.9,0-7.1-3.2-7.1-7.1v-4.8c0-3.9,3.2-7.1,7.1-7.1h2.7c3.9,0,7.1,3.2,7.1,7.1v4.8
					c0,3.9-3.2,7.1-7.1,7.1H220z"/>
				<path fill="#006139" d="M222.7,106.1c3.7,0,6.6,3,6.6,6.6v4.8c0,3.7-3,6.6-6.6,6.6H220c-3.7,0-6.6-3-6.6-6.6v-4.8
					c0-3.7,3-6.6,6.6-6.6H222.7 M222.7,105.1H220c-4.2,0-7.6,3.4-7.6,7.6v4.8c0,4.2,3.4,7.6,7.6,7.6h2.7c4.2,0,7.6-3.4,7.6-7.6v-4.8
					C230.4,108.5,227,105.1,222.7,105.1L222.7,105.1z"/>
			</g>
		</g>
	</g>
	<g>
		<path fill="#AC1737" d="M227.1,46.3c0-4.2,3.4-7.6,7.7-7.6h3.9c4.2,0,7.7,3.4,7.7,7.6v5.5c0,4.2-3.4,7.7-7.7,7.7h-3.9
			c-4.2,0-7.7-3.4-7.7-7.7V46.3L227.1,46.3z"/>
		<g>
			<path fill="#FFFFFF" d="M232.2,45.4c0-0.5,0.4-0.8,0.9-0.8c0.5,0,0.9,0.3,0.9,0.8c0,0.5-0.4,0.8-0.9,0.8
				C232.5,46.3,232.2,45.9,232.2,45.4z M232.3,47.3h1.5v6.2h-1.5V47.3z"/>
			<path fill="#FFFFFF" d="M236.3,52.4h1.8v-5.3h-1.5v-0.9c0.8-0.2,1.4-0.4,1.9-0.7h1.1v6.9h1.6v1.2h-4.9V52.4z"/>
		</g>
	</g>
</g>
<g id="textos_y_numeros">
	<g>
		<g>
			<path fill="#7B7C7D" d="M278.7,237.8h-3.1l-0.7,2.5h-1.7l3-9.2h1.9l3,9.2h-1.7L278.7,237.8z M278.3,236.5l-0.3-1.1
				c-0.3-1-0.6-2-0.8-3h-0.1c-0.3,1-0.5,2.1-0.8,3l-0.3,1.1H278.3z"/>
			<path fill="#7B7C7D" d="M282.1,233.4h1.3l0.1,0.9h0.1c0.6-0.6,1.3-1.1,2.3-1.1c1.5,0,2.1,1,2.1,2.8v4.3h-1.6v-4.1
				c0-1.1-0.3-1.6-1.1-1.6c-0.6,0-1,0.3-1.6,0.9v4.8h-1.6V233.4z"/>
			<path fill="#7B7C7D" d="M290.5,240.1L290.5,240.1c-0.4-0.3-0.6-0.6-0.6-1.2c0-0.5,0.4-1,0.8-1.3v-0.1c-0.5-0.4-0.9-1-0.9-1.8
				c0-1.6,1.3-2.5,2.7-2.5c0.4,0,0.7,0.1,1,0.2h2.5v1.2h-1.3c0.2,0.3,0.4,0.7,0.4,1.2c0,1.5-1.2,2.4-2.6,2.4c-0.3,0-0.6-0.1-0.9-0.2
				c-0.2,0.2-0.3,0.4-0.3,0.7c0,0.4,0.3,0.6,1.1,0.6h1.2c1.7,0,2.5,0.5,2.5,1.7c0,1.4-1.4,2.4-3.7,2.4c-1.7,0-2.9-0.6-2.9-1.8
				C289.5,241,289.9,240.5,290.5,240.1z M292.7,242.3c1.1,0,1.9-0.5,1.9-1.1c0-0.5-0.4-0.7-1.2-0.7h-0.9c-0.4,0-0.7,0-0.9-0.1
				c-0.4,0.3-0.5,0.6-0.5,0.9C290.9,241.9,291.6,242.3,292.7,242.3z M293.7,235.7c0-0.9-0.5-1.4-1.2-1.4c-0.7,0-1.2,0.5-1.2,1.4
				c0,0.9,0.5,1.4,1.2,1.4C293.2,237.1,293.7,236.6,293.7,235.7z"/>
			<path fill="#7B7C7D" d="M300.1,233.2c1.9,0,2.9,1.4,2.9,3.3c0,0.3,0,0.6-0.1,0.8h-4.4c0.1,1.3,0.9,2,2,2c0.6,0,1.1-0.2,1.6-0.5
				l0.5,1c-0.7,0.4-1.5,0.7-2.4,0.7c-1.9,0-3.4-1.3-3.4-3.6C296.9,234.6,298.5,233.2,300.1,233.2z M301.5,236.2
				c0-1.1-0.5-1.8-1.4-1.8c-0.8,0-1.5,0.6-1.7,1.8H301.5z"/>
			<path fill="#7B7C7D" d="M304.5,230.3h1.6v8.3c0,0.4,0.2,0.5,0.4,0.5c0.1,0,0.1,0,0.3,0l0.2,1.2c-0.2,0.1-0.5,0.1-0.9,0.1
				c-1.2,0-1.6-0.7-1.6-1.9V230.3z"/>
			<path fill="#7B7C7D" d="M311.3,231.1h1.7l2.9,5.2l1,2h0.1c-0.1-0.9-0.2-2.1-0.2-3.1v-4h1.6v9.2h-1.7l-2.9-5.2l-1-2h-0.1
				c0.1,1,0.2,2.1,0.2,3.1v4h-1.6V231.1z"/>
			<path fill="#7B7C7D" d="M320.2,231.2c0-0.6,0.4-0.9,1-0.9c0.6,0,1,0.4,1,0.9c0,0.5-0.4,0.9-1,0.9
				C320.7,232.2,320.2,231.8,320.2,231.2z M320.4,233.4h1.6v6.9h-1.6V233.4z"/>
			<path fill="#7B7C7D" d="M326.9,233.2c1.9,0,2.9,1.4,2.9,3.3c0,0.3,0,0.6-0.1,0.8h-4.4c0.1,1.3,0.9,2,2,2c0.6,0,1.1-0.2,1.6-0.5
				l0.5,1c-0.7,0.4-1.5,0.7-2.4,0.7c-1.9,0-3.4-1.3-3.4-3.6C323.7,234.6,325.2,233.2,326.9,233.2z M328.3,236.2
				c0-1.1-0.5-1.8-1.4-1.8c-0.8,0-1.5,0.6-1.7,1.8H328.3z"/>
			<path fill="#7B7C7D" d="M331.5,234.7h-1v-1.2l1.1-0.1l0.2-1.9h1.4v1.9h1.8v1.3h-1.8v3.3c0,0.8,0.3,1.2,1,1.2
				c0.2,0,0.5-0.1,0.7-0.2l0.3,1.2c-0.4,0.1-0.9,0.3-1.4,0.3c-1.6,0-2.2-1-2.2-2.5V234.7z"/>
			<path fill="#7B7C7D" d="M339.2,233.2c1.7,0,3.3,1.3,3.3,3.6c0,2.3-1.6,3.6-3.3,3.6c-1.7,0-3.3-1.3-3.3-3.6
				C335.9,234.5,337.5,233.2,339.2,233.2z M339.2,239.1c1,0,1.6-0.9,1.6-2.3c0-1.4-0.6-2.3-1.6-2.3c-1,0-1.6,0.9-1.6,2.3
				C337.6,238.2,338.2,239.1,339.2,239.1z"/>
		</g>
	</g>
	<g>
		<g>
			<path fill="#7B7C7D" d="M260.6,159.7c0.4,0.7,0.9,1,1.4,1c0.9,0,1.3-0.5,1.3-1.8v-6.2h1.6v6.3c0,1.7-0.8,3.1-2.8,3.1
				c-1.3,0-2.2-0.5-2.8-1.6L260.6,159.7z"/>
			<path fill="#7B7C7D" d="M269.9,154.8c1.7,0,3.3,1.3,3.3,3.6c0,2.3-1.6,3.6-3.3,3.6c-1.7,0-3.3-1.3-3.3-3.6
				C266.6,156.1,268.2,154.8,269.9,154.8z M269.9,160.8c1,0,1.6-0.9,1.6-2.3c0-1.4-0.6-2.3-1.6-2.3c-1,0-1.6,0.9-1.6,2.3
				C268.3,159.8,268.9,160.8,269.9,160.8z"/>
			<path fill="#7B7C7D" d="M274.8,155h1.3l0.1,1.2h0.1c0.5-0.9,1.2-1.4,2-1.4c0.4,0,0.6,0,0.8,0.1l-0.3,1.4
				c-0.2-0.1-0.4-0.1-0.7-0.1c-0.6,0-1.2,0.4-1.6,1.4v4.2h-1.6V155z"/>
			<path fill="#7B7C7D" d="M280.6,161.7L280.6,161.7c-0.4-0.3-0.6-0.6-0.6-1.2c0-0.5,0.4-1,0.8-1.3v-0.1c-0.5-0.4-0.9-1-0.9-1.8
				c0-1.6,1.3-2.5,2.7-2.5c0.4,0,0.7,0.1,1,0.2h2.5v1.2h-1.3c0.2,0.3,0.4,0.7,0.4,1.2c0,1.5-1.2,2.4-2.6,2.4c-0.3,0-0.6-0.1-0.9-0.2
				c-0.2,0.2-0.3,0.4-0.3,0.7c0,0.4,0.3,0.6,1.1,0.6h1.2c1.7,0,2.5,0.5,2.5,1.7c0,1.4-1.4,2.4-3.7,2.4c-1.7,0-2.9-0.6-2.9-1.8
				C279.6,162.6,280,162.1,280.6,161.7z M282.8,163.9c1.1,0,1.9-0.5,1.9-1.1c0-0.5-0.4-0.7-1.2-0.7h-0.9c-0.4,0-0.7,0-0.9-0.1
				c-0.4,0.3-0.5,0.6-0.5,0.9C281,163.6,281.7,163.9,282.8,163.9z M283.8,157.3c0-0.9-0.5-1.4-1.2-1.4c-0.7,0-1.2,0.5-1.2,1.4
				c0,0.9,0.5,1.4,1.2,1.4C283.2,158.7,283.8,158.2,283.8,157.3z"/>
			<path fill="#7B7C7D" d="M290.2,154.8c1.9,0,2.9,1.4,2.9,3.3c0,0.3,0,0.6-0.1,0.8h-4.4c0.1,1.3,0.9,2,2,2c0.6,0,1.1-0.2,1.6-0.5
				l0.5,1c-0.7,0.4-1.5,0.7-2.4,0.7c-1.9,0-3.4-1.3-3.4-3.6C287,156.2,288.5,154.8,290.2,154.8z M291.6,157.8c0-1.1-0.5-1.8-1.4-1.8
				c-0.8,0-1.5,0.6-1.7,1.8H291.6z"/>
			<path fill="#7B7C7D" d="M260.3,169.6h1.8l1.7,4.5l0.6,1.8h0.1l0.6-1.8l1.6-4.5h1.8v9.2h-1.5v-4.2c0-0.9,0.1-2.1,0.2-2.9h-0.1
				l-0.7,2.1l-1.6,4.2H264l-1.6-4.2l-0.7-2.1h-0.1c0.1,0.8,0.2,2.1,0.2,2.9v4.2h-1.5V169.6z"/>
			<path fill="#7B7C7D" d="M274.4,174.4c0-0.7-0.3-1.4-1.3-1.4c-0.7,0-1.3,0.3-1.9,0.7l-0.6-1.1c0.8-0.5,1.7-0.9,2.8-0.9
				c1.7,0,2.6,1.1,2.6,3v4.1h-1.3l-0.1-0.8h0c-0.6,0.5-1.3,0.9-2.1,0.9c-1.2,0-2.1-0.8-2.1-2C270.3,175.5,271.6,174.7,274.4,174.4z
				 M272.9,177.7c0.6,0,1-0.3,1.5-0.8v-1.6c-1.9,0.2-2.5,0.7-2.5,1.4C271.9,177.5,272.3,177.7,272.9,177.7z"/>
			<path fill="#7B7C7D" d="M278,171.9h1.3l0.1,1.2h0.1c0.5-0.9,1.2-1.4,2-1.4c0.4,0,0.6,0,0.8,0.1l-0.3,1.4
				c-0.2-0.1-0.4-0.1-0.7-0.1c-0.6,0-1.2,0.4-1.6,1.4v4.2H278V171.9z"/>
			<path fill="#7B7C7D" d="M283.5,173.2h-1V172l1.1-0.1l0.2-1.9h1.4v1.9h1.8v1.3h-1.8v3.3c0,0.8,0.3,1.2,1,1.2
				c0.2,0,0.5-0.1,0.7-0.2l0.3,1.2c-0.4,0.1-0.9,0.3-1.4,0.3c-1.6,0-2.2-1-2.2-2.5V173.2z"/>
			<path fill="#7B7C7D" d="M289.3,170.8h-1.2l1.3-2.1h1.6L289.3,170.8z M288.4,171.9h1.6v6.9h-1.6V171.9z"/>
			<path fill="#7B7C7D" d="M292.1,171.9h1.3l0.1,0.9h0.1c0.6-0.6,1.3-1.1,2.3-1.1c1.5,0,2.1,1,2.1,2.8v4.3h-1.6v-4.1
				c0-1.1-0.3-1.6-1.1-1.6c-0.6,0-1,0.3-1.6,0.9v4.8h-1.6V171.9z"/>
			<path fill="#7B7C7D" d="M302.7,171.7c1.9,0,2.9,1.4,2.9,3.3c0,0.3,0,0.6-0.1,0.8h-4.4c0.1,1.3,0.9,2,2,2c0.6,0,1.1-0.2,1.6-0.5
				l0.5,1c-0.7,0.4-1.5,0.7-2.4,0.7c-1.9,0-3.4-1.3-3.4-3.6C299.5,173.1,301.1,171.7,302.7,171.7z M304.1,174.8
				c0-1.1-0.5-1.8-1.4-1.8c-0.8,0-1.5,0.6-1.7,1.8H304.1z"/>
			<path fill="#7B7C7D" d="M306.6,178l3.3-4.8h-2.9v-1.3h4.9v0.9l-3.3,4.8h3.4v1.3h-5.4V178z"/>
			<path fill="#7B7C7D" d="M264.6,193.3h-3.1l-0.7,2.5h-1.7l3-9.2h1.9l3,9.2h-1.7L264.6,193.3z M264.2,192l-0.3-1.1
				c-0.3-1-0.6-2-0.8-3H263c-0.3,1-0.5,2.1-0.8,3l-0.3,1.1H264.2z"/>
			<path fill="#7B7C7D" d="M268,193.9c0.6,0.5,1.2,0.8,1.9,0.8c0.7,0,1.1-0.4,1.1-0.8c0-0.6-0.7-0.8-1.5-1.1c-0.9-0.3-1.9-0.9-1.9-2
				c0-1.2,1-2.1,2.5-2.1c1,0,1.7,0.4,2.3,0.8l-0.7,1c-0.5-0.4-1-0.6-1.5-0.6c-0.7,0-1,0.3-1,0.8c0,0.5,0.7,0.8,1.4,1
				c0.9,0.4,2,0.8,2,2.1c0,1.2-0.9,2.1-2.7,2.1c-0.9,0-1.9-0.4-2.6-1L268,193.9z"/>
			<path fill="#7B7C7D" d="M275.7,196.3v2.2h-1.6v-9.7h1.3l0.1,0.7h0.1c0.6-0.5,1.3-0.9,2.1-0.9c1.7,0,2.7,1.4,2.7,3.5
				c0,2.4-1.4,3.7-3,3.7c-0.6,0-1.2-0.3-1.8-0.8L275.7,196.3z M277.1,194.6c0.9,0,1.6-0.8,1.6-2.4c0-1.4-0.5-2.2-1.5-2.2
				c-0.5,0-1,0.3-1.5,0.8v3.2C276.2,194.5,276.7,194.6,277.1,194.6z"/>
			<path fill="#7B7C7D" d="M285.8,191.3c0-0.7-0.3-1.4-1.3-1.4c-0.7,0-1.3,0.3-1.9,0.7l-0.6-1.1c0.8-0.5,1.7-0.9,2.8-0.9
				c1.7,0,2.6,1.1,2.6,3v4.1h-1.3L286,195h0c-0.6,0.5-1.3,0.9-2.1,0.9c-1.2,0-2.1-0.8-2.1-2C281.7,192.4,283,191.7,285.8,191.3z
				 M284.3,194.7c0.6,0,1-0.3,1.5-0.8v-1.6c-1.9,0.2-2.5,0.7-2.5,1.4C283.3,194.4,283.7,194.7,284.3,194.7z"/>
			<path fill="#7B7C7D" d="M289.4,188.9h1.3l0.1,1.2h0.1c0.5-0.9,1.2-1.4,2-1.4c0.4,0,0.6,0,0.8,0.1l-0.3,1.4
				c-0.2-0.1-0.4-0.1-0.7-0.1c-0.6,0-1.2,0.4-1.6,1.4v4.2h-1.6V188.9z"/>
		</g>
	</g>
	<g>
		<g>
			<path fill="#7B7C7D" d="M164.3,234.3h3.1c2,0,3.5,0.7,3.5,2.9c0,2-1.5,3-3.5,3h-1.5v3.4h-1.6V234.3z M167.2,238.9
				c1.4,0,2-0.6,2-1.7c0-1.2-0.7-1.5-2-1.5h-1.3v3.2H167.2z"/>
			<path fill="#7B7C7D" d="M175.2,236.5c1.9,0,2.9,1.4,2.9,3.3c0,0.3,0,0.6-0.1,0.8h-4.4c0.1,1.3,0.9,2,2,2c0.6,0,1.1-0.2,1.6-0.5
				l0.5,1c-0.7,0.4-1.5,0.7-2.4,0.7c-1.9,0-3.4-1.3-3.4-3.6C172,237.8,173.6,236.5,175.2,236.5z M176.6,239.5c0-1.1-0.5-1.8-1.4-1.8
				c-0.8,0-1.5,0.6-1.7,1.8H176.6z"/>
			<path fill="#7B7C7D" d="M179.6,233.6h1.6v8.3c0,0.4,0.2,0.5,0.4,0.5c0.1,0,0.1,0,0.3,0l0.2,1.2c-0.2,0.1-0.5,0.1-0.9,0.1
				c-1.2,0-1.6-0.7-1.6-1.9V233.6z"/>
			<path fill="#7B7C7D" d="M183.4,236.6h1.6v4.1c0,1.1,0.3,1.6,1.1,1.6c0.6,0,1-0.3,1.5-1v-4.7h1.6v6.9h-1.3l-0.1-1h0
				c-0.6,0.7-1.3,1.2-2.2,1.2c-1.5,0-2.1-1-2.1-2.8V236.6z"/>
			<path fill="#7B7C7D" d="M193.8,236.5c0.8,0,1.3,0.3,1.9,0.8h0l0.1-0.7h1.3v9.7h-1.6V244l0.1-1.1c-0.5,0.5-1.2,0.8-1.9,0.8
				c-1.7,0-2.9-1.3-2.9-3.6C190.8,237.8,192.3,236.5,193.8,236.5z M194.1,242.4c0.5,0,1-0.2,1.5-0.8v-3.2c-0.5-0.4-0.9-0.6-1.4-0.6
				c-0.9,0-1.6,0.8-1.6,2.3C192.5,241.6,193.1,242.4,194.1,242.4z"/>
			<path fill="#7B7C7D" d="M199.1,236.6h1.6v4.1c0,1.1,0.3,1.6,1.1,1.6c0.6,0,1-0.3,1.5-1v-4.7h1.6v6.9h-1.3l-0.1-1h0
				c-0.6,0.7-1.3,1.2-2.2,1.2c-1.5,0-2.1-1-2.1-2.8V236.6z"/>
			<path fill="#7B7C7D" d="M206.8,234.5c0-0.6,0.4-0.9,1-0.9c0.6,0,1,0.4,1,0.9c0,0.5-0.4,0.9-1,0.9
				C207.3,235.4,206.8,235,206.8,234.5z M207,236.6h1.6v6.9H207V236.6z"/>
		</g>
	</g>
	<g>
		<g>
			<path fill="#7B7C7D" d="M103.9,173.6h-3.1l-0.7,2.5h-1.7l3-9.2h1.9l3,9.2h-1.7L103.9,173.6z M103.5,172.3l-0.3-1.1
				c-0.3-1-0.6-2-0.8-3h-0.1c-0.3,1-0.5,2.1-0.8,3l-0.3,1.1H103.5z"/>
			<path fill="#7B7C7D" d="M107.3,166.1h1.6v8.3c0,0.4,0.2,0.5,0.4,0.5c0.1,0,0.1,0,0.3,0l0.2,1.2c-0.2,0.1-0.5,0.1-0.9,0.1
				c-1.2,0-1.6-0.7-1.6-1.9V166.1z"/>
			<path fill="#7B7C7D" d="M113.9,169c1.9,0,2.9,1.4,2.9,3.3c0,0.3,0,0.6-0.1,0.8h-4.4c0.1,1.3,0.9,2,2,2c0.6,0,1.1-0.2,1.6-0.5
				l0.5,1c-0.7,0.4-1.5,0.7-2.4,0.7c-1.9,0-3.4-1.3-3.4-3.6C110.7,170.4,112.3,169,113.9,169z M115.3,172c0-1.1-0.5-1.8-1.4-1.8
				c-0.8,0-1.5,0.6-1.7,1.8H115.3z"/>
			<path fill="#7B7C7D" d="M119.7,172.5l-2.1-3.3h1.8l0.8,1.3c0.2,0.4,0.4,0.8,0.6,1.2h0.1c0.2-0.4,0.4-0.8,0.5-1.2l0.7-1.3h1.7
				l-2,3.5l2.2,3.4h-1.8l-0.8-1.4c-0.2-0.4-0.5-0.8-0.7-1.2h-0.1c-0.2,0.4-0.4,0.8-0.6,1.2l-0.7,1.4h-1.7L119.7,172.5z"/>
			<path fill="#7B7C7D" d="M131.9,166.7c1.1,0,2,0.6,2.6,1.2l-0.9,1c-0.5-0.5-1-0.8-1.7-0.8c-1.5,0-2.6,1.3-2.6,3.3
				c0,2.1,1,3.4,2.5,3.4c0.8,0,1.4-0.3,1.9-0.9l0.9,1c-0.7,0.9-1.7,1.3-2.9,1.3c-2.3,0-4.2-1.7-4.2-4.8
				C127.6,168.5,129.5,166.7,131.9,166.7z"/>
			<path fill="#7B7C7D" d="M136.1,169.1h1.3l0.1,1.2h0.1c0.5-0.9,1.2-1.4,2-1.4c0.4,0,0.6,0,0.8,0.1l-0.3,1.4
				c-0.2-0.1-0.4-0.1-0.7-0.1c-0.6,0-1.2,0.4-1.6,1.4v4.2h-1.6V169.1z"/>
			<path fill="#7B7C7D" d="M141.1,167c0-0.6,0.4-0.9,1-0.9c0.6,0,1,0.4,1,0.9c0,0.5-0.4,0.9-1,0.9
				C141.6,167.9,141.1,167.5,141.1,167z M141.3,169.1h1.6v6.9h-1.6V169.1z"/>
			<path fill="#7B7C7D" d="M144.2,169.1h1.7l1.1,3.6c0.2,0.7,0.4,1.4,0.6,2.1h0.1c0.2-0.7,0.4-1.4,0.6-2.1l1.1-3.6h1.6l-2.4,6.9
				h-1.9L144.2,169.1z"/>
			<path fill="#7B7C7D" d="M151.8,167c0-0.6,0.4-0.9,1-0.9c0.6,0,1,0.4,1,0.9c0,0.5-0.4,0.9-1,0.9
				C152.2,167.9,151.8,167.5,151.8,167z M152,169.1h1.6v6.9H152V169.1z"/>
			<path fill="#7B7C7D" d="M155.7,166.1h1.6v8.3c0,0.4,0.2,0.5,0.4,0.5c0.1,0,0.1,0,0.3,0l0.2,1.2c-0.2,0.1-0.5,0.1-0.9,0.1
				c-1.2,0-1.6-0.7-1.6-1.9V166.1z"/>
			<path fill="#7B7C7D" d="M159.5,166.1h1.6v8.3c0,0.4,0.2,0.5,0.4,0.5c0.1,0,0.1,0,0.3,0l0.2,1.2c-0.2,0.1-0.5,0.1-0.9,0.1
				c-1.2,0-1.6-0.7-1.6-1.9V166.1z"/>
			<path fill="#7B7C7D" d="M166.1,169c1.9,0,2.9,1.4,2.9,3.3c0,0.3,0,0.6-0.1,0.8h-4.4c0.1,1.3,0.9,2,2,2c0.6,0,1.1-0.2,1.6-0.5
				l0.5,1c-0.7,0.4-1.5,0.7-2.4,0.7c-1.9,0-3.4-1.3-3.4-3.6C162.9,170.4,164.5,169,166.1,169z M167.5,172c0-1.1-0.5-1.8-1.4-1.8
				c-0.8,0-1.5,0.6-1.7,1.8H167.5z"/>
		</g>
	</g>
	<g>
		<g>
			<path fill="#7B7C7D" d="M328.9,12.6c0.7,0.6,1.6,1,2.4,1c1,0,1.6-0.5,1.6-1.2c0-0.8-0.6-1-1.4-1.4l-1.3-0.6
				c-0.9-0.4-1.9-1.1-1.9-2.5c0-1.5,1.3-2.6,3.1-2.6c1.1,0,2.1,0.5,2.9,1.2l-0.8,1c-0.6-0.5-1.2-0.8-2-0.8c-0.9,0-1.4,0.4-1.4,1.1
				c0,0.7,0.7,1,1.5,1.3l1.2,0.5c1.1,0.5,1.9,1.2,1.9,2.5c0,1.5-1.2,2.7-3.3,2.7c-1.2,0-2.4-0.5-3.3-1.4L328.9,12.6z"/>
			<path fill="#7B7C7D" d="M335.9,5.8c0-0.6,0.4-0.9,1-0.9c0.6,0,1,0.4,1,0.9c0,0.5-0.4,0.9-1,0.9C336.4,6.7,335.9,6.3,335.9,5.8z
				 M336.1,7.9h1.6v6.9h-1.6V7.9z"/>
			<path fill="#7B7C7D" d="M340.1,9.2h-1V8l1.1-0.1l0.2-1.9h1.4v1.9h1.8v1.3h-1.8v3.3c0,0.8,0.3,1.2,1,1.2c0.2,0,0.5-0.1,0.7-0.2
				l0.3,1.2c-0.4,0.1-0.9,0.3-1.4,0.3c-1.6,0-2.2-1-2.2-2.5V9.2z"/>
			<path fill="#7B7C7D" d="M347.7,7.8c1.7,0,3.3,1.3,3.3,3.6c0,2.3-1.6,3.6-3.3,3.6c-1.7,0-3.3-1.3-3.3-3.6
				C344.5,9.1,346,7.8,347.7,7.8z M347.7,13.7c1,0,1.6-0.9,1.6-2.3c0-1.4-0.6-2.3-1.6-2.3c-1,0-1.6,0.9-1.6,2.3
				C346.1,12.8,346.7,13.7,347.7,13.7z"/>
			<path fill="#7B7C7D" d="M355.7,5.6h3.1c2,0,3.5,0.7,3.5,2.9c0,2-1.5,3-3.5,3h-1.5v3.4h-1.6V5.6z M358.6,10.2c1.4,0,2-0.6,2-1.7
				c0-1.2-0.7-1.5-2-1.5h-1.3v3.2H358.6z"/>
			<path fill="#7B7C7D" d="M366.7,7.8c1.7,0,3.3,1.3,3.3,3.6c0,2.3-1.6,3.6-3.3,3.6c-1.7,0-3.3-1.3-3.3-3.6
				C363.4,9.1,365,7.8,366.7,7.8z M366.7,13.7c1,0,1.6-0.9,1.6-2.3c0-1.4-0.6-2.3-1.6-2.3c-1,0-1.6,0.9-1.6,2.3
				C365.1,12.8,365.7,13.7,366.7,13.7z"/>
			<path fill="#7B7C7D" d="M371.6,7.9h1.3l0.1,0.9h0.1c0.6-0.6,1.3-1.1,2.3-1.1c1.5,0,2.1,1,2.1,2.8v4.3h-1.6v-4.1
				c0-1.1-0.3-1.6-1.1-1.6c-0.6,0-1,0.3-1.6,0.9v4.8h-1.6V7.9z"/>
			<path fill="#7B7C7D" d="M379.6,13c0.6,0.5,1.2,0.8,1.9,0.8c0.7,0,1.1-0.4,1.1-0.8c0-0.6-0.7-0.8-1.5-1.1c-0.9-0.3-1.9-0.9-1.9-2
				c0-1.2,1-2.1,2.5-2.1c1,0,1.7,0.4,2.3,0.8l-0.7,1c-0.5-0.4-1-0.6-1.5-0.6c-0.7,0-1,0.3-1,0.8c0,0.5,0.7,0.8,1.4,1
				c0.9,0.4,2,0.8,2,2.1c0,1.2-0.9,2.1-2.7,2.1c-0.9,0-1.9-0.4-2.6-1L379.6,13z"/>
		</g>
	</g>
	<g>
		<g>
			<path fill="#7B7C7D" d="M283.6,74.5c0.4,0.7,0.9,1,1.4,1c0.9,0,1.3-0.5,1.3-1.8v-6.2h1.6v6.3c0,1.7-0.8,3.1-2.8,3.1
				c-1.3,0-2.2-0.5-2.8-1.6L283.6,74.5z"/>
			<path fill="#7B7C7D" d="M293,69.6c1.7,0,3.3,1.3,3.3,3.6c0,2.3-1.6,3.6-3.3,3.6c-1.7,0-3.3-1.3-3.3-3.6
				C289.7,70.9,291.2,69.6,293,69.6z M293,75.5c1,0,1.6-0.9,1.6-2.3c0-1.4-0.6-2.3-1.6-2.3c-1,0-1.6,0.9-1.6,2.3
				C291.3,74.6,291.9,75.5,293,75.5z"/>
			<path fill="#7B7C7D" d="M297.9,69.8h1.3l0.1,1.2h0.1c0.5-0.9,1.2-1.4,2-1.4c0.4,0,0.6,0,0.8,0.1l-0.3,1.4
				c-0.2-0.1-0.4-0.1-0.7-0.1c-0.6,0-1.2,0.4-1.6,1.4v4.2h-1.6V69.8z"/>
			<path fill="#7B7C7D" d="M303.7,76.5L303.7,76.5c-0.4-0.3-0.6-0.6-0.6-1.2c0-0.5,0.4-1,0.8-1.3v-0.1c-0.5-0.4-0.9-1-0.9-1.8
				c0-1.6,1.3-2.5,2.7-2.5c0.4,0,0.7,0.1,1,0.2h2.5V71h-1.3c0.2,0.3,0.4,0.7,0.4,1.2c0,1.5-1.2,2.4-2.6,2.4c-0.3,0-0.6-0.1-0.9-0.2
				c-0.2,0.2-0.3,0.4-0.3,0.7c0,0.4,0.3,0.6,1.1,0.6h1.2c1.7,0,2.5,0.5,2.5,1.7c0,1.4-1.4,2.4-3.7,2.4c-1.7,0-2.9-0.6-2.9-1.8
				C302.7,77.4,303,76.9,303.7,76.5z M305.8,78.7c1.1,0,1.9-0.5,1.9-1.1c0-0.5-0.4-0.7-1.2-0.7h-0.9c-0.4,0-0.7,0-0.9-0.1
				c-0.4,0.3-0.5,0.6-0.5,0.9C304,78.3,304.7,78.7,305.8,78.7z M306.8,72.1c0-0.9-0.5-1.4-1.2-1.4c-0.7,0-1.2,0.5-1.2,1.4
				c0,0.9,0.5,1.4,1.2,1.4C306.3,73.5,306.8,73,306.8,72.1z"/>
			<path fill="#7B7C7D" d="M313.2,69.6c1.9,0,2.9,1.4,2.9,3.3c0,0.3,0,0.6-0.1,0.8h-4.4c0.1,1.3,0.9,2,2,2c0.6,0,1.1-0.2,1.6-0.5
				l0.5,1c-0.7,0.4-1.5,0.7-2.4,0.7c-1.9,0-3.4-1.3-3.4-3.6C310,71,311.6,69.6,313.2,69.6z M314.7,72.6c0-1.1-0.5-1.8-1.4-1.8
				c-0.8,0-1.5,0.6-1.7,1.8H314.7z"/>
			<path fill="#7B7C7D" d="M268.6,84.4h1.6v7.8h3.8v1.4h-5.5V84.4z"/>
			<path fill="#7B7C7D" d="M278.4,86.5c1.7,0,3.3,1.3,3.3,3.6c0,2.3-1.6,3.6-3.3,3.6c-1.7,0-3.3-1.3-3.3-3.6
				C275.1,87.9,276.7,86.5,278.4,86.5z M278.4,92.5c1,0,1.6-0.9,1.6-2.3c0-1.4-0.6-2.3-1.6-2.3c-1,0-1.6,0.9-1.6,2.3
				C276.8,91.6,277.4,92.5,278.4,92.5z"/>
			<path fill="#7B7C7D" d="M283.3,86.7h1.3l0.1,1.2h0.1c0.5-0.9,1.2-1.4,2-1.4c0.4,0,0.6,0,0.8,0.1l-0.3,1.4
				c-0.2-0.1-0.4-0.1-0.7-0.1c-0.6,0-1.2,0.4-1.6,1.4v4.2h-1.6V86.7z"/>
			<path fill="#7B7C7D" d="M291.3,86.5c1.9,0,2.9,1.4,2.9,3.3c0,0.3,0,0.6-0.1,0.8h-4.4c0.1,1.3,0.9,2,2,2c0.6,0,1.1-0.2,1.6-0.5
				l0.5,1c-0.7,0.4-1.5,0.7-2.4,0.7c-1.9,0-3.4-1.3-3.4-3.6C288.1,87.9,289.7,86.5,291.3,86.5z M292.8,89.5c0-1.1-0.5-1.8-1.4-1.8
				c-0.8,0-1.5,0.6-1.7,1.8H292.8z"/>
			<path fill="#7B7C7D" d="M295.7,86.7h1.3l0.1,0.9h0.1c0.6-0.6,1.3-1.1,2.3-1.1c1.5,0,2.1,1,2.1,2.8v4.3H300v-4.1
				c0-1.1-0.3-1.6-1.1-1.6c-0.6,0-1,0.3-1.6,0.9v4.8h-1.6V86.7z"/>
			<path fill="#7B7C7D" d="M303.1,92.8l3.3-4.8h-2.9v-1.3h4.9v0.9l-3.3,4.8h3.4v1.3h-5.4V92.8z"/>
			<path fill="#7B7C7D" d="M312.7,86.5c1.7,0,3.3,1.3,3.3,3.6c0,2.3-1.6,3.6-3.3,3.6c-1.7,0-3.3-1.3-3.3-3.6
				C309.4,87.9,311,86.5,312.7,86.5z M312.7,92.5c1,0,1.6-0.9,1.6-2.3c0-1.4-0.6-2.3-1.6-2.3c-1,0-1.6,0.9-1.6,2.3
				C311.1,91.6,311.7,92.5,312.7,92.5z"/>
		</g>
	</g>
	<g>
		<g>
			<path fill="#7B7C7D" d="M354.7,183.6h2.5c2.8,0,4.5,1.5,4.5,4.6c0,3.1-1.7,4.7-4.4,4.7h-2.5V183.6z M357.1,191.5
				c1.9,0,2.9-1.1,2.9-3.3c0-2.3-1.1-3.2-2.9-3.2h-0.7v6.6H357.1z"/>
			<path fill="#7B7C7D" d="M363.4,185.9h1.3l0.1,1.2h0.1c0.5-0.9,1.2-1.4,2-1.4c0.4,0,0.6,0,0.8,0.1l-0.3,1.4
				c-0.2-0.1-0.4-0.1-0.7-0.1c-0.6,0-1.2,0.4-1.6,1.4v4.2h-1.6V185.9z"/>
			<path fill="#7B7C7D" d="M369,194.4c0.7,0,1.2-0.5,1.4-1.2l0.1-0.4l-2.7-6.8h1.7l1.2,3.4c0.2,0.6,0.4,1.3,0.6,1.9h0.1
				c0.2-0.6,0.4-1.3,0.5-1.9l1-3.4h1.6l-2.5,7.2c-0.6,1.6-1.3,2.5-2.8,2.5c-0.4,0-0.6-0.1-0.9-0.1l0.3-1.3
				C368.6,194.3,368.8,194.4,369,194.4z"/>
			<path fill="#7B7C7D" d="M379,190.6c0.7,0.6,1.6,1,2.4,1c1,0,1.6-0.5,1.6-1.2c0-0.8-0.6-1-1.4-1.4l-1.3-0.6
				c-0.9-0.4-1.9-1.1-1.9-2.5c0-1.5,1.3-2.6,3.1-2.6c1.1,0,2.1,0.5,2.9,1.2l-0.8,1c-0.6-0.5-1.2-0.8-2-0.8c-0.9,0-1.4,0.4-1.4,1.1
				c0,0.7,0.7,1,1.5,1.3l1.2,0.5c1.1,0.5,1.9,1.2,1.9,2.5c0,1.5-1.2,2.7-3.3,2.7c-1.2,0-2.4-0.5-3.3-1.4L379,190.6z"/>
			<path fill="#7B7C7D" d="M390,188.4c0-0.7-0.3-1.4-1.3-1.4c-0.7,0-1.3,0.3-1.9,0.7l-0.6-1.1c0.8-0.5,1.7-0.9,2.8-0.9
				c1.7,0,2.6,1.1,2.6,3v4.1h-1.3l-0.1-0.8h0c-0.6,0.5-1.3,0.9-2.1,0.9c-1.2,0-2.1-0.8-2.1-2C385.9,189.5,387.1,188.7,390,188.4z
				 M388.5,191.8c0.6,0,1-0.3,1.5-0.8v-1.6c-1.9,0.2-2.5,0.7-2.5,1.4C387.5,191.5,387.9,191.8,388.5,191.8z"/>
			<path fill="#7B7C7D" d="M396.6,185.8c0.9,0,1.6,0.4,2,0.8l-0.8,1c-0.4-0.3-0.7-0.5-1.2-0.5c-1.1,0-1.9,0.9-1.9,2.3
				c0,1.4,0.8,2.3,1.8,2.3c0.6,0,1-0.3,1.4-0.6l0.7,1c-0.6,0.6-1.5,0.9-2.3,0.9c-1.9,0-3.3-1.3-3.3-3.6
				C393.1,187.1,394.7,185.8,396.6,185.8z"/>
			<path fill="#7B7C7D" d="M400.1,182.9h1.6v6.2h0l2.6-3.2h1.8l-2.4,2.8l2.6,4.1h-1.8l-1.8-3l-1.1,1.2v1.8h-1.6V182.9z"/>
		</g>
	</g>
	<g>
		<g>
			<path fill="#7B7C7D" d="M132.8,90.1h2v-5.9h-1.7v-1c0.9-0.2,1.5-0.4,2.1-0.7h1.2v7.6h1.8v1.3h-5.4V90.1z"/>
		</g>
	</g>
	<g>
		<g>
			<path fill="#7B7C7D" d="M169.6,29.9c2.5-2.4,4.1-4,4.1-5.4c0-0.9-0.5-1.6-1.5-1.6c-0.7,0-1.3,0.5-1.8,1l-0.9-0.9
				c0.8-0.9,1.6-1.4,2.9-1.4c1.7,0,2.8,1.1,2.8,2.8c0,1.6-1.5,3.2-3.3,5.1c0.5,0,1.1-0.1,1.5-0.1h2.2v1.4h-6.1V29.9z"/>
		</g>
	</g>
	<g>
		<g>
			<path fill="#7B7C7D" d="M191.3,56.3c0.5,0.6,1.2,1,2.1,1c1,0,1.7-0.5,1.7-1.4c0-0.9-0.6-1.5-2.6-1.5v-1.2c1.8,0,2.3-0.6,2.3-1.4
				c0-0.7-0.5-1.2-1.3-1.2c-0.7,0-1.3,0.3-1.8,0.8l-0.8-1c0.8-0.7,1.6-1.1,2.7-1.1c1.7,0,2.9,0.8,2.9,2.4c0,1-0.6,1.7-1.6,2.1v0.1
				c1.1,0.3,1.9,1,1.9,2.2c0,1.6-1.4,2.6-3.1,2.6c-1.5,0-2.4-0.6-3-1.3L191.3,56.3z"/>
		</g>
	</g>
	<g>
		<g>
			<path fill="#7B7C7D" d="M230.7,71.4h-1.1v2.3H228v-2.3h-4v-1.1l3.6-5.6h1.9v5.4h1.1V71.4z M228,70.1v-2c0-0.5,0-1.3,0.1-1.9H228
				c-0.2,0.5-0.5,0.9-0.7,1.4l-1.6,2.5H228z"/>
		</g>
	</g>
	<g>
		<g>
			<path fill="#7B7C7D" d="M317.2,12.8c0.5,0.5,1.2,1,2.1,1c1,0,1.7-0.6,1.7-1.7c0-1.1-0.7-1.7-1.7-1.7c-0.6,0-0.9,0.2-1.4,0.5
				l-0.8-0.5l0.3-4.4h4.8v1.4h-3.4l-0.2,2.2c0.4-0.2,0.7-0.3,1.2-0.3c1.5,0,2.8,0.9,2.8,2.8c0,2-1.5,3.1-3.2,3.1
				c-1.5,0-2.4-0.6-3.1-1.2L317.2,12.8z"/>
		</g>
	</g>
	<g>
		<g>
			<path fill="#7B7C7D" d="M347.7,185.7c-0.3-0.4-0.9-0.7-1.4-0.7c-1.1,0-2,0.8-2.1,3.3c0.5-0.7,1.3-1.1,1.9-1.1
				c1.6,0,2.6,0.9,2.6,2.8c0,1.8-1.3,3-2.8,3c-1.8,0-3.3-1.4-3.3-4.4c0-3.5,1.7-4.9,3.5-4.9c1.1,0,1.9,0.5,2.4,1L347.7,185.7z
				 M347.2,190c0-1.1-0.5-1.6-1.4-1.6c-0.5,0-1.1,0.3-1.6,1c0.2,1.6,0.8,2.3,1.7,2.3C346.6,191.8,347.2,191.1,347.2,190z"/>
		</g>
	</g>
	<g>
		<g>
			<path fill="#7B7C7D" d="M295.4,142.2h-4.2v-1.4h6v1c-2.1,2.6-2.5,4.5-2.6,8h-1.7C293.1,146.6,293.7,144.6,295.4,142.2z"/>
		</g>
	</g>
	<g>
		<g>
			<path fill="#7B7C7D" d="M243.3,156.6L243.3,156.6c-0.7-0.6-1.2-1.2-1.2-2.2c0-1.5,1.2-2.4,2.7-2.4c1.6,0,2.6,1,2.6,2.4
				c0,0.9-0.6,1.6-1.2,2.1v0.1c0.8,0.5,1.6,1.1,1.6,2.3c0,1.4-1.2,2.4-3,2.4c-1.8,0-3-1-3-2.5C241.6,157.8,242.4,157.1,243.3,156.6z
				 M244.7,160.2c0.9,0,1.5-0.5,1.5-1.3c0-1-0.9-1.3-2.2-1.8c-0.6,0.4-1,1-1,1.7C243.1,159.6,243.8,160.2,244.7,160.2z M246,154.6
				c0-0.8-0.5-1.4-1.3-1.4c-0.7,0-1.2,0.5-1.2,1.2c0,0.9,0.8,1.3,1.8,1.7C245.8,155.7,246,155.2,246,154.6z"/>
		</g>
	</g>
	<g>
		<g>
			<path fill="#7B7C7D" d="M273.8,222.8c0.3,0.4,0.9,0.7,1.4,0.7c1.1,0,2-0.8,2.1-3.3c-0.5,0.6-1.3,1-2,1c-1.5,0-2.6-0.9-2.6-2.8
				c0-1.8,1.3-2.9,2.8-2.9c1.8,0,3.2,1.4,3.2,4.4c0,3.5-1.7,4.9-3.5,4.9c-1.1,0-1.9-0.5-2.4-1L273.8,222.8z M277.3,219
				c-0.2-1.6-0.8-2.3-1.7-2.3c-0.7,0-1.3,0.6-1.3,1.7c0,1.1,0.5,1.6,1.4,1.6C276.2,220.1,276.8,219.8,277.3,219z"/>
		</g>
	</g>
	<g>
		<g>
			<path fill="#7B7C7D" d="M219.2,242.2h2v-5.9h-1.7v-1c0.9-0.2,1.5-0.4,2.1-0.7h1.2v7.6h1.8v1.3h-5.4V242.2z"/>
			<path fill="#7B7C7D" d="M225.9,239c0-3,1.2-4.6,3-4.6s3,1.6,3,4.6c0,3-1.2,4.7-3,4.7S225.9,242.1,225.9,239z M230.5,239
				c0-2.5-0.6-3.3-1.5-3.3c-0.9,0-1.5,0.8-1.5,3.3s0.6,3.4,1.5,3.4C229.9,242.5,230.5,241.6,230.5,239z"/>
		</g>
	</g>
	<g>
		<g>
			<path fill="#7B7C7D" d="M176.4,174.7h2v-5.9h-1.7v-1c0.9-0.2,1.5-0.4,2.1-0.7h1.2v7.6h1.8v1.3h-5.4V174.7z"/>
			<path fill="#7B7C7D" d="M183.6,174.7h2v-5.9H184v-1c0.9-0.2,1.5-0.4,2.1-0.7h1.2v7.6h1.8v1.3h-5.4V174.7z"/>
		</g>
	</g>
	<g>
		<g>
			<path fill="#7B7C7D" d="M197.3,136.5h2v-5.9h-1.7v-1c0.9-0.2,1.5-0.4,2.1-0.7h1.2v7.6h1.8v1.3h-5.4V136.5z"/>
			<path fill="#7B7C7D" d="M204,136.9c2.5-2.4,4.1-4,4.1-5.4c0-0.9-0.5-1.6-1.5-1.6c-0.7,0-1.3,0.5-1.8,1l-0.9-0.9
				c0.8-0.9,1.6-1.4,2.9-1.4c1.7,0,2.8,1.1,2.8,2.8c0,1.6-1.5,3.2-3.3,5.1c0.5,0,1.1-0.1,1.5-0.1h2.2v1.4H204V136.9z"/>
		</g>
	</g>
	<g>
		<g>
			<path fill="#7B7C7D" d="M303.2,108.5h2v-5.9h-1.7v-1c0.9-0.2,1.5-0.4,2.1-0.7h1.2v7.6h1.8v1.3h-5.4V108.5z"/>
			<path fill="#7B7C7D" d="M310.5,107.6c0.5,0.6,1.2,1,2.1,1c1,0,1.7-0.5,1.7-1.4c0-0.9-0.6-1.5-2.6-1.5v-1.2c1.8,0,2.3-0.6,2.3-1.4
				c0-0.7-0.5-1.2-1.3-1.2c-0.7,0-1.3,0.3-1.8,0.8l-0.8-1c0.8-0.7,1.6-1.1,2.7-1.1c1.7,0,2.9,0.8,2.9,2.4c0,1-0.6,1.7-1.6,2.1v0.1
				c1.1,0.3,1.9,1,1.9,2.2c0,1.6-1.4,2.6-3.1,2.6c-1.5,0-2.4-0.6-3-1.3L310.5,107.6z"/>
		</g>
	</g>
	<g>
		<g>
			<path fill="#7B7C7D" d="M181.5,21.6h1.8l1.7,4.5l0.6,1.8h0.1l0.6-1.8l1.6-4.5h1.8v9.2h-1.5v-4.2c0-0.9,0.1-2.1,0.2-2.9h-0.1
				l-0.7,2.1l-1.6,4.2h-0.7l-1.6-4.2l-0.7-2.1h-0.1c0.1,0.8,0.2,2.1,0.2,2.9v4.2h-1.5V21.6z"/>
			<path fill="#7B7C7D" d="M191.7,21.8c0-0.6,0.4-0.9,1-0.9c0.6,0,1,0.4,1,0.9c0,0.5-0.4,0.9-1,0.9
				C192.1,22.7,191.7,22.4,191.7,21.8z M191.9,23.9h1.6v6.9h-1.6V23.9z"/>
			<path fill="#7B7C7D" d="M198.6,23.8c0.9,0,1.6,0.4,2,0.8l-0.8,1c-0.4-0.3-0.7-0.5-1.2-0.5c-1.1,0-1.9,0.9-1.9,2.3
				c0,1.4,0.8,2.3,1.8,2.3c0.6,0,1-0.3,1.4-0.6l0.7,1c-0.6,0.6-1.5,0.9-2.3,0.9c-1.9,0-3.3-1.3-3.3-3.6
				C195.1,25.1,196.7,23.8,198.6,23.8z"/>
			<path fill="#7B7C7D" d="M202.1,20.9h1.6v2.6l-0.1,1.3c0.6-0.6,1.3-1,2.2-1c1.5,0,2.1,1,2.1,2.8v4.3h-1.6v-4.1
				c0-1.1-0.3-1.6-1.1-1.6c-0.6,0-1,0.3-1.6,0.9v4.8h-1.6V20.9z"/>
			<path fill="#7B7C7D" d="M212.7,23.8c1.9,0,2.9,1.4,2.9,3.3c0,0.3,0,0.6-0.1,0.8h-4.4c0.1,1.3,0.9,2,2,2c0.6,0,1.1-0.2,1.6-0.5
				l0.5,1c-0.7,0.4-1.5,0.7-2.4,0.7c-1.9,0-3.4-1.3-3.4-3.6C209.5,25.2,211.1,23.8,212.7,23.8z M214.1,26.8c0-1.1-0.5-1.8-1.4-1.8
				c-0.8,0-1.5,0.6-1.7,1.8H214.1z"/>
			<path fill="#7B7C7D" d="M217.1,20.9h1.6v8.3c0,0.4,0.2,0.5,0.4,0.5c0.1,0,0.1,0,0.3,0l0.2,1.2c-0.2,0.1-0.5,0.1-0.9,0.1
				c-1.2,0-1.6-0.7-1.6-1.9V20.9z"/>
			<path fill="#7B7C7D" d="M220.7,21.8c0-0.6,0.4-0.9,1-0.9c0.6,0,1,0.4,1,0.9c0,0.5-0.4,0.9-1,0.9
				C221.2,22.7,220.7,22.4,220.7,21.8z M220.9,23.9h1.6v6.9h-1.6V23.9z"/>
			<path fill="#7B7C7D" d="M224.6,23.9h1.3l0.1,0.9h0.1c0.6-0.6,1.3-1.1,2.3-1.1c1.5,0,2.1,1,2.1,2.8v4.3h-1.6v-4.1
				c0-1.1-0.3-1.6-1.1-1.6c-0.6,0-1,0.3-1.6,0.9v4.8h-1.6V23.9z"/>
		</g>
	</g>
	<g>
		<g>
			<path fill="#7B7C7D" d="M153.6,132.2h5.6v1.4h-3.9v2.6h3.3v1.4h-3.3v3.9h-1.6V132.2z"/>
			<path fill="#7B7C7D" d="M163.4,134.3c1.9,0,2.9,1.4,2.9,3.3c0,0.3,0,0.6-0.1,0.8h-4.4c0.1,1.3,0.9,2,2,2c0.6,0,1.1-0.2,1.6-0.5
				l0.5,1c-0.7,0.4-1.5,0.7-2.4,0.7c-1.9,0-3.4-1.3-3.4-3.6C160.2,135.7,161.8,134.3,163.4,134.3z M164.8,137.3
				c0-1.1-0.5-1.8-1.4-1.8c-0.8,0-1.5,0.6-1.7,1.8H164.8z"/>
			<path fill="#7B7C7D" d="M167.8,134.5h1.3l0.1,1.2h0.1c0.5-0.9,1.2-1.4,2-1.4c0.4,0,0.6,0,0.8,0.1l-0.3,1.4
				c-0.2-0.1-0.4-0.1-0.7-0.1c-0.6,0-1.2,0.4-1.6,1.4v4.2h-1.6V134.5z"/>
			<path fill="#7B7C7D" d="M173.1,134.5h1.3l0.1,1.2h0.1c0.5-0.9,1.2-1.4,2-1.4c0.4,0,0.6,0,0.8,0.1l-0.3,1.4
				c-0.2-0.1-0.4-0.1-0.7-0.1c-0.6,0-1.2,0.4-1.6,1.4v4.2h-1.6V134.5z"/>
			<path fill="#7B7C7D" d="M182.1,137c0-0.7-0.3-1.4-1.3-1.4c-0.7,0-1.3,0.3-1.9,0.7l-0.6-1.1c0.8-0.5,1.7-0.9,2.8-0.9
				c1.7,0,2.6,1.1,2.6,3v4.1h-1.3l-0.1-0.8h0c-0.6,0.5-1.3,0.9-2.1,0.9c-1.2,0-2.1-0.8-2.1-2C178,138.1,179.3,137.3,182.1,137z
				 M180.6,140.3c0.6,0,1-0.3,1.5-0.8V138c-1.9,0.2-2.5,0.7-2.5,1.4C179.6,140,180,140.3,180.6,140.3z"/>
			<path fill="#7B7C7D" d="M185.7,134.5h1.3l0.1,1.2h0.1c0.5-0.9,1.2-1.4,2-1.4c0.4,0,0.6,0,0.8,0.1l-0.3,1.4
				c-0.2-0.1-0.4-0.1-0.7-0.1c-0.6,0-1.2,0.4-1.6,1.4v4.2h-1.6V134.5z"/>
			<path fill="#7B7C7D" d="M190.8,132.3c0-0.6,0.4-0.9,1-0.9c0.6,0,1,0.4,1,0.9c0,0.5-0.4,0.9-1,0.9
				C191.2,133.3,190.8,132.9,190.8,132.3z M191,134.5h1.6v6.9H191V134.5z"/>
		</g>
	</g>
</g>
</svg>
